{
  "header": {
      "keySignatures": [],
      "meta": [],
      "name": "",
      "ppq": 9600,
      "tempos": [
          {
              "bpm": 192.99989385005838,
              "ticks": 0
          }
      ],
      "timeSignatures": []
  },
  "tracks": [
      {
          "channel": 0,
            "controlChanges": {},
          "pitchBends": [],
          "instrument": {
              "family": "drums",
              "number": 0,
              "name": "kick"
          },
          "name": "Kick",
          "notes": [
              {
                  "duration": 0.14572546875000003,
                  "durationTicks": 4500,
                  "midi": 60,
                  "name": "C4",
                  "ticks": 38400,
                  "time": 1.243524,
                  "velocity": 1
              },
              {
                  "duration": 0.1457254687499998,
                  "durationTicks": 4500,
                  "midi": 60,
                  "name": "C4",
                  "ticks": 76800,
                  "time": 2.487048,
                  "velocity": 1
              },
              {
                  "duration": 0.1457254687499998,
                  "durationTicks": 4500,
                  "midi": 60,
                  "name": "C4",
                  "ticks": 115200,
                  "time": 3.7305720000000004,
                  "velocity": 1
              },
              {
                  "duration": 0.14572546875000025,
                  "durationTicks": 4500,
                  "midi": 60,
                  "name": "C4",
                  "ticks": 153600,
                  "time": 4.974096,
                  "velocity": 1
              },
              {
                  "duration": 0.14572546875000025,
                  "durationTicks": 4500,
                  "midi": 60,
                  "name": "C4",
                  "ticks": 192000,
                  "time": 6.21762,
                  "velocity": 1
              },
              {
                  "duration": 0.14572546874999937,
                  "durationTicks": 4500,
                  "midi": 60,
                  "name": "C4",
                  "ticks": 230400,
                  "time": 7.461144000000001,
                  "velocity": 1
              },
              {
                  "duration": 0.14572546875000114,
                  "durationTicks": 4500,
                  "midi": 60,
                  "name": "C4",
                  "ticks": 268800,
                  "time": 8.704668,
                  "velocity": 1
              },
              {
                  "duration": 0.1619171874999985,
                  "durationTicks": 5000,
                  "midi": 60,
                  "name": "C4",
                  "ticks": 283200,
                  "time": 9.170989500000001,
                  "velocity": 1
              },
              {
                  "duration": 0.14572546874999937,
                  "durationTicks": 4500,
                  "midi": 60,
                  "name": "C4",
                  "ticks": 297600,
                  "time": 9.637311,
                  "velocity": 1
              },
              {
                  "duration": 0.0003238343749991657,
                  "durationTicks": 10,
                  "midi": 60,
                  "name": "C4",
                  "ticks": 307200,
                  "time": 9.948192,
                  "velocity": 1
              },
              {
                  "duration": 0.14572546874999937,
                  "durationTicks": 4500,
                  "midi": 60,
                  "name": "C4",
                  "ticks": 345600,
                  "time": 11.191716000000001,
                  "velocity": 1
              },
              {
                  "duration": 0.14572546875000114,
                  "durationTicks": 4500,
                  "midi": 60,
                  "name": "C4",
                  "ticks": 384000,
                  "time": 12.43524,
                  "velocity": 1
              },
              {
                  "duration": 0.14572546874999937,
                  "durationTicks": 4500,
                  "midi": 60,
                  "name": "C4",
                  "ticks": 422400,
                  "time": 13.678764000000001,
                  "velocity": 1
              },
              {
                  "duration": 0.14572546874999937,
                  "durationTicks": 4500,
                  "midi": 60,
                  "name": "C4",
                  "ticks": 460800,
                  "time": 14.922288000000002,
                  "velocity": 1
              },
              {
                  "duration": 0.1457254687499976,
                  "durationTicks": 4500,
                  "midi": 60,
                  "name": "C4",
                  "ticks": 499200,
                  "time": 16.165812000000003,
                  "velocity": 1
              },
              {
                  "duration": 0.14572546875000114,
                  "durationTicks": 4500,
                  "midi": 60,
                  "name": "C4",
                  "ticks": 537600,
                  "time": 17.409336,
                  "velocity": 1
              },
              {
                  "duration": 0.14572546875000114,
                  "durationTicks": 4500,
                  "midi": 60,
                  "name": "C4",
                  "ticks": 576000,
                  "time": 18.65286,
                  "velocity": 1
              },
              {
                  "duration": 0.16191718750000206,
                  "durationTicks": 5000,
                  "midi": 60,
                  "name": "C4",
                  "ticks": 590400,
                  "time": 19.1191815,
                  "velocity": 1
              },
              {
                  "duration": 0.1457254687499976,
                  "durationTicks": 4500,
                  "midi": 60,
                  "name": "C4",
                  "ticks": 604800,
                  "time": 19.585503000000003,
                  "velocity": 1
              },
              {
                  "duration": 0.0003238343749991657,
                  "durationTicks": 10,
                  "midi": 60,
                  "name": "C4",
                  "ticks": 614400,
                  "time": 19.896384,
                  "velocity": 1
              },
              {
                  "duration": 0.1457254687499976,
                  "durationTicks": 4500,
                  "midi": 60,
                  "name": "C4",
                  "ticks": 652800,
                  "time": 21.139908000000002,
                  "velocity": 1
              },
              {
                  "duration": 0.1457254687499976,
                  "durationTicks": 4500,
                  "midi": 60,
                  "name": "C4",
                  "ticks": 691200,
                  "time": 22.383432000000003,
                  "velocity": 1
              },
              {
                  "duration": 0.14572546875000114,
                  "durationTicks": 4500,
                  "midi": 60,
                  "name": "C4",
                  "ticks": 729600,
                  "time": 23.626956,
                  "velocity": 1
              },
              {
                  "duration": 0.14572546875000114,
                  "durationTicks": 4500,
                  "midi": 60,
                  "name": "C4",
                  "ticks": 768000,
                  "time": 24.87048,
                  "velocity": 1
              },
              {
                  "duration": 0.14572546875000114,
                  "durationTicks": 4500,
                  "midi": 60,
                  "name": "C4",
                  "ticks": 806400,
                  "time": 26.114004,
                  "velocity": 1
              },
              {
                  "duration": 0.14572546875000114,
                  "durationTicks": 4500,
                  "midi": 60,
                  "name": "C4",
                  "ticks": 820800,
                  "time": 26.5803255,
                  "velocity": 1
              },
              {
                  "duration": 0.14572546875000114,
                  "durationTicks": 4500,
                  "midi": 60,
                  "name": "C4",
                  "ticks": 844800,
                  "time": 27.357528000000002,
                  "velocity": 1
              },
              {
                  "duration": 0.1457254687499976,
                  "durationTicks": 4500,
                  "midi": 60,
                  "name": "C4",
                  "ticks": 883200,
                  "time": 28.601052000000003,
                  "velocity": 1
              },
              {
                  "duration": 0.1619171874999985,
                  "durationTicks": 5000,
                  "midi": 60,
                  "name": "C4",
                  "ticks": 897600,
                  "time": 29.067373500000002,
                  "velocity": 1
              },
              {
                  "duration": 0.14572546875000114,
                  "durationTicks": 4500,
                  "midi": 60,
                  "name": "C4",
                  "ticks": 912000,
                  "time": 29.533695,
                  "velocity": 1
              },
              {
                  "duration": 0.1457254687499976,
                  "durationTicks": 4500,
                  "midi": 60,
                  "name": "C4",
                  "ticks": 921600,
                  "time": 29.844576000000004,
                  "velocity": 1
              },
              {
                  "duration": 0.14572546875000114,
                  "durationTicks": 4500,
                  "midi": 60,
                  "name": "C4",
                  "ticks": 960000,
                  "time": 31.0881,
                  "velocity": 1
              },
              {
                  "duration": 0.14572546874999404,
                  "durationTicks": 4500,
                  "midi": 60,
                  "name": "C4",
                  "ticks": 998400,
                  "time": 32.331624000000005,
                  "velocity": 1
              },
              {
                  "duration": 0.14572546875000114,
                  "durationTicks": 4500,
                  "midi": 60,
                  "name": "C4",
                  "ticks": 1036800,
                  "time": 33.575148,
                  "velocity": 1
              },
              {
                  "duration": 0.14572546875000114,
                  "durationTicks": 4500,
                  "midi": 60,
                  "name": "C4",
                  "ticks": 1075200,
                  "time": 34.818672,
                  "velocity": 1
              },
              {
                  "duration": 0.14572546875000114,
                  "durationTicks": 4500,
                  "midi": 60,
                  "name": "C4",
                  "ticks": 1113600,
                  "time": 36.062196,
                  "velocity": 1
              },
              {
                  "duration": 0.14572546875000114,
                  "durationTicks": 4500,
                  "midi": 60,
                  "name": "C4",
                  "ticks": 1152000,
                  "time": 37.30572,
                  "velocity": 1
              },
              {
                  "duration": 0.14572546875000114,
                  "durationTicks": 4500,
                  "midi": 60,
                  "name": "C4",
                  "ticks": 1190400,
                  "time": 38.549244,
                  "velocity": 1
              },
              {
                  "duration": 0.16191718750000206,
                  "durationTicks": 5000,
                  "midi": 60,
                  "name": "C4",
                  "ticks": 1204800,
                  "time": 39.0155655,
                  "velocity": 1
              },
              {
                  "duration": 0.14572546875000114,
                  "durationTicks": 4500,
                  "midi": 60,
                  "name": "C4",
                  "ticks": 1219200,
                  "time": 39.481887,
                  "velocity": 1
              },
              {
                  "duration": 0.14572546875000114,
                  "durationTicks": 4500,
                  "midi": 60,
                  "name": "C4",
                  "ticks": 1228800,
                  "time": 39.792768,
                  "velocity": 1
              },
              {
                  "duration": 0.14572546875000114,
                  "durationTicks": 4500,
                  "midi": 60,
                  "name": "C4",
                  "ticks": 1238400,
                  "time": 40.103649000000004,
                  "velocity": 1
              },
              {
                  "duration": 0.14572546875000114,
                  "durationTicks": 4500,
                  "midi": 60,
                  "name": "C4",
                  "ticks": 1267200,
                  "time": 41.036292,
                  "velocity": 1
              },
              {
                  "duration": 0.14572546875000114,
                  "durationTicks": 4500,
                  "midi": 60,
                  "name": "C4",
                  "ticks": 1305600,
                  "time": 42.279816000000004,
                  "velocity": 1
              },
              {
                  "duration": 0.14572546875000114,
                  "durationTicks": 4500,
                  "midi": 60,
                  "name": "C4",
                  "ticks": 1344000,
                  "time": 43.523340000000005,
                  "velocity": 1
              },
              {
                  "duration": 0.14572546874999404,
                  "durationTicks": 4500,
                  "midi": 60,
                  "name": "C4",
                  "ticks": 1382400,
                  "time": 44.766864000000005,
                  "velocity": 1
              },
              {
                  "duration": 0.14572546874999404,
                  "durationTicks": 4500,
                  "midi": 60,
                  "name": "C4",
                  "ticks": 1420800,
                  "time": 46.010388000000006,
                  "velocity": 1
              },
              {
                  "duration": 0.14572546874999404,
                  "durationTicks": 4500,
                  "midi": 60,
                  "name": "C4",
                  "ticks": 1435200,
                  "time": 46.476709500000005,
                  "velocity": 1
              },
              {
                  "duration": 0.14572546875000114,
                  "durationTicks": 4500,
                  "midi": 60,
                  "name": "C4",
                  "ticks": 1459200,
                  "time": 47.253912,
                  "velocity": 1
              },
              {
                  "duration": 0.14572546875000114,
                  "durationTicks": 4500,
                  "midi": 60,
                  "name": "C4",
                  "ticks": 1497600,
                  "time": 48.497436,
                  "velocity": 1
              },
              {
                  "duration": 0.16191718750000916,
                  "durationTicks": 5000,
                  "midi": 60,
                  "name": "C4",
                  "ticks": 1512000,
                  "time": 48.9637575,
                  "velocity": 1
              },
              {
                  "duration": 0.14572546874999404,
                  "durationTicks": 4500,
                  "midi": 60,
                  "name": "C4",
                  "ticks": 1526400,
                  "time": 49.430079000000006,
                  "velocity": 1
              },
              {
                  "duration": 0.14572546875000114,
                  "durationTicks": 4500,
                  "midi": 60,
                  "name": "C4",
                  "ticks": 1536000,
                  "time": 49.74096,
                  "velocity": 1
              },
              {
                  "duration": 0.14572546875000114,
                  "durationTicks": 4500,
                  "midi": 60,
                  "name": "C4",
                  "ticks": 1545600,
                  "time": 50.051841,
                  "velocity": 1
              },
              {
                  "duration": 0.14572546875000114,
                  "durationTicks": 4500,
                  "midi": 60,
                  "name": "C4",
                  "ticks": 1574400,
                  "time": 50.984484,
                  "velocity": 1
              },
              {
                  "duration": 0.14572546875000114,
                  "durationTicks": 4500,
                  "midi": 60,
                  "name": "C4",
                  "ticks": 1612800,
                  "time": 52.228008,
                  "velocity": 1
              },
              {
                  "duration": 0.14572546875000114,
                  "durationTicks": 4500,
                  "midi": 60,
                  "name": "C4",
                  "ticks": 1651200,
                  "time": 53.471532,
                  "velocity": 1
              },
              {
                  "duration": 0.14572546875000114,
                  "durationTicks": 4500,
                  "midi": 60,
                  "name": "C4",
                  "ticks": 1689600,
                  "time": 54.715056000000004,
                  "velocity": 1
              },
              {
                  "duration": 0.14572546875000114,
                  "durationTicks": 4500,
                  "midi": 60,
                  "name": "C4",
                  "ticks": 1728000,
                  "time": 55.958580000000005,
                  "velocity": 1
              },
              {
                  "duration": 0.14572546875000114,
                  "durationTicks": 4500,
                  "midi": 60,
                  "name": "C4",
                  "ticks": 1766400,
                  "time": 57.202104000000006,
                  "velocity": 1
              },
              {
                  "duration": 0.14572546874999404,
                  "durationTicks": 4500,
                  "midi": 60,
                  "name": "C4",
                  "ticks": 1804800,
                  "time": 58.445628000000006,
                  "velocity": 1
              },
              {
                  "duration": 0.16191718750000206,
                  "durationTicks": 5000,
                  "midi": 60,
                  "name": "C4",
                  "ticks": 1819200,
                  "time": 58.911949500000006,
                  "velocity": 1
              },
              {
                  "duration": 0.14572546875000114,
                  "durationTicks": 4500,
                  "midi": 60,
                  "name": "C4",
                  "ticks": 1833600,
                  "time": 59.378271000000005,
                  "velocity": 1
              },
              {
                  "duration": 0.14572546875000114,
                  "durationTicks": 4500,
                  "midi": 60,
                  "name": "C4",
                  "ticks": 1881600,
                  "time": 60.932676,
                  "velocity": 1
              },
              {
                  "duration": 0.16191718750000916,
                  "durationTicks": 5000,
                  "midi": 60,
                  "name": "C4",
                  "ticks": 1896000,
                  "time": 61.3989975,
                  "velocity": 1
              },
              {
                  "duration": 0.14572546874999404,
                  "durationTicks": 4500,
                  "midi": 60,
                  "name": "C4",
                  "ticks": 1910400,
                  "time": 61.86531900000001,
                  "velocity": 1
              },
              {
                  "duration": 0.14572546875000114,
                  "durationTicks": 4500,
                  "midi": 60,
                  "name": "C4",
                  "ticks": 1920000,
                  "time": 62.1762,
                  "velocity": 1
              },
              {
                  "duration": 0.14572546875000114,
                  "durationTicks": 4500,
                  "midi": 60,
                  "name": "C4",
                  "ticks": 1929600,
                  "time": 62.487081,
                  "velocity": 1
              },
              {
                  "duration": 0.14572546875000114,
                  "durationTicks": 4500,
                  "midi": 60,
                  "name": "C4",
                  "ticks": 1958400,
                  "time": 63.419724,
                  "velocity": 1
              },
              {
                  "duration": 0.14572546874998693,
                  "durationTicks": 4500,
                  "midi": 60,
                  "name": "C4",
                  "ticks": 1996800,
                  "time": 64.66324800000001,
                  "velocity": 1
              },
              {
                  "duration": 0.14572546875000114,
                  "durationTicks": 4500,
                  "midi": 60,
                  "name": "C4",
                  "ticks": 2035200,
                  "time": 65.906772,
                  "velocity": 1
              },
              {
                  "duration": 0.14572546875000114,
                  "durationTicks": 4500,
                  "midi": 60,
                  "name": "C4",
                  "ticks": 2073600,
                  "time": 67.150296,
                  "velocity": 1
              },
              {
                  "duration": 0.14572546875000114,
                  "durationTicks": 4500,
                  "midi": 60,
                  "name": "C4",
                  "ticks": 2112000,
                  "time": 68.39382,
                  "velocity": 1
              },
              {
                  "duration": 0.14572546875000114,
                  "durationTicks": 4500,
                  "midi": 60,
                  "name": "C4",
                  "ticks": 2126400,
                  "time": 68.8601415,
                  "velocity": 1
              },
              {
                  "duration": 0.14572546875000114,
                  "durationTicks": 4500,
                  "midi": 60,
                  "name": "C4",
                  "ticks": 2150400,
                  "time": 69.637344,
                  "velocity": 1
              },
              {
                  "duration": 0.14572546875000114,
                  "durationTicks": 4500,
                  "midi": 60,
                  "name": "C4",
                  "ticks": 2496000,
                  "time": 80.82906,
                  "velocity": 1
              },
              {
                  "duration": 0.16191718749999495,
                  "durationTicks": 5000,
                  "midi": 60,
                  "name": "C4",
                  "ticks": 2510400,
                  "time": 81.2953815,
                  "velocity": 1
              },
              {
                  "duration": 0.14572546874998693,
                  "durationTicks": 4500,
                  "midi": 60,
                  "name": "C4",
                  "ticks": 2524800,
                  "time": 81.76170300000001,
                  "velocity": 1
              },
              {
                  "duration": 0.14572546875000114,
                  "durationTicks": 4500,
                  "midi": 60,
                  "name": "C4",
                  "ticks": 2534400,
                  "time": 82.072584,
                  "velocity": 1
              },
              {
                  "duration": 0.14572546875000114,
                  "durationTicks": 4500,
                  "midi": 60,
                  "name": "C4",
                  "ticks": 2544000,
                  "time": 82.383465,
                  "velocity": 1
              },
              {
                  "duration": 0.14572546875000114,
                  "durationTicks": 4500,
                  "midi": 60,
                  "name": "C4",
                  "ticks": 2572800,
                  "time": 83.316108,
                  "velocity": 1
              },
              {
                  "duration": 0.14572546875000114,
                  "durationTicks": 4500,
                  "midi": 60,
                  "name": "C4",
                  "ticks": 2611200,
                  "time": 84.55963200000001,
                  "velocity": 1
              },
              {
                  "duration": 0.14572546875000114,
                  "durationTicks": 4500,
                  "midi": 60,
                  "name": "C4",
                  "ticks": 2649600,
                  "time": 85.803156,
                  "velocity": 1
              },
              {
                  "duration": 0.14572546875000114,
                  "durationTicks": 4500,
                  "midi": 60,
                  "name": "C4",
                  "ticks": 2688000,
                  "time": 87.04668000000001,
                  "velocity": 1
              },
              {
                  "duration": 0.14572546875000114,
                  "durationTicks": 4500,
                  "midi": 60,
                  "name": "C4",
                  "ticks": 2726400,
                  "time": 88.290204,
                  "velocity": 1
              },
              {
                  "duration": 0.14572546875000114,
                  "durationTicks": 4500,
                  "midi": 60,
                  "name": "C4",
                  "ticks": 2740800,
                  "time": 88.75652550000001,
                  "velocity": 1
              },
              {
                  "duration": 0.14572546875000114,
                  "durationTicks": 4500,
                  "midi": 60,
                  "name": "C4",
                  "ticks": 2764800,
                  "time": 89.53372800000001,
                  "velocity": 1
              },
              {
                  "duration": 0.14572546875000114,
                  "durationTicks": 4500,
                  "midi": 60,
                  "name": "C4",
                  "ticks": 2803200,
                  "time": 90.777252,
                  "velocity": 1
              },
              {
                  "duration": 0.16191718749999495,
                  "durationTicks": 5000,
                  "midi": 60,
                  "name": "C4",
                  "ticks": 2817600,
                  "time": 91.24357350000001,
                  "velocity": 1
              },
              {
                  "duration": 0.14572546875000114,
                  "durationTicks": 4500,
                  "midi": 60,
                  "name": "C4",
                  "ticks": 2832000,
                  "time": 91.709895,
                  "velocity": 1
              },
              {
                  "duration": 0.14572546874998693,
                  "durationTicks": 4500,
                  "midi": 60,
                  "name": "C4",
                  "ticks": 2841600,
                  "time": 92.02077600000001,
                  "velocity": 1
              },
              {
                  "duration": 0.14572546875000114,
                  "durationTicks": 4500,
                  "midi": 60,
                  "name": "C4",
                  "ticks": 2851200,
                  "time": 92.331657,
                  "velocity": 1
              },
              {
                  "duration": 0.14572546875000114,
                  "durationTicks": 4500,
                  "midi": 60,
                  "name": "C4",
                  "ticks": 2880000,
                  "time": 93.2643,
                  "velocity": 1
              },
              {
                  "duration": 0.14572546875000114,
                  "durationTicks": 4500,
                  "midi": 60,
                  "name": "C4",
                  "ticks": 2918400,
                  "time": 94.507824,
                  "velocity": 1
              },
              {
                  "duration": 0.14572546875000114,
                  "durationTicks": 4500,
                  "midi": 60,
                  "name": "C4",
                  "ticks": 2956800,
                  "time": 95.75134800000001,
                  "velocity": 1
              },
              {
                  "duration": 0.14572546875000114,
                  "durationTicks": 4500,
                  "midi": 60,
                  "name": "C4",
                  "ticks": 2995200,
                  "time": 96.994872,
                  "velocity": 1
              },
              {
                  "duration": 0.14572546875000114,
                  "durationTicks": 4500,
                  "midi": 60,
                  "name": "C4",
                  "ticks": 3033600,
                  "time": 98.23839600000001,
                  "velocity": 1
              },
              {
                  "duration": 0.14572546875000114,
                  "durationTicks": 4500,
                  "midi": 60,
                  "name": "C4",
                  "ticks": 3048000,
                  "time": 98.7047175,
                  "velocity": 1
              },
              {
                  "duration": 0.00032383437499561296,
                  "durationTicks": 10,
                  "midi": 60,
                  "name": "C4",
                  "ticks": 3072000,
                  "time": 99.48192,
                  "velocity": 1
              },
              {
                  "duration": 0.14572546875000114,
                  "durationTicks": 4500,
                  "midi": 60,
                  "name": "C4",
                  "ticks": 3110400,
                  "time": 100.72544400000001,
                  "velocity": 1
              },
              {
                  "duration": 0.14572546875000114,
                  "durationTicks": 4500,
                  "midi": 60,
                  "name": "C4",
                  "ticks": 3148800,
                  "time": 101.968968,
                  "velocity": 1
              },
              {
                  "duration": 0.14572546875000114,
                  "durationTicks": 4500,
                  "midi": 60,
                  "name": "C4",
                  "ticks": 3187200,
                  "time": 103.21249200000001,
                  "velocity": 1
              },
              {
                  "duration": 0.14572546875000114,
                  "durationTicks": 4500,
                  "midi": 60,
                  "name": "C4",
                  "ticks": 3225600,
                  "time": 104.456016,
                  "velocity": 1
              },
              {
                  "duration": 0.14572546874998693,
                  "durationTicks": 4500,
                  "midi": 60,
                  "name": "C4",
                  "ticks": 3264000,
                  "time": 105.69954000000001,
                  "velocity": 1
              },
              {
                  "duration": 0.14572546875000114,
                  "durationTicks": 4500,
                  "midi": 60,
                  "name": "C4",
                  "ticks": 3302400,
                  "time": 106.943064,
                  "velocity": 1
              },
              {
                  "duration": 0.14572546875000114,
                  "durationTicks": 4500,
                  "midi": 60,
                  "name": "C4",
                  "ticks": 3340800,
                  "time": 108.186588,
                  "velocity": 1
              },
              {
                  "duration": 0.16191718749999495,
                  "durationTicks": 5000,
                  "midi": 60,
                  "name": "C4",
                  "ticks": 3355200,
                  "time": 108.6529095,
                  "velocity": 1
              },
              {
                  "duration": 0.14572546874998693,
                  "durationTicks": 4500,
                  "midi": 60,
                  "name": "C4",
                  "ticks": 3369600,
                  "time": 109.11923100000001,
                  "velocity": 1
              },
              {
                  "duration": 0.14572546875000114,
                  "durationTicks": 4500,
                  "midi": 60,
                  "name": "C4",
                  "ticks": 3379200,
                  "time": 109.43011200000001,
                  "velocity": 1
              },
              {
                  "duration": 0.14572546875000114,
                  "durationTicks": 4500,
                  "midi": 60,
                  "name": "C4",
                  "ticks": 3388800,
                  "time": 109.740993,
                  "velocity": 1
              },
              {
                  "duration": 0.14572546875000114,
                  "durationTicks": 4500,
                  "midi": 60,
                  "name": "C4",
                  "ticks": 3417600,
                  "time": 110.673636,
                  "velocity": 1
              },
              {
                  "duration": 0.14572546875000114,
                  "durationTicks": 4500,
                  "midi": 60,
                  "name": "C4",
                  "ticks": 3456000,
                  "time": 111.91716000000001,
                  "velocity": 1
              },
              {
                  "duration": 0.14572546875000114,
                  "durationTicks": 4500,
                  "midi": 60,
                  "name": "C4",
                  "ticks": 3494400,
                  "time": 113.160684,
                  "velocity": 1
              },
              {
                  "duration": 0.14572546875000114,
                  "durationTicks": 4500,
                  "midi": 60,
                  "name": "C4",
                  "ticks": 3532800,
                  "time": 114.40420800000001,
                  "velocity": 1
              },
              {
                  "duration": 0.14572546875000114,
                  "durationTicks": 4500,
                  "midi": 60,
                  "name": "C4",
                  "ticks": 3571200,
                  "time": 115.647732,
                  "velocity": 1
              },
              {
                  "duration": 0.14572546875000114,
                  "durationTicks": 4500,
                  "midi": 60,
                  "name": "C4",
                  "ticks": 3609600,
                  "time": 116.89125600000001,
                  "velocity": 1
              },
              {
                  "duration": 0.14572546875000114,
                  "durationTicks": 4500,
                  "midi": 60,
                  "name": "C4",
                  "ticks": 3648000,
                  "time": 118.13478,
                  "velocity": 1
              },
              {
                  "duration": 0.16191718749999495,
                  "durationTicks": 5000,
                  "midi": 60,
                  "name": "C4",
                  "ticks": 3662400,
                  "time": 118.60110150000001,
                  "velocity": 1
              },
              {
                  "duration": 0.14896381250001411,
                  "durationTicks": 4600,
                  "midi": 60,
                  "name": "C4",
                  "ticks": 3676800,
                  "time": 119.067423,
                  "velocity": 1
              }
          ],
          "endOfTrackTicks": 3686400
      },
      {
          "channel": 1,
          "controlChanges": {},
          "pitchBends": [],
          "instrument": {
              "family": "drums",
              "number": 2,
              "name": "snare"
          },
          "name": "Snare",
          "notes": [
              {
                  "duration": 0.16191718749999984,
                  "durationTicks": 5000,
                  "midi": 60,
                  "name": "C4",
                  "ticks": 57600,
                  "time": 1.8652860000000002,
                  "velocity": 1
              },
              {
                  "duration": 0.12305706250000048,
                  "durationTicks": 3800,
                  "midi": 60,
                  "name": "C4",
                  "ticks": 96000,
                  "time": 3.10881,
                  "velocity": 1
              },
              {
                  "duration": 0.16191718750000028,
                  "durationTicks": 5000,
                  "midi": 60,
                  "name": "C4",
                  "ticks": 134400,
                  "time": 4.352334,
                  "velocity": 1
              },
              {
                  "duration": 0.12305706249999915,
                  "durationTicks": 3800,
                  "midi": 60,
                  "name": "C4",
                  "ticks": 172800,
                  "time": 5.595858000000001,
                  "velocity": 1
              },
              {
                  "duration": 0.1619171874999994,
                  "durationTicks": 5000,
                  "midi": 60,
                  "name": "C4",
                  "ticks": 211200,
                  "time": 6.8393820000000005,
                  "velocity": 1
              },
              {
                  "duration": 0.12305706249999915,
                  "durationTicks": 3800,
                  "midi": 60,
                  "name": "C4",
                  "ticks": 249600,
                  "time": 8.082906000000001,
                  "velocity": 1
              },
              {
                  "duration": 0.16191718750000028,
                  "durationTicks": 5000,
                  "midi": 60,
                  "name": "C4",
                  "ticks": 288000,
                  "time": 9.32643,
                  "velocity": 1
              },
              {
                  "duration": 0.16191718750000206,
                  "durationTicks": 5000,
                  "midi": 60,
                  "name": "C4",
                  "ticks": 364800,
                  "time": 11.813478,
                  "velocity": 1
              },
              {
                  "duration": 0.12305706250000092,
                  "durationTicks": 3800,
                  "midi": 60,
                  "name": "C4",
                  "ticks": 403200,
                  "time": 13.057002,
                  "velocity": 1
              },
              {
                  "duration": 0.16191718750000028,
                  "durationTicks": 5000,
                  "midi": 60,
                  "name": "C4",
                  "ticks": 441600,
                  "time": 14.300526000000001,
                  "velocity": 1
              },
              {
                  "duration": 0.12305706250000092,
                  "durationTicks": 3800,
                  "midi": 60,
                  "name": "C4",
                  "ticks": 480000,
                  "time": 15.54405,
                  "velocity": 1
              },
              {
                  "duration": 0.16191718750000206,
                  "durationTicks": 5000,
                  "midi": 60,
                  "name": "C4",
                  "ticks": 518400,
                  "time": 16.787574,
                  "velocity": 1
              },
              {
                  "duration": 0.1230570625000027,
                  "durationTicks": 3800,
                  "midi": 60,
                  "name": "C4",
                  "ticks": 556800,
                  "time": 18.031098,
                  "velocity": 1
              },
              {
                  "duration": 0.16191718750000206,
                  "durationTicks": 5000,
                  "midi": 60,
                  "name": "C4",
                  "ticks": 595200,
                  "time": 19.274622,
                  "velocity": 1
              },
              {
                  "duration": 0.1619171874999985,
                  "durationTicks": 5000,
                  "midi": 60,
                  "name": "C4",
                  "ticks": 672000,
                  "time": 21.761670000000002,
                  "velocity": 1
              },
              {
                  "duration": 0.1230570624999956,
                  "durationTicks": 3800,
                  "midi": 60,
                  "name": "C4",
                  "ticks": 710400,
                  "time": 23.005194000000003,
                  "velocity": 1
              },
              {
                  "duration": 0.1619171874999985,
                  "durationTicks": 5000,
                  "midi": 60,
                  "name": "C4",
                  "ticks": 748800,
                  "time": 24.248718,
                  "velocity": 1
              },
              {
                  "duration": 0.12305706249999915,
                  "durationTicks": 3800,
                  "midi": 60,
                  "name": "C4",
                  "ticks": 787200,
                  "time": 25.492242,
                  "velocity": 1
              },
              {
                  "duration": 0.12629540625000146,
                  "durationTicks": 3900,
                  "midi": 60,
                  "name": "C4",
                  "ticks": 801600,
                  "time": 25.9585635,
                  "velocity": 1
              },
              {
                  "duration": 0.1619171874999985,
                  "durationTicks": 5000,
                  "midi": 60,
                  "name": "C4",
                  "ticks": 825600,
                  "time": 26.735766,
                  "velocity": 1
              },
              {
                  "duration": 0.12305706249999915,
                  "durationTicks": 3800,
                  "midi": 60,
                  "name": "C4",
                  "ticks": 864000,
                  "time": 27.979290000000002,
                  "velocity": 1
              },
              {
                  "duration": 0.1619171874999985,
                  "durationTicks": 5000,
                  "midi": 60,
                  "name": "C4",
                  "ticks": 902400,
                  "time": 29.222814000000003,
                  "velocity": 1
              },
              {
                  "duration": 0.1619171874999985,
                  "durationTicks": 5000,
                  "midi": 60,
                  "name": "C4",
                  "ticks": 979200,
                  "time": 31.709862,
                  "velocity": 1
              },
              {
                  "duration": 0.1230570624999956,
                  "durationTicks": 3800,
                  "midi": 60,
                  "name": "C4",
                  "ticks": 1017600,
                  "time": 32.953386,
                  "velocity": 1
              },
              {
                  "duration": 0.16191718749999495,
                  "durationTicks": 5000,
                  "midi": 60,
                  "name": "C4",
                  "ticks": 1056000,
                  "time": 34.19691,
                  "velocity": 1
              },
              {
                  "duration": 0.1230570624999956,
                  "durationTicks": 3800,
                  "midi": 60,
                  "name": "C4",
                  "ticks": 1094400,
                  "time": 35.440434,
                  "velocity": 1
              },
              {
                  "duration": 0.16191718749999495,
                  "durationTicks": 5000,
                  "midi": 60,
                  "name": "C4",
                  "ticks": 1132800,
                  "time": 36.683958000000004,
                  "velocity": 1
              },
              {
                  "duration": 0.1230570624999956,
                  "durationTicks": 3800,
                  "midi": 60,
                  "name": "C4",
                  "ticks": 1171200,
                  "time": 37.927482000000005,
                  "velocity": 1
              },
              {
                  "duration": 0.16191718749999495,
                  "durationTicks": 5000,
                  "midi": 60,
                  "name": "C4",
                  "ticks": 1209600,
                  "time": 39.171006000000006,
                  "velocity": 1
              },
              {
                  "duration": 0.1230570625000027,
                  "durationTicks": 3800,
                  "midi": 60,
                  "name": "C4",
                  "ticks": 1248000,
                  "time": 40.41453,
                  "velocity": 1
              },
              {
                  "duration": 0.16191718750000206,
                  "durationTicks": 5000,
                  "midi": 60,
                  "name": "C4",
                  "ticks": 1286400,
                  "time": 41.658054,
                  "velocity": 1
              },
              {
                  "duration": 0.1230570625000027,
                  "durationTicks": 3800,
                  "midi": 60,
                  "name": "C4",
                  "ticks": 1324800,
                  "time": 42.901578,
                  "velocity": 1
              },
              {
                  "duration": 0.16191718750000206,
                  "durationTicks": 5000,
                  "midi": 60,
                  "name": "C4",
                  "ticks": 1363200,
                  "time": 44.145102,
                  "velocity": 1
              },
              {
                  "duration": 0.1230570625000027,
                  "durationTicks": 3800,
                  "midi": 60,
                  "name": "C4",
                  "ticks": 1401600,
                  "time": 45.388626,
                  "velocity": 1
              },
              {
                  "duration": 0.12629540625000146,
                  "durationTicks": 3900,
                  "midi": 60,
                  "name": "C4",
                  "ticks": 1416000,
                  "time": 45.8549475,
                  "velocity": 1
              },
              {
                  "duration": 0.16191718750000206,
                  "durationTicks": 5000,
                  "midi": 60,
                  "name": "C4",
                  "ticks": 1440000,
                  "time": 46.63215,
                  "velocity": 1
              },
              {
                  "duration": 0.1230570625000027,
                  "durationTicks": 3800,
                  "midi": 60,
                  "name": "C4",
                  "ticks": 1478400,
                  "time": 47.875674000000004,
                  "velocity": 1
              },
              {
                  "duration": 0.16191718750000206,
                  "durationTicks": 5000,
                  "midi": 60,
                  "name": "C4",
                  "ticks": 1516800,
                  "time": 49.119198000000004,
                  "velocity": 1
              },
              {
                  "duration": 0.1230570625000027,
                  "durationTicks": 3800,
                  "midi": 60,
                  "name": "C4",
                  "ticks": 1555200,
                  "time": 50.362722000000005,
                  "velocity": 1
              },
              {
                  "duration": 0.16191718750000206,
                  "durationTicks": 5000,
                  "midi": 60,
                  "name": "C4",
                  "ticks": 1593600,
                  "time": 51.606246000000006,
                  "velocity": 1
              },
              {
                  "duration": 0.1230570625000027,
                  "durationTicks": 3800,
                  "midi": 60,
                  "name": "C4",
                  "ticks": 1632000,
                  "time": 52.84977000000001,
                  "velocity": 1
              },
              {
                  "duration": 0.16191718750000916,
                  "durationTicks": 5000,
                  "midi": 60,
                  "name": "C4",
                  "ticks": 1670400,
                  "time": 54.093294,
                  "velocity": 1
              },
              {
                  "duration": 0.1230570625000027,
                  "durationTicks": 3800,
                  "midi": 60,
                  "name": "C4",
                  "ticks": 1708800,
                  "time": 55.336818,
                  "velocity": 1
              },
              {
                  "duration": 0.16191718750000206,
                  "durationTicks": 5000,
                  "midi": 60,
                  "name": "C4",
                  "ticks": 1747200,
                  "time": 56.580342,
                  "velocity": 1
              },
              {
                  "duration": 0.1230570625000027,
                  "durationTicks": 3800,
                  "midi": 60,
                  "name": "C4",
                  "ticks": 1785600,
                  "time": 57.823866,
                  "velocity": 1
              },
              {
                  "duration": 0.16191718750000206,
                  "durationTicks": 5000,
                  "midi": 60,
                  "name": "C4",
                  "ticks": 1824000,
                  "time": 59.06739,
                  "velocity": 1
              },
              {
                  "duration": 0.16191718750000206,
                  "durationTicks": 5000,
                  "midi": 60,
                  "name": "C4",
                  "ticks": 1900800,
                  "time": 61.554438000000005,
                  "velocity": 1
              },
              {
                  "duration": 0.1230570625000027,
                  "durationTicks": 3800,
                  "midi": 60,
                  "name": "C4",
                  "ticks": 1939200,
                  "time": 62.797962000000005,
                  "velocity": 1
              },
              {
                  "duration": 0.16191718749999495,
                  "durationTicks": 5000,
                  "midi": 60,
                  "name": "C4",
                  "ticks": 1977600,
                  "time": 64.041486,
                  "velocity": 1
              },
              {
                  "duration": 0.1230570625000098,
                  "durationTicks": 3800,
                  "midi": 60,
                  "name": "C4",
                  "ticks": 2016000,
                  "time": 65.28501,
                  "velocity": 1
              },
              {
                  "duration": 0.16191718749999495,
                  "durationTicks": 5000,
                  "midi": 60,
                  "name": "C4",
                  "ticks": 2054400,
                  "time": 66.52853400000001,
                  "velocity": 1
              },
              {
                  "duration": 0.1230570625000098,
                  "durationTicks": 3800,
                  "midi": 60,
                  "name": "C4",
                  "ticks": 2092800,
                  "time": 67.772058,
                  "velocity": 1
              },
              {
                  "duration": 0.12629540624999436,
                  "durationTicks": 3900,
                  "midi": 60,
                  "name": "C4",
                  "ticks": 2107200,
                  "time": 68.23837950000001,
                  "velocity": 1
              },
              {
                  "duration": 0.16191718749999495,
                  "durationTicks": 5000,
                  "midi": 60,
                  "name": "C4",
                  "ticks": 2131200,
                  "time": 69.01558200000001,
                  "velocity": 1
              },
              {
                  "duration": 0.16191718749999495,
                  "durationTicks": 5000,
                  "midi": 60,
                  "name": "C4",
                  "ticks": 2515200,
                  "time": 81.450822,
                  "velocity": 1
              },
              {
                  "duration": 0.1230570624999956,
                  "durationTicks": 3800,
                  "midi": 60,
                  "name": "C4",
                  "ticks": 2553600,
                  "time": 82.69434600000001,
                  "velocity": 1
              },
              {
                  "duration": 0.16191718749999495,
                  "durationTicks": 5000,
                  "midi": 60,
                  "name": "C4",
                  "ticks": 2592000,
                  "time": 83.93787,
                  "velocity": 1
              },
              {
                  "duration": 0.12305706249998138,
                  "durationTicks": 3800,
                  "midi": 60,
                  "name": "C4",
                  "ticks": 2630400,
                  "time": 85.18139400000001,
                  "velocity": 1
              },
              {
                  "duration": 0.16191718749999495,
                  "durationTicks": 5000,
                  "midi": 60,
                  "name": "C4",
                  "ticks": 2668800,
                  "time": 86.424918,
                  "velocity": 1
              },
              {
                  "duration": 0.1230570624999956,
                  "durationTicks": 3800,
                  "midi": 60,
                  "name": "C4",
                  "ticks": 2707200,
                  "time": 87.668442,
                  "velocity": 1
              },
              {
                  "duration": 0.12629540624999436,
                  "durationTicks": 3900,
                  "midi": 60,
                  "name": "C4",
                  "ticks": 2721600,
                  "time": 88.1347635,
                  "velocity": 1
              },
              {
                  "duration": 0.16191718749999495,
                  "durationTicks": 5000,
                  "midi": 60,
                  "name": "C4",
                  "ticks": 2745600,
                  "time": 88.911966,
                  "velocity": 1
              },
              {
                  "duration": 0.1230570624999956,
                  "durationTicks": 3800,
                  "midi": 60,
                  "name": "C4",
                  "ticks": 2784000,
                  "time": 90.15549,
                  "velocity": 1
              },
              {
                  "duration": 0.16191718749999495,
                  "durationTicks": 5000,
                  "midi": 60,
                  "name": "C4",
                  "ticks": 2822400,
                  "time": 91.39901400000001,
                  "velocity": 1
              },
              {
                  "duration": 0.1230570624999956,
                  "durationTicks": 3800,
                  "midi": 60,
                  "name": "C4",
                  "ticks": 2860800,
                  "time": 92.642538,
                  "velocity": 1
              },
              {
                  "duration": 0.16191718749999495,
                  "durationTicks": 5000,
                  "midi": 60,
                  "name": "C4",
                  "ticks": 2899200,
                  "time": 93.88606200000001,
                  "velocity": 1
              },
              {
                  "duration": 0.1230570624999956,
                  "durationTicks": 3800,
                  "midi": 60,
                  "name": "C4",
                  "ticks": 2937600,
                  "time": 95.129586,
                  "velocity": 1
              },
              {
                  "duration": 0.16191718749999495,
                  "durationTicks": 5000,
                  "midi": 60,
                  "name": "C4",
                  "ticks": 2976000,
                  "time": 96.37311000000001,
                  "velocity": 1
              },
              {
                  "duration": 0.1230570624999956,
                  "durationTicks": 3800,
                  "midi": 60,
                  "name": "C4",
                  "ticks": 3014400,
                  "time": 97.616634,
                  "velocity": 1
              },
              {
                  "duration": 0.12629540624999436,
                  "durationTicks": 3900,
                  "midi": 60,
                  "name": "C4",
                  "ticks": 3028800,
                  "time": 98.08295550000001,
                  "velocity": 1
              },
              {
                  "duration": 0.16191718749998074,
                  "durationTicks": 5000,
                  "midi": 60,
                  "name": "C4",
                  "ticks": 3052800,
                  "time": 98.86015800000001,
                  "velocity": 1
              },
              {
                  "duration": 0.16191718749999495,
                  "durationTicks": 5000,
                  "midi": 60,
                  "name": "C4",
                  "ticks": 3129600,
                  "time": 101.347206,
                  "velocity": 1
              },
              {
                  "duration": 0.1230570624999956,
                  "durationTicks": 3800,
                  "midi": 60,
                  "name": "C4",
                  "ticks": 3168000,
                  "time": 102.59073000000001,
                  "velocity": 1
              },
              {
                  "duration": 0.16191718749999495,
                  "durationTicks": 5000,
                  "midi": 60,
                  "name": "C4",
                  "ticks": 3206400,
                  "time": 103.834254,
                  "velocity": 1
              },
              {
                  "duration": 0.1230570624999956,
                  "durationTicks": 3800,
                  "midi": 60,
                  "name": "C4",
                  "ticks": 3244800,
                  "time": 105.07777800000001,
                  "velocity": 1
              },
              {
                  "duration": 0.16191718749999495,
                  "durationTicks": 5000,
                  "midi": 60,
                  "name": "C4",
                  "ticks": 3283200,
                  "time": 106.321302,
                  "velocity": 1
              },
              {
                  "duration": 0.1230570624999956,
                  "durationTicks": 3800,
                  "midi": 60,
                  "name": "C4",
                  "ticks": 3321600,
                  "time": 107.56482600000001,
                  "velocity": 1
              },
              {
                  "duration": 0.16191718749999495,
                  "durationTicks": 5000,
                  "midi": 60,
                  "name": "C4",
                  "ticks": 3360000,
                  "time": 108.80835,
                  "velocity": 1
              },
              {
                  "duration": 0.12305706249998138,
                  "durationTicks": 3800,
                  "midi": 60,
                  "name": "C4",
                  "ticks": 3398400,
                  "time": 110.05187400000001,
                  "velocity": 1
              },
              {
                  "duration": 0.16191718749999495,
                  "durationTicks": 5000,
                  "midi": 60,
                  "name": "C4",
                  "ticks": 3436800,
                  "time": 111.295398,
                  "velocity": 1
              },
              {
                  "duration": 0.12305706249998138,
                  "durationTicks": 3800,
                  "midi": 60,
                  "name": "C4",
                  "ticks": 3475200,
                  "time": 112.53892200000001,
                  "velocity": 1
              },
              {
                  "duration": 0.16191718749999495,
                  "durationTicks": 5000,
                  "midi": 60,
                  "name": "C4",
                  "ticks": 3513600,
                  "time": 113.78244600000001,
                  "velocity": 1
              },
              {
                  "duration": 0.1230570624999956,
                  "durationTicks": 3800,
                  "midi": 60,
                  "name": "C4",
                  "ticks": 3552000,
                  "time": 115.02597,
                  "velocity": 1
              },
              {
                  "duration": 0.16191718749999495,
                  "durationTicks": 5000,
                  "midi": 60,
                  "name": "C4",
                  "ticks": 3590400,
                  "time": 116.26949400000001,
                  "velocity": 1
              },
              {
                  "duration": 0.1230570624999956,
                  "durationTicks": 3800,
                  "midi": 60,
                  "name": "C4",
                  "ticks": 3628800,
                  "time": 117.513018,
                  "velocity": 1
              },
              {
                  "duration": 0.16191718749999495,
                  "durationTicks": 5000,
                  "midi": 60,
                  "name": "C4",
                  "ticks": 3667200,
                  "time": 118.75654200000001,
                  "velocity": 1
              }
          ],
          "endOfTrackTicks": 3686400
      },
      {
          "channel": 2,
          "controlChanges": {},
          "pitchBends": [],
          "instrument": {
              "family": "hats",
              "number": 2,
              "name": "hats"
          },
          "name": "Hats",
          "notes": [
              {
                  "duration": 0.11658037500000001,
                  "durationTicks": 3600,
                  "midi": 60,
                  "name": "C4",
                  "ticks": 0,
                  "time": 0,
                  "velocity": 0.5984251968503937
              },
              {
                  "duration": 0.15867884375000005,
                  "durationTicks": 4900,
                  "midi": 60,
                  "name": "C4",
                  "ticks": 4800,
                  "time": 0.1554405,
                  "velocity": 0.4645669291338583
              },
              {
                  "duration": 0.15544050000000004,
                  "durationTicks": 4800,
                  "midi": 60,
                  "name": "C4",
                  "ticks": 9600,
                  "time": 0.310881,
                  "velocity": 0.5984251968503937
              },
              {
                  "duration": 0.15220215625,
                  "durationTicks": 4700,
                  "midi": 60,
                  "name": "C4",
                  "ticks": 14400,
                  "time": 0.46632150000000006,
                  "velocity": 0.6535433070866141
              },
              {
                  "duration": 0.15544049999999998,
                  "durationTicks": 4800,
                  "midi": 60,
                  "name": "C4",
                  "ticks": 19200,
                  "time": 0.621762,
                  "velocity": 0.5669291338582677
              },
              {
                  "duration": 0.1522021562500001,
                  "durationTicks": 4700,
                  "midi": 60,
                  "name": "C4",
                  "ticks": 24000,
                  "time": 0.7772025,
                  "velocity": 0.4645669291338583
              },
              {
                  "duration": 0.15544049999999987,
                  "durationTicks": 4800,
                  "midi": 60,
                  "name": "C4",
                  "ticks": 28800,
                  "time": 0.9326430000000001,
                  "velocity": 0.5511811023622047
              },
              {
                  "duration": 0.07772025000000005,
                  "durationTicks": 2400,
                  "midi": 60,
                  "name": "C4",
                  "ticks": 33600,
                  "time": 1.0880835,
                  "velocity": 0.5275590551181102
              },
              {
                  "duration": 0.07772025000000005,
                  "durationTicks": 2400,
                  "midi": 60,
                  "name": "C4",
                  "ticks": 36000,
                  "time": 1.16580375,
                  "velocity": 0.4645669291338583
              },
              {
                  "duration": 0.11658037500000007,
                  "durationTicks": 3600,
                  "midi": 60,
                  "name": "C4",
                  "ticks": 38400,
                  "time": 1.243524,
                  "velocity": 0.5984251968503937
              },
              {
                  "duration": 0.15867884374999996,
                  "durationTicks": 4900,
                  "midi": 60,
                  "name": "C4",
                  "ticks": 43200,
                  "time": 1.3989645000000002,
                  "velocity": 0.4645669291338583
              },
              {
                  "duration": 0.1554405000000001,
                  "durationTicks": 4800,
                  "midi": 60,
                  "name": "C4",
                  "ticks": 48000,
                  "time": 1.554405,
                  "velocity": 0.5984251968503937
              },
              {
                  "duration": 0.15220215625,
                  "durationTicks": 4700,
                  "midi": 60,
                  "name": "C4",
                  "ticks": 52800,
                  "time": 1.7098455000000001,
                  "velocity": 0.6535433070866141
              },
              {
                  "duration": 0.1554405000000001,
                  "durationTicks": 4800,
                  "midi": 60,
                  "name": "C4",
                  "ticks": 57600,
                  "time": 1.8652860000000002,
                  "velocity": 0.5669291338582677
              },
              {
                  "duration": 0.15220215624999955,
                  "durationTicks": 4700,
                  "midi": 60,
                  "name": "C4",
                  "ticks": 62400,
                  "time": 2.0207265000000003,
                  "velocity": 0.4645669291338583
              },
              {
                  "duration": 0.1554405000000001,
                  "durationTicks": 4800,
                  "midi": 60,
                  "name": "C4",
                  "ticks": 67200,
                  "time": 2.176167,
                  "velocity": 0.5511811023622047
              },
              {
                  "duration": 0.07772025000000005,
                  "durationTicks": 2400,
                  "midi": 60,
                  "name": "C4",
                  "ticks": 72000,
                  "time": 2.3316075,
                  "velocity": 0.5275590551181102
              },
              {
                  "duration": 0.07772025000000005,
                  "durationTicks": 2400,
                  "midi": 60,
                  "name": "C4",
                  "ticks": 74400,
                  "time": 2.40932775,
                  "velocity": 0.4645669291338583
              },
              {
                  "duration": 0.1554405000000001,
                  "durationTicks": 4800,
                  "midi": 60,
                  "name": "C4",
                  "ticks": 76800,
                  "time": 2.487048,
                  "velocity": 0.4645669291338583
              },
              {
                  "duration": 0.1554405000000001,
                  "durationTicks": 4800,
                  "midi": 60,
                  "name": "C4",
                  "ticks": 81600,
                  "time": 2.6424885000000002,
                  "velocity": 0.4645669291338583
              },
              {
                  "duration": 0.15867884374999974,
                  "durationTicks": 4900,
                  "midi": 60,
                  "name": "C4",
                  "ticks": 86400,
                  "time": 2.7979290000000003,
                  "velocity": 0.5275590551181102
              },
              {
                  "duration": 0.15220215625000044,
                  "durationTicks": 4700,
                  "midi": 60,
                  "name": "C4",
                  "ticks": 91200,
                  "time": 2.9533695,
                  "velocity": 0.4645669291338583
              },
              {
                  "duration": 0.1554405000000001,
                  "durationTicks": 4800,
                  "midi": 60,
                  "name": "C4",
                  "ticks": 96000,
                  "time": 3.10881,
                  "velocity": 0.6141732283464567
              },
              {
                  "duration": 0.15220215625000044,
                  "durationTicks": 4700,
                  "midi": 60,
                  "name": "C4",
                  "ticks": 100800,
                  "time": 3.2642505,
                  "velocity": 0.4645669291338583
              },
              {
                  "duration": 0.1554405000000001,
                  "durationTicks": 4800,
                  "midi": 60,
                  "name": "C4",
                  "ticks": 105600,
                  "time": 3.4196910000000003,
                  "velocity": 0.6614173228346457
              },
              {
                  "duration": 0.1554405000000001,
                  "durationTicks": 4800,
                  "midi": 60,
                  "name": "C4",
                  "ticks": 110400,
                  "time": 3.5751315000000004,
                  "velocity": 0.4645669291338583
              },
              {
                  "duration": 0.11658037499999985,
                  "durationTicks": 3600,
                  "midi": 60,
                  "name": "C4",
                  "ticks": 115200,
                  "time": 3.7305720000000004,
                  "velocity": 0.5984251968503937
              },
              {
                  "duration": 0.1586788437500002,
                  "durationTicks": 4900,
                  "midi": 60,
                  "name": "C4",
                  "ticks": 120000,
                  "time": 3.8860125,
                  "velocity": 0.4645669291338583
              },
              {
                  "duration": 0.1554404999999992,
                  "durationTicks": 4800,
                  "midi": 60,
                  "name": "C4",
                  "ticks": 124800,
                  "time": 4.041453000000001,
                  "velocity": 0.5984251968503937
              },
              {
                  "duration": 0.15220215625000044,
                  "durationTicks": 4700,
                  "midi": 60,
                  "name": "C4",
                  "ticks": 129600,
                  "time": 4.1968935,
                  "velocity": 0.6535433070866141
              },
              {
                  "duration": 0.1554405000000001,
                  "durationTicks": 4800,
                  "midi": 60,
                  "name": "C4",
                  "ticks": 134400,
                  "time": 4.352334,
                  "velocity": 0.5669291338582677
              },
              {
                  "duration": 0.15220215625000044,
                  "durationTicks": 4700,
                  "midi": 60,
                  "name": "C4",
                  "ticks": 139200,
                  "time": 4.5077745,
                  "velocity": 0.4645669291338583
              },
              {
                  "duration": 0.1554405000000001,
                  "durationTicks": 4800,
                  "midi": 60,
                  "name": "C4",
                  "ticks": 144000,
                  "time": 4.663215,
                  "velocity": 0.5511811023622047
              },
              {
                  "duration": 0.07772025000000049,
                  "durationTicks": 2400,
                  "midi": 60,
                  "name": "C4",
                  "ticks": 148800,
                  "time": 4.8186555,
                  "velocity": 0.5275590551181102
              },
              {
                  "duration": 0.0777202499999996,
                  "durationTicks": 2400,
                  "midi": 60,
                  "name": "C4",
                  "ticks": 151200,
                  "time": 4.896375750000001,
                  "velocity": 0.4645669291338583
              },
              {
                  "duration": 0.1554405000000001,
                  "durationTicks": 4800,
                  "midi": 60,
                  "name": "C4",
                  "ticks": 153600,
                  "time": 4.974096,
                  "velocity": 0.4645669291338583
              },
              {
                  "duration": 0.1554405000000001,
                  "durationTicks": 4800,
                  "midi": 60,
                  "name": "C4",
                  "ticks": 158400,
                  "time": 5.1295365,
                  "velocity": 0.4645669291338583
              },
              {
                  "duration": 0.15867884375000063,
                  "durationTicks": 4900,
                  "midi": 60,
                  "name": "C4",
                  "ticks": 163200,
                  "time": 5.2849770000000005,
                  "velocity": 0.5275590551181102
              },
              {
                  "duration": 0.15220215624999955,
                  "durationTicks": 4700,
                  "midi": 60,
                  "name": "C4",
                  "ticks": 168000,
                  "time": 5.440417500000001,
                  "velocity": 0.4645669291338583
              },
              {
                  "duration": 0.1554405000000001,
                  "durationTicks": 4800,
                  "midi": 60,
                  "name": "C4",
                  "ticks": 172800,
                  "time": 5.595858000000001,
                  "velocity": 0.6141732283464567
              },
              {
                  "duration": 0.15220215624999955,
                  "durationTicks": 4700,
                  "midi": 60,
                  "name": "C4",
                  "ticks": 177600,
                  "time": 5.751298500000001,
                  "velocity": 0.4645669291338583
              },
              {
                  "duration": 0.1554405000000001,
                  "durationTicks": 4800,
                  "midi": 60,
                  "name": "C4",
                  "ticks": 182400,
                  "time": 5.906739,
                  "velocity": 0.6614173228346457
              },
              {
                  "duration": 0.1554405000000001,
                  "durationTicks": 4800,
                  "midi": 60,
                  "name": "C4",
                  "ticks": 187200,
                  "time": 6.0621795,
                  "velocity": 0.4645669291338583
              },
              {
                  "duration": 0.11658037499999985,
                  "durationTicks": 3600,
                  "midi": 60,
                  "name": "C4",
                  "ticks": 192000,
                  "time": 6.21762,
                  "velocity": 0.5984251968503937
              },
              {
                  "duration": 0.15867884375000063,
                  "durationTicks": 4900,
                  "midi": 60,
                  "name": "C4",
                  "ticks": 196800,
                  "time": 6.3730605,
                  "velocity": 0.4645669291338583
              },
              {
                  "duration": 0.1554405000000001,
                  "durationTicks": 4800,
                  "midi": 60,
                  "name": "C4",
                  "ticks": 201600,
                  "time": 6.528501,
                  "velocity": 0.5984251968503937
              },
              {
                  "duration": 0.15220215624999955,
                  "durationTicks": 4700,
                  "midi": 60,
                  "name": "C4",
                  "ticks": 206400,
                  "time": 6.6839415,
                  "velocity": 0.6535433070866141
              },
              {
                  "duration": 0.1554405000000001,
                  "durationTicks": 4800,
                  "midi": 60,
                  "name": "C4",
                  "ticks": 211200,
                  "time": 6.8393820000000005,
                  "velocity": 0.5669291338582677
              },
              {
                  "duration": 0.15220215624999955,
                  "durationTicks": 4700,
                  "midi": 60,
                  "name": "C4",
                  "ticks": 216000,
                  "time": 6.994822500000001,
                  "velocity": 0.4645669291338583
              },
              {
                  "duration": 0.1554405000000001,
                  "durationTicks": 4800,
                  "midi": 60,
                  "name": "C4",
                  "ticks": 220800,
                  "time": 7.150263000000001,
                  "velocity": 0.5511811023622047
              },
              {
                  "duration": 0.0777202499999996,
                  "durationTicks": 2400,
                  "midi": 60,
                  "name": "C4",
                  "ticks": 225600,
                  "time": 7.305703500000001,
                  "velocity": 0.5275590551181102
              },
              {
                  "duration": 0.07772025000000049,
                  "durationTicks": 2400,
                  "midi": 60,
                  "name": "C4",
                  "ticks": 228000,
                  "time": 7.38342375,
                  "velocity": 0.4645669291338583
              },
              {
                  "duration": 0.1554404999999992,
                  "durationTicks": 4800,
                  "midi": 60,
                  "name": "C4",
                  "ticks": 230400,
                  "time": 7.461144000000001,
                  "velocity": 0.4645669291338583
              },
              {
                  "duration": 0.1554405000000001,
                  "durationTicks": 4800,
                  "midi": 60,
                  "name": "C4",
                  "ticks": 235200,
                  "time": 7.6165845,
                  "velocity": 0.4645669291338583
              },
              {
                  "duration": 0.15867884375000063,
                  "durationTicks": 4900,
                  "midi": 60,
                  "name": "C4",
                  "ticks": 240000,
                  "time": 7.772025,
                  "velocity": 0.5275590551181102
              },
              {
                  "duration": 0.15220215625000044,
                  "durationTicks": 4700,
                  "midi": 60,
                  "name": "C4",
                  "ticks": 244800,
                  "time": 7.9274655,
                  "velocity": 0.4645669291338583
              },
              {
                  "duration": 0.1554404999999992,
                  "durationTicks": 4800,
                  "midi": 60,
                  "name": "C4",
                  "ticks": 249600,
                  "time": 8.082906000000001,
                  "velocity": 0.6141732283464567
              },
              {
                  "duration": 0.15220215625000044,
                  "durationTicks": 4700,
                  "midi": 60,
                  "name": "C4",
                  "ticks": 254400,
                  "time": 8.2383465,
                  "velocity": 0.4645669291338583
              },
              {
                  "duration": 0.15544050000000098,
                  "durationTicks": 4800,
                  "midi": 60,
                  "name": "C4",
                  "ticks": 259200,
                  "time": 8.393787,
                  "velocity": 0.6614173228346457
              },
              {
                  "duration": 0.1554404999999992,
                  "durationTicks": 4800,
                  "midi": 60,
                  "name": "C4",
                  "ticks": 264000,
                  "time": 8.5492275,
                  "velocity": 0.4645669291338583
              },
              {
                  "duration": 0.11658037499999985,
                  "durationTicks": 3600,
                  "midi": 60,
                  "name": "C4",
                  "ticks": 268800,
                  "time": 8.704668,
                  "velocity": 0.5984251968503937
              },
              {
                  "duration": 0.15867884374999974,
                  "durationTicks": 4900,
                  "midi": 60,
                  "name": "C4",
                  "ticks": 273600,
                  "time": 8.8601085,
                  "velocity": 0.4645669291338583
              },
              {
                  "duration": 0.15544050000000098,
                  "durationTicks": 4800,
                  "midi": 60,
                  "name": "C4",
                  "ticks": 278400,
                  "time": 9.015549,
                  "velocity": 0.5984251968503937
              },
              {
                  "duration": 0.15220215624999867,
                  "durationTicks": 4700,
                  "midi": 60,
                  "name": "C4",
                  "ticks": 283200,
                  "time": 9.170989500000001,
                  "velocity": 0.6535433070866141
              },
              {
                  "duration": 0.15544050000000098,
                  "durationTicks": 4800,
                  "midi": 60,
                  "name": "C4",
                  "ticks": 288000,
                  "time": 9.32643,
                  "velocity": 0.5669291338582677
              },
              {
                  "duration": 0.15220215624999867,
                  "durationTicks": 4700,
                  "midi": 60,
                  "name": "C4",
                  "ticks": 292800,
                  "time": 9.481870500000001,
                  "velocity": 0.4645669291338583
              },
              {
                  "duration": 0.15544050000000098,
                  "durationTicks": 4800,
                  "midi": 60,
                  "name": "C4",
                  "ticks": 297600,
                  "time": 9.637311,
                  "velocity": 0.5511811023622047
              },
              {
                  "duration": 0.07772024999999871,
                  "durationTicks": 2400,
                  "midi": 60,
                  "name": "C4",
                  "ticks": 302400,
                  "time": 9.792751500000001,
                  "velocity": 0.5275590551181102
              },
              {
                  "duration": 0.07772025000000049,
                  "durationTicks": 2400,
                  "midi": 60,
                  "name": "C4",
                  "ticks": 304800,
                  "time": 9.87047175,
                  "velocity": 0.4645669291338583
              },
              {
                  "duration": 0.11658037499999985,
                  "durationTicks": 3600,
                  "midi": 60,
                  "name": "C4",
                  "ticks": 345600,
                  "time": 11.191716000000001,
                  "velocity": 0.5984251968503937
              },
              {
                  "duration": 0.15867884374999974,
                  "durationTicks": 4900,
                  "midi": 60,
                  "name": "C4",
                  "ticks": 350400,
                  "time": 11.3471565,
                  "velocity": 0.4645669291338583
              },
              {
                  "duration": 0.1554404999999992,
                  "durationTicks": 4800,
                  "midi": 60,
                  "name": "C4",
                  "ticks": 355200,
                  "time": 11.502597000000002,
                  "velocity": 0.5984251968503937
              },
              {
                  "duration": 0.15220215625000044,
                  "durationTicks": 4700,
                  "midi": 60,
                  "name": "C4",
                  "ticks": 360000,
                  "time": 11.6580375,
                  "velocity": 0.6535433070866141
              },
              {
                  "duration": 0.15544050000000098,
                  "durationTicks": 4800,
                  "midi": 60,
                  "name": "C4",
                  "ticks": 364800,
                  "time": 11.813478,
                  "velocity": 0.5669291338582677
              },
              {
                  "duration": 0.15220215625000044,
                  "durationTicks": 4700,
                  "midi": 60,
                  "name": "C4",
                  "ticks": 369600,
                  "time": 11.968918500000001,
                  "velocity": 0.4645669291338583
              },
              {
                  "duration": 0.15544050000000098,
                  "durationTicks": 4800,
                  "midi": 60,
                  "name": "C4",
                  "ticks": 374400,
                  "time": 12.124359,
                  "velocity": 0.5511811023622047
              },
              {
                  "duration": 0.07772025000000049,
                  "durationTicks": 2400,
                  "midi": 60,
                  "name": "C4",
                  "ticks": 379200,
                  "time": 12.279799500000001,
                  "velocity": 0.5275590551181102
              },
              {
                  "duration": 0.07772024999999871,
                  "durationTicks": 2400,
                  "midi": 60,
                  "name": "C4",
                  "ticks": 381600,
                  "time": 12.357519750000002,
                  "velocity": 0.4645669291338583
              },
              {
                  "duration": 0.15544050000000098,
                  "durationTicks": 4800,
                  "midi": 60,
                  "name": "C4",
                  "ticks": 384000,
                  "time": 12.43524,
                  "velocity": 0.4645669291338583
              },
              {
                  "duration": 0.1554404999999992,
                  "durationTicks": 4800,
                  "midi": 60,
                  "name": "C4",
                  "ticks": 388800,
                  "time": 12.590680500000001,
                  "velocity": 0.4645669291338583
              },
              {
                  "duration": 0.15867884374999974,
                  "durationTicks": 4900,
                  "midi": 60,
                  "name": "C4",
                  "ticks": 393600,
                  "time": 12.746121,
                  "velocity": 0.5275590551181102
              },
              {
                  "duration": 0.15220215625000044,
                  "durationTicks": 4700,
                  "midi": 60,
                  "name": "C4",
                  "ticks": 398400,
                  "time": 12.901561500000001,
                  "velocity": 0.4645669291338583
              },
              {
                  "duration": 0.15544050000000098,
                  "durationTicks": 4800,
                  "midi": 60,
                  "name": "C4",
                  "ticks": 403200,
                  "time": 13.057002,
                  "velocity": 0.6141732283464567
              },
              {
                  "duration": 0.15220215625000044,
                  "durationTicks": 4700,
                  "midi": 60,
                  "name": "C4",
                  "ticks": 408000,
                  "time": 13.212442500000002,
                  "velocity": 0.4645669291338583
              },
              {
                  "duration": 0.1554404999999992,
                  "durationTicks": 4800,
                  "midi": 60,
                  "name": "C4",
                  "ticks": 412800,
                  "time": 13.367883,
                  "velocity": 0.6614173228346457
              },
              {
                  "duration": 0.15544050000000098,
                  "durationTicks": 4800,
                  "midi": 60,
                  "name": "C4",
                  "ticks": 417600,
                  "time": 13.5233235,
                  "velocity": 0.4645669291338583
              },
              {
                  "duration": 0.11658037499999985,
                  "durationTicks": 3600,
                  "midi": 60,
                  "name": "C4",
                  "ticks": 422400,
                  "time": 13.678764000000001,
                  "velocity": 0.5984251968503937
              },
              {
                  "duration": 0.15867884374999974,
                  "durationTicks": 4900,
                  "midi": 60,
                  "name": "C4",
                  "ticks": 427200,
                  "time": 13.8342045,
                  "velocity": 0.4645669291338583
              },
              {
                  "duration": 0.1554404999999992,
                  "durationTicks": 4800,
                  "midi": 60,
                  "name": "C4",
                  "ticks": 432000,
                  "time": 13.989645000000001,
                  "velocity": 0.5984251968503937
              },
              {
                  "duration": 0.15220215625000044,
                  "durationTicks": 4700,
                  "midi": 60,
                  "name": "C4",
                  "ticks": 436800,
                  "time": 14.1450855,
                  "velocity": 0.6535433070866141
              },
              {
                  "duration": 0.1554404999999992,
                  "durationTicks": 4800,
                  "midi": 60,
                  "name": "C4",
                  "ticks": 441600,
                  "time": 14.300526000000001,
                  "velocity": 0.5669291338582677
              },
              {
                  "duration": 0.15220215625000044,
                  "durationTicks": 4700,
                  "midi": 60,
                  "name": "C4",
                  "ticks": 446400,
                  "time": 14.4559665,
                  "velocity": 0.4645669291338583
              },
              {
                  "duration": 0.1554404999999992,
                  "durationTicks": 4800,
                  "midi": 60,
                  "name": "C4",
                  "ticks": 451200,
                  "time": 14.611407000000002,
                  "velocity": 0.5511811023622047
              },
              {
                  "duration": 0.07772025000000049,
                  "durationTicks": 2400,
                  "midi": 60,
                  "name": "C4",
                  "ticks": 456000,
                  "time": 14.7668475,
                  "velocity": 0.5275590551181102
              },
              {
                  "duration": 0.07772025000000049,
                  "durationTicks": 2400,
                  "midi": 60,
                  "name": "C4",
                  "ticks": 458400,
                  "time": 14.844567750000001,
                  "velocity": 0.4645669291338583
              },
              {
                  "duration": 0.1554404999999992,
                  "durationTicks": 4800,
                  "midi": 60,
                  "name": "C4",
                  "ticks": 460800,
                  "time": 14.922288000000002,
                  "velocity": 0.4645669291338583
              },
              {
                  "duration": 0.1554404999999992,
                  "durationTicks": 4800,
                  "midi": 60,
                  "name": "C4",
                  "ticks": 465600,
                  "time": 15.077728500000001,
                  "velocity": 0.4645669291338583
              },
              {
                  "duration": 0.15867884374999974,
                  "durationTicks": 4900,
                  "midi": 60,
                  "name": "C4",
                  "ticks": 470400,
                  "time": 15.233169,
                  "velocity": 0.5275590551181102
              },
              {
                  "duration": 0.15220215625000044,
                  "durationTicks": 4700,
                  "midi": 60,
                  "name": "C4",
                  "ticks": 475200,
                  "time": 15.388609500000001,
                  "velocity": 0.4645669291338583
              },
              {
                  "duration": 0.15544050000000098,
                  "durationTicks": 4800,
                  "midi": 60,
                  "name": "C4",
                  "ticks": 480000,
                  "time": 15.54405,
                  "velocity": 0.6141732283464567
              },
              {
                  "duration": 0.15220215625000044,
                  "durationTicks": 4700,
                  "midi": 60,
                  "name": "C4",
                  "ticks": 484800,
                  "time": 15.699490500000001,
                  "velocity": 0.4645669291338583
              },
              {
                  "duration": 0.15544050000000098,
                  "durationTicks": 4800,
                  "midi": 60,
                  "name": "C4",
                  "ticks": 489600,
                  "time": 15.854931,
                  "velocity": 0.6614173228346457
              },
              {
                  "duration": 0.15544050000000098,
                  "durationTicks": 4800,
                  "midi": 60,
                  "name": "C4",
                  "ticks": 494400,
                  "time": 16.0103715,
                  "velocity": 0.4645669291338583
              },
              {
                  "duration": 0.11658037499999807,
                  "durationTicks": 3600,
                  "midi": 60,
                  "name": "C4",
                  "ticks": 499200,
                  "time": 16.165812000000003,
                  "velocity": 0.5984251968503937
              },
              {
                  "duration": 0.15867884374999974,
                  "durationTicks": 4900,
                  "midi": 60,
                  "name": "C4",
                  "ticks": 504000,
                  "time": 16.3212525,
                  "velocity": 0.4645669291338583
              },
              {
                  "duration": 0.15544050000000098,
                  "durationTicks": 4800,
                  "midi": 60,
                  "name": "C4",
                  "ticks": 508800,
                  "time": 16.476693,
                  "velocity": 0.5984251968503937
              },
              {
                  "duration": 0.15220215624999867,
                  "durationTicks": 4700,
                  "midi": 60,
                  "name": "C4",
                  "ticks": 513600,
                  "time": 16.632133500000002,
                  "velocity": 0.6535433070866141
              },
              {
                  "duration": 0.15544050000000098,
                  "durationTicks": 4800,
                  "midi": 60,
                  "name": "C4",
                  "ticks": 518400,
                  "time": 16.787574,
                  "velocity": 0.5669291338582677
              },
              {
                  "duration": 0.15220215625000222,
                  "durationTicks": 4700,
                  "midi": 60,
                  "name": "C4",
                  "ticks": 523200,
                  "time": 16.9430145,
                  "velocity": 0.4645669291338583
              },
              {
                  "duration": 0.15544050000000098,
                  "durationTicks": 4800,
                  "midi": 60,
                  "name": "C4",
                  "ticks": 528000,
                  "time": 17.098455,
                  "velocity": 0.5511811023622047
              },
              {
                  "duration": 0.07772024999999871,
                  "durationTicks": 2400,
                  "midi": 60,
                  "name": "C4",
                  "ticks": 532800,
                  "time": 17.253895500000002,
                  "velocity": 0.5275590551181102
              },
              {
                  "duration": 0.07772024999999871,
                  "durationTicks": 2400,
                  "midi": 60,
                  "name": "C4",
                  "ticks": 535200,
                  "time": 17.33161575,
                  "velocity": 0.4645669291338583
              },
              {
                  "duration": 0.15544050000000098,
                  "durationTicks": 4800,
                  "midi": 60,
                  "name": "C4",
                  "ticks": 537600,
                  "time": 17.409336,
                  "velocity": 0.4645669291338583
              },
              {
                  "duration": 0.15544050000000098,
                  "durationTicks": 4800,
                  "midi": 60,
                  "name": "C4",
                  "ticks": 542400,
                  "time": 17.5647765,
                  "velocity": 0.4645669291338583
              },
              {
                  "duration": 0.15867884374999974,
                  "durationTicks": 4900,
                  "midi": 60,
                  "name": "C4",
                  "ticks": 547200,
                  "time": 17.720217,
                  "velocity": 0.5275590551181102
              },
              {
                  "duration": 0.15220215624999867,
                  "durationTicks": 4700,
                  "midi": 60,
                  "name": "C4",
                  "ticks": 552000,
                  "time": 17.875657500000003,
                  "velocity": 0.4645669291338583
              },
              {
                  "duration": 0.15544050000000098,
                  "durationTicks": 4800,
                  "midi": 60,
                  "name": "C4",
                  "ticks": 556800,
                  "time": 18.031098,
                  "velocity": 0.6141732283464567
              },
              {
                  "duration": 0.15220215625000222,
                  "durationTicks": 4700,
                  "midi": 60,
                  "name": "C4",
                  "ticks": 561600,
                  "time": 18.1865385,
                  "velocity": 0.4645669291338583
              },
              {
                  "duration": 0.15544049999999743,
                  "durationTicks": 4800,
                  "midi": 60,
                  "name": "C4",
                  "ticks": 566400,
                  "time": 18.341979000000002,
                  "velocity": 0.6614173228346457
              },
              {
                  "duration": 0.15544050000000098,
                  "durationTicks": 4800,
                  "midi": 60,
                  "name": "C4",
                  "ticks": 571200,
                  "time": 18.4974195,
                  "velocity": 0.4645669291338583
              },
              {
                  "duration": 0.11658037500000162,
                  "durationTicks": 3600,
                  "midi": 60,
                  "name": "C4",
                  "ticks": 576000,
                  "time": 18.65286,
                  "velocity": 0.5984251968503937
              },
              {
                  "duration": 0.15867884374999974,
                  "durationTicks": 4900,
                  "midi": 60,
                  "name": "C4",
                  "ticks": 580800,
                  "time": 18.8083005,
                  "velocity": 0.4645669291338583
              },
              {
                  "duration": 0.15544049999999743,
                  "durationTicks": 4800,
                  "midi": 60,
                  "name": "C4",
                  "ticks": 585600,
                  "time": 18.963741000000002,
                  "velocity": 0.5984251968503937
              },
              {
                  "duration": 0.15220215625000222,
                  "durationTicks": 4700,
                  "midi": 60,
                  "name": "C4",
                  "ticks": 590400,
                  "time": 19.1191815,
                  "velocity": 0.6535433070866141
              },
              {
                  "duration": 0.15544050000000098,
                  "durationTicks": 4800,
                  "midi": 60,
                  "name": "C4",
                  "ticks": 595200,
                  "time": 19.274622,
                  "velocity": 0.5669291338582677
              },
              {
                  "duration": 0.15220215624999867,
                  "durationTicks": 4700,
                  "midi": 60,
                  "name": "C4",
                  "ticks": 600000,
                  "time": 19.430062500000002,
                  "velocity": 0.4645669291338583
              },
              {
                  "duration": 0.15544049999999743,
                  "durationTicks": 4800,
                  "midi": 60,
                  "name": "C4",
                  "ticks": 604800,
                  "time": 19.585503000000003,
                  "velocity": 0.5511811023622047
              },
              {
                  "duration": 0.07772025000000227,
                  "durationTicks": 2400,
                  "midi": 60,
                  "name": "C4",
                  "ticks": 609600,
                  "time": 19.7409435,
                  "velocity": 0.5275590551181102
              },
              {
                  "duration": 0.07772024999999871,
                  "durationTicks": 2400,
                  "midi": 60,
                  "name": "C4",
                  "ticks": 612000,
                  "time": 19.818663750000002,
                  "velocity": 0.4645669291338583
              },
              {
                  "duration": 0.11658037499999807,
                  "durationTicks": 3600,
                  "midi": 60,
                  "name": "C4",
                  "ticks": 652800,
                  "time": 21.139908000000002,
                  "velocity": 0.5984251968503937
              },
              {
                  "duration": 0.15867884374999974,
                  "durationTicks": 4900,
                  "midi": 60,
                  "name": "C4",
                  "ticks": 657600,
                  "time": 21.295348500000003,
                  "velocity": 0.4645669291338583
              },
              {
                  "duration": 0.15544050000000098,
                  "durationTicks": 4800,
                  "midi": 60,
                  "name": "C4",
                  "ticks": 662400,
                  "time": 21.450789,
                  "velocity": 0.5984251968503937
              },
              {
                  "duration": 0.15220215624999867,
                  "durationTicks": 4700,
                  "midi": 60,
                  "name": "C4",
                  "ticks": 667200,
                  "time": 21.6062295,
                  "velocity": 0.6535433070866141
              },
              {
                  "duration": 0.15544049999999743,
                  "durationTicks": 4800,
                  "midi": 60,
                  "name": "C4",
                  "ticks": 672000,
                  "time": 21.761670000000002,
                  "velocity": 0.5669291338582677
              },
              {
                  "duration": 0.15220215624999867,
                  "durationTicks": 4700,
                  "midi": 60,
                  "name": "C4",
                  "ticks": 676800,
                  "time": 21.9171105,
                  "velocity": 0.4645669291338583
              },
              {
                  "duration": 0.15544050000000098,
                  "durationTicks": 4800,
                  "midi": 60,
                  "name": "C4",
                  "ticks": 681600,
                  "time": 22.072551,
                  "velocity": 0.5511811023622047
              },
              {
                  "duration": 0.07772024999999871,
                  "durationTicks": 2400,
                  "midi": 60,
                  "name": "C4",
                  "ticks": 686400,
                  "time": 22.2279915,
                  "velocity": 0.5275590551181102
              },
              {
                  "duration": 0.07772025000000227,
                  "durationTicks": 2400,
                  "midi": 60,
                  "name": "C4",
                  "ticks": 688800,
                  "time": 22.30571175,
                  "velocity": 0.4645669291338583
              },
              {
                  "duration": 0.15544049999999743,
                  "durationTicks": 4800,
                  "midi": 60,
                  "name": "C4",
                  "ticks": 691200,
                  "time": 22.383432000000003,
                  "velocity": 0.4645669291338583
              },
              {
                  "duration": 0.15544050000000098,
                  "durationTicks": 4800,
                  "midi": 60,
                  "name": "C4",
                  "ticks": 696000,
                  "time": 22.5388725,
                  "velocity": 0.4645669291338583
              },
              {
                  "duration": 0.1586788437500033,
                  "durationTicks": 4900,
                  "midi": 60,
                  "name": "C4",
                  "ticks": 700800,
                  "time": 22.694313,
                  "velocity": 0.5275590551181102
              },
              {
                  "duration": 0.15220215624999867,
                  "durationTicks": 4700,
                  "midi": 60,
                  "name": "C4",
                  "ticks": 705600,
                  "time": 22.849753500000002,
                  "velocity": 0.4645669291338583
              },
              {
                  "duration": 0.15544049999999743,
                  "durationTicks": 4800,
                  "midi": 60,
                  "name": "C4",
                  "ticks": 710400,
                  "time": 23.005194000000003,
                  "velocity": 0.6141732283464567
              },
              {
                  "duration": 0.15220215624999867,
                  "durationTicks": 4700,
                  "midi": 60,
                  "name": "C4",
                  "ticks": 715200,
                  "time": 23.1606345,
                  "velocity": 0.4645669291338583
              },
              {
                  "duration": 0.15544050000000098,
                  "durationTicks": 4800,
                  "midi": 60,
                  "name": "C4",
                  "ticks": 720000,
                  "time": 23.316075,
                  "velocity": 0.6614173228346457
              },
              {
                  "duration": 0.15544049999999743,
                  "durationTicks": 4800,
                  "midi": 60,
                  "name": "C4",
                  "ticks": 724800,
                  "time": 23.471515500000002,
                  "velocity": 0.4645669291338583
              },
              {
                  "duration": 0.11658037500000162,
                  "durationTicks": 3600,
                  "midi": 60,
                  "name": "C4",
                  "ticks": 729600,
                  "time": 23.626956,
                  "velocity": 0.5984251968503937
              },
              {
                  "duration": 0.1586788437500033,
                  "durationTicks": 4900,
                  "midi": 60,
                  "name": "C4",
                  "ticks": 734400,
                  "time": 23.7823965,
                  "velocity": 0.4645669291338583
              },
              {
                  "duration": 0.15544050000000098,
                  "durationTicks": 4800,
                  "midi": 60,
                  "name": "C4",
                  "ticks": 739200,
                  "time": 23.937837000000002,
                  "velocity": 0.5984251968503937
              },
              {
                  "duration": 0.15220215624999867,
                  "durationTicks": 4700,
                  "midi": 60,
                  "name": "C4",
                  "ticks": 744000,
                  "time": 24.093277500000003,
                  "velocity": 0.6535433070866141
              },
              {
                  "duration": 0.15544050000000098,
                  "durationTicks": 4800,
                  "midi": 60,
                  "name": "C4",
                  "ticks": 748800,
                  "time": 24.248718,
                  "velocity": 0.5669291338582677
              },
              {
                  "duration": 0.15220215624999867,
                  "durationTicks": 4700,
                  "midi": 60,
                  "name": "C4",
                  "ticks": 753600,
                  "time": 24.4041585,
                  "velocity": 0.4645669291338583
              },
              {
                  "duration": 0.15544050000000098,
                  "durationTicks": 4800,
                  "midi": 60,
                  "name": "C4",
                  "ticks": 758400,
                  "time": 24.559599000000002,
                  "velocity": 0.5511811023622047
              },
              {
                  "duration": 0.07772024999999871,
                  "durationTicks": 2400,
                  "midi": 60,
                  "name": "C4",
                  "ticks": 763200,
                  "time": 24.715039500000003,
                  "velocity": 0.5275590551181102
              },
              {
                  "duration": 0.07772024999999871,
                  "durationTicks": 2400,
                  "midi": 60,
                  "name": "C4",
                  "ticks": 765600,
                  "time": 24.792759750000002,
                  "velocity": 0.4645669291338583
              },
              {
                  "duration": 0.15544050000000098,
                  "durationTicks": 4800,
                  "midi": 60,
                  "name": "C4",
                  "ticks": 768000,
                  "time": 24.87048,
                  "velocity": 0.4645669291338583
              },
              {
                  "duration": 0.15544050000000098,
                  "durationTicks": 4800,
                  "midi": 60,
                  "name": "C4",
                  "ticks": 772800,
                  "time": 25.0259205,
                  "velocity": 0.4645669291338583
              },
              {
                  "duration": 0.15867884374999974,
                  "durationTicks": 4900,
                  "midi": 60,
                  "name": "C4",
                  "ticks": 777600,
                  "time": 25.181361000000003,
                  "velocity": 0.5275590551181102
              },
              {
                  "duration": 0.15220215624999867,
                  "durationTicks": 4700,
                  "midi": 60,
                  "name": "C4",
                  "ticks": 782400,
                  "time": 25.3368015,
                  "velocity": 0.4645669291338583
              },
              {
                  "duration": 0.15544050000000098,
                  "durationTicks": 4800,
                  "midi": 60,
                  "name": "C4",
                  "ticks": 787200,
                  "time": 25.492242,
                  "velocity": 0.6141732283464567
              },
              {
                  "duration": 0.15220215624999867,
                  "durationTicks": 4700,
                  "midi": 60,
                  "name": "C4",
                  "ticks": 792000,
                  "time": 25.647682500000002,
                  "velocity": 0.4645669291338583
              },
              {
                  "duration": 0.15544049999999743,
                  "durationTicks": 4800,
                  "midi": 60,
                  "name": "C4",
                  "ticks": 796800,
                  "time": 25.803123000000003,
                  "velocity": 0.6614173228346457
              },
              {
                  "duration": 0.15544050000000098,
                  "durationTicks": 4800,
                  "midi": 60,
                  "name": "C4",
                  "ticks": 801600,
                  "time": 25.9585635,
                  "velocity": 0.4645669291338583
              },
              {
                  "duration": 0.11658037500000162,
                  "durationTicks": 3600,
                  "midi": 60,
                  "name": "C4",
                  "ticks": 806400,
                  "time": 26.114004,
                  "velocity": 0.5984251968503937
              },
              {
                  "duration": 0.15867884374999974,
                  "durationTicks": 4900,
                  "midi": 60,
                  "name": "C4",
                  "ticks": 811200,
                  "time": 26.269444500000002,
                  "velocity": 0.4645669291338583
              },
              {
                  "duration": 0.15544049999999743,
                  "durationTicks": 4800,
                  "midi": 60,
                  "name": "C4",
                  "ticks": 816000,
                  "time": 26.424885000000003,
                  "velocity": 0.5984251968503937
              },
              {
                  "duration": 0.15220215624999867,
                  "durationTicks": 4700,
                  "midi": 60,
                  "name": "C4",
                  "ticks": 820800,
                  "time": 26.5803255,
                  "velocity": 0.6535433070866141
              },
              {
                  "duration": 0.15544050000000098,
                  "durationTicks": 4800,
                  "midi": 60,
                  "name": "C4",
                  "ticks": 825600,
                  "time": 26.735766,
                  "velocity": 0.5669291338582677
              },
              {
                  "duration": 0.15220215624999867,
                  "durationTicks": 4700,
                  "midi": 60,
                  "name": "C4",
                  "ticks": 830400,
                  "time": 26.891206500000003,
                  "velocity": 0.4645669291338583
              },
              {
                  "duration": 0.15544050000000098,
                  "durationTicks": 4800,
                  "midi": 60,
                  "name": "C4",
                  "ticks": 835200,
                  "time": 27.046647,
                  "velocity": 0.5511811023622047
              },
              {
                  "duration": 0.07772025000000227,
                  "durationTicks": 2400,
                  "midi": 60,
                  "name": "C4",
                  "ticks": 840000,
                  "time": 27.2020875,
                  "velocity": 0.5275590551181102
              },
              {
                  "duration": 0.07772024999999871,
                  "durationTicks": 2400,
                  "midi": 60,
                  "name": "C4",
                  "ticks": 842400,
                  "time": 27.279807750000003,
                  "velocity": 0.4645669291338583
              },
              {
                  "duration": 0.15544050000000098,
                  "durationTicks": 4800,
                  "midi": 60,
                  "name": "C4",
                  "ticks": 844800,
                  "time": 27.357528000000002,
                  "velocity": 0.4645669291338583
              },
              {
                  "duration": 0.15544049999999743,
                  "durationTicks": 4800,
                  "midi": 60,
                  "name": "C4",
                  "ticks": 849600,
                  "time": 27.512968500000003,
                  "velocity": 0.4645669291338583
              },
              {
                  "duration": 0.1586788437500033,
                  "durationTicks": 4900,
                  "midi": 60,
                  "name": "C4",
                  "ticks": 854400,
                  "time": 27.668409,
                  "velocity": 0.5275590551181102
              },
              {
                  "duration": 0.15220215624999867,
                  "durationTicks": 4700,
                  "midi": 60,
                  "name": "C4",
                  "ticks": 859200,
                  "time": 27.8238495,
                  "velocity": 0.4645669291338583
              },
              {
                  "duration": 0.15544050000000098,
                  "durationTicks": 4800,
                  "midi": 60,
                  "name": "C4",
                  "ticks": 864000,
                  "time": 27.979290000000002,
                  "velocity": 0.6141732283464567
              },
              {
                  "duration": 0.1522021562499951,
                  "durationTicks": 4700,
                  "midi": 60,
                  "name": "C4",
                  "ticks": 868800,
                  "time": 28.134730500000003,
                  "velocity": 0.4645669291338583
              },
              {
                  "duration": 0.15544050000000098,
                  "durationTicks": 4800,
                  "midi": 60,
                  "name": "C4",
                  "ticks": 873600,
                  "time": 28.290171,
                  "velocity": 0.6614173228346457
              },
              {
                  "duration": 0.15544050000000098,
                  "durationTicks": 4800,
                  "midi": 60,
                  "name": "C4",
                  "ticks": 878400,
                  "time": 28.445611500000002,
                  "velocity": 0.4645669291338583
              },
              {
                  "duration": 0.11658037499999807,
                  "durationTicks": 3600,
                  "midi": 60,
                  "name": "C4",
                  "ticks": 883200,
                  "time": 28.601052000000003,
                  "velocity": 0.5984251968503937
              },
              {
                  "duration": 0.1586788437500033,
                  "durationTicks": 4900,
                  "midi": 60,
                  "name": "C4",
                  "ticks": 888000,
                  "time": 28.7564925,
                  "velocity": 0.4645669291338583
              },
              {
                  "duration": 0.15544050000000098,
                  "durationTicks": 4800,
                  "midi": 60,
                  "name": "C4",
                  "ticks": 892800,
                  "time": 28.911933,
                  "velocity": 0.5984251968503937
              },
              {
                  "duration": 0.15220215624999867,
                  "durationTicks": 4700,
                  "midi": 60,
                  "name": "C4",
                  "ticks": 897600,
                  "time": 29.067373500000002,
                  "velocity": 0.6535433070866141
              },
              {
                  "duration": 0.15544049999999743,
                  "durationTicks": 4800,
                  "midi": 60,
                  "name": "C4",
                  "ticks": 902400,
                  "time": 29.222814000000003,
                  "velocity": 0.5669291338582677
              },
              {
                  "duration": 0.15220215624999867,
                  "durationTicks": 4700,
                  "midi": 60,
                  "name": "C4",
                  "ticks": 907200,
                  "time": 29.3782545,
                  "velocity": 0.4645669291338583
              },
              {
                  "duration": 0.15544050000000098,
                  "durationTicks": 4800,
                  "midi": 60,
                  "name": "C4",
                  "ticks": 912000,
                  "time": 29.533695,
                  "velocity": 0.5511811023622047
              },
              {
                  "duration": 0.07772024999999871,
                  "durationTicks": 2400,
                  "midi": 60,
                  "name": "C4",
                  "ticks": 916800,
                  "time": 29.689135500000003,
                  "velocity": 0.5275590551181102
              },
              {
                  "duration": 0.07772025000000227,
                  "durationTicks": 2400,
                  "midi": 60,
                  "name": "C4",
                  "ticks": 919200,
                  "time": 29.76685575,
                  "velocity": 0.4645669291338583
              },
              {
                  "duration": 0.15544049999999743,
                  "durationTicks": 4800,
                  "midi": 60,
                  "name": "C4",
                  "ticks": 921600,
                  "time": 29.844576000000004,
                  "velocity": 0.4645669291338583
              },
              {
                  "duration": 0.15544049999999743,
                  "durationTicks": 4800,
                  "midi": 60,
                  "name": "C4",
                  "ticks": 955200,
                  "time": 30.932659500000003,
                  "velocity": 0.4645669291338583
              },
              {
                  "duration": 0.11658037500000162,
                  "durationTicks": 3600,
                  "midi": 60,
                  "name": "C4",
                  "ticks": 960000,
                  "time": 31.0881,
                  "velocity": 0.5984251968503937
              },
              {
                  "duration": 0.1586788437500033,
                  "durationTicks": 4900,
                  "midi": 60,
                  "name": "C4",
                  "ticks": 964800,
                  "time": 31.2435405,
                  "velocity": 0.4645669291338583
              },
              {
                  "duration": 0.15544049999999743,
                  "durationTicks": 4800,
                  "midi": 60,
                  "name": "C4",
                  "ticks": 969600,
                  "time": 31.398981000000003,
                  "velocity": 0.5984251968503937
              },
              {
                  "duration": 0.15220215624999867,
                  "durationTicks": 4700,
                  "midi": 60,
                  "name": "C4",
                  "ticks": 974400,
                  "time": 31.5544215,
                  "velocity": 0.6535433070866141
              },
              {
                  "duration": 0.15544050000000098,
                  "durationTicks": 4800,
                  "midi": 60,
                  "name": "C4",
                  "ticks": 979200,
                  "time": 31.709862,
                  "velocity": 0.5669291338582677
              },
              {
                  "duration": 0.1522021562499951,
                  "durationTicks": 4700,
                  "midi": 60,
                  "name": "C4",
                  "ticks": 984000,
                  "time": 31.865302500000002,
                  "velocity": 0.4645669291338583
              },
              {
                  "duration": 0.15544049999999743,
                  "durationTicks": 4800,
                  "midi": 60,
                  "name": "C4",
                  "ticks": 988800,
                  "time": 32.020743,
                  "velocity": 0.5511811023622047
              },
              {
                  "duration": 0.07772024999999871,
                  "durationTicks": 2400,
                  "midi": 60,
                  "name": "C4",
                  "ticks": 993600,
                  "time": 32.1761835,
                  "velocity": 0.5275590551181102
              },
              {
                  "duration": 0.07772025000000582,
                  "durationTicks": 2400,
                  "midi": 60,
                  "name": "C4",
                  "ticks": 996000,
                  "time": 32.25390375,
                  "velocity": 0.4645669291338583
              },
              {
                  "duration": 0.15544049999999743,
                  "durationTicks": 4800,
                  "midi": 60,
                  "name": "C4",
                  "ticks": 998400,
                  "time": 32.331624000000005,
                  "velocity": 0.4645669291338583
              },
              {
                  "duration": 0.15544049999999743,
                  "durationTicks": 4800,
                  "midi": 60,
                  "name": "C4",
                  "ticks": 1003200,
                  "time": 32.4870645,
                  "velocity": 0.4645669291338583
              },
              {
                  "duration": 0.1586788437500033,
                  "durationTicks": 4900,
                  "midi": 60,
                  "name": "C4",
                  "ticks": 1008000,
                  "time": 32.642505,
                  "velocity": 0.5275590551181102
              },
              {
                  "duration": 0.15220215624999867,
                  "durationTicks": 4700,
                  "midi": 60,
                  "name": "C4",
                  "ticks": 1012800,
                  "time": 32.797945500000004,
                  "velocity": 0.4645669291338583
              },
              {
                  "duration": 0.15544049999999743,
                  "durationTicks": 4800,
                  "midi": 60,
                  "name": "C4",
                  "ticks": 1017600,
                  "time": 32.953386,
                  "velocity": 0.6141732283464567
              },
              {
                  "duration": 0.15220215624999867,
                  "durationTicks": 4700,
                  "midi": 60,
                  "name": "C4",
                  "ticks": 1022400,
                  "time": 33.1088265,
                  "velocity": 0.4645669291338583
              },
              {
                  "duration": 0.15544049999999743,
                  "durationTicks": 4800,
                  "midi": 60,
                  "name": "C4",
                  "ticks": 1027200,
                  "time": 33.264267000000004,
                  "velocity": 0.6614173228346457
              },
              {
                  "duration": 0.15544049999999743,
                  "durationTicks": 4800,
                  "midi": 60,
                  "name": "C4",
                  "ticks": 1032000,
                  "time": 33.4197075,
                  "velocity": 0.4645669291338583
              },
              {
                  "duration": 0.11658037500000518,
                  "durationTicks": 3600,
                  "midi": 60,
                  "name": "C4",
                  "ticks": 1036800,
                  "time": 33.575148,
                  "velocity": 0.5984251968503937
              },
              {
                  "duration": 0.1586788437500033,
                  "durationTicks": 4900,
                  "midi": 60,
                  "name": "C4",
                  "ticks": 1041600,
                  "time": 33.7305885,
                  "velocity": 0.4645669291338583
              },
              {
                  "duration": 0.15544050000000453,
                  "durationTicks": 4800,
                  "midi": 60,
                  "name": "C4",
                  "ticks": 1046400,
                  "time": 33.886029,
                  "velocity": 0.5984251968503937
              },
              {
                  "duration": 0.15220215624999867,
                  "durationTicks": 4700,
                  "midi": 60,
                  "name": "C4",
                  "ticks": 1051200,
                  "time": 34.041469500000005,
                  "velocity": 0.6535433070866141
              },
              {
                  "duration": 0.15544049999999743,
                  "durationTicks": 4800,
                  "midi": 60,
                  "name": "C4",
                  "ticks": 1056000,
                  "time": 34.19691,
                  "velocity": 0.5669291338582677
              },
              {
                  "duration": 0.15220215624999867,
                  "durationTicks": 4700,
                  "midi": 60,
                  "name": "C4",
                  "ticks": 1060800,
                  "time": 34.3523505,
                  "velocity": 0.4645669291338583
              },
              {
                  "duration": 0.15544049999999743,
                  "durationTicks": 4800,
                  "midi": 60,
                  "name": "C4",
                  "ticks": 1065600,
                  "time": 34.507791000000005,
                  "velocity": 0.5511811023622047
              },
              {
                  "duration": 0.07772024999999871,
                  "durationTicks": 2400,
                  "midi": 60,
                  "name": "C4",
                  "ticks": 1070400,
                  "time": 34.6632315,
                  "velocity": 0.5275590551181102
              },
              {
                  "duration": 0.07772024999999871,
                  "durationTicks": 2400,
                  "midi": 60,
                  "name": "C4",
                  "ticks": 1072800,
                  "time": 34.74095175,
                  "velocity": 0.4645669291338583
              },
              {
                  "duration": 0.15544050000000453,
                  "durationTicks": 4800,
                  "midi": 60,
                  "name": "C4",
                  "ticks": 1075200,
                  "time": 34.818672,
                  "velocity": 0.4645669291338583
              },
              {
                  "duration": 0.15544049999999743,
                  "durationTicks": 4800,
                  "midi": 60,
                  "name": "C4",
                  "ticks": 1080000,
                  "time": 34.974112500000004,
                  "velocity": 0.4645669291338583
              },
              {
                  "duration": 0.1586788437500033,
                  "durationTicks": 4900,
                  "midi": 60,
                  "name": "C4",
                  "ticks": 1084800,
                  "time": 35.129553,
                  "velocity": 0.5275590551181102
              },
              {
                  "duration": 0.15220215624999867,
                  "durationTicks": 4700,
                  "midi": 60,
                  "name": "C4",
                  "ticks": 1089600,
                  "time": 35.2849935,
                  "velocity": 0.4645669291338583
              },
              {
                  "duration": 0.15544049999999743,
                  "durationTicks": 4800,
                  "midi": 60,
                  "name": "C4",
                  "ticks": 1094400,
                  "time": 35.440434,
                  "velocity": 0.6141732283464567
              },
              {
                  "duration": 0.15220215624999867,
                  "durationTicks": 4700,
                  "midi": 60,
                  "name": "C4",
                  "ticks": 1099200,
                  "time": 35.5958745,
                  "velocity": 0.4645669291338583
              },
              {
                  "duration": 0.15544049999999743,
                  "durationTicks": 4800,
                  "midi": 60,
                  "name": "C4",
                  "ticks": 1104000,
                  "time": 35.751315000000005,
                  "velocity": 0.6614173228346457
              },
              {
                  "duration": 0.15544049999999743,
                  "durationTicks": 4800,
                  "midi": 60,
                  "name": "C4",
                  "ticks": 1108800,
                  "time": 35.9067555,
                  "velocity": 0.4645669291338583
              },
              {
                  "duration": 0.11658037500000518,
                  "durationTicks": 3600,
                  "midi": 60,
                  "name": "C4",
                  "ticks": 1113600,
                  "time": 36.062196,
                  "velocity": 0.5984251968503937
              },
              {
                  "duration": 0.1586788437499962,
                  "durationTicks": 4900,
                  "midi": 60,
                  "name": "C4",
                  "ticks": 1118400,
                  "time": 36.217636500000005,
                  "velocity": 0.4645669291338583
              },
              {
                  "duration": 0.15544049999999743,
                  "durationTicks": 4800,
                  "midi": 60,
                  "name": "C4",
                  "ticks": 1123200,
                  "time": 36.373077,
                  "velocity": 0.5984251968503937
              },
              {
                  "duration": 0.15220215624999867,
                  "durationTicks": 4700,
                  "midi": 60,
                  "name": "C4",
                  "ticks": 1128000,
                  "time": 36.5285175,
                  "velocity": 0.6535433070866141
              },
              {
                  "duration": 0.15544049999999743,
                  "durationTicks": 4800,
                  "midi": 60,
                  "name": "C4",
                  "ticks": 1132800,
                  "time": 36.683958000000004,
                  "velocity": 0.5669291338582677
              },
              {
                  "duration": 0.15220215624999867,
                  "durationTicks": 4700,
                  "midi": 60,
                  "name": "C4",
                  "ticks": 1137600,
                  "time": 36.8393985,
                  "velocity": 0.4645669291338583
              },
              {
                  "duration": 0.15544050000000453,
                  "durationTicks": 4800,
                  "midi": 60,
                  "name": "C4",
                  "ticks": 1142400,
                  "time": 36.994839,
                  "velocity": 0.5511811023622047
              },
              {
                  "duration": 0.07772024999999871,
                  "durationTicks": 2400,
                  "midi": 60,
                  "name": "C4",
                  "ticks": 1147200,
                  "time": 37.1502795,
                  "velocity": 0.5275590551181102
              },
              {
                  "duration": 0.07772024999999871,
                  "durationTicks": 2400,
                  "midi": 60,
                  "name": "C4",
                  "ticks": 1149600,
                  "time": 37.22799975,
                  "velocity": 0.4645669291338583
              },
              {
                  "duration": 0.15544050000000453,
                  "durationTicks": 4800,
                  "midi": 60,
                  "name": "C4",
                  "ticks": 1152000,
                  "time": 37.30572,
                  "velocity": 0.4645669291338583
              },
              {
                  "duration": 0.15544049999999743,
                  "durationTicks": 4800,
                  "midi": 60,
                  "name": "C4",
                  "ticks": 1156800,
                  "time": 37.461160500000005,
                  "velocity": 0.4645669291338583
              },
              {
                  "duration": 0.1586788437500033,
                  "durationTicks": 4900,
                  "midi": 60,
                  "name": "C4",
                  "ticks": 1161600,
                  "time": 37.616601,
                  "velocity": 0.5275590551181102
              },
              {
                  "duration": 0.15220215624999867,
                  "durationTicks": 4700,
                  "midi": 60,
                  "name": "C4",
                  "ticks": 1166400,
                  "time": 37.7720415,
                  "velocity": 0.4645669291338583
              },
              {
                  "duration": 0.15544049999999743,
                  "durationTicks": 4800,
                  "midi": 60,
                  "name": "C4",
                  "ticks": 1171200,
                  "time": 37.927482000000005,
                  "velocity": 0.6141732283464567
              },
              {
                  "duration": 0.15220215624999867,
                  "durationTicks": 4700,
                  "midi": 60,
                  "name": "C4",
                  "ticks": 1176000,
                  "time": 38.0829225,
                  "velocity": 0.4645669291338583
              },
              {
                  "duration": 0.15544050000000453,
                  "durationTicks": 4800,
                  "midi": 60,
                  "name": "C4",
                  "ticks": 1180800,
                  "time": 38.238363,
                  "velocity": 0.6614173228346457
              },
              {
                  "duration": 0.15544049999999743,
                  "durationTicks": 4800,
                  "midi": 60,
                  "name": "C4",
                  "ticks": 1185600,
                  "time": 38.393803500000004,
                  "velocity": 0.4645669291338583
              },
              {
                  "duration": 0.11658037499999807,
                  "durationTicks": 3600,
                  "midi": 60,
                  "name": "C4",
                  "ticks": 1190400,
                  "time": 38.549244,
                  "velocity": 0.5984251968503937
              },
              {
                  "duration": 0.1586788437500033,
                  "durationTicks": 4900,
                  "midi": 60,
                  "name": "C4",
                  "ticks": 1195200,
                  "time": 38.7046845,
                  "velocity": 0.4645669291338583
              },
              {
                  "duration": 0.15544049999999743,
                  "durationTicks": 4800,
                  "midi": 60,
                  "name": "C4",
                  "ticks": 1200000,
                  "time": 38.860125000000004,
                  "velocity": 0.5984251968503937
              },
              {
                  "duration": 0.15220215624999867,
                  "durationTicks": 4700,
                  "midi": 60,
                  "name": "C4",
                  "ticks": 1204800,
                  "time": 39.0155655,
                  "velocity": 0.6535433070866141
              },
              {
                  "duration": 0.15544049999999743,
                  "durationTicks": 4800,
                  "midi": 60,
                  "name": "C4",
                  "ticks": 1209600,
                  "time": 39.171006000000006,
                  "velocity": 0.5669291338582677
              },
              {
                  "duration": 0.15220215624999867,
                  "durationTicks": 4700,
                  "midi": 60,
                  "name": "C4",
                  "ticks": 1214400,
                  "time": 39.3264465,
                  "velocity": 0.4645669291338583
              },
              {
                  "duration": 0.15544050000000453,
                  "durationTicks": 4800,
                  "midi": 60,
                  "name": "C4",
                  "ticks": 1219200,
                  "time": 39.481887,
                  "velocity": 0.5511811023622047
              },
              {
                  "duration": 0.07772024999999871,
                  "durationTicks": 2400,
                  "midi": 60,
                  "name": "C4",
                  "ticks": 1224000,
                  "time": 39.637327500000005,
                  "velocity": 0.5275590551181102
              },
              {
                  "duration": 0.07772024999999871,
                  "durationTicks": 2400,
                  "midi": 60,
                  "name": "C4",
                  "ticks": 1226400,
                  "time": 39.715047750000004,
                  "velocity": 0.4645669291338583
              },
              {
                  "duration": 0.15544049999999743,
                  "durationTicks": 4800,
                  "midi": 60,
                  "name": "C4",
                  "ticks": 1228800,
                  "time": 39.792768,
                  "velocity": 0.4645669291338583
              },
              {
                  "duration": 0.15544050000000453,
                  "durationTicks": 4800,
                  "midi": 60,
                  "name": "C4",
                  "ticks": 1233600,
                  "time": 39.9482085,
                  "velocity": 0.4645669291338583
              },
              {
                  "duration": 0.1586788437499962,
                  "durationTicks": 4900,
                  "midi": 60,
                  "name": "C4",
                  "ticks": 1238400,
                  "time": 40.103649000000004,
                  "velocity": 0.5275590551181102
              },
              {
                  "duration": 0.15220215625000577,
                  "durationTicks": 4700,
                  "midi": 60,
                  "name": "C4",
                  "ticks": 1243200,
                  "time": 40.2590895,
                  "velocity": 0.4645669291338583
              },
              {
                  "duration": 0.15544050000000453,
                  "durationTicks": 4800,
                  "midi": 60,
                  "name": "C4",
                  "ticks": 1248000,
                  "time": 40.41453,
                  "velocity": 0.6141732283464567
              },
              {
                  "duration": 0.15220215624999867,
                  "durationTicks": 4700,
                  "midi": 60,
                  "name": "C4",
                  "ticks": 1252800,
                  "time": 40.569970500000004,
                  "velocity": 0.4645669291338583
              },
              {
                  "duration": 0.15544050000000453,
                  "durationTicks": 4800,
                  "midi": 60,
                  "name": "C4",
                  "ticks": 1257600,
                  "time": 40.725411,
                  "velocity": 0.6614173228346457
              },
              {
                  "duration": 0.15544049999999743,
                  "durationTicks": 4800,
                  "midi": 60,
                  "name": "C4",
                  "ticks": 1262400,
                  "time": 40.880851500000006,
                  "velocity": 0.4645669291338583
              },
              {
                  "duration": 0.11658037499999807,
                  "durationTicks": 3600,
                  "midi": 60,
                  "name": "C4",
                  "ticks": 1267200,
                  "time": 41.036292,
                  "velocity": 0.5984251968503937
              },
              {
                  "duration": 0.1586788437499962,
                  "durationTicks": 4900,
                  "midi": 60,
                  "name": "C4",
                  "ticks": 1272000,
                  "time": 41.1917325,
                  "velocity": 0.4645669291338583
              },
              {
                  "duration": 0.15544049999999743,
                  "durationTicks": 4800,
                  "midi": 60,
                  "name": "C4",
                  "ticks": 1276800,
                  "time": 41.347173000000005,
                  "velocity": 0.5984251968503937
              },
              {
                  "duration": 0.15220215625000577,
                  "durationTicks": 4700,
                  "midi": 60,
                  "name": "C4",
                  "ticks": 1281600,
                  "time": 41.5026135,
                  "velocity": 0.6535433070866141
              },
              {
                  "duration": 0.15544050000000453,
                  "durationTicks": 4800,
                  "midi": 60,
                  "name": "C4",
                  "ticks": 1286400,
                  "time": 41.658054,
                  "velocity": 0.5669291338582677
              },
              {
                  "duration": 0.15220215624999867,
                  "durationTicks": 4700,
                  "midi": 60,
                  "name": "C4",
                  "ticks": 1291200,
                  "time": 41.813494500000004,
                  "velocity": 0.4645669291338583
              },
              {
                  "duration": 0.15544049999999743,
                  "durationTicks": 4800,
                  "midi": 60,
                  "name": "C4",
                  "ticks": 1296000,
                  "time": 41.968935,
                  "velocity": 0.5511811023622047
              },
              {
                  "duration": 0.07772025000000582,
                  "durationTicks": 2400,
                  "midi": 60,
                  "name": "C4",
                  "ticks": 1300800,
                  "time": 42.1243755,
                  "velocity": 0.5275590551181102
              },
              {
                  "duration": 0.07772024999999871,
                  "durationTicks": 2400,
                  "midi": 60,
                  "name": "C4",
                  "ticks": 1303200,
                  "time": 42.202095750000005,
                  "velocity": 0.4645669291338583
              },
              {
                  "duration": 0.15544049999999743,
                  "durationTicks": 4800,
                  "midi": 60,
                  "name": "C4",
                  "ticks": 1305600,
                  "time": 42.279816000000004,
                  "velocity": 0.4645669291338583
              },
              {
                  "duration": 0.15544050000000453,
                  "durationTicks": 4800,
                  "midi": 60,
                  "name": "C4",
                  "ticks": 1310400,
                  "time": 42.4352565,
                  "velocity": 0.4645669291338583
              },
              {
                  "duration": 0.1586788437499962,
                  "durationTicks": 4900,
                  "midi": 60,
                  "name": "C4",
                  "ticks": 1315200,
                  "time": 42.590697000000006,
                  "velocity": 0.5275590551181102
              },
              {
                  "duration": 0.15220215625000577,
                  "durationTicks": 4700,
                  "midi": 60,
                  "name": "C4",
                  "ticks": 1320000,
                  "time": 42.7461375,
                  "velocity": 0.4645669291338583
              },
              {
                  "duration": 0.15544050000000453,
                  "durationTicks": 4800,
                  "midi": 60,
                  "name": "C4",
                  "ticks": 1324800,
                  "time": 42.901578,
                  "velocity": 0.6141732283464567
              },
              {
                  "duration": 0.15220215624999867,
                  "durationTicks": 4700,
                  "midi": 60,
                  "name": "C4",
                  "ticks": 1329600,
                  "time": 43.057018500000005,
                  "velocity": 0.4645669291338583
              },
              {
                  "duration": 0.15544049999999743,
                  "durationTicks": 4800,
                  "midi": 60,
                  "name": "C4",
                  "ticks": 1334400,
                  "time": 43.212459,
                  "velocity": 0.6614173228346457
              },
              {
                  "duration": 0.15544050000000453,
                  "durationTicks": 4800,
                  "midi": 60,
                  "name": "C4",
                  "ticks": 1339200,
                  "time": 43.3678995,
                  "velocity": 0.4645669291338583
              },
              {
                  "duration": 0.11658037499999807,
                  "durationTicks": 3600,
                  "midi": 60,
                  "name": "C4",
                  "ticks": 1344000,
                  "time": 43.523340000000005,
                  "velocity": 0.5984251968503937
              },
              {
                  "duration": 0.1586788437499962,
                  "durationTicks": 4900,
                  "midi": 60,
                  "name": "C4",
                  "ticks": 1348800,
                  "time": 43.6787805,
                  "velocity": 0.4645669291338583
              },
              {
                  "duration": 0.15544050000000453,
                  "durationTicks": 4800,
                  "midi": 60,
                  "name": "C4",
                  "ticks": 1353600,
                  "time": 43.834221,
                  "velocity": 0.5984251968503937
              },
              {
                  "duration": 0.15220215624999867,
                  "durationTicks": 4700,
                  "midi": 60,
                  "name": "C4",
                  "ticks": 1358400,
                  "time": 43.989661500000004,
                  "velocity": 0.6535433070866141
              },
              {
                  "duration": 0.15544050000000453,
                  "durationTicks": 4800,
                  "midi": 60,
                  "name": "C4",
                  "ticks": 1363200,
                  "time": 44.145102,
                  "velocity": 0.5669291338582677
              },
              {
                  "duration": 0.15220215624999867,
                  "durationTicks": 4700,
                  "midi": 60,
                  "name": "C4",
                  "ticks": 1368000,
                  "time": 44.300542500000006,
                  "velocity": 0.4645669291338583
              },
              {
                  "duration": 0.15544049999999743,
                  "durationTicks": 4800,
                  "midi": 60,
                  "name": "C4",
                  "ticks": 1372800,
                  "time": 44.455983,
                  "velocity": 0.5511811023622047
              },
              {
                  "duration": 0.07772024999999871,
                  "durationTicks": 2400,
                  "midi": 60,
                  "name": "C4",
                  "ticks": 1377600,
                  "time": 44.6114235,
                  "velocity": 0.5275590551181102
              },
              {
                  "duration": 0.07772025000000582,
                  "durationTicks": 2400,
                  "midi": 60,
                  "name": "C4",
                  "ticks": 1380000,
                  "time": 44.68914375,
                  "velocity": 0.4645669291338583
              },
              {
                  "duration": 0.15544049999999743,
                  "durationTicks": 4800,
                  "midi": 60,
                  "name": "C4",
                  "ticks": 1382400,
                  "time": 44.766864000000005,
                  "velocity": 0.4645669291338583
              },
              {
                  "duration": 0.15544049999999743,
                  "durationTicks": 4800,
                  "midi": 60,
                  "name": "C4",
                  "ticks": 1387200,
                  "time": 44.9223045,
                  "velocity": 0.4645669291338583
              },
              {
                  "duration": 0.1586788437499962,
                  "durationTicks": 4900,
                  "midi": 60,
                  "name": "C4",
                  "ticks": 1392000,
                  "time": 45.077745,
                  "velocity": 0.5275590551181102
              },
              {
                  "duration": 0.15220215624999867,
                  "durationTicks": 4700,
                  "midi": 60,
                  "name": "C4",
                  "ticks": 1396800,
                  "time": 45.233185500000005,
                  "velocity": 0.4645669291338583
              },
              {
                  "duration": 0.15544049999999743,
                  "durationTicks": 4800,
                  "midi": 60,
                  "name": "C4",
                  "ticks": 1401600,
                  "time": 45.388626,
                  "velocity": 0.6141732283464567
              },
              {
                  "duration": 0.15220215625000577,
                  "durationTicks": 4700,
                  "midi": 60,
                  "name": "C4",
                  "ticks": 1406400,
                  "time": 45.5440665,
                  "velocity": 0.4645669291338583
              },
              {
                  "duration": 0.15544049999999743,
                  "durationTicks": 4800,
                  "midi": 60,
                  "name": "C4",
                  "ticks": 1411200,
                  "time": 45.699507000000004,
                  "velocity": 0.6614173228346457
              },
              {
                  "duration": 0.15544050000000453,
                  "durationTicks": 4800,
                  "midi": 60,
                  "name": "C4",
                  "ticks": 1416000,
                  "time": 45.8549475,
                  "velocity": 0.4645669291338583
              },
              {
                  "duration": 0.11658037499999807,
                  "durationTicks": 3600,
                  "midi": 60,
                  "name": "C4",
                  "ticks": 1420800,
                  "time": 46.010388000000006,
                  "velocity": 0.5984251968503937
              },
              {
                  "duration": 0.1586788437499962,
                  "durationTicks": 4900,
                  "midi": 60,
                  "name": "C4",
                  "ticks": 1425600,
                  "time": 46.1658285,
                  "velocity": 0.4645669291338583
              },
              {
                  "duration": 0.15544050000000453,
                  "durationTicks": 4800,
                  "midi": 60,
                  "name": "C4",
                  "ticks": 1430400,
                  "time": 46.321269,
                  "velocity": 0.5984251968503937
              },
              {
                  "duration": 0.15220215624999867,
                  "durationTicks": 4700,
                  "midi": 60,
                  "name": "C4",
                  "ticks": 1435200,
                  "time": 46.476709500000005,
                  "velocity": 0.6535433070866141
              },
              {
                  "duration": 0.15544049999999743,
                  "durationTicks": 4800,
                  "midi": 60,
                  "name": "C4",
                  "ticks": 1440000,
                  "time": 46.63215,
                  "velocity": 0.5669291338582677
              },
              {
                  "duration": 0.15220215625000577,
                  "durationTicks": 4700,
                  "midi": 60,
                  "name": "C4",
                  "ticks": 1444800,
                  "time": 46.7875905,
                  "velocity": 0.4645669291338583
              },
              {
                  "duration": 0.15544049999999743,
                  "durationTicks": 4800,
                  "midi": 60,
                  "name": "C4",
                  "ticks": 1449600,
                  "time": 46.943031000000005,
                  "velocity": 0.5511811023622047
              },
              {
                  "duration": 0.07772024999999871,
                  "durationTicks": 2400,
                  "midi": 60,
                  "name": "C4",
                  "ticks": 1454400,
                  "time": 47.0984715,
                  "velocity": 0.5275590551181102
              },
              {
                  "duration": 0.07772024999999871,
                  "durationTicks": 2400,
                  "midi": 60,
                  "name": "C4",
                  "ticks": 1456800,
                  "time": 47.17619175,
                  "velocity": 0.4645669291338583
              },
              {
                  "duration": 0.15544050000000453,
                  "durationTicks": 4800,
                  "midi": 60,
                  "name": "C4",
                  "ticks": 1459200,
                  "time": 47.253912,
                  "velocity": 0.4645669291338583
              },
              {
                  "duration": 0.15544049999999743,
                  "durationTicks": 4800,
                  "midi": 60,
                  "name": "C4",
                  "ticks": 1464000,
                  "time": 47.409352500000004,
                  "velocity": 0.4645669291338583
              },
              {
                  "duration": 0.1586788437499962,
                  "durationTicks": 4900,
                  "midi": 60,
                  "name": "C4",
                  "ticks": 1468800,
                  "time": 47.564793,
                  "velocity": 0.5275590551181102
              },
              {
                  "duration": 0.15220215624999867,
                  "durationTicks": 4700,
                  "midi": 60,
                  "name": "C4",
                  "ticks": 1473600,
                  "time": 47.720233500000006,
                  "velocity": 0.4645669291338583
              },
              {
                  "duration": 0.15544049999999743,
                  "durationTicks": 4800,
                  "midi": 60,
                  "name": "C4",
                  "ticks": 1478400,
                  "time": 47.875674000000004,
                  "velocity": 0.6141732283464567
              },
              {
                  "duration": 0.15220215625000577,
                  "durationTicks": 4700,
                  "midi": 60,
                  "name": "C4",
                  "ticks": 1483200,
                  "time": 48.0311145,
                  "velocity": 0.4645669291338583
              },
              {
                  "duration": 0.15544049999999743,
                  "durationTicks": 4800,
                  "midi": 60,
                  "name": "C4",
                  "ticks": 1488000,
                  "time": 48.186555000000006,
                  "velocity": 0.6614173228346457
              },
              {
                  "duration": 0.15544049999999743,
                  "durationTicks": 4800,
                  "midi": 60,
                  "name": "C4",
                  "ticks": 1492800,
                  "time": 48.3419955,
                  "velocity": 0.4645669291338583
              },
              {
                  "duration": 0.11658037500000518,
                  "durationTicks": 3600,
                  "midi": 60,
                  "name": "C4",
                  "ticks": 1497600,
                  "time": 48.497436,
                  "velocity": 0.5984251968503937
              },
              {
                  "duration": 0.1586788437499962,
                  "durationTicks": 4900,
                  "midi": 60,
                  "name": "C4",
                  "ticks": 1502400,
                  "time": 48.652876500000005,
                  "velocity": 0.4645669291338583
              },
              {
                  "duration": 0.15544049999999743,
                  "durationTicks": 4800,
                  "midi": 60,
                  "name": "C4",
                  "ticks": 1507200,
                  "time": 48.808317,
                  "velocity": 0.5984251968503937
              },
              {
                  "duration": 0.15220215625000577,
                  "durationTicks": 4700,
                  "midi": 60,
                  "name": "C4",
                  "ticks": 1512000,
                  "time": 48.9637575,
                  "velocity": 0.6535433070866141
              },
              {
                  "duration": 0.15544049999999743,
                  "durationTicks": 4800,
                  "midi": 60,
                  "name": "C4",
                  "ticks": 1516800,
                  "time": 49.119198000000004,
                  "velocity": 0.5669291338582677
              },
              {
                  "duration": 0.15220215625000577,
                  "durationTicks": 4700,
                  "midi": 60,
                  "name": "C4",
                  "ticks": 1521600,
                  "time": 49.2746385,
                  "velocity": 0.4645669291338583
              },
              {
                  "duration": 0.15544049999999743,
                  "durationTicks": 4800,
                  "midi": 60,
                  "name": "C4",
                  "ticks": 1526400,
                  "time": 49.430079000000006,
                  "velocity": 0.5511811023622047
              },
              {
                  "duration": 0.07772024999999871,
                  "durationTicks": 2400,
                  "midi": 60,
                  "name": "C4",
                  "ticks": 1531200,
                  "time": 49.585519500000004,
                  "velocity": 0.5275590551181102
              },
              {
                  "duration": 0.07772024999999871,
                  "durationTicks": 2400,
                  "midi": 60,
                  "name": "C4",
                  "ticks": 1533600,
                  "time": 49.66323975,
                  "velocity": 0.4645669291338583
              },
              {
                  "duration": 0.15544050000000453,
                  "durationTicks": 4800,
                  "midi": 60,
                  "name": "C4",
                  "ticks": 1536000,
                  "time": 49.74096,
                  "velocity": 0.4645669291338583
              },
              {
                  "duration": 0.15544049999999743,
                  "durationTicks": 4800,
                  "midi": 60,
                  "name": "C4",
                  "ticks": 1540800,
                  "time": 49.896400500000006,
                  "velocity": 0.4645669291338583
              },
              {
                  "duration": 0.1586788437499962,
                  "durationTicks": 4900,
                  "midi": 60,
                  "name": "C4",
                  "ticks": 1545600,
                  "time": 50.051841,
                  "velocity": 0.5275590551181102
              },
              {
                  "duration": 0.15220215625000577,
                  "durationTicks": 4700,
                  "midi": 60,
                  "name": "C4",
                  "ticks": 1550400,
                  "time": 50.2072815,
                  "velocity": 0.4645669291338583
              },
              {
                  "duration": 0.15544049999999743,
                  "durationTicks": 4800,
                  "midi": 60,
                  "name": "C4",
                  "ticks": 1555200,
                  "time": 50.362722000000005,
                  "velocity": 0.6141732283464567
              },
              {
                  "duration": 0.15220215625000577,
                  "durationTicks": 4700,
                  "midi": 60,
                  "name": "C4",
                  "ticks": 1560000,
                  "time": 50.5181625,
                  "velocity": 0.4645669291338583
              },
              {
                  "duration": 0.15544050000000453,
                  "durationTicks": 4800,
                  "midi": 60,
                  "name": "C4",
                  "ticks": 1564800,
                  "time": 50.673603,
                  "velocity": 0.6614173228346457
              },
              {
                  "duration": 0.15544049999999743,
                  "durationTicks": 4800,
                  "midi": 60,
                  "name": "C4",
                  "ticks": 1569600,
                  "time": 50.829043500000004,
                  "velocity": 0.4645669291338583
              },
              {
                  "duration": 0.11658037499999807,
                  "durationTicks": 3600,
                  "midi": 60,
                  "name": "C4",
                  "ticks": 1574400,
                  "time": 50.984484,
                  "velocity": 0.5984251968503937
              },
              {
                  "duration": 0.1586788437499962,
                  "durationTicks": 4900,
                  "midi": 60,
                  "name": "C4",
                  "ticks": 1579200,
                  "time": 51.139924500000006,
                  "velocity": 0.4645669291338583
              },
              {
                  "duration": 0.15544049999999743,
                  "durationTicks": 4800,
                  "midi": 60,
                  "name": "C4",
                  "ticks": 1584000,
                  "time": 51.295365000000004,
                  "velocity": 0.5984251968503937
              },
              {
                  "duration": 0.15220215625000577,
                  "durationTicks": 4700,
                  "midi": 60,
                  "name": "C4",
                  "ticks": 1588800,
                  "time": 51.4508055,
                  "velocity": 0.6535433070866141
              },
              {
                  "duration": 0.15544049999999743,
                  "durationTicks": 4800,
                  "midi": 60,
                  "name": "C4",
                  "ticks": 1593600,
                  "time": 51.606246000000006,
                  "velocity": 0.5669291338582677
              },
              {
                  "duration": 0.15220215625000577,
                  "durationTicks": 4700,
                  "midi": 60,
                  "name": "C4",
                  "ticks": 1598400,
                  "time": 51.7616865,
                  "velocity": 0.4645669291338583
              },
              {
                  "duration": 0.15544050000000453,
                  "durationTicks": 4800,
                  "midi": 60,
                  "name": "C4",
                  "ticks": 1603200,
                  "time": 51.917127,
                  "velocity": 0.5511811023622047
              },
              {
                  "duration": 0.07772024999999871,
                  "durationTicks": 2400,
                  "midi": 60,
                  "name": "C4",
                  "ticks": 1608000,
                  "time": 52.072567500000005,
                  "velocity": 0.5275590551181102
              },
              {
                  "duration": 0.07772024999999871,
                  "durationTicks": 2400,
                  "midi": 60,
                  "name": "C4",
                  "ticks": 1610400,
                  "time": 52.150287750000004,
                  "velocity": 0.4645669291338583
              },
              {
                  "duration": 0.15544049999999743,
                  "durationTicks": 4800,
                  "midi": 60,
                  "name": "C4",
                  "ticks": 1612800,
                  "time": 52.228008,
                  "velocity": 0.4645669291338583
              },
              {
                  "duration": 0.15544050000000453,
                  "durationTicks": 4800,
                  "midi": 60,
                  "name": "C4",
                  "ticks": 1617600,
                  "time": 52.3834485,
                  "velocity": 0.4645669291338583
              },
              {
                  "duration": 0.1586788437499962,
                  "durationTicks": 4900,
                  "midi": 60,
                  "name": "C4",
                  "ticks": 1622400,
                  "time": 52.538889000000005,
                  "velocity": 0.5275590551181102
              },
              {
                  "duration": 0.15220215625000577,
                  "durationTicks": 4700,
                  "midi": 60,
                  "name": "C4",
                  "ticks": 1627200,
                  "time": 52.6943295,
                  "velocity": 0.4645669291338583
              },
              {
                  "duration": 0.15544049999999743,
                  "durationTicks": 4800,
                  "midi": 60,
                  "name": "C4",
                  "ticks": 1632000,
                  "time": 52.84977000000001,
                  "velocity": 0.6141732283464567
              },
              {
                  "duration": 0.15220215624999867,
                  "durationTicks": 4700,
                  "midi": 60,
                  "name": "C4",
                  "ticks": 1636800,
                  "time": 53.005210500000004,
                  "velocity": 0.4645669291338583
              },
              {
                  "duration": 0.15544050000000453,
                  "durationTicks": 4800,
                  "midi": 60,
                  "name": "C4",
                  "ticks": 1641600,
                  "time": 53.160651,
                  "velocity": 0.6614173228346457
              },
              {
                  "duration": 0.15544049999999743,
                  "durationTicks": 4800,
                  "midi": 60,
                  "name": "C4",
                  "ticks": 1646400,
                  "time": 53.316091500000006,
                  "velocity": 0.4645669291338583
              },
              {
                  "duration": 0.11658037499999807,
                  "durationTicks": 3600,
                  "midi": 60,
                  "name": "C4",
                  "ticks": 1651200,
                  "time": 53.471532,
                  "velocity": 0.5984251968503937
              },
              {
                  "duration": 0.1586788437499962,
                  "durationTicks": 4900,
                  "midi": 60,
                  "name": "C4",
                  "ticks": 1656000,
                  "time": 53.6269725,
                  "velocity": 0.4645669291338583
              },
              {
                  "duration": 0.15544049999999743,
                  "durationTicks": 4800,
                  "midi": 60,
                  "name": "C4",
                  "ticks": 1660800,
                  "time": 53.782413000000005,
                  "velocity": 0.5984251968503937
              },
              {
                  "duration": 0.15220215625000577,
                  "durationTicks": 4700,
                  "midi": 60,
                  "name": "C4",
                  "ticks": 1665600,
                  "time": 53.9378535,
                  "velocity": 0.6535433070866141
              },
              {
                  "duration": 0.15544050000000453,
                  "durationTicks": 4800,
                  "midi": 60,
                  "name": "C4",
                  "ticks": 1670400,
                  "time": 54.093294,
                  "velocity": 0.5669291338582677
              },
              {
                  "duration": 0.15220215624999867,
                  "durationTicks": 4700,
                  "midi": 60,
                  "name": "C4",
                  "ticks": 1675200,
                  "time": 54.248734500000005,
                  "velocity": 0.4645669291338583
              },
              {
                  "duration": 0.15544050000000453,
                  "durationTicks": 4800,
                  "midi": 60,
                  "name": "C4",
                  "ticks": 1680000,
                  "time": 54.404175,
                  "velocity": 0.5511811023622047
              },
              {
                  "duration": 0.07772024999999871,
                  "durationTicks": 2400,
                  "midi": 60,
                  "name": "C4",
                  "ticks": 1684800,
                  "time": 54.55961550000001,
                  "velocity": 0.5275590551181102
              },
              {
                  "duration": 0.07772024999999871,
                  "durationTicks": 2400,
                  "midi": 60,
                  "name": "C4",
                  "ticks": 1687200,
                  "time": 54.637335750000005,
                  "velocity": 0.4645669291338583
              },
              {
                  "duration": 0.15544049999999743,
                  "durationTicks": 4800,
                  "midi": 60,
                  "name": "C4",
                  "ticks": 1689600,
                  "time": 54.715056000000004,
                  "velocity": 0.4645669291338583
              },
              {
                  "duration": 0.15544050000000453,
                  "durationTicks": 4800,
                  "midi": 60,
                  "name": "C4",
                  "ticks": 1694400,
                  "time": 54.8704965,
                  "velocity": 0.4645669291338583
              },
              {
                  "duration": 0.1586788437499962,
                  "durationTicks": 4900,
                  "midi": 60,
                  "name": "C4",
                  "ticks": 1699200,
                  "time": 55.025937000000006,
                  "velocity": 0.5275590551181102
              },
              {
                  "duration": 0.15220215625000577,
                  "durationTicks": 4700,
                  "midi": 60,
                  "name": "C4",
                  "ticks": 1704000,
                  "time": 55.1813775,
                  "velocity": 0.4645669291338583
              },
              {
                  "duration": 0.15544050000000453,
                  "durationTicks": 4800,
                  "midi": 60,
                  "name": "C4",
                  "ticks": 1708800,
                  "time": 55.336818,
                  "velocity": 0.6141732283464567
              },
              {
                  "duration": 0.15220215624999867,
                  "durationTicks": 4700,
                  "midi": 60,
                  "name": "C4",
                  "ticks": 1713600,
                  "time": 55.492258500000005,
                  "velocity": 0.4645669291338583
              },
              {
                  "duration": 0.15544049999999743,
                  "durationTicks": 4800,
                  "midi": 60,
                  "name": "C4",
                  "ticks": 1718400,
                  "time": 55.647699,
                  "velocity": 0.6614173228346457
              },
              {
                  "duration": 0.15544050000000453,
                  "durationTicks": 4800,
                  "midi": 60,
                  "name": "C4",
                  "ticks": 1723200,
                  "time": 55.8031395,
                  "velocity": 0.4645669291338583
              },
              {
                  "duration": 0.11658037499999807,
                  "durationTicks": 3600,
                  "midi": 60,
                  "name": "C4",
                  "ticks": 1728000,
                  "time": 55.958580000000005,
                  "velocity": 0.5984251968503937
              },
              {
                  "duration": 0.1586788437499962,
                  "durationTicks": 4900,
                  "midi": 60,
                  "name": "C4",
                  "ticks": 1732800,
                  "time": 56.1140205,
                  "velocity": 0.4645669291338583
              },
              {
                  "duration": 0.15544049999999743,
                  "durationTicks": 4800,
                  "midi": 60,
                  "name": "C4",
                  "ticks": 1737600,
                  "time": 56.26946100000001,
                  "velocity": 0.5984251968503937
              },
              {
                  "duration": 0.15220215624999867,
                  "durationTicks": 4700,
                  "midi": 60,
                  "name": "C4",
                  "ticks": 1742400,
                  "time": 56.424901500000004,
                  "velocity": 0.6535433070866141
              },
              {
                  "duration": 0.15544050000000453,
                  "durationTicks": 4800,
                  "midi": 60,
                  "name": "C4",
                  "ticks": 1747200,
                  "time": 56.580342,
                  "velocity": 0.5669291338582677
              },
              {
                  "duration": 0.15220215624999867,
                  "durationTicks": 4700,
                  "midi": 60,
                  "name": "C4",
                  "ticks": 1752000,
                  "time": 56.735782500000006,
                  "velocity": 0.4645669291338583
              },
              {
                  "duration": 0.15544049999999743,
                  "durationTicks": 4800,
                  "midi": 60,
                  "name": "C4",
                  "ticks": 1756800,
                  "time": 56.891223000000004,
                  "velocity": 0.5511811023622047
              },
              {
                  "duration": 0.07772025000000582,
                  "durationTicks": 2400,
                  "midi": 60,
                  "name": "C4",
                  "ticks": 1761600,
                  "time": 57.0466635,
                  "velocity": 0.5275590551181102
              },
              {
                  "duration": 0.07772024999999871,
                  "durationTicks": 2400,
                  "midi": 60,
                  "name": "C4",
                  "ticks": 1764000,
                  "time": 57.12438375000001,
                  "velocity": 0.4645669291338583
              },
              {
                  "duration": 0.15544049999999743,
                  "durationTicks": 4800,
                  "midi": 60,
                  "name": "C4",
                  "ticks": 1766400,
                  "time": 57.202104000000006,
                  "velocity": 0.4645669291338583
              },
              {
                  "duration": 0.15544049999999743,
                  "durationTicks": 4800,
                  "midi": 60,
                  "name": "C4",
                  "ticks": 1771200,
                  "time": 57.3575445,
                  "velocity": 0.4645669291338583
              },
              {
                  "duration": 0.1586788437500033,
                  "durationTicks": 4900,
                  "midi": 60,
                  "name": "C4",
                  "ticks": 1776000,
                  "time": 57.512985,
                  "velocity": 0.5275590551181102
              },
              {
                  "duration": 0.15220215624999867,
                  "durationTicks": 4700,
                  "midi": 60,
                  "name": "C4",
                  "ticks": 1780800,
                  "time": 57.668425500000005,
                  "velocity": 0.4645669291338583
              },
              {
                  "duration": 0.15544050000000453,
                  "durationTicks": 4800,
                  "midi": 60,
                  "name": "C4",
                  "ticks": 1785600,
                  "time": 57.823866,
                  "velocity": 0.6141732283464567
              },
              {
                  "duration": 0.15220215624999867,
                  "durationTicks": 4700,
                  "midi": 60,
                  "name": "C4",
                  "ticks": 1790400,
                  "time": 57.97930650000001,
                  "velocity": 0.4645669291338583
              },
              {
                  "duration": 0.15544049999999743,
                  "durationTicks": 4800,
                  "midi": 60,
                  "name": "C4",
                  "ticks": 1795200,
                  "time": 58.134747000000004,
                  "velocity": 0.6614173228346457
              },
              {
                  "duration": 0.15544050000000453,
                  "durationTicks": 4800,
                  "midi": 60,
                  "name": "C4",
                  "ticks": 1800000,
                  "time": 58.2901875,
                  "velocity": 0.4645669291338583
              },
              {
                  "duration": 0.11658037499999807,
                  "durationTicks": 3600,
                  "midi": 60,
                  "name": "C4",
                  "ticks": 1804800,
                  "time": 58.445628000000006,
                  "velocity": 0.5984251968503937
              },
              {
                  "duration": 0.1586788437499962,
                  "durationTicks": 4900,
                  "midi": 60,
                  "name": "C4",
                  "ticks": 1809600,
                  "time": 58.601068500000004,
                  "velocity": 0.4645669291338583
              },
              {
                  "duration": 0.15544050000000453,
                  "durationTicks": 4800,
                  "midi": 60,
                  "name": "C4",
                  "ticks": 1814400,
                  "time": 58.756509,
                  "velocity": 0.5984251968503937
              },
              {
                  "duration": 0.15220215624999867,
                  "durationTicks": 4700,
                  "midi": 60,
                  "name": "C4",
                  "ticks": 1819200,
                  "time": 58.911949500000006,
                  "velocity": 0.6535433070866141
              },
              {
                  "duration": 0.15544049999999743,
                  "durationTicks": 4800,
                  "midi": 60,
                  "name": "C4",
                  "ticks": 1824000,
                  "time": 59.06739,
                  "velocity": 0.5669291338582677
              },
              {
                  "duration": 0.15220215625000577,
                  "durationTicks": 4700,
                  "midi": 60,
                  "name": "C4",
                  "ticks": 1828800,
                  "time": 59.2228305,
                  "velocity": 0.4645669291338583
              },
              {
                  "duration": 0.15544049999999743,
                  "durationTicks": 4800,
                  "midi": 60,
                  "name": "C4",
                  "ticks": 1833600,
                  "time": 59.378271000000005,
                  "velocity": 0.5511811023622047
              },
              {
                  "duration": 0.07772024999999871,
                  "durationTicks": 2400,
                  "midi": 60,
                  "name": "C4",
                  "ticks": 1838400,
                  "time": 59.5337115,
                  "velocity": 0.5275590551181102
              },
              {
                  "duration": 0.11658037500000518,
                  "durationTicks": 3600,
                  "midi": 60,
                  "name": "C4",
                  "ticks": 1881600,
                  "time": 60.932676,
                  "velocity": 0.6141732283464567
              },
              {
                  "duration": 0.1586788437499962,
                  "durationTicks": 4900,
                  "midi": 60,
                  "name": "C4",
                  "ticks": 1886400,
                  "time": 61.088116500000005,
                  "velocity": 0.47244094488188976
              },
              {
                  "duration": 0.15544049999999743,
                  "durationTicks": 4800,
                  "midi": 60,
                  "name": "C4",
                  "ticks": 1891200,
                  "time": 61.243557,
                  "velocity": 0.6141732283464567
              },
              {
                  "duration": 0.15220215625000577,
                  "durationTicks": 4700,
                  "midi": 60,
                  "name": "C4",
                  "ticks": 1896000,
                  "time": 61.3989975,
                  "velocity": 0.6614173228346457
              },
              {
                  "duration": 0.15544049999999743,
                  "durationTicks": 4800,
                  "midi": 60,
                  "name": "C4",
                  "ticks": 1900800,
                  "time": 61.554438000000005,
                  "velocity": 0.5748031496062992
              },
              {
                  "duration": 0.15220215625000577,
                  "durationTicks": 4700,
                  "midi": 60,
                  "name": "C4",
                  "ticks": 1905600,
                  "time": 61.7098785,
                  "velocity": 0.47244094488188976
              },
              {
                  "duration": 0.15544049999999743,
                  "durationTicks": 4800,
                  "midi": 60,
                  "name": "C4",
                  "ticks": 1910400,
                  "time": 61.86531900000001,
                  "velocity": 0.5590551181102362
              },
              {
                  "duration": 0.07772024999999871,
                  "durationTicks": 2400,
                  "midi": 60,
                  "name": "C4",
                  "ticks": 1915200,
                  "time": 62.020759500000004,
                  "velocity": 0.5354330708661418
              },
              {
                  "duration": 0.07772024999999871,
                  "durationTicks": 2400,
                  "midi": 60,
                  "name": "C4",
                  "ticks": 1917600,
                  "time": 62.09847975,
                  "velocity": 0.47244094488188976
              },
              {
                  "duration": 0.15544050000000453,
                  "durationTicks": 4800,
                  "midi": 60,
                  "name": "C4",
                  "ticks": 1920000,
                  "time": 62.1762,
                  "velocity": 0.47244094488188976
              },
              {
                  "duration": 0.15544049999999743,
                  "durationTicks": 4800,
                  "midi": 60,
                  "name": "C4",
                  "ticks": 1924800,
                  "time": 62.331640500000006,
                  "velocity": 0.47244094488188976
              },
              {
                  "duration": 0.1586788437499962,
                  "durationTicks": 4900,
                  "midi": 60,
                  "name": "C4",
                  "ticks": 1929600,
                  "time": 62.487081,
                  "velocity": 0.5433070866141733
              },
              {
                  "duration": 0.15220215625000577,
                  "durationTicks": 4700,
                  "midi": 60,
                  "name": "C4",
                  "ticks": 1934400,
                  "time": 62.6425215,
                  "velocity": 0.47244094488188976
              },
              {
                  "duration": 0.15544049999999743,
                  "durationTicks": 4800,
                  "midi": 60,
                  "name": "C4",
                  "ticks": 1939200,
                  "time": 62.797962000000005,
                  "velocity": 0.6220472440944882
              },
              {
                  "duration": 0.15220215625000577,
                  "durationTicks": 4700,
                  "midi": 60,
                  "name": "C4",
                  "ticks": 1944000,
                  "time": 62.9534025,
                  "velocity": 0.47244094488188976
              },
              {
                  "duration": 0.15544050000000453,
                  "durationTicks": 4800,
                  "midi": 60,
                  "name": "C4",
                  "ticks": 1948800,
                  "time": 63.108843,
                  "velocity": 0.6692913385826772
              },
              {
                  "duration": 0.15544049999999743,
                  "durationTicks": 4800,
                  "midi": 60,
                  "name": "C4",
                  "ticks": 1953600,
                  "time": 63.264283500000005,
                  "velocity": 0.47244094488188976
              },
              {
                  "duration": 0.11658037499999807,
                  "durationTicks": 3600,
                  "midi": 60,
                  "name": "C4",
                  "ticks": 1958400,
                  "time": 63.419724,
                  "velocity": 0.6141732283464567
              },
              {
                  "duration": 0.1586788437499962,
                  "durationTicks": 4900,
                  "midi": 60,
                  "name": "C4",
                  "ticks": 1963200,
                  "time": 63.57516450000001,
                  "velocity": 0.47244094488188976
              },
              {
                  "duration": 0.15544049999999743,
                  "durationTicks": 4800,
                  "midi": 60,
                  "name": "C4",
                  "ticks": 1968000,
                  "time": 63.730605000000004,
                  "velocity": 0.6141732283464567
              },
              {
                  "duration": 0.15220215625000577,
                  "durationTicks": 4700,
                  "midi": 60,
                  "name": "C4",
                  "ticks": 1972800,
                  "time": 63.8860455,
                  "velocity": 0.6614173228346457
              },
              {
                  "duration": 0.15544049999999743,
                  "durationTicks": 4800,
                  "midi": 60,
                  "name": "C4",
                  "ticks": 1977600,
                  "time": 64.041486,
                  "velocity": 0.5748031496062992
              },
              {
                  "duration": 0.15220215624999867,
                  "durationTicks": 4700,
                  "midi": 60,
                  "name": "C4",
                  "ticks": 1982400,
                  "time": 64.1969265,
                  "velocity": 0.47244094488188976
              },
              {
                  "duration": 0.15544049999999743,
                  "durationTicks": 4800,
                  "midi": 60,
                  "name": "C4",
                  "ticks": 1987200,
                  "time": 64.352367,
                  "velocity": 0.5590551181102362
              },
              {
                  "duration": 0.07772024999999871,
                  "durationTicks": 2400,
                  "midi": 60,
                  "name": "C4",
                  "ticks": 1992000,
                  "time": 64.5078075,
                  "velocity": 0.5354330708661418
              },
              {
                  "duration": 0.07772025000001292,
                  "durationTicks": 2400,
                  "midi": 60,
                  "name": "C4",
                  "ticks": 1994400,
                  "time": 64.58552775,
                  "velocity": 0.47244094488188976
              },
              {
                  "duration": 0.15544049999999743,
                  "durationTicks": 4800,
                  "midi": 60,
                  "name": "C4",
                  "ticks": 1996800,
                  "time": 64.66324800000001,
                  "velocity": 0.47244094488188976
              },
              {
                  "duration": 0.15544049999999743,
                  "durationTicks": 4800,
                  "midi": 60,
                  "name": "C4",
                  "ticks": 2001600,
                  "time": 64.81868850000001,
                  "velocity": 0.47244094488188976
              },
              {
                  "duration": 0.1586788437499962,
                  "durationTicks": 4900,
                  "midi": 60,
                  "name": "C4",
                  "ticks": 2006400,
                  "time": 64.974129,
                  "velocity": 0.5433070866141733
              },
              {
                  "duration": 0.15220215624999867,
                  "durationTicks": 4700,
                  "midi": 60,
                  "name": "C4",
                  "ticks": 2011200,
                  "time": 65.1295695,
                  "velocity": 0.47244094488188976
              },
              {
                  "duration": 0.15544049999999743,
                  "durationTicks": 4800,
                  "midi": 60,
                  "name": "C4",
                  "ticks": 2016000,
                  "time": 65.28501,
                  "velocity": 0.6220472440944882
              },
              {
                  "duration": 0.15220215625001288,
                  "durationTicks": 4700,
                  "midi": 60,
                  "name": "C4",
                  "ticks": 2020800,
                  "time": 65.4404505,
                  "velocity": 0.47244094488188976
              },
              {
                  "duration": 0.15544049999999743,
                  "durationTicks": 4800,
                  "midi": 60,
                  "name": "C4",
                  "ticks": 2025600,
                  "time": 65.59589100000001,
                  "velocity": 0.6692913385826772
              },
              {
                  "duration": 0.15544049999999743,
                  "durationTicks": 4800,
                  "midi": 60,
                  "name": "C4",
                  "ticks": 2030400,
                  "time": 65.7513315,
                  "velocity": 0.47244094488188976
              },
              {
                  "duration": 0.11658037499999807,
                  "durationTicks": 3600,
                  "midi": 60,
                  "name": "C4",
                  "ticks": 2035200,
                  "time": 65.906772,
                  "velocity": 0.6141732283464567
              },
              {
                  "duration": 0.1586788437499962,
                  "durationTicks": 4900,
                  "midi": 60,
                  "name": "C4",
                  "ticks": 2040000,
                  "time": 66.0622125,
                  "velocity": 0.47244094488188976
              },
              {
                  "duration": 0.15544050000001164,
                  "durationTicks": 4800,
                  "midi": 60,
                  "name": "C4",
                  "ticks": 2044800,
                  "time": 66.217653,
                  "velocity": 0.6141732283464567
              },
              {
                  "duration": 0.15220215624999867,
                  "durationTicks": 4700,
                  "midi": 60,
                  "name": "C4",
                  "ticks": 2049600,
                  "time": 66.37309350000001,
                  "velocity": 0.6614173228346457
              },
              {
                  "duration": 0.15544049999999743,
                  "durationTicks": 4800,
                  "midi": 60,
                  "name": "C4",
                  "ticks": 2054400,
                  "time": 66.52853400000001,
                  "velocity": 0.5748031496062992
              },
              {
                  "duration": 0.15220215624999867,
                  "durationTicks": 4700,
                  "midi": 60,
                  "name": "C4",
                  "ticks": 2059200,
                  "time": 66.6839745,
                  "velocity": 0.47244094488188976
              },
              {
                  "duration": 0.15544049999999743,
                  "durationTicks": 4800,
                  "midi": 60,
                  "name": "C4",
                  "ticks": 2064000,
                  "time": 66.839415,
                  "velocity": 0.5590551181102362
              },
              {
                  "duration": 0.07772024999999871,
                  "durationTicks": 2400,
                  "midi": 60,
                  "name": "C4",
                  "ticks": 2068800,
                  "time": 66.9948555,
                  "velocity": 0.5354330708661418
              },
              {
                  "duration": 0.07772024999999871,
                  "durationTicks": 2400,
                  "midi": 60,
                  "name": "C4",
                  "ticks": 2071200,
                  "time": 67.07257575,
                  "velocity": 0.47244094488188976
              },
              {
                  "duration": 0.15544050000001164,
                  "durationTicks": 4800,
                  "midi": 60,
                  "name": "C4",
                  "ticks": 2073600,
                  "time": 67.150296,
                  "velocity": 0.47244094488188976
              },
              {
                  "duration": 0.15544049999999743,
                  "durationTicks": 4800,
                  "midi": 60,
                  "name": "C4",
                  "ticks": 2078400,
                  "time": 67.30573650000001,
                  "velocity": 0.47244094488188976
              },
              {
                  "duration": 0.1586788437499962,
                  "durationTicks": 4900,
                  "midi": 60,
                  "name": "C4",
                  "ticks": 2083200,
                  "time": 67.461177,
                  "velocity": 0.5433070866141733
              },
              {
                  "duration": 0.15220215624999867,
                  "durationTicks": 4700,
                  "midi": 60,
                  "name": "C4",
                  "ticks": 2088000,
                  "time": 67.6166175,
                  "velocity": 0.47244094488188976
              },
              {
                  "duration": 0.15544049999999743,
                  "durationTicks": 4800,
                  "midi": 60,
                  "name": "C4",
                  "ticks": 2092800,
                  "time": 67.772058,
                  "velocity": 0.6220472440944882
              },
              {
                  "duration": 0.15220215625001288,
                  "durationTicks": 4700,
                  "midi": 60,
                  "name": "C4",
                  "ticks": 2097600,
                  "time": 67.9274985,
                  "velocity": 0.47244094488188976
              },
              {
                  "duration": 0.15544049999999743,
                  "durationTicks": 4800,
                  "midi": 60,
                  "name": "C4",
                  "ticks": 2102400,
                  "time": 68.08293900000001,
                  "velocity": 0.6692913385826772
              },
              {
                  "duration": 0.15544049999999743,
                  "durationTicks": 4800,
                  "midi": 60,
                  "name": "C4",
                  "ticks": 2107200,
                  "time": 68.23837950000001,
                  "velocity": 0.47244094488188976
              },
              {
                  "duration": 0.11658037499999807,
                  "durationTicks": 3600,
                  "midi": 60,
                  "name": "C4",
                  "ticks": 2112000,
                  "time": 68.39382,
                  "velocity": 0.6141732283464567
              },
              {
                  "duration": 0.1586788437499962,
                  "durationTicks": 4900,
                  "midi": 60,
                  "name": "C4",
                  "ticks": 2116800,
                  "time": 68.5492605,
                  "velocity": 0.47244094488188976
              },
              {
                  "duration": 0.15544049999999743,
                  "durationTicks": 4800,
                  "midi": 60,
                  "name": "C4",
                  "ticks": 2121600,
                  "time": 68.704701,
                  "velocity": 0.6141732283464567
              },
              {
                  "duration": 0.15220215625001288,
                  "durationTicks": 4700,
                  "midi": 60,
                  "name": "C4",
                  "ticks": 2126400,
                  "time": 68.8601415,
                  "velocity": 0.6614173228346457
              },
              {
                  "duration": 0.15544049999999743,
                  "durationTicks": 4800,
                  "midi": 60,
                  "name": "C4",
                  "ticks": 2131200,
                  "time": 69.01558200000001,
                  "velocity": 0.5748031496062992
              },
              {
                  "duration": 0.15220215624999867,
                  "durationTicks": 4700,
                  "midi": 60,
                  "name": "C4",
                  "ticks": 2136000,
                  "time": 69.1710225,
                  "velocity": 0.47244094488188976
              },
              {
                  "duration": 0.15544049999999743,
                  "durationTicks": 4800,
                  "midi": 60,
                  "name": "C4",
                  "ticks": 2140800,
                  "time": 69.326463,
                  "velocity": 0.5590551181102362
              },
              {
                  "duration": 0.07772024999999871,
                  "durationTicks": 2400,
                  "midi": 60,
                  "name": "C4",
                  "ticks": 2145600,
                  "time": 69.4819035,
                  "velocity": 0.5354330708661418
              },
              {
                  "duration": 0.07772024999999871,
                  "durationTicks": 2400,
                  "midi": 60,
                  "name": "C4",
                  "ticks": 2148000,
                  "time": 69.55962375,
                  "velocity": 0.47244094488188976
              },
              {
                  "duration": 0.15544050000001164,
                  "durationTicks": 4800,
                  "midi": 60,
                  "name": "C4",
                  "ticks": 2150400,
                  "time": 69.637344,
                  "velocity": 0.47244094488188976
              },
              {
                  "duration": 0.11658037500001228,
                  "durationTicks": 3600,
                  "midi": 60,
                  "name": "C4",
                  "ticks": 2496000,
                  "time": 80.82906,
                  "velocity": 0.6141732283464567
              },
              {
                  "duration": 0.1586788437499962,
                  "durationTicks": 4900,
                  "midi": 60,
                  "name": "C4",
                  "ticks": 2500800,
                  "time": 80.98450050000001,
                  "velocity": 0.47244094488188976
              },
              {
                  "duration": 0.15544049999999743,
                  "durationTicks": 4800,
                  "midi": 60,
                  "name": "C4",
                  "ticks": 2505600,
                  "time": 81.13994100000001,
                  "velocity": 0.6141732283464567
              },
              {
                  "duration": 0.15220215624999867,
                  "durationTicks": 4700,
                  "midi": 60,
                  "name": "C4",
                  "ticks": 2510400,
                  "time": 81.2953815,
                  "velocity": 0.6614173228346457
              },
              {
                  "duration": 0.15544049999999743,
                  "durationTicks": 4800,
                  "midi": 60,
                  "name": "C4",
                  "ticks": 2515200,
                  "time": 81.450822,
                  "velocity": 0.5748031496062992
              },
              {
                  "duration": 0.15220215624999867,
                  "durationTicks": 4700,
                  "midi": 60,
                  "name": "C4",
                  "ticks": 2520000,
                  "time": 81.6062625,
                  "velocity": 0.47244094488188976
              },
              {
                  "duration": 0.15544049999999743,
                  "durationTicks": 4800,
                  "midi": 60,
                  "name": "C4",
                  "ticks": 2524800,
                  "time": 81.76170300000001,
                  "velocity": 0.5590551181102362
              },
              {
                  "duration": 0.07772024999999871,
                  "durationTicks": 2400,
                  "midi": 60,
                  "name": "C4",
                  "ticks": 2529600,
                  "time": 81.91714350000001,
                  "velocity": 0.5354330708661418
              },
              {
                  "duration": 0.07772024999999871,
                  "durationTicks": 2400,
                  "midi": 60,
                  "name": "C4",
                  "ticks": 2532000,
                  "time": 81.99486375000001,
                  "velocity": 0.47244094488188976
              },
              {
                  "duration": 0.15544049999999743,
                  "durationTicks": 4800,
                  "midi": 60,
                  "name": "C4",
                  "ticks": 2534400,
                  "time": 82.072584,
                  "velocity": 0.47244094488188976
              },
              {
                  "duration": 0.15544049999999743,
                  "durationTicks": 4800,
                  "midi": 60,
                  "name": "C4",
                  "ticks": 2539200,
                  "time": 82.2280245,
                  "velocity": 0.47244094488188976
              },
              {
                  "duration": 0.1586788437500104,
                  "durationTicks": 4900,
                  "midi": 60,
                  "name": "C4",
                  "ticks": 2544000,
                  "time": 82.383465,
                  "velocity": 0.5433070866141733
              },
              {
                  "duration": 0.15220215624999867,
                  "durationTicks": 4700,
                  "midi": 60,
                  "name": "C4",
                  "ticks": 2548800,
                  "time": 82.5389055,
                  "velocity": 0.47244094488188976
              },
              {
                  "duration": 0.15544049999999743,
                  "durationTicks": 4800,
                  "midi": 60,
                  "name": "C4",
                  "ticks": 2553600,
                  "time": 82.69434600000001,
                  "velocity": 0.6220472440944882
              },
              {
                  "duration": 0.15220215624998445,
                  "durationTicks": 4700,
                  "midi": 60,
                  "name": "C4",
                  "ticks": 2558400,
                  "time": 82.84978650000001,
                  "velocity": 0.47244094488188976
              },
              {
                  "duration": 0.15544049999999743,
                  "durationTicks": 4800,
                  "midi": 60,
                  "name": "C4",
                  "ticks": 2563200,
                  "time": 83.005227,
                  "velocity": 0.6692913385826772
              },
              {
                  "duration": 0.15544049999999743,
                  "durationTicks": 4800,
                  "midi": 60,
                  "name": "C4",
                  "ticks": 2568000,
                  "time": 83.1606675,
                  "velocity": 0.47244094488188976
              },
              {
                  "duration": 0.11658037499999807,
                  "durationTicks": 3600,
                  "midi": 60,
                  "name": "C4",
                  "ticks": 2572800,
                  "time": 83.316108,
                  "velocity": 0.6141732283464567
              },
              {
                  "duration": 0.1586788437499962,
                  "durationTicks": 4900,
                  "midi": 60,
                  "name": "C4",
                  "ticks": 2577600,
                  "time": 83.47154850000001,
                  "velocity": 0.47244094488188976
              },
              {
                  "duration": 0.15544049999999743,
                  "durationTicks": 4800,
                  "midi": 60,
                  "name": "C4",
                  "ticks": 2582400,
                  "time": 83.62698900000001,
                  "velocity": 0.6141732283464567
              },
              {
                  "duration": 0.15220215624999867,
                  "durationTicks": 4700,
                  "midi": 60,
                  "name": "C4",
                  "ticks": 2587200,
                  "time": 83.7824295,
                  "velocity": 0.6614173228346457
              },
              {
                  "duration": 0.15544049999999743,
                  "durationTicks": 4800,
                  "midi": 60,
                  "name": "C4",
                  "ticks": 2592000,
                  "time": 83.93787,
                  "velocity": 0.5748031496062992
              },
              {
                  "duration": 0.15220215624999867,
                  "durationTicks": 4700,
                  "midi": 60,
                  "name": "C4",
                  "ticks": 2596800,
                  "time": 84.0933105,
                  "velocity": 0.47244094488188976
              },
              {
                  "duration": 0.15544050000001164,
                  "durationTicks": 4800,
                  "midi": 60,
                  "name": "C4",
                  "ticks": 2601600,
                  "time": 84.248751,
                  "velocity": 0.5590551181102362
              },
              {
                  "duration": 0.07772024999999871,
                  "durationTicks": 2400,
                  "midi": 60,
                  "name": "C4",
                  "ticks": 2606400,
                  "time": 84.40419150000001,
                  "velocity": 0.5354330708661418
              },
              {
                  "duration": 0.07772024999999871,
                  "durationTicks": 2400,
                  "midi": 60,
                  "name": "C4",
                  "ticks": 2608800,
                  "time": 84.48191175000001,
                  "velocity": 0.47244094488188976
              },
              {
                  "duration": 0.15544049999999743,
                  "durationTicks": 4800,
                  "midi": 60,
                  "name": "C4",
                  "ticks": 2611200,
                  "time": 84.55963200000001,
                  "velocity": 0.47244094488188976
              },
              {
                  "duration": 0.15544049999999743,
                  "durationTicks": 4800,
                  "midi": 60,
                  "name": "C4",
                  "ticks": 2616000,
                  "time": 84.7150725,
                  "velocity": 0.47244094488188976
              },
              {
                  "duration": 0.1586788437500104,
                  "durationTicks": 4900,
                  "midi": 60,
                  "name": "C4",
                  "ticks": 2620800,
                  "time": 84.870513,
                  "velocity": 0.5433070866141733
              },
              {
                  "duration": 0.15220215624999867,
                  "durationTicks": 4700,
                  "midi": 60,
                  "name": "C4",
                  "ticks": 2625600,
                  "time": 85.0259535,
                  "velocity": 0.47244094488188976
              },
              {
                  "duration": 0.15544049999999743,
                  "durationTicks": 4800,
                  "midi": 60,
                  "name": "C4",
                  "ticks": 2630400,
                  "time": 85.18139400000001,
                  "velocity": 0.6220472440944882
              },
              {
                  "duration": 0.15220215624998445,
                  "durationTicks": 4700,
                  "midi": 60,
                  "name": "C4",
                  "ticks": 2635200,
                  "time": 85.33683450000001,
                  "velocity": 0.47244094488188976
              },
              {
                  "duration": 0.15544049999999743,
                  "durationTicks": 4800,
                  "midi": 60,
                  "name": "C4",
                  "ticks": 2640000,
                  "time": 85.492275,
                  "velocity": 0.6692913385826772
              },
              {
                  "duration": 0.15544049999999743,
                  "durationTicks": 4800,
                  "midi": 60,
                  "name": "C4",
                  "ticks": 2644800,
                  "time": 85.6477155,
                  "velocity": 0.47244094488188976
              },
              {
                  "duration": 0.11658037499999807,
                  "durationTicks": 3600,
                  "midi": 60,
                  "name": "C4",
                  "ticks": 2649600,
                  "time": 85.803156,
                  "velocity": 0.6141732283464567
              },
              {
                  "duration": 0.1586788437500104,
                  "durationTicks": 4900,
                  "midi": 60,
                  "name": "C4",
                  "ticks": 2654400,
                  "time": 85.9585965,
                  "velocity": 0.47244094488188976
              },
              {
                  "duration": 0.15544049999999743,
                  "durationTicks": 4800,
                  "midi": 60,
                  "name": "C4",
                  "ticks": 2659200,
                  "time": 86.11403700000001,
                  "velocity": 0.6141732283464567
              },
              {
                  "duration": 0.15220215624998445,
                  "durationTicks": 4700,
                  "midi": 60,
                  "name": "C4",
                  "ticks": 2664000,
                  "time": 86.26947750000001,
                  "velocity": 0.6614173228346457
              },
              {
                  "duration": 0.15544049999999743,
                  "durationTicks": 4800,
                  "midi": 60,
                  "name": "C4",
                  "ticks": 2668800,
                  "time": 86.424918,
                  "velocity": 0.5748031496062992
              },
              {
                  "duration": 0.15220215624999867,
                  "durationTicks": 4700,
                  "midi": 60,
                  "name": "C4",
                  "ticks": 2673600,
                  "time": 86.5803585,
                  "velocity": 0.47244094488188976
              },
              {
                  "duration": 0.15544050000001164,
                  "durationTicks": 4800,
                  "midi": 60,
                  "name": "C4",
                  "ticks": 2678400,
                  "time": 86.735799,
                  "velocity": 0.5590551181102362
              },
              {
                  "duration": 0.07772024999999871,
                  "durationTicks": 2400,
                  "midi": 60,
                  "name": "C4",
                  "ticks": 2683200,
                  "time": 86.89123950000001,
                  "velocity": 0.5354330708661418
              },
              {
                  "duration": 0.07772024999999871,
                  "durationTicks": 2400,
                  "midi": 60,
                  "name": "C4",
                  "ticks": 2685600,
                  "time": 86.96895975000001,
                  "velocity": 0.47244094488188976
              },
              {
                  "duration": 0.15544049999999743,
                  "durationTicks": 4800,
                  "midi": 60,
                  "name": "C4",
                  "ticks": 2688000,
                  "time": 87.04668000000001,
                  "velocity": 0.47244094488188976
              },
              {
                  "duration": 0.15544049999999743,
                  "durationTicks": 4800,
                  "midi": 60,
                  "name": "C4",
                  "ticks": 2692800,
                  "time": 87.2021205,
                  "velocity": 0.47244094488188976
              },
              {
                  "duration": 0.1586788437500104,
                  "durationTicks": 4900,
                  "midi": 60,
                  "name": "C4",
                  "ticks": 2697600,
                  "time": 87.357561,
                  "velocity": 0.5433070866141733
              },
              {
                  "duration": 0.15220215624999867,
                  "durationTicks": 4700,
                  "midi": 60,
                  "name": "C4",
                  "ticks": 2702400,
                  "time": 87.5130015,
                  "velocity": 0.47244094488188976
              },
              {
                  "duration": 0.15544050000001164,
                  "durationTicks": 4800,
                  "midi": 60,
                  "name": "C4",
                  "ticks": 2707200,
                  "time": 87.668442,
                  "velocity": 0.6220472440944882
              },
              {
                  "duration": 0.15220215624998445,
                  "durationTicks": 4700,
                  "midi": 60,
                  "name": "C4",
                  "ticks": 2712000,
                  "time": 87.82388250000001,
                  "velocity": 0.47244094488188976
              },
              {
                  "duration": 0.15544049999999743,
                  "durationTicks": 4800,
                  "midi": 60,
                  "name": "C4",
                  "ticks": 2716800,
                  "time": 87.97932300000001,
                  "velocity": 0.6692913385826772
              },
              {
                  "duration": 0.15544049999999743,
                  "durationTicks": 4800,
                  "midi": 60,
                  "name": "C4",
                  "ticks": 2721600,
                  "time": 88.1347635,
                  "velocity": 0.47244094488188976
              },
              {
                  "duration": 0.11658037499999807,
                  "durationTicks": 3600,
                  "midi": 60,
                  "name": "C4",
                  "ticks": 2726400,
                  "time": 88.290204,
                  "velocity": 0.6141732283464567
              },
              {
                  "duration": 0.1586788437500104,
                  "durationTicks": 4900,
                  "midi": 60,
                  "name": "C4",
                  "ticks": 2731200,
                  "time": 88.4456445,
                  "velocity": 0.47244094488188976
              },
              {
                  "duration": 0.15544049999999743,
                  "durationTicks": 4800,
                  "midi": 60,
                  "name": "C4",
                  "ticks": 2736000,
                  "time": 88.60108500000001,
                  "velocity": 0.6141732283464567
              },
              {
                  "duration": 0.15220215624998445,
                  "durationTicks": 4700,
                  "midi": 60,
                  "name": "C4",
                  "ticks": 2740800,
                  "time": 88.75652550000001,
                  "velocity": 0.6614173228346457
              },
              {
                  "duration": 0.15544049999999743,
                  "durationTicks": 4800,
                  "midi": 60,
                  "name": "C4",
                  "ticks": 2745600,
                  "time": 88.911966,
                  "velocity": 0.5748031496062992
              },
              {
                  "duration": 0.15220215624999867,
                  "durationTicks": 4700,
                  "midi": 60,
                  "name": "C4",
                  "ticks": 2750400,
                  "time": 89.0674065,
                  "velocity": 0.47244094488188976
              },
              {
                  "duration": 0.15544049999999743,
                  "durationTicks": 4800,
                  "midi": 60,
                  "name": "C4",
                  "ticks": 2755200,
                  "time": 89.222847,
                  "velocity": 0.5590551181102362
              },
              {
                  "duration": 0.07772025000001292,
                  "durationTicks": 2400,
                  "midi": 60,
                  "name": "C4",
                  "ticks": 2760000,
                  "time": 89.3782875,
                  "velocity": 0.5354330708661418
              },
              {
                  "duration": 0.07772024999999871,
                  "durationTicks": 2400,
                  "midi": 60,
                  "name": "C4",
                  "ticks": 2762400,
                  "time": 89.45600775000001,
                  "velocity": 0.47244094488188976
              },
              {
                  "duration": 0.15544049999999743,
                  "durationTicks": 4800,
                  "midi": 60,
                  "name": "C4",
                  "ticks": 2764800,
                  "time": 89.53372800000001,
                  "velocity": 0.47244094488188976
              },
              {
                  "duration": 0.15544049999999743,
                  "durationTicks": 4800,
                  "midi": 60,
                  "name": "C4",
                  "ticks": 2769600,
                  "time": 89.68916850000001,
                  "velocity": 0.47244094488188976
              },
              {
                  "duration": 0.1586788437500104,
                  "durationTicks": 4900,
                  "midi": 60,
                  "name": "C4",
                  "ticks": 2774400,
                  "time": 89.844609,
                  "velocity": 0.5433070866141733
              },
              {
                  "duration": 0.15220215624999867,
                  "durationTicks": 4700,
                  "midi": 60,
                  "name": "C4",
                  "ticks": 2779200,
                  "time": 90.0000495,
                  "velocity": 0.47244094488188976
              },
              {
                  "duration": 0.15544050000001164,
                  "durationTicks": 4800,
                  "midi": 60,
                  "name": "C4",
                  "ticks": 2784000,
                  "time": 90.15549,
                  "velocity": 0.6220472440944882
              },
              {
                  "duration": 0.15220215624998445,
                  "durationTicks": 4700,
                  "midi": 60,
                  "name": "C4",
                  "ticks": 2788800,
                  "time": 90.31093050000001,
                  "velocity": 0.47244094488188976
              },
              {
                  "duration": 0.15544049999999743,
                  "durationTicks": 4800,
                  "midi": 60,
                  "name": "C4",
                  "ticks": 2793600,
                  "time": 90.46637100000001,
                  "velocity": 0.6692913385826772
              },
              {
                  "duration": 0.15544049999999743,
                  "durationTicks": 4800,
                  "midi": 60,
                  "name": "C4",
                  "ticks": 2798400,
                  "time": 90.6218115,
                  "velocity": 0.47244094488188976
              },
              {
                  "duration": 0.11658037499999807,
                  "durationTicks": 3600,
                  "midi": 60,
                  "name": "C4",
                  "ticks": 2803200,
                  "time": 90.777252,
                  "velocity": 0.6141732283464567
              },
              {
                  "duration": 0.1586788437500104,
                  "durationTicks": 4900,
                  "midi": 60,
                  "name": "C4",
                  "ticks": 2808000,
                  "time": 90.9326925,
                  "velocity": 0.47244094488188976
              },
              {
                  "duration": 0.15544050000001164,
                  "durationTicks": 4800,
                  "midi": 60,
                  "name": "C4",
                  "ticks": 2812800,
                  "time": 91.088133,
                  "velocity": 0.6141732283464567
              },
              {
                  "duration": 0.15220215624998445,
                  "durationTicks": 4700,
                  "midi": 60,
                  "name": "C4",
                  "ticks": 2817600,
                  "time": 91.24357350000001,
                  "velocity": 0.6614173228346457
              },
              {
                  "duration": 0.15544049999999743,
                  "durationTicks": 4800,
                  "midi": 60,
                  "name": "C4",
                  "ticks": 2822400,
                  "time": 91.39901400000001,
                  "velocity": 0.5748031496062992
              },
              {
                  "duration": 0.15220215624999867,
                  "durationTicks": 4700,
                  "midi": 60,
                  "name": "C4",
                  "ticks": 2827200,
                  "time": 91.5544545,
                  "velocity": 0.47244094488188976
              },
              {
                  "duration": 0.15544049999999743,
                  "durationTicks": 4800,
                  "midi": 60,
                  "name": "C4",
                  "ticks": 2832000,
                  "time": 91.709895,
                  "velocity": 0.5590551181102362
              },
              {
                  "duration": 0.07772024999999871,
                  "durationTicks": 2400,
                  "midi": 60,
                  "name": "C4",
                  "ticks": 2836800,
                  "time": 91.8653355,
                  "velocity": 0.5354330708661418
              },
              {
                  "duration": 0.07772025000001292,
                  "durationTicks": 2400,
                  "midi": 60,
                  "name": "C4",
                  "ticks": 2839200,
                  "time": 91.94305575,
                  "velocity": 0.47244094488188976
              },
              {
                  "duration": 0.15544049999999743,
                  "durationTicks": 4800,
                  "midi": 60,
                  "name": "C4",
                  "ticks": 2841600,
                  "time": 92.02077600000001,
                  "velocity": 0.47244094488188976
              },
              {
                  "duration": 0.15544049999999743,
                  "durationTicks": 4800,
                  "midi": 60,
                  "name": "C4",
                  "ticks": 2846400,
                  "time": 92.17621650000001,
                  "velocity": 0.47244094488188976
              },
              {
                  "duration": 0.1586788437500104,
                  "durationTicks": 4900,
                  "midi": 60,
                  "name": "C4",
                  "ticks": 2851200,
                  "time": 92.331657,
                  "velocity": 0.5433070866141733
              },
              {
                  "duration": 0.15220215624999867,
                  "durationTicks": 4700,
                  "midi": 60,
                  "name": "C4",
                  "ticks": 2856000,
                  "time": 92.4870975,
                  "velocity": 0.47244094488188976
              },
              {
                  "duration": 0.15544049999999743,
                  "durationTicks": 4800,
                  "midi": 60,
                  "name": "C4",
                  "ticks": 2860800,
                  "time": 92.642538,
                  "velocity": 0.6220472440944882
              },
              {
                  "duration": 0.15220215624999867,
                  "durationTicks": 4700,
                  "midi": 60,
                  "name": "C4",
                  "ticks": 2865600,
                  "time": 92.7979785,
                  "velocity": 0.47244094488188976
              },
              {
                  "duration": 0.15544049999999743,
                  "durationTicks": 4800,
                  "midi": 60,
                  "name": "C4",
                  "ticks": 2870400,
                  "time": 92.95341900000001,
                  "velocity": 0.6692913385826772
              },
              {
                  "duration": 0.15544049999999743,
                  "durationTicks": 4800,
                  "midi": 60,
                  "name": "C4",
                  "ticks": 2875200,
                  "time": 93.10885950000001,
                  "velocity": 0.47244094488188976
              },
              {
                  "duration": 0.11658037499999807,
                  "durationTicks": 3600,
                  "midi": 60,
                  "name": "C4",
                  "ticks": 2880000,
                  "time": 93.2643,
                  "velocity": 0.6141732283464567
              },
              {
                  "duration": 0.1586788437500104,
                  "durationTicks": 4900,
                  "midi": 60,
                  "name": "C4",
                  "ticks": 2884800,
                  "time": 93.4197405,
                  "velocity": 0.47244094488188976
              },
              {
                  "duration": 0.15544050000001164,
                  "durationTicks": 4800,
                  "midi": 60,
                  "name": "C4",
                  "ticks": 2889600,
                  "time": 93.575181,
                  "velocity": 0.6141732283464567
              },
              {
                  "duration": 0.15220215624998445,
                  "durationTicks": 4700,
                  "midi": 60,
                  "name": "C4",
                  "ticks": 2894400,
                  "time": 93.73062150000001,
                  "velocity": 0.6614173228346457
              },
              {
                  "duration": 0.15544049999999743,
                  "durationTicks": 4800,
                  "midi": 60,
                  "name": "C4",
                  "ticks": 2899200,
                  "time": 93.88606200000001,
                  "velocity": 0.5748031496062992
              },
              {
                  "duration": 0.15220215624999867,
                  "durationTicks": 4700,
                  "midi": 60,
                  "name": "C4",
                  "ticks": 2904000,
                  "time": 94.0415025,
                  "velocity": 0.47244094488188976
              },
              {
                  "duration": 0.15544049999999743,
                  "durationTicks": 4800,
                  "midi": 60,
                  "name": "C4",
                  "ticks": 2908800,
                  "time": 94.196943,
                  "velocity": 0.5590551181102362
              },
              {
                  "duration": 0.07772024999999871,
                  "durationTicks": 2400,
                  "midi": 60,
                  "name": "C4",
                  "ticks": 2913600,
                  "time": 94.3523835,
                  "velocity": 0.5354330708661418
              },
              {
                  "duration": 0.07772024999999871,
                  "durationTicks": 2400,
                  "midi": 60,
                  "name": "C4",
                  "ticks": 2916000,
                  "time": 94.43010375,
                  "velocity": 0.47244094488188976
              },
              {
                  "duration": 0.15544050000001164,
                  "durationTicks": 4800,
                  "midi": 60,
                  "name": "C4",
                  "ticks": 2918400,
                  "time": 94.507824,
                  "velocity": 0.47244094488188976
              },
              {
                  "duration": 0.15544049999999743,
                  "durationTicks": 4800,
                  "midi": 60,
                  "name": "C4",
                  "ticks": 2923200,
                  "time": 94.66326450000001,
                  "velocity": 0.47244094488188976
              },
              {
                  "duration": 0.1586788437499962,
                  "durationTicks": 4900,
                  "midi": 60,
                  "name": "C4",
                  "ticks": 2928000,
                  "time": 94.81870500000001,
                  "velocity": 0.5433070866141733
              },
              {
                  "duration": 0.15220215624999867,
                  "durationTicks": 4700,
                  "midi": 60,
                  "name": "C4",
                  "ticks": 2932800,
                  "time": 94.9741455,
                  "velocity": 0.47244094488188976
              },
              {
                  "duration": 0.15544049999999743,
                  "durationTicks": 4800,
                  "midi": 60,
                  "name": "C4",
                  "ticks": 2937600,
                  "time": 95.129586,
                  "velocity": 0.6220472440944882
              },
              {
                  "duration": 0.15220215624999867,
                  "durationTicks": 4700,
                  "midi": 60,
                  "name": "C4",
                  "ticks": 2942400,
                  "time": 95.2850265,
                  "velocity": 0.47244094488188976
              },
              {
                  "duration": 0.15544049999999743,
                  "durationTicks": 4800,
                  "midi": 60,
                  "name": "C4",
                  "ticks": 2947200,
                  "time": 95.44046700000001,
                  "velocity": 0.6692913385826772
              },
              {
                  "duration": 0.15544049999999743,
                  "durationTicks": 4800,
                  "midi": 60,
                  "name": "C4",
                  "ticks": 2952000,
                  "time": 95.59590750000001,
                  "velocity": 0.47244094488188976
              },
              {
                  "duration": 0.11658037499999807,
                  "durationTicks": 3600,
                  "midi": 60,
                  "name": "C4",
                  "ticks": 2956800,
                  "time": 95.75134800000001,
                  "velocity": 0.6141732283464567
              },
              {
                  "duration": 0.1586788437500104,
                  "durationTicks": 4900,
                  "midi": 60,
                  "name": "C4",
                  "ticks": 2961600,
                  "time": 95.9067885,
                  "velocity": 0.47244094488188976
              },
              {
                  "duration": 0.15544049999999743,
                  "durationTicks": 4800,
                  "midi": 60,
                  "name": "C4",
                  "ticks": 2966400,
                  "time": 96.062229,
                  "velocity": 0.6141732283464567
              },
              {
                  "duration": 0.15220215624999867,
                  "durationTicks": 4700,
                  "midi": 60,
                  "name": "C4",
                  "ticks": 2971200,
                  "time": 96.2176695,
                  "velocity": 0.6614173228346457
              },
              {
                  "duration": 0.15544049999999743,
                  "durationTicks": 4800,
                  "midi": 60,
                  "name": "C4",
                  "ticks": 2976000,
                  "time": 96.37311000000001,
                  "velocity": 0.5748031496062992
              },
              {
                  "duration": 0.15220215624998445,
                  "durationTicks": 4700,
                  "midi": 60,
                  "name": "C4",
                  "ticks": 2980800,
                  "time": 96.52855050000001,
                  "velocity": 0.47244094488188976
              },
              {
                  "duration": 0.15544049999999743,
                  "durationTicks": 4800,
                  "midi": 60,
                  "name": "C4",
                  "ticks": 2985600,
                  "time": 96.683991,
                  "velocity": 0.5590551181102362
              },
              {
                  "duration": 0.07772024999999871,
                  "durationTicks": 2400,
                  "midi": 60,
                  "name": "C4",
                  "ticks": 2990400,
                  "time": 96.8394315,
                  "velocity": 0.5354330708661418
              },
              {
                  "duration": 0.07772024999999871,
                  "durationTicks": 2400,
                  "midi": 60,
                  "name": "C4",
                  "ticks": 2992800,
                  "time": 96.91715175,
                  "velocity": 0.47244094488188976
              },
              {
                  "duration": 0.15544050000001164,
                  "durationTicks": 4800,
                  "midi": 60,
                  "name": "C4",
                  "ticks": 2995200,
                  "time": 96.994872,
                  "velocity": 0.47244094488188976
              },
              {
                  "duration": 0.15544049999999743,
                  "durationTicks": 4800,
                  "midi": 60,
                  "name": "C4",
                  "ticks": 3000000,
                  "time": 97.15031250000001,
                  "velocity": 0.47244094488188976
              },
              {
                  "duration": 0.1586788437499962,
                  "durationTicks": 4900,
                  "midi": 60,
                  "name": "C4",
                  "ticks": 3004800,
                  "time": 97.30575300000001,
                  "velocity": 0.5433070866141733
              },
              {
                  "duration": 0.15220215624999867,
                  "durationTicks": 4700,
                  "midi": 60,
                  "name": "C4",
                  "ticks": 3009600,
                  "time": 97.46119350000001,
                  "velocity": 0.47244094488188976
              },
              {
                  "duration": 0.15544049999999743,
                  "durationTicks": 4800,
                  "midi": 60,
                  "name": "C4",
                  "ticks": 3014400,
                  "time": 97.616634,
                  "velocity": 0.6220472440944882
              },
              {
                  "duration": 0.15220215624999867,
                  "durationTicks": 4700,
                  "midi": 60,
                  "name": "C4",
                  "ticks": 3019200,
                  "time": 97.7720745,
                  "velocity": 0.47244094488188976
              },
              {
                  "duration": 0.15544050000001164,
                  "durationTicks": 4800,
                  "midi": 60,
                  "name": "C4",
                  "ticks": 3024000,
                  "time": 97.927515,
                  "velocity": 0.6692913385826772
              },
              {
                  "duration": 0.15544049999999743,
                  "durationTicks": 4800,
                  "midi": 60,
                  "name": "C4",
                  "ticks": 3028800,
                  "time": 98.08295550000001,
                  "velocity": 0.47244094488188976
              },
              {
                  "duration": 0.11658037499999807,
                  "durationTicks": 3600,
                  "midi": 60,
                  "name": "C4",
                  "ticks": 3033600,
                  "time": 98.23839600000001,
                  "velocity": 0.6141732283464567
              },
              {
                  "duration": 0.1586788437500104,
                  "durationTicks": 4900,
                  "midi": 60,
                  "name": "C4",
                  "ticks": 3038400,
                  "time": 98.3938365,
                  "velocity": 0.47244094488188976
              },
              {
                  "duration": 0.15544049999999743,
                  "durationTicks": 4800,
                  "midi": 60,
                  "name": "C4",
                  "ticks": 3043200,
                  "time": 98.549277,
                  "velocity": 0.6141732283464567
              },
              {
                  "duration": 0.15220215624999867,
                  "durationTicks": 4700,
                  "midi": 60,
                  "name": "C4",
                  "ticks": 3048000,
                  "time": 98.7047175,
                  "velocity": 0.6614173228346457
              },
              {
                  "duration": 0.15544049999999743,
                  "durationTicks": 4800,
                  "midi": 60,
                  "name": "C4",
                  "ticks": 3052800,
                  "time": 98.86015800000001,
                  "velocity": 0.5748031496062992
              },
              {
                  "duration": 0.15220215624998445,
                  "durationTicks": 4700,
                  "midi": 60,
                  "name": "C4",
                  "ticks": 3057600,
                  "time": 99.01559850000001,
                  "velocity": 0.47244094488188976
              },
              {
                  "duration": 0.15544049999999743,
                  "durationTicks": 4800,
                  "midi": 60,
                  "name": "C4",
                  "ticks": 3062400,
                  "time": 99.17103900000001,
                  "velocity": 0.5590551181102362
              },
              {
                  "duration": 0.07772024999999871,
                  "durationTicks": 2400,
                  "midi": 60,
                  "name": "C4",
                  "ticks": 3067200,
                  "time": 99.3264795,
                  "velocity": 0.5354330708661418
              },
              {
                  "duration": 0.07772024999999871,
                  "durationTicks": 2400,
                  "midi": 60,
                  "name": "C4",
                  "ticks": 3069600,
                  "time": 99.40419975,
                  "velocity": 0.47244094488188976
              },
              {
                  "duration": 0.11658037499999807,
                  "durationTicks": 3600,
                  "midi": 60,
                  "name": "C4",
                  "ticks": 3110400,
                  "time": 100.72544400000001,
                  "velocity": 0.6141732283464567
              },
              {
                  "duration": 0.1586788437500104,
                  "durationTicks": 4900,
                  "midi": 60,
                  "name": "C4",
                  "ticks": 3115200,
                  "time": 100.88088450000001,
                  "velocity": 0.47244094488188976
              },
              {
                  "duration": 0.15544049999999743,
                  "durationTicks": 4800,
                  "midi": 60,
                  "name": "C4",
                  "ticks": 3120000,
                  "time": 101.036325,
                  "velocity": 0.6141732283464567
              },
              {
                  "duration": 0.15220215624999867,
                  "durationTicks": 4700,
                  "midi": 60,
                  "name": "C4",
                  "ticks": 3124800,
                  "time": 101.1917655,
                  "velocity": 0.6614173228346457
              },
              {
                  "duration": 0.15544050000001164,
                  "durationTicks": 4800,
                  "midi": 60,
                  "name": "C4",
                  "ticks": 3129600,
                  "time": 101.347206,
                  "velocity": 0.5748031496062992
              },
              {
                  "duration": 0.15220215624998445,
                  "durationTicks": 4700,
                  "midi": 60,
                  "name": "C4",
                  "ticks": 3134400,
                  "time": 101.50264650000001,
                  "velocity": 0.47244094488188976
              },
              {
                  "duration": 0.15544049999999743,
                  "durationTicks": 4800,
                  "midi": 60,
                  "name": "C4",
                  "ticks": 3139200,
                  "time": 101.65808700000001,
                  "velocity": 0.5590551181102362
              },
              {
                  "duration": 0.07772024999999871,
                  "durationTicks": 2400,
                  "midi": 60,
                  "name": "C4",
                  "ticks": 3144000,
                  "time": 101.8135275,
                  "velocity": 0.5354330708661418
              },
              {
                  "duration": 0.07772024999999871,
                  "durationTicks": 2400,
                  "midi": 60,
                  "name": "C4",
                  "ticks": 3146400,
                  "time": 101.89124775,
                  "velocity": 0.47244094488188976
              },
              {
                  "duration": 0.15544049999999743,
                  "durationTicks": 4800,
                  "midi": 60,
                  "name": "C4",
                  "ticks": 3148800,
                  "time": 101.968968,
                  "velocity": 0.47244094488188976
              },
              {
                  "duration": 0.15544050000001164,
                  "durationTicks": 4800,
                  "midi": 60,
                  "name": "C4",
                  "ticks": 3153600,
                  "time": 102.1244085,
                  "velocity": 0.47244094488188976
              },
              {
                  "duration": 0.1586788437499962,
                  "durationTicks": 4900,
                  "midi": 60,
                  "name": "C4",
                  "ticks": 3158400,
                  "time": 102.27984900000001,
                  "velocity": 0.5354330708661418
              },
              {
                  "duration": 0.15220215624998445,
                  "durationTicks": 4700,
                  "midi": 60,
                  "name": "C4",
                  "ticks": 3163200,
                  "time": 102.43528950000001,
                  "velocity": 0.47244094488188976
              },
              {
                  "duration": 0.15544049999999743,
                  "durationTicks": 4800,
                  "midi": 60,
                  "name": "C4",
                  "ticks": 3168000,
                  "time": 102.59073000000001,
                  "velocity": 0.6220472440944882
              },
              {
                  "duration": 0.15220215624999867,
                  "durationTicks": 4700,
                  "midi": 60,
                  "name": "C4",
                  "ticks": 3172800,
                  "time": 102.7461705,
                  "velocity": 0.47244094488188976
              },
              {
                  "duration": 0.15544049999999743,
                  "durationTicks": 4800,
                  "midi": 60,
                  "name": "C4",
                  "ticks": 3177600,
                  "time": 102.901611,
                  "velocity": 0.6692913385826772
              },
              {
                  "duration": 0.15544050000001164,
                  "durationTicks": 4800,
                  "midi": 60,
                  "name": "C4",
                  "ticks": 3182400,
                  "time": 103.0570515,
                  "velocity": 0.47244094488188976
              },
              {
                  "duration": 0.11658037499999807,
                  "durationTicks": 3600,
                  "midi": 60,
                  "name": "C4",
                  "ticks": 3187200,
                  "time": 103.21249200000001,
                  "velocity": 0.6141732283464567
              },
              {
                  "duration": 0.1586788437499962,
                  "durationTicks": 4900,
                  "midi": 60,
                  "name": "C4",
                  "ticks": 3192000,
                  "time": 103.36793250000001,
                  "velocity": 0.47244094488188976
              },
              {
                  "duration": 0.15544049999999743,
                  "durationTicks": 4800,
                  "midi": 60,
                  "name": "C4",
                  "ticks": 3196800,
                  "time": 103.523373,
                  "velocity": 0.6141732283464567
              },
              {
                  "duration": 0.15220215624999867,
                  "durationTicks": 4700,
                  "midi": 60,
                  "name": "C4",
                  "ticks": 3201600,
                  "time": 103.6788135,
                  "velocity": 0.6614173228346457
              },
              {
                  "duration": 0.15544050000001164,
                  "durationTicks": 4800,
                  "midi": 60,
                  "name": "C4",
                  "ticks": 3206400,
                  "time": 103.834254,
                  "velocity": 0.5748031496062992
              },
              {
                  "duration": 0.15220215624998445,
                  "durationTicks": 4700,
                  "midi": 60,
                  "name": "C4",
                  "ticks": 3211200,
                  "time": 103.98969450000001,
                  "velocity": 0.47244094488188976
              },
              {
                  "duration": 0.15544049999999743,
                  "durationTicks": 4800,
                  "midi": 60,
                  "name": "C4",
                  "ticks": 3216000,
                  "time": 104.14513500000001,
                  "velocity": 0.5590551181102362
              },
              {
                  "duration": 0.07772024999999871,
                  "durationTicks": 2400,
                  "midi": 60,
                  "name": "C4",
                  "ticks": 3220800,
                  "time": 104.30057550000001,
                  "velocity": 0.5354330708661418
              },
              {
                  "duration": 0.07772024999999871,
                  "durationTicks": 2400,
                  "midi": 60,
                  "name": "C4",
                  "ticks": 3223200,
                  "time": 104.37829575,
                  "velocity": 0.47244094488188976
              },
              {
                  "duration": 0.15544049999999743,
                  "durationTicks": 4800,
                  "midi": 60,
                  "name": "C4",
                  "ticks": 3225600,
                  "time": 104.456016,
                  "velocity": 0.47244094488188976
              },
              {
                  "duration": 0.15544049999999743,
                  "durationTicks": 4800,
                  "midi": 60,
                  "name": "C4",
                  "ticks": 3230400,
                  "time": 104.6114565,
                  "velocity": 0.47244094488188976
              },
              {
                  "duration": 0.1586788437500104,
                  "durationTicks": 4900,
                  "midi": 60,
                  "name": "C4",
                  "ticks": 3235200,
                  "time": 104.766897,
                  "velocity": 0.5354330708661418
              },
              {
                  "duration": 0.15220215624998445,
                  "durationTicks": 4700,
                  "midi": 60,
                  "name": "C4",
                  "ticks": 3240000,
                  "time": 104.92233750000001,
                  "velocity": 0.47244094488188976
              },
              {
                  "duration": 0.15544049999999743,
                  "durationTicks": 4800,
                  "midi": 60,
                  "name": "C4",
                  "ticks": 3244800,
                  "time": 105.07777800000001,
                  "velocity": 0.6220472440944882
              },
              {
                  "duration": 0.15220215624999867,
                  "durationTicks": 4700,
                  "midi": 60,
                  "name": "C4",
                  "ticks": 3249600,
                  "time": 105.2332185,
                  "velocity": 0.47244094488188976
              },
              {
                  "duration": 0.15544049999999743,
                  "durationTicks": 4800,
                  "midi": 60,
                  "name": "C4",
                  "ticks": 3254400,
                  "time": 105.388659,
                  "velocity": 0.6692913385826772
              },
              {
                  "duration": 0.15544050000001164,
                  "durationTicks": 4800,
                  "midi": 60,
                  "name": "C4",
                  "ticks": 3259200,
                  "time": 105.5440995,
                  "velocity": 0.47244094488188976
              },
              {
                  "duration": 0.11658037499999807,
                  "durationTicks": 3600,
                  "midi": 60,
                  "name": "C4",
                  "ticks": 3264000,
                  "time": 105.69954000000001,
                  "velocity": 0.6141732283464567
              },
              {
                  "duration": 0.1586788437499962,
                  "durationTicks": 4900,
                  "midi": 60,
                  "name": "C4",
                  "ticks": 3268800,
                  "time": 105.85498050000001,
                  "velocity": 0.47244094488188976
              },
              {
                  "duration": 0.15544049999999743,
                  "durationTicks": 4800,
                  "midi": 60,
                  "name": "C4",
                  "ticks": 3273600,
                  "time": 106.01042100000001,
                  "velocity": 0.6141732283464567
              },
              {
                  "duration": 0.15220215624999867,
                  "durationTicks": 4700,
                  "midi": 60,
                  "name": "C4",
                  "ticks": 3278400,
                  "time": 106.1658615,
                  "velocity": 0.6614173228346457
              },
              {
                  "duration": 0.15544049999999743,
                  "durationTicks": 4800,
                  "midi": 60,
                  "name": "C4",
                  "ticks": 3283200,
                  "time": 106.321302,
                  "velocity": 0.5748031496062992
              },
              {
                  "duration": 0.15220215624999867,
                  "durationTicks": 4700,
                  "midi": 60,
                  "name": "C4",
                  "ticks": 3288000,
                  "time": 106.4767425,
                  "velocity": 0.47244094488188976
              },
              {
                  "duration": 0.15544049999999743,
                  "durationTicks": 4800,
                  "midi": 60,
                  "name": "C4",
                  "ticks": 3292800,
                  "time": 106.63218300000001,
                  "velocity": 0.5590551181102362
              },
              {
                  "duration": 0.07772024999999871,
                  "durationTicks": 2400,
                  "midi": 60,
                  "name": "C4",
                  "ticks": 3297600,
                  "time": 106.78762350000001,
                  "velocity": 0.5354330708661418
              },
              {
                  "duration": 0.07772024999999871,
                  "durationTicks": 2400,
                  "midi": 60,
                  "name": "C4",
                  "ticks": 3300000,
                  "time": 106.86534375000001,
                  "velocity": 0.47244094488188976
              },
              {
                  "duration": 0.15544049999999743,
                  "durationTicks": 4800,
                  "midi": 60,
                  "name": "C4",
                  "ticks": 3302400,
                  "time": 106.943064,
                  "velocity": 0.47244094488188976
              },
              {
                  "duration": 0.15544049999999743,
                  "durationTicks": 4800,
                  "midi": 60,
                  "name": "C4",
                  "ticks": 3307200,
                  "time": 107.0985045,
                  "velocity": 0.47244094488188976
              },
              {
                  "duration": 0.1586788437500104,
                  "durationTicks": 4900,
                  "midi": 60,
                  "name": "C4",
                  "ticks": 3312000,
                  "time": 107.253945,
                  "velocity": 0.5354330708661418
              },
              {
                  "duration": 0.15220215624998445,
                  "durationTicks": 4700,
                  "midi": 60,
                  "name": "C4",
                  "ticks": 3316800,
                  "time": 107.40938550000001,
                  "velocity": 0.47244094488188976
              },
              {
                  "duration": 0.15544049999999743,
                  "durationTicks": 4800,
                  "midi": 60,
                  "name": "C4",
                  "ticks": 3321600,
                  "time": 107.56482600000001,
                  "velocity": 0.6220472440944882
              },
              {
                  "duration": 0.15220215624999867,
                  "durationTicks": 4700,
                  "midi": 60,
                  "name": "C4",
                  "ticks": 3326400,
                  "time": 107.72026650000001,
                  "velocity": 0.47244094488188976
              },
              {
                  "duration": 0.15544049999999743,
                  "durationTicks": 4800,
                  "midi": 60,
                  "name": "C4",
                  "ticks": 3331200,
                  "time": 107.875707,
                  "velocity": 0.6692913385826772
              },
              {
                  "duration": 0.15544049999999743,
                  "durationTicks": 4800,
                  "midi": 60,
                  "name": "C4",
                  "ticks": 3336000,
                  "time": 108.0311475,
                  "velocity": 0.47244094488188976
              },
              {
                  "duration": 0.11658037500001228,
                  "durationTicks": 3600,
                  "midi": 60,
                  "name": "C4",
                  "ticks": 3340800,
                  "time": 108.186588,
                  "velocity": 0.6141732283464567
              },
              {
                  "duration": 0.1586788437499962,
                  "durationTicks": 4900,
                  "midi": 60,
                  "name": "C4",
                  "ticks": 3345600,
                  "time": 108.34202850000001,
                  "velocity": 0.47244094488188976
              },
              {
                  "duration": 0.15544049999999743,
                  "durationTicks": 4800,
                  "midi": 60,
                  "name": "C4",
                  "ticks": 3350400,
                  "time": 108.49746900000001,
                  "velocity": 0.6141732283464567
              },
              {
                  "duration": 0.15220215624999867,
                  "durationTicks": 4700,
                  "midi": 60,
                  "name": "C4",
                  "ticks": 3355200,
                  "time": 108.6529095,
                  "velocity": 0.6614173228346457
              },
              {
                  "duration": 0.15544049999999743,
                  "durationTicks": 4800,
                  "midi": 60,
                  "name": "C4",
                  "ticks": 3360000,
                  "time": 108.80835,
                  "velocity": 0.5748031496062992
              },
              {
                  "duration": 0.15220215624999867,
                  "durationTicks": 4700,
                  "midi": 60,
                  "name": "C4",
                  "ticks": 3364800,
                  "time": 108.9637905,
                  "velocity": 0.47244094488188976
              },
              {
                  "duration": 0.15544049999999743,
                  "durationTicks": 4800,
                  "midi": 60,
                  "name": "C4",
                  "ticks": 3369600,
                  "time": 109.11923100000001,
                  "velocity": 0.5590551181102362
              },
              {
                  "duration": 0.07772024999999871,
                  "durationTicks": 2400,
                  "midi": 60,
                  "name": "C4",
                  "ticks": 3374400,
                  "time": 109.27467150000001,
                  "velocity": 0.5354330708661418
              },
              {
                  "duration": 0.07772024999999871,
                  "durationTicks": 2400,
                  "midi": 60,
                  "name": "C4",
                  "ticks": 3376800,
                  "time": 109.35239175000001,
                  "velocity": 0.47244094488188976
              },
              {
                  "duration": 0.15544049999999743,
                  "durationTicks": 4800,
                  "midi": 60,
                  "name": "C4",
                  "ticks": 3379200,
                  "time": 109.43011200000001,
                  "velocity": 0.47244094488188976
              },
              {
                  "duration": 0.15544049999999743,
                  "durationTicks": 4800,
                  "midi": 60,
                  "name": "C4",
                  "ticks": 3384000,
                  "time": 109.5855525,
                  "velocity": 0.47244094488188976
              },
              {
                  "duration": 0.1586788437500104,
                  "durationTicks": 4900,
                  "midi": 60,
                  "name": "C4",
                  "ticks": 3388800,
                  "time": 109.740993,
                  "velocity": 0.5354330708661418
              },
              {
                  "duration": 0.15220215624999867,
                  "durationTicks": 4700,
                  "midi": 60,
                  "name": "C4",
                  "ticks": 3393600,
                  "time": 109.8964335,
                  "velocity": 0.47244094488188976
              },
              {
                  "duration": 0.15544049999999743,
                  "durationTicks": 4800,
                  "midi": 60,
                  "name": "C4",
                  "ticks": 3398400,
                  "time": 110.05187400000001,
                  "velocity": 0.6220472440944882
              },
              {
                  "duration": 0.15220215624998445,
                  "durationTicks": 4700,
                  "midi": 60,
                  "name": "C4",
                  "ticks": 3403200,
                  "time": 110.20731450000001,
                  "velocity": 0.47244094488188976
              },
              {
                  "duration": 0.15544049999999743,
                  "durationTicks": 4800,
                  "midi": 60,
                  "name": "C4",
                  "ticks": 3408000,
                  "time": 110.362755,
                  "velocity": 0.6692913385826772
              },
              {
                  "duration": 0.15544049999999743,
                  "durationTicks": 4800,
                  "midi": 60,
                  "name": "C4",
                  "ticks": 3412800,
                  "time": 110.5181955,
                  "velocity": 0.47244094488188976
              },
              {
                  "duration": 0.11658037499999807,
                  "durationTicks": 3600,
                  "midi": 60,
                  "name": "C4",
                  "ticks": 3417600,
                  "time": 110.673636,
                  "velocity": 0.6141732283464567
              },
              {
                  "duration": 0.1586788437499962,
                  "durationTicks": 4900,
                  "midi": 60,
                  "name": "C4",
                  "ticks": 3422400,
                  "time": 110.82907650000001,
                  "velocity": 0.47244094488188976
              },
              {
                  "duration": 0.15544049999999743,
                  "durationTicks": 4800,
                  "midi": 60,
                  "name": "C4",
                  "ticks": 3427200,
                  "time": 110.98451700000001,
                  "velocity": 0.6141732283464567
              },
              {
                  "duration": 0.15220215624999867,
                  "durationTicks": 4700,
                  "midi": 60,
                  "name": "C4",
                  "ticks": 3432000,
                  "time": 111.13995750000001,
                  "velocity": 0.6614173228346457
              },
              {
                  "duration": 0.15544049999999743,
                  "durationTicks": 4800,
                  "midi": 60,
                  "name": "C4",
                  "ticks": 3436800,
                  "time": 111.295398,
                  "velocity": 0.5748031496062992
              },
              {
                  "duration": 0.15220215624999867,
                  "durationTicks": 4700,
                  "midi": 60,
                  "name": "C4",
                  "ticks": 3441600,
                  "time": 111.4508385,
                  "velocity": 0.47244094488188976
              },
              {
                  "duration": 0.15544050000001164,
                  "durationTicks": 4800,
                  "midi": 60,
                  "name": "C4",
                  "ticks": 3446400,
                  "time": 111.606279,
                  "velocity": 0.5590551181102362
              },
              {
                  "duration": 0.07772024999999871,
                  "durationTicks": 2400,
                  "midi": 60,
                  "name": "C4",
                  "ticks": 3451200,
                  "time": 111.76171950000001,
                  "velocity": 0.5354330708661418
              },
              {
                  "duration": 0.07772024999999871,
                  "durationTicks": 2400,
                  "midi": 60,
                  "name": "C4",
                  "ticks": 3453600,
                  "time": 111.83943975000001,
                  "velocity": 0.47244094488188976
              },
              {
                  "duration": 0.15544049999999743,
                  "durationTicks": 4800,
                  "midi": 60,
                  "name": "C4",
                  "ticks": 3456000,
                  "time": 111.91716000000001,
                  "velocity": 0.47244094488188976
              },
              {
                  "duration": 0.15544049999999743,
                  "durationTicks": 4800,
                  "midi": 60,
                  "name": "C4",
                  "ticks": 3460800,
                  "time": 112.07260050000001,
                  "velocity": 0.47244094488188976
              },
              {
                  "duration": 0.1586788437500104,
                  "durationTicks": 4900,
                  "midi": 60,
                  "name": "C4",
                  "ticks": 3465600,
                  "time": 112.228041,
                  "velocity": 0.5354330708661418
              },
              {
                  "duration": 0.15220215624999867,
                  "durationTicks": 4700,
                  "midi": 60,
                  "name": "C4",
                  "ticks": 3470400,
                  "time": 112.3834815,
                  "velocity": 0.47244094488188976
              },
              {
                  "duration": 0.15544049999999743,
                  "durationTicks": 4800,
                  "midi": 60,
                  "name": "C4",
                  "ticks": 3475200,
                  "time": 112.53892200000001,
                  "velocity": 0.6220472440944882
              },
              {
                  "duration": 0.15220215624998445,
                  "durationTicks": 4700,
                  "midi": 60,
                  "name": "C4",
                  "ticks": 3480000,
                  "time": 112.69436250000001,
                  "velocity": 0.47244094488188976
              },
              {
                  "duration": 0.15544049999999743,
                  "durationTicks": 4800,
                  "midi": 60,
                  "name": "C4",
                  "ticks": 3484800,
                  "time": 112.84980300000001,
                  "velocity": 0.6692913385826772
              },
              {
                  "duration": 0.15544049999999743,
                  "durationTicks": 4800,
                  "midi": 60,
                  "name": "C4",
                  "ticks": 3489600,
                  "time": 113.0052435,
                  "velocity": 0.47244094488188976
              },
              {
                  "duration": 0.11658037499999807,
                  "durationTicks": 3600,
                  "midi": 60,
                  "name": "C4",
                  "ticks": 3494400,
                  "time": 113.160684,
                  "velocity": 0.6141732283464567
              },
              {
                  "duration": 0.1586788437500104,
                  "durationTicks": 4900,
                  "midi": 60,
                  "name": "C4",
                  "ticks": 3499200,
                  "time": 113.3161245,
                  "velocity": 0.47244094488188976
              },
              {
                  "duration": 0.15544049999999743,
                  "durationTicks": 4800,
                  "midi": 60,
                  "name": "C4",
                  "ticks": 3504000,
                  "time": 113.47156500000001,
                  "velocity": 0.6141732283464567
              },
              {
                  "duration": 0.15220215624998445,
                  "durationTicks": 4700,
                  "midi": 60,
                  "name": "C4",
                  "ticks": 3508800,
                  "time": 113.62700550000001,
                  "velocity": 0.6614173228346457
              },
              {
                  "duration": 0.15544049999999743,
                  "durationTicks": 4800,
                  "midi": 60,
                  "name": "C4",
                  "ticks": 3513600,
                  "time": 113.78244600000001,
                  "velocity": 0.5748031496062992
              },
              {
                  "duration": 0.15220215624999867,
                  "durationTicks": 4700,
                  "midi": 60,
                  "name": "C4",
                  "ticks": 3518400,
                  "time": 113.9378865,
                  "velocity": 0.47244094488188976
              },
              {
                  "duration": 0.15544050000001164,
                  "durationTicks": 4800,
                  "midi": 60,
                  "name": "C4",
                  "ticks": 3523200,
                  "time": 114.093327,
                  "velocity": 0.5590551181102362
              },
              {
                  "duration": 0.07772024999999871,
                  "durationTicks": 2400,
                  "midi": 60,
                  "name": "C4",
                  "ticks": 3528000,
                  "time": 114.24876750000001,
                  "velocity": 0.5354330708661418
              },
              {
                  "duration": 0.07772024999999871,
                  "durationTicks": 2400,
                  "midi": 60,
                  "name": "C4",
                  "ticks": 3530400,
                  "time": 114.32648775000001,
                  "velocity": 0.47244094488188976
              },
              {
                  "duration": 0.15544049999999743,
                  "durationTicks": 4800,
                  "midi": 60,
                  "name": "C4",
                  "ticks": 3532800,
                  "time": 114.40420800000001,
                  "velocity": 0.47244094488188976
              },
              {
                  "duration": 0.15544049999999743,
                  "durationTicks": 4800,
                  "midi": 60,
                  "name": "C4",
                  "ticks": 3537600,
                  "time": 114.55964850000001,
                  "velocity": 0.47244094488188976
              },
              {
                  "duration": 0.1586788437500104,
                  "durationTicks": 4900,
                  "midi": 60,
                  "name": "C4",
                  "ticks": 3542400,
                  "time": 114.715089,
                  "velocity": 0.5354330708661418
              },
              {
                  "duration": 0.15220215624999867,
                  "durationTicks": 4700,
                  "midi": 60,
                  "name": "C4",
                  "ticks": 3547200,
                  "time": 114.8705295,
                  "velocity": 0.47244094488188976
              },
              {
                  "duration": 0.15544050000001164,
                  "durationTicks": 4800,
                  "midi": 60,
                  "name": "C4",
                  "ticks": 3552000,
                  "time": 115.02597,
                  "velocity": 0.6220472440944882
              },
              {
                  "duration": 0.15220215624998445,
                  "durationTicks": 4700,
                  "midi": 60,
                  "name": "C4",
                  "ticks": 3556800,
                  "time": 115.18141050000001,
                  "velocity": 0.47244094488188976
              },
              {
                  "duration": 0.15544049999999743,
                  "durationTicks": 4800,
                  "midi": 60,
                  "name": "C4",
                  "ticks": 3561600,
                  "time": 115.33685100000001,
                  "velocity": 0.6692913385826772
              },
              {
                  "duration": 0.15544049999999743,
                  "durationTicks": 4800,
                  "midi": 60,
                  "name": "C4",
                  "ticks": 3566400,
                  "time": 115.49229150000001,
                  "velocity": 0.47244094488188976
              },
              {
                  "duration": 0.11658037499999807,
                  "durationTicks": 3600,
                  "midi": 60,
                  "name": "C4",
                  "ticks": 3571200,
                  "time": 115.647732,
                  "velocity": 0.6141732283464567
              },
              {
                  "duration": 0.1586788437500104,
                  "durationTicks": 4900,
                  "midi": 60,
                  "name": "C4",
                  "ticks": 3576000,
                  "time": 115.8031725,
                  "velocity": 0.47244094488188976
              },
              {
                  "duration": 0.15544049999999743,
                  "durationTicks": 4800,
                  "midi": 60,
                  "name": "C4",
                  "ticks": 3580800,
                  "time": 115.95861300000001,
                  "velocity": 0.6141732283464567
              },
              {
                  "duration": 0.15220215624998445,
                  "durationTicks": 4700,
                  "midi": 60,
                  "name": "C4",
                  "ticks": 3585600,
                  "time": 116.11405350000001,
                  "velocity": 0.6614173228346457
              },
              {
                  "duration": 0.15544049999999743,
                  "durationTicks": 4800,
                  "midi": 60,
                  "name": "C4",
                  "ticks": 3590400,
                  "time": 116.26949400000001,
                  "velocity": 0.5748031496062992
              },
              {
                  "duration": 0.15220215624999867,
                  "durationTicks": 4700,
                  "midi": 60,
                  "name": "C4",
                  "ticks": 3595200,
                  "time": 116.4249345,
                  "velocity": 0.47244094488188976
              },
              {
                  "duration": 0.15544049999999743,
                  "durationTicks": 4800,
                  "midi": 60,
                  "name": "C4",
                  "ticks": 3600000,
                  "time": 116.580375,
                  "velocity": 0.5590551181102362
              },
              {
                  "duration": 0.07772025000001292,
                  "durationTicks": 2400,
                  "midi": 60,
                  "name": "C4",
                  "ticks": 3604800,
                  "time": 116.7358155,
                  "velocity": 0.5354330708661418
              },
              {
                  "duration": 0.07772024999999871,
                  "durationTicks": 2400,
                  "midi": 60,
                  "name": "C4",
                  "ticks": 3607200,
                  "time": 116.81353575000001,
                  "velocity": 0.47244094488188976
              },
              {
                  "duration": 0.15544049999999743,
                  "durationTicks": 4800,
                  "midi": 60,
                  "name": "C4",
                  "ticks": 3609600,
                  "time": 116.89125600000001,
                  "velocity": 0.47244094488188976
              },
              {
                  "duration": 0.15544049999999743,
                  "durationTicks": 4800,
                  "midi": 60,
                  "name": "C4",
                  "ticks": 3614400,
                  "time": 117.04669650000001,
                  "velocity": 0.47244094488188976
              },
              {
                  "duration": 0.1586788437500104,
                  "durationTicks": 4900,
                  "midi": 60,
                  "name": "C4",
                  "ticks": 3619200,
                  "time": 117.20213700000001,
                  "velocity": 0.5354330708661418
              },
              {
                  "duration": 0.15220215624999867,
                  "durationTicks": 4700,
                  "midi": 60,
                  "name": "C4",
                  "ticks": 3624000,
                  "time": 117.3575775,
                  "velocity": 0.47244094488188976
              },
              {
                  "duration": 0.15544050000001164,
                  "durationTicks": 4800,
                  "midi": 60,
                  "name": "C4",
                  "ticks": 3628800,
                  "time": 117.513018,
                  "velocity": 0.6220472440944882
              },
              {
                  "duration": 0.15220215624998445,
                  "durationTicks": 4700,
                  "midi": 60,
                  "name": "C4",
                  "ticks": 3633600,
                  "time": 117.66845850000001,
                  "velocity": 0.47244094488188976
              },
              {
                  "duration": 0.15544049999999743,
                  "durationTicks": 4800,
                  "midi": 60,
                  "name": "C4",
                  "ticks": 3638400,
                  "time": 117.82389900000001,
                  "velocity": 0.6692913385826772
              },
              {
                  "duration": 0.15544049999999743,
                  "durationTicks": 4800,
                  "midi": 60,
                  "name": "C4",
                  "ticks": 3643200,
                  "time": 117.97933950000001,
                  "velocity": 0.47244094488188976
              },
              {
                  "duration": 0.11658037499999807,
                  "durationTicks": 3600,
                  "midi": 60,
                  "name": "C4",
                  "ticks": 3648000,
                  "time": 118.13478,
                  "velocity": 0.6141732283464567
              },
              {
                  "duration": 0.1586788437500104,
                  "durationTicks": 4900,
                  "midi": 60,
                  "name": "C4",
                  "ticks": 3652800,
                  "time": 118.2902205,
                  "velocity": 0.47244094488188976
              },
              {
                  "duration": 0.15544050000001164,
                  "durationTicks": 4800,
                  "midi": 60,
                  "name": "C4",
                  "ticks": 3657600,
                  "time": 118.445661,
                  "velocity": 0.6141732283464567
              },
              {
                  "duration": 0.15220215624998445,
                  "durationTicks": 4700,
                  "midi": 60,
                  "name": "C4",
                  "ticks": 3662400,
                  "time": 118.60110150000001,
                  "velocity": 0.6614173228346457
              },
              {
                  "duration": 0.15544049999999743,
                  "durationTicks": 4800,
                  "midi": 60,
                  "name": "C4",
                  "ticks": 3667200,
                  "time": 118.75654200000001,
                  "velocity": 0.5748031496062992
              },
              {
                  "duration": 0.15220215624999867,
                  "durationTicks": 4700,
                  "midi": 60,
                  "name": "C4",
                  "ticks": 3672000,
                  "time": 118.91198250000001,
                  "velocity": 0.47244094488188976
              },
              {
                  "duration": 0.15544049999999743,
                  "durationTicks": 4800,
                  "midi": 60,
                  "name": "C4",
                  "ticks": 3676800,
                  "time": 119.067423,
                  "velocity": 0.5590551181102362
              },
              {
                  "duration": 0.07772024999999871,
                  "durationTicks": 2400,
                  "midi": 60,
                  "name": "C4",
                  "ticks": 3681600,
                  "time": 119.2228635,
                  "velocity": 0.5354330708661418
              },
              {
                  "duration": 0.07772025000001292,
                  "durationTicks": 2400,
                  "midi": 60,
                  "name": "C4",
                  "ticks": 3684000,
                  "time": 119.30058375,
                  "velocity": 0.47244094488188976
              }
          ],
          "endOfTrackTicks": 3686400
      },
      {
          "channel": 3,
          "controlChanges": {},
          "pitchBends": [],
          "instrument": {
              "family": "bass",
              "number": 3,
              "name": "bass"
          },
          "name": "Bass",
          "notes": [
              {
                  "duration": 0.3497411250000001,
                  "durationTicks": 10800,
                  "midi": 36,
                  "name": "C2",
                  "ticks": 4800,
                  "time": 0.1554405,
                  "velocity": 0.9133858267716536
              },
              {
                  "duration": 0.27202087500000005,
                  "durationTicks": 8400,
                  "midi": 36,
                  "name": "C2",
                  "ticks": 19200,
                  "time": 0.621762,
                  "velocity": 0.8582677165354331
              },
              {
                  "duration": 0.27202087499999994,
                  "durationTicks": 8400,
                  "midi": 36,
                  "name": "C2",
                  "ticks": 28800,
                  "time": 0.9326430000000001,
                  "velocity": 0.8582677165354331
              },
              {
                  "duration": 0.38860125,
                  "durationTicks": 12000,
                  "midi": 29,
                  "name": "F1",
                  "ticks": 38400,
                  "time": 1.243524,
                  "velocity": 0.8346456692913385
              },
              {
                  "duration": 0.3108810000000002,
                  "durationTicks": 9600,
                  "midi": 29,
                  "name": "F1",
                  "ticks": 52800,
                  "time": 1.7098455000000001,
                  "velocity": 0.84251968503937
              },
              {
                  "duration": 0.31088099999999974,
                  "durationTicks": 9600,
                  "midi": 29,
                  "name": "F1",
                  "ticks": 62400,
                  "time": 2.0207265000000003,
                  "velocity": 0.84251968503937
              },
              {
                  "duration": 0.6217619999999999,
                  "durationTicks": 19200,
                  "midi": 34,
                  "name": "A#1",
                  "ticks": 72000,
                  "time": 2.3316075,
                  "velocity": 0.8346456692913385
              },
              {
                  "duration": 0.4663215000000003,
                  "durationTicks": 14400,
                  "midi": 34,
                  "name": "A#1",
                  "ticks": 91200,
                  "time": 2.9533695,
                  "velocity": 0.84251968503937
              },
              {
                  "duration": 0.3108810000000002,
                  "durationTicks": 9600,
                  "midi": 34,
                  "name": "A#1",
                  "ticks": 105600,
                  "time": 3.4196910000000003,
                  "velocity": 0.84251968503937
              },
              {
                  "duration": 0.4663214999999994,
                  "durationTicks": 14400,
                  "midi": 31,
                  "name": "G1",
                  "ticks": 115200,
                  "time": 3.7305720000000004,
                  "velocity": 0.8346456692913385
              },
              {
                  "duration": 0.3108810000000002,
                  "durationTicks": 9600,
                  "midi": 31,
                  "name": "G1",
                  "ticks": 129600,
                  "time": 4.1968935,
                  "velocity": 0.84251968503937
              },
              {
                  "duration": 0.3108810000000002,
                  "durationTicks": 9600,
                  "midi": 31,
                  "name": "G1",
                  "ticks": 139200,
                  "time": 4.5077745,
                  "velocity": 0.84251968503937
              },
              {
                  "duration": 0.6217620000000004,
                  "durationTicks": 19200,
                  "midi": 36,
                  "name": "C2",
                  "ticks": 148800,
                  "time": 4.8186555,
                  "velocity": 0.8346456692913385
              },
              {
                  "duration": 0.4663214999999994,
                  "durationTicks": 14400,
                  "midi": 36,
                  "name": "C2",
                  "ticks": 168000,
                  "time": 5.440417500000001,
                  "velocity": 0.84251968503937
              },
              {
                  "duration": 0.3108810000000002,
                  "durationTicks": 9600,
                  "midi": 36,
                  "name": "C2",
                  "ticks": 182400,
                  "time": 5.906739,
                  "velocity": 0.84251968503937
              },
              {
                  "duration": 0.4663215000000003,
                  "durationTicks": 14400,
                  "midi": 38,
                  "name": "D2",
                  "ticks": 192000,
                  "time": 6.21762,
                  "velocity": 0.8346456692913385
              },
              {
                  "duration": 0.3108810000000002,
                  "durationTicks": 9600,
                  "midi": 38,
                  "name": "D2",
                  "ticks": 206400,
                  "time": 6.6839415,
                  "velocity": 0.84251968503937
              },
              {
                  "duration": 0.3108810000000002,
                  "durationTicks": 9600,
                  "midi": 38,
                  "name": "D2",
                  "ticks": 216000,
                  "time": 6.994822500000001,
                  "velocity": 0.84251968503937
              },
              {
                  "duration": 0.6217619999999995,
                  "durationTicks": 19200,
                  "midi": 34,
                  "name": "A#1",
                  "ticks": 225600,
                  "time": 7.305703500000001,
                  "velocity": 0.8346456692913385
              },
              {
                  "duration": 0.4663214999999994,
                  "durationTicks": 14400,
                  "midi": 34,
                  "name": "A#1",
                  "ticks": 244800,
                  "time": 7.9274655,
                  "velocity": 0.84251968503937
              },
              {
                  "duration": 0.3108810000000002,
                  "durationTicks": 9600,
                  "midi": 34,
                  "name": "A#1",
                  "ticks": 259200,
                  "time": 8.393787,
                  "velocity": 0.84251968503937
              },
              {
                  "duration": 0.5051816250000005,
                  "durationTicks": 15600,
                  "midi": 31,
                  "name": "G1",
                  "ticks": 268800,
                  "time": 8.704668,
                  "velocity": 0.8346456692913385
              },
              {
                  "duration": 0.4663214999999994,
                  "durationTicks": 14400,
                  "midi": 33,
                  "name": "A1",
                  "ticks": 283200,
                  "time": 9.170989500000001,
                  "velocity": 0.8503937007874016
              },
              {
                  "duration": 0.3886012500000007,
                  "durationTicks": 12000,
                  "midi": 34,
                  "name": "A#1",
                  "ticks": 297600,
                  "time": 9.637311,
                  "velocity": 0.8661417322834646
              },
              {
                  "duration": 0.3497411250000013,
                  "durationTicks": 10800,
                  "midi": 36,
                  "name": "C2",
                  "ticks": 312000,
                  "time": 10.1036325,
                  "velocity": 0.9133858267716536
              },
              {
                  "duration": 0.27202087499999905,
                  "durationTicks": 8400,
                  "midi": 36,
                  "name": "C2",
                  "ticks": 326400,
                  "time": 10.569954000000001,
                  "velocity": 0.8582677165354331
              },
              {
                  "duration": 0.27202087499999905,
                  "durationTicks": 8400,
                  "midi": 36,
                  "name": "C2",
                  "ticks": 336000,
                  "time": 10.880835000000001,
                  "velocity": 0.8582677165354331
              },
              {
                  "duration": 0.3886012499999989,
                  "durationTicks": 12000,
                  "midi": 29,
                  "name": "F1",
                  "ticks": 345600,
                  "time": 11.191716000000001,
                  "velocity": 0.8346456692913385
              },
              {
                  "duration": 0.3108810000000002,
                  "durationTicks": 9600,
                  "midi": 29,
                  "name": "F1",
                  "ticks": 360000,
                  "time": 11.6580375,
                  "velocity": 0.84251968503937
              },
              {
                  "duration": 0.3108810000000002,
                  "durationTicks": 9600,
                  "midi": 29,
                  "name": "F1",
                  "ticks": 369600,
                  "time": 11.968918500000001,
                  "velocity": 0.84251968503937
              },
              {
                  "duration": 0.6217620000000004,
                  "durationTicks": 19200,
                  "midi": 34,
                  "name": "A#1",
                  "ticks": 379200,
                  "time": 12.279799500000001,
                  "velocity": 0.8346456692913385
              },
              {
                  "duration": 0.4663214999999994,
                  "durationTicks": 14400,
                  "midi": 34,
                  "name": "A#1",
                  "ticks": 398400,
                  "time": 12.901561500000001,
                  "velocity": 0.84251968503937
              },
              {
                  "duration": 0.3108810000000002,
                  "durationTicks": 9600,
                  "midi": 34,
                  "name": "A#1",
                  "ticks": 412800,
                  "time": 13.367883,
                  "velocity": 0.84251968503937
              },
              {
                  "duration": 0.4663214999999994,
                  "durationTicks": 14400,
                  "midi": 31,
                  "name": "G1",
                  "ticks": 422400,
                  "time": 13.678764000000001,
                  "velocity": 0.8346456692913385
              },
              {
                  "duration": 0.3108810000000002,
                  "durationTicks": 9600,
                  "midi": 31,
                  "name": "G1",
                  "ticks": 436800,
                  "time": 14.1450855,
                  "velocity": 0.84251968503937
              },
              {
                  "duration": 0.3108810000000002,
                  "durationTicks": 9600,
                  "midi": 31,
                  "name": "G1",
                  "ticks": 446400,
                  "time": 14.4559665,
                  "velocity": 0.84251968503937
              },
              {
                  "duration": 0.6217620000000004,
                  "durationTicks": 19200,
                  "midi": 36,
                  "name": "C2",
                  "ticks": 456000,
                  "time": 14.7668475,
                  "velocity": 0.8346456692913385
              },
              {
                  "duration": 0.4663214999999994,
                  "durationTicks": 14400,
                  "midi": 36,
                  "name": "C2",
                  "ticks": 475200,
                  "time": 15.388609500000001,
                  "velocity": 0.84251968503937
              },
              {
                  "duration": 0.31088100000000196,
                  "durationTicks": 9600,
                  "midi": 36,
                  "name": "C2",
                  "ticks": 489600,
                  "time": 15.854931,
                  "velocity": 0.84251968503937
              },
              {
                  "duration": 0.4663214999999994,
                  "durationTicks": 14400,
                  "midi": 38,
                  "name": "D2",
                  "ticks": 499200,
                  "time": 16.165812000000003,
                  "velocity": 0.8346456692913385
              },
              {
                  "duration": 0.3108809999999984,
                  "durationTicks": 9600,
                  "midi": 38,
                  "name": "D2",
                  "ticks": 513600,
                  "time": 16.632133500000002,
                  "velocity": 0.84251968503937
              },
              {
                  "duration": 0.31088100000000196,
                  "durationTicks": 9600,
                  "midi": 38,
                  "name": "D2",
                  "ticks": 523200,
                  "time": 16.9430145,
                  "velocity": 0.84251968503937
              },
              {
                  "duration": 0.6217620000000004,
                  "durationTicks": 19200,
                  "midi": 34,
                  "name": "A#1",
                  "ticks": 532800,
                  "time": 17.253895500000002,
                  "velocity": 0.8346456692913385
              },
              {
                  "duration": 0.4663214999999994,
                  "durationTicks": 14400,
                  "midi": 34,
                  "name": "A#1",
                  "ticks": 552000,
                  "time": 17.875657500000003,
                  "velocity": 0.84251968503937
              },
              {
                  "duration": 0.3108809999999984,
                  "durationTicks": 9600,
                  "midi": 34,
                  "name": "A#1",
                  "ticks": 566400,
                  "time": 18.341979000000002,
                  "velocity": 0.84251968503937
              },
              {
                  "duration": 0.5051816250000023,
                  "durationTicks": 15600,
                  "midi": 31,
                  "name": "G1",
                  "ticks": 576000,
                  "time": 18.65286,
                  "velocity": 0.8346456692913385
              },
              {
                  "duration": 0.46632150000000294,
                  "durationTicks": 14400,
                  "midi": 33,
                  "name": "A1",
                  "ticks": 590400,
                  "time": 19.1191815,
                  "velocity": 0.8503937007874016
              },
              {
                  "duration": 0.3886012499999971,
                  "durationTicks": 12000,
                  "midi": 34,
                  "name": "A#1",
                  "ticks": 604800,
                  "time": 19.585503000000003,
                  "velocity": 0.8661417322834646
              },
              {
                  "duration": 0.34974112499999777,
                  "durationTicks": 10800,
                  "midi": 36,
                  "name": "C2",
                  "ticks": 619200,
                  "time": 20.051824500000002,
                  "velocity": 0.9133858267716536
              },
              {
                  "duration": 0.27202087499999905,
                  "durationTicks": 8400,
                  "midi": 36,
                  "name": "C2",
                  "ticks": 633600,
                  "time": 20.518146,
                  "velocity": 0.8582677165354331
              },
              {
                  "duration": 0.2720208750000026,
                  "durationTicks": 8400,
                  "midi": 36,
                  "name": "C2",
                  "ticks": 643200,
                  "time": 20.829027,
                  "velocity": 0.8582677165354331
              },
              {
                  "duration": 0.4663214999999994,
                  "durationTicks": 14400,
                  "midi": 29,
                  "name": "F1",
                  "ticks": 652800,
                  "time": 21.139908000000002,
                  "velocity": 0.9133858267716536
              },
              {
                  "duration": 0.3886012500000007,
                  "durationTicks": 12000,
                  "midi": 41,
                  "name": "F2",
                  "ticks": 662400,
                  "time": 21.450789,
                  "velocity": 0.7086614173228346
              },
              {
                  "duration": 0.31088100000000196,
                  "durationTicks": 9600,
                  "midi": 41,
                  "name": "F2",
                  "ticks": 676800,
                  "time": 21.9171105,
                  "velocity": 0.7322834645669292
              },
              {
                  "duration": 0.2331607499999997,
                  "durationTicks": 7200,
                  "midi": 41,
                  "name": "F2",
                  "ticks": 686400,
                  "time": 22.2279915,
                  "velocity": 0.7322834645669292
              },
              {
                  "duration": 0.15544050000000098,
                  "durationTicks": 4800,
                  "midi": 41,
                  "name": "F2",
                  "ticks": 696000,
                  "time": 22.5388725,
                  "velocity": 0.8346456692913385
              },
              {
                  "duration": 0.3497411250000013,
                  "durationTicks": 10800,
                  "midi": 41,
                  "name": "F2",
                  "ticks": 700800,
                  "time": 22.694313,
                  "velocity": 0.7480314960629921
              },
              {
                  "duration": 0.2331607499999997,
                  "durationTicks": 7200,
                  "midi": 41,
                  "name": "F2",
                  "ticks": 715200,
                  "time": 23.1606345,
                  "velocity": 0.7007874015748031
              },
              {
                  "duration": 0.15544049999999743,
                  "durationTicks": 4800,
                  "midi": 41,
                  "name": "F2",
                  "ticks": 724800,
                  "time": 23.471515500000002,
                  "velocity": 0.8740157480314961
              },
              {
                  "duration": 0.46632150000000294,
                  "durationTicks": 14400,
                  "midi": 29,
                  "name": "F1",
                  "ticks": 729600,
                  "time": 23.626956,
                  "velocity": 0.8661417322834646
              },
              {
                  "duration": 0.42746137500000003,
                  "durationTicks": 13200,
                  "midi": 41,
                  "name": "F2",
                  "ticks": 739200,
                  "time": 23.937837000000002,
                  "velocity": 0.7874015748031497
              },
              {
                  "duration": 0.19430062500000034,
                  "durationTicks": 6000,
                  "midi": 41,
                  "name": "F2",
                  "ticks": 753600,
                  "time": 24.4041585,
                  "velocity": 0.7401574803149606
              },
              {
                  "duration": 0.2331607499999997,
                  "durationTicks": 7200,
                  "midi": 41,
                  "name": "F2",
                  "ticks": 763200,
                  "time": 24.715039500000003,
                  "velocity": 0.6850393700787402
              },
              {
                  "duration": 0.15544050000000098,
                  "durationTicks": 4800,
                  "midi": 41,
                  "name": "F2",
                  "ticks": 772800,
                  "time": 25.0259205,
                  "velocity": 0.7244094488188977
              },
              {
                  "duration": 0.31088100000000196,
                  "durationTicks": 9600,
                  "midi": 41,
                  "name": "F2",
                  "ticks": 782400,
                  "time": 25.3368015,
                  "velocity": 0.8110236220472441
              },
              {
                  "duration": 0.15544050000000098,
                  "durationTicks": 4800,
                  "midi": 36,
                  "name": "C2",
                  "ticks": 801600,
                  "time": 25.9585635,
                  "velocity": 0.8110236220472441
              },
              {
                  "duration": 0.4663214999999994,
                  "durationTicks": 14400,
                  "midi": 29,
                  "name": "F1",
                  "ticks": 806400,
                  "time": 26.114004,
                  "velocity": 0.9133858267716536
              },
              {
                  "duration": 0.3886012499999971,
                  "durationTicks": 12000,
                  "midi": 41,
                  "name": "F2",
                  "ticks": 816000,
                  "time": 26.424885000000003,
                  "velocity": 0.8110236220472441
              },
              {
                  "duration": 0.3108809999999984,
                  "durationTicks": 9600,
                  "midi": 41,
                  "name": "F2",
                  "ticks": 830400,
                  "time": 26.891206500000003,
                  "velocity": 0.7322834645669292
              },
              {
                  "duration": 0.2331607499999997,
                  "durationTicks": 7200,
                  "midi": 41,
                  "name": "F2",
                  "ticks": 840000,
                  "time": 27.2020875,
                  "velocity": 0.7322834645669292
              },
              {
                  "duration": 0.15544049999999743,
                  "durationTicks": 4800,
                  "midi": 41,
                  "name": "F2",
                  "ticks": 849600,
                  "time": 27.512968500000003,
                  "velocity": 0.8346456692913385
              },
              {
                  "duration": 0.3497411250000013,
                  "durationTicks": 10800,
                  "midi": 41,
                  "name": "F2",
                  "ticks": 854400,
                  "time": 27.668409,
                  "velocity": 0.7480314960629921
              },
              {
                  "duration": 0.2331607499999997,
                  "durationTicks": 7200,
                  "midi": 41,
                  "name": "F2",
                  "ticks": 868800,
                  "time": 28.134730500000003,
                  "velocity": 0.7007874015748031
              },
              {
                  "duration": 0.15544050000000098,
                  "durationTicks": 4800,
                  "midi": 41,
                  "name": "F2",
                  "ticks": 878400,
                  "time": 28.445611500000002,
                  "velocity": 0.7874015748031497
              },
              {
                  "duration": 0.4663214999999994,
                  "durationTicks": 14400,
                  "midi": 29,
                  "name": "F1",
                  "ticks": 883200,
                  "time": 28.601052000000003,
                  "velocity": 0.8661417322834646
              },
              {
                  "duration": 0.42746137500000003,
                  "durationTicks": 13200,
                  "midi": 41,
                  "name": "F2",
                  "ticks": 892800,
                  "time": 28.911933,
                  "velocity": 0.7874015748031497
              },
              {
                  "duration": 0.19430062500000034,
                  "durationTicks": 6000,
                  "midi": 41,
                  "name": "F2",
                  "ticks": 907200,
                  "time": 29.3782545,
                  "velocity": 0.7401574803149606
              },
              {
                  "duration": 0.2331607499999997,
                  "durationTicks": 7200,
                  "midi": 41,
                  "name": "F2",
                  "ticks": 916800,
                  "time": 29.689135500000003,
                  "velocity": 0.6850393700787402
              },
              {
                  "duration": 0.15544050000000098,
                  "durationTicks": 4800,
                  "midi": 41,
                  "name": "F2",
                  "ticks": 926400,
                  "time": 30.0000165,
                  "velocity": 0.6220472440944882
              },
              {
                  "duration": 0.3108809999999984,
                  "durationTicks": 9600,
                  "midi": 41,
                  "name": "F2",
                  "ticks": 936000,
                  "time": 30.310897500000003,
                  "velocity": 0.8110236220472441
              },
              {
                  "duration": 0.15544049999999743,
                  "durationTicks": 4800,
                  "midi": 36,
                  "name": "C2",
                  "ticks": 955200,
                  "time": 30.932659500000003,
                  "velocity": 0.8110236220472441
              },
              {
                  "duration": 0.6217620000000004,
                  "durationTicks": 19200,
                  "midi": 29,
                  "name": "F1",
                  "ticks": 960000,
                  "time": 31.0881,
                  "velocity": 0.9212598425196851
              },
              {
                  "duration": 0.3108809999999984,
                  "durationTicks": 9600,
                  "midi": 29,
                  "name": "F1",
                  "ticks": 984000,
                  "time": 31.865302500000002,
                  "velocity": 0.9291338582677166
              },
              {
                  "duration": 0.23316075000000325,
                  "durationTicks": 7200,
                  "midi": 29,
                  "name": "F1",
                  "ticks": 993600,
                  "time": 32.1761835,
                  "velocity": 0.9212598425196851
              },
              {
                  "duration": 0.31088100000000196,
                  "durationTicks": 9600,
                  "midi": 29,
                  "name": "F1",
                  "ticks": 1003200,
                  "time": 32.4870645,
                  "velocity": 0.9212598425196851
              },
              {
                  "duration": 0.2720208749999955,
                  "durationTicks": 8400,
                  "midi": 29,
                  "name": "F1",
                  "ticks": 1012800,
                  "time": 32.797945500000004,
                  "velocity": 0.889763779527559
              },
              {
                  "duration": 0.4663214999999994,
                  "durationTicks": 14400,
                  "midi": 29,
                  "name": "F1",
                  "ticks": 1022400,
                  "time": 33.1088265,
                  "velocity": 0.8976377952755905
              },
              {
                  "duration": 0.6217620000000039,
                  "durationTicks": 19200,
                  "midi": 26,
                  "name": "D1",
                  "ticks": 1036800,
                  "time": 33.575148,
                  "velocity": 0.9212598425196851
              },
              {
                  "duration": 0.31088100000000196,
                  "durationTicks": 9600,
                  "midi": 26,
                  "name": "D1",
                  "ticks": 1060800,
                  "time": 34.3523505,
                  "velocity": 0.9291338582677166
              },
              {
                  "duration": 0.23316075000000325,
                  "durationTicks": 7200,
                  "midi": 26,
                  "name": "D1",
                  "ticks": 1070400,
                  "time": 34.6632315,
                  "velocity": 0.9212598425196851
              },
              {
                  "duration": 0.31088099999999486,
                  "durationTicks": 9600,
                  "midi": 26,
                  "name": "D1",
                  "ticks": 1080000,
                  "time": 34.974112500000004,
                  "velocity": 0.9212598425196851
              },
              {
                  "duration": 0.2720208750000026,
                  "durationTicks": 8400,
                  "midi": 26,
                  "name": "D1",
                  "ticks": 1089600,
                  "time": 35.2849935,
                  "velocity": 0.889763779527559
              },
              {
                  "duration": 0.4663214999999994,
                  "durationTicks": 14400,
                  "midi": 26,
                  "name": "D1",
                  "ticks": 1099200,
                  "time": 35.5958745,
                  "velocity": 0.8976377952755905
              },
              {
                  "duration": 0.6217620000000039,
                  "durationTicks": 19200,
                  "midi": 34,
                  "name": "A#1",
                  "ticks": 1113600,
                  "time": 36.062196,
                  "velocity": 0.9212598425196851
              },
              {
                  "duration": 0.31088100000000196,
                  "durationTicks": 9600,
                  "midi": 34,
                  "name": "A#1",
                  "ticks": 1137600,
                  "time": 36.8393985,
                  "velocity": 0.9291338582677166
              },
              {
                  "duration": 0.23316074999999614,
                  "durationTicks": 7200,
                  "midi": 34,
                  "name": "A#1",
                  "ticks": 1147200,
                  "time": 37.1502795,
                  "velocity": 0.9212598425196851
              },
              {
                  "duration": 0.31088099999999486,
                  "durationTicks": 9600,
                  "midi": 34,
                  "name": "A#1",
                  "ticks": 1156800,
                  "time": 37.461160500000005,
                  "velocity": 0.9212598425196851
              },
              {
                  "duration": 0.2720208750000026,
                  "durationTicks": 8400,
                  "midi": 34,
                  "name": "A#1",
                  "ticks": 1166400,
                  "time": 37.7720415,
                  "velocity": 0.889763779527559
              },
              {
                  "duration": 0.4663214999999994,
                  "durationTicks": 14400,
                  "midi": 34,
                  "name": "A#1",
                  "ticks": 1176000,
                  "time": 38.0829225,
                  "velocity": 0.8976377952755905
              },
              {
                  "duration": 0.4663214999999994,
                  "durationTicks": 14400,
                  "midi": 31,
                  "name": "G1",
                  "ticks": 1190400,
                  "time": 38.549244,
                  "velocity": 0.8976377952755905
              },
              {
                  "duration": 0.4663214999999994,
                  "durationTicks": 14400,
                  "midi": 33,
                  "name": "A1",
                  "ticks": 1204800,
                  "time": 39.0155655,
                  "velocity": 0.8976377952755905
              },
              {
                  "duration": 0.4663214999999994,
                  "durationTicks": 14400,
                  "midi": 34,
                  "name": "A#1",
                  "ticks": 1219200,
                  "time": 39.481887,
                  "velocity": 0.8976377952755905
              },
              {
                  "duration": 0.31088099999999486,
                  "durationTicks": 9600,
                  "midi": 36,
                  "name": "C2",
                  "ticks": 1238400,
                  "time": 40.103649000000004,
                  "velocity": 0.8976377952755905
              },
              {
                  "duration": 0.31088100000000196,
                  "durationTicks": 9600,
                  "midi": 36,
                  "name": "C2",
                  "ticks": 1252800,
                  "time": 40.569970500000004,
                  "velocity": 0.8976377952755905
              },
              {
                  "duration": 0.15544049999999743,
                  "durationTicks": 4800,
                  "midi": 36,
                  "name": "C2",
                  "ticks": 1262400,
                  "time": 40.880851500000006,
                  "velocity": 0.8976377952755905
              },
              {
                  "duration": 0.6217619999999968,
                  "durationTicks": 19200,
                  "midi": 29,
                  "name": "F1",
                  "ticks": 1267200,
                  "time": 41.036292,
                  "velocity": 0.9212598425196851
              },
              {
                  "duration": 0.31088099999999486,
                  "durationTicks": 9600,
                  "midi": 29,
                  "name": "F1",
                  "ticks": 1291200,
                  "time": 41.813494500000004,
                  "velocity": 0.9291338582677166
              },
              {
                  "duration": 0.23316075000000325,
                  "durationTicks": 7200,
                  "midi": 29,
                  "name": "F1",
                  "ticks": 1300800,
                  "time": 42.1243755,
                  "velocity": 0.9212598425196851
              },
              {
                  "duration": 0.31088100000000196,
                  "durationTicks": 9600,
                  "midi": 29,
                  "name": "F1",
                  "ticks": 1310400,
                  "time": 42.4352565,
                  "velocity": 0.9212598425196851
              },
              {
                  "duration": 0.2720208750000026,
                  "durationTicks": 8400,
                  "midi": 29,
                  "name": "F1",
                  "ticks": 1320000,
                  "time": 42.7461375,
                  "velocity": 0.889763779527559
              },
              {
                  "duration": 0.23316074999999614,
                  "durationTicks": 7200,
                  "midi": 36,
                  "name": "C2",
                  "ticks": 1329600,
                  "time": 43.057018500000005,
                  "velocity": 0.84251968503937
              },
              {
                  "duration": 0.23316075000000325,
                  "durationTicks": 7200,
                  "midi": 38,
                  "name": "D2",
                  "ticks": 1334400,
                  "time": 43.212459,
                  "velocity": 0.7716535433070866
              },
              {
                  "duration": 0.15544050000000453,
                  "durationTicks": 4800,
                  "midi": 41,
                  "name": "F2",
                  "ticks": 1339200,
                  "time": 43.3678995,
                  "velocity": 0.8818897637795275
              },
              {
                  "duration": 0.6217619999999968,
                  "durationTicks": 19200,
                  "midi": 26,
                  "name": "D1",
                  "ticks": 1344000,
                  "time": 43.523340000000005,
                  "velocity": 0.9212598425196851
              },
              {
                  "duration": 0.31088099999999486,
                  "durationTicks": 9600,
                  "midi": 26,
                  "name": "D1",
                  "ticks": 1368000,
                  "time": 44.300542500000006,
                  "velocity": 0.9291338582677166
              },
              {
                  "duration": 0.23316075000000325,
                  "durationTicks": 7200,
                  "midi": 26,
                  "name": "D1",
                  "ticks": 1377600,
                  "time": 44.6114235,
                  "velocity": 0.9212598425196851
              },
              {
                  "duration": 0.31088100000000196,
                  "durationTicks": 9600,
                  "midi": 26,
                  "name": "D1",
                  "ticks": 1387200,
                  "time": 44.9223045,
                  "velocity": 0.9212598425196851
              },
              {
                  "duration": 0.2720208749999955,
                  "durationTicks": 8400,
                  "midi": 26,
                  "name": "D1",
                  "ticks": 1396800,
                  "time": 45.233185500000005,
                  "velocity": 0.889763779527559
              },
              {
                  "duration": 0.4663215000000065,
                  "durationTicks": 14400,
                  "midi": 26,
                  "name": "D1",
                  "ticks": 1406400,
                  "time": 45.5440665,
                  "velocity": 0.8976377952755905
              },
              {
                  "duration": 0.6217619999999968,
                  "durationTicks": 19200,
                  "midi": 34,
                  "name": "A#1",
                  "ticks": 1420800,
                  "time": 46.010388000000006,
                  "velocity": 0.9212598425196851
              },
              {
                  "duration": 0.31088100000000196,
                  "durationTicks": 9600,
                  "midi": 34,
                  "name": "A#1",
                  "ticks": 1444800,
                  "time": 46.7875905,
                  "velocity": 0.9291338582677166
              },
              {
                  "duration": 0.23316075000000325,
                  "durationTicks": 7200,
                  "midi": 34,
                  "name": "A#1",
                  "ticks": 1454400,
                  "time": 47.0984715,
                  "velocity": 0.9212598425196851
              },
              {
                  "duration": 0.31088100000000196,
                  "durationTicks": 9600,
                  "midi": 34,
                  "name": "A#1",
                  "ticks": 1464000,
                  "time": 47.409352500000004,
                  "velocity": 0.9212598425196851
              },
              {
                  "duration": 0.2720208749999955,
                  "durationTicks": 8400,
                  "midi": 34,
                  "name": "A#1",
                  "ticks": 1473600,
                  "time": 47.720233500000006,
                  "velocity": 0.889763779527559
              },
              {
                  "duration": 0.4663214999999994,
                  "durationTicks": 14400,
                  "midi": 34,
                  "name": "A#1",
                  "ticks": 1483200,
                  "time": 48.0311145,
                  "velocity": 0.8976377952755905
              },
              {
                  "duration": 0.4663214999999994,
                  "durationTicks": 14400,
                  "midi": 31,
                  "name": "G1",
                  "ticks": 1497600,
                  "time": 48.497436,
                  "velocity": 0.8976377952755905
              },
              {
                  "duration": 0.4663215000000065,
                  "durationTicks": 14400,
                  "midi": 33,
                  "name": "A1",
                  "ticks": 1512000,
                  "time": 48.9637575,
                  "velocity": 0.8976377952755905
              },
              {
                  "duration": 0.4663214999999994,
                  "durationTicks": 14400,
                  "midi": 34,
                  "name": "A#1",
                  "ticks": 1526400,
                  "time": 49.430079000000006,
                  "velocity": 0.8976377952755905
              },
              {
                  "duration": 0.31088100000000196,
                  "durationTicks": 9600,
                  "midi": 36,
                  "name": "C2",
                  "ticks": 1545600,
                  "time": 50.051841,
                  "velocity": 0.8976377952755905
              },
              {
                  "duration": 0.31088100000000196,
                  "durationTicks": 9600,
                  "midi": 36,
                  "name": "C2",
                  "ticks": 1560000,
                  "time": 50.5181625,
                  "velocity": 0.8976377952755905
              },
              {
                  "duration": 0.15544049999999743,
                  "durationTicks": 4800,
                  "midi": 36,
                  "name": "C2",
                  "ticks": 1569600,
                  "time": 50.829043500000004,
                  "velocity": 0.8976377952755905
              },
              {
                  "duration": 0.4663214999999994,
                  "durationTicks": 14400,
                  "midi": 29,
                  "name": "F1",
                  "ticks": 1574400,
                  "time": 50.984484,
                  "velocity": 0.8661417322834646
              },
              {
                  "duration": 0.15544049999999743,
                  "durationTicks": 4800,
                  "midi": 41,
                  "name": "F2",
                  "ticks": 1579200,
                  "time": 51.139924500000006,
                  "velocity": 0.4015748031496063
              },
              {
                  "duration": 0.31088099999999486,
                  "durationTicks": 9600,
                  "midi": 53,
                  "name": "F3",
                  "ticks": 1579200,
                  "time": 51.139924500000006,
                  "velocity": 0.6929133858267716
              },
              {
                  "duration": 0.2720208750000026,
                  "durationTicks": 8400,
                  "midi": 29,
                  "name": "F1",
                  "ticks": 1598400,
                  "time": 51.7616865,
                  "velocity": 0.9291338582677166
              },
              {
                  "duration": 0.23316074999999614,
                  "durationTicks": 7200,
                  "midi": 34,
                  "name": "A#1",
                  "ticks": 1608000,
                  "time": 52.072567500000005,
                  "velocity": 0.8740157480314961
              },
              {
                  "duration": 0.4663214999999994,
                  "durationTicks": 14400,
                  "midi": 31,
                  "name": "G1",
                  "ticks": 1651200,
                  "time": 53.471532,
                  "velocity": 0.84251968503937
              },
              {
                  "duration": 0.2720208749999955,
                  "durationTicks": 8400,
                  "midi": 31,
                  "name": "G1",
                  "ticks": 1675200,
                  "time": 54.248734500000005,
                  "velocity": 0.9212598425196851
              },
              {
                  "duration": 0.19430062499999678,
                  "durationTicks": 6000,
                  "midi": 24,
                  "name": "C1",
                  "ticks": 1684800,
                  "time": 54.55961550000001,
                  "velocity": 0.9291338582677166
              },
              {
                  "duration": 0.42746137500000003,
                  "durationTicks": 13200,
                  "midi": 48,
                  "name": "C3",
                  "ticks": 1684800,
                  "time": 54.55961550000001,
                  "velocity": 0.4881889763779528
              },
              {
                  "duration": 0.42746137500000003,
                  "durationTicks": 13200,
                  "midi": 24,
                  "name": "C1",
                  "ticks": 1692000,
                  "time": 54.79277625,
                  "velocity": 0.7637795275590551
              },
              {
                  "duration": 0.5051816249999987,
                  "durationTicks": 15600,
                  "midi": 26,
                  "name": "D1",
                  "ticks": 1728000,
                  "time": 55.958580000000005,
                  "velocity": 0.84251968503937
              },
              {
                  "duration": 0.2720208749999955,
                  "durationTicks": 8400,
                  "midi": 26,
                  "name": "D1",
                  "ticks": 1752000,
                  "time": 56.735782500000006,
                  "velocity": 0.9133858267716536
              },
              {
                  "duration": 0.23316075000000325,
                  "durationTicks": 7200,
                  "midi": 34,
                  "name": "A#1",
                  "ticks": 1761600,
                  "time": 57.0466635,
                  "velocity": 0.8267716535433071
              },
              {
                  "duration": 0.4663214999999994,
                  "durationTicks": 14400,
                  "midi": 53,
                  "name": "F3",
                  "ticks": 1766400,
                  "time": 57.202104000000006,
                  "velocity": 0.4645669291338583
              },
              {
                  "duration": 0.4663214999999994,
                  "durationTicks": 14400,
                  "midi": 31,
                  "name": "G1",
                  "ticks": 1804800,
                  "time": 58.445628000000006,
                  "velocity": 0.889763779527559
              },
              {
                  "duration": 0.4663214999999994,
                  "durationTicks": 14400,
                  "midi": 33,
                  "name": "A1",
                  "ticks": 1819200,
                  "time": 58.911949500000006,
                  "velocity": 0.9212598425196851
              },
              {
                  "duration": 0.3886012500000007,
                  "durationTicks": 12000,
                  "midi": 34,
                  "name": "A#1",
                  "ticks": 1833600,
                  "time": 59.378271000000005,
                  "velocity": 0.8976377952755905
              },
              {
                  "duration": 0.3886012500000007,
                  "durationTicks": 12000,
                  "midi": 53,
                  "name": "F3",
                  "ticks": 1881600,
                  "time": 60.932676,
                  "velocity": 0.8503937007874016
              },
              {
                  "duration": 0.4663215000000065,
                  "durationTicks": 14400,
                  "midi": 53,
                  "name": "F3",
                  "ticks": 1896000,
                  "time": 61.3989975,
                  "velocity": 0.8267716535433071
              },
              {
                  "duration": 0.31088099999999486,
                  "durationTicks": 9600,
                  "midi": 53,
                  "name": "F3",
                  "ticks": 1910400,
                  "time": 61.86531900000001,
                  "velocity": 0.8661417322834646
              },
              {
                  "duration": 0.4663214999999994,
                  "durationTicks": 14400,
                  "midi": 46,
                  "name": "A#2",
                  "ticks": 1920000,
                  "time": 62.1762,
                  "velocity": 0.8031496062992126
              },
              {
                  "duration": 0.2720208750000026,
                  "durationTicks": 8400,
                  "midi": 46,
                  "name": "A#2",
                  "ticks": 1934400,
                  "time": 62.6425215,
                  "velocity": 0.7086614173228346
              },
              {
                  "duration": 0.31088100000000196,
                  "durationTicks": 9600,
                  "midi": 46,
                  "name": "A#2",
                  "ticks": 1948800,
                  "time": 63.108843,
                  "velocity": 0.6299212598425197
              },
              {
                  "duration": 0.3497411250000013,
                  "durationTicks": 10800,
                  "midi": 43,
                  "name": "G2",
                  "ticks": 1958400,
                  "time": 63.419724,
                  "velocity": 0.7086614173228346
              },
              {
                  "duration": 0.4663214999999994,
                  "durationTicks": 14400,
                  "midi": 43,
                  "name": "G2",
                  "ticks": 1972800,
                  "time": 63.8860455,
                  "velocity": 0.6692913385826772
              },
              {
                  "duration": 0.3886012500000078,
                  "durationTicks": 12000,
                  "midi": 43,
                  "name": "G2",
                  "ticks": 1987200,
                  "time": 64.352367,
                  "velocity": 0.7480314960629921
              },
              {
                  "duration": 0.4663214999999923,
                  "durationTicks": 14400,
                  "midi": 48,
                  "name": "C3",
                  "ticks": 1996800,
                  "time": 64.66324800000001,
                  "velocity": 0.7165354330708661
              },
              {
                  "duration": 0.4663215000000065,
                  "durationTicks": 14400,
                  "midi": 48,
                  "name": "C3",
                  "ticks": 2011200,
                  "time": 65.1295695,
                  "velocity": 0.6850393700787402
              },
              {
                  "duration": 0.23316074999999614,
                  "durationTicks": 7200,
                  "midi": 50,
                  "name": "D3",
                  "ticks": 2025600,
                  "time": 65.59589100000001,
                  "velocity": 0.8582677165354331
              },
              {
                  "duration": 0.19430062499999678,
                  "durationTicks": 6000,
                  "midi": 52,
                  "name": "E3",
                  "ticks": 2030400,
                  "time": 65.7513315,
                  "velocity": 0.8503937007874016
              },
              {
                  "duration": 0.3497411249999942,
                  "durationTicks": 10800,
                  "midi": 53,
                  "name": "F3",
                  "ticks": 2035200,
                  "time": 65.906772,
                  "velocity": 0.7322834645669292
              },
              {
                  "duration": 0.2720208749999955,
                  "durationTicks": 8400,
                  "midi": 53,
                  "name": "F3",
                  "ticks": 2049600,
                  "time": 66.37309350000001,
                  "velocity": 0.7480314960629921
              },
              {
                  "duration": 0.3497411250000084,
                  "durationTicks": 10800,
                  "midi": 53,
                  "name": "F3",
                  "ticks": 2064000,
                  "time": 66.839415,
                  "velocity": 0.6771653543307087
              },
              {
                  "duration": 0.3497411250000084,
                  "durationTicks": 10800,
                  "midi": 46,
                  "name": "A#2",
                  "ticks": 2073600,
                  "time": 67.150296,
                  "velocity": 0.6692913385826772
              },
              {
                  "duration": 0.4663215000000065,
                  "durationTicks": 14400,
                  "midi": 46,
                  "name": "A#2",
                  "ticks": 2088000,
                  "time": 67.6166175,
                  "velocity": 0.7244094488188977
              },
              {
                  "duration": 0.3497411249999942,
                  "durationTicks": 10800,
                  "midi": 46,
                  "name": "A#2",
                  "ticks": 2102400,
                  "time": 68.08293900000001,
                  "velocity": 0.7480314960629921
              },
              {
                  "duration": 0.2720208749999955,
                  "durationTicks": 8400,
                  "midi": 43,
                  "name": "G2",
                  "ticks": 2112000,
                  "time": 68.39382,
                  "velocity": 0.6850393700787402
              },
              {
                  "duration": 0.4663215000000065,
                  "durationTicks": 14400,
                  "midi": 43,
                  "name": "G2",
                  "ticks": 2126400,
                  "time": 68.8601415,
                  "velocity": 0.7401574803149606
              },
              {
                  "duration": 0.42746137500000714,
                  "durationTicks": 13200,
                  "midi": 43,
                  "name": "G2",
                  "ticks": 2140800,
                  "time": 69.326463,
                  "velocity": 0.7401574803149606
              },
              {
                  "duration": 0.31088100000000907,
                  "durationTicks": 9600,
                  "midi": 48,
                  "name": "C3",
                  "ticks": 2150400,
                  "time": 69.637344,
                  "velocity": 0.7401574803149606
              },
              {
                  "duration": 0.4663214999999923,
                  "durationTicks": 14400,
                  "midi": 48,
                  "name": "C3",
                  "ticks": 2164800,
                  "time": 70.1036655,
                  "velocity": 0.7401574803149606
              },
              {
                  "duration": 0.194300625000011,
                  "durationTicks": 6000,
                  "midi": 50,
                  "name": "D3",
                  "ticks": 2179200,
                  "time": 70.569987,
                  "velocity": 0.905511811023622
              },
              {
                  "duration": 0.19430062499999678,
                  "durationTicks": 6000,
                  "midi": 52,
                  "name": "E3",
                  "ticks": 2184000,
                  "time": 70.72542750000001,
                  "velocity": 0.8661417322834646
              },
              {
                  "duration": 0.4663214999999923,
                  "durationTicks": 14400,
                  "midi": 29,
                  "name": "F1",
                  "ticks": 2188800,
                  "time": 70.880868,
                  "velocity": 0.9133858267716536
              },
              {
                  "duration": 0.3886012500000078,
                  "durationTicks": 12000,
                  "midi": 41,
                  "name": "F2",
                  "ticks": 2198400,
                  "time": 71.191749,
                  "velocity": 0.7086614173228346
              },
              {
                  "duration": 0.31088099999999486,
                  "durationTicks": 9600,
                  "midi": 41,
                  "name": "F2",
                  "ticks": 2212800,
                  "time": 71.65807050000001,
                  "velocity": 0.7322834645669292
              },
              {
                  "duration": 0.23316074999999614,
                  "durationTicks": 7200,
                  "midi": 41,
                  "name": "F2",
                  "ticks": 2222400,
                  "time": 71.9689515,
                  "velocity": 0.7322834645669292
              },
              {
                  "duration": 0.15544050000001164,
                  "durationTicks": 4800,
                  "midi": 41,
                  "name": "F2",
                  "ticks": 2232000,
                  "time": 72.2798325,
                  "velocity": 0.8346456692913385
              },
              {
                  "duration": 0.3497411249999942,
                  "durationTicks": 10800,
                  "midi": 41,
                  "name": "F2",
                  "ticks": 2236800,
                  "time": 72.43527300000001,
                  "velocity": 0.7480314960629921
              },
              {
                  "duration": 0.23316074999999614,
                  "durationTicks": 7200,
                  "midi": 41,
                  "name": "F2",
                  "ticks": 2251200,
                  "time": 72.9015945,
                  "velocity": 0.7007874015748031
              },
              {
                  "duration": 0.15544049999999743,
                  "durationTicks": 4800,
                  "midi": 41,
                  "name": "F2",
                  "ticks": 2260800,
                  "time": 73.21247550000001,
                  "velocity": 0.8740157480314961
              },
              {
                  "duration": 0.4663214999999923,
                  "durationTicks": 14400,
                  "midi": 29,
                  "name": "F1",
                  "ticks": 2265600,
                  "time": 73.36791600000001,
                  "velocity": 0.8661417322834646
              },
              {
                  "duration": 0.42746137500000714,
                  "durationTicks": 13200,
                  "midi": 41,
                  "name": "F2",
                  "ticks": 2275200,
                  "time": 73.678797,
                  "velocity": 0.7874015748031497
              },
              {
                  "duration": 0.19430062499999678,
                  "durationTicks": 6000,
                  "midi": 41,
                  "name": "F2",
                  "ticks": 2289600,
                  "time": 74.14511850000001,
                  "velocity": 0.7401574803149606
              },
              {
                  "duration": 0.23316074999999614,
                  "durationTicks": 7200,
                  "midi": 41,
                  "name": "F2",
                  "ticks": 2299200,
                  "time": 74.4559995,
                  "velocity": 0.6850393700787402
              },
              {
                  "duration": 0.15544050000001164,
                  "durationTicks": 4800,
                  "midi": 41,
                  "name": "F2",
                  "ticks": 2308800,
                  "time": 74.7668805,
                  "velocity": 0.7244094488188977
              },
              {
                  "duration": 0.31088099999999486,
                  "durationTicks": 9600,
                  "midi": 41,
                  "name": "F2",
                  "ticks": 2318400,
                  "time": 75.07776150000001,
                  "velocity": 0.8110236220472441
              },
              {
                  "duration": 0.15544050000001164,
                  "durationTicks": 4800,
                  "midi": 36,
                  "name": "C2",
                  "ticks": 2337600,
                  "time": 75.6995235,
                  "velocity": 0.8110236220472441
              },
              {
                  "duration": 0.4663214999999923,
                  "durationTicks": 14400,
                  "midi": 29,
                  "name": "F1",
                  "ticks": 2342400,
                  "time": 75.85496400000001,
                  "velocity": 0.9133858267716536
              },
              {
                  "duration": 0.38860124999999357,
                  "durationTicks": 12000,
                  "midi": 41,
                  "name": "F2",
                  "ticks": 2352000,
                  "time": 76.165845,
                  "velocity": 0.8110236220472441
              },
              {
                  "duration": 0.31088099999999486,
                  "durationTicks": 9600,
                  "midi": 41,
                  "name": "F2",
                  "ticks": 2366400,
                  "time": 76.63216650000001,
                  "velocity": 0.7322834645669292
              },
              {
                  "duration": 0.23316074999999614,
                  "durationTicks": 7200,
                  "midi": 41,
                  "name": "F2",
                  "ticks": 2376000,
                  "time": 76.9430475,
                  "velocity": 0.7322834645669292
              },
              {
                  "duration": 0.15544049999999743,
                  "durationTicks": 4800,
                  "midi": 41,
                  "name": "F2",
                  "ticks": 2385600,
                  "time": 77.2539285,
                  "velocity": 0.8346456692913385
              },
              {
                  "duration": 0.3497411250000084,
                  "durationTicks": 10800,
                  "midi": 41,
                  "name": "F2",
                  "ticks": 2390400,
                  "time": 77.409369,
                  "velocity": 0.7480314960629921
              },
              {
                  "duration": 0.23316074999999614,
                  "durationTicks": 7200,
                  "midi": 41,
                  "name": "F2",
                  "ticks": 2404800,
                  "time": 77.8756905,
                  "velocity": 0.7007874015748031
              },
              {
                  "duration": 0.15544050000001164,
                  "durationTicks": 4800,
                  "midi": 41,
                  "name": "F2",
                  "ticks": 2414400,
                  "time": 78.1865715,
                  "velocity": 0.7874015748031497
              },
              {
                  "duration": 0.4663214999999923,
                  "durationTicks": 14400,
                  "midi": 29,
                  "name": "F1",
                  "ticks": 2419200,
                  "time": 78.34201200000001,
                  "velocity": 0.8661417322834646
              },
              {
                  "duration": 0.4274613749999929,
                  "durationTicks": 13200,
                  "midi": 41,
                  "name": "F2",
                  "ticks": 2428800,
                  "time": 78.652893,
                  "velocity": 0.7874015748031497
              },
              {
                  "duration": 0.194300625000011,
                  "durationTicks": 6000,
                  "midi": 41,
                  "name": "F2",
                  "ticks": 2443200,
                  "time": 79.1192145,
                  "velocity": 0.7401574803149606
              },
              {
                  "duration": 0.23316074999999614,
                  "durationTicks": 7200,
                  "midi": 41,
                  "name": "F2",
                  "ticks": 2452800,
                  "time": 79.43009550000001,
                  "velocity": 0.6850393700787402
              },
              {
                  "duration": 0.15544049999999743,
                  "durationTicks": 4800,
                  "midi": 41,
                  "name": "F2",
                  "ticks": 2462400,
                  "time": 79.7409765,
                  "velocity": 0.6220472440944882
              },
              {
                  "duration": 0.31088099999999486,
                  "durationTicks": 9600,
                  "midi": 41,
                  "name": "F2",
                  "ticks": 2472000,
                  "time": 80.05185750000001,
                  "velocity": 0.8110236220472441
              },
              {
                  "duration": 0.15544049999999743,
                  "durationTicks": 4800,
                  "midi": 36,
                  "name": "C2",
                  "ticks": 2491200,
                  "time": 80.6736195,
                  "velocity": 0.8110236220472441
              },
              {
                  "duration": 0.3886012500000078,
                  "durationTicks": 12000,
                  "midi": 29,
                  "name": "F1",
                  "ticks": 2496000,
                  "time": 80.82906,
                  "velocity": 0.8346456692913385
              },
              {
                  "duration": 0.31088099999999486,
                  "durationTicks": 9600,
                  "midi": 29,
                  "name": "F1",
                  "ticks": 2510400,
                  "time": 81.2953815,
                  "velocity": 0.84251968503937
              },
              {
                  "duration": 0.31088100000000907,
                  "durationTicks": 9600,
                  "midi": 29,
                  "name": "F1",
                  "ticks": 2520000,
                  "time": 81.6062625,
                  "velocity": 0.84251968503937
              },
              {
                  "duration": 0.6217619999999897,
                  "durationTicks": 19200,
                  "midi": 34,
                  "name": "A#1",
                  "ticks": 2529600,
                  "time": 81.91714350000001,
                  "velocity": 0.8346456692913385
              },
              {
                  "duration": 0.4663215000000065,
                  "durationTicks": 14400,
                  "midi": 34,
                  "name": "A#1",
                  "ticks": 2548800,
                  "time": 82.5389055,
                  "velocity": 0.84251968503937
              },
              {
                  "duration": 0.31088099999999486,
                  "durationTicks": 9600,
                  "midi": 34,
                  "name": "A#1",
                  "ticks": 2563200,
                  "time": 83.005227,
                  "velocity": 0.84251968503937
              },
              {
                  "duration": 0.4663215000000065,
                  "durationTicks": 14400,
                  "midi": 31,
                  "name": "G1",
                  "ticks": 2572800,
                  "time": 83.316108,
                  "velocity": 0.8346456692913385
              },
              {
                  "duration": 0.31088099999999486,
                  "durationTicks": 9600,
                  "midi": 31,
                  "name": "G1",
                  "ticks": 2587200,
                  "time": 83.7824295,
                  "velocity": 0.84251968503937
              },
              {
                  "duration": 0.31088100000000907,
                  "durationTicks": 9600,
                  "midi": 31,
                  "name": "G1",
                  "ticks": 2596800,
                  "time": 84.0933105,
                  "velocity": 0.84251968503937
              },
              {
                  "duration": 0.6217619999999897,
                  "durationTicks": 19200,
                  "midi": 36,
                  "name": "C2",
                  "ticks": 2606400,
                  "time": 84.40419150000001,
                  "velocity": 0.8346456692913385
              },
              {
                  "duration": 0.4663215000000065,
                  "durationTicks": 14400,
                  "midi": 36,
                  "name": "C2",
                  "ticks": 2625600,
                  "time": 85.0259535,
                  "velocity": 0.84251968503937
              },
              {
                  "duration": 0.31088099999999486,
                  "durationTicks": 9600,
                  "midi": 36,
                  "name": "C2",
                  "ticks": 2640000,
                  "time": 85.492275,
                  "velocity": 0.84251968503937
              },
              {
                  "duration": 0.4663215000000065,
                  "durationTicks": 14400,
                  "midi": 38,
                  "name": "D2",
                  "ticks": 2649600,
                  "time": 85.803156,
                  "velocity": 0.8346456692913385
              },
              {
                  "duration": 0.31088099999999486,
                  "durationTicks": 9600,
                  "midi": 38,
                  "name": "D2",
                  "ticks": 2664000,
                  "time": 86.26947750000001,
                  "velocity": 0.84251968503937
              },
              {
                  "duration": 0.31088100000000907,
                  "durationTicks": 9600,
                  "midi": 38,
                  "name": "D2",
                  "ticks": 2673600,
                  "time": 86.5803585,
                  "velocity": 0.84251968503937
              },
              {
                  "duration": 0.6217619999999897,
                  "durationTicks": 19200,
                  "midi": 34,
                  "name": "A#1",
                  "ticks": 2683200,
                  "time": 86.89123950000001,
                  "velocity": 0.8346456692913385
              },
              {
                  "duration": 0.4663215000000065,
                  "durationTicks": 14400,
                  "midi": 34,
                  "name": "A#1",
                  "ticks": 2702400,
                  "time": 87.5130015,
                  "velocity": 0.84251968503937
              },
              {
                  "duration": 0.31088099999999486,
                  "durationTicks": 9600,
                  "midi": 34,
                  "name": "A#1",
                  "ticks": 2716800,
                  "time": 87.97932300000001,
                  "velocity": 0.84251968503937
              },
              {
                  "duration": 0.5051816250000059,
                  "durationTicks": 15600,
                  "midi": 31,
                  "name": "G1",
                  "ticks": 2726400,
                  "time": 88.290204,
                  "velocity": 0.8346456692913385
              },
              {
                  "duration": 0.4663214999999923,
                  "durationTicks": 14400,
                  "midi": 33,
                  "name": "A1",
                  "ticks": 2740800,
                  "time": 88.75652550000001,
                  "velocity": 0.8503937007874016
              },
              {
                  "duration": 0.3886012500000078,
                  "durationTicks": 12000,
                  "midi": 34,
                  "name": "A#1",
                  "ticks": 2755200,
                  "time": 89.222847,
                  "velocity": 0.8661417322834646
              },
              {
                  "duration": 0.3497411249999942,
                  "durationTicks": 10800,
                  "midi": 36,
                  "name": "C2",
                  "ticks": 2769600,
                  "time": 89.68916850000001,
                  "velocity": 0.9133858267716536
              },
              {
                  "duration": 0.2720208750000097,
                  "durationTicks": 8400,
                  "midi": 36,
                  "name": "C2",
                  "ticks": 2784000,
                  "time": 90.15549,
                  "velocity": 0.8582677165354331
              },
              {
                  "duration": 0.2720208749999955,
                  "durationTicks": 8400,
                  "midi": 36,
                  "name": "C2",
                  "ticks": 2793600,
                  "time": 90.46637100000001,
                  "velocity": 0.8582677165354331
              },
              {
                  "duration": 0.3886012500000078,
                  "durationTicks": 12000,
                  "midi": 29,
                  "name": "F1",
                  "ticks": 2803200,
                  "time": 90.777252,
                  "velocity": 0.8346456692913385
              },
              {
                  "duration": 0.31088099999999486,
                  "durationTicks": 9600,
                  "midi": 29,
                  "name": "F1",
                  "ticks": 2817600,
                  "time": 91.24357350000001,
                  "velocity": 0.84251968503937
              },
              {
                  "duration": 0.31088099999999486,
                  "durationTicks": 9600,
                  "midi": 29,
                  "name": "F1",
                  "ticks": 2827200,
                  "time": 91.5544545,
                  "velocity": 0.84251968503937
              },
              {
                  "duration": 0.6217620000000039,
                  "durationTicks": 19200,
                  "midi": 34,
                  "name": "A#1",
                  "ticks": 2836800,
                  "time": 91.8653355,
                  "velocity": 0.8346456692913385
              },
              {
                  "duration": 0.4663215000000065,
                  "durationTicks": 14400,
                  "midi": 34,
                  "name": "A#1",
                  "ticks": 2856000,
                  "time": 92.4870975,
                  "velocity": 0.84251968503937
              },
              {
                  "duration": 0.31088099999999486,
                  "durationTicks": 9600,
                  "midi": 34,
                  "name": "A#1",
                  "ticks": 2870400,
                  "time": 92.95341900000001,
                  "velocity": 0.84251968503937
              },
              {
                  "duration": 0.4663215000000065,
                  "durationTicks": 14400,
                  "midi": 31,
                  "name": "G1",
                  "ticks": 2880000,
                  "time": 93.2643,
                  "velocity": 0.8346456692913385
              },
              {
                  "duration": 0.31088099999999486,
                  "durationTicks": 9600,
                  "midi": 31,
                  "name": "G1",
                  "ticks": 2894400,
                  "time": 93.73062150000001,
                  "velocity": 0.84251968503937
              },
              {
                  "duration": 0.31088099999999486,
                  "durationTicks": 9600,
                  "midi": 31,
                  "name": "G1",
                  "ticks": 2904000,
                  "time": 94.0415025,
                  "velocity": 0.84251968503937
              },
              {
                  "duration": 0.6217620000000039,
                  "durationTicks": 19200,
                  "midi": 36,
                  "name": "C2",
                  "ticks": 2913600,
                  "time": 94.3523835,
                  "velocity": 0.8346456692913385
              },
              {
                  "duration": 0.4663215000000065,
                  "durationTicks": 14400,
                  "midi": 36,
                  "name": "C2",
                  "ticks": 2932800,
                  "time": 94.9741455,
                  "velocity": 0.84251968503937
              },
              {
                  "duration": 0.31088099999999486,
                  "durationTicks": 9600,
                  "midi": 36,
                  "name": "C2",
                  "ticks": 2947200,
                  "time": 95.44046700000001,
                  "velocity": 0.84251968503937
              },
              {
                  "duration": 0.4663214999999923,
                  "durationTicks": 14400,
                  "midi": 38,
                  "name": "D2",
                  "ticks": 2956800,
                  "time": 95.75134800000001,
                  "velocity": 0.8346456692913385
              },
              {
                  "duration": 0.31088100000000907,
                  "durationTicks": 9600,
                  "midi": 38,
                  "name": "D2",
                  "ticks": 2971200,
                  "time": 96.2176695,
                  "velocity": 0.84251968503937
              },
              {
                  "duration": 0.31088099999999486,
                  "durationTicks": 9600,
                  "midi": 38,
                  "name": "D2",
                  "ticks": 2980800,
                  "time": 96.52855050000001,
                  "velocity": 0.84251968503937
              },
              {
                  "duration": 0.6217620000000039,
                  "durationTicks": 19200,
                  "midi": 34,
                  "name": "A#1",
                  "ticks": 2990400,
                  "time": 96.8394315,
                  "velocity": 0.8346456692913385
              },
              {
                  "duration": 0.4663214999999923,
                  "durationTicks": 14400,
                  "midi": 34,
                  "name": "A#1",
                  "ticks": 3009600,
                  "time": 97.46119350000001,
                  "velocity": 0.84251968503937
              },
              {
                  "duration": 0.31088100000000907,
                  "durationTicks": 9600,
                  "midi": 34,
                  "name": "A#1",
                  "ticks": 3024000,
                  "time": 97.927515,
                  "velocity": 0.84251968503937
              },
              {
                  "duration": 0.5051816249999916,
                  "durationTicks": 15600,
                  "midi": 31,
                  "name": "G1",
                  "ticks": 3033600,
                  "time": 98.23839600000001,
                  "velocity": 0.8346456692913385
              },
              {
                  "duration": 0.4663215000000065,
                  "durationTicks": 14400,
                  "midi": 33,
                  "name": "A1",
                  "ticks": 3048000,
                  "time": 98.7047175,
                  "velocity": 0.8503937007874016
              },
              {
                  "duration": 0.38860124999999357,
                  "durationTicks": 12000,
                  "midi": 34,
                  "name": "A#1",
                  "ticks": 3062400,
                  "time": 99.17103900000001,
                  "velocity": 0.8661417322834646
              },
              {
                  "duration": 0.3497411250000084,
                  "durationTicks": 10800,
                  "midi": 36,
                  "name": "C2",
                  "ticks": 3076800,
                  "time": 99.6373605,
                  "velocity": 0.9133858267716536
              },
              {
                  "duration": 0.2720208749999955,
                  "durationTicks": 8400,
                  "midi": 36,
                  "name": "C2",
                  "ticks": 3091200,
                  "time": 100.103682,
                  "velocity": 0.8582677165354331
              },
              {
                  "duration": 0.2720208750000097,
                  "durationTicks": 8400,
                  "midi": 36,
                  "name": "C2",
                  "ticks": 3100800,
                  "time": 100.414563,
                  "velocity": 0.8582677165354331
              },
              {
                  "duration": 0.4663214999999923,
                  "durationTicks": 14400,
                  "midi": 41,
                  "name": "F2",
                  "ticks": 3110400,
                  "time": 100.72544400000001,
                  "velocity": 0.7244094488188977
              },
              {
                  "duration": 0.4663214999999923,
                  "durationTicks": 14400,
                  "midi": 53,
                  "name": "F3",
                  "ticks": 3110400,
                  "time": 100.72544400000001,
                  "velocity": 0.7244094488188977
              },
              {
                  "duration": 0.4663214999999923,
                  "durationTicks": 14400,
                  "midi": 57,
                  "name": "A3",
                  "ticks": 3110400,
                  "time": 100.72544400000001,
                  "velocity": 0.7007874015748031
              },
              {
                  "duration": 0.4663214999999923,
                  "durationTicks": 14400,
                  "midi": 60,
                  "name": "C4",
                  "ticks": 3110400,
                  "time": 100.72544400000001,
                  "velocity": 0.5984251968503937
              },
              {
                  "duration": 0.4663214999999923,
                  "durationTicks": 14400,
                  "midi": 65,
                  "name": "F4",
                  "ticks": 3110400,
                  "time": 100.72544400000001,
                  "velocity": 0.6377952755905512
              },
              {
                  "duration": 0.4663215000000065,
                  "durationTicks": 14400,
                  "midi": 53,
                  "name": "F3",
                  "ticks": 3124800,
                  "time": 101.1917655,
                  "velocity": 0.7244094488188977
              },
              {
                  "duration": 0.4663215000000065,
                  "durationTicks": 14400,
                  "midi": 57,
                  "name": "A3",
                  "ticks": 3124800,
                  "time": 101.1917655,
                  "velocity": 0.5748031496062992
              },
              {
                  "duration": 0.4663215000000065,
                  "durationTicks": 14400,
                  "midi": 60,
                  "name": "C4",
                  "ticks": 3124800,
                  "time": 101.1917655,
                  "velocity": 0.5984251968503937
              },
              {
                  "duration": 0.4663215000000065,
                  "durationTicks": 14400,
                  "midi": 65,
                  "name": "F4",
                  "ticks": 3124800,
                  "time": 101.1917655,
                  "velocity": 0.6377952755905512
              },
              {
                  "duration": 0.31088099999999486,
                  "durationTicks": 9600,
                  "midi": 53,
                  "name": "F3",
                  "ticks": 3139200,
                  "time": 101.65808700000001,
                  "velocity": 0.7244094488188977
              },
              {
                  "duration": 0.3497411249999942,
                  "durationTicks": 10800,
                  "midi": 57,
                  "name": "A3",
                  "ticks": 3139200,
                  "time": 101.65808700000001,
                  "velocity": 0.5748031496062992
              },
              {
                  "duration": 0.3497411249999942,
                  "durationTicks": 10800,
                  "midi": 65,
                  "name": "F4",
                  "ticks": 3139200,
                  "time": 101.65808700000001,
                  "velocity": 0.6377952755905512
              },
              {
                  "duration": 1.2435240000000078,
                  "durationTicks": 38400,
                  "midi": 46,
                  "name": "A#2",
                  "ticks": 3148800,
                  "time": 101.968968,
                  "velocity": 0.4566929133858268
              },
              {
                  "duration": 0.4663215000000065,
                  "durationTicks": 14400,
                  "midi": 53,
                  "name": "F3",
                  "ticks": 3148800,
                  "time": 101.968968,
                  "velocity": 0.7244094488188977
              },
              {
                  "duration": 1.360104375000006,
                  "durationTicks": 42000,
                  "midi": 58,
                  "name": "A#3",
                  "ticks": 3148800,
                  "time": 101.968968,
                  "velocity": 0.7559055118110236
              },
              {
                  "duration": 0.4663215000000065,
                  "durationTicks": 14400,
                  "midi": 65,
                  "name": "F4",
                  "ticks": 3148800,
                  "time": 101.968968,
                  "velocity": 0.6377952755905512
              },
              {
                  "duration": 0.4663214999999923,
                  "durationTicks": 14400,
                  "midi": 53,
                  "name": "F3",
                  "ticks": 3163200,
                  "time": 102.43528950000001,
                  "velocity": 0.7244094488188977
              },
              {
                  "duration": 0.4663214999999923,
                  "durationTicks": 14400,
                  "midi": 65,
                  "name": "F4",
                  "ticks": 3163200,
                  "time": 102.43528950000001,
                  "velocity": 0.6377952755905512
              },
              {
                  "duration": 0.31088100000000907,
                  "durationTicks": 9600,
                  "midi": 53,
                  "name": "F3",
                  "ticks": 3177600,
                  "time": 102.901611,
                  "velocity": 0.7244094488188977
              },
              {
                  "duration": 0.31088100000000907,
                  "durationTicks": 9600,
                  "midi": 62,
                  "name": "D4",
                  "ticks": 3177600,
                  "time": 102.901611,
                  "velocity": 0.49606299212598426
              },
              {
                  "duration": 0.31088100000000907,
                  "durationTicks": 9600,
                  "midi": 65,
                  "name": "F4",
                  "ticks": 3177600,
                  "time": 102.901611,
                  "velocity": 0.6299212598425197
              },
              {
                  "duration": 1.2435239999999936,
                  "durationTicks": 38400,
                  "midi": 43,
                  "name": "G2",
                  "ticks": 3187200,
                  "time": 103.21249200000001,
                  "velocity": 0.4566929133858268
              },
              {
                  "duration": 0.4663214999999923,
                  "durationTicks": 14400,
                  "midi": 65,
                  "name": "F4",
                  "ticks": 3187200,
                  "time": 103.21249200000001,
                  "velocity": 0.6062992125984252
              },
              {
                  "duration": 0.4663214999999923,
                  "durationTicks": 14400,
                  "midi": 55,
                  "name": "G3",
                  "ticks": 3187200,
                  "time": 103.21249200000001,
                  "velocity": 0.7244094488188977
              },
              {
                  "duration": 0.4663214999999923,
                  "durationTicks": 14400,
                  "midi": 62,
                  "name": "D4",
                  "ticks": 3187200,
                  "time": 103.21249200000001,
                  "velocity": 0.4881889763779528
              },
              {
                  "duration": 0.4663214999999923,
                  "durationTicks": 14400,
                  "midi": 57,
                  "name": "A3",
                  "ticks": 3187200,
                  "time": 103.21249200000001,
                  "velocity": 0.5905511811023622
              },
              {
                  "duration": 0.4663215000000065,
                  "durationTicks": 14400,
                  "midi": 55,
                  "name": "G3",
                  "ticks": 3201600,
                  "time": 103.6788135,
                  "velocity": 0.7244094488188977
              },
              {
                  "duration": 0.4663215000000065,
                  "durationTicks": 14400,
                  "midi": 62,
                  "name": "D4",
                  "ticks": 3201600,
                  "time": 103.6788135,
                  "velocity": 0.4881889763779528
              },
              {
                  "duration": 0.4663215000000065,
                  "durationTicks": 14400,
                  "midi": 65,
                  "name": "F4",
                  "ticks": 3201600,
                  "time": 103.6788135,
                  "velocity": 0.6062992125984252
              },
              {
                  "duration": 0.31088099999999486,
                  "durationTicks": 9600,
                  "midi": 55,
                  "name": "G3",
                  "ticks": 3216000,
                  "time": 104.14513500000001,
                  "velocity": 0.7244094488188977
              },
              {
                  "duration": 0.31088099999999486,
                  "durationTicks": 9600,
                  "midi": 65,
                  "name": "F4",
                  "ticks": 3216000,
                  "time": 104.14513500000001,
                  "velocity": 0.6062992125984252
              },
              {
                  "duration": 0.31088099999999486,
                  "durationTicks": 9600,
                  "midi": 62,
                  "name": "D4",
                  "ticks": 3216000,
                  "time": 104.14513500000001,
                  "velocity": 0.4881889763779528
              },
              {
                  "duration": 0.4663215000000065,
                  "durationTicks": 14400,
                  "midi": 48,
                  "name": "C3",
                  "ticks": 3225600,
                  "time": 104.456016,
                  "velocity": 0.6929133858267716
              },
              {
                  "duration": 0.4663215000000065,
                  "durationTicks": 14400,
                  "midi": 64,
                  "name": "E4",
                  "ticks": 3225600,
                  "time": 104.456016,
                  "velocity": 0.6062992125984252
              },
              {
                  "duration": 0.4663215000000065,
                  "durationTicks": 14400,
                  "midi": 55,
                  "name": "G3",
                  "ticks": 3225600,
                  "time": 104.456016,
                  "velocity": 0.7244094488188977
              },
              {
                  "duration": 0.4663215000000065,
                  "durationTicks": 14400,
                  "midi": 60,
                  "name": "C4",
                  "ticks": 3225600,
                  "time": 104.456016,
                  "velocity": 0.4881889763779528
              },
              {
                  "duration": 0.4663214999999923,
                  "durationTicks": 14400,
                  "midi": 48,
                  "name": "C3",
                  "ticks": 3240000,
                  "time": 104.92233750000001,
                  "velocity": 0.6141732283464567
              },
              {
                  "duration": 0.4663214999999923,
                  "durationTicks": 14400,
                  "midi": 55,
                  "name": "G3",
                  "ticks": 3240000,
                  "time": 104.92233750000001,
                  "velocity": 0.7244094488188977
              },
              {
                  "duration": 0.4663214999999923,
                  "durationTicks": 14400,
                  "midi": 60,
                  "name": "C4",
                  "ticks": 3240000,
                  "time": 104.92233750000001,
                  "velocity": 0.4881889763779528
              },
              {
                  "duration": 0.4663214999999923,
                  "durationTicks": 14400,
                  "midi": 64,
                  "name": "E4",
                  "ticks": 3240000,
                  "time": 104.92233750000001,
                  "velocity": 0.6062992125984252
              },
              {
                  "duration": 0.3497411250000084,
                  "durationTicks": 10800,
                  "midi": 48,
                  "name": "C3",
                  "ticks": 3254400,
                  "time": 105.388659,
                  "velocity": 0.6062992125984252
              },
              {
                  "duration": 0.31088100000000907,
                  "durationTicks": 9600,
                  "midi": 55,
                  "name": "G3",
                  "ticks": 3254400,
                  "time": 105.388659,
                  "velocity": 0.7244094488188977
              },
              {
                  "duration": 0.31088100000000907,
                  "durationTicks": 9600,
                  "midi": 60,
                  "name": "C4",
                  "ticks": 3254400,
                  "time": 105.388659,
                  "velocity": 0.4881889763779528
              },
              {
                  "duration": 0.31088100000000907,
                  "durationTicks": 9600,
                  "midi": 64,
                  "name": "E4",
                  "ticks": 3254400,
                  "time": 105.388659,
                  "velocity": 0.6062992125984252
              },
              {
                  "duration": 0.4663214999999923,
                  "durationTicks": 14400,
                  "midi": 65,
                  "name": "F4",
                  "ticks": 3264000,
                  "time": 105.69954000000001,
                  "velocity": 0.6377952755905512
              },
              {
                  "duration": 1.2435239999999936,
                  "durationTicks": 38400,
                  "midi": 50,
                  "name": "D3",
                  "ticks": 3264000,
                  "time": 105.69954000000001,
                  "velocity": 0.4566929133858268
              },
              {
                  "duration": 0.4663214999999923,
                  "durationTicks": 14400,
                  "midi": 57,
                  "name": "A3",
                  "ticks": 3264000,
                  "time": 105.69954000000001,
                  "velocity": 0.7244094488188977
              },
              {
                  "duration": 1.2435239999999936,
                  "durationTicks": 38400,
                  "midi": 62,
                  "name": "D4",
                  "ticks": 3264000,
                  "time": 105.69954000000001,
                  "velocity": 0.7559055118110236
              },
              {
                  "duration": 0.4663215000000065,
                  "durationTicks": 14400,
                  "midi": 65,
                  "name": "F4",
                  "ticks": 3278400,
                  "time": 106.1658615,
                  "velocity": 0.6377952755905512
              },
              {
                  "duration": 0.4663215000000065,
                  "durationTicks": 14400,
                  "midi": 57,
                  "name": "A3",
                  "ticks": 3278400,
                  "time": 106.1658615,
                  "velocity": 0.7244094488188977
              },
              {
                  "duration": 0.31088099999999486,
                  "durationTicks": 9600,
                  "midi": 65,
                  "name": "F4",
                  "ticks": 3292800,
                  "time": 106.63218300000001,
                  "velocity": 0.6299212598425197
              },
              {
                  "duration": 0.31088099999999486,
                  "durationTicks": 9600,
                  "midi": 57,
                  "name": "A3",
                  "ticks": 3292800,
                  "time": 106.63218300000001,
                  "velocity": 0.7244094488188977
              },
              {
                  "duration": 1.2435239999999936,
                  "durationTicks": 38400,
                  "midi": 46,
                  "name": "A#2",
                  "ticks": 3302400,
                  "time": 106.943064,
                  "velocity": 0.4566929133858268
              },
              {
                  "duration": 0.4663215000000065,
                  "durationTicks": 14400,
                  "midi": 58,
                  "name": "A#3",
                  "ticks": 3302400,
                  "time": 106.943064,
                  "velocity": 0.7244094488188977
              },
              {
                  "duration": 1.2435239999999936,
                  "durationTicks": 38400,
                  "midi": 62,
                  "name": "D4",
                  "ticks": 3302400,
                  "time": 106.943064,
                  "velocity": 0.7559055118110236
              },
              {
                  "duration": 0.4663215000000065,
                  "durationTicks": 14400,
                  "midi": 65,
                  "name": "F4",
                  "ticks": 3302400,
                  "time": 106.943064,
                  "velocity": 0.6377952755905512
              },
              {
                  "duration": 0.4663214999999923,
                  "durationTicks": 14400,
                  "midi": 65,
                  "name": "F4",
                  "ticks": 3316800,
                  "time": 107.40938550000001,
                  "velocity": 0.6377952755905512
              },
              {
                  "duration": 0.4663214999999923,
                  "durationTicks": 14400,
                  "midi": 58,
                  "name": "A#3",
                  "ticks": 3316800,
                  "time": 107.40938550000001,
                  "velocity": 0.7244094488188977
              },
              {
                  "duration": 0.31088099999999486,
                  "durationTicks": 9600,
                  "midi": 58,
                  "name": "A#3",
                  "ticks": 3331200,
                  "time": 107.875707,
                  "velocity": 0.7244094488188977
              },
              {
                  "duration": 0.31088099999999486,
                  "durationTicks": 9600,
                  "midi": 65,
                  "name": "F4",
                  "ticks": 3331200,
                  "time": 107.875707,
                  "velocity": 0.6299212598425197
              },
              {
                  "duration": 0.4663215000000065,
                  "durationTicks": 14400,
                  "midi": 43,
                  "name": "G2",
                  "ticks": 3340800,
                  "time": 108.186588,
                  "velocity": 0.4881889763779528
              },
              {
                  "duration": 0.4663215000000065,
                  "durationTicks": 14400,
                  "midi": 55,
                  "name": "G3",
                  "ticks": 3340800,
                  "time": 108.186588,
                  "velocity": 0.7165354330708661
              },
              {
                  "duration": 0.42746137500000714,
                  "durationTicks": 13200,
                  "midi": 57,
                  "name": "A3",
                  "ticks": 3340800,
                  "time": 108.186588,
                  "velocity": 0.8818897637795275
              },
              {
                  "duration": 0.4663215000000065,
                  "durationTicks": 14400,
                  "midi": 45,
                  "name": "A2",
                  "ticks": 3355200,
                  "time": 108.6529095,
                  "velocity": 0.4881889763779528
              },
              {
                  "duration": 0.4663215000000065,
                  "durationTicks": 14400,
                  "midi": 57,
                  "name": "A3",
                  "ticks": 3355200,
                  "time": 108.6529095,
                  "velocity": 0.8976377952755905
              },
              {
                  "duration": 0.5051816250000059,
                  "durationTicks": 15600,
                  "midi": 60,
                  "name": "C4",
                  "ticks": 3355200,
                  "time": 108.6529095,
                  "velocity": 0.6771653543307087
              },
              {
                  "duration": 0.4663214999999923,
                  "durationTicks": 14400,
                  "midi": 46,
                  "name": "A#2",
                  "ticks": 3369600,
                  "time": 109.11923100000001,
                  "velocity": 0.6141732283464567
              },
              {
                  "duration": 0.4663214999999923,
                  "durationTicks": 14400,
                  "midi": 58,
                  "name": "A#3",
                  "ticks": 3369600,
                  "time": 109.11923100000001,
                  "velocity": 0.8346456692913385
              },
              {
                  "duration": 0.31088099999999486,
                  "durationTicks": 9600,
                  "midi": 62,
                  "name": "D4",
                  "ticks": 3369600,
                  "time": 109.11923100000001,
                  "velocity": 0.5511811023622047
              },
              {
                  "duration": 0.4663214999999923,
                  "durationTicks": 14400,
                  "midi": 65,
                  "name": "F4",
                  "ticks": 3369600,
                  "time": 109.11923100000001,
                  "velocity": 0.5275590551181102
              },
              {
                  "duration": 0.4663215000000065,
                  "durationTicks": 14400,
                  "midi": 48,
                  "name": "C3",
                  "ticks": 3384000,
                  "time": 109.5855525,
                  "velocity": 0.6141732283464567
              },
              {
                  "duration": 0.4663215000000065,
                  "durationTicks": 14400,
                  "midi": 65,
                  "name": "F4",
                  "ticks": 3384000,
                  "time": 109.5855525,
                  "velocity": 0.5275590551181102
              },
              {
                  "duration": 0.4663215000000065,
                  "durationTicks": 14400,
                  "midi": 58,
                  "name": "A#3",
                  "ticks": 3384000,
                  "time": 109.5855525,
                  "velocity": 0.44881889763779526
              },
              {
                  "duration": 0.4663215000000065,
                  "durationTicks": 14400,
                  "midi": 62,
                  "name": "D4",
                  "ticks": 3384000,
                  "time": 109.5855525,
                  "velocity": 0.5275590551181102
              },
              {
                  "duration": 0.6217619999999897,
                  "durationTicks": 19200,
                  "midi": 48,
                  "name": "C3",
                  "ticks": 3398400,
                  "time": 110.05187400000001,
                  "velocity": 0.6141732283464567
              },
              {
                  "duration": 0.6217619999999897,
                  "durationTicks": 19200,
                  "midi": 58,
                  "name": "A#3",
                  "ticks": 3398400,
                  "time": 110.05187400000001,
                  "velocity": 0.44881889763779526
              },
              {
                  "duration": 0.6217619999999897,
                  "durationTicks": 19200,
                  "midi": 60,
                  "name": "C4",
                  "ticks": 3398400,
                  "time": 110.05187400000001,
                  "velocity": 0.5275590551181102
              },
              {
                  "duration": 0.6217619999999897,
                  "durationTicks": 19200,
                  "midi": 64,
                  "name": "E4",
                  "ticks": 3398400,
                  "time": 110.05187400000001,
                  "velocity": 0.5275590551181102
              },
              {
                  "duration": 0.6217619999999897,
                  "durationTicks": 19200,
                  "midi": 67,
                  "name": "G4",
                  "ticks": 3398400,
                  "time": 110.05187400000001,
                  "velocity": 0.5275590551181102
              },
              {
                  "duration": 0.48374378937499785,
                  "durationTicks": 14938,
                  "midi": 41,
                  "name": "F2",
                  "ticks": 3417600,
                  "time": 110.673636,
                  "velocity": 0.7244094488188977
              },
              {
                  "duration": 0.48374378937499785,
                  "durationTicks": 14938,
                  "midi": 65,
                  "name": "F4",
                  "ticks": 3417600,
                  "time": 110.673636,
                  "velocity": 0.6377952755905512
              },
              {
                  "duration": 0.48374378937499785,
                  "durationTicks": 14938,
                  "midi": 53,
                  "name": "F3",
                  "ticks": 3417600,
                  "time": 110.673636,
                  "velocity": 0.7244094488188977
              },
              {
                  "duration": 0.48374378937499785,
                  "durationTicks": 14938,
                  "midi": 60,
                  "name": "C4",
                  "ticks": 3417600,
                  "time": 110.673636,
                  "velocity": 0.5984251968503937
              },
              {
                  "duration": 0.4448836643749985,
                  "durationTicks": 13738,
                  "midi": 57,
                  "name": "A3",
                  "ticks": 3417600,
                  "time": 110.673636,
                  "velocity": 0.7007874015748031
              },
              {
                  "duration": 0.48374378937499785,
                  "durationTicks": 14938,
                  "midi": 53,
                  "name": "F3",
                  "ticks": 3432000,
                  "time": 111.13995750000001,
                  "velocity": 0.7244094488188977
              },
              {
                  "duration": 0.4448836643749985,
                  "durationTicks": 13738,
                  "midi": 65,
                  "name": "F4",
                  "ticks": 3432000,
                  "time": 111.13995750000001,
                  "velocity": 0.6377952755905512
              },
              {
                  "duration": 0.48374378937499785,
                  "durationTicks": 14938,
                  "midi": 60,
                  "name": "C4",
                  "ticks": 3432000,
                  "time": 111.13995750000001,
                  "velocity": 0.5984251968503937
              },
              {
                  "duration": 0.4448836643749985,
                  "durationTicks": 13738,
                  "midi": 57,
                  "name": "A3",
                  "ticks": 3432000,
                  "time": 111.13995750000001,
                  "velocity": 0.5748031496062992
              },
              {
                  "duration": 0.3283032893750004,
                  "durationTicks": 10138,
                  "midi": 57,
                  "name": "A3",
                  "ticks": 3446400,
                  "time": 111.606279,
                  "velocity": 0.5748031496062992
              },
              {
                  "duration": 0.3283032893750004,
                  "durationTicks": 10138,
                  "midi": 65,
                  "name": "F4",
                  "ticks": 3446400,
                  "time": 111.606279,
                  "velocity": 0.6377952755905512
              },
              {
                  "duration": 0.3283032893750004,
                  "durationTicks": 10138,
                  "midi": 53,
                  "name": "F3",
                  "ticks": 3446400,
                  "time": 111.606279,
                  "velocity": 0.7244094488188977
              },
              {
                  "duration": 1.2609462893749992,
                  "durationTicks": 38938,
                  "midi": 46,
                  "name": "A#2",
                  "ticks": 3456000,
                  "time": 111.91716000000001,
                  "velocity": 0.4566929133858268
              },
              {
                  "duration": 0.48374378937499785,
                  "durationTicks": 14938,
                  "midi": 65,
                  "name": "F4",
                  "ticks": 3456000,
                  "time": 111.91716000000001,
                  "velocity": 0.6377952755905512
              },
              {
                  "duration": 0.48374378937499785,
                  "durationTicks": 14938,
                  "midi": 53,
                  "name": "F3",
                  "ticks": 3456000,
                  "time": 111.91716000000001,
                  "velocity": 0.7244094488188977
              },
              {
                  "duration": 1.338666539374998,
                  "durationTicks": 41338,
                  "midi": 58,
                  "name": "A#3",
                  "ticks": 3456000,
                  "time": 111.91716000000001,
                  "velocity": 0.7559055118110236
              },
              {
                  "duration": 0.48374378937499785,
                  "durationTicks": 14938,
                  "midi": 53,
                  "name": "F3",
                  "ticks": 3470400,
                  "time": 112.3834815,
                  "velocity": 0.7244094488188977
              },
              {
                  "duration": 0.4448836643749985,
                  "durationTicks": 13738,
                  "midi": 65,
                  "name": "F4",
                  "ticks": 3470400,
                  "time": 112.3834815,
                  "velocity": 0.6377952755905512
              },
              {
                  "duration": 0.28944316437500106,
                  "durationTicks": 8938,
                  "midi": 62,
                  "name": "D4",
                  "ticks": 3484800,
                  "time": 112.84980300000001,
                  "velocity": 0.49606299212598426
              },
              {
                  "duration": 0.28944316437500106,
                  "durationTicks": 8938,
                  "midi": 65,
                  "name": "F4",
                  "ticks": 3484800,
                  "time": 112.84980300000001,
                  "velocity": 0.6299212598425197
              },
              {
                  "duration": 0.3283032893750004,
                  "durationTicks": 10138,
                  "midi": 53,
                  "name": "F3",
                  "ticks": 3484800,
                  "time": 112.84980300000001,
                  "velocity": 0.7244094488188977
              },
              {
                  "duration": 0.48374378937499785,
                  "durationTicks": 14938,
                  "midi": 65,
                  "name": "F4",
                  "ticks": 3494400,
                  "time": 113.160684,
                  "velocity": 0.6062992125984252
              },
              {
                  "duration": 1.2609462893749992,
                  "durationTicks": 38938,
                  "midi": 43,
                  "name": "G2",
                  "ticks": 3494400,
                  "time": 113.160684,
                  "velocity": 0.4566929133858268
              },
              {
                  "duration": 0.48374378937499785,
                  "durationTicks": 14938,
                  "midi": 62,
                  "name": "D4",
                  "ticks": 3494400,
                  "time": 113.160684,
                  "velocity": 0.4881889763779528
              },
              {
                  "duration": 0.48374378937499785,
                  "durationTicks": 14938,
                  "midi": 55,
                  "name": "G3",
                  "ticks": 3494400,
                  "time": 113.160684,
                  "velocity": 0.7244094488188977
              },
              {
                  "duration": 0.48374378937499785,
                  "durationTicks": 14938,
                  "midi": 57,
                  "name": "A3",
                  "ticks": 3494400,
                  "time": 113.160684,
                  "velocity": 0.5905511811023622
              },
              {
                  "duration": 0.48374378937499785,
                  "durationTicks": 14938,
                  "midi": 55,
                  "name": "G3",
                  "ticks": 3508800,
                  "time": 113.62700550000001,
                  "velocity": 0.7244094488188977
              },
              {
                  "duration": 0.48374378937499785,
                  "durationTicks": 14938,
                  "midi": 65,
                  "name": "F4",
                  "ticks": 3508800,
                  "time": 113.62700550000001,
                  "velocity": 0.6062992125984252
              },
              {
                  "duration": 0.48374378937499785,
                  "durationTicks": 14938,
                  "midi": 62,
                  "name": "D4",
                  "ticks": 3508800,
                  "time": 113.62700550000001,
                  "velocity": 0.4881889763779528
              },
              {
                  "duration": 0.3283032893750004,
                  "durationTicks": 10138,
                  "midi": 65,
                  "name": "F4",
                  "ticks": 3523200,
                  "time": 114.093327,
                  "velocity": 0.6062992125984252
              },
              {
                  "duration": 0.3283032893750004,
                  "durationTicks": 10138,
                  "midi": 62,
                  "name": "D4",
                  "ticks": 3523200,
                  "time": 114.093327,
                  "velocity": 0.4881889763779528
              },
              {
                  "duration": 0.3283032893750004,
                  "durationTicks": 10138,
                  "midi": 55,
                  "name": "G3",
                  "ticks": 3523200,
                  "time": 114.093327,
                  "velocity": 0.7244094488188977
              },
              {
                  "duration": 0.48374378937499785,
                  "durationTicks": 14938,
                  "midi": 64,
                  "name": "E4",
                  "ticks": 3532800,
                  "time": 114.40420800000001,
                  "velocity": 0.6062992125984252
              },
              {
                  "duration": 0.48374378937499785,
                  "durationTicks": 14938,
                  "midi": 60,
                  "name": "C4",
                  "ticks": 3532800,
                  "time": 114.40420800000001,
                  "velocity": 0.4881889763779528
              },
              {
                  "duration": 0.48374378937499785,
                  "durationTicks": 14938,
                  "midi": 55,
                  "name": "G3",
                  "ticks": 3532800,
                  "time": 114.40420800000001,
                  "velocity": 0.7244094488188977
              },
              {
                  "duration": 0.4448836643749985,
                  "durationTicks": 13738,
                  "midi": 48,
                  "name": "C3",
                  "ticks": 3532800,
                  "time": 114.40420800000001,
                  "velocity": 0.6929133858267716
              },
              {
                  "duration": 0.48374378937499785,
                  "durationTicks": 14938,
                  "midi": 60,
                  "name": "C4",
                  "ticks": 3547200,
                  "time": 114.8705295,
                  "velocity": 0.4881889763779528
              },
              {
                  "duration": 0.48374378937499785,
                  "durationTicks": 14938,
                  "midi": 64,
                  "name": "E4",
                  "ticks": 3547200,
                  "time": 114.8705295,
                  "velocity": 0.6062992125984252
              },
              {
                  "duration": 0.48374378937499785,
                  "durationTicks": 14938,
                  "midi": 55,
                  "name": "G3",
                  "ticks": 3547200,
                  "time": 114.8705295,
                  "velocity": 0.7244094488188977
              },
              {
                  "duration": 0.4448836643749985,
                  "durationTicks": 13738,
                  "midi": 48,
                  "name": "C3",
                  "ticks": 3547200,
                  "time": 114.8705295,
                  "velocity": 0.6141732283464567
              },
              {
                  "duration": 0.3283032893750004,
                  "durationTicks": 10138,
                  "midi": 60,
                  "name": "C4",
                  "ticks": 3561600,
                  "time": 115.33685100000001,
                  "velocity": 0.4881889763779528
              },
              {
                  "duration": 0.3283032893750004,
                  "durationTicks": 10138,
                  "midi": 64,
                  "name": "E4",
                  "ticks": 3561600,
                  "time": 115.33685100000001,
                  "velocity": 0.6062992125984252
              },
              {
                  "duration": 0.3283032893750004,
                  "durationTicks": 10138,
                  "midi": 55,
                  "name": "G3",
                  "ticks": 3561600,
                  "time": 115.33685100000001,
                  "velocity": 0.7244094488188977
              },
              {
                  "duration": 0.3283032893750004,
                  "durationTicks": 10138,
                  "midi": 48,
                  "name": "C3",
                  "ticks": 3561600,
                  "time": 115.33685100000001,
                  "velocity": 0.6062992125984252
              },
              {
                  "duration": 0.48374378937499785,
                  "durationTicks": 14938,
                  "midi": 65,
                  "name": "F4",
                  "ticks": 3571200,
                  "time": 115.647732,
                  "velocity": 0.6377952755905512
              },
              {
                  "duration": 1.2609462893749992,
                  "durationTicks": 38938,
                  "midi": 62,
                  "name": "D4",
                  "ticks": 3571200,
                  "time": 115.647732,
                  "velocity": 0.7559055118110236
              },
              {
                  "duration": 0.48374378937499785,
                  "durationTicks": 14938,
                  "midi": 57,
                  "name": "A3",
                  "ticks": 3571200,
                  "time": 115.647732,
                  "velocity": 0.7244094488188977
              },
              {
                  "duration": 1.2609462893749992,
                  "durationTicks": 38938,
                  "midi": 50,
                  "name": "D3",
                  "ticks": 3571200,
                  "time": 115.647732,
                  "velocity": 0.4566929133858268
              },
              {
                  "duration": 0.4448836643749985,
                  "durationTicks": 13738,
                  "midi": 65,
                  "name": "F4",
                  "ticks": 3585600,
                  "time": 116.11405350000001,
                  "velocity": 0.6377952755905512
              },
              {
                  "duration": 0.48374378937499785,
                  "durationTicks": 14938,
                  "midi": 57,
                  "name": "A3",
                  "ticks": 3585600,
                  "time": 116.11405350000001,
                  "velocity": 0.7244094488188977
              },
              {
                  "duration": 0.28944316437500106,
                  "durationTicks": 8938,
                  "midi": 65,
                  "name": "F4",
                  "ticks": 3600000,
                  "time": 116.580375,
                  "velocity": 0.6299212598425197
              },
              {
                  "duration": 0.3283032893750004,
                  "durationTicks": 10138,
                  "midi": 57,
                  "name": "A3",
                  "ticks": 3600000,
                  "time": 116.580375,
                  "velocity": 0.7244094488188977
              },
              {
                  "duration": 1.260946289374985,
                  "durationTicks": 38938,
                  "midi": 62,
                  "name": "D4",
                  "ticks": 3609600,
                  "time": 116.89125600000001,
                  "velocity": 0.7559055118110236
              },
              {
                  "duration": 1.260946289374985,
                  "durationTicks": 38938,
                  "midi": 46,
                  "name": "A#2",
                  "ticks": 3609600,
                  "time": 116.89125600000001,
                  "velocity": 0.4566929133858268
              },
              {
                  "duration": 0.48374378937499785,
                  "durationTicks": 14938,
                  "midi": 65,
                  "name": "F4",
                  "ticks": 3609600,
                  "time": 116.89125600000001,
                  "velocity": 0.6377952755905512
              },
              {
                  "duration": 0.48374378937499785,
                  "durationTicks": 14938,
                  "midi": 58,
                  "name": "A#3",
                  "ticks": 3609600,
                  "time": 116.89125600000001,
                  "velocity": 0.7244094488188977
              },
              {
                  "duration": 0.4448836643749985,
                  "durationTicks": 13738,
                  "midi": 65,
                  "name": "F4",
                  "ticks": 3624000,
                  "time": 117.3575775,
                  "velocity": 0.6377952755905512
              },
              {
                  "duration": 0.48374378937499785,
                  "durationTicks": 14938,
                  "midi": 58,
                  "name": "A#3",
                  "ticks": 3624000,
                  "time": 117.3575775,
                  "velocity": 0.7244094488188977
              },
              {
                  "duration": 0.28944316437498685,
                  "durationTicks": 8938,
                  "midi": 65,
                  "name": "F4",
                  "ticks": 3638400,
                  "time": 117.82389900000001,
                  "velocity": 0.6299212598425197
              },
              {
                  "duration": 0.3283032893749862,
                  "durationTicks": 10138,
                  "midi": 58,
                  "name": "A#3",
                  "ticks": 3638400,
                  "time": 117.82389900000001,
                  "velocity": 0.7244094488188977
              },
              {
                  "duration": 0.48374378937499785,
                  "durationTicks": 14938,
                  "midi": 43,
                  "name": "G2",
                  "ticks": 3648000,
                  "time": 118.13478,
                  "velocity": 0.4881889763779528
              },
              {
                  "duration": 0.48374378937499785,
                  "durationTicks": 14938,
                  "midi": 55,
                  "name": "G3",
                  "ticks": 3648000,
                  "time": 118.13478,
                  "velocity": 0.7165354330708661
              },
              {
                  "duration": 0.4448836643749985,
                  "durationTicks": 13738,
                  "midi": 57,
                  "name": "A3",
                  "ticks": 3648000,
                  "time": 118.13478,
                  "velocity": 0.8818897637795275
              },
              {
                  "duration": 0.5226039143749972,
                  "durationTicks": 16138,
                  "midi": 60,
                  "name": "C4",
                  "ticks": 3662400,
                  "time": 118.60110150000001,
                  "velocity": 0.6771653543307087
              },
              {
                  "duration": 0.48374378937499785,
                  "durationTicks": 14938,
                  "midi": 57,
                  "name": "A3",
                  "ticks": 3662400,
                  "time": 118.60110150000001,
                  "velocity": 0.8976377952755905
              },
              {
                  "duration": 0.48374378937499785,
                  "durationTicks": 14938,
                  "midi": 45,
                  "name": "A2",
                  "ticks": 3662400,
                  "time": 118.60110150000001,
                  "velocity": 0.4881889763779528
              },
              {
                  "duration": 0.31088100000000907,
                  "durationTicks": 9600,
                  "midi": 58,
                  "name": "A#3",
                  "ticks": 3676800,
                  "time": 119.067423,
                  "velocity": 0.8346456692913385
              },
              {
                  "duration": 0.31088100000000907,
                  "durationTicks": 9600,
                  "midi": 65,
                  "name": "F4",
                  "ticks": 3676800,
                  "time": 119.067423,
                  "velocity": 0.5275590551181102
              },
              {
                  "duration": 0.23316074999999614,
                  "durationTicks": 7200,
                  "midi": 62,
                  "name": "D4",
                  "ticks": 3676800,
                  "time": 119.067423,
                  "velocity": 0.5511811023622047
              },
              {
                  "duration": 0.31088100000000907,
                  "durationTicks": 9600,
                  "midi": 46,
                  "name": "A#2",
                  "ticks": 3676800,
                  "time": 119.067423,
                  "velocity": 0.6141732283464567
              }
          ],
          "endOfTrackTicks": 3686400
      },
      {
          "channel": 4,
          "controlChanges": {},
          "pitchBends": [],
          "instrument": {
              "family": "piano",
              "number": 4,
              "name": "chords"
          },
          "name": "Chords",
          "notes": [
              {
                  "duration": 0.46230595375000005,
                  "durationTicks": 14276,
                  "midi": 41,
                  "name": "F2",
                  "ticks": 38400,
                  "time": 1.243524,
                  "velocity": 0.7007874015748031
              },
              {
                  "duration": 0.4411271856250001,
                  "durationTicks": 13622,
                  "midi": 48,
                  "name": "C3",
                  "ticks": 38400,
                  "time": 1.243524,
                  "velocity": 0.47244094488188976
              },
              {
                  "duration": 0.3774289640624999,
                  "durationTicks": 11655,
                  "midi": 57,
                  "name": "A3",
                  "ticks": 38400,
                  "time": 1.243524,
                  "velocity": 0.6929133858267716
              },
              {
                  "duration": 0.28711155687500023,
                  "durationTicks": 8866,
                  "midi": 29,
                  "name": "F1",
                  "ticks": 55200,
                  "time": 1.7875657500000002,
                  "velocity": 0.49606299212598426
              },
              {
                  "duration": 0.3368201334374996,
                  "durationTicks": 10401,
                  "midi": 29,
                  "name": "F1",
                  "ticks": 62400,
                  "time": 2.0207265000000003,
                  "velocity": 0.6535433070866141
              },
              {
                  "duration": 0.25216982781249975,
                  "durationTicks": 7787,
                  "midi": 41,
                  "name": "F2",
                  "ticks": 62400,
                  "time": 2.0207265000000003,
                  "velocity": 0.6614173228346457
              },
              {
                  "duration": 0.25216982781249975,
                  "durationTicks": 7787,
                  "midi": 57,
                  "name": "A3",
                  "ticks": 62400,
                  "time": 2.0207265000000003,
                  "velocity": 0.4409448818897638
              },
              {
                  "duration": 1.2539190834375002,
                  "durationTicks": 38721,
                  "midi": 34,
                  "name": "A#1",
                  "ticks": 72000,
                  "time": 2.3316075,
                  "velocity": 0.8503937007874016
              },
              {
                  "duration": 0.291127103125,
                  "durationTicks": 8990,
                  "midi": 53,
                  "name": "F3",
                  "ticks": 91200,
                  "time": 2.9533695,
                  "velocity": 0.3543307086614173
              },
              {
                  "duration": 0.46716346937499953,
                  "durationTicks": 14426,
                  "midi": 31,
                  "name": "G1",
                  "ticks": 115200,
                  "time": 3.7305720000000004,
                  "velocity": 0.5354330708661418
              },
              {
                  "duration": 0.36136677906250014,
                  "durationTicks": 11159,
                  "midi": 43,
                  "name": "G2",
                  "ticks": 115200,
                  "time": 3.7305720000000004,
                  "velocity": 0.6377952755905512
              },
              {
                  "duration": 0.46716346937499953,
                  "durationTicks": 14426,
                  "midi": 58,
                  "name": "A#3",
                  "ticks": 115200,
                  "time": 3.7305720000000004,
                  "velocity": 0.5275590551181102
              },
              {
                  "duration": 0.2602656871875002,
                  "durationTicks": 8037,
                  "midi": 31,
                  "name": "G1",
                  "ticks": 139200,
                  "time": 4.5077745,
                  "velocity": 0.8582677165354331
              },
              {
                  "duration": 0.8178113306249992,
                  "durationTicks": 25254,
                  "midi": 36,
                  "name": "C2",
                  "ticks": 148800,
                  "time": 4.8186555,
                  "velocity": 0.9133858267716536
              },
              {
                  "duration": 0.5196246381250003,
                  "durationTicks": 16046,
                  "midi": 38,
                  "name": "D2",
                  "ticks": 192000,
                  "time": 6.21762,
                  "velocity": 0.7165354330708661
              },
              {
                  "duration": 0.6042425603125006,
                  "durationTicks": 18659,
                  "midi": 65,
                  "name": "F4",
                  "ticks": 192000,
                  "time": 6.21762,
                  "velocity": 0.4566929133858268
              },
              {
                  "duration": 0.2698188012499996,
                  "durationTicks": 8332,
                  "midi": 38,
                  "name": "D2",
                  "ticks": 216000,
                  "time": 6.994822500000001,
                  "velocity": 0.7952755905511811
              },
              {
                  "duration": 1.019106778124999,
                  "durationTicks": 31470,
                  "midi": 34,
                  "name": "A#1",
                  "ticks": 225600,
                  "time": 7.305703500000001,
                  "velocity": 0.8346456692913385
              },
              {
                  "duration": 0.33860122250000035,
                  "durationTicks": 10456,
                  "midi": 53,
                  "name": "F3",
                  "ticks": 240000,
                  "time": 7.772025,
                  "velocity": 0.3937007874015748
              },
              {
                  "duration": 0.3313149490625005,
                  "durationTicks": 10231,
                  "midi": 65,
                  "name": "F4",
                  "ticks": 244800,
                  "time": 7.9274655,
                  "velocity": 0.36220472440944884
              },
              {
                  "duration": 0.5053111587500005,
                  "durationTicks": 15604,
                  "midi": 31,
                  "name": "G1",
                  "ticks": 268800,
                  "time": 8.704668,
                  "velocity": 0.8346456692913385
              },
              {
                  "duration": 0.4834199549999987,
                  "durationTicks": 14928,
                  "midi": 33,
                  "name": "A1",
                  "ticks": 283200,
                  "time": 9.170989500000001,
                  "velocity": 0.8503937007874016
              },
              {
                  "duration": 0.421373288749999,
                  "durationTicks": 13012,
                  "midi": 34,
                  "name": "A#1",
                  "ticks": 297600,
                  "time": 9.637311,
                  "velocity": 0.8661417322834646
              },
              {
                  "duration": 0.3778175653125011,
                  "durationTicks": 11667,
                  "midi": 36,
                  "name": "C2",
                  "ticks": 312000,
                  "time": 10.1036325,
                  "velocity": 0.9133858267716536
              },
              {
                  "duration": 0.27085507125000063,
                  "durationTicks": 8364,
                  "midi": 36,
                  "name": "C2",
                  "ticks": 326400,
                  "time": 10.569954000000001,
                  "velocity": 0.8582677165354331
              },
              {
                  "duration": 0.2774612924999982,
                  "durationTicks": 8568,
                  "midi": 36,
                  "name": "C2",
                  "ticks": 336000,
                  "time": 10.880835000000001,
                  "velocity": 0.8582677165354331
              },
              {
                  "duration": 0.4543072446874987,
                  "durationTicks": 14029,
                  "midi": 29,
                  "name": "F1",
                  "ticks": 345600,
                  "time": 11.191716000000001,
                  "velocity": 0.7874015748031497
              },
              {
                  "duration": 0.36965693906249975,
                  "durationTicks": 11415,
                  "midi": 69,
                  "name": "A4",
                  "ticks": 345600,
                  "time": 11.191716000000001,
                  "velocity": 0.6771653543307087
              },
              {
                  "duration": 0.3209198656249992,
                  "durationTicks": 9910,
                  "midi": 48,
                  "name": "C3",
                  "ticks": 350400,
                  "time": 11.3471565,
                  "velocity": 0.49606299212598426
              },
              {
                  "duration": 0.26794056187499926,
                  "durationTicks": 8274,
                  "midi": 29,
                  "name": "F1",
                  "ticks": 369600,
                  "time": 11.968918500000001,
                  "velocity": 0.8740157480314961
              },
              {
                  "duration": 0.1893135756250004,
                  "durationTicks": 5846,
                  "midi": 34,
                  "name": "A#1",
                  "ticks": 379200,
                  "time": 12.279799500000001,
                  "velocity": 0.8661417322834646
              },
              {
                  "duration": 0.3709846600000013,
                  "durationTicks": 11456,
                  "midi": 34,
                  "name": "A#1",
                  "ticks": 384000,
                  "time": 12.43524,
                  "velocity": 0.6692913385826772
              },
              {
                  "duration": 0.4852981943749999,
                  "durationTicks": 14986,
                  "midi": 31,
                  "name": "G1",
                  "ticks": 422400,
                  "time": 13.678764000000001,
                  "velocity": 0.8346456692913385
              },
              {
                  "duration": 0.3291128753125019,
                  "durationTicks": 10163,
                  "midi": 55,
                  "name": "G3",
                  "ticks": 427200,
                  "time": 13.8342045,
                  "velocity": 0.4409448818897638
              },
              {
                  "duration": 0.30035638281250066,
                  "durationTicks": 9275,
                  "midi": 31,
                  "name": "G1",
                  "ticks": 446400,
                  "time": 14.4559665,
                  "velocity": 0.8582677165354331
              },
              {
                  "duration": 0.1515868709374999,
                  "durationTicks": 4681,
                  "midi": 24,
                  "name": "C1",
                  "ticks": 456000,
                  "time": 14.7668475,
                  "velocity": 0.7401574803149606
              },
              {
                  "duration": 0.4920339493749992,
                  "durationTicks": 15194,
                  "midi": 24,
                  "name": "C1",
                  "ticks": 460800,
                  "time": 14.922288000000002,
                  "velocity": 0.7795275590551181
              },
              {
                  "duration": 0.5152852574999969,
                  "durationTicks": 15912,
                  "midi": 26,
                  "name": "D1",
                  "ticks": 499200,
                  "time": 16.165812000000003,
                  "velocity": 0.7480314960629921
              },
              {
                  "duration": 0.24022033937499998,
                  "durationTicks": 7418,
                  "midi": 57,
                  "name": "A3",
                  "ticks": 499200,
                  "time": 16.165812000000003,
                  "velocity": 0.48031496062992124
              },
              {
                  "duration": 0.266483307187503,
                  "durationTicks": 8229,
                  "midi": 26,
                  "name": "D1",
                  "ticks": 523200,
                  "time": 16.9430145,
                  "velocity": 0.8346456692913385
              },
              {
                  "duration": 0.24533692250000172,
                  "durationTicks": 7576,
                  "midi": 54,
                  "name": "F#3",
                  "ticks": 523200,
                  "time": 16.9430145,
                  "velocity": 0.5118110236220472
              },
              {
                  "duration": 0.6539835203124973,
                  "durationTicks": 20195,
                  "midi": 34,
                  "name": "A#1",
                  "ticks": 532800,
                  "time": 17.253895500000002,
                  "velocity": 0.8503937007874016
              },
              {
                  "duration": 0.4284976450000002,
                  "durationTicks": 13232,
                  "midi": 53,
                  "name": "F3",
                  "ticks": 537600,
                  "time": 17.409336,
                  "velocity": 0.4409448818897638
              },
              {
                  "duration": 0.2167747306250014,
                  "durationTicks": 6694,
                  "midi": 46,
                  "name": "A#2",
                  "ticks": 542400,
                  "time": 17.5647765,
                  "velocity": 0.5039370078740157
              },
              {
                  "duration": 0.5049225575000023,
                  "durationTicks": 15592,
                  "midi": 31,
                  "name": "G1",
                  "ticks": 576000,
                  "time": 18.65286,
                  "velocity": 0.8818897637795275
              },
              {
                  "duration": 0.423154377812498,
                  "durationTicks": 13067,
                  "midi": 33,
                  "name": "A1",
                  "ticks": 592800,
                  "time": 19.196901750000002,
                  "velocity": 0.9133858267716536
              },
              {
                  "duration": 0.376360310624996,
                  "durationTicks": 11622,
                  "midi": 53,
                  "name": "F3",
                  "ticks": 604800,
                  "time": 19.585503000000003,
                  "velocity": 0.5669291338582677
              },
              {
                  "duration": 0.10129539249999908,
                  "durationTicks": 3128,
                  "midi": 34,
                  "name": "A#1",
                  "ticks": 604800,
                  "time": 19.585503000000003,
                  "velocity": 0.6692913385826772
              },
              {
                  "duration": 0.376360310624996,
                  "durationTicks": 11622,
                  "midi": 46,
                  "name": "A#2",
                  "ticks": 604800,
                  "time": 19.585503000000003,
                  "velocity": 0.4094488188976378
              },
              {
                  "duration": 0.24047940687500358,
                  "durationTicks": 7426,
                  "midi": 34,
                  "name": "A#1",
                  "ticks": 609600,
                  "time": 19.7409435,
                  "velocity": 0.7322834645669292
              },
              {
                  "duration": 0.4712437825000002,
                  "durationTicks": 14552,
                  "midi": 29,
                  "name": "F1",
                  "ticks": 652800,
                  "time": 21.139908000000002,
                  "velocity": 0.9133858267716536
              },
              {
                  "duration": 0.4019432262500011,
                  "durationTicks": 12412,
                  "midi": 41,
                  "name": "F2",
                  "ticks": 660000,
                  "time": 21.37306875,
                  "velocity": 0.5669291338582677
              },
              {
                  "duration": 0.13947546531250055,
                  "durationTicks": 4307,
                  "midi": 60,
                  "name": "C4",
                  "ticks": 662400,
                  "time": 21.450789,
                  "velocity": 0.7322834645669292
              },
              {
                  "duration": 0.2161594453124991,
                  "durationTicks": 6675,
                  "midi": 65,
                  "name": "F4",
                  "ticks": 667200,
                  "time": 21.6062295,
                  "velocity": 0.3779527559055118
              },
              {
                  "duration": 0.2161594453124991,
                  "durationTicks": 6675,
                  "midi": 53,
                  "name": "F3",
                  "ticks": 667200,
                  "time": 21.6062295,
                  "velocity": 0.29133858267716534
              },
              {
                  "duration": 0.2161594453124991,
                  "durationTicks": 6675,
                  "midi": 60,
                  "name": "C4",
                  "ticks": 667200,
                  "time": 21.6062295,
                  "velocity": 0.4330708661417323
              },
              {
                  "duration": 0.30637970218750255,
                  "durationTicks": 9461,
                  "midi": 41,
                  "name": "F2",
                  "ticks": 676800,
                  "time": 21.9171105,
                  "velocity": 0.5118110236220472
              },
              {
                  "duration": 0.1794366271874992,
                  "durationTicks": 5541,
                  "midi": 53,
                  "name": "F3",
                  "ticks": 676800,
                  "time": 21.9171105,
                  "velocity": 0.5039370078740157
              },
              {
                  "duration": 0.15155448750000033,
                  "durationTicks": 4680,
                  "midi": 60,
                  "name": "C4",
                  "ticks": 681600,
                  "time": 22.072551,
                  "velocity": 0.49606299212598426
              },
              {
                  "duration": 0.15155448750000033,
                  "durationTicks": 4680,
                  "midi": 65,
                  "name": "F4",
                  "ticks": 681600,
                  "time": 22.072551,
                  "velocity": 0.4094488188976378
              },
              {
                  "duration": 0.22865945218750028,
                  "durationTicks": 7061,
                  "midi": 41,
                  "name": "F2",
                  "ticks": 686400,
                  "time": 22.2279915,
                  "velocity": 0.7322834645669292
              },
              {
                  "duration": 0.1496762481250009,
                  "durationTicks": 4622,
                  "midi": 41,
                  "name": "F2",
                  "ticks": 696000,
                  "time": 22.5388725,
                  "velocity": 0.5826771653543307
              },
              {
                  "duration": 0.1496762481250009,
                  "durationTicks": 4622,
                  "midi": 53,
                  "name": "F3",
                  "ticks": 696000,
                  "time": 22.5388725,
                  "velocity": 0.5039370078740157
              },
              {
                  "duration": 0.35340045343749793,
                  "durationTicks": 10913,
                  "midi": 41,
                  "name": "F2",
                  "ticks": 700800,
                  "time": 22.694313,
                  "velocity": 0.7480314960629921
              },
              {
                  "duration": 0.1418394562500005,
                  "durationTicks": 4380,
                  "midi": 69,
                  "name": "A4",
                  "ticks": 700800,
                  "time": 22.694313,
                  "velocity": 0.5511811023622047
              },
              {
                  "duration": 0.19938482468750252,
                  "durationTicks": 6157,
                  "midi": 60,
                  "name": "C4",
                  "ticks": 705600,
                  "time": 22.849753500000002,
                  "velocity": 0.5275590551181102
              },
              {
                  "duration": 0.2284651515625029,
                  "durationTicks": 7055,
                  "midi": 41,
                  "name": "F2",
                  "ticks": 715200,
                  "time": 23.1606345,
                  "velocity": 0.7007874015748031
              },
              {
                  "duration": 0.15625008593750067,
                  "durationTicks": 4825,
                  "midi": 53,
                  "name": "F3",
                  "ticks": 720000,
                  "time": 23.316075,
                  "velocity": 0.6771653543307087
              },
              {
                  "duration": 0.2127268009374994,
                  "durationTicks": 6569,
                  "midi": 41,
                  "name": "F2",
                  "ticks": 724800,
                  "time": 23.471515500000002,
                  "velocity": 0.4251968503937008
              },
              {
                  "duration": 0.19154803281249855,
                  "durationTicks": 5915,
                  "midi": 53,
                  "name": "F3",
                  "ticks": 724800,
                  "time": 23.471515500000002,
                  "velocity": 0.4330708661417323
              },
              {
                  "duration": 0.2127268009374994,
                  "durationTicks": 6569,
                  "midi": 60,
                  "name": "C4",
                  "ticks": 724800,
                  "time": 23.471515500000002,
                  "velocity": 0.41732283464566927
              },
              {
                  "duration": 0.4806025959375013,
                  "durationTicks": 14841,
                  "midi": 29,
                  "name": "F1",
                  "ticks": 729600,
                  "time": 23.626956,
                  "velocity": 0.8661417322834646
              },
              {
                  "duration": 0.4081284628125026,
                  "durationTicks": 12603,
                  "midi": 41,
                  "name": "F2",
                  "ticks": 734400,
                  "time": 23.7823965,
                  "velocity": 0.5511811023622047
              },
              {
                  "duration": 0.29941726312500094,
                  "durationTicks": 9246,
                  "midi": 60,
                  "name": "C4",
                  "ticks": 739200,
                  "time": 23.937837000000002,
                  "velocity": 0.47244094488188976
              },
              {
                  "duration": 0.22606877718749985,
                  "durationTicks": 6981,
                  "midi": 53,
                  "name": "F3",
                  "ticks": 744000,
                  "time": 24.093277500000003,
                  "velocity": 0.6456692913385826
              },
              {
                  "duration": 0.18976694375000136,
                  "durationTicks": 5860,
                  "midi": 41,
                  "name": "F2",
                  "ticks": 753600,
                  "time": 24.4041585,
                  "velocity": 0.7401574803149606
              },
              {
                  "duration": 0.15534334968749874,
                  "durationTicks": 4797,
                  "midi": 53,
                  "name": "F3",
                  "ticks": 758400,
                  "time": 24.559599000000002,
                  "velocity": 0.6850393700787402
              },
              {
                  "duration": 0.2177462337499989,
                  "durationTicks": 6724,
                  "midi": 41,
                  "name": "F2",
                  "ticks": 763200,
                  "time": 24.715039500000003,
                  "velocity": 0.48031496062992124
              },
              {
                  "duration": 0.1965998490624976,
                  "durationTicks": 6071,
                  "midi": 53,
                  "name": "F3",
                  "ticks": 763200,
                  "time": 24.715039500000003,
                  "velocity": 0.5511811023622047
              },
              {
                  "duration": 0.1559262515625015,
                  "durationTicks": 4815,
                  "midi": 41,
                  "name": "F2",
                  "ticks": 772800,
                  "time": 25.0259205,
                  "velocity": 0.6220472440944882
              },
              {
                  "duration": 0.16045993281250048,
                  "durationTicks": 4955,
                  "midi": 53,
                  "name": "F3",
                  "ticks": 772800,
                  "time": 25.0259205,
                  "velocity": 0.5984251968503937
              },
              {
                  "duration": 0.3853305228124988,
                  "durationTicks": 11899,
                  "midi": 41,
                  "name": "F2",
                  "ticks": 777600,
                  "time": 25.181361000000003,
                  "velocity": 0.7007874015748031
              },
              {
                  "duration": 0.23001955656250317,
                  "durationTicks": 7103,
                  "midi": 53,
                  "name": "F3",
                  "ticks": 782400,
                  "time": 25.3368015,
                  "velocity": 0.5511811023622047
              },
              {
                  "duration": 0.23001955656250317,
                  "durationTicks": 7103,
                  "midi": 60,
                  "name": "C4",
                  "ticks": 782400,
                  "time": 25.3368015,
                  "velocity": 0.44881889763779526
              },
              {
                  "duration": 0.42007795124999703,
                  "durationTicks": 12972,
                  "midi": 29,
                  "name": "F1",
                  "ticks": 806400,
                  "time": 26.114004,
                  "velocity": 0.9291338582677166
              },
              {
                  "duration": 0.31849110781249834,
                  "durationTicks": 9835,
                  "midi": 65,
                  "name": "F4",
                  "ticks": 811200,
                  "time": 26.269444500000002,
                  "velocity": 0.5826771653543307
              },
              {
                  "duration": 0.39099762437499663,
                  "durationTicks": 12074,
                  "midi": 41,
                  "name": "F2",
                  "ticks": 816000,
                  "time": 26.424885000000003,
                  "velocity": 0.6141732283464567
              },
              {
                  "duration": 0.2780765778125023,
                  "durationTicks": 8587,
                  "midi": 29,
                  "name": "F1",
                  "ticks": 820800,
                  "time": 26.5803255,
                  "velocity": 0.8818897637795275
              },
              {
                  "duration": 0.15320604281249928,
                  "durationTicks": 4731,
                  "midi": 29,
                  "name": "F1",
                  "ticks": 830400,
                  "time": 26.891206500000003,
                  "velocity": 0.9133858267716536
              },
              {
                  "duration": 0.15320604281249928,
                  "durationTicks": 4731,
                  "midi": 60,
                  "name": "C4",
                  "ticks": 830400,
                  "time": 26.891206500000003,
                  "velocity": 0.5905511811023622
              },
              {
                  "duration": 0.1504858340625006,
                  "durationTicks": 4647,
                  "midi": 29,
                  "name": "F1",
                  "ticks": 835200,
                  "time": 27.046647,
                  "velocity": 0.8582677165354331
              },
              {
                  "duration": 0.1504858340625006,
                  "durationTicks": 4647,
                  "midi": 57,
                  "name": "A3",
                  "ticks": 835200,
                  "time": 27.046647,
                  "velocity": 0.44881889763779526
              },
              {
                  "duration": 0.38319321593749933,
                  "durationTicks": 11833,
                  "midi": 60,
                  "name": "C4",
                  "ticks": 835200,
                  "time": 27.046647,
                  "velocity": 0.5118110236220472
              },
              {
                  "duration": 0.36204683125000514,
                  "durationTicks": 11180,
                  "midi": 65,
                  "name": "F4",
                  "ticks": 835200,
                  "time": 27.046647,
                  "velocity": 0.4251968503937008
              },
              {
                  "duration": 0.20582912875000048,
                  "durationTicks": 6356,
                  "midi": 29,
                  "name": "F1",
                  "ticks": 840000,
                  "time": 27.2020875,
                  "velocity": 0.9133858267716536
              },
              {
                  "duration": 0.34727998374999913,
                  "durationTicks": 10724,
                  "midi": 48,
                  "name": "C3",
                  "ticks": 844800,
                  "time": 27.357528000000002,
                  "velocity": 0.3937007874015748
              },
              {
                  "duration": 0.14851044437499894,
                  "durationTicks": 4586,
                  "midi": 29,
                  "name": "F1",
                  "ticks": 849600,
                  "time": 27.512968500000003,
                  "velocity": 0.9291338582677166
              },
              {
                  "duration": 0.1431347937500007,
                  "durationTicks": 4420,
                  "midi": 29,
                  "name": "F1",
                  "ticks": 854400,
                  "time": 27.668409,
                  "velocity": 0.9212598425196851
              },
              {
                  "duration": 0.19909337374999936,
                  "durationTicks": 6148,
                  "midi": 29,
                  "name": "F1",
                  "ticks": 859200,
                  "time": 27.8238495,
                  "velocity": 0.9212598425196851
              },
              {
                  "duration": 0.15469568093749686,
                  "durationTicks": 4777,
                  "midi": 29,
                  "name": "F1",
                  "ticks": 868800,
                  "time": 28.134730500000003,
                  "velocity": 0.9212598425196851
              },
              {
                  "duration": 0.1625000893749977,
                  "durationTicks": 5018,
                  "midi": 60,
                  "name": "C4",
                  "ticks": 868800,
                  "time": 28.134730500000003,
                  "velocity": 0.6141732283464567
              },
              {
                  "duration": 0.15589386812500194,
                  "durationTicks": 4814,
                  "midi": 29,
                  "name": "F1",
                  "ticks": 873600,
                  "time": 28.290171,
                  "velocity": 0.9212598425196851
              },
              {
                  "duration": 0.20945607375000108,
                  "durationTicks": 6468,
                  "midi": 29,
                  "name": "F1",
                  "ticks": 878400,
                  "time": 28.445611500000002,
                  "velocity": 0.9133858267716536
              },
              {
                  "duration": 0.4960171121875021,
                  "durationTicks": 15317,
                  "midi": 65,
                  "name": "F4",
                  "ticks": 883200,
                  "time": 28.601052000000003,
                  "velocity": 0.4645669291338583
              },
              {
                  "duration": 0.1546956809375004,
                  "durationTicks": 4777,
                  "midi": 29,
                  "name": "F1",
                  "ticks": 888000,
                  "time": 28.7564925,
                  "velocity": 0.9291338582677166
              },
              {
                  "duration": 0.1758420656250017,
                  "durationTicks": 5430,
                  "midi": 60,
                  "name": "C4",
                  "ticks": 888000,
                  "time": 28.7564925,
                  "velocity": 0.5511811023622047
              },
              {
                  "duration": 0.14591976937500206,
                  "durationTicks": 4506,
                  "midi": 29,
                  "name": "F1",
                  "ticks": 892800,
                  "time": 28.911933,
                  "velocity": 0.9291338582677166
              },
              {
                  "duration": 0.22351048562499898,
                  "durationTicks": 6902,
                  "midi": 29,
                  "name": "F1",
                  "ticks": 897600,
                  "time": 29.067373500000002,
                  "velocity": 0.9212598425196851
              },
              {
                  "duration": 0.15314127593750015,
                  "durationTicks": 4729,
                  "midi": 53,
                  "name": "F3",
                  "ticks": 902400,
                  "time": 29.222814000000003,
                  "velocity": 0.3464566929133858
              },
              {
                  "duration": 0.15314127593750015,
                  "durationTicks": 4729,
                  "midi": 60,
                  "name": "C4",
                  "ticks": 902400,
                  "time": 29.222814000000003,
                  "velocity": 0.23622047244094488
              },
              {
                  "duration": 0.14598453625000118,
                  "durationTicks": 4508,
                  "midi": 29,
                  "name": "F1",
                  "ticks": 907200,
                  "time": 29.3782545,
                  "velocity": 0.9291338582677166
              },
              {
                  "duration": 0.18830968906249979,
                  "durationTicks": 5815,
                  "midi": 60,
                  "name": "C4",
                  "ticks": 907200,
                  "time": 29.3782545,
                  "velocity": 0.6062992125984252
              },
              {
                  "duration": 0.1546956809375004,
                  "durationTicks": 4777,
                  "midi": 29,
                  "name": "F1",
                  "ticks": 912000,
                  "time": 29.533695,
                  "velocity": 0.9291338582677166
              },
              {
                  "duration": 0.19488352687499955,
                  "durationTicks": 6018,
                  "midi": 29,
                  "name": "F1",
                  "ticks": 916800,
                  "time": 29.689135500000003,
                  "velocity": 0.9212598425196851
              },
              {
                  "duration": 0.465414763750001,
                  "durationTicks": 14372,
                  "midi": 29,
                  "name": "F1",
                  "ticks": 960000,
                  "time": 31.0881,
                  "velocity": 0.9212598425196851
              },
              {
                  "duration": 0.3472799837499956,
                  "durationTicks": 10724,
                  "midi": 41,
                  "name": "F2",
                  "ticks": 969600,
                  "time": 31.398981000000003,
                  "velocity": 0.5669291338582677
              },
              {
                  "duration": 0.3020403215625045,
                  "durationTicks": 9327,
                  "midi": 29,
                  "name": "F1",
                  "ticks": 984000,
                  "time": 31.865302500000002,
                  "velocity": 0.9291338582677166
              },
              {
                  "duration": 0.24634080906250233,
                  "durationTicks": 7607,
                  "midi": 29,
                  "name": "F1",
                  "ticks": 993600,
                  "time": 32.1761835,
                  "velocity": 0.9212598425196851
              },
              {
                  "duration": 0.3128563896874965,
                  "durationTicks": 9661,
                  "midi": 29,
                  "name": "F1",
                  "ticks": 1003200,
                  "time": 32.4870645,
                  "velocity": 0.9212598425196851
              },
              {
                  "duration": 0.16722807125000116,
                  "durationTicks": 5164,
                  "midi": 41,
                  "name": "F2",
                  "ticks": 1008000,
                  "time": 32.642505,
                  "velocity": 0.8031496062992126
              },
              {
                  "duration": 0.19022031187499522,
                  "durationTicks": 5874,
                  "midi": 29,
                  "name": "F1",
                  "ticks": 1012800,
                  "time": 32.797945500000004,
                  "velocity": 0.937007874015748
              },
              {
                  "duration": 0.21428120593750322,
                  "durationTicks": 6617,
                  "midi": 29,
                  "name": "F1",
                  "ticks": 1017600,
                  "time": 32.953386,
                  "velocity": 0.889763779527559
              },
              {
                  "duration": 0.18134725000000174,
                  "durationTicks": 5600,
                  "midi": 48,
                  "name": "C3",
                  "ticks": 1022400,
                  "time": 33.1088265,
                  "velocity": 0.8976377952755905
              },
              {
                  "duration": 0.2584522146875017,
                  "durationTicks": 7981,
                  "midi": 38,
                  "name": "D2",
                  "ticks": 1027200,
                  "time": 33.264267000000004,
                  "velocity": 0.5748031496062992
              },
              {
                  "duration": 0.2161594453124991,
                  "durationTicks": 6675,
                  "midi": 50,
                  "name": "D3",
                  "ticks": 1027200,
                  "time": 33.264267000000004,
                  "velocity": 0.84251968503937
              },
              {
                  "duration": 0.20955322406250332,
                  "durationTicks": 6471,
                  "midi": 53,
                  "name": "F3",
                  "ticks": 1032000,
                  "time": 33.4197075,
                  "velocity": 0.8740157480314961
              },
              {
                  "duration": 0.41713105843749787,
                  "durationTicks": 12881,
                  "midi": 26,
                  "name": "D1",
                  "ticks": 1039200,
                  "time": 33.652868250000004,
                  "velocity": 0.9133858267716536
              },
              {
                  "duration": 0.1262630228125019,
                  "durationTicks": 3899,
                  "midi": 50,
                  "name": "D3",
                  "ticks": 1046400,
                  "time": 33.886029,
                  "velocity": 0.7165354330708661
              },
              {
                  "duration": 0.23474753843749596,
                  "durationTicks": 7249,
                  "midi": 38,
                  "name": "D2",
                  "ticks": 1051200,
                  "time": 34.041469500000005,
                  "velocity": 0.6377952755905512
              },
              {
                  "duration": 0.29158047125000053,
                  "durationTicks": 9004,
                  "midi": 26,
                  "name": "D1",
                  "ticks": 1060800,
                  "time": 34.3523505,
                  "velocity": 0.9291338582677166
              },
              {
                  "duration": 0.18613999875000076,
                  "durationTicks": 5748,
                  "midi": 50,
                  "name": "D3",
                  "ticks": 1063200,
                  "time": 34.43007075,
                  "velocity": 0.5669291338582677
              },
              {
                  "duration": 0.21376307093750313,
                  "durationTicks": 6601,
                  "midi": 26,
                  "name": "D1",
                  "ticks": 1070400,
                  "time": 34.6632315,
                  "velocity": 0.9133858267716536
              },
              {
                  "duration": 0.30440431249999733,
                  "durationTicks": 9400,
                  "midi": 36,
                  "name": "C2",
                  "ticks": 1080000,
                  "time": 34.974112500000004,
                  "velocity": 0.937007874015748
              },
              {
                  "duration": 0.22500012375000011,
                  "durationTicks": 6948,
                  "midi": 36,
                  "name": "C2",
                  "ticks": 1089600,
                  "time": 35.2849935,
                  "velocity": 0.9212598425196851
              },
              {
                  "duration": 0.23254546468749737,
                  "durationTicks": 7181,
                  "midi": 48,
                  "name": "C3",
                  "ticks": 1099200,
                  "time": 35.5958745,
                  "velocity": 0.6692913385826772
              },
              {
                  "duration": 0.2194301724999974,
                  "durationTicks": 6776,
                  "midi": 50,
                  "name": "D3",
                  "ticks": 1104000,
                  "time": 35.751315000000005,
                  "velocity": 0.6141732283464567
              },
              {
                  "duration": 0.42085515375000426,
                  "durationTicks": 12996,
                  "midi": 34,
                  "name": "A#1",
                  "ticks": 1113600,
                  "time": 36.062196,
                  "velocity": 0.9133858267716536
              },
              {
                  "duration": 0.22950142156250308,
                  "durationTicks": 7087,
                  "midi": 46,
                  "name": "A#2",
                  "ticks": 1128000,
                  "time": 36.5285175,
                  "velocity": 0.6299212598425197
              },
              {
                  "duration": 0.1872086521875005,
                  "durationTicks": 5781,
                  "midi": 53,
                  "name": "F3",
                  "ticks": 1128000,
                  "time": 36.5285175,
                  "velocity": 0.4330708661417323
              },
              {
                  "duration": 0.29990301468750147,
                  "durationTicks": 9261,
                  "midi": 34,
                  "name": "A#1",
                  "ticks": 1137600,
                  "time": 36.8393985,
                  "velocity": 0.9448818897637795
              },
              {
                  "duration": 0.2434910665624983,
                  "durationTicks": 7519,
                  "midi": 34,
                  "name": "A#1",
                  "ticks": 1147200,
                  "time": 37.1502795,
                  "velocity": 0.937007874015748
              },
              {
                  "duration": 0.3105895490624917,
                  "durationTicks": 9591,
                  "midi": 34,
                  "name": "A#1",
                  "ticks": 1156800,
                  "time": 37.461160500000005,
                  "velocity": 0.9291338582677166
              },
              {
                  "duration": 0.3707579759375008,
                  "durationTicks": 11449,
                  "midi": 46,
                  "name": "A#2",
                  "ticks": 1161600,
                  "time": 37.616601,
                  "velocity": 0.6771653543307087
              },
              {
                  "duration": 0.15136018687500297,
                  "durationTicks": 4674,
                  "midi": 34,
                  "name": "A#1",
                  "ticks": 1166400,
                  "time": 37.7720415,
                  "velocity": 0.937007874015748
              },
              {
                  "duration": 0.2735428965624962,
                  "durationTicks": 8447,
                  "midi": 34,
                  "name": "A#1",
                  "ticks": 1171200,
                  "time": 37.927482000000005,
                  "velocity": 0.8740157480314961
              },
              {
                  "duration": 0.15566718406250146,
                  "durationTicks": 4807,
                  "midi": 46,
                  "name": "A#2",
                  "ticks": 1176000,
                  "time": 38.0829225,
                  "velocity": 0.7165354330708661
              },
              {
                  "duration": 0.15566718406250146,
                  "durationTicks": 4807,
                  "midi": 53,
                  "name": "F3",
                  "ticks": 1176000,
                  "time": 38.0829225,
                  "velocity": 0.5905511811023622
              },
              {
                  "duration": 0.36185253062500067,
                  "durationTicks": 11174,
                  "midi": 46,
                  "name": "A#2",
                  "ticks": 1180800,
                  "time": 38.238363,
                  "velocity": 0.8110236220472441
              },
              {
                  "duration": 0.36185253062500067,
                  "durationTicks": 11174,
                  "midi": 53,
                  "name": "F3",
                  "ticks": 1180800,
                  "time": 38.238363,
                  "velocity": 0.7795275590551181
              },
              {
                  "duration": 0.3051167481250019,
                  "durationTicks": 9422,
                  "midi": 31,
                  "name": "G1",
                  "ticks": 1190400,
                  "time": 38.549244,
                  "velocity": 0.9212598425196851
              },
              {
                  "duration": 0.22742888156249563,
                  "durationTicks": 7023,
                  "midi": 31,
                  "name": "G1",
                  "ticks": 1200000,
                  "time": 38.860125000000004,
                  "velocity": 0.937007874015748
              },
              {
                  "duration": 0.22059597625000293,
                  "durationTicks": 6812,
                  "midi": 33,
                  "name": "A1",
                  "ticks": 1204800,
                  "time": 39.0155655,
                  "velocity": 0.9133858267716536
              },
              {
                  "duration": 0.22665167906249906,
                  "durationTicks": 6999,
                  "midi": 33,
                  "name": "A1",
                  "ticks": 1214400,
                  "time": 39.3264465,
                  "velocity": 0.9291338582677166
              },
              {
                  "duration": 0.3039185609375039,
                  "durationTicks": 9385,
                  "midi": 34,
                  "name": "A#1",
                  "ticks": 1219200,
                  "time": 39.481887,
                  "velocity": 0.9133858267716536
              },
              {
                  "duration": 0.21871773687499996,
                  "durationTicks": 6754,
                  "midi": 36,
                  "name": "C2",
                  "ticks": 1233600,
                  "time": 39.9482085,
                  "velocity": 0.9291338582677166
              },
              {
                  "duration": 0.1551166656249947,
                  "durationTicks": 4790,
                  "midi": 36,
                  "name": "C2",
                  "ticks": 1243200,
                  "time": 40.2590895,
                  "velocity": 0.9212598425196851
              },
              {
                  "duration": 0.3024289228125028,
                  "durationTicks": 9339,
                  "midi": 36,
                  "name": "C2",
                  "ticks": 1248000,
                  "time": 40.41453,
                  "velocity": 0.9133858267716536
              },
              {
                  "duration": 0.37208569687500415,
                  "durationTicks": 11490,
                  "midi": 36,
                  "name": "C2",
                  "ticks": 1257600,
                  "time": 40.725411,
                  "velocity": 0.9291338582677166
              },
              {
                  "duration": 0.43623728656250194,
                  "durationTicks": 13471,
                  "midi": 29,
                  "name": "F1",
                  "ticks": 1267200,
                  "time": 41.036292,
                  "velocity": 0.9212598425196851
              },
              {
                  "duration": 0.1550518987499956,
                  "durationTicks": 4788,
                  "midi": 53,
                  "name": "F3",
                  "ticks": 1276800,
                  "time": 41.347173000000005,
                  "velocity": 0.8976377952755905
              },
              {
                  "duration": 0.4200779512500006,
                  "durationTicks": 12972,
                  "midi": 41,
                  "name": "F2",
                  "ticks": 1281600,
                  "time": 41.5026135,
                  "velocity": 0.33070866141732286
              },
              {
                  "duration": 0.1872086521875076,
                  "durationTicks": 5781,
                  "midi": 53,
                  "name": "F3",
                  "ticks": 1281600,
                  "time": 41.5026135,
                  "velocity": 0.5984251968503937
              },
              {
                  "duration": 0.298963895,
                  "durationTicks": 9232,
                  "midi": 29,
                  "name": "F1",
                  "ticks": 1291200,
                  "time": 41.813494500000004,
                  "velocity": 0.9291338582677166
              },
              {
                  "duration": 0.2208874271875061,
                  "durationTicks": 6821,
                  "midi": 29,
                  "name": "F1",
                  "ticks": 1300800,
                  "time": 42.1243755,
                  "velocity": 0.9291338582677166
              },
              {
                  "duration": 0.31149628531250073,
                  "durationTicks": 9619,
                  "midi": 29,
                  "name": "F1",
                  "ticks": 1310400,
                  "time": 42.4352565,
                  "velocity": 0.937007874015748
              },
              {
                  "duration": 0.18439129312499603,
                  "durationTicks": 5694,
                  "midi": 29,
                  "name": "F1",
                  "ticks": 1320000,
                  "time": 42.7461375,
                  "velocity": 0.9448818897637795
              },
              {
                  "duration": 0.2395402871875021,
                  "durationTicks": 7397,
                  "midi": 29,
                  "name": "F1",
                  "ticks": 1324800,
                  "time": 42.901578,
                  "velocity": 0.9133858267716536
              },
              {
                  "duration": 0.2213731787499995,
                  "durationTicks": 6836,
                  "midi": 48,
                  "name": "C3",
                  "ticks": 1329600,
                  "time": 43.057018500000005,
                  "velocity": 0.8976377952755905
              },
              {
                  "duration": 0.23419701999999631,
                  "durationTicks": 7232,
                  "midi": 50,
                  "name": "D3",
                  "ticks": 1334400,
                  "time": 43.212459,
                  "velocity": 0.889763779527559
              },
              {
                  "duration": 0.24750661281250075,
                  "durationTicks": 7643,
                  "midi": 41,
                  "name": "F2",
                  "ticks": 1339200,
                  "time": 43.3678995,
                  "velocity": 0.5590551181102362
              },
              {
                  "duration": 0.22632784468750344,
                  "durationTicks": 6989,
                  "midi": 53,
                  "name": "F3",
                  "ticks": 1339200,
                  "time": 43.3678995,
                  "velocity": 0.8976377952755905
              },
              {
                  "duration": 0.4306025684375001,
                  "durationTicks": 13297,
                  "midi": 26,
                  "name": "D1",
                  "ticks": 1344000,
                  "time": 43.523340000000005,
                  "velocity": 0.8818897637795275
              },
              {
                  "duration": 0.49410648937499246,
                  "durationTicks": 15258,
                  "midi": 65,
                  "name": "F4",
                  "ticks": 1344000,
                  "time": 43.523340000000005,
                  "velocity": 0.8661417322834646
              },
              {
                  "duration": 0.3165157181249967,
                  "durationTicks": 9774,
                  "midi": 38,
                  "name": "D2",
                  "ticks": 1348800,
                  "time": 43.6787805,
                  "velocity": 0.6377952755905512
              },
              {
                  "duration": 0.16975397937500247,
                  "durationTicks": 5242,
                  "midi": 50,
                  "name": "D3",
                  "ticks": 1353600,
                  "time": 43.834221,
                  "velocity": 0.5511811023622047
              },
              {
                  "duration": 0.3391193575000031,
                  "durationTicks": 10472,
                  "midi": 57,
                  "name": "A3",
                  "ticks": 1353600,
                  "time": 43.834221,
                  "velocity": 0.4094488188976378
              },
              {
                  "duration": 0.23950790375000253,
                  "durationTicks": 7396,
                  "midi": 38,
                  "name": "D2",
                  "ticks": 1358400,
                  "time": 43.989661500000004,
                  "velocity": 0.6062992125984252
              },
              {
                  "duration": 0.2606866718749927,
                  "durationTicks": 8050,
                  "midi": 66,
                  "name": "F#4",
                  "ticks": 1358400,
                  "time": 43.989661500000004,
                  "velocity": 0.3779527559055118
              },
              {
                  "duration": 0.2900584496874927,
                  "durationTicks": 8957,
                  "midi": 26,
                  "name": "D1",
                  "ticks": 1368000,
                  "time": 44.300542500000006,
                  "velocity": 0.9291338582677166
              },
              {
                  "duration": 0.23131489406250694,
                  "durationTicks": 7143,
                  "midi": 26,
                  "name": "D1",
                  "ticks": 1377600,
                  "time": 44.6114235,
                  "velocity": 0.9212598425196851
              },
              {
                  "duration": 0.2101685093750021,
                  "durationTicks": 6490,
                  "midi": 57,
                  "name": "A3",
                  "ticks": 1377600,
                  "time": 44.6114235,
                  "velocity": 0.5039370078740157
              },
              {
                  "duration": 0.3015545700000004,
                  "durationTicks": 9312,
                  "midi": 36,
                  "name": "C2",
                  "ticks": 1387200,
                  "time": 44.9223045,
                  "velocity": 0.9448818897637795
              },
              {
                  "duration": 0.15382132812499805,
                  "durationTicks": 4750,
                  "midi": 36,
                  "name": "C2",
                  "ticks": 1396800,
                  "time": 45.233185500000005,
                  "velocity": 0.937007874015748
              },
              {
                  "duration": 0.21807006812500163,
                  "durationTicks": 6734,
                  "midi": 36,
                  "name": "C2",
                  "ticks": 1401600,
                  "time": 45.388626,
                  "velocity": 0.9212598425196851
              },
              {
                  "duration": 0.21010374250000297,
                  "durationTicks": 6488,
                  "midi": 36,
                  "name": "C2",
                  "ticks": 1406400,
                  "time": 45.5440665,
                  "velocity": 0.6377952755905512
              },
              {
                  "duration": 0.21010374250000297,
                  "durationTicks": 6488,
                  "midi": 48,
                  "name": "C3",
                  "ticks": 1406400,
                  "time": 45.5440665,
                  "velocity": 0.7007874015748031
              },
              {
                  "duration": 0.22182654687499337,
                  "durationTicks": 6850,
                  "midi": 50,
                  "name": "D3",
                  "ticks": 1411200,
                  "time": 45.699507000000004,
                  "velocity": 0.7716535433070866
              },
              {
                  "duration": 0.442746357499999,
                  "durationTicks": 13672,
                  "midi": 34,
                  "name": "A#1",
                  "ticks": 1423200,
                  "time": 46.088108250000005,
                  "velocity": 0.9212598425196851
              },
              {
                  "duration": 0.20696254906249578,
                  "durationTicks": 6391,
                  "midi": 46,
                  "name": "A#2",
                  "ticks": 1435200,
                  "time": 46.476709500000005,
                  "velocity": 0.6614173228346457
              },
              {
                  "duration": 0.29974109750000366,
                  "durationTicks": 9256,
                  "midi": 34,
                  "name": "A#1",
                  "ticks": 1444800,
                  "time": 46.7875905,
                  "velocity": 0.9291338582677166
              },
              {
                  "duration": 0.2419690450000047,
                  "durationTicks": 7472,
                  "midi": 34,
                  "name": "A#1",
                  "ticks": 1454400,
                  "time": 47.0984715,
                  "velocity": 0.9212598425196851
              },
              {
                  "duration": 0.3327722037499967,
                  "durationTicks": 10276,
                  "midi": 34,
                  "name": "A#1",
                  "ticks": 1464000,
                  "time": 47.409352500000004,
                  "velocity": 0.952755905511811
              },
              {
                  "duration": 0.23348458437499886,
                  "durationTicks": 7210,
                  "midi": 46,
                  "name": "A#2",
                  "ticks": 1473600,
                  "time": 47.720233500000006,
                  "velocity": 0.7480314960629921
              },
              {
                  "duration": 0.27030455281250454,
                  "durationTicks": 8347,
                  "midi": 34,
                  "name": "A#1",
                  "ticks": 1478400,
                  "time": 47.875674000000004,
                  "velocity": 0.8976377952755905
              },
              {
                  "duration": 0.1990286068750038,
                  "durationTicks": 6146,
                  "midi": 46,
                  "name": "A#2",
                  "ticks": 1483200,
                  "time": 48.0311145,
                  "velocity": 0.7874015748031497
              },
              {
                  "duration": 0.1493847971875013,
                  "durationTicks": 4613,
                  "midi": 53,
                  "name": "F3",
                  "ticks": 1488000,
                  "time": 48.186555000000006,
                  "velocity": 0.5433070866141733
              },
              {
                  "duration": 0.207027315937502,
                  "durationTicks": 6393,
                  "midi": 46,
                  "name": "A#2",
                  "ticks": 1492800,
                  "time": 48.3419955,
                  "velocity": 0.7322834645669292
              },
              {
                  "duration": 0.24935246875000416,
                  "durationTicks": 7700,
                  "midi": 53,
                  "name": "F3",
                  "ticks": 1492800,
                  "time": 48.3419955,
                  "velocity": 0.6299212598425197
              },
              {
                  "duration": 0.3882450321874984,
                  "durationTicks": 11989,
                  "midi": 31,
                  "name": "G1",
                  "ticks": 1495200,
                  "time": 48.41971575,
                  "velocity": 0.8818897637795275
              },
              {
                  "duration": 0.32538877999999727,
                  "durationTicks": 10048,
                  "midi": 33,
                  "name": "A1",
                  "ticks": 1512000,
                  "time": 48.9637575,
                  "velocity": 0.9212598425196851
              },
              {
                  "duration": 0.31755198812499685,
                  "durationTicks": 9806,
                  "midi": 34,
                  "name": "A#1",
                  "ticks": 1526400,
                  "time": 49.430079000000006,
                  "velocity": 0.8740157480314961
              },
              {
                  "duration": 0.473996374687502,
                  "durationTicks": 14637,
                  "midi": 29,
                  "name": "F1",
                  "ticks": 1574400,
                  "time": 50.984484,
                  "velocity": 0.8661417322834646
              },
              {
                  "duration": 0.15906744499999093,
                  "durationTicks": 4912,
                  "midi": 41,
                  "name": "F2",
                  "ticks": 1579200,
                  "time": 51.139924500000006,
                  "velocity": 0.4015748031496063
              },
              {
                  "duration": 0.3072864384375009,
                  "durationTicks": 9489,
                  "midi": 53,
                  "name": "F3",
                  "ticks": 1579200,
                  "time": 51.139924500000006,
                  "velocity": 0.6929133858267716
              },
              {
                  "duration": 0.27908046437499934,
                  "durationTicks": 8618,
                  "midi": 29,
                  "name": "F1",
                  "ticks": 1598400,
                  "time": 51.7616865,
                  "velocity": 0.9291338582677166
              },
              {
                  "duration": 0.22166462968749556,
                  "durationTicks": 6845,
                  "midi": 34,
                  "name": "A#1",
                  "ticks": 1608000,
                  "time": 52.072567500000005,
                  "velocity": 0.8740157480314961
              },
              {
                  "duration": 0.47376969062499796,
                  "durationTicks": 14630,
                  "midi": 31,
                  "name": "G1",
                  "ticks": 1651200,
                  "time": 53.471532,
                  "velocity": 0.84251968503937
              },
              {
                  "duration": 0.268393930000002,
                  "durationTicks": 8288,
                  "midi": 31,
                  "name": "G1",
                  "ticks": 1675200,
                  "time": 54.248734500000005,
                  "velocity": 0.9212598425196851
              },
              {
                  "duration": 0.2124353499999998,
                  "durationTicks": 6560,
                  "midi": 24,
                  "name": "C1",
                  "ticks": 1684800,
                  "time": 54.55961550000001,
                  "velocity": 0.9291338582677166
              },
              {
                  "duration": 0.44533703249999945,
                  "durationTicks": 13752,
                  "midi": 48,
                  "name": "C3",
                  "ticks": 1684800,
                  "time": 54.55961550000001,
                  "velocity": 0.4881889763779528
              },
              {
                  "duration": 0.42347821218750425,
                  "durationTicks": 13077,
                  "midi": 24,
                  "name": "C1",
                  "ticks": 1692000,
                  "time": 54.79277625,
                  "velocity": 0.7637795275590551
              },
              {
                  "duration": 0.5070274809374951,
                  "durationTicks": 15657,
                  "midi": 26,
                  "name": "D1",
                  "ticks": 1728000,
                  "time": 55.958580000000005,
                  "velocity": 0.84251968503937
              },
              {
                  "duration": 0.27998720062499416,
                  "durationTicks": 8646,
                  "midi": 26,
                  "name": "D1",
                  "ticks": 1752000,
                  "time": 56.735782500000006,
                  "velocity": 0.9133858267716536
              },
              {
                  "duration": 0.22364001937500433,
                  "durationTicks": 6906,
                  "midi": 34,
                  "name": "A#1",
                  "ticks": 1761600,
                  "time": 57.0466635,
                  "velocity": 0.8267716535433071
              },
              {
                  "duration": 0.48063497937499733,
                  "durationTicks": 14842,
                  "midi": 53,
                  "name": "F3",
                  "ticks": 1766400,
                  "time": 57.202104000000006,
                  "velocity": 0.4645669291338583
              },
              {
                  "duration": 0.47545362937499647,
                  "durationTicks": 14682,
                  "midi": 31,
                  "name": "G1",
                  "ticks": 1804800,
                  "time": 58.445628000000006,
                  "velocity": 0.889763779527559
              },
              {
                  "duration": 0.47419067531249937,
                  "durationTicks": 14643,
                  "midi": 33,
                  "name": "A1",
                  "ticks": 1819200,
                  "time": 58.911949500000006,
                  "velocity": 0.9212598425196851
              },
              {
                  "duration": 0.3912890753124998,
                  "durationTicks": 12083,
                  "midi": 34,
                  "name": "A#1",
                  "ticks": 1833600,
                  "time": 59.378271000000005,
                  "velocity": 0.8976377952755905
              },
              {
                  "duration": 0.4590676099999982,
                  "durationTicks": 14176,
                  "midi": 29,
                  "name": "F1",
                  "ticks": 1881600,
                  "time": 60.932676,
                  "velocity": 0.9212598425196851
              },
              {
                  "duration": 0.30909991093749767,
                  "durationTicks": 9545,
                  "midi": 34,
                  "name": "A#1",
                  "ticks": 1888800,
                  "time": 61.165836750000004,
                  "velocity": 0.5118110236220472
              },
              {
                  "duration": 0.21042757687499858,
                  "durationTicks": 6498,
                  "midi": 53,
                  "name": "F3",
                  "ticks": 1896000,
                  "time": 61.3989975,
                  "velocity": 0.7165354330708661
              },
              {
                  "duration": 0.5016518303124968,
                  "durationTicks": 15491,
                  "midi": 31,
                  "name": "G1",
                  "ticks": 1900800,
                  "time": 61.554438000000005,
                  "velocity": 0.5669291338582677
              },
              {
                  "duration": 0.27351051312499663,
                  "durationTicks": 8446,
                  "midi": 29,
                  "name": "F1",
                  "ticks": 1910400,
                  "time": 61.86531900000001,
                  "velocity": 0.5354330708661418
              },
              {
                  "duration": 0.3581932021874934,
                  "durationTicks": 11061,
                  "midi": 53,
                  "name": "F3",
                  "ticks": 1910400,
                  "time": 61.86531900000001,
                  "velocity": 0.5039370078740157
              },
              {
                  "duration": 0.4520727875000077,
                  "durationTicks": 13960,
                  "midi": 46,
                  "name": "A#2",
                  "ticks": 1920000,
                  "time": 62.1762,
                  "velocity": 0.8031496062992126
              },
              {
                  "duration": 0.25780454593750335,
                  "durationTicks": 7961,
                  "midi": 46,
                  "name": "A#2",
                  "ticks": 1934400,
                  "time": 62.6425215,
                  "velocity": 0.7086614173228346
              },
              {
                  "duration": 0.38354943374999806,
                  "durationTicks": 11844,
                  "midi": 46,
                  "name": "A#2",
                  "ticks": 1948800,
                  "time": 63.108843,
                  "velocity": 0.6299212598425197
              },
              {
                  "duration": 0.2988667446875013,
                  "durationTicks": 9229,
                  "midi": 53,
                  "name": "F3",
                  "ticks": 1948800,
                  "time": 63.108843,
                  "velocity": 0.5669291338582677
              },
              {
                  "duration": 0.3482514868750002,
                  "durationTicks": 10754,
                  "midi": 43,
                  "name": "G2",
                  "ticks": 1958400,
                  "time": 63.419724,
                  "velocity": 0.7086614173228346
              },
              {
                  "duration": 0.451975637187509,
                  "durationTicks": 13957,
                  "midi": 43,
                  "name": "G2",
                  "ticks": 1972800,
                  "time": 63.8860455,
                  "velocity": 0.6692913385826772
              },
              {
                  "duration": 0.3696569390625086,
                  "durationTicks": 11415,
                  "midi": 43,
                  "name": "G2",
                  "ticks": 1987200,
                  "time": 64.352367,
                  "velocity": 0.7480314960629921
              },
              {
                  "duration": 0.45893807624999283,
                  "durationTicks": 14172,
                  "midi": 48,
                  "name": "C3",
                  "ticks": 1996800,
                  "time": 64.66324800000001,
                  "velocity": 0.7165354330708661
              },
              {
                  "duration": 0.48173601625001083,
                  "durationTicks": 14876,
                  "midi": 48,
                  "name": "C3",
                  "ticks": 2011200,
                  "time": 65.1295695,
                  "velocity": 0.6850393700787402
              },
              {
                  "duration": 0.22606877718749274,
                  "durationTicks": 6981,
                  "midi": 50,
                  "name": "D3",
                  "ticks": 2025600,
                  "time": 65.59589100000001,
                  "velocity": 0.8582677165354331
              },
              {
                  "duration": 0.19857523874999572,
                  "durationTicks": 6132,
                  "midi": 52,
                  "name": "E3",
                  "ticks": 2030400,
                  "time": 65.7513315,
                  "velocity": 0.8503937007874016
              },
              {
                  "duration": 0.36120486187500944,
                  "durationTicks": 11154,
                  "midi": 53,
                  "name": "F3",
                  "ticks": 2035200,
                  "time": 65.906772,
                  "velocity": 0.7322834645669292
              },
              {
                  "duration": 0.27383434749998514,
                  "durationTicks": 8456,
                  "midi": 53,
                  "name": "F3",
                  "ticks": 2049600,
                  "time": 66.37309350000001,
                  "velocity": 0.7480314960629921
              },
              {
                  "duration": 0.3370792009374952,
                  "durationTicks": 10409,
                  "midi": 53,
                  "name": "F3",
                  "ticks": 2064000,
                  "time": 66.839415,
                  "velocity": 0.6771653543307087
              },
              {
                  "duration": 0.36483180687500294,
                  "durationTicks": 11266,
                  "midi": 46,
                  "name": "A#2",
                  "ticks": 2073600,
                  "time": 67.150296,
                  "velocity": 0.6692913385826772
              },
              {
                  "duration": 0.44932019531249523,
                  "durationTicks": 13875,
                  "midi": 46,
                  "name": "A#2",
                  "ticks": 2088000,
                  "time": 67.6166175,
                  "velocity": 0.7244094488188977
              },
              {
                  "duration": 0.36463750624999136,
                  "durationTicks": 11260,
                  "midi": 46,
                  "name": "A#2",
                  "ticks": 2102400,
                  "time": 68.08293900000001,
                  "velocity": 0.7480314960629921
              },
              {
                  "duration": 0.28665818875001037,
                  "durationTicks": 8852,
                  "midi": 43,
                  "name": "G2",
                  "ticks": 2112000,
                  "time": 68.39382,
                  "velocity": 0.6850393700787402
              },
              {
                  "duration": 0.4536595759375075,
                  "durationTicks": 14009,
                  "midi": 43,
                  "name": "G2",
                  "ticks": 2126400,
                  "time": 68.8601415,
                  "velocity": 0.7401574803149606
              },
              {
                  "duration": 0.43251319125000975,
                  "durationTicks": 13356,
                  "midi": 43,
                  "name": "G2",
                  "ticks": 2140800,
                  "time": 69.326463,
                  "velocity": 0.7401574803149606
              },
              {
                  "duration": 0.29268150812501403,
                  "durationTicks": 9038,
                  "midi": 48,
                  "name": "C3",
                  "ticks": 2150400,
                  "time": 69.637344,
                  "velocity": 0.7401574803149606
              },
              {
                  "duration": 0.48380855624999697,
                  "durationTicks": 14940,
                  "midi": 48,
                  "name": "C3",
                  "ticks": 2164800,
                  "time": 70.1036655,
                  "velocity": 0.7401574803149606
              },
              {
                  "duration": 0.2074483006250034,
                  "durationTicks": 6406,
                  "midi": 50,
                  "name": "D3",
                  "ticks": 2179200,
                  "time": 70.569987,
                  "velocity": 0.905511811023622
              },
              {
                  "duration": 0.17920994312500227,
                  "durationTicks": 5534,
                  "midi": 52,
                  "name": "E3",
                  "ticks": 2184000,
                  "time": 70.72542750000001,
                  "velocity": 0.8661417322834646
              },
              {
                  "duration": 0.32069318156250404,
                  "durationTicks": 9903,
                  "midi": 53,
                  "name": "F3",
                  "ticks": 2188800,
                  "time": 70.880868,
                  "velocity": 0.8582677165354331
              },
              {
                  "duration": 0.4337437618749931,
                  "durationTicks": 13394,
                  "midi": 29,
                  "name": "F1",
                  "ticks": 2193600,
                  "time": 71.0363085,
                  "velocity": 0.8661417322834646
              },
              {
                  "duration": 0.14847806093749227,
                  "durationTicks": 4585,
                  "midi": 29,
                  "name": "F1",
                  "ticks": 2208000,
                  "time": 71.50263000000001,
                  "velocity": 0.5748031496062992
              },
              {
                  "duration": 0.16968921249998914,
                  "durationTicks": 5240,
                  "midi": 29,
                  "name": "F1",
                  "ticks": 2210400,
                  "time": 71.58035025000001,
                  "velocity": 0.4094488188976378
              },
              {
                  "duration": 0.2994496465624934,
                  "durationTicks": 9247,
                  "midi": 48,
                  "name": "C3",
                  "ticks": 2212800,
                  "time": 71.65807050000001,
                  "velocity": 0.5433070866141733
              },
              {
                  "duration": 0.21457265687500637,
                  "durationTicks": 6626,
                  "midi": 57,
                  "name": "A3",
                  "ticks": 2212800,
                  "time": 71.65807050000001,
                  "velocity": 0.41732283464566927
              },
              {
                  "duration": 0.23578380843750324,
                  "durationTicks": 7281,
                  "midi": 65,
                  "name": "F4",
                  "ticks": 2212800,
                  "time": 71.65807050000001,
                  "velocity": 0.4881889763779528
              },
              {
                  "duration": 0.15702728843749014,
                  "durationTicks": 4849,
                  "midi": 29,
                  "name": "F1",
                  "ticks": 2217600,
                  "time": 71.813511,
                  "velocity": 0.7007874015748031
              },
              {
                  "duration": 0.6250003437500027,
                  "durationTicks": 19300,
                  "midi": 29,
                  "name": "F1",
                  "ticks": 2222400,
                  "time": 71.9689515,
                  "velocity": 0.7401574803149606
              },
              {
                  "duration": 0.31408696031250827,
                  "durationTicks": 9699,
                  "midi": 41,
                  "name": "F2",
                  "ticks": 2232000,
                  "time": 72.2798325,
                  "velocity": 0.28346456692913385
              },
              {
                  "duration": 0.2928758087500114,
                  "durationTicks": 9044,
                  "midi": 53,
                  "name": "F3",
                  "ticks": 2232000,
                  "time": 72.2798325,
                  "velocity": 0.3543307086614173
              },
              {
                  "duration": 0.2368200784375034,
                  "durationTicks": 7313,
                  "midi": 57,
                  "name": "A3",
                  "ticks": 2241600,
                  "time": 72.5907135,
                  "velocity": 0.33070866141732286
              },
              {
                  "duration": 0.30048591656249357,
                  "durationTicks": 9279,
                  "midi": 48,
                  "name": "C3",
                  "ticks": 2241600,
                  "time": 72.5907135,
                  "velocity": 0.3858267716535433
              },
              {
                  "duration": 0.30048591656249357,
                  "durationTicks": 9279,
                  "midi": 53,
                  "name": "F3",
                  "ticks": 2241600,
                  "time": 72.5907135,
                  "velocity": 0.7322834645669292
              },
              {
                  "duration": 0.3081607912500033,
                  "durationTicks": 9516,
                  "midi": 48,
                  "name": "C3",
                  "ticks": 2251200,
                  "time": 72.9015945,
                  "velocity": 0.4645669291338583
              },
              {
                  "duration": 0.26573848812500955,
                  "durationTicks": 8206,
                  "midi": 53,
                  "name": "F3",
                  "ticks": 2251200,
                  "time": 72.9015945,
                  "velocity": 0.31496062992125984
              },
              {
                  "duration": 0.14695603937499868,
                  "durationTicks": 4538,
                  "midi": 29,
                  "name": "F1",
                  "ticks": 2260800,
                  "time": 73.21247550000001,
                  "velocity": 0.5275590551181102
              },
              {
                  "duration": 0.4788862737499926,
                  "durationTicks": 14788,
                  "midi": 29,
                  "name": "F1",
                  "ticks": 2265600,
                  "time": 73.36791600000001,
                  "velocity": 0.8110236220472441
              },
              {
                  "duration": 0.3516193643749972,
                  "durationTicks": 10858,
                  "midi": 65,
                  "name": "F4",
                  "ticks": 2265600,
                  "time": 73.36791600000001,
                  "velocity": 0.6141732283464567
              },
              {
                  "duration": 0.30935897843750126,
                  "durationTicks": 9553,
                  "midi": 60,
                  "name": "C4",
                  "ticks": 2280000,
                  "time": 73.8342375,
                  "velocity": 0.2204724409448819
              },
              {
                  "duration": 0.18209206906250586,
                  "durationTicks": 5623,
                  "midi": 65,
                  "name": "F4",
                  "ticks": 2280000,
                  "time": 73.8342375,
                  "velocity": 0.4566929133858268
              },
              {
                  "duration": 0.310945766874994,
                  "durationTicks": 9602,
                  "midi": 29,
                  "name": "F1",
                  "ticks": 2289600,
                  "time": 74.14511850000001,
                  "velocity": 0.8818897637795275
              },
              {
                  "duration": 0.1901555449999961,
                  "durationTicks": 5872,
                  "midi": 57,
                  "name": "A3",
                  "ticks": 2289600,
                  "time": 74.14511850000001,
                  "velocity": 0.41732283464566927
              },
              {
                  "duration": 1.3216328512500013,
                  "durationTicks": 40812,
                  "midi": 29,
                  "name": "F1",
                  "ticks": 2299200,
                  "time": 74.4559995,
                  "velocity": 0.84251968503937
              },
              {
                  "duration": 0.19206616781251284,
                  "durationTicks": 5931,
                  "midi": 53,
                  "name": "F3",
                  "ticks": 2304000,
                  "time": 74.61144,
                  "velocity": 0.7086614173228346
              },
              {
                  "duration": 0.2495791528125011,
                  "durationTicks": 7707,
                  "midi": 53,
                  "name": "F3",
                  "ticks": 2328000,
                  "time": 75.3886425,
                  "velocity": 0.5984251968503937
              },
              {
                  "duration": 0.7726364353124922,
                  "durationTicks": 23859,
                  "midi": 29,
                  "name": "F1",
                  "ticks": 2342400,
                  "time": 75.85496400000001,
                  "velocity": 0.9212598425196851
              },
              {
                  "duration": 0.2848770996875061,
                  "durationTicks": 8797,
                  "midi": 53,
                  "name": "F3",
                  "ticks": 2356800,
                  "time": 76.3212855,
                  "velocity": 0.7086614173228346
              },
              {
                  "duration": 0.24245479656251234,
                  "durationTicks": 7487,
                  "midi": 57,
                  "name": "A3",
                  "ticks": 2356800,
                  "time": 76.3212855,
                  "velocity": 0.5196850393700787
              },
              {
                  "duration": 0.31123721781249003,
                  "durationTicks": 9611,
                  "midi": 29,
                  "name": "F1",
                  "ticks": 2366400,
                  "time": 76.63216650000001,
                  "velocity": 0.9212598425196851
              },
              {
                  "duration": 1.9124686684374979,
                  "durationTicks": 59057,
                  "midi": 29,
                  "name": "F1",
                  "ticks": 2376000,
                  "time": 76.9430475,
                  "velocity": 0.9133858267716536
              },
              {
                  "duration": 0.31534991437500537,
                  "durationTicks": 9738,
                  "midi": 53,
                  "name": "F3",
                  "ticks": 2380800,
                  "time": 77.098488,
                  "velocity": 0.7795275590551181
              },
              {
                  "duration": 0.2729276112499974,
                  "durationTicks": 8428,
                  "midi": 41,
                  "name": "F2",
                  "ticks": 2380800,
                  "time": 77.098488,
                  "velocity": 0.5354330708661418
              },
              {
                  "duration": 0.7615612996875001,
                  "durationTicks": 23517,
                  "midi": 48,
                  "name": "C3",
                  "ticks": 2395200,
                  "time": 77.56480950000001,
                  "velocity": 0.6771653543307087
              },
              {
                  "duration": 0.30346519281249584,
                  "durationTicks": 9371,
                  "midi": 53,
                  "name": "F3",
                  "ticks": 2404800,
                  "time": 77.8756905,
                  "velocity": 0.6220472440944882
              },
              {
                  "duration": 0.21862058656249417,
                  "durationTicks": 6751,
                  "midi": 41,
                  "name": "F2",
                  "ticks": 2404800,
                  "time": 77.8756905,
                  "velocity": 0.36220472440944884
              },
              {
                  "duration": 0.21862058656249417,
                  "durationTicks": 6751,
                  "midi": 57,
                  "name": "A3",
                  "ticks": 2404800,
                  "time": 77.8756905,
                  "velocity": 0.4566929133858268
              },
              {
                  "duration": 0.4509717506250013,
                  "durationTicks": 13926,
                  "midi": 41,
                  "name": "F2",
                  "ticks": 2419200,
                  "time": 78.34201200000001,
                  "velocity": 0.41732283464566927
              },
              {
                  "duration": 0.3661271443749854,
                  "durationTicks": 11306,
                  "midi": 48,
                  "name": "C3",
                  "ticks": 2419200,
                  "time": 78.34201200000001,
                  "velocity": 0.4881889763779528
              },
              {
                  "duration": 0.38733829593749647,
                  "durationTicks": 11961,
                  "midi": 53,
                  "name": "F3",
                  "ticks": 2419200,
                  "time": 78.34201200000001,
                  "velocity": 0.6377952755905512
              },
              {
                  "duration": 0.28244834187501056,
                  "durationTicks": 8722,
                  "midi": 57,
                  "name": "A3",
                  "ticks": 2433600,
                  "time": 78.8083335,
                  "velocity": 0.4566929133858268
              },
              {
                  "duration": 0.3036594934375074,
                  "durationTicks": 9377,
                  "midi": 41,
                  "name": "F2",
                  "ticks": 2433600,
                  "time": 78.8083335,
                  "velocity": 0.49606299212598426
              },
              {
                  "duration": 0.3036594934375074,
                  "durationTicks": 9377,
                  "midi": 48,
                  "name": "C3",
                  "ticks": 2433600,
                  "time": 78.8083335,
                  "velocity": 0.7480314960629921
              },
              {
                  "duration": 0.37661937812499957,
                  "durationTicks": 11630,
                  "midi": 29,
                  "name": "F1",
                  "ticks": 2443200,
                  "time": 79.1192145,
                  "velocity": 0.8818897637795275
              },
              {
                  "duration": 0.312985923437509,
                  "durationTicks": 9665,
                  "midi": 57,
                  "name": "A3",
                  "ticks": 2443200,
                  "time": 79.1192145,
                  "velocity": 0.5196850393700787
              },
              {
                  "duration": 0.23652862749999315,
                  "durationTicks": 7304,
                  "midi": 53,
                  "name": "F3",
                  "ticks": 2452800,
                  "time": 79.43009550000001,
                  "velocity": 0.905511811023622
              },
              {
                  "duration": 0.46230595375000405,
                  "durationTicks": 14276,
                  "midi": 41,
                  "name": "F2",
                  "ticks": 2496000,
                  "time": 80.82906,
                  "velocity": 0.7007874015748031
              },
              {
                  "duration": 0.44112718562499253,
                  "durationTicks": 13622,
                  "midi": 48,
                  "name": "C3",
                  "ticks": 2496000,
                  "time": 80.82906,
                  "velocity": 0.47244094488188976
              },
              {
                  "duration": 0.377428964062517,
                  "durationTicks": 11655,
                  "midi": 57,
                  "name": "A3",
                  "ticks": 2496000,
                  "time": 80.82906,
                  "velocity": 0.6929133858267716
              },
              {
                  "duration": 0.2871115568750042,
                  "durationTicks": 8866,
                  "midi": 29,
                  "name": "F1",
                  "ticks": 2512800,
                  "time": 81.37310175,
                  "velocity": 0.49606299212598426
              },
              {
                  "duration": 0.33682013343751294,
                  "durationTicks": 10401,
                  "midi": 29,
                  "name": "F1",
                  "ticks": 2520000,
                  "time": 81.6062625,
                  "velocity": 0.6535433070866141
              },
              {
                  "duration": 0.25216982781250863,
                  "durationTicks": 7787,
                  "midi": 41,
                  "name": "F2",
                  "ticks": 2520000,
                  "time": 81.6062625,
                  "velocity": 0.6614173228346457
              },
              {
                  "duration": 0.25216982781250863,
                  "durationTicks": 7787,
                  "midi": 57,
                  "name": "A3",
                  "ticks": 2520000,
                  "time": 81.6062625,
                  "velocity": 0.4409448818897638
              },
              {
                  "duration": 1.253919083437495,
                  "durationTicks": 38721,
                  "midi": 34,
                  "name": "A#1",
                  "ticks": 2529600,
                  "time": 81.91714350000001,
                  "velocity": 0.8503937007874016
              },
              {
                  "duration": 0.29112710312500667,
                  "durationTicks": 8990,
                  "midi": 53,
                  "name": "F3",
                  "ticks": 2548800,
                  "time": 82.5389055,
                  "velocity": 0.3543307086614173
              },
              {
                  "duration": 0.4671634693749951,
                  "durationTicks": 14426,
                  "midi": 31,
                  "name": "G1",
                  "ticks": 2572800,
                  "time": 83.316108,
                  "velocity": 0.5354330708661418
              },
              {
                  "duration": 0.4671634693749951,
                  "durationTicks": 14426,
                  "midi": 58,
                  "name": "A#3",
                  "ticks": 2572800,
                  "time": 83.316108,
                  "velocity": 0.5275590551181102
              },
              {
                  "duration": 0.36136677906250725,
                  "durationTicks": 11159,
                  "midi": 43,
                  "name": "G2",
                  "ticks": 2572800,
                  "time": 83.316108,
                  "velocity": 0.6377952755905512
              },
              {
                  "duration": 0.26026568718751264,
                  "durationTicks": 8037,
                  "midi": 31,
                  "name": "G1",
                  "ticks": 2596800,
                  "time": 84.0933105,
                  "velocity": 0.8582677165354331
              },
              {
                  "duration": 0.8178113306249912,
                  "durationTicks": 25254,
                  "midi": 36,
                  "name": "C2",
                  "ticks": 2606400,
                  "time": 84.40419150000001,
                  "velocity": 0.9133858267716536
              },
              {
                  "duration": 0.5196246381249949,
                  "durationTicks": 16046,
                  "midi": 38,
                  "name": "D2",
                  "ticks": 2649600,
                  "time": 85.803156,
                  "velocity": 0.7165354330708661
              },
              {
                  "duration": 0.6042425603124997,
                  "durationTicks": 18659,
                  "midi": 65,
                  "name": "F4",
                  "ticks": 2649600,
                  "time": 85.803156,
                  "velocity": 0.4566929133858268
              },
              {
                  "duration": 0.2698188012499969,
                  "durationTicks": 8332,
                  "midi": 38,
                  "name": "D2",
                  "ticks": 2673600,
                  "time": 86.5803585,
                  "velocity": 0.7952755905511811
              },
              {
                  "duration": 1.0191067781249927,
                  "durationTicks": 31470,
                  "midi": 34,
                  "name": "A#1",
                  "ticks": 2683200,
                  "time": 86.89123950000001,
                  "velocity": 0.8346456692913385
              },
              {
                  "duration": 0.3386012224999888,
                  "durationTicks": 10456,
                  "midi": 53,
                  "name": "F3",
                  "ticks": 2697600,
                  "time": 87.357561,
                  "velocity": 0.3937007874015748
              },
              {
                  "duration": 0.33131494906250225,
                  "durationTicks": 10231,
                  "midi": 65,
                  "name": "F4",
                  "ticks": 2702400,
                  "time": 87.5130015,
                  "velocity": 0.36220472440944884
              },
              {
                  "duration": 0.5053111587500041,
                  "durationTicks": 15604,
                  "midi": 31,
                  "name": "G1",
                  "ticks": 2726400,
                  "time": 88.290204,
                  "velocity": 0.8346456692913385
              },
              {
                  "duration": 0.48341995500000223,
                  "durationTicks": 14928,
                  "midi": 33,
                  "name": "A1",
                  "ticks": 2740800,
                  "time": 88.75652550000001,
                  "velocity": 0.8503937007874016
              },
              {
                  "duration": 0.42137328875000435,
                  "durationTicks": 13012,
                  "midi": 34,
                  "name": "A#1",
                  "ticks": 2755200,
                  "time": 89.222847,
                  "velocity": 0.8661417322834646
              },
              {
                  "duration": 0.37781756531249755,
                  "durationTicks": 11667,
                  "midi": 36,
                  "name": "C2",
                  "ticks": 2769600,
                  "time": 89.68916850000001,
                  "velocity": 0.9133858267716536
              },
              {
                  "duration": 0.2708550712499971,
                  "durationTicks": 8364,
                  "midi": 36,
                  "name": "C2",
                  "ticks": 2784000,
                  "time": 90.15549,
                  "velocity": 0.8582677165354331
              },
              {
                  "duration": 0.27746129249999285,
                  "durationTicks": 8568,
                  "midi": 36,
                  "name": "C2",
                  "ticks": 2793600,
                  "time": 90.46637100000001,
                  "velocity": 0.8582677165354331
              },
              {
                  "duration": 0.11658037499999807,
                  "durationTicks": 3600,
                  "midi": 41,
                  "name": "F2",
                  "ticks": 2803200,
                  "time": 90.777252,
                  "velocity": 0.7637795275590551
              },
              {
                  "duration": 0.11658037499999807,
                  "durationTicks": 3600,
                  "midi": 57,
                  "name": "A3",
                  "ticks": 2803200,
                  "time": 90.777252,
                  "velocity": 0.7559055118110236
              },
              {
                  "duration": 0.11658037499999807,
                  "durationTicks": 3600,
                  "midi": 48,
                  "name": "C3",
                  "ticks": 2803200,
                  "time": 90.777252,
                  "velocity": 0.6535433070866141
              },
              {
                  "duration": 0.11658037499999807,
                  "durationTicks": 3600,
                  "midi": 41,
                  "name": "F2",
                  "ticks": 2808000,
                  "time": 90.9326925,
                  "velocity": 0.6929133858267716
              },
              {
                  "duration": 0.07772024999999871,
                  "durationTicks": 2400,
                  "midi": 48,
                  "name": "C3",
                  "ticks": 2808000,
                  "time": 90.9326925,
                  "velocity": 0.5748031496062992
              },
              {
                  "duration": 0.11658037499999807,
                  "durationTicks": 3600,
                  "midi": 57,
                  "name": "A3",
                  "ticks": 2808000,
                  "time": 90.9326925,
                  "velocity": 0.6929133858267716
              },
              {
                  "duration": 0.11658037499999807,
                  "durationTicks": 3600,
                  "midi": 84,
                  "name": "C6",
                  "ticks": 2808000,
                  "time": 90.9326925,
                  "velocity": 0.6456692913385826
              },
              {
                  "duration": 0.03886012499999936,
                  "durationTicks": 1200,
                  "midi": 79,
                  "name": "G5",
                  "ticks": 2812800,
                  "time": 91.088133,
                  "velocity": 0.7559055118110236
              },
              {
                  "duration": 0.11658037499999807,
                  "durationTicks": 3600,
                  "midi": 29,
                  "name": "F1",
                  "ticks": 2817600,
                  "time": 91.24357350000001,
                  "velocity": 0.5905511811023622
              },
              {
                  "duration": 0.03886012499999936,
                  "durationTicks": 1200,
                  "midi": 81,
                  "name": "A5",
                  "ticks": 2817600,
                  "time": 91.24357350000001,
                  "velocity": 0.7086614173228346
              },
              {
                  "duration": 0.07772024999999871,
                  "durationTicks": 2400,
                  "midi": 29,
                  "name": "F1",
                  "ticks": 2822400,
                  "time": 91.39901400000001,
                  "velocity": 0.6614173228346457
              },
              {
                  "duration": 0.07772024999999871,
                  "durationTicks": 2400,
                  "midi": 29,
                  "name": "F1",
                  "ticks": 2827200,
                  "time": 91.5544545,
                  "velocity": 0.6692913385826772
              },
              {
                  "duration": 0.07772024999999871,
                  "durationTicks": 2400,
                  "midi": 41,
                  "name": "F2",
                  "ticks": 2827200,
                  "time": 91.5544545,
                  "velocity": 0.6771653543307087
              },
              {
                  "duration": 0.07772024999999871,
                  "durationTicks": 2400,
                  "midi": 57,
                  "name": "A3",
                  "ticks": 2827200,
                  "time": 91.5544545,
                  "velocity": 0.5669291338582677
              },
              {
                  "duration": 0.07772024999999871,
                  "durationTicks": 2400,
                  "midi": 77,
                  "name": "F5",
                  "ticks": 2827200,
                  "time": 91.5544545,
                  "velocity": 0.6456692913385826
              },
              {
                  "duration": 0.07772024999999871,
                  "durationTicks": 2400,
                  "midi": 29,
                  "name": "F1",
                  "ticks": 2832000,
                  "time": 91.709895,
                  "velocity": 0.7559055118110236
              },
              {
                  "duration": 0.15544050000001164,
                  "durationTicks": 4800,
                  "midi": 34,
                  "name": "A#1",
                  "ticks": 2836800,
                  "time": 91.8653355,
                  "velocity": 0.7874015748031497
              },
              {
                  "duration": 0.07772024999999871,
                  "durationTicks": 2400,
                  "midi": 74,
                  "name": "D5",
                  "ticks": 2836800,
                  "time": 91.8653355,
                  "velocity": 0.7952755905511811
              },
              {
                  "duration": 0.11658037499999807,
                  "durationTicks": 3600,
                  "midi": 34,
                  "name": "A#1",
                  "ticks": 2841600,
                  "time": 92.02077600000001,
                  "velocity": 0.8346456692913385
              },
              {
                  "duration": 0.11658037499999807,
                  "durationTicks": 3600,
                  "midi": 34,
                  "name": "A#1",
                  "ticks": 2846400,
                  "time": 92.17621650000001,
                  "velocity": 0.7716535433070866
              },
              {
                  "duration": 0.07772024999999871,
                  "durationTicks": 2400,
                  "midi": 77,
                  "name": "F5",
                  "ticks": 2846400,
                  "time": 92.17621650000001,
                  "velocity": 0.6771653543307087
              },
              {
                  "duration": 0.11658037499999807,
                  "durationTicks": 3600,
                  "midi": 34,
                  "name": "A#1",
                  "ticks": 2851200,
                  "time": 92.331657,
                  "velocity": 0.8346456692913385
              },
              {
                  "duration": 0.07772024999999871,
                  "durationTicks": 2400,
                  "midi": 74,
                  "name": "D5",
                  "ticks": 2851200,
                  "time": 92.331657,
                  "velocity": 0.8188976377952756
              },
              {
                  "duration": 0.11658037499999807,
                  "durationTicks": 3600,
                  "midi": 34,
                  "name": "A#1",
                  "ticks": 2856000,
                  "time": 92.4870975,
                  "velocity": 0.7716535433070866
              },
              {
                  "duration": 0.11658037499999807,
                  "durationTicks": 3600,
                  "midi": 53,
                  "name": "F3",
                  "ticks": 2856000,
                  "time": 92.4870975,
                  "velocity": 0.5196850393700787
              },
              {
                  "duration": 0.07772024999999871,
                  "durationTicks": 2400,
                  "midi": 72,
                  "name": "C5",
                  "ticks": 2856000,
                  "time": 92.4870975,
                  "velocity": 0.7086614173228346
              },
              {
                  "duration": 0.07772024999999871,
                  "durationTicks": 2400,
                  "midi": 34,
                  "name": "A#1",
                  "ticks": 2860800,
                  "time": 92.642538,
                  "velocity": 0.8346456692913385
              },
              {
                  "duration": 0.03886012499999936,
                  "durationTicks": 1200,
                  "midi": 53,
                  "name": "F3",
                  "ticks": 2860800,
                  "time": 92.642538,
                  "velocity": 0.5905511811023622
              },
              {
                  "duration": 0.07772024999999871,
                  "durationTicks": 2400,
                  "midi": 74,
                  "name": "D5",
                  "ticks": 2860800,
                  "time": 92.642538,
                  "velocity": 0.7637795275590551
              },
              {
                  "duration": 0.07772025000001292,
                  "durationTicks": 2400,
                  "midi": 34,
                  "name": "A#1",
                  "ticks": 2865600,
                  "time": 92.7979785,
                  "velocity": 0.7716535433070866
              },
              {
                  "duration": 0.07772025000001292,
                  "durationTicks": 2400,
                  "midi": 72,
                  "name": "C5",
                  "ticks": 2865600,
                  "time": 92.7979785,
                  "velocity": 0.7086614173228346
              },
              {
                  "duration": 0.03886012499999936,
                  "durationTicks": 1200,
                  "midi": 34,
                  "name": "A#1",
                  "ticks": 2870400,
                  "time": 92.95341900000001,
                  "velocity": 0.8503937007874016
              },
              {
                  "duration": 0.07772024999999871,
                  "durationTicks": 2400,
                  "midi": 69,
                  "name": "A4",
                  "ticks": 2870400,
                  "time": 92.95341900000001,
                  "velocity": 0.8346456692913385
              },
              {
                  "duration": 0.07772024999999871,
                  "durationTicks": 2400,
                  "midi": 67,
                  "name": "G4",
                  "ticks": 2875200,
                  "time": 93.10885950000001,
                  "velocity": 0.8031496062992126
              },
              {
                  "duration": 0.11658037499999807,
                  "durationTicks": 3600,
                  "midi": 31,
                  "name": "G1",
                  "ticks": 2880000,
                  "time": 93.2643,
                  "velocity": 0.6850393700787402
              },
              {
                  "duration": 0.11658037499999807,
                  "durationTicks": 3600,
                  "midi": 43,
                  "name": "G2",
                  "ticks": 2880000,
                  "time": 93.2643,
                  "velocity": 0.7322834645669292
              },
              {
                  "duration": 0.03886012499999936,
                  "durationTicks": 1200,
                  "midi": 69,
                  "name": "A4",
                  "ticks": 2880000,
                  "time": 93.2643,
                  "velocity": 0.7244094488188977
              },
              {
                  "duration": 0.11658037499999807,
                  "durationTicks": 3600,
                  "midi": 58,
                  "name": "A#3",
                  "ticks": 2880000,
                  "time": 93.2643,
                  "velocity": 0.6771653543307087
              },
              {
                  "duration": 0.11658037499999807,
                  "durationTicks": 3600,
                  "midi": 31,
                  "name": "G1",
                  "ticks": 2884800,
                  "time": 93.4197405,
                  "velocity": 0.6062992125984252
              },
              {
                  "duration": 0.07772024999999871,
                  "durationTicks": 2400,
                  "midi": 43,
                  "name": "G2",
                  "ticks": 2884800,
                  "time": 93.4197405,
                  "velocity": 0.6614173228346457
              },
              {
                  "duration": 0.11658037499999807,
                  "durationTicks": 3600,
                  "midi": 58,
                  "name": "A#3",
                  "ticks": 2884800,
                  "time": 93.4197405,
                  "velocity": 0.6062992125984252
              },
              {
                  "duration": 0.07772024999999871,
                  "durationTicks": 2400,
                  "midi": 72,
                  "name": "C5",
                  "ticks": 2884800,
                  "time": 93.4197405,
                  "velocity": 0.7244094488188977
              },
              {
                  "duration": 0.03886012499999936,
                  "durationTicks": 1200,
                  "midi": 31,
                  "name": "G1",
                  "ticks": 2889600,
                  "time": 93.575181,
                  "velocity": 0.6850393700787402
              },
              {
                  "duration": 0.03886012499999936,
                  "durationTicks": 1200,
                  "midi": 58,
                  "name": "A#3",
                  "ticks": 2889600,
                  "time": 93.575181,
                  "velocity": 0.6771653543307087
              },
              {
                  "duration": 0.07772024999999871,
                  "durationTicks": 2400,
                  "midi": 74,
                  "name": "D5",
                  "ticks": 2889600,
                  "time": 93.575181,
                  "velocity": 0.7716535433070866
              },
              {
                  "duration": 0.07772024999999871,
                  "durationTicks": 2400,
                  "midi": 72,
                  "name": "C5",
                  "ticks": 2894400,
                  "time": 93.73062150000001,
                  "velocity": 0.7244094488188977
              },
              {
                  "duration": 0.07772024999999871,
                  "durationTicks": 2400,
                  "midi": 31,
                  "name": "G1",
                  "ticks": 2904000,
                  "time": 94.0415025,
                  "velocity": 0.7716535433070866
              },
              {
                  "duration": 0.07772024999999871,
                  "durationTicks": 2400,
                  "midi": 69,
                  "name": "A4",
                  "ticks": 2904000,
                  "time": 94.0415025,
                  "velocity": 0.6771653543307087
              },
              {
                  "duration": 0.11658037499999807,
                  "durationTicks": 3600,
                  "midi": 36,
                  "name": "C2",
                  "ticks": 2913600,
                  "time": 94.3523835,
                  "velocity": 0.8188976377952756
              },
              {
                  "duration": 0.07772024999999871,
                  "durationTicks": 2400,
                  "midi": 67,
                  "name": "G4",
                  "ticks": 2913600,
                  "time": 94.3523835,
                  "velocity": 0.8188976377952756
              },
              {
                  "duration": 0.11658037500001228,
                  "durationTicks": 3600,
                  "midi": 36,
                  "name": "C2",
                  "ticks": 2918400,
                  "time": 94.507824,
                  "velocity": 0.8661417322834646
              },
              {
                  "duration": 0.11658037499999807,
                  "durationTicks": 3600,
                  "midi": 36,
                  "name": "C2",
                  "ticks": 2923200,
                  "time": 94.66326450000001,
                  "velocity": 0.8031496062992126
              },
              {
                  "duration": 0.07772024999999871,
                  "durationTicks": 2400,
                  "midi": 69,
                  "name": "A4",
                  "ticks": 2923200,
                  "time": 94.66326450000001,
                  "velocity": 0.8031496062992126
              },
              {
                  "duration": 0.11658037499999807,
                  "durationTicks": 3600,
                  "midi": 36,
                  "name": "C2",
                  "ticks": 2928000,
                  "time": 94.81870500000001,
                  "velocity": 0.8661417322834646
              },
              {
                  "duration": 0.07772024999999871,
                  "durationTicks": 2400,
                  "midi": 67,
                  "name": "G4",
                  "ticks": 2928000,
                  "time": 94.81870500000001,
                  "velocity": 0.8346456692913385
              },
              {
                  "duration": 0.07772024999999871,
                  "durationTicks": 2400,
                  "midi": 36,
                  "name": "C2",
                  "ticks": 2932800,
                  "time": 94.9741455,
                  "velocity": 0.8031496062992126
              },
              {
                  "duration": 0.07772024999999871,
                  "durationTicks": 2400,
                  "midi": 65,
                  "name": "F4",
                  "ticks": 2932800,
                  "time": 94.9741455,
                  "velocity": 0.7637795275590551
              },
              {
                  "duration": 0.07772024999999871,
                  "durationTicks": 2400,
                  "midi": 67,
                  "name": "G4",
                  "ticks": 2937600,
                  "time": 95.129586,
                  "velocity": 0.8031496062992126
              },
              {
                  "duration": 0.07772024999999871,
                  "durationTicks": 2400,
                  "midi": 65,
                  "name": "F4",
                  "ticks": 2942400,
                  "time": 95.2850265,
                  "velocity": 0.7244094488188977
              },
              {
                  "duration": 0.07772024999999871,
                  "durationTicks": 2400,
                  "midi": 62,
                  "name": "D4",
                  "ticks": 2947200,
                  "time": 95.44046700000001,
                  "velocity": 0.8346456692913385
              },
              {
                  "duration": 0.07772024999999871,
                  "durationTicks": 2400,
                  "midi": 60,
                  "name": "C4",
                  "ticks": 2952000,
                  "time": 95.59590750000001,
                  "velocity": 0.7952755905511811
              },
              {
                  "duration": 0.11658037499999807,
                  "durationTicks": 3600,
                  "midi": 38,
                  "name": "D2",
                  "ticks": 2956800,
                  "time": 95.75134800000001,
                  "velocity": 0.7716535433070866
              },
              {
                  "duration": 0.11658037499999807,
                  "durationTicks": 3600,
                  "midi": 65,
                  "name": "F4",
                  "ticks": 2956800,
                  "time": 95.75134800000001,
                  "velocity": 0.6456692913385826
              },
              {
                  "duration": 0.03886012499999936,
                  "durationTicks": 1200,
                  "midi": 81,
                  "name": "A5",
                  "ticks": 2956800,
                  "time": 95.75134800000001,
                  "velocity": 0.7716535433070866
              },
              {
                  "duration": 0.11658037499999807,
                  "durationTicks": 3600,
                  "midi": 38,
                  "name": "D2",
                  "ticks": 2961600,
                  "time": 95.9067885,
                  "velocity": 0.7007874015748031
              },
              {
                  "duration": 0.11658037499999807,
                  "durationTicks": 3600,
                  "midi": 65,
                  "name": "F4",
                  "ticks": 2961600,
                  "time": 95.9067885,
                  "velocity": 0.5669291338582677
              },
              {
                  "duration": 0.11658037499999807,
                  "durationTicks": 3600,
                  "midi": 84,
                  "name": "C6",
                  "ticks": 2961600,
                  "time": 95.9067885,
                  "velocity": 0.7244094488188977
              },
              {
                  "duration": 0.07772024999999871,
                  "durationTicks": 2400,
                  "midi": 38,
                  "name": "D2",
                  "ticks": 2966400,
                  "time": 96.062229,
                  "velocity": 0.7716535433070866
              },
              {
                  "duration": 0.11658037499999807,
                  "durationTicks": 3600,
                  "midi": 65,
                  "name": "F4",
                  "ticks": 2966400,
                  "time": 96.062229,
                  "velocity": 0.6456692913385826
              },
              {
                  "duration": 0.011075135624992072,
                  "durationTicks": 342,
                  "midi": 84,
                  "name": "C6",
                  "ticks": 2966400,
                  "time": 96.062229,
                  "velocity": 0.7874015748031497
              },
              {
                  "duration": 0.11658037499999807,
                  "durationTicks": 3600,
                  "midi": 86,
                  "name": "D6",
                  "ticks": 2966400,
                  "time": 96.062229,
                  "velocity": 0.7165354330708661
              },
              {
                  "duration": 0.03886012499999936,
                  "durationTicks": 1200,
                  "midi": 65,
                  "name": "F4",
                  "ticks": 2971200,
                  "time": 96.2176695,
                  "velocity": 0.5669291338582677
              },
              {
                  "duration": 0.11658037500001228,
                  "durationTicks": 3600,
                  "midi": 84,
                  "name": "C6",
                  "ticks": 2971200,
                  "time": 96.2176695,
                  "velocity": 0.7244094488188977
              },
              {
                  "duration": 0.07772024999999871,
                  "durationTicks": 2400,
                  "midi": 84,
                  "name": "C6",
                  "ticks": 2976000,
                  "time": 96.37311000000001,
                  "velocity": 0.7874015748031497
              },
              {
                  "duration": 0.07772024999999871,
                  "durationTicks": 2400,
                  "midi": 38,
                  "name": "D2",
                  "ticks": 2980800,
                  "time": 96.52855050000001,
                  "velocity": 0.7401574803149606
              },
              {
                  "duration": 0.03886012499999936,
                  "durationTicks": 1200,
                  "midi": 81,
                  "name": "A5",
                  "ticks": 2980800,
                  "time": 96.52855050000001,
                  "velocity": 0.6535433070866141
              },
              {
                  "duration": 0.15544049999999743,
                  "durationTicks": 4800,
                  "midi": 34,
                  "name": "A#1",
                  "ticks": 2990400,
                  "time": 96.8394315,
                  "velocity": 0.7874015748031497
              },
              {
                  "duration": 0.07772024999999871,
                  "durationTicks": 2400,
                  "midi": 79,
                  "name": "G5",
                  "ticks": 2990400,
                  "time": 96.8394315,
                  "velocity": 0.7086614173228346
              },
              {
                  "duration": 0.11658037499999807,
                  "durationTicks": 3600,
                  "midi": 34,
                  "name": "A#1",
                  "ticks": 2995200,
                  "time": 96.994872,
                  "velocity": 0.8346456692913385
              },
              {
                  "duration": 0.11658037499999807,
                  "durationTicks": 3600,
                  "midi": 34,
                  "name": "A#1",
                  "ticks": 3000000,
                  "time": 97.15031250000001,
                  "velocity": 0.7559055118110236
              },
              {
                  "duration": 0.03886012499999936,
                  "durationTicks": 1200,
                  "midi": 81,
                  "name": "A5",
                  "ticks": 3000000,
                  "time": 97.15031250000001,
                  "velocity": 0.7716535433070866
              },
              {
                  "duration": 0.11658037499999807,
                  "durationTicks": 3600,
                  "midi": 34,
                  "name": "A#1",
                  "ticks": 3004800,
                  "time": 97.30575300000001,
                  "velocity": 0.8346456692913385
              },
              {
                  "duration": 0.11658037499999807,
                  "durationTicks": 3600,
                  "midi": 53,
                  "name": "F3",
                  "ticks": 3004800,
                  "time": 97.30575300000001,
                  "velocity": 0.6141732283464567
              },
              {
                  "duration": 0.03886012499999936,
                  "durationTicks": 1200,
                  "midi": 79,
                  "name": "G5",
                  "ticks": 3004800,
                  "time": 97.30575300000001,
                  "velocity": 0.7795275590551181
              },
              {
                  "duration": 0.11658037499999807,
                  "durationTicks": 3600,
                  "midi": 34,
                  "name": "A#1",
                  "ticks": 3009600,
                  "time": 97.46119350000001,
                  "velocity": 0.7559055118110236
              },
              {
                  "duration": 0.07772024999999871,
                  "durationTicks": 2400,
                  "midi": 53,
                  "name": "F3",
                  "ticks": 3009600,
                  "time": 97.46119350000001,
                  "velocity": 0.5354330708661418
              },
              {
                  "duration": 0.11658037499999807,
                  "durationTicks": 3600,
                  "midi": 65,
                  "name": "F4",
                  "ticks": 3009600,
                  "time": 97.46119350000001,
                  "velocity": 0.5196850393700787
              },
              {
                  "duration": 0.07772024999999871,
                  "durationTicks": 2400,
                  "midi": 77,
                  "name": "F5",
                  "ticks": 3009600,
                  "time": 97.46119350000001,
                  "velocity": 0.6929133858267716
              },
              {
                  "duration": 0.07772024999999871,
                  "durationTicks": 2400,
                  "midi": 34,
                  "name": "A#1",
                  "ticks": 3014400,
                  "time": 97.616634,
                  "velocity": 0.8346456692913385
              },
              {
                  "duration": 0.07772024999999871,
                  "durationTicks": 2400,
                  "midi": 65,
                  "name": "F4",
                  "ticks": 3014400,
                  "time": 97.616634,
                  "velocity": 0.5984251968503937
              },
              {
                  "duration": 0.07772024999999871,
                  "durationTicks": 2400,
                  "midi": 79,
                  "name": "G5",
                  "ticks": 3014400,
                  "time": 97.616634,
                  "velocity": 0.7874015748031497
              },
              {
                  "duration": 0.07772024999999871,
                  "durationTicks": 2400,
                  "midi": 77,
                  "name": "F5",
                  "ticks": 3019200,
                  "time": 97.7720745,
                  "velocity": 0.6771653543307087
              },
              {
                  "duration": 0.07772025000001292,
                  "durationTicks": 2400,
                  "midi": 74,
                  "name": "D5",
                  "ticks": 3024000,
                  "time": 97.927515,
                  "velocity": 0.8346456692913385
              },
              {
                  "duration": 0.07772024999999871,
                  "durationTicks": 2400,
                  "midi": 72,
                  "name": "C5",
                  "ticks": 3028800,
                  "time": 98.08295550000001,
                  "velocity": 0.8031496062992126
              },
              {
                  "duration": 0.11658037499999807,
                  "durationTicks": 3600,
                  "midi": 31,
                  "name": "G1",
                  "ticks": 3033600,
                  "time": 98.23839600000001,
                  "velocity": 0.8346456692913385
              },
              {
                  "duration": 0.07772024999999871,
                  "durationTicks": 2400,
                  "midi": 74,
                  "name": "D5",
                  "ticks": 3033600,
                  "time": 98.23839600000001,
                  "velocity": 0.8110236220472441
              },
              {
                  "duration": 0.11658037499999807,
                  "durationTicks": 3600,
                  "midi": 31,
                  "name": "G1",
                  "ticks": 3038400,
                  "time": 98.3938365,
                  "velocity": 0.7559055118110236
              },
              {
                  "duration": 0.07772024999999871,
                  "durationTicks": 2400,
                  "midi": 77,
                  "name": "F5",
                  "ticks": 3038400,
                  "time": 98.3938365,
                  "velocity": 0.7401574803149606
              },
              {
                  "duration": 0.07772024999999871,
                  "durationTicks": 2400,
                  "midi": 31,
                  "name": "G1",
                  "ticks": 3043200,
                  "time": 98.549277,
                  "velocity": 0.8346456692913385
              },
              {
                  "duration": 0.03886012499999936,
                  "durationTicks": 1200,
                  "midi": 79,
                  "name": "G5",
                  "ticks": 3043200,
                  "time": 98.549277,
                  "velocity": 0.8110236220472441
              },
              {
                  "duration": 0.11658037499999807,
                  "durationTicks": 3600,
                  "midi": 33,
                  "name": "A1",
                  "ticks": 3048000,
                  "time": 98.7047175,
                  "velocity": 0.7716535433070866
              },
              {
                  "duration": 0.03886012499999936,
                  "durationTicks": 1200,
                  "midi": 77,
                  "name": "F5",
                  "ticks": 3048000,
                  "time": 98.7047175,
                  "velocity": 0.7165354330708661
              },
              {
                  "duration": 0.07772024999999871,
                  "durationTicks": 2400,
                  "midi": 33,
                  "name": "A1",
                  "ticks": 3052800,
                  "time": 98.86015800000001,
                  "velocity": 0.8346456692913385
              },
              {
                  "duration": 0.07772024999999871,
                  "durationTicks": 2400,
                  "midi": 33,
                  "name": "A1",
                  "ticks": 3057600,
                  "time": 99.01559850000001,
                  "velocity": 0.7716535433070866
              },
              {
                  "duration": 0.07772024999999871,
                  "durationTicks": 2400,
                  "midi": 79,
                  "name": "G5",
                  "ticks": 3057600,
                  "time": 99.01559850000001,
                  "velocity": 0.7559055118110236
              },
              {
                  "duration": 0.11658037499999807,
                  "durationTicks": 3600,
                  "midi": 34,
                  "name": "A#1",
                  "ticks": 3062400,
                  "time": 99.17103900000001,
                  "velocity": 0.8582677165354331
              },
              {
                  "duration": 0.03886012499999936,
                  "durationTicks": 1200,
                  "midi": 81,
                  "name": "A5",
                  "ticks": 3062400,
                  "time": 99.17103900000001,
                  "velocity": 0.8110236220472441
              },
              {
                  "duration": 0.11658037499999807,
                  "durationTicks": 3600,
                  "midi": 34,
                  "name": "A#1",
                  "ticks": 3067200,
                  "time": 99.3264795,
                  "velocity": 0.8031496062992126
              },
              {
                  "duration": 0.03886012499999936,
                  "durationTicks": 1200,
                  "midi": 84,
                  "name": "C6",
                  "ticks": 3067200,
                  "time": 99.3264795,
                  "velocity": 0.7086614173228346
              },
              {
                  "duration": 0.11658037500001228,
                  "durationTicks": 3600,
                  "midi": 36,
                  "name": "C2",
                  "ticks": 3076800,
                  "time": 99.6373605,
                  "velocity": 0.8031496062992126
              },
              {
                  "duration": 0.11658037499999807,
                  "durationTicks": 3600,
                  "midi": 36,
                  "name": "C2",
                  "ticks": 3081600,
                  "time": 99.79280100000001,
                  "velocity": 0.8661417322834646
              },
              {
                  "duration": 0.03886012499999936,
                  "durationTicks": 1200,
                  "midi": 84,
                  "name": "C6",
                  "ticks": 3081600,
                  "time": 99.79280100000001,
                  "velocity": 0.7874015748031497
              },
              {
                  "duration": 0.07772024999999871,
                  "durationTicks": 2400,
                  "midi": 81,
                  "name": "A5",
                  "ticks": 3086400,
                  "time": 99.94824150000001,
                  "velocity": 0.7559055118110236
              },
              {
                  "duration": 0.07772024999999871,
                  "durationTicks": 2400,
                  "midi": 36,
                  "name": "C2",
                  "ticks": 3091200,
                  "time": 100.103682,
                  "velocity": 0.84251968503937
              },
              {
                  "duration": 0.07772024999999871,
                  "durationTicks": 2400,
                  "midi": 67,
                  "name": "G4",
                  "ticks": 3091200,
                  "time": 100.103682,
                  "velocity": 0.84251968503937
              },
              {
                  "duration": 0.07772024999999871,
                  "durationTicks": 2400,
                  "midi": 77,
                  "name": "F5",
                  "ticks": 3096000,
                  "time": 100.2591225,
                  "velocity": 0.7716535433070866
              },
              {
                  "duration": 0.11658037499999807,
                  "durationTicks": 3600,
                  "midi": 36,
                  "name": "C2",
                  "ticks": 3100800,
                  "time": 100.414563,
                  "velocity": 0.8503937007874016
              },
              {
                  "duration": 0.07772024999999871,
                  "durationTicks": 2400,
                  "midi": 74,
                  "name": "D5",
                  "ticks": 3100800,
                  "time": 100.414563,
                  "velocity": 0.8110236220472441
              },
              {
                  "duration": 0.009974098749992777,
                  "durationTicks": 308,
                  "midi": 36,
                  "name": "C2",
                  "ticks": 3105600,
                  "time": 100.57000350000001,
                  "velocity": 0.7952755905511811
              },
              {
                  "duration": 0.07772024999999871,
                  "durationTicks": 2400,
                  "midi": 72,
                  "name": "C5",
                  "ticks": 3105600,
                  "time": 100.57000350000001,
                  "velocity": 0.7086614173228346
              },
              {
                  "duration": 0.4815093321874997,
                  "durationTicks": 14869,
                  "midi": 41,
                  "name": "F2",
                  "ticks": 3110400,
                  "time": 100.72544400000001,
                  "velocity": 0.7244094488188977
              },
              {
                  "duration": 2.60327215718749,
                  "durationTicks": 80389,
                  "midi": 53,
                  "name": "F3",
                  "ticks": 3110400,
                  "time": 100.72544400000001,
                  "velocity": 0.7244094488188977
              },
              {
                  "duration": 0.3189444759374993,
                  "durationTicks": 9849,
                  "midi": 57,
                  "name": "A3",
                  "ticks": 3110400,
                  "time": 100.72544400000001,
                  "velocity": 0.7007874015748031
              },
              {
                  "duration": 1.0653503268749915,
                  "durationTicks": 32898,
                  "midi": 60,
                  "name": "C4",
                  "ticks": 3115200,
                  "time": 100.88088450000001,
                  "velocity": 0.5984251968503937
              },
              {
                  "duration": 0.4565417018750111,
                  "durationTicks": 14098,
                  "midi": 57,
                  "name": "A3",
                  "ticks": 3124800,
                  "time": 101.1917655,
                  "velocity": 0.5748031496062992
              },
              {
                  "duration": 0.3377916365624998,
                  "durationTicks": 10431,
                  "midi": 57,
                  "name": "A3",
                  "ticks": 3139200,
                  "time": 101.65808700000001,
                  "velocity": 0.5748031496062992
              },
              {
                  "duration": 0.3377916365624998,
                  "durationTicks": 10431,
                  "midi": 65,
                  "name": "F4",
                  "ticks": 3139200,
                  "time": 101.65808700000001,
                  "velocity": 0.6377952755905512
              },
              {
                  "duration": 1.350130276249999,
                  "durationTicks": 41692,
                  "midi": 58,
                  "name": "A#3",
                  "ticks": 3148800,
                  "time": 101.968968,
                  "velocity": 0.7559055118110236
              },
              {
                  "duration": 0.5550845021875119,
                  "durationTicks": 17141,
                  "midi": 46,
                  "name": "A#2",
                  "ticks": 3151200,
                  "time": 102.04668825,
                  "velocity": 0.4566929133858268
              },
              {
                  "duration": 0.32448204374999534,
                  "durationTicks": 10020,
                  "midi": 65,
                  "name": "F4",
                  "ticks": 3163200,
                  "time": 102.43528950000001,
                  "velocity": 0.6377952755905512
              },
              {
                  "duration": 0.30346519281249584,
                  "durationTicks": 9371,
                  "midi": 62,
                  "name": "D4",
                  "ticks": 3177600,
                  "time": 102.901611,
                  "velocity": 0.49606299212598426
              },
              {
                  "duration": 0.30346519281249584,
                  "durationTicks": 9371,
                  "midi": 65,
                  "name": "F4",
                  "ticks": 3177600,
                  "time": 102.901611,
                  "velocity": 0.6299212598425197
              },
              {
                  "duration": 1.2650589859375003,
                  "durationTicks": 39065,
                  "midi": 65,
                  "name": "F4",
                  "ticks": 3187200,
                  "time": 103.21249200000001,
                  "velocity": 0.6062992125984252
              },
              {
                  "duration": 1.30777273999999,
                  "durationTicks": 40384,
                  "midi": 55,
                  "name": "G3",
                  "ticks": 3187200,
                  "time": 103.21249200000001,
                  "velocity": 0.5826771653543307
              },
              {
                  "duration": 1.30777273999999,
                  "durationTicks": 40384,
                  "midi": 62,
                  "name": "D4",
                  "ticks": 3187200,
                  "time": 103.21249200000001,
                  "velocity": 0.4881889763779528
              },
              {
                  "duration": 1.350486494062494,
                  "durationTicks": 41703,
                  "midi": 57,
                  "name": "A3",
                  "ticks": 3187200,
                  "time": 103.21249200000001,
                  "velocity": 0.5905511811023622
              },
              {
                  "duration": 0.796567795625009,
                  "durationTicks": 24598,
                  "midi": 64,
                  "name": "E4",
                  "ticks": 3225600,
                  "time": 104.456016,
                  "velocity": 0.6141732283464567
              },
              {
                  "duration": 0.3695921721874953,
                  "durationTicks": 11413,
                  "midi": 48,
                  "name": "C3",
                  "ticks": 3225600,
                  "time": 104.456016,
                  "velocity": 0.6929133858267716
              },
              {
                  "duration": 0.30200793812498716,
                  "durationTicks": 9326,
                  "midi": 48,
                  "name": "C3",
                  "ticks": 3244800,
                  "time": 105.07777800000001,
                  "velocity": 0.6141732283464567
              },
              {
                  "duration": 0.14261665875000062,
                  "durationTicks": 4404,
                  "midi": 60,
                  "name": "C4",
                  "ticks": 3254400,
                  "time": 105.388659,
                  "velocity": 0.6456692913385826
              },
              {
                  "duration": 0.4414834034375019,
                  "durationTicks": 13633,
                  "midi": 67,
                  "name": "G4",
                  "ticks": 3254400,
                  "time": 105.388659,
                  "velocity": 0.5039370078740157
              },
              {
                  "duration": 0.17865942468749552,
                  "durationTicks": 5517,
                  "midi": 48,
                  "name": "C3",
                  "ticks": 3259200,
                  "time": 105.5440995,
                  "velocity": 0.6062992125984252
              },
              {
                  "duration": 0.24271386406250883,
                  "durationTicks": 7495,
                  "midi": 55,
                  "name": "G3",
                  "ticks": 3259200,
                  "time": 105.5440995,
                  "velocity": 0.6141732283464567
              },
              {
                  "duration": 0.1573187393750004,
                  "durationTicks": 4858,
                  "midi": 64,
                  "name": "E4",
                  "ticks": 3259200,
                  "time": 105.5440995,
                  "velocity": 0.5196850393700787
              },
              {
                  "duration": 0.6816389759375028,
                  "durationTicks": 21049,
                  "midi": 65,
                  "name": "F4",
                  "ticks": 3264000,
                  "time": 105.69954000000001,
                  "velocity": 0.5354330708661418
              },
              {
                  "duration": 1.322086219374981,
                  "durationTicks": 40826,
                  "midi": 57,
                  "name": "A3",
                  "ticks": 3264000,
                  "time": 105.69954000000001,
                  "velocity": 0.6614173228346457
              },
              {
                  "duration": 1.322086219374981,
                  "durationTicks": 40826,
                  "midi": 50,
                  "name": "D3",
                  "ticks": 3264000,
                  "time": 105.69954000000001,
                  "velocity": 0.7007874015748031
              },
              {
                  "duration": 0.3332903387500039,
                  "durationTicks": 10292,
                  "midi": 65,
                  "name": "F4",
                  "ticks": 3302400,
                  "time": 106.943064,
                  "velocity": 0.5748031496062992
              },
              {
                  "duration": 1.2939773956249923,
                  "durationTicks": 39958,
                  "midi": 58,
                  "name": "A#3",
                  "ticks": 3302400,
                  "time": 106.943064,
                  "velocity": 0.7716535433070866
              },
              {
                  "duration": 0.48273990281251145,
                  "durationTicks": 14907,
                  "midi": 53,
                  "name": "F3",
                  "ticks": 3302400,
                  "time": 106.943064,
                  "velocity": 0.5590551181102362
              },
              {
                  "duration": 0.5681350274999915,
                  "durationTicks": 17544,
                  "midi": 62,
                  "name": "D4",
                  "ticks": 3302400,
                  "time": 106.943064,
                  "velocity": 0.4881889763779528
              },
              {
                  "duration": 0.4696893775000035,
                  "durationTicks": 14504,
                  "midi": 46,
                  "name": "A#2",
                  "ticks": 3304800,
                  "time": 107.02078425,
                  "velocity": 0.4881889763779528
              },
              {
                  "duration": 0.8467621237499969,
                  "durationTicks": 26148,
                  "midi": 65,
                  "name": "F4",
                  "ticks": 3316800,
                  "time": 107.40938550000001,
                  "velocity": 0.6929133858267716
              },
              {
                  "duration": 0.7191389965624921,
                  "durationTicks": 22207,
                  "midi": 46,
                  "name": "A#2",
                  "ticks": 3321600,
                  "time": 107.56482600000001,
                  "velocity": 0.6062992125984252
              },
              {
                  "duration": 0.5621764750000011,
                  "durationTicks": 17360,
                  "midi": 55,
                  "name": "G3",
                  "ticks": 3340800,
                  "time": 108.186588,
                  "velocity": 0.7165354330708661
              },
              {
                  "duration": 0.43409997968750247,
                  "durationTicks": 13405,
                  "midi": 57,
                  "name": "A3",
                  "ticks": 3340800,
                  "time": 108.186588,
                  "velocity": 0.8818897637795275
              },
              {
                  "duration": 0.4696893775000035,
                  "durationTicks": 14504,
                  "midi": 45,
                  "name": "A2",
                  "ticks": 3355200,
                  "time": 108.6529095,
                  "velocity": 0.4881889763779528
              },
              {
                  "duration": 0.5041453550000057,
                  "durationTicks": 15568,
                  "midi": 60,
                  "name": "C4",
                  "ticks": 3355200,
                  "time": 108.6529095,
                  "velocity": 0.6771653543307087
              },
              {
                  "duration": 0.5681997943749906,
                  "durationTicks": 17546,
                  "midi": 57,
                  "name": "A3",
                  "ticks": 3355200,
                  "time": 108.6529095,
                  "velocity": 0.8976377952755905
              },
              {
                  "duration": 0.827947346562496,
                  "durationTicks": 25567,
                  "midi": 65,
                  "name": "F4",
                  "ticks": 3369600,
                  "time": 109.11923100000001,
                  "velocity": 0.5275590551181102
              },
              {
                  "duration": 0.870661100625,
                  "durationTicks": 26886,
                  "midi": 58,
                  "name": "A#3",
                  "ticks": 3369600,
                  "time": 109.11923100000001,
                  "velocity": 0.8346456692913385
              },
              {
                  "duration": 0.18750010312498944,
                  "durationTicks": 5790,
                  "midi": 62,
                  "name": "D4",
                  "ticks": 3369600,
                  "time": 109.11923100000001,
                  "velocity": 0.5511811023622047
              },
              {
                  "duration": 0.3306672803124968,
                  "durationTicks": 10211,
                  "midi": 46,
                  "name": "A#2",
                  "ticks": 3374400,
                  "time": 109.27467150000001,
                  "velocity": 0.6141732283464567
              },
              {
                  "duration": 0.44831630875000883,
                  "durationTicks": 13844,
                  "midi": 62,
                  "name": "D4",
                  "ticks": 3376800,
                  "time": 109.35239175000001,
                  "velocity": 0.44881889763779526
              },
              {
                  "duration": 0.11334203124999931,
                  "durationTicks": 3500,
                  "midi": 60,
                  "name": "C4",
                  "ticks": 3393600,
                  "time": 109.8964335,
                  "velocity": 0.5826771653543307
              },
              {
                  "duration": 0.21476695749998953,
                  "durationTicks": 6632,
                  "midi": 48,
                  "name": "C3",
                  "ticks": 3398400,
                  "time": 110.05187400000001,
                  "velocity": 0.6377952755905512
              },
              {
                  "duration": 0.30016208218749796,
                  "durationTicks": 9269,
                  "midi": 55,
                  "name": "G3",
                  "ticks": 3398400,
                  "time": 110.05187400000001,
                  "velocity": 0.48031496062992124
              },
              {
                  "duration": 0.4496116462500055,
                  "durationTicks": 13884,
                  "midi": 60,
                  "name": "C4",
                  "ticks": 3398400,
                  "time": 110.05187400000001,
                  "velocity": 0.7716535433070866
              },
              {
                  "duration": 0.2261011606249923,
                  "durationTicks": 6982,
                  "midi": 55,
                  "name": "G3",
                  "ticks": 3408000,
                  "time": 110.362755,
                  "velocity": 0.5275590551181102
              },
              {
                  "duration": 0.15783687437499339,
                  "durationTicks": 4874,
                  "midi": 48,
                  "name": "C3",
                  "ticks": 3408000,
                  "time": 110.362755,
                  "velocity": 0.5354330708661418
              },
              {
                  "duration": 0.19634078156249757,
                  "durationTicks": 6063,
                  "midi": 48,
                  "name": "C3",
                  "ticks": 3412800,
                  "time": 110.5181955,
                  "velocity": 0.5984251968503937
              },
              {
                  "duration": 2.6434923865624995,
                  "durationTicks": 81631,
                  "midi": 53,
                  "name": "F3",
                  "ticks": 3417600,
                  "time": 110.673636,
                  "velocity": 0.7007874015748031
              },
              {
                  "duration": 1.319851762187497,
                  "durationTicks": 40757,
                  "midi": 69,
                  "name": "A4",
                  "ticks": 3417600,
                  "time": 110.673636,
                  "velocity": 0.5511811023622047
              },
              {
                  "duration": 0.8501947681250073,
                  "durationTicks": 26254,
                  "midi": 57,
                  "name": "A3",
                  "ticks": 3417600,
                  "time": 110.673636,
                  "velocity": 0.5433070866141733
              },
              {
                  "duration": 0.2561853740625111,
                  "durationTicks": 7911,
                  "midi": 41,
                  "name": "F2",
                  "ticks": 3420000,
                  "time": 110.75135625,
                  "velocity": 0.4566929133858268
              },
              {
                  "duration": 1.0247414962499874,
                  "durationTicks": 31644,
                  "midi": 65,
                  "name": "F4",
                  "ticks": 3456000,
                  "time": 111.91716000000001,
                  "velocity": 0.4251968503937008
              },
              {
                  "duration": 1.314832329374994,
                  "durationTicks": 40602,
                  "midi": 58,
                  "name": "A#3",
                  "ticks": 3456000,
                  "time": 111.91716000000001,
                  "velocity": 0.7165354330708661
              },
              {
                  "duration": 1.2721509587500037,
                  "durationTicks": 39284,
                  "midi": 62,
                  "name": "D4",
                  "ticks": 3456000,
                  "time": 111.91716000000001,
                  "velocity": 0.6377952755905512
              },
              {
                  "duration": 0.5337114334374888,
                  "durationTicks": 16481,
                  "midi": 46,
                  "name": "A#2",
                  "ticks": 3482400,
                  "time": 112.77208275000001,
                  "velocity": 0.4881889763779528
              },
              {
                  "duration": 1.6034011409375069,
                  "durationTicks": 49513,
                  "midi": 55,
                  "name": "G3",
                  "ticks": 3494400,
                  "time": 113.160684,
                  "velocity": 0.5748031496062992
              },
              {
                  "duration": 1.34721576687501,
                  "durationTicks": 41602,
                  "midi": 57,
                  "name": "A3",
                  "ticks": 3494400,
                  "time": 113.160684,
                  "velocity": 0.6929133858267716
              },
              {
                  "duration": 1.3258750815625149,
                  "durationTicks": 40943,
                  "midi": 65,
                  "name": "F4",
                  "ticks": 3494400,
                  "time": 113.160684,
                  "velocity": 0.5196850393700787
              },
              {
                  "duration": 0.4745792765624941,
                  "durationTicks": 14655,
                  "midi": 67,
                  "name": "G4",
                  "ticks": 3532800,
                  "time": 114.40420800000001,
                  "velocity": 0.7795275590551181
              },
              {
                  "duration": 0.986950024687502,
                  "durationTicks": 30477,
                  "midi": 60,
                  "name": "C4",
                  "ticks": 3532800,
                  "time": 114.40420800000001,
                  "velocity": 0.7480314960629921
              },
              {
                  "duration": 0.3891841518749857,
                  "durationTicks": 12018,
                  "midi": 48,
                  "name": "C3",
                  "ticks": 3532800,
                  "time": 114.40420800000001,
                  "velocity": 0.4881889763779528
              },
              {
                  "duration": 0.6667102112499919,
                  "durationTicks": 20588,
                  "midi": 64,
                  "name": "E4",
                  "ticks": 3532800,
                  "time": 114.40420800000001,
                  "velocity": 0.6377952755905512
              },
              {
                  "duration": 0.5062502784375056,
                  "durationTicks": 15633,
                  "midi": 64,
                  "name": "E4",
                  "ticks": 3556800,
                  "time": 115.18141050000001,
                  "velocity": 0.5511811023622047
              },
              {
                  "duration": 0.7192361468749908,
                  "durationTicks": 22210,
                  "midi": 65,
                  "name": "F4",
                  "ticks": 3571200,
                  "time": 115.647732,
                  "velocity": 0.5354330708661418
              },
              {
                  "duration": 1.3170020196875072,
                  "durationTicks": 40669,
                  "midi": 38,
                  "name": "D2",
                  "ticks": 3571200,
                  "time": 115.647732,
                  "velocity": 0.3858267716535433
              },
              {
                  "duration": 1.3170020196875072,
                  "durationTicks": 40669,
                  "midi": 50,
                  "name": "D3",
                  "ticks": 3571200,
                  "time": 115.647732,
                  "velocity": 0.6299212598425197
              },
              {
                  "duration": 0.6831609974999964,
                  "durationTicks": 21096,
                  "midi": 57,
                  "name": "A3",
                  "ticks": 3590400,
                  "time": 116.26949400000001,
                  "velocity": 0.5433070866141733
              },
              {
                  "duration": 1.0988348012499927,
                  "durationTicks": 33932,
                  "midi": 65,
                  "name": "F4",
                  "ticks": 3609600,
                  "time": 116.89125600000001,
                  "velocity": 0.6771653543307087
              },
              {
                  "duration": 1.0988348012499927,
                  "durationTicks": 33932,
                  "midi": 70,
                  "name": "A#4",
                  "ticks": 3609600,
                  "time": 116.89125600000001,
                  "velocity": 0.5669291338582677
              },
              {
                  "duration": 1.3123064212499997,
                  "durationTicks": 40524,
                  "midi": 34,
                  "name": "A#1",
                  "ticks": 3609600,
                  "time": 116.89125600000001,
                  "velocity": 0.5354330708661418
              },
              {
                  "duration": 0.9606870568750026,
                  "durationTicks": 29666,
                  "midi": 53,
                  "name": "F3",
                  "ticks": 3619200,
                  "time": 117.20213700000001,
                  "velocity": 0.4566929133858268
              },
              {
                  "duration": 0.853951246874999,
                  "durationTicks": 26370,
                  "midi": 58,
                  "name": "A#3",
                  "ticks": 3621600,
                  "time": 117.27985725,
                  "velocity": 0.6141732283464567
              },
              {
                  "duration": 0.3842942528125093,
                  "durationTicks": 11867,
                  "midi": 46,
                  "name": "A#2",
                  "ticks": 3626400,
                  "time": 117.43529775,
                  "velocity": 0.4330708661417323
              },
              {
                  "duration": 0.5187826687499921,
                  "durationTicks": 16020,
                  "midi": 55,
                  "name": "G3",
                  "ticks": 3648000,
                  "time": 118.13478,
                  "velocity": 0.5905511811023622
              },
              {
                  "duration": 0.497441983437497,
                  "durationTicks": 15361,
                  "midi": 31,
                  "name": "G1",
                  "ticks": 3648000,
                  "time": 118.13478,
                  "velocity": 0.7480314960629921
              },
              {
                  "duration": 0.5205637578124964,
                  "durationTicks": 16075,
                  "midi": 60,
                  "name": "C4",
                  "ticks": 3662400,
                  "time": 118.60110150000001,
                  "velocity": 0.5039370078740157
              },
              {
                  "duration": 0.4992230725000013,
                  "durationTicks": 15416,
                  "midi": 33,
                  "name": "A1",
                  "ticks": 3662400,
                  "time": 118.60110150000001,
                  "velocity": 0.8267716535433071
              },
              {
                  "duration": 0.31088100000000907,
                  "durationTicks": 9600,
                  "midi": 34,
                  "name": "A#1",
                  "ticks": 3676800,
                  "time": 119.067423,
                  "velocity": 0.8661417322834646
              }
          ],
          "endOfTrackTicks": 3686400
      },
      {
          "channel": 5,
          "controlChanges": {},
          "pitchBends": [],
          "instrument": {
              "family": "piano",
              "number": 5,
              "name": "acoustic grand piano"
          },
          "name": "Piano",
          "notes": [
              {
                  "duration": 0.11658037500000007,
                  "durationTicks": 3600,
                  "midi": 41,
                  "name": "F2",
                  "ticks": 38400,
                  "time": 1.243524,
                  "velocity": 0.7637795275590551
              },
              {
                  "duration": 0.11658037500000007,
                  "durationTicks": 3600,
                  "midi": 48,
                  "name": "C3",
                  "ticks": 38400,
                  "time": 1.243524,
                  "velocity": 0.6535433070866141
              },
              {
                  "duration": 0.11658037500000007,
                  "durationTicks": 3600,
                  "midi": 57,
                  "name": "A3",
                  "ticks": 38400,
                  "time": 1.243524,
                  "velocity": 0.7559055118110236
              },
              {
                  "duration": 0.11658037499999985,
                  "durationTicks": 3600,
                  "midi": 41,
                  "name": "F2",
                  "ticks": 43200,
                  "time": 1.3989645000000002,
                  "velocity": 0.6929133858267716
              },
              {
                  "duration": 0.07772024999999982,
                  "durationTicks": 2400,
                  "midi": 48,
                  "name": "C3",
                  "ticks": 43200,
                  "time": 1.3989645000000002,
                  "velocity": 0.5748031496062992
              },
              {
                  "duration": 0.11658037499999985,
                  "durationTicks": 3600,
                  "midi": 57,
                  "name": "A3",
                  "ticks": 43200,
                  "time": 1.3989645000000002,
                  "velocity": 0.6929133858267716
              },
              {
                  "duration": 0.11658037499999985,
                  "durationTicks": 3600,
                  "midi": 84,
                  "name": "C6",
                  "ticks": 43200,
                  "time": 1.3989645000000002,
                  "velocity": 0.6456692913385826
              },
              {
                  "duration": 0.03886012500000002,
                  "durationTicks": 1200,
                  "midi": 79,
                  "name": "G5",
                  "ticks": 48000,
                  "time": 1.554405,
                  "velocity": 0.7559055118110236
              },
              {
                  "duration": 0.11658037500000007,
                  "durationTicks": 3600,
                  "midi": 29,
                  "name": "F1",
                  "ticks": 52800,
                  "time": 1.7098455000000001,
                  "velocity": 0.5905511811023622
              },
              {
                  "duration": 0.03886012500000002,
                  "durationTicks": 1200,
                  "midi": 81,
                  "name": "A5",
                  "ticks": 52800,
                  "time": 1.7098455000000001,
                  "velocity": 0.7086614173228346
              },
              {
                  "duration": 0.07772024999999982,
                  "durationTicks": 2400,
                  "midi": 29,
                  "name": "F1",
                  "ticks": 57600,
                  "time": 1.8652860000000002,
                  "velocity": 0.6614173228346457
              },
              {
                  "duration": 0.0777202499999996,
                  "durationTicks": 2400,
                  "midi": 29,
                  "name": "F1",
                  "ticks": 62400,
                  "time": 2.0207265000000003,
                  "velocity": 0.6692913385826772
              },
              {
                  "duration": 0.0777202499999996,
                  "durationTicks": 2400,
                  "midi": 41,
                  "name": "F2",
                  "ticks": 62400,
                  "time": 2.0207265000000003,
                  "velocity": 0.6771653543307087
              },
              {
                  "duration": 0.0777202499999996,
                  "durationTicks": 2400,
                  "midi": 57,
                  "name": "A3",
                  "ticks": 62400,
                  "time": 2.0207265000000003,
                  "velocity": 0.5669291338582677
              },
              {
                  "duration": 0.0777202499999996,
                  "durationTicks": 2400,
                  "midi": 77,
                  "name": "F5",
                  "ticks": 62400,
                  "time": 2.0207265000000003,
                  "velocity": 0.6456692913385826
              },
              {
                  "duration": 0.07772025000000005,
                  "durationTicks": 2400,
                  "midi": 29,
                  "name": "F1",
                  "ticks": 67200,
                  "time": 2.176167,
                  "velocity": 0.7559055118110236
              },
              {
                  "duration": 0.1554405000000001,
                  "durationTicks": 4800,
                  "midi": 34,
                  "name": "A#1",
                  "ticks": 72000,
                  "time": 2.3316075,
                  "velocity": 0.7874015748031497
              },
              {
                  "duration": 0.07772025000000005,
                  "durationTicks": 2400,
                  "midi": 74,
                  "name": "D5",
                  "ticks": 72000,
                  "time": 2.3316075,
                  "velocity": 0.7952755905511811
              },
              {
                  "duration": 0.11658037499999985,
                  "durationTicks": 3600,
                  "midi": 34,
                  "name": "A#1",
                  "ticks": 76800,
                  "time": 2.487048,
                  "velocity": 0.8346456692913385
              },
              {
                  "duration": 0.11658037499999985,
                  "durationTicks": 3600,
                  "midi": 34,
                  "name": "A#1",
                  "ticks": 81600,
                  "time": 2.6424885000000002,
                  "velocity": 0.7716535433070866
              },
              {
                  "duration": 0.07772025000000005,
                  "durationTicks": 2400,
                  "midi": 77,
                  "name": "F5",
                  "ticks": 81600,
                  "time": 2.6424885000000002,
                  "velocity": 0.6771653543307087
              },
              {
                  "duration": 0.11658037499999985,
                  "durationTicks": 3600,
                  "midi": 34,
                  "name": "A#1",
                  "ticks": 86400,
                  "time": 2.7979290000000003,
                  "velocity": 0.8346456692913385
              },
              {
                  "duration": 0.07772025000000005,
                  "durationTicks": 2400,
                  "midi": 74,
                  "name": "D5",
                  "ticks": 86400,
                  "time": 2.7979290000000003,
                  "velocity": 0.8188976377952756
              },
              {
                  "duration": 0.11658037500000029,
                  "durationTicks": 3600,
                  "midi": 34,
                  "name": "A#1",
                  "ticks": 91200,
                  "time": 2.9533695,
                  "velocity": 0.7716535433070866
              },
              {
                  "duration": 0.11658037500000029,
                  "durationTicks": 3600,
                  "midi": 53,
                  "name": "F3",
                  "ticks": 91200,
                  "time": 2.9533695,
                  "velocity": 0.5196850393700787
              },
              {
                  "duration": 0.07772025000000005,
                  "durationTicks": 2400,
                  "midi": 72,
                  "name": "C5",
                  "ticks": 91200,
                  "time": 2.9533695,
                  "velocity": 0.7086614173228346
              },
              {
                  "duration": 0.07772025000000005,
                  "durationTicks": 2400,
                  "midi": 34,
                  "name": "A#1",
                  "ticks": 96000,
                  "time": 3.10881,
                  "velocity": 0.8346456692913385
              },
              {
                  "duration": 0.038860125000000245,
                  "durationTicks": 1200,
                  "midi": 53,
                  "name": "F3",
                  "ticks": 96000,
                  "time": 3.10881,
                  "velocity": 0.5905511811023622
              },
              {
                  "duration": 0.07772025000000005,
                  "durationTicks": 2400,
                  "midi": 74,
                  "name": "D5",
                  "ticks": 96000,
                  "time": 3.10881,
                  "velocity": 0.7637795275590551
              },
              {
                  "duration": 0.07772025000000005,
                  "durationTicks": 2400,
                  "midi": 34,
                  "name": "A#1",
                  "ticks": 100800,
                  "time": 3.2642505,
                  "velocity": 0.7716535433070866
              },
              {
                  "duration": 0.07772025000000005,
                  "durationTicks": 2400,
                  "midi": 72,
                  "name": "C5",
                  "ticks": 100800,
                  "time": 3.2642505,
                  "velocity": 0.7086614173228346
              },
              {
                  "duration": 0.0388601249999998,
                  "durationTicks": 1200,
                  "midi": 34,
                  "name": "A#1",
                  "ticks": 105600,
                  "time": 3.4196910000000003,
                  "velocity": 0.8503937007874016
              },
              {
                  "duration": 0.07772025000000005,
                  "durationTicks": 2400,
                  "midi": 69,
                  "name": "A4",
                  "ticks": 105600,
                  "time": 3.4196910000000003,
                  "velocity": 0.8346456692913385
              },
              {
                  "duration": 0.07772025000000005,
                  "durationTicks": 2400,
                  "midi": 67,
                  "name": "G4",
                  "ticks": 110400,
                  "time": 3.5751315000000004,
                  "velocity": 0.8031496062992126
              },
              {
                  "duration": 0.11658037499999985,
                  "durationTicks": 3600,
                  "midi": 31,
                  "name": "G1",
                  "ticks": 115200,
                  "time": 3.7305720000000004,
                  "velocity": 0.6850393700787402
              },
              {
                  "duration": 0.11658037499999985,
                  "durationTicks": 3600,
                  "midi": 43,
                  "name": "G2",
                  "ticks": 115200,
                  "time": 3.7305720000000004,
                  "velocity": 0.7322834645669292
              },
              {
                  "duration": 0.11658037499999985,
                  "durationTicks": 3600,
                  "midi": 58,
                  "name": "A#3",
                  "ticks": 115200,
                  "time": 3.7305720000000004,
                  "velocity": 0.6771653543307087
              },
              {
                  "duration": 0.0388601249999998,
                  "durationTicks": 1200,
                  "midi": 69,
                  "name": "A4",
                  "ticks": 115200,
                  "time": 3.7305720000000004,
                  "velocity": 0.7244094488188977
              },
              {
                  "duration": 0.11658037500000029,
                  "durationTicks": 3600,
                  "midi": 31,
                  "name": "G1",
                  "ticks": 120000,
                  "time": 3.8860125,
                  "velocity": 0.6062992125984252
              },
              {
                  "duration": 0.07772025000000005,
                  "durationTicks": 2400,
                  "midi": 43,
                  "name": "G2",
                  "ticks": 120000,
                  "time": 3.8860125,
                  "velocity": 0.6614173228346457
              },
              {
                  "duration": 0.11658037500000029,
                  "durationTicks": 3600,
                  "midi": 58,
                  "name": "A#3",
                  "ticks": 120000,
                  "time": 3.8860125,
                  "velocity": 0.6062992125984252
              },
              {
                  "duration": 0.07772025000000005,
                  "durationTicks": 2400,
                  "midi": 72,
                  "name": "C5",
                  "ticks": 120000,
                  "time": 3.8860125,
                  "velocity": 0.7244094488188977
              },
              {
                  "duration": 0.03886012499999936,
                  "durationTicks": 1200,
                  "midi": 31,
                  "name": "G1",
                  "ticks": 124800,
                  "time": 4.041453000000001,
                  "velocity": 0.6850393700787402
              },
              {
                  "duration": 0.03886012499999936,
                  "durationTicks": 1200,
                  "midi": 58,
                  "name": "A#3",
                  "ticks": 124800,
                  "time": 4.041453000000001,
                  "velocity": 0.6771653543307087
              },
              {
                  "duration": 0.0777202499999996,
                  "durationTicks": 2400,
                  "midi": 74,
                  "name": "D5",
                  "ticks": 124800,
                  "time": 4.041453000000001,
                  "velocity": 0.7716535433070866
              },
              {
                  "duration": 0.07772025000000049,
                  "durationTicks": 2400,
                  "midi": 72,
                  "name": "C5",
                  "ticks": 129600,
                  "time": 4.1968935,
                  "velocity": 0.7244094488188977
              },
              {
                  "duration": 0.07772025000000049,
                  "durationTicks": 2400,
                  "midi": 31,
                  "name": "G1",
                  "ticks": 139200,
                  "time": 4.5077745,
                  "velocity": 0.7716535433070866
              },
              {
                  "duration": 0.07772025000000049,
                  "durationTicks": 2400,
                  "midi": 69,
                  "name": "A4",
                  "ticks": 139200,
                  "time": 4.5077745,
                  "velocity": 0.6771653543307087
              },
              {
                  "duration": 0.11658037499999985,
                  "durationTicks": 3600,
                  "midi": 36,
                  "name": "C2",
                  "ticks": 148800,
                  "time": 4.8186555,
                  "velocity": 0.8188976377952756
              },
              {
                  "duration": 0.07772025000000049,
                  "durationTicks": 2400,
                  "midi": 67,
                  "name": "G4",
                  "ticks": 148800,
                  "time": 4.8186555,
                  "velocity": 0.8188976377952756
              },
              {
                  "duration": 0.11658037499999985,
                  "durationTicks": 3600,
                  "midi": 36,
                  "name": "C2",
                  "ticks": 153600,
                  "time": 4.974096,
                  "velocity": 0.8661417322834646
              },
              {
                  "duration": 0.11658037499999985,
                  "durationTicks": 3600,
                  "midi": 36,
                  "name": "C2",
                  "ticks": 158400,
                  "time": 5.1295365,
                  "velocity": 0.8031496062992126
              },
              {
                  "duration": 0.0777202499999996,
                  "durationTicks": 2400,
                  "midi": 69,
                  "name": "A4",
                  "ticks": 158400,
                  "time": 5.1295365,
                  "velocity": 0.8031496062992126
              },
              {
                  "duration": 0.11658037499999985,
                  "durationTicks": 3600,
                  "midi": 36,
                  "name": "C2",
                  "ticks": 163200,
                  "time": 5.2849770000000005,
                  "velocity": 0.8661417322834646
              },
              {
                  "duration": 0.0777202499999996,
                  "durationTicks": 2400,
                  "midi": 67,
                  "name": "G4",
                  "ticks": 163200,
                  "time": 5.2849770000000005,
                  "velocity": 0.8346456692913385
              },
              {
                  "duration": 0.0777202499999996,
                  "durationTicks": 2400,
                  "midi": 36,
                  "name": "C2",
                  "ticks": 168000,
                  "time": 5.440417500000001,
                  "velocity": 0.8031496062992126
              },
              {
                  "duration": 0.0777202499999996,
                  "durationTicks": 2400,
                  "midi": 65,
                  "name": "F4",
                  "ticks": 168000,
                  "time": 5.440417500000001,
                  "velocity": 0.7637795275590551
              },
              {
                  "duration": 0.0777202499999996,
                  "durationTicks": 2400,
                  "midi": 67,
                  "name": "G4",
                  "ticks": 172800,
                  "time": 5.595858000000001,
                  "velocity": 0.8031496062992126
              },
              {
                  "duration": 0.0777202499999996,
                  "durationTicks": 2400,
                  "midi": 65,
                  "name": "F4",
                  "ticks": 177600,
                  "time": 5.751298500000001,
                  "velocity": 0.7244094488188977
              },
              {
                  "duration": 0.07772025000000049,
                  "durationTicks": 2400,
                  "midi": 62,
                  "name": "D4",
                  "ticks": 182400,
                  "time": 5.906739,
                  "velocity": 0.8346456692913385
              },
              {
                  "duration": 0.07772025000000049,
                  "durationTicks": 2400,
                  "midi": 60,
                  "name": "C4",
                  "ticks": 187200,
                  "time": 6.0621795,
                  "velocity": 0.7952755905511811
              },
              {
                  "duration": 0.11658037499999985,
                  "durationTicks": 3600,
                  "midi": 38,
                  "name": "D2",
                  "ticks": 192000,
                  "time": 6.21762,
                  "velocity": 0.7716535433070866
              },
              {
                  "duration": 0.11658037499999985,
                  "durationTicks": 3600,
                  "midi": 65,
                  "name": "F4",
                  "ticks": 192000,
                  "time": 6.21762,
                  "velocity": 0.6456692913385826
              },
              {
                  "duration": 0.038860125000000245,
                  "durationTicks": 1200,
                  "midi": 81,
                  "name": "A5",
                  "ticks": 192000,
                  "time": 6.21762,
                  "velocity": 0.7716535433070866
              },
              {
                  "duration": 0.11658037499999985,
                  "durationTicks": 3600,
                  "midi": 38,
                  "name": "D2",
                  "ticks": 196800,
                  "time": 6.3730605,
                  "velocity": 0.7007874015748031
              },
              {
                  "duration": 0.11658037499999985,
                  "durationTicks": 3600,
                  "midi": 65,
                  "name": "F4",
                  "ticks": 196800,
                  "time": 6.3730605,
                  "velocity": 0.5669291338582677
              },
              {
                  "duration": 0.11658037499999985,
                  "durationTicks": 3600,
                  "midi": 84,
                  "name": "C6",
                  "ticks": 196800,
                  "time": 6.3730605,
                  "velocity": 0.7244094488188977
              },
              {
                  "duration": 0.07772025000000049,
                  "durationTicks": 2400,
                  "midi": 38,
                  "name": "D2",
                  "ticks": 201600,
                  "time": 6.528501,
                  "velocity": 0.7716535433070866
              },
              {
                  "duration": 0.11658037499999985,
                  "durationTicks": 3600,
                  "midi": 65,
                  "name": "F4",
                  "ticks": 201600,
                  "time": 6.528501,
                  "velocity": 0.6456692913385826
              },
              {
                  "duration": 0.011075135625000065,
                  "durationTicks": 342,
                  "midi": 84,
                  "name": "C6",
                  "ticks": 201600,
                  "time": 6.528501,
                  "velocity": 0.7874015748031497
              },
              {
                  "duration": 0.11658037499999985,
                  "durationTicks": 3600,
                  "midi": 86,
                  "name": "D6",
                  "ticks": 201600,
                  "time": 6.528501,
                  "velocity": 0.7165354330708661
              },
              {
                  "duration": 0.038860125000000245,
                  "durationTicks": 1200,
                  "midi": 65,
                  "name": "F4",
                  "ticks": 206400,
                  "time": 6.6839415,
                  "velocity": 0.5669291338582677
              },
              {
                  "duration": 0.11658037499999985,
                  "durationTicks": 3600,
                  "midi": 84,
                  "name": "C6",
                  "ticks": 206400,
                  "time": 6.6839415,
                  "velocity": 0.7244094488188977
              },
              {
                  "duration": 0.0777202499999996,
                  "durationTicks": 2400,
                  "midi": 84,
                  "name": "C6",
                  "ticks": 211200,
                  "time": 6.8393820000000005,
                  "velocity": 0.7874015748031497
              },
              {
                  "duration": 0.0777202499999996,
                  "durationTicks": 2400,
                  "midi": 38,
                  "name": "D2",
                  "ticks": 216000,
                  "time": 6.994822500000001,
                  "velocity": 0.7401574803149606
              },
              {
                  "duration": 0.038860125000000245,
                  "durationTicks": 1200,
                  "midi": 81,
                  "name": "A5",
                  "ticks": 216000,
                  "time": 6.994822500000001,
                  "velocity": 0.6535433070866141
              },
              {
                  "duration": 0.1554405000000001,
                  "durationTicks": 4800,
                  "midi": 34,
                  "name": "A#1",
                  "ticks": 225600,
                  "time": 7.305703500000001,
                  "velocity": 0.7874015748031497
              },
              {
                  "duration": 0.0777202499999996,
                  "durationTicks": 2400,
                  "midi": 79,
                  "name": "G5",
                  "ticks": 225600,
                  "time": 7.305703500000001,
                  "velocity": 0.7086614173228346
              },
              {
                  "duration": 0.11658037499999985,
                  "durationTicks": 3600,
                  "midi": 34,
                  "name": "A#1",
                  "ticks": 230400,
                  "time": 7.461144000000001,
                  "velocity": 0.8346456692913385
              },
              {
                  "duration": 0.11658037500000074,
                  "durationTicks": 3600,
                  "midi": 34,
                  "name": "A#1",
                  "ticks": 235200,
                  "time": 7.6165845,
                  "velocity": 0.7559055118110236
              },
              {
                  "duration": 0.038860125000000245,
                  "durationTicks": 1200,
                  "midi": 81,
                  "name": "A5",
                  "ticks": 235200,
                  "time": 7.6165845,
                  "velocity": 0.7716535433070866
              },
              {
                  "duration": 0.11658037499999985,
                  "durationTicks": 3600,
                  "midi": 34,
                  "name": "A#1",
                  "ticks": 240000,
                  "time": 7.772025,
                  "velocity": 0.8346456692913385
              },
              {
                  "duration": 0.11658037499999985,
                  "durationTicks": 3600,
                  "midi": 53,
                  "name": "F3",
                  "ticks": 240000,
                  "time": 7.772025,
                  "velocity": 0.6141732283464567
              },
              {
                  "duration": 0.038860125000000245,
                  "durationTicks": 1200,
                  "midi": 79,
                  "name": "G5",
                  "ticks": 240000,
                  "time": 7.772025,
                  "velocity": 0.7795275590551181
              },
              {
                  "duration": 0.11658037499999985,
                  "durationTicks": 3600,
                  "midi": 34,
                  "name": "A#1",
                  "ticks": 244800,
                  "time": 7.9274655,
                  "velocity": 0.7559055118110236
              },
              {
                  "duration": 0.07772025000000049,
                  "durationTicks": 2400,
                  "midi": 53,
                  "name": "F3",
                  "ticks": 244800,
                  "time": 7.9274655,
                  "velocity": 0.5354330708661418
              },
              {
                  "duration": 0.11658037499999985,
                  "durationTicks": 3600,
                  "midi": 65,
                  "name": "F4",
                  "ticks": 244800,
                  "time": 7.9274655,
                  "velocity": 0.5196850393700787
              },
              {
                  "duration": 0.07772025000000049,
                  "durationTicks": 2400,
                  "midi": 77,
                  "name": "F5",
                  "ticks": 244800,
                  "time": 7.9274655,
                  "velocity": 0.6929133858267716
              },
              {
                  "duration": 0.07772024999999871,
                  "durationTicks": 2400,
                  "midi": 34,
                  "name": "A#1",
                  "ticks": 249600,
                  "time": 8.082906000000001,
                  "velocity": 0.8346456692913385
              },
              {
                  "duration": 0.07772024999999871,
                  "durationTicks": 2400,
                  "midi": 65,
                  "name": "F4",
                  "ticks": 249600,
                  "time": 8.082906000000001,
                  "velocity": 0.5984251968503937
              },
              {
                  "duration": 0.07772024999999871,
                  "durationTicks": 2400,
                  "midi": 79,
                  "name": "G5",
                  "ticks": 249600,
                  "time": 8.082906000000001,
                  "velocity": 0.7874015748031497
              },
              {
                  "duration": 0.07772025000000049,
                  "durationTicks": 2400,
                  "midi": 77,
                  "name": "F5",
                  "ticks": 254400,
                  "time": 8.2383465,
                  "velocity": 0.6771653543307087
              },
              {
                  "duration": 0.07772025000000049,
                  "durationTicks": 2400,
                  "midi": 74,
                  "name": "D5",
                  "ticks": 259200,
                  "time": 8.393787,
                  "velocity": 0.8346456692913385
              },
              {
                  "duration": 0.07772025000000049,
                  "durationTicks": 2400,
                  "midi": 72,
                  "name": "C5",
                  "ticks": 264000,
                  "time": 8.5492275,
                  "velocity": 0.8031496062992126
              },
              {
                  "duration": 0.11658037499999985,
                  "durationTicks": 3600,
                  "midi": 31,
                  "name": "G1",
                  "ticks": 268800,
                  "time": 8.704668,
                  "velocity": 0.8346456692913385
              },
              {
                  "duration": 0.07772025000000049,
                  "durationTicks": 2400,
                  "midi": 74,
                  "name": "D5",
                  "ticks": 268800,
                  "time": 8.704668,
                  "velocity": 0.8110236220472441
              },
              {
                  "duration": 0.11658037499999985,
                  "durationTicks": 3600,
                  "midi": 31,
                  "name": "G1",
                  "ticks": 273600,
                  "time": 8.8601085,
                  "velocity": 0.7559055118110236
              },
              {
                  "duration": 0.07772025000000049,
                  "durationTicks": 2400,
                  "midi": 77,
                  "name": "F5",
                  "ticks": 273600,
                  "time": 8.8601085,
                  "velocity": 0.7401574803149606
              },
              {
                  "duration": 0.07772025000000049,
                  "durationTicks": 2400,
                  "midi": 31,
                  "name": "G1",
                  "ticks": 278400,
                  "time": 9.015549,
                  "velocity": 0.8346456692913385
              },
              {
                  "duration": 0.03886012500000113,
                  "durationTicks": 1200,
                  "midi": 79,
                  "name": "G5",
                  "ticks": 278400,
                  "time": 9.015549,
                  "velocity": 0.8110236220472441
              },
              {
                  "duration": 0.11658037499999985,
                  "durationTicks": 3600,
                  "midi": 33,
                  "name": "A1",
                  "ticks": 283200,
                  "time": 9.170989500000001,
                  "velocity": 0.7716535433070866
              },
              {
                  "duration": 0.03886012499999936,
                  "durationTicks": 1200,
                  "midi": 77,
                  "name": "F5",
                  "ticks": 283200,
                  "time": 9.170989500000001,
                  "velocity": 0.7165354330708661
              },
              {
                  "duration": 0.07772025000000049,
                  "durationTicks": 2400,
                  "midi": 33,
                  "name": "A1",
                  "ticks": 288000,
                  "time": 9.32643,
                  "velocity": 0.8346456692913385
              },
              {
                  "duration": 0.07772024999999871,
                  "durationTicks": 2400,
                  "midi": 33,
                  "name": "A1",
                  "ticks": 292800,
                  "time": 9.481870500000001,
                  "velocity": 0.7716535433070866
              },
              {
                  "duration": 0.07772024999999871,
                  "durationTicks": 2400,
                  "midi": 79,
                  "name": "G5",
                  "ticks": 292800,
                  "time": 9.481870500000001,
                  "velocity": 0.7559055118110236
              },
              {
                  "duration": 0.11658037499999985,
                  "durationTicks": 3600,
                  "midi": 34,
                  "name": "A#1",
                  "ticks": 297600,
                  "time": 9.637311,
                  "velocity": 0.8582677165354331
              },
              {
                  "duration": 0.03886012499999936,
                  "durationTicks": 1200,
                  "midi": 81,
                  "name": "A5",
                  "ticks": 297600,
                  "time": 9.637311,
                  "velocity": 0.8110236220472441
              },
              {
                  "duration": 0.11658037499999985,
                  "durationTicks": 3600,
                  "midi": 34,
                  "name": "A#1",
                  "ticks": 302400,
                  "time": 9.792751500000001,
                  "velocity": 0.8031496062992126
              },
              {
                  "duration": 0.03886012499999936,
                  "durationTicks": 1200,
                  "midi": 84,
                  "name": "C6",
                  "ticks": 302400,
                  "time": 9.792751500000001,
                  "velocity": 0.7086614173228346
              },
              {
                  "duration": 0.11658037500000162,
                  "durationTicks": 3600,
                  "midi": 36,
                  "name": "C2",
                  "ticks": 312000,
                  "time": 10.1036325,
                  "velocity": 0.8031496062992126
              },
              {
                  "duration": 0.11658037499999985,
                  "durationTicks": 3600,
                  "midi": 36,
                  "name": "C2",
                  "ticks": 316800,
                  "time": 10.259073,
                  "velocity": 0.8661417322834646
              },
              {
                  "duration": 0.03886012499999936,
                  "durationTicks": 1200,
                  "midi": 84,
                  "name": "C6",
                  "ticks": 316800,
                  "time": 10.259073,
                  "velocity": 0.7874015748031497
              },
              {
                  "duration": 0.07772025000000049,
                  "durationTicks": 2400,
                  "midi": 81,
                  "name": "A5",
                  "ticks": 321600,
                  "time": 10.4145135,
                  "velocity": 0.7559055118110236
              },
              {
                  "duration": 0.07772025000000049,
                  "durationTicks": 2400,
                  "midi": 36,
                  "name": "C2",
                  "ticks": 326400,
                  "time": 10.569954000000001,
                  "velocity": 0.84251968503937
              },
              {
                  "duration": 0.07772025000000049,
                  "durationTicks": 2400,
                  "midi": 67,
                  "name": "G4",
                  "ticks": 326400,
                  "time": 10.569954000000001,
                  "velocity": 0.84251968503937
              },
              {
                  "duration": 0.07772025000000049,
                  "durationTicks": 2400,
                  "midi": 77,
                  "name": "F5",
                  "ticks": 331200,
                  "time": 10.7253945,
                  "velocity": 0.7716535433070866
              },
              {
                  "duration": 0.11658037499999985,
                  "durationTicks": 3600,
                  "midi": 36,
                  "name": "C2",
                  "ticks": 336000,
                  "time": 10.880835000000001,
                  "velocity": 0.8503937007874016
              },
              {
                  "duration": 0.07772024999999871,
                  "durationTicks": 2400,
                  "midi": 74,
                  "name": "D5",
                  "ticks": 336000,
                  "time": 10.880835000000001,
                  "velocity": 0.8110236220472441
              },
              {
                  "duration": 0.009974098749999882,
                  "durationTicks": 308,
                  "midi": 36,
                  "name": "C2",
                  "ticks": 340800,
                  "time": 11.0362755,
                  "velocity": 0.7952755905511811
              },
              {
                  "duration": 0.07772025000000049,
                  "durationTicks": 2400,
                  "midi": 72,
                  "name": "C5",
                  "ticks": 340800,
                  "time": 11.0362755,
                  "velocity": 0.7086614173228346
              },
              {
                  "duration": 0.11658037499999985,
                  "durationTicks": 3600,
                  "midi": 29,
                  "name": "F1",
                  "ticks": 345600,
                  "time": 11.191716000000001,
                  "velocity": 0.8031496062992126
              },
              {
                  "duration": 0.11658037499999985,
                  "durationTicks": 3600,
                  "midi": 69,
                  "name": "A4",
                  "ticks": 345600,
                  "time": 11.191716000000001,
                  "velocity": 0.7559055118110236
              },
              {
                  "duration": 0.11658037499999985,
                  "durationTicks": 3600,
                  "midi": 29,
                  "name": "F1",
                  "ticks": 350400,
                  "time": 11.3471565,
                  "velocity": 0.7401574803149606
              },
              {
                  "duration": 0.11658037499999985,
                  "durationTicks": 3600,
                  "midi": 48,
                  "name": "C3",
                  "ticks": 350400,
                  "time": 11.3471565,
                  "velocity": 0.5905511811023622
              },
              {
                  "duration": 0.11658037499999985,
                  "durationTicks": 3600,
                  "midi": 69,
                  "name": "A4",
                  "ticks": 350400,
                  "time": 11.3471565,
                  "velocity": 0.6771653543307087
              },
              {
                  "duration": 0.03886012499999936,
                  "durationTicks": 1200,
                  "midi": 84,
                  "name": "C6",
                  "ticks": 350400,
                  "time": 11.3471565,
                  "velocity": 0.6456692913385826
              },
              {
                  "duration": 0.03886012499999936,
                  "durationTicks": 1200,
                  "midi": 29,
                  "name": "F1",
                  "ticks": 355200,
                  "time": 11.502597000000002,
                  "velocity": 0.8031496062992126
              },
              {
                  "duration": 0.03886012499999936,
                  "durationTicks": 1200,
                  "midi": 48,
                  "name": "C3",
                  "ticks": 355200,
                  "time": 11.502597000000002,
                  "velocity": 0.6614173228346457
              },
              {
                  "duration": 0.07772024999999871,
                  "durationTicks": 2400,
                  "midi": 67,
                  "name": "G4",
                  "ticks": 355200,
                  "time": 11.502597000000002,
                  "velocity": 0.8110236220472441
              },
              {
                  "duration": 0.11658037499999985,
                  "durationTicks": 3600,
                  "midi": 69,
                  "name": "A4",
                  "ticks": 360000,
                  "time": 11.6580375,
                  "velocity": 0.7716535433070866
              },
              {
                  "duration": 0.07772025000000049,
                  "durationTicks": 2400,
                  "midi": 29,
                  "name": "F1",
                  "ticks": 369600,
                  "time": 11.968918500000001,
                  "velocity": 0.7795275590551181
              },
              {
                  "duration": 0.07772025000000049,
                  "durationTicks": 2400,
                  "midi": 65,
                  "name": "F4",
                  "ticks": 369600,
                  "time": 11.968918500000001,
                  "velocity": 0.7244094488188977
              },
              {
                  "duration": 0.07772025000000049,
                  "durationTicks": 2400,
                  "midi": 34,
                  "name": "A#1",
                  "ticks": 379200,
                  "time": 12.279799500000001,
                  "velocity": 0.8031496062992126
              },
              {
                  "duration": 0.11658037499999985,
                  "durationTicks": 3600,
                  "midi": 62,
                  "name": "D4",
                  "ticks": 379200,
                  "time": 12.279799500000001,
                  "velocity": 0.7559055118110236
              },
              {
                  "duration": 0.11658037499999985,
                  "durationTicks": 3600,
                  "midi": 34,
                  "name": "A#1",
                  "ticks": 384000,
                  "time": 12.43524,
                  "velocity": 0.7480314960629921
              },
              {
                  "duration": 0.11658037499999985,
                  "durationTicks": 3600,
                  "midi": 65,
                  "name": "F4",
                  "ticks": 384000,
                  "time": 12.43524,
                  "velocity": 0.8110236220472441
              },
              {
                  "duration": 0.11658037499999985,
                  "durationTicks": 3600,
                  "midi": 34,
                  "name": "A#1",
                  "ticks": 388800,
                  "time": 12.590680500000001,
                  "velocity": 0.6771653543307087
              },
              {
                  "duration": 0.07772024999999871,
                  "durationTicks": 2400,
                  "midi": 46,
                  "name": "A#2",
                  "ticks": 388800,
                  "time": 12.590680500000001,
                  "velocity": 0.5669291338582677
              },
              {
                  "duration": 0.11658037499999985,
                  "durationTicks": 3600,
                  "midi": 58,
                  "name": "A#3",
                  "ticks": 388800,
                  "time": 12.590680500000001,
                  "velocity": 0.5669291338582677
              },
              {
                  "duration": 0.11658037499999985,
                  "durationTicks": 3600,
                  "midi": 65,
                  "name": "F4",
                  "ticks": 388800,
                  "time": 12.590680500000001,
                  "velocity": 0.7401574803149606
              },
              {
                  "duration": 0.11658037499999985,
                  "durationTicks": 3600,
                  "midi": 62,
                  "name": "D4",
                  "ticks": 393600,
                  "time": 12.746121,
                  "velocity": 0.8503937007874016
              },
              {
                  "duration": 0.07772024999999871,
                  "durationTicks": 2400,
                  "midi": 60,
                  "name": "C4",
                  "ticks": 398400,
                  "time": 12.901561500000001,
                  "velocity": 0.8031496062992126
              },
              {
                  "duration": 0.07772025000000049,
                  "durationTicks": 2400,
                  "midi": 62,
                  "name": "D4",
                  "ticks": 403200,
                  "time": 13.057002,
                  "velocity": 0.8188976377952756
              },
              {
                  "duration": 0.07772024999999871,
                  "durationTicks": 2400,
                  "midi": 60,
                  "name": "C4",
                  "ticks": 408000,
                  "time": 13.212442500000002,
                  "velocity": 0.7637795275590551
              },
              {
                  "duration": 0.11658037499999985,
                  "durationTicks": 3600,
                  "midi": 57,
                  "name": "A3",
                  "ticks": 412800,
                  "time": 13.367883,
                  "velocity": 0.8818897637795275
              },
              {
                  "duration": 0.11658037500000162,
                  "durationTicks": 3600,
                  "midi": 55,
                  "name": "G3",
                  "ticks": 417600,
                  "time": 13.5233235,
                  "velocity": 0.8188976377952756
              },
              {
                  "duration": 0.11658037499999985,
                  "durationTicks": 3600,
                  "midi": 31,
                  "name": "G1",
                  "ticks": 422400,
                  "time": 13.678764000000001,
                  "velocity": 0.8346456692913385
              },
              {
                  "duration": 0.11658037499999985,
                  "durationTicks": 3600,
                  "midi": 69,
                  "name": "A4",
                  "ticks": 422400,
                  "time": 13.678764000000001,
                  "velocity": 0.7165354330708661
              },
              {
                  "duration": 0.11658037499999985,
                  "durationTicks": 3600,
                  "midi": 31,
                  "name": "G1",
                  "ticks": 427200,
                  "time": 13.8342045,
                  "velocity": 0.7559055118110236
              },
              {
                  "duration": 0.11658037499999985,
                  "durationTicks": 3600,
                  "midi": 55,
                  "name": "G3",
                  "ticks": 427200,
                  "time": 13.8342045,
                  "velocity": 0.5669291338582677
              },
              {
                  "duration": 0.07772025000000049,
                  "durationTicks": 2400,
                  "midi": 60,
                  "name": "C4",
                  "ticks": 427200,
                  "time": 13.8342045,
                  "velocity": 0.7559055118110236
              },
              {
                  "duration": 0.07772025000000049,
                  "durationTicks": 2400,
                  "midi": 31,
                  "name": "G1",
                  "ticks": 432000,
                  "time": 13.989645000000001,
                  "velocity": 0.8346456692913385
              },
              {
                  "duration": 0.07772025000000049,
                  "durationTicks": 2400,
                  "midi": 55,
                  "name": "G3",
                  "ticks": 432000,
                  "time": 13.989645000000001,
                  "velocity": 0.6299212598425197
              },
              {
                  "duration": 0.11658037499999985,
                  "durationTicks": 3600,
                  "midi": 62,
                  "name": "D4",
                  "ticks": 432000,
                  "time": 13.989645000000001,
                  "velocity": 0.8661417322834646
              },
              {
                  "duration": 0.07772025000000049,
                  "durationTicks": 2400,
                  "midi": 60,
                  "name": "C4",
                  "ticks": 436800,
                  "time": 14.1450855,
                  "velocity": 0.7952755905511811
              },
              {
                  "duration": 0.07772025000000049,
                  "durationTicks": 2400,
                  "midi": 31,
                  "name": "G1",
                  "ticks": 446400,
                  "time": 14.4559665,
                  "velocity": 0.7716535433070866
              },
              {
                  "duration": 0.07772025000000049,
                  "durationTicks": 2400,
                  "midi": 57,
                  "name": "A3",
                  "ticks": 446400,
                  "time": 14.4559665,
                  "velocity": 0.6141732283464567
              },
              {
                  "duration": 0.07772025000000049,
                  "durationTicks": 2400,
                  "midi": 69,
                  "name": "A4",
                  "ticks": 446400,
                  "time": 14.4559665,
                  "velocity": 0.6850393700787402
              },
              {
                  "duration": 0.03886012499999936,
                  "durationTicks": 1200,
                  "midi": 31,
                  "name": "G1",
                  "ticks": 451200,
                  "time": 14.611407000000002,
                  "velocity": 0.8503937007874016
              },
              {
                  "duration": 0.03886012499999936,
                  "durationTicks": 1200,
                  "midi": 24,
                  "name": "C1",
                  "ticks": 456000,
                  "time": 14.7668475,
                  "velocity": 0.7401574803149606
              },
              {
                  "duration": 0.15544050000000098,
                  "durationTicks": 4800,
                  "midi": 55,
                  "name": "G3",
                  "ticks": 456000,
                  "time": 14.7668475,
                  "velocity": 0.5826771653543307
              },
              {
                  "duration": 0.07772025000000049,
                  "durationTicks": 2400,
                  "midi": 67,
                  "name": "G4",
                  "ticks": 456000,
                  "time": 14.7668475,
                  "velocity": 0.7874015748031497
              },
              {
                  "duration": 0.11658037499999985,
                  "durationTicks": 3600,
                  "midi": 24,
                  "name": "C1",
                  "ticks": 460800,
                  "time": 14.922288000000002,
                  "velocity": 0.8031496062992126
              },
              {
                  "duration": 0.07772024999999871,
                  "durationTicks": 2400,
                  "midi": 55,
                  "name": "G3",
                  "ticks": 460800,
                  "time": 14.922288000000002,
                  "velocity": 0.6299212598425197
              },
              {
                  "duration": 0.11658037499999985,
                  "durationTicks": 3600,
                  "midi": 60,
                  "name": "C4",
                  "ticks": 460800,
                  "time": 14.922288000000002,
                  "velocity": 0.5984251968503937
              },
              {
                  "duration": 0.11658037499999985,
                  "durationTicks": 3600,
                  "midi": 24,
                  "name": "C1",
                  "ticks": 465600,
                  "time": 15.077728500000001,
                  "velocity": 0.7322834645669292
              },
              {
                  "duration": 0.11658037499999985,
                  "durationTicks": 3600,
                  "midi": 57,
                  "name": "A3",
                  "ticks": 465600,
                  "time": 15.077728500000001,
                  "velocity": 0.6062992125984252
              },
              {
                  "duration": 0.07772025000000049,
                  "durationTicks": 2400,
                  "midi": 60,
                  "name": "C4",
                  "ticks": 465600,
                  "time": 15.077728500000001,
                  "velocity": 0.5196850393700787
              },
              {
                  "duration": 0.07772025000000049,
                  "durationTicks": 2400,
                  "midi": 69,
                  "name": "A4",
                  "ticks": 465600,
                  "time": 15.077728500000001,
                  "velocity": 0.6929133858267716
              },
              {
                  "duration": 0.07772025000000049,
                  "durationTicks": 2400,
                  "midi": 24,
                  "name": "C1",
                  "ticks": 470400,
                  "time": 15.233169,
                  "velocity": 0.8031496062992126
              },
              {
                  "duration": 0.11658037499999985,
                  "durationTicks": 3600,
                  "midi": 55,
                  "name": "G3",
                  "ticks": 470400,
                  "time": 15.233169,
                  "velocity": 0.6692913385826772
              },
              {
                  "duration": 0.07772025000000049,
                  "durationTicks": 2400,
                  "midi": 67,
                  "name": "G4",
                  "ticks": 470400,
                  "time": 15.233169,
                  "velocity": 0.8346456692913385
              },
              {
                  "duration": 0.11658037499999985,
                  "durationTicks": 3600,
                  "midi": 53,
                  "name": "F3",
                  "ticks": 475200,
                  "time": 15.388609500000001,
                  "velocity": 0.7716535433070866
              },
              {
                  "duration": 0.07772025000000049,
                  "durationTicks": 2400,
                  "midi": 55,
                  "name": "G3",
                  "ticks": 480000,
                  "time": 15.54405,
                  "velocity": 0.8661417322834646
              },
              {
                  "duration": 0.07772024999999871,
                  "durationTicks": 2400,
                  "midi": 53,
                  "name": "F3",
                  "ticks": 484800,
                  "time": 15.699490500000001,
                  "velocity": 0.8031496062992126
              },
              {
                  "duration": 0.11658037499999985,
                  "durationTicks": 3600,
                  "midi": 50,
                  "name": "D3",
                  "ticks": 489600,
                  "time": 15.854931,
                  "velocity": 0.8818897637795275
              },
              {
                  "duration": 0.07772024999999871,
                  "durationTicks": 2400,
                  "midi": 48,
                  "name": "C3",
                  "ticks": 494400,
                  "time": 16.0103715,
                  "velocity": 0.8267716535433071
              },
              {
                  "duration": 0.11658037499999807,
                  "durationTicks": 3600,
                  "midi": 26,
                  "name": "D1",
                  "ticks": 499200,
                  "time": 16.165812000000003,
                  "velocity": 0.7874015748031497
              },
              {
                  "duration": 0.11658037499999807,
                  "durationTicks": 3600,
                  "midi": 57,
                  "name": "A3",
                  "ticks": 499200,
                  "time": 16.165812000000003,
                  "velocity": 0.6535433070866141
              },
              {
                  "duration": 0.07772024999999871,
                  "durationTicks": 2400,
                  "midi": 69,
                  "name": "A4",
                  "ticks": 499200,
                  "time": 16.165812000000003,
                  "velocity": 0.7244094488188977
              },
              {
                  "duration": 0.11658037500000162,
                  "durationTicks": 3600,
                  "midi": 26,
                  "name": "D1",
                  "ticks": 504000,
                  "time": 16.3212525,
                  "velocity": 0.7165354330708661
              },
              {
                  "duration": 0.07772025000000227,
                  "durationTicks": 2400,
                  "midi": 72,
                  "name": "C5",
                  "ticks": 504000,
                  "time": 16.3212525,
                  "velocity": 0.7716535433070866
              },
              {
                  "duration": 0.07772024999999871,
                  "durationTicks": 2400,
                  "midi": 26,
                  "name": "D1",
                  "ticks": 508800,
                  "time": 16.476693,
                  "velocity": 0.7874015748031497
              },
              {
                  "duration": 0.07772024999999871,
                  "durationTicks": 2400,
                  "midi": 74,
                  "name": "D5",
                  "ticks": 508800,
                  "time": 16.476693,
                  "velocity": 0.8267716535433071
              },
              {
                  "duration": 0.07772024999999871,
                  "durationTicks": 2400,
                  "midi": 72,
                  "name": "C5",
                  "ticks": 513600,
                  "time": 16.632133500000002,
                  "velocity": 0.7716535433070866
              },
              {
                  "duration": 0.07772025000000227,
                  "durationTicks": 2400,
                  "midi": 26,
                  "name": "D1",
                  "ticks": 523200,
                  "time": 16.9430145,
                  "velocity": 0.7559055118110236
              },
              {
                  "duration": 0.07772025000000227,
                  "durationTicks": 2400,
                  "midi": 54,
                  "name": "F#3",
                  "ticks": 523200,
                  "time": 16.9430145,
                  "velocity": 0.5984251968503937
              },
              {
                  "duration": 0.07772025000000227,
                  "durationTicks": 2400,
                  "midi": 69,
                  "name": "A4",
                  "ticks": 523200,
                  "time": 16.9430145,
                  "velocity": 0.6929133858267716
              },
              {
                  "duration": 0.11658037499999807,
                  "durationTicks": 3600,
                  "midi": 34,
                  "name": "A#1",
                  "ticks": 532800,
                  "time": 17.253895500000002,
                  "velocity": 0.7874015748031497
              },
              {
                  "duration": 0.11658037499999807,
                  "durationTicks": 3600,
                  "midi": 67,
                  "name": "G4",
                  "ticks": 532800,
                  "time": 17.253895500000002,
                  "velocity": 0.7559055118110236
              },
              {
                  "duration": 0.11658037500000162,
                  "durationTicks": 3600,
                  "midi": 34,
                  "name": "A#1",
                  "ticks": 537600,
                  "time": 17.409336,
                  "velocity": 0.8346456692913385
              },
              {
                  "duration": 0.11658037500000162,
                  "durationTicks": 3600,
                  "midi": 53,
                  "name": "F3",
                  "ticks": 537600,
                  "time": 17.409336,
                  "velocity": 0.6299212598425197
              },
              {
                  "duration": 0.11658037500000162,
                  "durationTicks": 3600,
                  "midi": 34,
                  "name": "A#1",
                  "ticks": 542400,
                  "time": 17.5647765,
                  "velocity": 0.7716535433070866
              },
              {
                  "duration": 0.11658037500000162,
                  "durationTicks": 3600,
                  "midi": 46,
                  "name": "A#2",
                  "ticks": 542400,
                  "time": 17.5647765,
                  "velocity": 0.5905511811023622
              },
              {
                  "duration": 0.11658037500000162,
                  "durationTicks": 3600,
                  "midi": 53,
                  "name": "F3",
                  "ticks": 542400,
                  "time": 17.5647765,
                  "velocity": 0.5669291338582677
              },
              {
                  "duration": 0.11658037500000162,
                  "durationTicks": 3600,
                  "midi": 69,
                  "name": "A4",
                  "ticks": 542400,
                  "time": 17.5647765,
                  "velocity": 0.7401574803149606
              },
              {
                  "duration": 0.07772024999999871,
                  "durationTicks": 2400,
                  "midi": 34,
                  "name": "A#1",
                  "ticks": 547200,
                  "time": 17.720217,
                  "velocity": 0.8346456692913385
              },
              {
                  "duration": 0.03886012499999936,
                  "durationTicks": 1200,
                  "midi": 53,
                  "name": "F3",
                  "ticks": 547200,
                  "time": 17.720217,
                  "velocity": 0.6299212598425197
              },
              {
                  "duration": 0.11658037499999807,
                  "durationTicks": 3600,
                  "midi": 67,
                  "name": "G4",
                  "ticks": 547200,
                  "time": 17.720217,
                  "velocity": 0.8582677165354331
              },
              {
                  "duration": 0.11658037499999807,
                  "durationTicks": 3600,
                  "midi": 65,
                  "name": "F4",
                  "ticks": 552000,
                  "time": 17.875657500000003,
                  "velocity": 0.8031496062992126
              },
              {
                  "duration": 0.07772025000000227,
                  "durationTicks": 2400,
                  "midi": 67,
                  "name": "G4",
                  "ticks": 556800,
                  "time": 18.031098,
                  "velocity": 0.84251968503937
              },
              {
                  "duration": 0.07772024999999871,
                  "durationTicks": 2400,
                  "midi": 65,
                  "name": "F4",
                  "ticks": 561600,
                  "time": 18.1865385,
                  "velocity": 0.7637795275590551
              },
              {
                  "duration": 0.11658037499999807,
                  "durationTicks": 3600,
                  "midi": 62,
                  "name": "D4",
                  "ticks": 566400,
                  "time": 18.341979000000002,
                  "velocity": 0.8818897637795275
              },
              {
                  "duration": 0.11658037500000162,
                  "durationTicks": 3600,
                  "midi": 60,
                  "name": "C4",
                  "ticks": 571200,
                  "time": 18.4974195,
                  "velocity": 0.8267716535433071
              },
              {
                  "duration": 0.11658037500000162,
                  "durationTicks": 3600,
                  "midi": 31,
                  "name": "G1",
                  "ticks": 576000,
                  "time": 18.65286,
                  "velocity": 0.8503937007874016
              },
              {
                  "duration": 0.07772025000000227,
                  "durationTicks": 2400,
                  "midi": 62,
                  "name": "D4",
                  "ticks": 576000,
                  "time": 18.65286,
                  "velocity": 0.7480314960629921
              },
              {
                  "duration": 0.11658037499999807,
                  "durationTicks": 3600,
                  "midi": 31,
                  "name": "G1",
                  "ticks": 580800,
                  "time": 18.8083005,
                  "velocity": 0.7874015748031497
              },
              {
                  "duration": 0.11658037499999807,
                  "durationTicks": 3600,
                  "midi": 65,
                  "name": "F4",
                  "ticks": 580800,
                  "time": 18.8083005,
                  "velocity": 0.7716535433070866
              },
              {
                  "duration": 0.07772024999999871,
                  "durationTicks": 2400,
                  "midi": 31,
                  "name": "G1",
                  "ticks": 585600,
                  "time": 18.963741000000002,
                  "velocity": 0.8503937007874016
              },
              {
                  "duration": 0.11658037499999807,
                  "durationTicks": 3600,
                  "midi": 67,
                  "name": "G4",
                  "ticks": 585600,
                  "time": 18.963741000000002,
                  "velocity": 0.8188976377952756
              },
              {
                  "duration": 0.11658037500000162,
                  "durationTicks": 3600,
                  "midi": 33,
                  "name": "A1",
                  "ticks": 590400,
                  "time": 19.1191815,
                  "velocity": 0.8031496062992126
              },
              {
                  "duration": 0.11658037500000162,
                  "durationTicks": 3600,
                  "midi": 65,
                  "name": "F4",
                  "ticks": 590400,
                  "time": 19.1191815,
                  "velocity": 0.7165354330708661
              },
              {
                  "duration": 0.07772024999999871,
                  "durationTicks": 2400,
                  "midi": 33,
                  "name": "A1",
                  "ticks": 595200,
                  "time": 19.274622,
                  "velocity": 0.8661417322834646
              },
              {
                  "duration": 0.03886012499999936,
                  "durationTicks": 1200,
                  "midi": 65,
                  "name": "F4",
                  "ticks": 595200,
                  "time": 19.274622,
                  "velocity": 0.7874015748031497
              },
              {
                  "duration": 0.03886012499999936,
                  "durationTicks": 1200,
                  "midi": 33,
                  "name": "A1",
                  "ticks": 600000,
                  "time": 19.430062500000002,
                  "velocity": 0.8031496062992126
              },
              {
                  "duration": 0.07772024999999871,
                  "durationTicks": 2400,
                  "midi": 67,
                  "name": "G4",
                  "ticks": 600000,
                  "time": 19.430062500000002,
                  "velocity": 0.8031496062992126
              },
              {
                  "duration": 0.11658037499999807,
                  "durationTicks": 3600,
                  "midi": 46,
                  "name": "A#2",
                  "ticks": 604800,
                  "time": 19.585503000000003,
                  "velocity": 0.6299212598425197
              },
              {
                  "duration": 0.11658037499999807,
                  "durationTicks": 3600,
                  "midi": 53,
                  "name": "F3",
                  "ticks": 604800,
                  "time": 19.585503000000003,
                  "velocity": 0.7086614173228346
              },
              {
                  "duration": 0.11658037499999807,
                  "durationTicks": 3600,
                  "midi": 69,
                  "name": "A4",
                  "ticks": 604800,
                  "time": 19.585503000000003,
                  "velocity": 0.7401574803149606
              },
              {
                  "duration": 0.11658037500000162,
                  "durationTicks": 3600,
                  "midi": 34,
                  "name": "A#1",
                  "ticks": 609600,
                  "time": 19.7409435,
                  "velocity": 0.7322834645669292
              },
              {
                  "duration": 0.11658037500000162,
                  "durationTicks": 3600,
                  "midi": 46,
                  "name": "A#2",
                  "ticks": 609600,
                  "time": 19.7409435,
                  "velocity": 0.5669291338582677
              },
              {
                  "duration": 0.11658037500000162,
                  "durationTicks": 3600,
                  "midi": 53,
                  "name": "F3",
                  "ticks": 609600,
                  "time": 19.7409435,
                  "velocity": 0.6535433070866141
              },
              {
                  "duration": 0.03886012499999936,
                  "durationTicks": 1200,
                  "midi": 69,
                  "name": "A4",
                  "ticks": 609600,
                  "time": 19.7409435,
                  "velocity": 0.6850393700787402
              },
              {
                  "duration": 0.11658037500000162,
                  "durationTicks": 3600,
                  "midi": 72,
                  "name": "C5",
                  "ticks": 609600,
                  "time": 19.7409435,
                  "velocity": 0.6535433070866141
              },
              {
                  "duration": 0.07772025000000227,
                  "durationTicks": 2400,
                  "midi": 84,
                  "name": "C6",
                  "ticks": 609600,
                  "time": 19.7409435,
                  "velocity": 0.6299212598425197
              },
              {
                  "duration": 0.03886012499999936,
                  "durationTicks": 1200,
                  "midi": 74,
                  "name": "D5",
                  "ticks": 619200,
                  "time": 20.051824500000002,
                  "velocity": 0.7165354330708661
              },
              {
                  "duration": 0.11658037500000162,
                  "durationTicks": 3600,
                  "midi": 72,
                  "name": "C5",
                  "ticks": 624000,
                  "time": 20.207265,
                  "velocity": 0.8503937007874016
              },
              {
                  "duration": 0.11658037500000162,
                  "durationTicks": 3600,
                  "midi": 69,
                  "name": "A4",
                  "ticks": 628800,
                  "time": 20.3627055,
                  "velocity": 0.7952755905511811
              },
              {
                  "duration": 0.07772024999999871,
                  "durationTicks": 2400,
                  "midi": 67,
                  "name": "G4",
                  "ticks": 633600,
                  "time": 20.518146,
                  "velocity": 0.8661417322834646
              },
              {
                  "duration": 0.07772024999999871,
                  "durationTicks": 2400,
                  "midi": 65,
                  "name": "F4",
                  "ticks": 638400,
                  "time": 20.673586500000003,
                  "velocity": 0.7952755905511811
              },
              {
                  "duration": 0.11658037500000162,
                  "durationTicks": 3600,
                  "midi": 62,
                  "name": "D4",
                  "ticks": 643200,
                  "time": 20.829027,
                  "velocity": 0.8818897637795275
              },
              {
                  "duration": 0.03886012499999936,
                  "durationTicks": 1200,
                  "midi": 60,
                  "name": "C4",
                  "ticks": 648000,
                  "time": 20.9844675,
                  "velocity": 0.8346456692913385
              },
              {
                  "duration": 0.11658037499999807,
                  "durationTicks": 3600,
                  "midi": 29,
                  "name": "F1",
                  "ticks": 652800,
                  "time": 21.139908000000002,
                  "velocity": 0.8661417322834646
              },
              {
                  "duration": 0.11658037499999807,
                  "durationTicks": 3600,
                  "midi": 29,
                  "name": "F1",
                  "ticks": 657600,
                  "time": 21.295348500000003,
                  "velocity": 0.8031496062992126
              },
              {
                  "duration": 0.11658037499999807,
                  "durationTicks": 3600,
                  "midi": 41,
                  "name": "F2",
                  "ticks": 657600,
                  "time": 21.295348500000003,
                  "velocity": 0.6299212598425197
              },
              {
                  "duration": 0.03886012499999936,
                  "durationTicks": 1200,
                  "midi": 29,
                  "name": "F1",
                  "ticks": 662400,
                  "time": 21.450789,
                  "velocity": 0.8661417322834646
              },
              {
                  "duration": 0.11658037500000162,
                  "durationTicks": 3600,
                  "midi": 41,
                  "name": "F2",
                  "ticks": 662400,
                  "time": 21.450789,
                  "velocity": 0.6929133858267716
              },
              {
                  "duration": 0.03886012499999936,
                  "durationTicks": 1200,
                  "midi": 60,
                  "name": "C4",
                  "ticks": 662400,
                  "time": 21.450789,
                  "velocity": 0.7795275590551181
              },
              {
                  "duration": 0.03886012499999936,
                  "durationTicks": 1200,
                  "midi": 41,
                  "name": "F2",
                  "ticks": 667200,
                  "time": 21.6062295,
                  "velocity": 0.6299212598425197
              },
              {
                  "duration": 0.11658037500000162,
                  "durationTicks": 3600,
                  "midi": 53,
                  "name": "F3",
                  "ticks": 667200,
                  "time": 21.6062295,
                  "velocity": 0.4881889763779528
              },
              {
                  "duration": 0.11658037500000162,
                  "durationTicks": 3600,
                  "midi": 60,
                  "name": "C4",
                  "ticks": 667200,
                  "time": 21.6062295,
                  "velocity": 0.5590551181102362
              },
              {
                  "duration": 0.11658037500000162,
                  "durationTicks": 3600,
                  "midi": 65,
                  "name": "F4",
                  "ticks": 667200,
                  "time": 21.6062295,
                  "velocity": 0.5354330708661418
              },
              {
                  "duration": 0.07772025000000227,
                  "durationTicks": 2400,
                  "midi": 41,
                  "name": "F2",
                  "ticks": 676800,
                  "time": 21.9171105,
                  "velocity": 0.5984251968503937
              },
              {
                  "duration": 0.07772025000000227,
                  "durationTicks": 2400,
                  "midi": 53,
                  "name": "F3",
                  "ticks": 676800,
                  "time": 21.9171105,
                  "velocity": 0.5905511811023622
              },
              {
                  "duration": 0.03886012499999936,
                  "durationTicks": 1200,
                  "midi": 41,
                  "name": "F2",
                  "ticks": 681600,
                  "time": 22.072551,
                  "velocity": 0.6850393700787402
              },
              {
                  "duration": 0.03886012499999936,
                  "durationTicks": 1200,
                  "midi": 60,
                  "name": "C4",
                  "ticks": 681600,
                  "time": 22.072551,
                  "velocity": 0.6771653543307087
              },
              {
                  "duration": 0.03886012499999936,
                  "durationTicks": 1200,
                  "midi": 65,
                  "name": "F4",
                  "ticks": 681600,
                  "time": 22.072551,
                  "velocity": 0.6299212598425197
              },
              {
                  "duration": 0.11658037499999807,
                  "durationTicks": 3600,
                  "midi": 41,
                  "name": "F2",
                  "ticks": 686400,
                  "time": 22.2279915,
                  "velocity": 0.7322834645669292
              },
              {
                  "duration": 0.03886012500000291,
                  "durationTicks": 1200,
                  "midi": 41,
                  "name": "F2",
                  "ticks": 696000,
                  "time": 22.5388725,
                  "velocity": 0.6299212598425197
              },
              {
                  "duration": 0.03886012500000291,
                  "durationTicks": 1200,
                  "midi": 53,
                  "name": "F3",
                  "ticks": 696000,
                  "time": 22.5388725,
                  "velocity": 0.5905511811023622
              },
              {
                  "duration": 0.11658037500000162,
                  "durationTicks": 3600,
                  "midi": 41,
                  "name": "F2",
                  "ticks": 700800,
                  "time": 22.694313,
                  "velocity": 0.7874015748031497
              },
              {
                  "duration": 0.03886012499999936,
                  "durationTicks": 1200,
                  "midi": 69,
                  "name": "A4",
                  "ticks": 700800,
                  "time": 22.694313,
                  "velocity": 0.6929133858267716
              },
              {
                  "duration": 0.07772024999999871,
                  "durationTicks": 2400,
                  "midi": 41,
                  "name": "F2",
                  "ticks": 705600,
                  "time": 22.849753500000002,
                  "velocity": 0.7165354330708661
              },
              {
                  "duration": 0.07772024999999871,
                  "durationTicks": 2400,
                  "midi": 60,
                  "name": "C4",
                  "ticks": 705600,
                  "time": 22.849753500000002,
                  "velocity": 0.6062992125984252
              },
              {
                  "duration": 0.07772025000000227,
                  "durationTicks": 2400,
                  "midi": 41,
                  "name": "F2",
                  "ticks": 715200,
                  "time": 23.1606345,
                  "velocity": 0.6929133858267716
              },
              {
                  "duration": 0.03886012499999936,
                  "durationTicks": 1200,
                  "midi": 53,
                  "name": "F3",
                  "ticks": 720000,
                  "time": 23.316075,
                  "velocity": 0.7637795275590551
              },
              {
                  "duration": 0.11658037499999807,
                  "durationTicks": 3600,
                  "midi": 41,
                  "name": "F2",
                  "ticks": 724800,
                  "time": 23.471515500000002,
                  "velocity": 0.5826771653543307
              },
              {
                  "duration": 0.07772024999999871,
                  "durationTicks": 2400,
                  "midi": 53,
                  "name": "F3",
                  "ticks": 724800,
                  "time": 23.471515500000002,
                  "velocity": 0.5826771653543307
              },
              {
                  "duration": 0.11658037499999807,
                  "durationTicks": 3600,
                  "midi": 60,
                  "name": "C4",
                  "ticks": 724800,
                  "time": 23.471515500000002,
                  "velocity": 0.5748031496062992
              },
              {
                  "duration": 0.11658037500000162,
                  "durationTicks": 3600,
                  "midi": 29,
                  "name": "F1",
                  "ticks": 729600,
                  "time": 23.626956,
                  "velocity": 0.8503937007874016
              },
              {
                  "duration": 0.11658037500000162,
                  "durationTicks": 3600,
                  "midi": 29,
                  "name": "F1",
                  "ticks": 734400,
                  "time": 23.7823965,
                  "velocity": 0.7716535433070866
              },
              {
                  "duration": 0.11658037500000162,
                  "durationTicks": 3600,
                  "midi": 41,
                  "name": "F2",
                  "ticks": 734400,
                  "time": 23.7823965,
                  "velocity": 0.6141732283464567
              },
              {
                  "duration": 0.03886012499999936,
                  "durationTicks": 1200,
                  "midi": 29,
                  "name": "F1",
                  "ticks": 739200,
                  "time": 23.937837000000002,
                  "velocity": 0.8503937007874016
              },
              {
                  "duration": 0.11658037499999807,
                  "durationTicks": 3600,
                  "midi": 41,
                  "name": "F2",
                  "ticks": 739200,
                  "time": 23.937837000000002,
                  "velocity": 0.6929133858267716
              },
              {
                  "duration": 0.11658037499999807,
                  "durationTicks": 3600,
                  "midi": 60,
                  "name": "C4",
                  "ticks": 739200,
                  "time": 23.937837000000002,
                  "velocity": 0.6535433070866141
              },
              {
                  "duration": 0.11658037499999807,
                  "durationTicks": 3600,
                  "midi": 53,
                  "name": "F3",
                  "ticks": 744000,
                  "time": 24.093277500000003,
                  "velocity": 0.6614173228346457
              },
              {
                  "duration": 0.03886012499999936,
                  "durationTicks": 1200,
                  "midi": 60,
                  "name": "C4",
                  "ticks": 744000,
                  "time": 24.093277500000003,
                  "velocity": 0.5748031496062992
              },
              {
                  "duration": 0.07772024999999871,
                  "durationTicks": 2400,
                  "midi": 41,
                  "name": "F2",
                  "ticks": 753600,
                  "time": 24.4041585,
                  "velocity": 0.7086614173228346
              },
              {
                  "duration": 0.03886012499999936,
                  "durationTicks": 1200,
                  "midi": 53,
                  "name": "F3",
                  "ticks": 758400,
                  "time": 24.559599000000002,
                  "velocity": 0.7716535433070866
              },
              {
                  "duration": 0.11658037499999807,
                  "durationTicks": 3600,
                  "midi": 41,
                  "name": "F2",
                  "ticks": 763200,
                  "time": 24.715039500000003,
                  "velocity": 0.6062992125984252
              },
              {
                  "duration": 0.07772024999999871,
                  "durationTicks": 2400,
                  "midi": 53,
                  "name": "F3",
                  "ticks": 763200,
                  "time": 24.715039500000003,
                  "velocity": 0.6456692913385826
              },
              {
                  "duration": 0.03886012499999936,
                  "durationTicks": 1200,
                  "midi": 41,
                  "name": "F2",
                  "ticks": 772800,
                  "time": 25.0259205,
                  "velocity": 0.6535433070866141
              },
              {
                  "duration": 0.03886012499999936,
                  "durationTicks": 1200,
                  "midi": 53,
                  "name": "F3",
                  "ticks": 772800,
                  "time": 25.0259205,
                  "velocity": 0.6456692913385826
              },
              {
                  "duration": 0.11658037499999807,
                  "durationTicks": 3600,
                  "midi": 41,
                  "name": "F2",
                  "ticks": 777600,
                  "time": 25.181361000000003,
                  "velocity": 0.7637795275590551
              },
              {
                  "duration": 0.11658037500000162,
                  "durationTicks": 3600,
                  "midi": 41,
                  "name": "F2",
                  "ticks": 782400,
                  "time": 25.3368015,
                  "velocity": 0.6929133858267716
              },
              {
                  "duration": 0.11658037500000162,
                  "durationTicks": 3600,
                  "midi": 53,
                  "name": "F3",
                  "ticks": 782400,
                  "time": 25.3368015,
                  "velocity": 0.6141732283464567
              },
              {
                  "duration": 0.11658037500000162,
                  "durationTicks": 3600,
                  "midi": 60,
                  "name": "C4",
                  "ticks": 782400,
                  "time": 25.3368015,
                  "velocity": 0.5669291338582677
              },
              {
                  "duration": 0.07772024999999871,
                  "durationTicks": 2400,
                  "midi": 53,
                  "name": "F3",
                  "ticks": 792000,
                  "time": 25.647682500000002,
                  "velocity": 0.6456692913385826
              },
              {
                  "duration": 0.07772024999999871,
                  "durationTicks": 2400,
                  "midi": 53,
                  "name": "F3",
                  "ticks": 796800,
                  "time": 25.803123000000003,
                  "velocity": 0.7322834645669292
              },
              {
                  "duration": 0.11658037499999807,
                  "durationTicks": 3600,
                  "midi": 65,
                  "name": "F4",
                  "ticks": 796800,
                  "time": 25.803123000000003,
                  "velocity": 0.6614173228346457
              },
              {
                  "duration": 0.07772025000000227,
                  "durationTicks": 2400,
                  "midi": 65,
                  "name": "F4",
                  "ticks": 801600,
                  "time": 25.9585635,
                  "velocity": 0.5984251968503937
              },
              {
                  "duration": 0.11658037500000162,
                  "durationTicks": 3600,
                  "midi": 29,
                  "name": "F1",
                  "ticks": 806400,
                  "time": 26.114004,
                  "velocity": 0.8818897637795275
              },
              {
                  "duration": 0.11658037499999807,
                  "durationTicks": 3600,
                  "midi": 29,
                  "name": "F1",
                  "ticks": 811200,
                  "time": 26.269444500000002,
                  "velocity": 0.8031496062992126
              },
              {
                  "duration": 0.11658037499999807,
                  "durationTicks": 3600,
                  "midi": 65,
                  "name": "F4",
                  "ticks": 811200,
                  "time": 26.269444500000002,
                  "velocity": 0.6299212598425197
              },
              {
                  "duration": 0.03886012499999936,
                  "durationTicks": 1200,
                  "midi": 29,
                  "name": "F1",
                  "ticks": 816000,
                  "time": 26.424885000000003,
                  "velocity": 0.8818897637795275
              },
              {
                  "duration": 0.11658037499999807,
                  "durationTicks": 3600,
                  "midi": 41,
                  "name": "F2",
                  "ticks": 816000,
                  "time": 26.424885000000003,
                  "velocity": 0.7244094488188977
              },
              {
                  "duration": 0.03886012499999936,
                  "durationTicks": 1200,
                  "midi": 65,
                  "name": "F4",
                  "ticks": 816000,
                  "time": 26.424885000000003,
                  "velocity": 0.7086614173228346
              },
              {
                  "duration": 0.11658037500000162,
                  "durationTicks": 3600,
                  "midi": 29,
                  "name": "F1",
                  "ticks": 820800,
                  "time": 26.5803255,
                  "velocity": 0.7874015748031497
              },
              {
                  "duration": 0.11658037500000162,
                  "durationTicks": 3600,
                  "midi": 41,
                  "name": "F2",
                  "ticks": 820800,
                  "time": 26.5803255,
                  "velocity": 0.6456692913385826
              },
              {
                  "duration": 0.009067362500001508,
                  "durationTicks": 280,
                  "midi": 29,
                  "name": "F1",
                  "ticks": 825600,
                  "time": 26.735766,
                  "velocity": 0.8503937007874016
              },
              {
                  "duration": 0.03886012499999936,
                  "durationTicks": 1200,
                  "midi": 29,
                  "name": "F1",
                  "ticks": 830400,
                  "time": 26.891206500000003,
                  "velocity": 0.8031496062992126
              },
              {
                  "duration": 0.03886012499999936,
                  "durationTicks": 1200,
                  "midi": 60,
                  "name": "C4",
                  "ticks": 830400,
                  "time": 26.891206500000003,
                  "velocity": 0.6377952755905512
              },
              {
                  "duration": 0.03886012500000291,
                  "durationTicks": 1200,
                  "midi": 29,
                  "name": "F1",
                  "ticks": 835200,
                  "time": 27.046647,
                  "velocity": 0.8503937007874016
              },
              {
                  "duration": 0.03886012500000291,
                  "durationTicks": 1200,
                  "midi": 57,
                  "name": "A3",
                  "ticks": 835200,
                  "time": 27.046647,
                  "velocity": 0.6456692913385826
              },
              {
                  "duration": 0.11658037500000162,
                  "durationTicks": 3600,
                  "midi": 60,
                  "name": "C4",
                  "ticks": 835200,
                  "time": 27.046647,
                  "velocity": 0.6850393700787402
              },
              {
                  "duration": 0.11658037500000162,
                  "durationTicks": 3600,
                  "midi": 65,
                  "name": "F4",
                  "ticks": 835200,
                  "time": 27.046647,
                  "velocity": 0.6377952755905512
              },
              {
                  "duration": 0.07772025000000227,
                  "durationTicks": 2400,
                  "midi": 29,
                  "name": "F1",
                  "ticks": 840000,
                  "time": 27.2020875,
                  "velocity": 0.8188976377952756
              },
              {
                  "duration": 0.11658037500000162,
                  "durationTicks": 3600,
                  "midi": 60,
                  "name": "C4",
                  "ticks": 840000,
                  "time": 27.2020875,
                  "velocity": 0.6220472440944882
              },
              {
                  "duration": 0.07772025000000227,
                  "durationTicks": 2400,
                  "midi": 65,
                  "name": "F4",
                  "ticks": 840000,
                  "time": 27.2020875,
                  "velocity": 0.5826771653543307
              },
              {
                  "duration": 0.11658037499999807,
                  "durationTicks": 3600,
                  "midi": 48,
                  "name": "C3",
                  "ticks": 844800,
                  "time": 27.357528000000002,
                  "velocity": 0.6141732283464567
              },
              {
                  "duration": 0.03886012499999936,
                  "durationTicks": 1200,
                  "midi": 29,
                  "name": "F1",
                  "ticks": 849600,
                  "time": 27.512968500000003,
                  "velocity": 0.8031496062992126
              },
              {
                  "duration": 0.07772024999999871,
                  "durationTicks": 2400,
                  "midi": 48,
                  "name": "C3",
                  "ticks": 849600,
                  "time": 27.512968500000003,
                  "velocity": 0.5354330708661418
              },
              {
                  "duration": 0.03886012500000291,
                  "durationTicks": 1200,
                  "midi": 29,
                  "name": "F1",
                  "ticks": 854400,
                  "time": 27.668409,
                  "velocity": 0.8740157480314961
              },
              {
                  "duration": 0.07772024999999871,
                  "durationTicks": 2400,
                  "midi": 29,
                  "name": "F1",
                  "ticks": 859200,
                  "time": 27.8238495,
                  "velocity": 0.8031496062992126
              },
              {
                  "duration": 0.03886012499999936,
                  "durationTicks": 1200,
                  "midi": 29,
                  "name": "F1",
                  "ticks": 868800,
                  "time": 28.134730500000003,
                  "velocity": 0.8031496062992126
              },
              {
                  "duration": 0.03886012499999936,
                  "durationTicks": 1200,
                  "midi": 60,
                  "name": "C4",
                  "ticks": 868800,
                  "time": 28.134730500000003,
                  "velocity": 0.6456692913385826
              },
              {
                  "duration": 0.03886012499999936,
                  "durationTicks": 1200,
                  "midi": 29,
                  "name": "F1",
                  "ticks": 873600,
                  "time": 28.290171,
                  "velocity": 0.8818897637795275
              },
              {
                  "duration": 0.11658037500000162,
                  "durationTicks": 3600,
                  "midi": 29,
                  "name": "F1",
                  "ticks": 878400,
                  "time": 28.445611500000002,
                  "velocity": 0.8188976377952756
              },
              {
                  "duration": 0.11658037499999807,
                  "durationTicks": 3600,
                  "midi": 65,
                  "name": "F4",
                  "ticks": 883200,
                  "time": 28.601052000000003,
                  "velocity": 0.6456692913385826
              },
              {
                  "duration": 0.03886012500000291,
                  "durationTicks": 1200,
                  "midi": 29,
                  "name": "F1",
                  "ticks": 888000,
                  "time": 28.7564925,
                  "velocity": 0.8031496062992126
              },
              {
                  "duration": 0.07772025000000227,
                  "durationTicks": 2400,
                  "midi": 60,
                  "name": "C4",
                  "ticks": 888000,
                  "time": 28.7564925,
                  "velocity": 0.6141732283464567
              },
              {
                  "duration": 0.11658037500000162,
                  "durationTicks": 3600,
                  "midi": 65,
                  "name": "F4",
                  "ticks": 888000,
                  "time": 28.7564925,
                  "velocity": 0.5748031496062992
              },
              {
                  "duration": 0.03886012499999936,
                  "durationTicks": 1200,
                  "midi": 29,
                  "name": "F1",
                  "ticks": 892800,
                  "time": 28.911933,
                  "velocity": 0.8818897637795275
              },
              {
                  "duration": 0.07772025000000227,
                  "durationTicks": 2400,
                  "midi": 65,
                  "name": "F4",
                  "ticks": 892800,
                  "time": 28.911933,
                  "velocity": 0.6456692913385826
              },
              {
                  "duration": 0.11658037499999807,
                  "durationTicks": 3600,
                  "midi": 29,
                  "name": "F1",
                  "ticks": 897600,
                  "time": 29.067373500000002,
                  "velocity": 0.8031496062992126
              },
              {
                  "duration": 0.03886012499999936,
                  "durationTicks": 1200,
                  "midi": 53,
                  "name": "F3",
                  "ticks": 902400,
                  "time": 29.222814000000003,
                  "velocity": 0.5826771653543307
              },
              {
                  "duration": 0.03886012499999936,
                  "durationTicks": 1200,
                  "midi": 60,
                  "name": "C4",
                  "ticks": 902400,
                  "time": 29.222814000000003,
                  "velocity": 0.5354330708661418
              },
              {
                  "duration": 0.03886012500000291,
                  "durationTicks": 1200,
                  "midi": 29,
                  "name": "F1",
                  "ticks": 907200,
                  "time": 29.3782545,
                  "velocity": 0.8031496062992126
              },
              {
                  "duration": 0.07772025000000227,
                  "durationTicks": 2400,
                  "midi": 60,
                  "name": "C4",
                  "ticks": 907200,
                  "time": 29.3782545,
                  "velocity": 0.6456692913385826
              },
              {
                  "duration": 0.03886012499999936,
                  "durationTicks": 1200,
                  "midi": 29,
                  "name": "F1",
                  "ticks": 912000,
                  "time": 29.533695,
                  "velocity": 0.889763779527559
              },
              {
                  "duration": 0.07772024999999871,
                  "durationTicks": 2400,
                  "midi": 29,
                  "name": "F1",
                  "ticks": 916800,
                  "time": 29.689135500000003,
                  "velocity": 0.8267716535433071
              },
              {
                  "duration": 0.07772024999999871,
                  "durationTicks": 2400,
                  "midi": 62,
                  "name": "D4",
                  "ticks": 921600,
                  "time": 29.844576000000004,
                  "velocity": 0.5826771653543307
              },
              {
                  "duration": 0.03886012499999936,
                  "durationTicks": 1200,
                  "midi": 74,
                  "name": "D5",
                  "ticks": 921600,
                  "time": 29.844576000000004,
                  "velocity": 0.6535433070866141
              },
              {
                  "duration": 0.07772025000000227,
                  "durationTicks": 2400,
                  "midi": 72,
                  "name": "C5",
                  "ticks": 926400,
                  "time": 30.0000165,
                  "velocity": 0.7401574803149606
              },
              {
                  "duration": 0.07772024999999871,
                  "durationTicks": 2400,
                  "midi": 69,
                  "name": "A4",
                  "ticks": 931200,
                  "time": 30.155457000000002,
                  "velocity": 0.7559055118110236
              },
              {
                  "duration": 0.07772024999999871,
                  "durationTicks": 2400,
                  "midi": 67,
                  "name": "G4",
                  "ticks": 936000,
                  "time": 30.310897500000003,
                  "velocity": 0.6929133858267716
              },
              {
                  "duration": 0.03886012499999936,
                  "durationTicks": 1200,
                  "midi": 65,
                  "name": "F4",
                  "ticks": 945600,
                  "time": 30.6217785,
                  "velocity": 0.7244094488188977
              },
              {
                  "duration": 0.07772024999999871,
                  "durationTicks": 2400,
                  "midi": 62,
                  "name": "D4",
                  "ticks": 950400,
                  "time": 30.777219000000002,
                  "velocity": 0.8582677165354331
              },
              {
                  "duration": 0.07772024999999871,
                  "durationTicks": 2400,
                  "midi": 60,
                  "name": "C4",
                  "ticks": 955200,
                  "time": 30.932659500000003,
                  "velocity": 0.7637795275590551
              },
              {
                  "duration": 0.15544049999999743,
                  "durationTicks": 4800,
                  "midi": 65,
                  "name": "F4",
                  "ticks": 955200,
                  "time": 30.932659500000003,
                  "velocity": 0.7874015748031497
              },
              {
                  "duration": 0.11658037500000162,
                  "durationTicks": 3600,
                  "midi": 29,
                  "name": "F1",
                  "ticks": 960000,
                  "time": 31.0881,
                  "velocity": 0.8740157480314961
              },
              {
                  "duration": 0.11658037500000162,
                  "durationTicks": 3600,
                  "midi": 65,
                  "name": "F4",
                  "ticks": 960000,
                  "time": 31.0881,
                  "velocity": 0.8346456692913385
              },
              {
                  "duration": 0.11658037500000162,
                  "durationTicks": 3600,
                  "midi": 29,
                  "name": "F1",
                  "ticks": 964800,
                  "time": 31.2435405,
                  "velocity": 0.8031496062992126
              },
              {
                  "duration": 0.03886012499999936,
                  "durationTicks": 1200,
                  "midi": 65,
                  "name": "F4",
                  "ticks": 964800,
                  "time": 31.2435405,
                  "velocity": 0.7637795275590551
              },
              {
                  "duration": 0.07772024999999871,
                  "durationTicks": 2400,
                  "midi": 29,
                  "name": "F1",
                  "ticks": 969600,
                  "time": 31.398981000000003,
                  "velocity": 0.8740157480314961
              },
              {
                  "duration": 0.11658037499999807,
                  "durationTicks": 3600,
                  "midi": 41,
                  "name": "F2",
                  "ticks": 969600,
                  "time": 31.398981000000003,
                  "velocity": 0.6929133858267716
              },
              {
                  "duration": 0.07772024999999871,
                  "durationTicks": 2400,
                  "midi": 65,
                  "name": "F4",
                  "ticks": 969600,
                  "time": 31.398981000000003,
                  "velocity": 0.8110236220472441
              },
              {
                  "duration": 0.07772025000000227,
                  "durationTicks": 2400,
                  "midi": 41,
                  "name": "F2",
                  "ticks": 974400,
                  "time": 31.5544215,
                  "velocity": 0.6299212598425197
              },
              {
                  "duration": 0.07772025000000227,
                  "durationTicks": 2400,
                  "midi": 53,
                  "name": "F3",
                  "ticks": 974400,
                  "time": 31.5544215,
                  "velocity": 0.5669291338582677
              },
              {
                  "duration": 0.07772025000000227,
                  "durationTicks": 2400,
                  "midi": 60,
                  "name": "C4",
                  "ticks": 974400,
                  "time": 31.5544215,
                  "velocity": 0.5511811023622047
              },
              {
                  "duration": 0.07772024999999871,
                  "durationTicks": 2400,
                  "midi": 29,
                  "name": "F1",
                  "ticks": 984000,
                  "time": 31.865302500000002,
                  "velocity": 0.8031496062992126
              },
              {
                  "duration": 0.07772024999999871,
                  "durationTicks": 2400,
                  "midi": 60,
                  "name": "C4",
                  "ticks": 984000,
                  "time": 31.865302500000002,
                  "velocity": 0.7244094488188977
              },
              {
                  "duration": 0.03886012499999936,
                  "durationTicks": 1200,
                  "midi": 29,
                  "name": "F1",
                  "ticks": 988800,
                  "time": 32.020743,
                  "velocity": 0.889763779527559
              },
              {
                  "duration": 0.11658037499999807,
                  "durationTicks": 3600,
                  "midi": 29,
                  "name": "F1",
                  "ticks": 993600,
                  "time": 32.1761835,
                  "velocity": 0.8267716535433071
              },
              {
                  "duration": 0.11658037499999807,
                  "durationTicks": 3600,
                  "midi": 65,
                  "name": "F4",
                  "ticks": 993600,
                  "time": 32.1761835,
                  "velocity": 0.7716535433070866
              },
              {
                  "duration": 0.11658037499999807,
                  "durationTicks": 3600,
                  "midi": 74,
                  "name": "D5",
                  "ticks": 998400,
                  "time": 32.331624000000005,
                  "velocity": 0.6929133858267716
              },
              {
                  "duration": 0.11658037499999807,
                  "durationTicks": 3600,
                  "midi": 29,
                  "name": "F1",
                  "ticks": 1003200,
                  "time": 32.4870645,
                  "velocity": 0.8031496062992126
              },
              {
                  "duration": 0.03886012499999936,
                  "durationTicks": 1200,
                  "midi": 29,
                  "name": "F1",
                  "ticks": 1008000,
                  "time": 32.642505,
                  "velocity": 0.8740157480314961
              },
              {
                  "duration": 0.03886012499999936,
                  "durationTicks": 1200,
                  "midi": 41,
                  "name": "F2",
                  "ticks": 1008000,
                  "time": 32.642505,
                  "velocity": 0.8110236220472441
              },
              {
                  "duration": 0.07772024999999871,
                  "durationTicks": 2400,
                  "midi": 29,
                  "name": "F1",
                  "ticks": 1012800,
                  "time": 32.797945500000004,
                  "velocity": 0.8110236220472441
              },
              {
                  "duration": 0.07772024999999871,
                  "durationTicks": 2400,
                  "midi": 29,
                  "name": "F1",
                  "ticks": 1017600,
                  "time": 32.953386,
                  "velocity": 0.8582677165354331
              },
              {
                  "duration": 0.07772024999999871,
                  "durationTicks": 2400,
                  "midi": 62,
                  "name": "D4",
                  "ticks": 1017600,
                  "time": 32.953386,
                  "velocity": 0.7637795275590551
              },
              {
                  "duration": 0.07772025000000582,
                  "durationTicks": 2400,
                  "midi": 48,
                  "name": "C3",
                  "ticks": 1022400,
                  "time": 33.1088265,
                  "velocity": 0.7874015748031497
              },
              {
                  "duration": 0.11658037499999807,
                  "durationTicks": 3600,
                  "midi": 38,
                  "name": "D2",
                  "ticks": 1027200,
                  "time": 33.264267000000004,
                  "velocity": 0.7086614173228346
              },
              {
                  "duration": 0.11658037499999807,
                  "durationTicks": 3600,
                  "midi": 50,
                  "name": "D3",
                  "ticks": 1027200,
                  "time": 33.264267000000004,
                  "velocity": 0.8503937007874016
              },
              {
                  "duration": 0.07772024999999871,
                  "durationTicks": 2400,
                  "midi": 53,
                  "name": "F3",
                  "ticks": 1032000,
                  "time": 33.4197075,
                  "velocity": 0.8031496062992126
              },
              {
                  "duration": 0.11658037500000518,
                  "durationTicks": 3600,
                  "midi": 26,
                  "name": "D1",
                  "ticks": 1036800,
                  "time": 33.575148,
                  "velocity": 0.8661417322834646
              },
              {
                  "duration": 0.11658037500000518,
                  "durationTicks": 3600,
                  "midi": 77,
                  "name": "F5",
                  "ticks": 1036800,
                  "time": 33.575148,
                  "velocity": 0.6850393700787402
              },
              {
                  "duration": 0.11658037499999807,
                  "durationTicks": 3600,
                  "midi": 26,
                  "name": "D1",
                  "ticks": 1041600,
                  "time": 33.7305885,
                  "velocity": 0.8031496062992126
              },
              {
                  "duration": 0.11658037499999807,
                  "durationTicks": 3600,
                  "midi": 69,
                  "name": "A4",
                  "ticks": 1041600,
                  "time": 33.7305885,
                  "velocity": 0.5354330708661418
              },
              {
                  "duration": 0.11658037499999807,
                  "durationTicks": 3600,
                  "midi": 77,
                  "name": "F5",
                  "ticks": 1041600,
                  "time": 33.7305885,
                  "velocity": 0.6141732283464567
              },
              {
                  "duration": 0.03886012499999936,
                  "durationTicks": 1200,
                  "midi": 26,
                  "name": "D1",
                  "ticks": 1046400,
                  "time": 33.886029,
                  "velocity": 0.8661417322834646
              },
              {
                  "duration": 0.03886012499999936,
                  "durationTicks": 1200,
                  "midi": 50,
                  "name": "D3",
                  "ticks": 1046400,
                  "time": 33.886029,
                  "velocity": 0.7716535433070866
              },
              {
                  "duration": 0.11658037499999807,
                  "durationTicks": 3600,
                  "midi": 65,
                  "name": "F4",
                  "ticks": 1046400,
                  "time": 33.886029,
                  "velocity": 0.8188976377952756
              },
              {
                  "duration": 0.07772024999999871,
                  "durationTicks": 2400,
                  "midi": 69,
                  "name": "A4",
                  "ticks": 1046400,
                  "time": 33.886029,
                  "velocity": 0.6062992125984252
              },
              {
                  "duration": 0.03886012499999936,
                  "durationTicks": 1200,
                  "midi": 77,
                  "name": "F5",
                  "ticks": 1046400,
                  "time": 33.886029,
                  "velocity": 0.6850393700787402
              },
              {
                  "duration": 0.11658037499999807,
                  "durationTicks": 3600,
                  "midi": 38,
                  "name": "D2",
                  "ticks": 1051200,
                  "time": 34.041469500000005,
                  "velocity": 0.6614173228346457
              },
              {
                  "duration": 0.07772024999999871,
                  "durationTicks": 2400,
                  "midi": 26,
                  "name": "D1",
                  "ticks": 1060800,
                  "time": 34.3523505,
                  "velocity": 0.8031496062992126
              },
              {
                  "duration": 0.07772024999999871,
                  "durationTicks": 2400,
                  "midi": 57,
                  "name": "A3",
                  "ticks": 1060800,
                  "time": 34.3523505,
                  "velocity": 0.6141732283464567
              },
              {
                  "duration": 0.07772024999999871,
                  "durationTicks": 2400,
                  "midi": 69,
                  "name": "A4",
                  "ticks": 1060800,
                  "time": 34.3523505,
                  "velocity": 0.6062992125984252
              },
              {
                  "duration": 0.03886012499999936,
                  "durationTicks": 1200,
                  "midi": 26,
                  "name": "D1",
                  "ticks": 1065600,
                  "time": 34.507791000000005,
                  "velocity": 0.889763779527559
              },
              {
                  "duration": 0.03886012499999936,
                  "durationTicks": 1200,
                  "midi": 50,
                  "name": "D3",
                  "ticks": 1065600,
                  "time": 34.507791000000005,
                  "velocity": 0.7086614173228346
              },
              {
                  "duration": 0.07772024999999871,
                  "durationTicks": 2400,
                  "midi": 57,
                  "name": "A3",
                  "ticks": 1065600,
                  "time": 34.507791000000005,
                  "velocity": 0.6929133858267716
              },
              {
                  "duration": 0.11658037499999807,
                  "durationTicks": 3600,
                  "midi": 26,
                  "name": "D1",
                  "ticks": 1070400,
                  "time": 34.6632315,
                  "velocity": 0.8188976377952756
              },
              {
                  "duration": 0.11658037499999807,
                  "durationTicks": 3600,
                  "midi": 65,
                  "name": "F4",
                  "ticks": 1070400,
                  "time": 34.6632315,
                  "velocity": 0.7952755905511811
              },
              {
                  "duration": 0.07772025000000582,
                  "durationTicks": 2400,
                  "midi": 62,
                  "name": "D4",
                  "ticks": 1075200,
                  "time": 34.818672,
                  "velocity": 0.7244094488188977
              },
              {
                  "duration": 0.11658037499999807,
                  "durationTicks": 3600,
                  "midi": 36,
                  "name": "C2",
                  "ticks": 1080000,
                  "time": 34.974112500000004,
                  "velocity": 0.8110236220472441
              },
              {
                  "duration": 0.03886012499999936,
                  "durationTicks": 1200,
                  "midi": 36,
                  "name": "C2",
                  "ticks": 1084800,
                  "time": 35.129553,
                  "velocity": 0.8818897637795275
              },
              {
                  "duration": 0.11658037500000518,
                  "durationTicks": 3600,
                  "midi": 36,
                  "name": "C2",
                  "ticks": 1089600,
                  "time": 35.2849935,
                  "velocity": 0.8031496062992126
              },
              {
                  "duration": 0.07772024999999871,
                  "durationTicks": 2400,
                  "midi": 67,
                  "name": "G4",
                  "ticks": 1094400,
                  "time": 35.440434,
                  "velocity": 0.7559055118110236
              },
              {
                  "duration": 0.07772024999999871,
                  "durationTicks": 2400,
                  "midi": 48,
                  "name": "C3",
                  "ticks": 1099200,
                  "time": 35.5958745,
                  "velocity": 0.6771653543307087
              },
              {
                  "duration": 0.07772024999999871,
                  "durationTicks": 2400,
                  "midi": 65,
                  "name": "F4",
                  "ticks": 1099200,
                  "time": 35.5958745,
                  "velocity": 0.7244094488188977
              },
              {
                  "duration": 0.11658037499999807,
                  "durationTicks": 3600,
                  "midi": 50,
                  "name": "D3",
                  "ticks": 1104000,
                  "time": 35.751315000000005,
                  "velocity": 0.7322834645669292
              },
              {
                  "duration": 0.07772024999999871,
                  "durationTicks": 2400,
                  "midi": 62,
                  "name": "D4",
                  "ticks": 1104000,
                  "time": 35.751315000000005,
                  "velocity": 0.8188976377952756
              },
              {
                  "duration": 0.11658037499999807,
                  "durationTicks": 3600,
                  "midi": 60,
                  "name": "C4",
                  "ticks": 1108800,
                  "time": 35.9067555,
                  "velocity": 0.8031496062992126
              },
              {
                  "duration": 0.11658037500000518,
                  "durationTicks": 3600,
                  "midi": 34,
                  "name": "A#1",
                  "ticks": 1113600,
                  "time": 36.062196,
                  "velocity": 0.8661417322834646
              },
              {
                  "duration": 0.11658037500000518,
                  "durationTicks": 3600,
                  "midi": 62,
                  "name": "D4",
                  "ticks": 1113600,
                  "time": 36.062196,
                  "velocity": 0.7952755905511811
              },
              {
                  "duration": 0.11658037500000518,
                  "durationTicks": 3600,
                  "midi": 65,
                  "name": "F4",
                  "ticks": 1113600,
                  "time": 36.062196,
                  "velocity": 0.7559055118110236
              },
              {
                  "duration": 0.11658037499999807,
                  "durationTicks": 3600,
                  "midi": 34,
                  "name": "A#1",
                  "ticks": 1118400,
                  "time": 36.217636500000005,
                  "velocity": 0.8031496062992126
              },
              {
                  "duration": 0.11658037499999807,
                  "durationTicks": 3600,
                  "midi": 62,
                  "name": "D4",
                  "ticks": 1118400,
                  "time": 36.217636500000005,
                  "velocity": 0.7244094488188977
              },
              {
                  "duration": 0.11658037499999807,
                  "durationTicks": 3600,
                  "midi": 65,
                  "name": "F4",
                  "ticks": 1118400,
                  "time": 36.217636500000005,
                  "velocity": 0.6771653543307087
              },
              {
                  "duration": 0.03886012499999936,
                  "durationTicks": 1200,
                  "midi": 34,
                  "name": "A#1",
                  "ticks": 1123200,
                  "time": 36.373077,
                  "velocity": 0.8661417322834646
              },
              {
                  "duration": 0.03886012499999936,
                  "durationTicks": 1200,
                  "midi": 65,
                  "name": "F4",
                  "ticks": 1123200,
                  "time": 36.373077,
                  "velocity": 0.7559055118110236
              },
              {
                  "duration": 0.11658037500000518,
                  "durationTicks": 3600,
                  "midi": 46,
                  "name": "A#2",
                  "ticks": 1128000,
                  "time": 36.5285175,
                  "velocity": 0.6614173228346457
              },
              {
                  "duration": 0.07772025000000582,
                  "durationTicks": 2400,
                  "midi": 53,
                  "name": "F3",
                  "ticks": 1128000,
                  "time": 36.5285175,
                  "velocity": 0.5590551181102362
              },
              {
                  "duration": 0.07772024999999871,
                  "durationTicks": 2400,
                  "midi": 34,
                  "name": "A#1",
                  "ticks": 1137600,
                  "time": 36.8393985,
                  "velocity": 0.8110236220472441
              },
              {
                  "duration": 0.03886012500000646,
                  "durationTicks": 1200,
                  "midi": 34,
                  "name": "A#1",
                  "ticks": 1142400,
                  "time": 36.994839,
                  "velocity": 0.8976377952755905
              },
              {
                  "duration": 0.11658037499999807,
                  "durationTicks": 3600,
                  "midi": 34,
                  "name": "A#1",
                  "ticks": 1147200,
                  "time": 37.1502795,
                  "velocity": 0.8346456692913385
              },
              {
                  "duration": 0.07772024999999871,
                  "durationTicks": 2400,
                  "midi": 62,
                  "name": "D4",
                  "ticks": 1152000,
                  "time": 37.30572,
                  "velocity": 0.7086614173228346
              },
              {
                  "duration": 0.11658037499999807,
                  "durationTicks": 3600,
                  "midi": 34,
                  "name": "A#1",
                  "ticks": 1156800,
                  "time": 37.461160500000005,
                  "velocity": 0.8031496062992126
              },
              {
                  "duration": 0.03886012499999936,
                  "durationTicks": 1200,
                  "midi": 34,
                  "name": "A#1",
                  "ticks": 1161600,
                  "time": 37.616601,
                  "velocity": 0.8818897637795275
              },
              {
                  "duration": 0.11658037499999807,
                  "durationTicks": 3600,
                  "midi": 46,
                  "name": "A#2",
                  "ticks": 1161600,
                  "time": 37.616601,
                  "velocity": 0.7559055118110236
              },
              {
                  "duration": 0.03886012499999936,
                  "durationTicks": 1200,
                  "midi": 34,
                  "name": "A#1",
                  "ticks": 1166400,
                  "time": 37.7720415,
                  "velocity": 0.8110236220472441
              },
              {
                  "duration": 0.11658037500000518,
                  "durationTicks": 3600,
                  "midi": 46,
                  "name": "A#2",
                  "ticks": 1166400,
                  "time": 37.7720415,
                  "velocity": 0.6771653543307087
              },
              {
                  "duration": 0.07772024999999871,
                  "durationTicks": 2400,
                  "midi": 34,
                  "name": "A#1",
                  "ticks": 1171200,
                  "time": 37.927482000000005,
                  "velocity": 0.8503937007874016
              },
              {
                  "duration": 0.07772024999999871,
                  "durationTicks": 2400,
                  "midi": 60,
                  "name": "C4",
                  "ticks": 1171200,
                  "time": 37.927482000000005,
                  "velocity": 0.7401574803149606
              },
              {
                  "duration": 0.03886012499999936,
                  "durationTicks": 1200,
                  "midi": 46,
                  "name": "A#2",
                  "ticks": 1176000,
                  "time": 38.0829225,
                  "velocity": 0.7007874015748031
              },
              {
                  "duration": 0.03886012499999936,
                  "durationTicks": 1200,
                  "midi": 53,
                  "name": "F3",
                  "ticks": 1176000,
                  "time": 38.0829225,
                  "velocity": 0.6377952755905512
              },
              {
                  "duration": 0.07772024999999871,
                  "durationTicks": 2400,
                  "midi": 62,
                  "name": "D4",
                  "ticks": 1176000,
                  "time": 38.0829225,
                  "velocity": 0.7322834645669292
              },
              {
                  "duration": 0.11658037500000518,
                  "durationTicks": 3600,
                  "midi": 46,
                  "name": "A#2",
                  "ticks": 1180800,
                  "time": 38.238363,
                  "velocity": 0.8267716535433071
              },
              {
                  "duration": 0.11658037500000518,
                  "durationTicks": 3600,
                  "midi": 53,
                  "name": "F3",
                  "ticks": 1180800,
                  "time": 38.238363,
                  "velocity": 0.8110236220472441
              },
              {
                  "duration": 0.07772024999999871,
                  "durationTicks": 2400,
                  "midi": 46,
                  "name": "A#2",
                  "ticks": 1185600,
                  "time": 38.393803500000004,
                  "velocity": 0.7716535433070866
              },
              {
                  "duration": 0.07772024999999871,
                  "durationTicks": 2400,
                  "midi": 53,
                  "name": "F3",
                  "ticks": 1185600,
                  "time": 38.393803500000004,
                  "velocity": 0.7559055118110236
              },
              {
                  "duration": 0.07772024999999871,
                  "durationTicks": 2400,
                  "midi": 67,
                  "name": "G4",
                  "ticks": 1185600,
                  "time": 38.393803500000004,
                  "velocity": 0.8031496062992126
              },
              {
                  "duration": 0.11658037499999807,
                  "durationTicks": 3600,
                  "midi": 31,
                  "name": "G1",
                  "ticks": 1190400,
                  "time": 38.549244,
                  "velocity": 0.8740157480314961
              },
              {
                  "duration": 0.11658037499999807,
                  "durationTicks": 3600,
                  "midi": 69,
                  "name": "A4",
                  "ticks": 1190400,
                  "time": 38.549244,
                  "velocity": 0.7874015748031497
              },
              {
                  "duration": 0.03886012500000646,
                  "durationTicks": 1200,
                  "midi": 31,
                  "name": "G1",
                  "ticks": 1195200,
                  "time": 38.7046845,
                  "velocity": 0.8031496062992126
              },
              {
                  "duration": 0.11658037500000518,
                  "durationTicks": 3600,
                  "midi": 72,
                  "name": "C5",
                  "ticks": 1195200,
                  "time": 38.7046845,
                  "velocity": 0.7559055118110236
              },
              {
                  "duration": 0.11658037499999807,
                  "durationTicks": 3600,
                  "midi": 31,
                  "name": "G1",
                  "ticks": 1200000,
                  "time": 38.860125000000004,
                  "velocity": 0.8818897637795275
              },
              {
                  "duration": 0.11658037499999807,
                  "durationTicks": 3600,
                  "midi": 32,
                  "name": "G#1",
                  "ticks": 1204800,
                  "time": 39.0155655,
                  "velocity": 0.8031496062992126
              },
              {
                  "duration": 0.07772024999999871,
                  "durationTicks": 2400,
                  "midi": 72,
                  "name": "C5",
                  "ticks": 1204800,
                  "time": 39.0155655,
                  "velocity": 0.7086614173228346
              },
              {
                  "duration": 0.07772024999999871,
                  "durationTicks": 2400,
                  "midi": 33,
                  "name": "A1",
                  "ticks": 1214400,
                  "time": 39.3264465,
                  "velocity": 0.8031496062992126
              },
              {
                  "duration": 0.07772024999999871,
                  "durationTicks": 2400,
                  "midi": 69,
                  "name": "A4",
                  "ticks": 1214400,
                  "time": 39.3264465,
                  "velocity": 0.7401574803149606
              },
              {
                  "duration": 0.11658037500000518,
                  "durationTicks": 3600,
                  "midi": 34,
                  "name": "A#1",
                  "ticks": 1219200,
                  "time": 39.481887,
                  "velocity": 0.8818897637795275
              },
              {
                  "duration": 0.07772024999999871,
                  "durationTicks": 2400,
                  "midi": 34,
                  "name": "A#1",
                  "ticks": 1224000,
                  "time": 39.637327500000005,
                  "velocity": 0.8188976377952756
              },
              {
                  "duration": 0.07772024999999871,
                  "durationTicks": 2400,
                  "midi": 67,
                  "name": "G4",
                  "ticks": 1224000,
                  "time": 39.637327500000005,
                  "velocity": 0.7480314960629921
              },
              {
                  "duration": 0.11658037500000518,
                  "durationTicks": 3600,
                  "midi": 36,
                  "name": "C2",
                  "ticks": 1233600,
                  "time": 39.9482085,
                  "velocity": 0.8031496062992126
              },
              {
                  "duration": 0.11658037500000518,
                  "durationTicks": 3600,
                  "midi": 69,
                  "name": "A4",
                  "ticks": 1233600,
                  "time": 39.9482085,
                  "velocity": 0.7086614173228346
              },
              {
                  "duration": 0.07772024999999871,
                  "durationTicks": 2400,
                  "midi": 67,
                  "name": "G4",
                  "ticks": 1238400,
                  "time": 40.103649000000004,
                  "velocity": 0.7559055118110236
              },
              {
                  "duration": 0.03886012499999936,
                  "durationTicks": 1200,
                  "midi": 36,
                  "name": "C2",
                  "ticks": 1243200,
                  "time": 40.2590895,
                  "velocity": 0.8031496062992126
              },
              {
                  "duration": 0.11658037499999807,
                  "durationTicks": 3600,
                  "midi": 65,
                  "name": "F4",
                  "ticks": 1243200,
                  "time": 40.2590895,
                  "velocity": 0.7480314960629921
              },
              {
                  "duration": 0.07772025000000582,
                  "durationTicks": 2400,
                  "midi": 36,
                  "name": "C2",
                  "ticks": 1248000,
                  "time": 40.41453,
                  "velocity": 0.8661417322834646
              },
              {
                  "duration": 0.03886012499999936,
                  "durationTicks": 1200,
                  "midi": 36,
                  "name": "C2",
                  "ticks": 1252800,
                  "time": 40.569970500000004,
                  "velocity": 0.8031496062992126
              },
              {
                  "duration": 0.07772024999999871,
                  "durationTicks": 2400,
                  "midi": 65,
                  "name": "F4",
                  "ticks": 1252800,
                  "time": 40.569970500000004,
                  "velocity": 0.7401574803149606
              },
              {
                  "duration": 0.11658037499999807,
                  "durationTicks": 3600,
                  "midi": 36,
                  "name": "C2",
                  "ticks": 1257600,
                  "time": 40.725411,
                  "velocity": 0.889763779527559
              },
              {
                  "duration": 0.03886012499999936,
                  "durationTicks": 1200,
                  "midi": 62,
                  "name": "D4",
                  "ticks": 1257600,
                  "time": 40.725411,
                  "velocity": 0.7716535433070866
              },
              {
                  "duration": 0.11658037499999807,
                  "durationTicks": 3600,
                  "midi": 36,
                  "name": "C2",
                  "ticks": 1262400,
                  "time": 40.880851500000006,
                  "velocity": 0.8267716535433071
              },
              {
                  "duration": 0.11658037499999807,
                  "durationTicks": 3600,
                  "midi": 60,
                  "name": "C4",
                  "ticks": 1262400,
                  "time": 40.880851500000006,
                  "velocity": 0.7716535433070866
              },
              {
                  "duration": 0.11658037499999807,
                  "durationTicks": 3600,
                  "midi": 29,
                  "name": "F1",
                  "ticks": 1267200,
                  "time": 41.036292,
                  "velocity": 0.8740157480314961
              },
              {
                  "duration": 0.11658037499999807,
                  "durationTicks": 3600,
                  "midi": 65,
                  "name": "F4",
                  "ticks": 1267200,
                  "time": 41.036292,
                  "velocity": 0.8740157480314961
              },
              {
                  "duration": 0.11658037500000518,
                  "durationTicks": 3600,
                  "midi": 29,
                  "name": "F1",
                  "ticks": 1272000,
                  "time": 41.1917325,
                  "velocity": 0.8031496062992126
              },
              {
                  "duration": 0.03886012499999936,
                  "durationTicks": 1200,
                  "midi": 65,
                  "name": "F4",
                  "ticks": 1272000,
                  "time": 41.1917325,
                  "velocity": 0.8031496062992126
              },
              {
                  "duration": 0.07772024999999871,
                  "durationTicks": 2400,
                  "midi": 29,
                  "name": "F1",
                  "ticks": 1276800,
                  "time": 41.347173000000005,
                  "velocity": 0.8740157480314961
              },
              {
                  "duration": 0.03886012499999936,
                  "durationTicks": 1200,
                  "midi": 53,
                  "name": "F3",
                  "ticks": 1276800,
                  "time": 41.347173000000005,
                  "velocity": 0.8661417322834646
              },
              {
                  "duration": 0.11658037499999807,
                  "durationTicks": 3600,
                  "midi": 41,
                  "name": "F2",
                  "ticks": 1281600,
                  "time": 41.5026135,
                  "velocity": 0.5039370078740157
              },
              {
                  "duration": 0.07772024999999871,
                  "durationTicks": 2400,
                  "midi": 53,
                  "name": "F3",
                  "ticks": 1281600,
                  "time": 41.5026135,
                  "velocity": 0.6456692913385826
              },
              {
                  "duration": 0.07772024999999871,
                  "durationTicks": 2400,
                  "midi": 60,
                  "name": "C4",
                  "ticks": 1281600,
                  "time": 41.5026135,
                  "velocity": 0.5196850393700787
              },
              {
                  "duration": 0.07772025000000582,
                  "durationTicks": 2400,
                  "midi": 41,
                  "name": "F2",
                  "ticks": 1286400,
                  "time": 41.658054,
                  "velocity": 0.5826771653543307
              },
              {
                  "duration": 0.07772024999999871,
                  "durationTicks": 2400,
                  "midi": 29,
                  "name": "F1",
                  "ticks": 1291200,
                  "time": 41.813494500000004,
                  "velocity": 0.8031496062992126
              },
              {
                  "duration": 0.07772024999999871,
                  "durationTicks": 2400,
                  "midi": 60,
                  "name": "C4",
                  "ticks": 1291200,
                  "time": 41.813494500000004,
                  "velocity": 0.7401574803149606
              },
              {
                  "duration": 0.03886012499999936,
                  "durationTicks": 1200,
                  "midi": 29,
                  "name": "F1",
                  "ticks": 1296000,
                  "time": 41.968935,
                  "velocity": 0.889763779527559
              },
              {
                  "duration": 0.11658037500000518,
                  "durationTicks": 3600,
                  "midi": 29,
                  "name": "F1",
                  "ticks": 1300800,
                  "time": 42.1243755,
                  "velocity": 0.8267716535433071
              },
              {
                  "duration": 0.11658037500000518,
                  "durationTicks": 3600,
                  "midi": 65,
                  "name": "F4",
                  "ticks": 1300800,
                  "time": 42.1243755,
                  "velocity": 0.7874015748031497
              },
              {
                  "duration": 0.07772024999999871,
                  "durationTicks": 2400,
                  "midi": 74,
                  "name": "D5",
                  "ticks": 1305600,
                  "time": 42.279816000000004,
                  "velocity": 0.6692913385826772
              },
              {
                  "duration": 0.11658037499999807,
                  "durationTicks": 3600,
                  "midi": 29,
                  "name": "F1",
                  "ticks": 1310400,
                  "time": 42.4352565,
                  "velocity": 0.8110236220472441
              },
              {
                  "duration": 0.03886012499999936,
                  "durationTicks": 1200,
                  "midi": 29,
                  "name": "F1",
                  "ticks": 1315200,
                  "time": 42.590697000000006,
                  "velocity": 0.8818897637795275
              },
              {
                  "duration": 0.07772024999999871,
                  "durationTicks": 2400,
                  "midi": 29,
                  "name": "F1",
                  "ticks": 1320000,
                  "time": 42.7461375,
                  "velocity": 0.8110236220472441
              },
              {
                  "duration": 0.07772024999999871,
                  "durationTicks": 2400,
                  "midi": 29,
                  "name": "F1",
                  "ticks": 1324800,
                  "time": 42.901578,
                  "velocity": 0.8661417322834646
              },
              {
                  "duration": 0.07772024999999871,
                  "durationTicks": 2400,
                  "midi": 74,
                  "name": "D5",
                  "ticks": 1324800,
                  "time": 42.901578,
                  "velocity": 0.7874015748031497
              },
              {
                  "duration": 0.07772024999999871,
                  "durationTicks": 2400,
                  "midi": 48,
                  "name": "C3",
                  "ticks": 1329600,
                  "time": 43.057018500000005,
                  "velocity": 0.7874015748031497
              },
              {
                  "duration": 0.11658037499999807,
                  "durationTicks": 3600,
                  "midi": 50,
                  "name": "D3",
                  "ticks": 1334400,
                  "time": 43.212459,
                  "velocity": 0.8661417322834646
              },
              {
                  "duration": 0.11658037500000518,
                  "durationTicks": 3600,
                  "midi": 41,
                  "name": "F2",
                  "ticks": 1339200,
                  "time": 43.3678995,
                  "velocity": 0.6456692913385826
              },
              {
                  "duration": 0.11658037500000518,
                  "durationTicks": 3600,
                  "midi": 53,
                  "name": "F3",
                  "ticks": 1339200,
                  "time": 43.3678995,
                  "velocity": 0.8110236220472441
              },
              {
                  "duration": 0.11658037499999807,
                  "durationTicks": 3600,
                  "midi": 26,
                  "name": "D1",
                  "ticks": 1344000,
                  "time": 43.523340000000005,
                  "velocity": 0.8503937007874016
              },
              {
                  "duration": 0.11658037499999807,
                  "durationTicks": 3600,
                  "midi": 65,
                  "name": "F4",
                  "ticks": 1344000,
                  "time": 43.523340000000005,
                  "velocity": 0.8503937007874016
              },
              {
                  "duration": 0.11658037499999807,
                  "durationTicks": 3600,
                  "midi": 26,
                  "name": "D1",
                  "ticks": 1348800,
                  "time": 43.6787805,
                  "velocity": 0.7874015748031497
              },
              {
                  "duration": 0.11658037499999807,
                  "durationTicks": 3600,
                  "midi": 38,
                  "name": "D2",
                  "ticks": 1348800,
                  "time": 43.6787805,
                  "velocity": 0.6614173228346457
              },
              {
                  "duration": 0.11658037499999807,
                  "durationTicks": 3600,
                  "midi": 65,
                  "name": "F4",
                  "ticks": 1348800,
                  "time": 43.6787805,
                  "velocity": 0.7716535433070866
              },
              {
                  "duration": 0.03886012500000646,
                  "durationTicks": 1200,
                  "midi": 26,
                  "name": "D1",
                  "ticks": 1353600,
                  "time": 43.834221,
                  "velocity": 0.8503937007874016
              },
              {
                  "duration": 0.03886012500000646,
                  "durationTicks": 1200,
                  "midi": 38,
                  "name": "D2",
                  "ticks": 1353600,
                  "time": 43.834221,
                  "velocity": 0.7322834645669292
              },
              {
                  "duration": 0.03886012500000646,
                  "durationTicks": 1200,
                  "midi": 50,
                  "name": "D3",
                  "ticks": 1353600,
                  "time": 43.834221,
                  "velocity": 0.6929133858267716
              },
              {
                  "duration": 0.11658037500000518,
                  "durationTicks": 3600,
                  "midi": 57,
                  "name": "A3",
                  "ticks": 1353600,
                  "time": 43.834221,
                  "velocity": 0.6141732283464567
              },
              {
                  "duration": 0.11658037500000518,
                  "durationTicks": 3600,
                  "midi": 65,
                  "name": "F4",
                  "ticks": 1353600,
                  "time": 43.834221,
                  "velocity": 0.8503937007874016
              },
              {
                  "duration": 0.11658037499999807,
                  "durationTicks": 3600,
                  "midi": 38,
                  "name": "D2",
                  "ticks": 1358400,
                  "time": 43.989661500000004,
                  "velocity": 0.6456692913385826
              },
              {
                  "duration": 0.07772024999999871,
                  "durationTicks": 2400,
                  "midi": 57,
                  "name": "A3",
                  "ticks": 1358400,
                  "time": 43.989661500000004,
                  "velocity": 0.5511811023622047
              },
              {
                  "duration": 0.11658037499999807,
                  "durationTicks": 3600,
                  "midi": 66,
                  "name": "F#4",
                  "ticks": 1358400,
                  "time": 43.989661500000004,
                  "velocity": 0.5354330708661418
              },
              {
                  "duration": 0.07772024999999871,
                  "durationTicks": 2400,
                  "midi": 26,
                  "name": "D1",
                  "ticks": 1368000,
                  "time": 44.300542500000006,
                  "velocity": 0.8031496062992126
              },
              {
                  "duration": 0.07772024999999871,
                  "durationTicks": 2400,
                  "midi": 72,
                  "name": "C5",
                  "ticks": 1368000,
                  "time": 44.300542500000006,
                  "velocity": 0.7086614173228346
              },
              {
                  "duration": 0.03886012499999936,
                  "durationTicks": 1200,
                  "midi": 26,
                  "name": "D1",
                  "ticks": 1372800,
                  "time": 44.455983,
                  "velocity": 0.889763779527559
              },
              {
                  "duration": 0.11658037499999807,
                  "durationTicks": 3600,
                  "midi": 65,
                  "name": "F4",
                  "ticks": 1372800,
                  "time": 44.455983,
                  "velocity": 0.8031496062992126
              },
              {
                  "duration": 0.11658037500000518,
                  "durationTicks": 3600,
                  "midi": 26,
                  "name": "D1",
                  "ticks": 1377600,
                  "time": 44.6114235,
                  "velocity": 0.8267716535433071
              },
              {
                  "duration": 0.11658037500000518,
                  "durationTicks": 3600,
                  "midi": 57,
                  "name": "A3",
                  "ticks": 1377600,
                  "time": 44.6114235,
                  "velocity": 0.6141732283464567
              },
              {
                  "duration": 0.11658037500000518,
                  "durationTicks": 3600,
                  "midi": 65,
                  "name": "F4",
                  "ticks": 1377600,
                  "time": 44.6114235,
                  "velocity": 0.7401574803149606
              },
              {
                  "duration": 0.11658037499999807,
                  "durationTicks": 3600,
                  "midi": 62,
                  "name": "D4",
                  "ticks": 1382400,
                  "time": 44.766864000000005,
                  "velocity": 0.6929133858267716
              },
              {
                  "duration": 0.11658037499999807,
                  "durationTicks": 3600,
                  "midi": 36,
                  "name": "C2",
                  "ticks": 1387200,
                  "time": 44.9223045,
                  "velocity": 0.8110236220472441
              },
              {
                  "duration": 0.03886012499999936,
                  "durationTicks": 1200,
                  "midi": 36,
                  "name": "C2",
                  "ticks": 1392000,
                  "time": 45.077745,
                  "velocity": 0.889763779527559
              },
              {
                  "duration": 0.03886012499999936,
                  "durationTicks": 1200,
                  "midi": 36,
                  "name": "C2",
                  "ticks": 1396800,
                  "time": 45.233185500000005,
                  "velocity": 0.8110236220472441
              },
              {
                  "duration": 0.07772024999999871,
                  "durationTicks": 2400,
                  "midi": 36,
                  "name": "C2",
                  "ticks": 1401600,
                  "time": 45.388626,
                  "velocity": 0.8740157480314961
              },
              {
                  "duration": 0.07772025000000582,
                  "durationTicks": 2400,
                  "midi": 36,
                  "name": "C2",
                  "ticks": 1406400,
                  "time": 45.5440665,
                  "velocity": 0.6614173228346457
              },
              {
                  "duration": 0.07772025000000582,
                  "durationTicks": 2400,
                  "midi": 48,
                  "name": "C3",
                  "ticks": 1406400,
                  "time": 45.5440665,
                  "velocity": 0.6929133858267716
              },
              {
                  "duration": 0.07772025000000582,
                  "durationTicks": 2400,
                  "midi": 69,
                  "name": "A4",
                  "ticks": 1406400,
                  "time": 45.5440665,
                  "velocity": 0.7401574803149606
              },
              {
                  "duration": 0.11658037499999807,
                  "durationTicks": 3600,
                  "midi": 50,
                  "name": "D3",
                  "ticks": 1411200,
                  "time": 45.699507000000004,
                  "velocity": 0.8110236220472441
              },
              {
                  "duration": 0.11658037499999807,
                  "durationTicks": 3600,
                  "midi": 67,
                  "name": "G4",
                  "ticks": 1411200,
                  "time": 45.699507000000004,
                  "velocity": 0.8346456692913385
              },
              {
                  "duration": 0.11658037499999807,
                  "durationTicks": 3600,
                  "midi": 65,
                  "name": "F4",
                  "ticks": 1416000,
                  "time": 45.8549475,
                  "velocity": 0.8267716535433071
              },
              {
                  "duration": 0.03886012499999936,
                  "durationTicks": 1200,
                  "midi": 67,
                  "name": "G4",
                  "ticks": 1416000,
                  "time": 45.8549475,
                  "velocity": 0.7795275590551181
              },
              {
                  "duration": 0.11658037499999807,
                  "durationTicks": 3600,
                  "midi": 34,
                  "name": "A#1",
                  "ticks": 1420800,
                  "time": 46.010388000000006,
                  "velocity": 0.8740157480314961
              },
              {
                  "duration": 0.11658037499999807,
                  "durationTicks": 3600,
                  "midi": 65,
                  "name": "F4",
                  "ticks": 1420800,
                  "time": 46.010388000000006,
                  "velocity": 0.8031496062992126
              },
              {
                  "duration": 0.11658037499999807,
                  "durationTicks": 3600,
                  "midi": 34,
                  "name": "A#1",
                  "ticks": 1425600,
                  "time": 46.1658285,
                  "velocity": 0.8031496062992126
              },
              {
                  "duration": 0.11658037499999807,
                  "durationTicks": 3600,
                  "midi": 62,
                  "name": "D4",
                  "ticks": 1425600,
                  "time": 46.1658285,
                  "velocity": 0.7165354330708661
              },
              {
                  "duration": 0.07772024999999871,
                  "durationTicks": 2400,
                  "midi": 34,
                  "name": "A#1",
                  "ticks": 1430400,
                  "time": 46.321269,
                  "velocity": 0.8740157480314961
              },
              {
                  "duration": 0.07772024999999871,
                  "durationTicks": 2400,
                  "midi": 62,
                  "name": "D4",
                  "ticks": 1430400,
                  "time": 46.321269,
                  "velocity": 0.7874015748031497
              },
              {
                  "duration": 0.07772024999999871,
                  "durationTicks": 2400,
                  "midi": 46,
                  "name": "A#2",
                  "ticks": 1435200,
                  "time": 46.476709500000005,
                  "velocity": 0.6771653543307087
              },
              {
                  "duration": 0.07772025000000582,
                  "durationTicks": 2400,
                  "midi": 34,
                  "name": "A#1",
                  "ticks": 1444800,
                  "time": 46.7875905,
                  "velocity": 0.8031496062992126
              },
              {
                  "duration": 0.07772025000000582,
                  "durationTicks": 2400,
                  "midi": 60,
                  "name": "C4",
                  "ticks": 1444800,
                  "time": 46.7875905,
                  "velocity": 0.7244094488188977
              },
              {
                  "duration": 0.03886012499999936,
                  "durationTicks": 1200,
                  "midi": 34,
                  "name": "A#1",
                  "ticks": 1449600,
                  "time": 46.943031000000005,
                  "velocity": 0.889763779527559
              },
              {
                  "duration": 0.11658037499999807,
                  "durationTicks": 3600,
                  "midi": 34,
                  "name": "A#1",
                  "ticks": 1454400,
                  "time": 47.0984715,
                  "velocity": 0.8267716535433071
              },
              {
                  "duration": 0.11658037499999807,
                  "durationTicks": 3600,
                  "midi": 62,
                  "name": "D4",
                  "ticks": 1454400,
                  "time": 47.0984715,
                  "velocity": 0.7559055118110236
              },
              {
                  "duration": 0.11658037499999807,
                  "durationTicks": 3600,
                  "midi": 34,
                  "name": "A#1",
                  "ticks": 1464000,
                  "time": 47.409352500000004,
                  "velocity": 0.8188976377952756
              },
              {
                  "duration": 0.07772024999999871,
                  "durationTicks": 2400,
                  "midi": 34,
                  "name": "A#1",
                  "ticks": 1468800,
                  "time": 47.564793,
                  "velocity": 0.889763779527559
              },
              {
                  "duration": 0.11658037499999807,
                  "durationTicks": 3600,
                  "midi": 46,
                  "name": "A#2",
                  "ticks": 1473600,
                  "time": 47.720233500000006,
                  "velocity": 0.7165354330708661
              },
              {
                  "duration": 0.07772024999999871,
                  "durationTicks": 2400,
                  "midi": 34,
                  "name": "A#1",
                  "ticks": 1478400,
                  "time": 47.875674000000004,
                  "velocity": 0.8661417322834646
              },
              {
                  "duration": 0.07772024999999871,
                  "durationTicks": 2400,
                  "midi": 60,
                  "name": "C4",
                  "ticks": 1478400,
                  "time": 47.875674000000004,
                  "velocity": 0.7559055118110236
              },
              {
                  "duration": 0.07772024999999871,
                  "durationTicks": 2400,
                  "midi": 46,
                  "name": "A#2",
                  "ticks": 1483200,
                  "time": 48.0311145,
                  "velocity": 0.7401574803149606
              },
              {
                  "duration": 0.03886012499999936,
                  "durationTicks": 1200,
                  "midi": 60,
                  "name": "C4",
                  "ticks": 1483200,
                  "time": 48.0311145,
                  "velocity": 0.6771653543307087
              },
              {
                  "duration": 0.07772024999999871,
                  "durationTicks": 2400,
                  "midi": 62,
                  "name": "D4",
                  "ticks": 1483200,
                  "time": 48.0311145,
                  "velocity": 0.7559055118110236
              },
              {
                  "duration": 0.03886012499999936,
                  "durationTicks": 1200,
                  "midi": 53,
                  "name": "F3",
                  "ticks": 1488000,
                  "time": 48.186555000000006,
                  "velocity": 0.6929133858267716
              },
              {
                  "duration": 0.11658037499999807,
                  "durationTicks": 3600,
                  "midi": 65,
                  "name": "F4",
                  "ticks": 1488000,
                  "time": 48.186555000000006,
                  "velocity": 0.8503937007874016
              },
              {
                  "duration": 0.11658037499999807,
                  "durationTicks": 3600,
                  "midi": 31,
                  "name": "G1",
                  "ticks": 1492800,
                  "time": 48.3419955,
                  "velocity": 0.8031496062992126
              },
              {
                  "duration": 0.07772024999999871,
                  "durationTicks": 2400,
                  "midi": 46,
                  "name": "A#2",
                  "ticks": 1492800,
                  "time": 48.3419955,
                  "velocity": 0.7322834645669292
              },
              {
                  "duration": 0.11658037499999807,
                  "durationTicks": 3600,
                  "midi": 53,
                  "name": "F3",
                  "ticks": 1492800,
                  "time": 48.3419955,
                  "velocity": 0.6850393700787402
              },
              {
                  "duration": 0.07772024999999871,
                  "durationTicks": 2400,
                  "midi": 67,
                  "name": "G4",
                  "ticks": 1492800,
                  "time": 48.3419955,
                  "velocity": 0.8110236220472441
              },
              {
                  "duration": 0.11658037500000518,
                  "durationTicks": 3600,
                  "midi": 31,
                  "name": "G1",
                  "ticks": 1497600,
                  "time": 48.497436,
                  "velocity": 0.8503937007874016
              },
              {
                  "duration": 0.11658037500000518,
                  "durationTicks": 3600,
                  "midi": 69,
                  "name": "A4",
                  "ticks": 1497600,
                  "time": 48.497436,
                  "velocity": 0.7401574803149606
              },
              {
                  "duration": 0.07772024999999871,
                  "durationTicks": 2400,
                  "midi": 31,
                  "name": "G1",
                  "ticks": 1502400,
                  "time": 48.652876500000005,
                  "velocity": 0.7874015748031497
              },
              {
                  "duration": 0.11658037499999807,
                  "durationTicks": 3600,
                  "midi": 72,
                  "name": "C5",
                  "ticks": 1502400,
                  "time": 48.652876500000005,
                  "velocity": 0.7874015748031497
              },
              {
                  "duration": 0.07772024999999871,
                  "durationTicks": 2400,
                  "midi": 74,
                  "name": "D5",
                  "ticks": 1507200,
                  "time": 48.808317,
                  "velocity": 0.8661417322834646
              },
              {
                  "duration": 0.11658037500000518,
                  "durationTicks": 3600,
                  "midi": 33,
                  "name": "A1",
                  "ticks": 1512000,
                  "time": 48.9637575,
                  "velocity": 0.8031496062992126
              },
              {
                  "duration": 0.07772025000000582,
                  "durationTicks": 2400,
                  "midi": 72,
                  "name": "C5",
                  "ticks": 1512000,
                  "time": 48.9637575,
                  "velocity": 0.6141732283464567
              },
              {
                  "duration": 0.03886012499999936,
                  "durationTicks": 1200,
                  "midi": 33,
                  "name": "A1",
                  "ticks": 1516800,
                  "time": 49.119198000000004,
                  "velocity": 0.8740157480314961
              },
              {
                  "duration": 0.07772024999999871,
                  "durationTicks": 2400,
                  "midi": 69,
                  "name": "A4",
                  "ticks": 1521600,
                  "time": 49.2746385,
                  "velocity": 0.8031496062992126
              },
              {
                  "duration": 0.11658037499999807,
                  "durationTicks": 3600,
                  "midi": 34,
                  "name": "A#1",
                  "ticks": 1526400,
                  "time": 49.430079000000006,
                  "velocity": 0.8661417322834646
              },
              {
                  "duration": 0.07772024999999871,
                  "durationTicks": 2400,
                  "midi": 34,
                  "name": "A#1",
                  "ticks": 1531200,
                  "time": 49.585519500000004,
                  "velocity": 0.8031496062992126
              },
              {
                  "duration": 0.11658037499999807,
                  "durationTicks": 3600,
                  "midi": 67,
                  "name": "G4",
                  "ticks": 1531200,
                  "time": 49.585519500000004,
                  "velocity": 0.7401574803149606
              },
              {
                  "duration": 0.11658037499999807,
                  "durationTicks": 3600,
                  "midi": 62,
                  "name": "D4",
                  "ticks": 1540800,
                  "time": 49.896400500000006,
                  "velocity": 0.8031496062992126
              },
              {
                  "duration": 0.11658037499999807,
                  "durationTicks": 3600,
                  "midi": 60,
                  "name": "C4",
                  "ticks": 1545600,
                  "time": 50.051841,
                  "velocity": 0.7952755905511811
              },
              {
                  "duration": 0.07772025000000582,
                  "durationTicks": 2400,
                  "midi": 57,
                  "name": "A3",
                  "ticks": 1550400,
                  "time": 50.2072815,
                  "velocity": 0.7244094488188977
              },
              {
                  "duration": 0.07772024999999871,
                  "durationTicks": 2400,
                  "midi": 55,
                  "name": "G3",
                  "ticks": 1555200,
                  "time": 50.362722000000005,
                  "velocity": 0.8503937007874016
              },
              {
                  "duration": 0.07772024999999871,
                  "durationTicks": 2400,
                  "midi": 53,
                  "name": "F3",
                  "ticks": 1560000,
                  "time": 50.5181625,
                  "velocity": 0.7401574803149606
              },
              {
                  "duration": 0.07772025000000582,
                  "durationTicks": 2400,
                  "midi": 50,
                  "name": "D3",
                  "ticks": 1564800,
                  "time": 50.673603,
                  "velocity": 0.8818897637795275
              },
              {
                  "duration": 0.11658037500000518,
                  "durationTicks": 3600,
                  "midi": 53,
                  "name": "F3",
                  "ticks": 1564800,
                  "time": 50.673603,
                  "velocity": 0.8188976377952756
              },
              {
                  "duration": 0.11658037499999807,
                  "durationTicks": 3600,
                  "midi": 48,
                  "name": "C3",
                  "ticks": 1569600,
                  "time": 50.829043500000004,
                  "velocity": 0.8267716535433071
              },
              {
                  "duration": 0.11658037499999807,
                  "durationTicks": 3600,
                  "midi": 53,
                  "name": "F3",
                  "ticks": 1569600,
                  "time": 50.829043500000004,
                  "velocity": 0.7559055118110236
              },
              {
                  "duration": 0.11658037499999807,
                  "durationTicks": 3600,
                  "midi": 29,
                  "name": "F1",
                  "ticks": 1574400,
                  "time": 50.984484,
                  "velocity": 0.8503937007874016
              },
              {
                  "duration": 0.07772024999999871,
                  "durationTicks": 2400,
                  "midi": 69,
                  "name": "A4",
                  "ticks": 1574400,
                  "time": 50.984484,
                  "velocity": 0.7559055118110236
              },
              {
                  "duration": 0.11658037499999807,
                  "durationTicks": 3600,
                  "midi": 29,
                  "name": "F1",
                  "ticks": 1579200,
                  "time": 51.139924500000006,
                  "velocity": 0.7716535433070866
              },
              {
                  "duration": 0.03886012499999936,
                  "durationTicks": 1200,
                  "midi": 41,
                  "name": "F2",
                  "ticks": 1579200,
                  "time": 51.139924500000006,
                  "velocity": 0.5433070866141733
              },
              {
                  "duration": 0.11658037499999807,
                  "durationTicks": 3600,
                  "midi": 53,
                  "name": "F3",
                  "ticks": 1579200,
                  "time": 51.139924500000006,
                  "velocity": 0.6929133858267716
              },
              {
                  "duration": 0.03886012499999936,
                  "durationTicks": 1200,
                  "midi": 29,
                  "name": "F1",
                  "ticks": 1584000,
                  "time": 51.295365000000004,
                  "velocity": 0.8503937007874016
              },
              {
                  "duration": 0.03886012499999936,
                  "durationTicks": 1200,
                  "midi": 53,
                  "name": "F3",
                  "ticks": 1584000,
                  "time": 51.295365000000004,
                  "velocity": 0.7559055118110236
              },
              {
                  "duration": 0.07772024999999871,
                  "durationTicks": 2400,
                  "midi": 67,
                  "name": "G4",
                  "ticks": 1584000,
                  "time": 51.295365000000004,
                  "velocity": 0.8110236220472441
              },
              {
                  "duration": 0.07772024999999871,
                  "durationTicks": 2400,
                  "midi": 69,
                  "name": "A4",
                  "ticks": 1588800,
                  "time": 51.4508055,
                  "velocity": 0.7086614173228346
              },
              {
                  "duration": 0.07772024999999871,
                  "durationTicks": 2400,
                  "midi": 29,
                  "name": "F1",
                  "ticks": 1598400,
                  "time": 51.7616865,
                  "velocity": 0.8031496062992126
              },
              {
                  "duration": 0.07772024999999871,
                  "durationTicks": 2400,
                  "midi": 65,
                  "name": "F4",
                  "ticks": 1598400,
                  "time": 51.7616865,
                  "velocity": 0.7401574803149606
              },
              {
                  "duration": 0.011042752187499616,
                  "durationTicks": 341,
                  "midi": 29,
                  "name": "F1",
                  "ticks": 1603200,
                  "time": 51.917127,
                  "velocity": 0.889763779527559
              },
              {
                  "duration": 0.11658037499999807,
                  "durationTicks": 3600,
                  "midi": 34,
                  "name": "A#1",
                  "ticks": 1608000,
                  "time": 52.072567500000005,
                  "velocity": 0.8031496062992126
              },
              {
                  "duration": 0.11658037499999807,
                  "durationTicks": 3600,
                  "midi": 62,
                  "name": "D4",
                  "ticks": 1608000,
                  "time": 52.072567500000005,
                  "velocity": 0.6692913385826772
              },
              {
                  "duration": 0.07772025000000582,
                  "durationTicks": 2400,
                  "midi": 65,
                  "name": "F4",
                  "ticks": 1617600,
                  "time": 52.3834485,
                  "velocity": 0.7637795275590551
              },
              {
                  "duration": 0.07772024999999871,
                  "durationTicks": 2400,
                  "midi": 62,
                  "name": "D4",
                  "ticks": 1622400,
                  "time": 52.538889000000005,
                  "velocity": 0.8346456692913385
              },
              {
                  "duration": 0.11658037499999807,
                  "durationTicks": 3600,
                  "midi": 60,
                  "name": "C4",
                  "ticks": 1627200,
                  "time": 52.6943295,
                  "velocity": 0.7559055118110236
              },
              {
                  "duration": 0.07772024999999871,
                  "durationTicks": 2400,
                  "midi": 62,
                  "name": "D4",
                  "ticks": 1632000,
                  "time": 52.84977000000001,
                  "velocity": 0.8031496062992126
              },
              {
                  "duration": 0.07772024999999871,
                  "durationTicks": 2400,
                  "midi": 60,
                  "name": "C4",
                  "ticks": 1636800,
                  "time": 53.005210500000004,
                  "velocity": 0.7165354330708661
              },
              {
                  "duration": 0.07772024999999871,
                  "durationTicks": 2400,
                  "midi": 57,
                  "name": "A3",
                  "ticks": 1641600,
                  "time": 53.160651,
                  "velocity": 0.8661417322834646
              },
              {
                  "duration": 0.07772024999999871,
                  "durationTicks": 2400,
                  "midi": 55,
                  "name": "G3",
                  "ticks": 1646400,
                  "time": 53.316091500000006,
                  "velocity": 0.7401574803149606
              },
              {
                  "duration": 0.11658037499999807,
                  "durationTicks": 3600,
                  "midi": 31,
                  "name": "G1",
                  "ticks": 1651200,
                  "time": 53.471532,
                  "velocity": 0.8346456692913385
              },
              {
                  "duration": 0.07772024999999871,
                  "durationTicks": 2400,
                  "midi": 57,
                  "name": "A3",
                  "ticks": 1651200,
                  "time": 53.471532,
                  "velocity": 0.7874015748031497
              },
              {
                  "duration": 0.11658037500000518,
                  "durationTicks": 3600,
                  "midi": 31,
                  "name": "G1",
                  "ticks": 1656000,
                  "time": 53.6269725,
                  "velocity": 0.7637795275590551
              },
              {
                  "duration": 0.11658037500000518,
                  "durationTicks": 3600,
                  "midi": 60,
                  "name": "C4",
                  "ticks": 1656000,
                  "time": 53.6269725,
                  "velocity": 0.7086614173228346
              },
              {
                  "duration": 0.03886012499999936,
                  "durationTicks": 1200,
                  "midi": 31,
                  "name": "G1",
                  "ticks": 1660800,
                  "time": 53.782413000000005,
                  "velocity": 0.8346456692913385
              },
              {
                  "duration": 0.07772024999999871,
                  "durationTicks": 2400,
                  "midi": 62,
                  "name": "D4",
                  "ticks": 1660800,
                  "time": 53.782413000000005,
                  "velocity": 0.8503937007874016
              },
              {
                  "duration": 0.07772024999999871,
                  "durationTicks": 2400,
                  "midi": 60,
                  "name": "C4",
                  "ticks": 1665600,
                  "time": 53.9378535,
                  "velocity": 0.7716535433070866
              },
              {
                  "duration": 0.07772024999999871,
                  "durationTicks": 2400,
                  "midi": 31,
                  "name": "G1",
                  "ticks": 1675200,
                  "time": 54.248734500000005,
                  "velocity": 0.8031496062992126
              },
              {
                  "duration": 0.07772024999999871,
                  "durationTicks": 2400,
                  "midi": 57,
                  "name": "A3",
                  "ticks": 1675200,
                  "time": 54.248734500000005,
                  "velocity": 0.7086614173228346
              },
              {
                  "duration": 0.11658037499999807,
                  "durationTicks": 3600,
                  "midi": 24,
                  "name": "C1",
                  "ticks": 1684800,
                  "time": 54.55961550000001,
                  "velocity": 0.8267716535433071
              },
              {
                  "duration": 0.11658037499999807,
                  "durationTicks": 3600,
                  "midi": 48,
                  "name": "C3",
                  "ticks": 1684800,
                  "time": 54.55961550000001,
                  "velocity": 0.6141732283464567
              },
              {
                  "duration": 0.11658037499999807,
                  "durationTicks": 3600,
                  "midi": 55,
                  "name": "G3",
                  "ticks": 1684800,
                  "time": 54.55961550000001,
                  "velocity": 0.6929133858267716
              },
              {
                  "duration": 0.11658037499999807,
                  "durationTicks": 3600,
                  "midi": 24,
                  "name": "C1",
                  "ticks": 1689600,
                  "time": 54.715056000000004,
                  "velocity": 0.7952755905511811
              },
              {
                  "duration": 0.11658037499999807,
                  "durationTicks": 3600,
                  "midi": 48,
                  "name": "C3",
                  "ticks": 1689600,
                  "time": 54.715056000000004,
                  "velocity": 0.6614173228346457
              },
              {
                  "duration": 0.11658037500000518,
                  "durationTicks": 3600,
                  "midi": 24,
                  "name": "C1",
                  "ticks": 1694400,
                  "time": 54.8704965,
                  "velocity": 0.7244094488188977
              },
              {
                  "duration": 0.03886012499999936,
                  "durationTicks": 1200,
                  "midi": 48,
                  "name": "C3",
                  "ticks": 1694400,
                  "time": 54.8704965,
                  "velocity": 0.5826771653543307
              },
              {
                  "duration": 0.11658037500000518,
                  "durationTicks": 3600,
                  "midi": 57,
                  "name": "A3",
                  "ticks": 1694400,
                  "time": 54.8704965,
                  "velocity": 0.7795275590551181
              },
              {
                  "duration": 0.03886012499999936,
                  "durationTicks": 1200,
                  "midi": 24,
                  "name": "C1",
                  "ticks": 1699200,
                  "time": 55.025937000000006,
                  "velocity": 0.7952755905511811
              },
              {
                  "duration": 0.11658037499999807,
                  "durationTicks": 3600,
                  "midi": 55,
                  "name": "G3",
                  "ticks": 1699200,
                  "time": 55.025937000000006,
                  "velocity": 0.8503937007874016
              },
              {
                  "duration": 0.07772024999999871,
                  "durationTicks": 2400,
                  "midi": 53,
                  "name": "F3",
                  "ticks": 1704000,
                  "time": 55.1813775,
                  "velocity": 0.7637795275590551
              },
              {
                  "duration": 0.07772025000000582,
                  "durationTicks": 2400,
                  "midi": 55,
                  "name": "G3",
                  "ticks": 1708800,
                  "time": 55.336818,
                  "velocity": 0.8188976377952756
              },
              {
                  "duration": 0.07772024999999871,
                  "durationTicks": 2400,
                  "midi": 53,
                  "name": "F3",
                  "ticks": 1713600,
                  "time": 55.492258500000005,
                  "velocity": 0.7559055118110236
              },
              {
                  "duration": 0.11658037499999807,
                  "durationTicks": 3600,
                  "midi": 50,
                  "name": "D3",
                  "ticks": 1718400,
                  "time": 55.647699,
                  "velocity": 0.8740157480314961
              },
              {
                  "duration": 0.11658037500000518,
                  "durationTicks": 3600,
                  "midi": 48,
                  "name": "C3",
                  "ticks": 1723200,
                  "time": 55.8031395,
                  "velocity": 0.8110236220472441
              },
              {
                  "duration": 0.11658037499999807,
                  "durationTicks": 3600,
                  "midi": 26,
                  "name": "D1",
                  "ticks": 1728000,
                  "time": 55.958580000000005,
                  "velocity": 0.8346456692913385
              },
              {
                  "duration": 0.07772024999999871,
                  "durationTicks": 2400,
                  "midi": 69,
                  "name": "A4",
                  "ticks": 1728000,
                  "time": 55.958580000000005,
                  "velocity": 0.6929133858267716
              },
              {
                  "duration": 0.11658037499999807,
                  "durationTicks": 3600,
                  "midi": 26,
                  "name": "D1",
                  "ticks": 1732800,
                  "time": 56.1140205,
                  "velocity": 0.7637795275590551
              },
              {
                  "duration": 0.07772024999999871,
                  "durationTicks": 2400,
                  "midi": 72,
                  "name": "C5",
                  "ticks": 1732800,
                  "time": 56.1140205,
                  "velocity": 0.7401574803149606
              },
              {
                  "duration": 0.07772024999999871,
                  "durationTicks": 2400,
                  "midi": 26,
                  "name": "D1",
                  "ticks": 1737600,
                  "time": 56.26946100000001,
                  "velocity": 0.8346456692913385
              },
              {
                  "duration": 0.07772024999999871,
                  "durationTicks": 2400,
                  "midi": 74,
                  "name": "D5",
                  "ticks": 1737600,
                  "time": 56.26946100000001,
                  "velocity": 0.7716535433070866
              },
              {
                  "duration": 0.07772024999999871,
                  "durationTicks": 2400,
                  "midi": 72,
                  "name": "C5",
                  "ticks": 1742400,
                  "time": 56.424901500000004,
                  "velocity": 0.7795275590551181
              },
              {
                  "duration": 0.07772024999999871,
                  "durationTicks": 2400,
                  "midi": 26,
                  "name": "D1",
                  "ticks": 1752000,
                  "time": 56.735782500000006,
                  "velocity": 0.8031496062992126
              },
              {
                  "duration": 0.07772024999999871,
                  "durationTicks": 2400,
                  "midi": 69,
                  "name": "A4",
                  "ticks": 1752000,
                  "time": 56.735782500000006,
                  "velocity": 0.7401574803149606
              },
              {
                  "duration": 0.012791457812497242,
                  "durationTicks": 395,
                  "midi": 26,
                  "name": "D1",
                  "ticks": 1756800,
                  "time": 56.891223000000004,
                  "velocity": 0.8818897637795275
              },
              {
                  "duration": 0.11658037500000518,
                  "durationTicks": 3600,
                  "midi": 34,
                  "name": "A#1",
                  "ticks": 1761600,
                  "time": 57.0466635,
                  "velocity": 0.7795275590551181
              },
              {
                  "duration": 0.11658037500000518,
                  "durationTicks": 3600,
                  "midi": 67,
                  "name": "G4",
                  "ticks": 1761600,
                  "time": 57.0466635,
                  "velocity": 0.7559055118110236
              },
              {
                  "duration": 0.11658037499999807,
                  "durationTicks": 3600,
                  "midi": 53,
                  "name": "F3",
                  "ticks": 1766400,
                  "time": 57.202104000000006,
                  "velocity": 0.6456692913385826
              },
              {
                  "duration": 0.11658037499999807,
                  "durationTicks": 3600,
                  "midi": 62,
                  "name": "D4",
                  "ticks": 1766400,
                  "time": 57.202104000000006,
                  "velocity": 0.6377952755905512
              },
              {
                  "duration": 0.11658037499999807,
                  "durationTicks": 3600,
                  "midi": 53,
                  "name": "F3",
                  "ticks": 1771200,
                  "time": 57.3575445,
                  "velocity": 0.5748031496062992
              },
              {
                  "duration": 0.07772024999999871,
                  "durationTicks": 2400,
                  "midi": 69,
                  "name": "A4",
                  "ticks": 1771200,
                  "time": 57.3575445,
                  "velocity": 0.7086614173228346
              },
              {
                  "duration": 0.03886012500000646,
                  "durationTicks": 1200,
                  "midi": 53,
                  "name": "F3",
                  "ticks": 1776000,
                  "time": 57.512985,
                  "velocity": 0.6456692913385826
              },
              {
                  "duration": 0.07772025000000582,
                  "durationTicks": 2400,
                  "midi": 67,
                  "name": "G4",
                  "ticks": 1776000,
                  "time": 57.512985,
                  "velocity": 0.8267716535433071
              },
              {
                  "duration": 0.07772024999999871,
                  "durationTicks": 2400,
                  "midi": 65,
                  "name": "F4",
                  "ticks": 1780800,
                  "time": 57.668425500000005,
                  "velocity": 0.7559055118110236
              },
              {
                  "duration": 0.07772024999999871,
                  "durationTicks": 2400,
                  "midi": 67,
                  "name": "G4",
                  "ticks": 1785600,
                  "time": 57.823866,
                  "velocity": 0.8188976377952756
              },
              {
                  "duration": 0.07772024999999871,
                  "durationTicks": 2400,
                  "midi": 65,
                  "name": "F4",
                  "ticks": 1790400,
                  "time": 57.97930650000001,
                  "velocity": 0.7244094488188977
              },
              {
                  "duration": 0.07772024999999871,
                  "durationTicks": 2400,
                  "midi": 62,
                  "name": "D4",
                  "ticks": 1795200,
                  "time": 58.134747000000004,
                  "velocity": 0.8661417322834646
              },
              {
                  "duration": 0.07772024999999871,
                  "durationTicks": 2400,
                  "midi": 60,
                  "name": "C4",
                  "ticks": 1800000,
                  "time": 58.2901875,
                  "velocity": 0.8031496062992126
              },
              {
                  "duration": 0.11658037499999807,
                  "durationTicks": 3600,
                  "midi": 31,
                  "name": "G1",
                  "ticks": 1804800,
                  "time": 58.445628000000006,
                  "velocity": 0.8582677165354331
              },
              {
                  "duration": 0.11658037499999807,
                  "durationTicks": 3600,
                  "midi": 62,
                  "name": "D4",
                  "ticks": 1804800,
                  "time": 58.445628000000006,
                  "velocity": 0.7874015748031497
              },
              {
                  "duration": 0.11658037499999807,
                  "durationTicks": 3600,
                  "midi": 31,
                  "name": "G1",
                  "ticks": 1809600,
                  "time": 58.601068500000004,
                  "velocity": 0.7874015748031497
              },
              {
                  "duration": 0.11658037499999807,
                  "durationTicks": 3600,
                  "midi": 65,
                  "name": "F4",
                  "ticks": 1809600,
                  "time": 58.601068500000004,
                  "velocity": 0.7086614173228346
              },
              {
                  "duration": 0.03886012499999936,
                  "durationTicks": 1200,
                  "midi": 31,
                  "name": "G1",
                  "ticks": 1814400,
                  "time": 58.756509,
                  "velocity": 0.8582677165354331
              },
              {
                  "duration": 0.07772025000000582,
                  "durationTicks": 2400,
                  "midi": 67,
                  "name": "G4",
                  "ticks": 1814400,
                  "time": 58.756509,
                  "velocity": 0.8661417322834646
              },
              {
                  "duration": 0.11658037499999807,
                  "durationTicks": 3600,
                  "midi": 33,
                  "name": "A1",
                  "ticks": 1819200,
                  "time": 58.911949500000006,
                  "velocity": 0.8031496062992126
              },
              {
                  "duration": 0.11658037499999807,
                  "durationTicks": 3600,
                  "midi": 65,
                  "name": "F4",
                  "ticks": 1819200,
                  "time": 58.911949500000006,
                  "velocity": 0.7086614173228346
              },
              {
                  "duration": 0.07772024999999871,
                  "durationTicks": 2400,
                  "midi": 33,
                  "name": "A1",
                  "ticks": 1824000,
                  "time": 59.06739,
                  "velocity": 0.8740157480314961
              },
              {
                  "duration": 0.03886012500000646,
                  "durationTicks": 1200,
                  "midi": 33,
                  "name": "A1",
                  "ticks": 1828800,
                  "time": 59.2228305,
                  "velocity": 0.8031496062992126
              },
              {
                  "duration": 0.07772025000000582,
                  "durationTicks": 2400,
                  "midi": 67,
                  "name": "G4",
                  "ticks": 1828800,
                  "time": 59.2228305,
                  "velocity": 0.8031496062992126
              },
              {
                  "duration": 0.11658037499999807,
                  "durationTicks": 3600,
                  "midi": 34,
                  "name": "A#1",
                  "ticks": 1833600,
                  "time": 59.378271000000005,
                  "velocity": 0.8740157480314961
              },
              {
                  "duration": 0.11658037499999807,
                  "durationTicks": 3600,
                  "midi": 69,
                  "name": "A4",
                  "ticks": 1833600,
                  "time": 59.378271000000005,
                  "velocity": 0.7716535433070866
              },
              {
                  "duration": 0.11658037499999807,
                  "durationTicks": 3600,
                  "midi": 72,
                  "name": "C5",
                  "ticks": 1833600,
                  "time": 59.378271000000005,
                  "velocity": 0.8110236220472441
              },
              {
                  "duration": 0.11658037499999807,
                  "durationTicks": 3600,
                  "midi": 34,
                  "name": "A#1",
                  "ticks": 1838400,
                  "time": 59.5337115,
                  "velocity": 0.8110236220472441
              },
              {
                  "duration": 0.11658037499999807,
                  "durationTicks": 3600,
                  "midi": 72,
                  "name": "C5",
                  "ticks": 1838400,
                  "time": 59.5337115,
                  "velocity": 0.7559055118110236
              },
              {
                  "duration": 0.07772024999999871,
                  "durationTicks": 2400,
                  "midi": 74,
                  "name": "D5",
                  "ticks": 1848000,
                  "time": 59.844592500000005,
                  "velocity": 0.7559055118110236
              },
              {
                  "duration": 0.11658037499999807,
                  "durationTicks": 3600,
                  "midi": 72,
                  "name": "C5",
                  "ticks": 1852800,
                  "time": 60.000033,
                  "velocity": 0.8031496062992126
              },
              {
                  "duration": 0.07772024999999871,
                  "durationTicks": 2400,
                  "midi": 69,
                  "name": "A4",
                  "ticks": 1857600,
                  "time": 60.15547350000001,
                  "velocity": 0.7007874015748031
              },
              {
                  "duration": 0.07772024999999871,
                  "durationTicks": 2400,
                  "midi": 67,
                  "name": "G4",
                  "ticks": 1862400,
                  "time": 60.310914000000004,
                  "velocity": 0.84251968503937
              },
              {
                  "duration": 0.07772024999999871,
                  "durationTicks": 2400,
                  "midi": 65,
                  "name": "F4",
                  "ticks": 1867200,
                  "time": 60.4663545,
                  "velocity": 0.7637795275590551
              },
              {
                  "duration": 0.07772024999999871,
                  "durationTicks": 2400,
                  "midi": 62,
                  "name": "D4",
                  "ticks": 1872000,
                  "time": 60.621795000000006,
                  "velocity": 0.8818897637795275
              },
              {
                  "duration": 0.11658037499999807,
                  "durationTicks": 3600,
                  "midi": 60,
                  "name": "C4",
                  "ticks": 1876800,
                  "time": 60.7772355,
                  "velocity": 0.7716535433070866
              },
              {
                  "duration": 0.11658037500000518,
                  "durationTicks": 3600,
                  "midi": 29,
                  "name": "F1",
                  "ticks": 1881600,
                  "time": 60.932676,
                  "velocity": 0.8740157480314961
              },
              {
                  "duration": 0.11658037500000518,
                  "durationTicks": 3600,
                  "midi": 65,
                  "name": "F4",
                  "ticks": 1881600,
                  "time": 60.932676,
                  "velocity": 0.7716535433070866
              },
              {
                  "duration": 0.11658037499999807,
                  "durationTicks": 3600,
                  "midi": 29,
                  "name": "F1",
                  "ticks": 1886400,
                  "time": 61.088116500000005,
                  "velocity": 0.8031496062992126
              },
              {
                  "duration": 0.11658037499999807,
                  "durationTicks": 3600,
                  "midi": 65,
                  "name": "F4",
                  "ticks": 1886400,
                  "time": 61.088116500000005,
                  "velocity": 0.7086614173228346
              },
              {
                  "duration": 0.03886012499999936,
                  "durationTicks": 1200,
                  "midi": 29,
                  "name": "F1",
                  "ticks": 1891200,
                  "time": 61.243557,
                  "velocity": 0.8740157480314961
              },
              {
                  "duration": 0.07772024999999871,
                  "durationTicks": 2400,
                  "midi": 65,
                  "name": "F4",
                  "ticks": 1891200,
                  "time": 61.243557,
                  "velocity": 0.7716535433070866
              },
              {
                  "duration": 0.07772024999999871,
                  "durationTicks": 2400,
                  "midi": 67,
                  "name": "G4",
                  "ticks": 1891200,
                  "time": 61.243557,
                  "velocity": 0.8503937007874016
              },
              {
                  "duration": 0.15544050000000453,
                  "durationTicks": 4800,
                  "midi": 29,
                  "name": "F1",
                  "ticks": 1896000,
                  "time": 61.3989975,
                  "velocity": 0.8031496062992126
              },
              {
                  "duration": 0.07772024999999871,
                  "durationTicks": 2400,
                  "midi": 29,
                  "name": "F1",
                  "ticks": 1900800,
                  "time": 61.554438000000005,
                  "velocity": 0.8740157480314961
              },
              {
                  "duration": 0.03886012499999936,
                  "durationTicks": 1200,
                  "midi": 29,
                  "name": "F1",
                  "ticks": 1905600,
                  "time": 61.7098785,
                  "velocity": 0.8031496062992126
              },
              {
                  "duration": 0.03886012499999936,
                  "durationTicks": 1200,
                  "midi": 65,
                  "name": "F4",
                  "ticks": 1905600,
                  "time": 61.7098785,
                  "velocity": 0.8031496062992126
              },
              {
                  "duration": 0.11658037499999807,
                  "durationTicks": 3600,
                  "midi": 29,
                  "name": "F1",
                  "ticks": 1910400,
                  "time": 61.86531900000001,
                  "velocity": 0.8818897637795275
              },
              {
                  "duration": 0.07772024999999871,
                  "durationTicks": 2400,
                  "midi": 65,
                  "name": "F4",
                  "ticks": 1910400,
                  "time": 61.86531900000001,
                  "velocity": 0.7480314960629921
              },
              {
                  "duration": 0.11658037499999807,
                  "durationTicks": 3600,
                  "midi": 29,
                  "name": "F1",
                  "ticks": 1915200,
                  "time": 62.020759500000004,
                  "velocity": 0.8188976377952756
              },
              {
                  "duration": 0.07772024999999871,
                  "durationTicks": 2400,
                  "midi": 74,
                  "name": "D5",
                  "ticks": 1915200,
                  "time": 62.020759500000004,
                  "velocity": 0.8031496062992126
              },
              {
                  "duration": 0.11658037500000518,
                  "durationTicks": 3600,
                  "midi": 34,
                  "name": "A#1",
                  "ticks": 1920000,
                  "time": 62.1762,
                  "velocity": 0.8661417322834646
              },
              {
                  "duration": 0.11658037499999807,
                  "durationTicks": 3600,
                  "midi": 34,
                  "name": "A#1",
                  "ticks": 1924800,
                  "time": 62.331640500000006,
                  "velocity": 0.7952755905511811
              },
              {
                  "duration": 0.11658037499999807,
                  "durationTicks": 3600,
                  "midi": 65,
                  "name": "F4",
                  "ticks": 1924800,
                  "time": 62.331640500000006,
                  "velocity": 0.7874015748031497
              },
              {
                  "duration": 0.03886012499999936,
                  "durationTicks": 1200,
                  "midi": 34,
                  "name": "A#1",
                  "ticks": 1929600,
                  "time": 62.487081,
                  "velocity": 0.8661417322834646
              },
              {
                  "duration": 0.07772024999999871,
                  "durationTicks": 2400,
                  "midi": 74,
                  "name": "D5",
                  "ticks": 1929600,
                  "time": 62.487081,
                  "velocity": 0.8346456692913385
              },
              {
                  "duration": 0.11658037500000518,
                  "durationTicks": 3600,
                  "midi": 34,
                  "name": "A#1",
                  "ticks": 1934400,
                  "time": 62.6425215,
                  "velocity": 0.7874015748031497
              },
              {
                  "duration": 0.07772025000000582,
                  "durationTicks": 2400,
                  "midi": 72,
                  "name": "C5",
                  "ticks": 1934400,
                  "time": 62.6425215,
                  "velocity": 0.6929133858267716
              },
              {
                  "duration": 0.07772024999999871,
                  "durationTicks": 2400,
                  "midi": 34,
                  "name": "A#1",
                  "ticks": 1939200,
                  "time": 62.797962000000005,
                  "velocity": 0.8582677165354331
              },
              {
                  "duration": 0.07772024999999871,
                  "durationTicks": 2400,
                  "midi": 74,
                  "name": "D5",
                  "ticks": 1939200,
                  "time": 62.797962000000005,
                  "velocity": 0.8110236220472441
              },
              {
                  "duration": 0.07772024999999871,
                  "durationTicks": 2400,
                  "midi": 72,
                  "name": "C5",
                  "ticks": 1944000,
                  "time": 62.9534025,
                  "velocity": 0.7559055118110236
              },
              {
                  "duration": 0.11658037500000518,
                  "durationTicks": 3600,
                  "midi": 34,
                  "name": "A#1",
                  "ticks": 1948800,
                  "time": 63.108843,
                  "velocity": 0.8818897637795275
              },
              {
                  "duration": 0.07772025000000582,
                  "durationTicks": 2400,
                  "midi": 69,
                  "name": "A4",
                  "ticks": 1948800,
                  "time": 63.108843,
                  "velocity": 0.8110236220472441
              },
              {
                  "duration": 0.11658037499999807,
                  "durationTicks": 3600,
                  "midi": 34,
                  "name": "A#1",
                  "ticks": 1953600,
                  "time": 63.264283500000005,
                  "velocity": 0.8188976377952756
              },
              {
                  "duration": 0.11658037499999807,
                  "durationTicks": 3600,
                  "midi": 67,
                  "name": "G4",
                  "ticks": 1953600,
                  "time": 63.264283500000005,
                  "velocity": 0.7952755905511811
              },
              {
                  "duration": 0.11658037499999807,
                  "durationTicks": 3600,
                  "midi": 31,
                  "name": "G1",
                  "ticks": 1958400,
                  "time": 63.419724,
                  "velocity": 0.8346456692913385
              },
              {
                  "duration": 0.11658037499999807,
                  "durationTicks": 3600,
                  "midi": 69,
                  "name": "A4",
                  "ticks": 1958400,
                  "time": 63.419724,
                  "velocity": 0.8346456692913385
              },
              {
                  "duration": 0.11658037499999807,
                  "durationTicks": 3600,
                  "midi": 31,
                  "name": "G1",
                  "ticks": 1963200,
                  "time": 63.57516450000001,
                  "velocity": 0.7716535433070866
              },
              {
                  "duration": 0.11658037499999807,
                  "durationTicks": 3600,
                  "midi": 43,
                  "name": "G2",
                  "ticks": 1963200,
                  "time": 63.57516450000001,
                  "velocity": 0.5669291338582677
              },
              {
                  "duration": 0.07772024999999871,
                  "durationTicks": 2400,
                  "midi": 72,
                  "name": "C5",
                  "ticks": 1963200,
                  "time": 63.57516450000001,
                  "velocity": 0.7244094488188977
              },
              {
                  "duration": 0.03886012499999936,
                  "durationTicks": 1200,
                  "midi": 31,
                  "name": "G1",
                  "ticks": 1968000,
                  "time": 63.730605000000004,
                  "velocity": 0.8346456692913385
              },
              {
                  "duration": 0.07772024999999871,
                  "durationTicks": 2400,
                  "midi": 43,
                  "name": "G2",
                  "ticks": 1968000,
                  "time": 63.730605000000004,
                  "velocity": 0.6456692913385826
              },
              {
                  "duration": 0.07772024999999871,
                  "durationTicks": 2400,
                  "midi": 74,
                  "name": "D5",
                  "ticks": 1968000,
                  "time": 63.730605000000004,
                  "velocity": 0.8661417322834646
              },
              {
                  "duration": 0.11658037500000518,
                  "durationTicks": 3600,
                  "midi": 31,
                  "name": "G1",
                  "ticks": 1972800,
                  "time": 63.8860455,
                  "velocity": 0.7952755905511811
              },
              {
                  "duration": 0.07772024999999871,
                  "durationTicks": 2400,
                  "midi": 72,
                  "name": "C5",
                  "ticks": 1972800,
                  "time": 63.8860455,
                  "velocity": 0.7244094488188977
              },
              {
                  "duration": 0.07772024999999871,
                  "durationTicks": 2400,
                  "midi": 31,
                  "name": "G1",
                  "ticks": 1977600,
                  "time": 64.041486,
                  "velocity": 0.8661417322834646
              },
              {
                  "duration": 0.03886012499999936,
                  "durationTicks": 1200,
                  "midi": 31,
                  "name": "G1",
                  "ticks": 1982400,
                  "time": 64.1969265,
                  "velocity": 0.7952755905511811
              },
              {
                  "duration": 0.07772024999999871,
                  "durationTicks": 2400,
                  "midi": 69,
                  "name": "A4",
                  "ticks": 1982400,
                  "time": 64.1969265,
                  "velocity": 0.6929133858267716
              },
              {
                  "duration": 0.11658037499999807,
                  "durationTicks": 3600,
                  "midi": 31,
                  "name": "G1",
                  "ticks": 1987200,
                  "time": 64.352367,
                  "velocity": 0.8818897637795275
              },
              {
                  "duration": 0.11658037500001228,
                  "durationTicks": 3600,
                  "midi": 31,
                  "name": "G1",
                  "ticks": 1992000,
                  "time": 64.5078075,
                  "velocity": 0.8188976377952756
              },
              {
                  "duration": 0.07772024999999871,
                  "durationTicks": 2400,
                  "midi": 43,
                  "name": "G2",
                  "ticks": 1992000,
                  "time": 64.5078075,
                  "velocity": 0.6850393700787402
              },
              {
                  "duration": 0.07772024999999871,
                  "durationTicks": 2400,
                  "midi": 67,
                  "name": "G4",
                  "ticks": 1992000,
                  "time": 64.5078075,
                  "velocity": 0.7244094488188977
              },
              {
                  "duration": 0.11658037499999807,
                  "durationTicks": 3600,
                  "midi": 36,
                  "name": "C2",
                  "ticks": 1996800,
                  "time": 64.66324800000001,
                  "velocity": 0.8346456692913385
              },
              {
                  "duration": 0.11658037499999807,
                  "durationTicks": 3600,
                  "midi": 36,
                  "name": "C2",
                  "ticks": 2001600,
                  "time": 64.81868850000001,
                  "velocity": 0.7637795275590551
              },
              {
                  "duration": 0.07772024999999871,
                  "durationTicks": 2400,
                  "midi": 69,
                  "name": "A4",
                  "ticks": 2001600,
                  "time": 64.81868850000001,
                  "velocity": 0.7401574803149606
              },
              {
                  "duration": 0.03886012499999936,
                  "durationTicks": 1200,
                  "midi": 36,
                  "name": "C2",
                  "ticks": 2006400,
                  "time": 64.974129,
                  "velocity": 0.8346456692913385
              },
              {
                  "duration": 0.07772024999999871,
                  "durationTicks": 2400,
                  "midi": 67,
                  "name": "G4",
                  "ticks": 2006400,
                  "time": 64.974129,
                  "velocity": 0.8346456692913385
              },
              {
                  "duration": 0.15544049999999743,
                  "durationTicks": 4800,
                  "midi": 36,
                  "name": "C2",
                  "ticks": 2011200,
                  "time": 65.1295695,
                  "velocity": 0.7716535433070866
              },
              {
                  "duration": 0.07772024999999871,
                  "durationTicks": 2400,
                  "midi": 65,
                  "name": "F4",
                  "ticks": 2011200,
                  "time": 65.1295695,
                  "velocity": 0.7244094488188977
              },
              {
                  "duration": 0.07772024999999871,
                  "durationTicks": 2400,
                  "midi": 36,
                  "name": "C2",
                  "ticks": 2016000,
                  "time": 65.28501,
                  "velocity": 0.84251968503937
              },
              {
                  "duration": 0.07772024999999871,
                  "durationTicks": 2400,
                  "midi": 67,
                  "name": "G4",
                  "ticks": 2016000,
                  "time": 65.28501,
                  "velocity": 0.7874015748031497
              },
              {
                  "duration": 0.03886012500001357,
                  "durationTicks": 1200,
                  "midi": 36,
                  "name": "C2",
                  "ticks": 2020800,
                  "time": 65.4404505,
                  "velocity": 0.7716535433070866
              },
              {
                  "duration": 0.07772025000001292,
                  "durationTicks": 2400,
                  "midi": 65,
                  "name": "F4",
                  "ticks": 2020800,
                  "time": 65.4404505,
                  "velocity": 0.7716535433070866
              },
              {
                  "duration": 0.11658037499999807,
                  "durationTicks": 3600,
                  "midi": 38,
                  "name": "D2",
                  "ticks": 2025600,
                  "time": 65.59589100000001,
                  "velocity": 0.8503937007874016
              },
              {
                  "duration": 0.07772024999999871,
                  "durationTicks": 2400,
                  "midi": 50,
                  "name": "D3",
                  "ticks": 2025600,
                  "time": 65.59589100000001,
                  "velocity": 0.8031496062992126
              },
              {
                  "duration": 0.11658037499999807,
                  "durationTicks": 3600,
                  "midi": 40,
                  "name": "E2",
                  "ticks": 2030400,
                  "time": 65.7513315,
                  "velocity": 0.8031496062992126
              },
              {
                  "duration": 0.07772024999999871,
                  "durationTicks": 2400,
                  "midi": 60,
                  "name": "C4",
                  "ticks": 2030400,
                  "time": 65.7513315,
                  "velocity": 0.7322834645669292
              },
              {
                  "duration": 0.11658037499999807,
                  "durationTicks": 3600,
                  "midi": 29,
                  "name": "F1",
                  "ticks": 2035200,
                  "time": 65.906772,
                  "velocity": 0.8661417322834646
              },
              {
                  "duration": 0.11658037499999807,
                  "durationTicks": 3600,
                  "midi": 29,
                  "name": "F1",
                  "ticks": 2040000,
                  "time": 66.0622125,
                  "velocity": 0.8031496062992126
              },
              {
                  "duration": 0.03886012499999936,
                  "durationTicks": 1200,
                  "midi": 84,
                  "name": "C6",
                  "ticks": 2040000,
                  "time": 66.0622125,
                  "velocity": 0.7086614173228346
              },
              {
                  "duration": 0.03886012499999936,
                  "durationTicks": 1200,
                  "midi": 29,
                  "name": "F1",
                  "ticks": 2044800,
                  "time": 66.217653,
                  "velocity": 0.8661417322834646
              },
              {
                  "duration": 0.07772024999999871,
                  "durationTicks": 2400,
                  "midi": 74,
                  "name": "D5",
                  "ticks": 2044800,
                  "time": 66.217653,
                  "velocity": 0.6692913385826772
              },
              {
                  "duration": 0.07772024999999871,
                  "durationTicks": 2400,
                  "midi": 86,
                  "name": "D6",
                  "ticks": 2044800,
                  "time": 66.217653,
                  "velocity": 0.7874015748031497
              },
              {
                  "duration": 0.11658037499999807,
                  "durationTicks": 3600,
                  "midi": 29,
                  "name": "F1",
                  "ticks": 2049600,
                  "time": 66.37309350000001,
                  "velocity": 0.7874015748031497
              },
              {
                  "duration": 0.11658037499999807,
                  "durationTicks": 3600,
                  "midi": 65,
                  "name": "F4",
                  "ticks": 2049600,
                  "time": 66.37309350000001,
                  "velocity": 0.7086614173228346
              },
              {
                  "duration": 0.07772024999999871,
                  "durationTicks": 2400,
                  "midi": 29,
                  "name": "F1",
                  "ticks": 2054400,
                  "time": 66.52853400000001,
                  "velocity": 0.8661417322834646
              },
              {
                  "duration": 0.07772024999999871,
                  "durationTicks": 2400,
                  "midi": 65,
                  "name": "F4",
                  "ticks": 2054400,
                  "time": 66.52853400000001,
                  "velocity": 0.7874015748031497
              },
              {
                  "duration": 0.03886012499999936,
                  "durationTicks": 1200,
                  "midi": 29,
                  "name": "F1",
                  "ticks": 2059200,
                  "time": 66.6839745,
                  "velocity": 0.7874015748031497
              },
              {
                  "duration": 0.07772024999999871,
                  "durationTicks": 2400,
                  "midi": 81,
                  "name": "A5",
                  "ticks": 2059200,
                  "time": 66.6839745,
                  "velocity": 0.7874015748031497
              },
              {
                  "duration": 0.11658037499999807,
                  "durationTicks": 3600,
                  "midi": 29,
                  "name": "F1",
                  "ticks": 2064000,
                  "time": 66.839415,
                  "velocity": 0.8818897637795275
              },
              {
                  "duration": 0.11658037499999807,
                  "durationTicks": 3600,
                  "midi": 65,
                  "name": "F4",
                  "ticks": 2064000,
                  "time": 66.839415,
                  "velocity": 0.7559055118110236
              },
              {
                  "duration": 0.11658037499999807,
                  "durationTicks": 3600,
                  "midi": 29,
                  "name": "F1",
                  "ticks": 2068800,
                  "time": 66.9948555,
                  "velocity": 0.8267716535433071
              },
              {
                  "duration": 0.07772024999999871,
                  "durationTicks": 2400,
                  "midi": 79,
                  "name": "G5",
                  "ticks": 2068800,
                  "time": 66.9948555,
                  "velocity": 0.7165354330708661
              },
              {
                  "duration": 0.11658037500001228,
                  "durationTicks": 3600,
                  "midi": 34,
                  "name": "A#1",
                  "ticks": 2073600,
                  "time": 67.150296,
                  "velocity": 0.8582677165354331
              },
              {
                  "duration": 0.11658037500001228,
                  "durationTicks": 3600,
                  "midi": 65,
                  "name": "F4",
                  "ticks": 2073600,
                  "time": 67.150296,
                  "velocity": 0.7244094488188977
              },
              {
                  "duration": 0.11658037499999807,
                  "durationTicks": 3600,
                  "midi": 34,
                  "name": "A#1",
                  "ticks": 2078400,
                  "time": 67.30573650000001,
                  "velocity": 0.7874015748031497
              },
              {
                  "duration": 0.03886012499999936,
                  "durationTicks": 1200,
                  "midi": 81,
                  "name": "A5",
                  "ticks": 2078400,
                  "time": 67.30573650000001,
                  "velocity": 0.7244094488188977
              },
              {
                  "duration": 0.03886012499999936,
                  "durationTicks": 1200,
                  "midi": 34,
                  "name": "A#1",
                  "ticks": 2083200,
                  "time": 67.461177,
                  "velocity": 0.8582677165354331
              },
              {
                  "duration": 0.07772024999999871,
                  "durationTicks": 2400,
                  "midi": 79,
                  "name": "G5",
                  "ticks": 2083200,
                  "time": 67.461177,
                  "velocity": 0.8031496062992126
              },
              {
                  "duration": 0.15544049999999743,
                  "durationTicks": 4800,
                  "midi": 34,
                  "name": "A#1",
                  "ticks": 2088000,
                  "time": 67.6166175,
                  "velocity": 0.7874015748031497
              },
              {
                  "duration": 0.15544049999999743,
                  "durationTicks": 4800,
                  "midi": 65,
                  "name": "F4",
                  "ticks": 2088000,
                  "time": 67.6166175,
                  "velocity": 0.7165354330708661
              },
              {
                  "duration": 0.07772024999999871,
                  "durationTicks": 2400,
                  "midi": 34,
                  "name": "A#1",
                  "ticks": 2092800,
                  "time": 67.772058,
                  "velocity": 0.8503937007874016
              },
              {
                  "duration": 0.07772024999999871,
                  "durationTicks": 2400,
                  "midi": 65,
                  "name": "F4",
                  "ticks": 2092800,
                  "time": 67.772058,
                  "velocity": 0.7874015748031497
              },
              {
                  "duration": 0.07772024999999871,
                  "durationTicks": 2400,
                  "midi": 79,
                  "name": "G5",
                  "ticks": 2092800,
                  "time": 67.772058,
                  "velocity": 0.8031496062992126
              },
              {
                  "duration": 0.03886012499999936,
                  "durationTicks": 1200,
                  "midi": 34,
                  "name": "A#1",
                  "ticks": 2097600,
                  "time": 67.9274985,
                  "velocity": 0.7874015748031497
              },
              {
                  "duration": 0.07772024999999871,
                  "durationTicks": 2400,
                  "midi": 77,
                  "name": "F5",
                  "ticks": 2097600,
                  "time": 67.9274985,
                  "velocity": 0.7716535433070866
              },
              {
                  "duration": 0.11658037499999807,
                  "durationTicks": 3600,
                  "midi": 34,
                  "name": "A#1",
                  "ticks": 2102400,
                  "time": 68.08293900000001,
                  "velocity": 0.8818897637795275
              },
              {
                  "duration": 0.07772024999999871,
                  "durationTicks": 2400,
                  "midi": 74,
                  "name": "D5",
                  "ticks": 2102400,
                  "time": 68.08293900000001,
                  "velocity": 0.8031496062992126
              },
              {
                  "duration": 0.07772024999999871,
                  "durationTicks": 2400,
                  "midi": 34,
                  "name": "A#1",
                  "ticks": 2107200,
                  "time": 68.23837950000001,
                  "velocity": 0.8188976377952756
              },
              {
                  "duration": 0.07772024999999871,
                  "durationTicks": 2400,
                  "midi": 72,
                  "name": "C5",
                  "ticks": 2107200,
                  "time": 68.23837950000001,
                  "velocity": 0.7716535433070866
              },
              {
                  "duration": 0.11658037499999807,
                  "durationTicks": 3600,
                  "midi": 31,
                  "name": "G1",
                  "ticks": 2112000,
                  "time": 68.39382,
                  "velocity": 0.8582677165354331
              },
              {
                  "duration": 0.07772024999999871,
                  "durationTicks": 2400,
                  "midi": 74,
                  "name": "D5",
                  "ticks": 2112000,
                  "time": 68.39382,
                  "velocity": 0.7795275590551181
              },
              {
                  "duration": 0.11658037499999807,
                  "durationTicks": 3600,
                  "midi": 31,
                  "name": "G1",
                  "ticks": 2116800,
                  "time": 68.5492605,
                  "velocity": 0.7874015748031497
              },
              {
                  "duration": 0.07772024999999871,
                  "durationTicks": 2400,
                  "midi": 77,
                  "name": "F5",
                  "ticks": 2116800,
                  "time": 68.5492605,
                  "velocity": 0.7244094488188977
              },
              {
                  "duration": 0.03886012499999936,
                  "durationTicks": 1200,
                  "midi": 31,
                  "name": "G1",
                  "ticks": 2121600,
                  "time": 68.704701,
                  "velocity": 0.8582677165354331
              },
              {
                  "duration": 0.03886012499999936,
                  "durationTicks": 1200,
                  "midi": 79,
                  "name": "G5",
                  "ticks": 2121600,
                  "time": 68.704701,
                  "velocity": 0.7716535433070866
              },
              {
                  "duration": 0.11658037500001228,
                  "durationTicks": 3600,
                  "midi": 31,
                  "name": "G1",
                  "ticks": 2126400,
                  "time": 68.8601415,
                  "velocity": 0.8031496062992126
              },
              {
                  "duration": 0.07772024999999871,
                  "durationTicks": 2400,
                  "midi": 31,
                  "name": "G1",
                  "ticks": 2131200,
                  "time": 69.01558200000001,
                  "velocity": 0.8818897637795275
              },
              {
                  "duration": 0.03886012499999936,
                  "durationTicks": 1200,
                  "midi": 31,
                  "name": "G1",
                  "ticks": 2136000,
                  "time": 69.1710225,
                  "velocity": 0.8031496062992126
              },
              {
                  "duration": 0.07772024999999871,
                  "durationTicks": 2400,
                  "midi": 79,
                  "name": "G5",
                  "ticks": 2136000,
                  "time": 69.1710225,
                  "velocity": 0.7244094488188977
              },
              {
                  "duration": 0.11658037499999807,
                  "durationTicks": 3600,
                  "midi": 31,
                  "name": "G1",
                  "ticks": 2140800,
                  "time": 69.326463,
                  "velocity": 0.8818897637795275
              },
              {
                  "duration": 0.11658037499999807,
                  "durationTicks": 3600,
                  "midi": 31,
                  "name": "G1",
                  "ticks": 2145600,
                  "time": 69.4819035,
                  "velocity": 0.8267716535433071
              },
              {
                  "duration": 0.07772024999999871,
                  "durationTicks": 2400,
                  "midi": 84,
                  "name": "C6",
                  "ticks": 2145600,
                  "time": 69.4819035,
                  "velocity": 0.7795275590551181
              },
              {
                  "duration": 0.11658037500001228,
                  "durationTicks": 3600,
                  "midi": 36,
                  "name": "C2",
                  "ticks": 2150400,
                  "time": 69.637344,
                  "velocity": 0.8661417322834646
              },
              {
                  "duration": 0.11658037499999807,
                  "durationTicks": 3600,
                  "midi": 36,
                  "name": "C2",
                  "ticks": 2155200,
                  "time": 69.79278450000001,
                  "velocity": 0.7874015748031497
              },
              {
                  "duration": 0.07772024999999871,
                  "durationTicks": 2400,
                  "midi": 86,
                  "name": "D6",
                  "ticks": 2155200,
                  "time": 69.79278450000001,
                  "velocity": 0.7401574803149606
              },
              {
                  "duration": 0.03886012499999936,
                  "durationTicks": 1200,
                  "midi": 36,
                  "name": "C2",
                  "ticks": 2160000,
                  "time": 69.94822500000001,
                  "velocity": 0.8661417322834646
              },
              {
                  "duration": 0.03886012499999936,
                  "durationTicks": 1200,
                  "midi": 84,
                  "name": "C6",
                  "ticks": 2160000,
                  "time": 69.94822500000001,
                  "velocity": 0.8267716535433071
              },
              {
                  "duration": 0.11658037499999807,
                  "durationTicks": 3600,
                  "midi": 36,
                  "name": "C2",
                  "ticks": 2164800,
                  "time": 70.1036655,
                  "velocity": 0.7874015748031497
              },
              {
                  "duration": 0.07772024999999871,
                  "durationTicks": 2400,
                  "midi": 36,
                  "name": "C2",
                  "ticks": 2169600,
                  "time": 70.259106,
                  "velocity": 0.8582677165354331
              },
              {
                  "duration": 0.03886012499999936,
                  "durationTicks": 1200,
                  "midi": 79,
                  "name": "G5",
                  "ticks": 2169600,
                  "time": 70.259106,
                  "velocity": 0.7716535433070866
              },
              {
                  "duration": 0.07772024999999871,
                  "durationTicks": 2400,
                  "midi": 36,
                  "name": "C2",
                  "ticks": 2174400,
                  "time": 70.4145465,
                  "velocity": 0.7874015748031497
              },
              {
                  "duration": 0.07772024999999871,
                  "durationTicks": 2400,
                  "midi": 77,
                  "name": "F5",
                  "ticks": 2174400,
                  "time": 70.4145465,
                  "velocity": 0.7716535433070866
              },
              {
                  "duration": 0.11658037500001228,
                  "durationTicks": 3600,
                  "midi": 38,
                  "name": "D2",
                  "ticks": 2179200,
                  "time": 70.569987,
                  "velocity": 0.8582677165354331
              },
              {
                  "duration": 0.07772025000001292,
                  "durationTicks": 2400,
                  "midi": 69,
                  "name": "A4",
                  "ticks": 2179200,
                  "time": 70.569987,
                  "velocity": 0.7007874015748031
              },
              {
                  "duration": 0.07772025000001292,
                  "durationTicks": 2400,
                  "midi": 74,
                  "name": "D5",
                  "ticks": 2179200,
                  "time": 70.569987,
                  "velocity": 0.8346456692913385
              },
              {
                  "duration": 0.11658037499999807,
                  "durationTicks": 3600,
                  "midi": 40,
                  "name": "E2",
                  "ticks": 2184000,
                  "time": 70.72542750000001,
                  "velocity": 0.8267716535433071
              },
              {
                  "duration": 0.07772024999999871,
                  "durationTicks": 2400,
                  "midi": 72,
                  "name": "C5",
                  "ticks": 2184000,
                  "time": 70.72542750000001,
                  "velocity": 0.7244094488188977
              },
              {
                  "duration": 0.11658037499999807,
                  "durationTicks": 3600,
                  "midi": 29,
                  "name": "F1",
                  "ticks": 2193600,
                  "time": 71.0363085,
                  "velocity": 0.7716535433070866
              },
              {
                  "duration": 0.07772024999999871,
                  "durationTicks": 2400,
                  "midi": 77,
                  "name": "F5",
                  "ticks": 2193600,
                  "time": 71.0363085,
                  "velocity": 0.7244094488188977
              },
              {
                  "duration": 0.15544049999999743,
                  "durationTicks": 4800,
                  "midi": 29,
                  "name": "F1",
                  "ticks": 2198400,
                  "time": 71.191749,
                  "velocity": 0.8503937007874016
              },
              {
                  "duration": 0.07772024999999871,
                  "durationTicks": 2400,
                  "midi": 74,
                  "name": "D5",
                  "ticks": 2198400,
                  "time": 71.191749,
                  "velocity": 0.8346456692913385
              },
              {
                  "duration": 0.03886012499999936,
                  "durationTicks": 1200,
                  "midi": 29,
                  "name": "F1",
                  "ticks": 2203200,
                  "time": 71.3471895,
                  "velocity": 0.7716535433070866
              },
              {
                  "duration": 0.07772024999999871,
                  "durationTicks": 2400,
                  "midi": 72,
                  "name": "C5",
                  "ticks": 2203200,
                  "time": 71.3471895,
                  "velocity": 0.6771653543307087
              },
              {
                  "duration": 0.012856224687496365,
                  "durationTicks": 397,
                  "midi": 29,
                  "name": "F1",
                  "ticks": 2208000,
                  "time": 71.50263000000001,
                  "velocity": 0.7007874015748031
              },
              {
                  "duration": 0.03886012499999936,
                  "durationTicks": 1200,
                  "midi": 29,
                  "name": "F1",
                  "ticks": 2212800,
                  "time": 71.65807050000001,
                  "velocity": 0.5511811023622047
              },
              {
                  "duration": 0.07772024999999871,
                  "durationTicks": 2400,
                  "midi": 48,
                  "name": "C3",
                  "ticks": 2212800,
                  "time": 71.65807050000001,
                  "velocity": 0.6141732283464567
              },
              {
                  "duration": 0.07772024999999871,
                  "durationTicks": 2400,
                  "midi": 57,
                  "name": "A3",
                  "ticks": 2212800,
                  "time": 71.65807050000001,
                  "velocity": 0.5511811023622047
              },
              {
                  "duration": 0.07772024999999871,
                  "durationTicks": 2400,
                  "midi": 65,
                  "name": "F4",
                  "ticks": 2212800,
                  "time": 71.65807050000001,
                  "velocity": 0.5826771653543307
              },
              {
                  "duration": 0.07772024999999871,
                  "durationTicks": 2400,
                  "midi": 77,
                  "name": "F5",
                  "ticks": 2212800,
                  "time": 71.65807050000001,
                  "velocity": 0.7244094488188977
              },
              {
                  "duration": 0.03886012499999936,
                  "durationTicks": 1200,
                  "midi": 29,
                  "name": "F1",
                  "ticks": 2217600,
                  "time": 71.813511,
                  "velocity": 0.7716535433070866
              },
              {
                  "duration": 0.03886012499999936,
                  "durationTicks": 1200,
                  "midi": 48,
                  "name": "C3",
                  "ticks": 2217600,
                  "time": 71.813511,
                  "velocity": 0.6929133858267716
              },
              {
                  "duration": 0.07772024999999871,
                  "durationTicks": 2400,
                  "midi": 74,
                  "name": "D5",
                  "ticks": 2217600,
                  "time": 71.813511,
                  "velocity": 0.7401574803149606
              },
              {
                  "duration": 0.11658037499999807,
                  "durationTicks": 3600,
                  "midi": 29,
                  "name": "F1",
                  "ticks": 2222400,
                  "time": 71.9689515,
                  "velocity": 0.7401574803149606
              },
              {
                  "duration": 0.11658037499999807,
                  "durationTicks": 3600,
                  "midi": 72,
                  "name": "C5",
                  "ticks": 2222400,
                  "time": 71.9689515,
                  "velocity": 0.7559055118110236
              },
              {
                  "duration": 0.11658037499999807,
                  "durationTicks": 3600,
                  "midi": 29,
                  "name": "F1",
                  "ticks": 2227200,
                  "time": 72.124392,
                  "velocity": 0.7874015748031497
              },
              {
                  "duration": 0.11658037500001228,
                  "durationTicks": 3600,
                  "midi": 29,
                  "name": "F1",
                  "ticks": 2232000,
                  "time": 72.2798325,
                  "velocity": 0.7086614173228346
              },
              {
                  "duration": 0.11658037500001228,
                  "durationTicks": 3600,
                  "midi": 41,
                  "name": "F2",
                  "ticks": 2232000,
                  "time": 72.2798325,
                  "velocity": 0.4881889763779528
              },
              {
                  "duration": 0.11658037500001228,
                  "durationTicks": 3600,
                  "midi": 53,
                  "name": "F3",
                  "ticks": 2232000,
                  "time": 72.2798325,
                  "velocity": 0.5196850393700787
              },
              {
                  "duration": 0.07772025000001292,
                  "durationTicks": 2400,
                  "midi": 77,
                  "name": "F5",
                  "ticks": 2232000,
                  "time": 72.2798325,
                  "velocity": 0.6141732283464567
              },
              {
                  "duration": 0.03886012499999936,
                  "durationTicks": 1200,
                  "midi": 29,
                  "name": "F1",
                  "ticks": 2236800,
                  "time": 72.43527300000001,
                  "velocity": 0.7874015748031497
              },
              {
                  "duration": 0.03886012499999936,
                  "durationTicks": 1200,
                  "midi": 41,
                  "name": "F2",
                  "ticks": 2236800,
                  "time": 72.43527300000001,
                  "velocity": 0.5590551181102362
              },
              {
                  "duration": 0.03886012499999936,
                  "durationTicks": 1200,
                  "midi": 53,
                  "name": "F3",
                  "ticks": 2236800,
                  "time": 72.43527300000001,
                  "velocity": 0.5905511811023622
              },
              {
                  "duration": 0.11658037499999807,
                  "durationTicks": 3600,
                  "midi": 74,
                  "name": "D5",
                  "ticks": 2236800,
                  "time": 72.43527300000001,
                  "velocity": 0.8031496062992126
              },
              {
                  "duration": 0.11658037499999807,
                  "durationTicks": 3600,
                  "midi": 48,
                  "name": "C3",
                  "ticks": 2241600,
                  "time": 72.5907135,
                  "velocity": 0.5354330708661418
              },
              {
                  "duration": 0.11658037499999807,
                  "durationTicks": 3600,
                  "midi": 53,
                  "name": "F3",
                  "ticks": 2241600,
                  "time": 72.5907135,
                  "velocity": 0.7086614173228346
              },
              {
                  "duration": 0.11658037499999807,
                  "durationTicks": 3600,
                  "midi": 57,
                  "name": "A3",
                  "ticks": 2241600,
                  "time": 72.5907135,
                  "velocity": 0.5039370078740157
              },
              {
                  "duration": 0.03886012499999936,
                  "durationTicks": 1200,
                  "midi": 48,
                  "name": "C3",
                  "ticks": 2246400,
                  "time": 72.746154,
                  "velocity": 0.6062992125984252
              },
              {
                  "duration": 0.03886012499999936,
                  "durationTicks": 1200,
                  "midi": 53,
                  "name": "F3",
                  "ticks": 2246400,
                  "time": 72.746154,
                  "velocity": 0.7795275590551181
              },
              {
                  "duration": 0.07772024999999871,
                  "durationTicks": 2400,
                  "midi": 48,
                  "name": "C3",
                  "ticks": 2251200,
                  "time": 72.9015945,
                  "velocity": 0.5748031496062992
              },
              {
                  "duration": 0.07772024999999871,
                  "durationTicks": 2400,
                  "midi": 53,
                  "name": "F3",
                  "ticks": 2251200,
                  "time": 72.9015945,
                  "velocity": 0.5039370078740157
              },
              {
                  "duration": 0.03886012499999936,
                  "durationTicks": 1200,
                  "midi": 77,
                  "name": "F5",
                  "ticks": 2251200,
                  "time": 72.9015945,
                  "velocity": 0.5905511811023622
              },
              {
                  "duration": 0.03886012499999936,
                  "durationTicks": 1200,
                  "midi": 48,
                  "name": "C3",
                  "ticks": 2256000,
                  "time": 73.057035,
                  "velocity": 0.6614173228346457
              },
              {
                  "duration": 0.07772024999999871,
                  "durationTicks": 2400,
                  "midi": 74,
                  "name": "D5",
                  "ticks": 2256000,
                  "time": 73.057035,
                  "velocity": 0.7637795275590551
              },
              {
                  "duration": 0.03886012499999936,
                  "durationTicks": 1200,
                  "midi": 29,
                  "name": "F1",
                  "ticks": 2260800,
                  "time": 73.21247550000001,
                  "velocity": 0.6299212598425197
              },
              {
                  "duration": 0.15544049999999743,
                  "durationTicks": 4800,
                  "midi": 72,
                  "name": "C5",
                  "ticks": 2260800,
                  "time": 73.21247550000001,
                  "velocity": 0.6535433070866141
              },
              {
                  "duration": 0.11658037499999807,
                  "durationTicks": 3600,
                  "midi": 29,
                  "name": "F1",
                  "ticks": 2265600,
                  "time": 73.36791600000001,
                  "velocity": 0.8188976377952756
              },
              {
                  "duration": 0.11658037499999807,
                  "durationTicks": 3600,
                  "midi": 65,
                  "name": "F4",
                  "ticks": 2265600,
                  "time": 73.36791600000001,
                  "velocity": 0.7244094488188977
              },
              {
                  "duration": 0.03886012499999936,
                  "durationTicks": 1200,
                  "midi": 72,
                  "name": "C5",
                  "ticks": 2265600,
                  "time": 73.36791600000001,
                  "velocity": 0.6929133858267716
              },
              {
                  "duration": 0.11658037499999807,
                  "durationTicks": 3600,
                  "midi": 29,
                  "name": "F1",
                  "ticks": 2270400,
                  "time": 73.5233565,
                  "velocity": 0.7480314960629921
              },
              {
                  "duration": 0.07772024999999871,
                  "durationTicks": 2400,
                  "midi": 65,
                  "name": "F4",
                  "ticks": 2270400,
                  "time": 73.5233565,
                  "velocity": 0.6456692913385826
              },
              {
                  "duration": 0.07772024999999871,
                  "durationTicks": 2400,
                  "midi": 29,
                  "name": "F1",
                  "ticks": 2275200,
                  "time": 73.678797,
                  "velocity": 0.8188976377952756
              },
              {
                  "duration": 0.07772024999999871,
                  "durationTicks": 2400,
                  "midi": 74,
                  "name": "D5",
                  "ticks": 2275200,
                  "time": 73.678797,
                  "velocity": 0.7322834645669292
              },
              {
                  "duration": 0.11658037499999807,
                  "durationTicks": 3600,
                  "midi": 60,
                  "name": "C4",
                  "ticks": 2280000,
                  "time": 73.8342375,
                  "velocity": 0.4566929133858268
              },
              {
                  "duration": 0.07772024999999871,
                  "durationTicks": 2400,
                  "midi": 65,
                  "name": "F4",
                  "ticks": 2280000,
                  "time": 73.8342375,
                  "velocity": 0.5669291338582677
              },
              {
                  "duration": 0.07772024999999871,
                  "durationTicks": 2400,
                  "midi": 72,
                  "name": "C5",
                  "ticks": 2280000,
                  "time": 73.8342375,
                  "velocity": 0.6456692913385826
              },
              {
                  "duration": 0.03886012500001357,
                  "durationTicks": 1200,
                  "midi": 60,
                  "name": "C4",
                  "ticks": 2284800,
                  "time": 73.989678,
                  "velocity": 0.5196850393700787
              },
              {
                  "duration": 0.07772024999999871,
                  "durationTicks": 2400,
                  "midi": 29,
                  "name": "F1",
                  "ticks": 2289600,
                  "time": 74.14511850000001,
                  "velocity": 0.7874015748031497
              },
              {
                  "duration": 0.07772024999999871,
                  "durationTicks": 2400,
                  "midi": 57,
                  "name": "A3",
                  "ticks": 2289600,
                  "time": 74.14511850000001,
                  "velocity": 0.5511811023622047
              },
              {
                  "duration": 0.03886012499999936,
                  "durationTicks": 1200,
                  "midi": 29,
                  "name": "F1",
                  "ticks": 2294400,
                  "time": 74.300559,
                  "velocity": 0.8661417322834646
              },
              {
                  "duration": 0.07772024999999871,
                  "durationTicks": 2400,
                  "midi": 74,
                  "name": "D5",
                  "ticks": 2294400,
                  "time": 74.300559,
                  "velocity": 0.7165354330708661
              },
              {
                  "duration": 0.11658037499999807,
                  "durationTicks": 3600,
                  "midi": 29,
                  "name": "F1",
                  "ticks": 2299200,
                  "time": 74.4559995,
                  "velocity": 0.7874015748031497
              },
              {
                  "duration": 0.11658037499999807,
                  "durationTicks": 3600,
                  "midi": 29,
                  "name": "F1",
                  "ticks": 2304000,
                  "time": 74.61144,
                  "velocity": 0.8346456692913385
              },
              {
                  "duration": 0.07772024999999871,
                  "durationTicks": 2400,
                  "midi": 53,
                  "name": "F3",
                  "ticks": 2304000,
                  "time": 74.61144,
                  "velocity": 0.7716535433070866
              },
              {
                  "duration": 0.11658037500001228,
                  "durationTicks": 3600,
                  "midi": 29,
                  "name": "F1",
                  "ticks": 2308800,
                  "time": 74.7668805,
                  "velocity": 0.7637795275590551
              },
              {
                  "duration": 0.15544049999999743,
                  "durationTicks": 4800,
                  "midi": 29,
                  "name": "F1",
                  "ticks": 2313600,
                  "time": 74.92232100000001,
                  "velocity": 0.8346456692913385
              },
              {
                  "duration": 0.15544049999999743,
                  "durationTicks": 4800,
                  "midi": 29,
                  "name": "F1",
                  "ticks": 2318400,
                  "time": 75.07776150000001,
                  "velocity": 0.7637795275590551
              },
              {
                  "duration": 0.07772024999999871,
                  "durationTicks": 2400,
                  "midi": 72,
                  "name": "C5",
                  "ticks": 2318400,
                  "time": 75.07776150000001,
                  "velocity": 0.7086614173228346
              },
              {
                  "duration": 0.07772024999999871,
                  "durationTicks": 2400,
                  "midi": 29,
                  "name": "F1",
                  "ticks": 2323200,
                  "time": 75.233202,
                  "velocity": 0.8346456692913385
              },
              {
                  "duration": 0.07772024999999871,
                  "durationTicks": 2400,
                  "midi": 29,
                  "name": "F1",
                  "ticks": 2328000,
                  "time": 75.3886425,
                  "velocity": 0.7637795275590551
              },
              {
                  "duration": 0.07772024999999871,
                  "durationTicks": 2400,
                  "midi": 53,
                  "name": "F3",
                  "ticks": 2328000,
                  "time": 75.3886425,
                  "velocity": 0.6456692913385826
              },
              {
                  "duration": 0.11658037499999807,
                  "durationTicks": 3600,
                  "midi": 29,
                  "name": "F1",
                  "ticks": 2332800,
                  "time": 75.544083,
                  "velocity": 0.8503937007874016
              },
              {
                  "duration": 0.11658037499999807,
                  "durationTicks": 3600,
                  "midi": 74,
                  "name": "D5",
                  "ticks": 2332800,
                  "time": 75.544083,
                  "velocity": 0.7480314960629921
              },
              {
                  "duration": 0.03886012500001357,
                  "durationTicks": 1200,
                  "midi": 72,
                  "name": "C5",
                  "ticks": 2337600,
                  "time": 75.6995235,
                  "velocity": 0.7559055118110236
              },
              {
                  "duration": 0.11658037499999807,
                  "durationTicks": 3600,
                  "midi": 29,
                  "name": "F1",
                  "ticks": 2342400,
                  "time": 75.85496400000001,
                  "velocity": 0.8740157480314961
              },
              {
                  "duration": 0.11658037499999807,
                  "durationTicks": 3600,
                  "midi": 29,
                  "name": "F1",
                  "ticks": 2347200,
                  "time": 76.0104045,
                  "velocity": 0.8031496062992126
              },
              {
                  "duration": 0.15544049999999743,
                  "durationTicks": 4800,
                  "midi": 29,
                  "name": "F1",
                  "ticks": 2352000,
                  "time": 76.165845,
                  "velocity": 0.8740157480314961
              },
              {
                  "duration": 0.07772024999999871,
                  "durationTicks": 2400,
                  "midi": 74,
                  "name": "D5",
                  "ticks": 2352000,
                  "time": 76.165845,
                  "velocity": 0.7795275590551181
              },
              {
                  "duration": 0.11658037499999807,
                  "durationTicks": 3600,
                  "midi": 29,
                  "name": "F1",
                  "ticks": 2356800,
                  "time": 76.3212855,
                  "velocity": 0.8031496062992126
              },
              {
                  "duration": 0.11658037499999807,
                  "durationTicks": 3600,
                  "midi": 53,
                  "name": "F3",
                  "ticks": 2356800,
                  "time": 76.3212855,
                  "velocity": 0.6929133858267716
              },
              {
                  "duration": 0.11658037499999807,
                  "durationTicks": 3600,
                  "midi": 57,
                  "name": "A3",
                  "ticks": 2356800,
                  "time": 76.3212855,
                  "velocity": 0.5984251968503937
              },
              {
                  "duration": 0.03886012499999936,
                  "durationTicks": 1200,
                  "midi": 29,
                  "name": "F1",
                  "ticks": 2361600,
                  "time": 76.476726,
                  "velocity": 0.8740157480314961
              },
              {
                  "duration": 0.03886012499999936,
                  "durationTicks": 1200,
                  "midi": 53,
                  "name": "F3",
                  "ticks": 2361600,
                  "time": 76.476726,
                  "velocity": 0.7716535433070866
              },
              {
                  "duration": 0.07772024999999871,
                  "durationTicks": 2400,
                  "midi": 29,
                  "name": "F1",
                  "ticks": 2366400,
                  "time": 76.63216650000001,
                  "velocity": 0.8031496062992126
              },
              {
                  "duration": 0.03886012499999936,
                  "durationTicks": 1200,
                  "midi": 29,
                  "name": "F1",
                  "ticks": 2371200,
                  "time": 76.78760700000001,
                  "velocity": 0.8818897637795275
              },
              {
                  "duration": 0.07772024999999871,
                  "durationTicks": 2400,
                  "midi": 74,
                  "name": "D5",
                  "ticks": 2371200,
                  "time": 76.78760700000001,
                  "velocity": 0.7086614173228346
              },
              {
                  "duration": 0.15544049999999743,
                  "durationTicks": 4800,
                  "midi": 29,
                  "name": "F1",
                  "ticks": 2376000,
                  "time": 76.9430475,
                  "velocity": 0.8188976377952756
              },
              {
                  "duration": 0.11658037499999807,
                  "durationTicks": 3600,
                  "midi": 29,
                  "name": "F1",
                  "ticks": 2380800,
                  "time": 77.098488,
                  "velocity": 0.8661417322834646
              },
              {
                  "duration": 0.11658037499999807,
                  "durationTicks": 3600,
                  "midi": 41,
                  "name": "F2",
                  "ticks": 2380800,
                  "time": 77.098488,
                  "velocity": 0.6850393700787402
              },
              {
                  "duration": 0.11658037499999807,
                  "durationTicks": 3600,
                  "midi": 53,
                  "name": "F3",
                  "ticks": 2380800,
                  "time": 77.098488,
                  "velocity": 0.8031496062992126
              },
              {
                  "duration": 0.11658037499999807,
                  "durationTicks": 3600,
                  "midi": 29,
                  "name": "F1",
                  "ticks": 2385600,
                  "time": 77.2539285,
                  "velocity": 0.8031496062992126
              },
              {
                  "duration": 0.010136015937504794,
                  "durationTicks": 313,
                  "midi": 41,
                  "name": "F2",
                  "ticks": 2385600,
                  "time": 77.2539285,
                  "velocity": 0.6062992125984252
              },
              {
                  "duration": 0.03886012499999936,
                  "durationTicks": 1200,
                  "midi": 53,
                  "name": "F3",
                  "ticks": 2385600,
                  "time": 77.2539285,
                  "velocity": 0.7322834645669292
              },
              {
                  "duration": 0.15544050000001164,
                  "durationTicks": 4800,
                  "midi": 29,
                  "name": "F1",
                  "ticks": 2390400,
                  "time": 77.409369,
                  "velocity": 0.8661417322834646
              },
              {
                  "duration": 0.07772025000001292,
                  "durationTicks": 2400,
                  "midi": 74,
                  "name": "D5",
                  "ticks": 2390400,
                  "time": 77.409369,
                  "velocity": 0.84251968503937
              },
              {
                  "duration": 0.15544049999999743,
                  "durationTicks": 4800,
                  "midi": 29,
                  "name": "F1",
                  "ticks": 2395200,
                  "time": 77.56480950000001,
                  "velocity": 0.8031496062992126
              },
              {
                  "duration": 0.15544049999999743,
                  "durationTicks": 4800,
                  "midi": 48,
                  "name": "C3",
                  "ticks": 2395200,
                  "time": 77.56480950000001,
                  "velocity": 0.6771653543307087
              },
              {
                  "duration": 0.07772024999999871,
                  "durationTicks": 2400,
                  "midi": 29,
                  "name": "F1",
                  "ticks": 2400000,
                  "time": 77.72025000000001,
                  "velocity": 0.8661417322834646
              },
              {
                  "duration": 0.07772024999999871,
                  "durationTicks": 2400,
                  "midi": 48,
                  "name": "C3",
                  "ticks": 2400000,
                  "time": 77.72025000000001,
                  "velocity": 0.7559055118110236
              },
              {
                  "duration": 0.07772024999999871,
                  "durationTicks": 2400,
                  "midi": 29,
                  "name": "F1",
                  "ticks": 2404800,
                  "time": 77.8756905,
                  "velocity": 0.8031496062992126
              },
              {
                  "duration": 0.07772024999999871,
                  "durationTicks": 2400,
                  "midi": 41,
                  "name": "F2",
                  "ticks": 2404800,
                  "time": 77.8756905,
                  "velocity": 0.5196850393700787
              },
              {
                  "duration": 0.07772024999999871,
                  "durationTicks": 2400,
                  "midi": 48,
                  "name": "C3",
                  "ticks": 2404800,
                  "time": 77.8756905,
                  "velocity": 0.6771653543307087
              },
              {
                  "duration": 0.07772024999999871,
                  "durationTicks": 2400,
                  "midi": 53,
                  "name": "F3",
                  "ticks": 2404800,
                  "time": 77.8756905,
                  "velocity": 0.6535433070866141
              },
              {
                  "duration": 0.07772024999999871,
                  "durationTicks": 2400,
                  "midi": 57,
                  "name": "A3",
                  "ticks": 2404800,
                  "time": 77.8756905,
                  "velocity": 0.5669291338582677
              },
              {
                  "duration": 0.11658037499999807,
                  "durationTicks": 3600,
                  "midi": 29,
                  "name": "F1",
                  "ticks": 2409600,
                  "time": 78.031131,
                  "velocity": 0.8818897637795275
              },
              {
                  "duration": 0.11658037499999807,
                  "durationTicks": 3600,
                  "midi": 48,
                  "name": "C3",
                  "ticks": 2409600,
                  "time": 78.031131,
                  "velocity": 0.7637795275590551
              },
              {
                  "duration": 0.03886012499999936,
                  "durationTicks": 1200,
                  "midi": 53,
                  "name": "F3",
                  "ticks": 2409600,
                  "time": 78.031131,
                  "velocity": 0.7401574803149606
              },
              {
                  "duration": 0.07772024999999871,
                  "durationTicks": 2400,
                  "midi": 74,
                  "name": "D5",
                  "ticks": 2409600,
                  "time": 78.031131,
                  "velocity": 0.7559055118110236
              },
              {
                  "duration": 0.11658037500001228,
                  "durationTicks": 3600,
                  "midi": 29,
                  "name": "F1",
                  "ticks": 2414400,
                  "time": 78.1865715,
                  "velocity": 0.8188976377952756
              },
              {
                  "duration": 0.03886012499999936,
                  "durationTicks": 1200,
                  "midi": 72,
                  "name": "C5",
                  "ticks": 2414400,
                  "time": 78.1865715,
                  "velocity": 0.7874015748031497
              },
              {
                  "duration": 0.03886012499999936,
                  "durationTicks": 1200,
                  "midi": 48,
                  "name": "C3",
                  "ticks": 2414400,
                  "time": 78.1865715,
                  "velocity": 0.7086614173228346
              },
              {
                  "duration": 0.11658037499999807,
                  "durationTicks": 3600,
                  "midi": 29,
                  "name": "F1",
                  "ticks": 2419200,
                  "time": 78.34201200000001,
                  "velocity": 0.8661417322834646
              },
              {
                  "duration": 0.11658037499999807,
                  "durationTicks": 3600,
                  "midi": 41,
                  "name": "F2",
                  "ticks": 2419200,
                  "time": 78.34201200000001,
                  "velocity": 0.6220472440944882
              },
              {
                  "duration": 0.11658037499999807,
                  "durationTicks": 3600,
                  "midi": 48,
                  "name": "C3",
                  "ticks": 2419200,
                  "time": 78.34201200000001,
                  "velocity": 0.6614173228346457
              },
              {
                  "duration": 0.11658037499999807,
                  "durationTicks": 3600,
                  "midi": 53,
                  "name": "F3",
                  "ticks": 2419200,
                  "time": 78.34201200000001,
                  "velocity": 0.7322834645669292
              },
              {
                  "duration": 0.11658037499999807,
                  "durationTicks": 3600,
                  "midi": 29,
                  "name": "F1",
                  "ticks": 2424000,
                  "time": 78.49745250000001,
                  "velocity": 0.8031496062992126
              },
              {
                  "duration": 0.11658037499999807,
                  "durationTicks": 3600,
                  "midi": 41,
                  "name": "F2",
                  "ticks": 2424000,
                  "time": 78.49745250000001,
                  "velocity": 0.5511811023622047
              },
              {
                  "duration": 0.11658037499999807,
                  "durationTicks": 3600,
                  "midi": 48,
                  "name": "C3",
                  "ticks": 2424000,
                  "time": 78.49745250000001,
                  "velocity": 0.5826771653543307
              },
              {
                  "duration": 0.11658037499999807,
                  "durationTicks": 3600,
                  "midi": 53,
                  "name": "F3",
                  "ticks": 2424000,
                  "time": 78.49745250000001,
                  "velocity": 0.6614173228346457
              },
              {
                  "duration": 0.07772024999999871,
                  "durationTicks": 2400,
                  "midi": 77,
                  "name": "F5",
                  "ticks": 2424000,
                  "time": 78.49745250000001,
                  "velocity": 0.7401574803149606
              },
              {
                  "duration": 0.07772024999999871,
                  "durationTicks": 2400,
                  "midi": 29,
                  "name": "F1",
                  "ticks": 2428800,
                  "time": 78.652893,
                  "velocity": 0.8661417322834646
              },
              {
                  "duration": 0.03886012499999936,
                  "durationTicks": 1200,
                  "midi": 41,
                  "name": "F2",
                  "ticks": 2428800,
                  "time": 78.652893,
                  "velocity": 0.6220472440944882
              },
              {
                  "duration": 0.07772024999999871,
                  "durationTicks": 2400,
                  "midi": 74,
                  "name": "D5",
                  "ticks": 2428800,
                  "time": 78.652893,
                  "velocity": 0.7716535433070866
              },
              {
                  "duration": 0.11658037499999807,
                  "durationTicks": 3600,
                  "midi": 41,
                  "name": "F2",
                  "ticks": 2433600,
                  "time": 78.8083335,
                  "velocity": 0.5905511811023622
              },
              {
                  "duration": 0.11658037499999807,
                  "durationTicks": 3600,
                  "midi": 48,
                  "name": "C3",
                  "ticks": 2433600,
                  "time": 78.8083335,
                  "velocity": 0.7165354330708661
              },
              {
                  "duration": 0.11658037499999807,
                  "durationTicks": 3600,
                  "midi": 57,
                  "name": "A3",
                  "ticks": 2433600,
                  "time": 78.8083335,
                  "velocity": 0.5669291338582677
              },
              {
                  "duration": 0.03886012499999936,
                  "durationTicks": 1200,
                  "midi": 41,
                  "name": "F2",
                  "ticks": 2438400,
                  "time": 78.963774,
                  "velocity": 0.6614173228346457
              },
              {
                  "duration": 0.03886012499999936,
                  "durationTicks": 1200,
                  "midi": 48,
                  "name": "C3",
                  "ticks": 2438400,
                  "time": 78.963774,
                  "velocity": 0.7874015748031497
              },
              {
                  "duration": 0.018426175937506173,
                  "durationTicks": 569,
                  "midi": 57,
                  "name": "A3",
                  "ticks": 2438400,
                  "time": 78.963774,
                  "velocity": 0.6456692913385826
              },
              {
                  "duration": 0.07772025000001292,
                  "durationTicks": 2400,
                  "midi": 29,
                  "name": "F1",
                  "ticks": 2443200,
                  "time": 79.1192145,
                  "velocity": 0.7874015748031497
              },
              {
                  "duration": 0.07772025000001292,
                  "durationTicks": 2400,
                  "midi": 57,
                  "name": "A3",
                  "ticks": 2443200,
                  "time": 79.1192145,
                  "velocity": 0.5984251968503937
              },
              {
                  "duration": 0.03886012500001357,
                  "durationTicks": 1200,
                  "midi": 65,
                  "name": "F4",
                  "ticks": 2443200,
                  "time": 79.1192145,
                  "velocity": 0.7086614173228346
              },
              {
                  "duration": 0.11658037499999807,
                  "durationTicks": 3600,
                  "midi": 29,
                  "name": "F1",
                  "ticks": 2448000,
                  "time": 79.27465500000001,
                  "velocity": 0.8661417322834646
              },
              {
                  "duration": 0.03886012499999936,
                  "durationTicks": 1200,
                  "midi": 57,
                  "name": "A3",
                  "ticks": 2448000,
                  "time": 79.27465500000001,
                  "velocity": 0.6850393700787402
              },
              {
                  "duration": 0.07772024999999871,
                  "durationTicks": 2400,
                  "midi": 74,
                  "name": "D5",
                  "ticks": 2448000,
                  "time": 79.27465500000001,
                  "velocity": 0.8031496062992126
              },
              {
                  "duration": 0.11658037499999807,
                  "durationTicks": 3600,
                  "midi": 53,
                  "name": "F3",
                  "ticks": 2452800,
                  "time": 79.43009550000001,
                  "velocity": 0.8188976377952756
              },
              {
                  "duration": 0.07772024999999871,
                  "durationTicks": 2400,
                  "midi": 72,
                  "name": "C5",
                  "ticks": 2462400,
                  "time": 79.7409765,
                  "velocity": 0.7322834645669292
              },
              {
                  "duration": 0.07772024999999871,
                  "durationTicks": 2400,
                  "midi": 69,
                  "name": "A4",
                  "ticks": 2467200,
                  "time": 79.896417,
                  "velocity": 0.7795275590551181
              },
              {
                  "duration": 0.07772024999999871,
                  "durationTicks": 2400,
                  "midi": 67,
                  "name": "G4",
                  "ticks": 2472000,
                  "time": 80.05185750000001,
                  "velocity": 0.7322834645669292
              },
              {
                  "duration": 0.07772024999999871,
                  "durationTicks": 2400,
                  "midi": 65,
                  "name": "F4",
                  "ticks": 2481600,
                  "time": 80.3627385,
                  "velocity": 0.7716535433070866
              },
              {
                  "duration": 0.11658037499999807,
                  "durationTicks": 3600,
                  "midi": 62,
                  "name": "D4",
                  "ticks": 2486400,
                  "time": 80.518179,
                  "velocity": 0.8818897637795275
              },
              {
                  "duration": 0.07772024999999871,
                  "durationTicks": 2400,
                  "midi": 60,
                  "name": "C4",
                  "ticks": 2491200,
                  "time": 80.6736195,
                  "velocity": 0.8267716535433071
              },
              {
                  "duration": 0.11658037500001228,
                  "durationTicks": 3600,
                  "midi": 41,
                  "name": "F2",
                  "ticks": 2496000,
                  "time": 80.82906,
                  "velocity": 0.7637795275590551
              },
              {
                  "duration": 0.11658037500001228,
                  "durationTicks": 3600,
                  "midi": 48,
                  "name": "C3",
                  "ticks": 2496000,
                  "time": 80.82906,
                  "velocity": 0.6535433070866141
              },
              {
                  "duration": 0.11658037500001228,
                  "durationTicks": 3600,
                  "midi": 57,
                  "name": "A3",
                  "ticks": 2496000,
                  "time": 80.82906,
                  "velocity": 0.7559055118110236
              },
              {
                  "duration": 0.11658037499999807,
                  "durationTicks": 3600,
                  "midi": 41,
                  "name": "F2",
                  "ticks": 2500800,
                  "time": 80.98450050000001,
                  "velocity": 0.6929133858267716
              },
              {
                  "duration": 0.07772024999999871,
                  "durationTicks": 2400,
                  "midi": 48,
                  "name": "C3",
                  "ticks": 2500800,
                  "time": 80.98450050000001,
                  "velocity": 0.5748031496062992
              },
              {
                  "duration": 0.11658037499999807,
                  "durationTicks": 3600,
                  "midi": 57,
                  "name": "A3",
                  "ticks": 2500800,
                  "time": 80.98450050000001,
                  "velocity": 0.6929133858267716
              },
              {
                  "duration": 0.11658037499999807,
                  "durationTicks": 3600,
                  "midi": 84,
                  "name": "C6",
                  "ticks": 2500800,
                  "time": 80.98450050000001,
                  "velocity": 0.6456692913385826
              },
              {
                  "duration": 0.03886012499999936,
                  "durationTicks": 1200,
                  "midi": 79,
                  "name": "G5",
                  "ticks": 2505600,
                  "time": 81.13994100000001,
                  "velocity": 0.7559055118110236
              },
              {
                  "duration": 0.11658037499999807,
                  "durationTicks": 3600,
                  "midi": 29,
                  "name": "F1",
                  "ticks": 2510400,
                  "time": 81.2953815,
                  "velocity": 0.5905511811023622
              },
              {
                  "duration": 0.03886012499999936,
                  "durationTicks": 1200,
                  "midi": 81,
                  "name": "A5",
                  "ticks": 2510400,
                  "time": 81.2953815,
                  "velocity": 0.7086614173228346
              },
              {
                  "duration": 0.07772024999999871,
                  "durationTicks": 2400,
                  "midi": 29,
                  "name": "F1",
                  "ticks": 2515200,
                  "time": 81.450822,
                  "velocity": 0.6614173228346457
              },
              {
                  "duration": 0.07772024999999871,
                  "durationTicks": 2400,
                  "midi": 29,
                  "name": "F1",
                  "ticks": 2520000,
                  "time": 81.6062625,
                  "velocity": 0.6692913385826772
              },
              {
                  "duration": 0.07772024999999871,
                  "durationTicks": 2400,
                  "midi": 41,
                  "name": "F2",
                  "ticks": 2520000,
                  "time": 81.6062625,
                  "velocity": 0.6771653543307087
              },
              {
                  "duration": 0.07772024999999871,
                  "durationTicks": 2400,
                  "midi": 57,
                  "name": "A3",
                  "ticks": 2520000,
                  "time": 81.6062625,
                  "velocity": 0.5669291338582677
              },
              {
                  "duration": 0.07772024999999871,
                  "durationTicks": 2400,
                  "midi": 77,
                  "name": "F5",
                  "ticks": 2520000,
                  "time": 81.6062625,
                  "velocity": 0.6456692913385826
              },
              {
                  "duration": 0.07772024999999871,
                  "durationTicks": 2400,
                  "midi": 29,
                  "name": "F1",
                  "ticks": 2524800,
                  "time": 81.76170300000001,
                  "velocity": 0.7559055118110236
              },
              {
                  "duration": 0.15544049999999743,
                  "durationTicks": 4800,
                  "midi": 34,
                  "name": "A#1",
                  "ticks": 2529600,
                  "time": 81.91714350000001,
                  "velocity": 0.7874015748031497
              },
              {
                  "duration": 0.07772024999999871,
                  "durationTicks": 2400,
                  "midi": 74,
                  "name": "D5",
                  "ticks": 2529600,
                  "time": 81.91714350000001,
                  "velocity": 0.7952755905511811
              },
              {
                  "duration": 0.11658037499999807,
                  "durationTicks": 3600,
                  "midi": 34,
                  "name": "A#1",
                  "ticks": 2534400,
                  "time": 82.072584,
                  "velocity": 0.8346456692913385
              },
              {
                  "duration": 0.11658037499999807,
                  "durationTicks": 3600,
                  "midi": 34,
                  "name": "A#1",
                  "ticks": 2539200,
                  "time": 82.2280245,
                  "velocity": 0.7716535433070866
              },
              {
                  "duration": 0.07772024999999871,
                  "durationTicks": 2400,
                  "midi": 77,
                  "name": "F5",
                  "ticks": 2539200,
                  "time": 82.2280245,
                  "velocity": 0.6771653543307087
              },
              {
                  "duration": 0.11658037499999807,
                  "durationTicks": 3600,
                  "midi": 34,
                  "name": "A#1",
                  "ticks": 2544000,
                  "time": 82.383465,
                  "velocity": 0.8346456692913385
              },
              {
                  "duration": 0.07772024999999871,
                  "durationTicks": 2400,
                  "midi": 74,
                  "name": "D5",
                  "ticks": 2544000,
                  "time": 82.383465,
                  "velocity": 0.8188976377952756
              },
              {
                  "duration": 0.11658037500001228,
                  "durationTicks": 3600,
                  "midi": 34,
                  "name": "A#1",
                  "ticks": 2548800,
                  "time": 82.5389055,
                  "velocity": 0.7716535433070866
              },
              {
                  "duration": 0.11658037500001228,
                  "durationTicks": 3600,
                  "midi": 53,
                  "name": "F3",
                  "ticks": 2548800,
                  "time": 82.5389055,
                  "velocity": 0.5196850393700787
              },
              {
                  "duration": 0.07772025000001292,
                  "durationTicks": 2400,
                  "midi": 72,
                  "name": "C5",
                  "ticks": 2548800,
                  "time": 82.5389055,
                  "velocity": 0.7086614173228346
              },
              {
                  "duration": 0.07772024999999871,
                  "durationTicks": 2400,
                  "midi": 34,
                  "name": "A#1",
                  "ticks": 2553600,
                  "time": 82.69434600000001,
                  "velocity": 0.8346456692913385
              },
              {
                  "duration": 0.03886012499999936,
                  "durationTicks": 1200,
                  "midi": 53,
                  "name": "F3",
                  "ticks": 2553600,
                  "time": 82.69434600000001,
                  "velocity": 0.5905511811023622
              },
              {
                  "duration": 0.07772024999999871,
                  "durationTicks": 2400,
                  "midi": 74,
                  "name": "D5",
                  "ticks": 2553600,
                  "time": 82.69434600000001,
                  "velocity": 0.7637795275590551
              },
              {
                  "duration": 0.07772024999999871,
                  "durationTicks": 2400,
                  "midi": 34,
                  "name": "A#1",
                  "ticks": 2558400,
                  "time": 82.84978650000001,
                  "velocity": 0.7716535433070866
              },
              {
                  "duration": 0.07772024999999871,
                  "durationTicks": 2400,
                  "midi": 72,
                  "name": "C5",
                  "ticks": 2558400,
                  "time": 82.84978650000001,
                  "velocity": 0.7086614173228346
              },
              {
                  "duration": 0.03886012499999936,
                  "durationTicks": 1200,
                  "midi": 34,
                  "name": "A#1",
                  "ticks": 2563200,
                  "time": 83.005227,
                  "velocity": 0.8503937007874016
              },
              {
                  "duration": 0.07772024999999871,
                  "durationTicks": 2400,
                  "midi": 69,
                  "name": "A4",
                  "ticks": 2563200,
                  "time": 83.005227,
                  "velocity": 0.8346456692913385
              },
              {
                  "duration": 0.07772024999999871,
                  "durationTicks": 2400,
                  "midi": 67,
                  "name": "G4",
                  "ticks": 2568000,
                  "time": 83.1606675,
                  "velocity": 0.8031496062992126
              },
              {
                  "duration": 0.11658037499999807,
                  "durationTicks": 3600,
                  "midi": 31,
                  "name": "G1",
                  "ticks": 2572800,
                  "time": 83.316108,
                  "velocity": 0.6850393700787402
              },
              {
                  "duration": 0.11658037499999807,
                  "durationTicks": 3600,
                  "midi": 43,
                  "name": "G2",
                  "ticks": 2572800,
                  "time": 83.316108,
                  "velocity": 0.7322834645669292
              },
              {
                  "duration": 0.11658037499999807,
                  "durationTicks": 3600,
                  "midi": 58,
                  "name": "A#3",
                  "ticks": 2572800,
                  "time": 83.316108,
                  "velocity": 0.6771653543307087
              },
              {
                  "duration": 0.03886012499999936,
                  "durationTicks": 1200,
                  "midi": 69,
                  "name": "A4",
                  "ticks": 2572800,
                  "time": 83.316108,
                  "velocity": 0.7244094488188977
              },
              {
                  "duration": 0.11658037499999807,
                  "durationTicks": 3600,
                  "midi": 31,
                  "name": "G1",
                  "ticks": 2577600,
                  "time": 83.47154850000001,
                  "velocity": 0.6062992125984252
              },
              {
                  "duration": 0.07772024999999871,
                  "durationTicks": 2400,
                  "midi": 43,
                  "name": "G2",
                  "ticks": 2577600,
                  "time": 83.47154850000001,
                  "velocity": 0.6614173228346457
              },
              {
                  "duration": 0.11658037499999807,
                  "durationTicks": 3600,
                  "midi": 58,
                  "name": "A#3",
                  "ticks": 2577600,
                  "time": 83.47154850000001,
                  "velocity": 0.6062992125984252
              },
              {
                  "duration": 0.07772024999999871,
                  "durationTicks": 2400,
                  "midi": 72,
                  "name": "C5",
                  "ticks": 2577600,
                  "time": 83.47154850000001,
                  "velocity": 0.7244094488188977
              },
              {
                  "duration": 0.03886012499999936,
                  "durationTicks": 1200,
                  "midi": 31,
                  "name": "G1",
                  "ticks": 2582400,
                  "time": 83.62698900000001,
                  "velocity": 0.6850393700787402
              },
              {
                  "duration": 0.03886012499999936,
                  "durationTicks": 1200,
                  "midi": 58,
                  "name": "A#3",
                  "ticks": 2582400,
                  "time": 83.62698900000001,
                  "velocity": 0.6771653543307087
              },
              {
                  "duration": 0.07772024999999871,
                  "durationTicks": 2400,
                  "midi": 74,
                  "name": "D5",
                  "ticks": 2582400,
                  "time": 83.62698900000001,
                  "velocity": 0.7716535433070866
              },
              {
                  "duration": 0.07772024999999871,
                  "durationTicks": 2400,
                  "midi": 72,
                  "name": "C5",
                  "ticks": 2587200,
                  "time": 83.7824295,
                  "velocity": 0.7244094488188977
              },
              {
                  "duration": 0.07772024999999871,
                  "durationTicks": 2400,
                  "midi": 31,
                  "name": "G1",
                  "ticks": 2596800,
                  "time": 84.0933105,
                  "velocity": 0.7716535433070866
              },
              {
                  "duration": 0.07772024999999871,
                  "durationTicks": 2400,
                  "midi": 69,
                  "name": "A4",
                  "ticks": 2596800,
                  "time": 84.0933105,
                  "velocity": 0.6771653543307087
              },
              {
                  "duration": 0.11658037499999807,
                  "durationTicks": 3600,
                  "midi": 36,
                  "name": "C2",
                  "ticks": 2606400,
                  "time": 84.40419150000001,
                  "velocity": 0.8188976377952756
              },
              {
                  "duration": 0.07772024999999871,
                  "durationTicks": 2400,
                  "midi": 67,
                  "name": "G4",
                  "ticks": 2606400,
                  "time": 84.40419150000001,
                  "velocity": 0.8188976377952756
              },
              {
                  "duration": 0.11658037499999807,
                  "durationTicks": 3600,
                  "midi": 36,
                  "name": "C2",
                  "ticks": 2611200,
                  "time": 84.55963200000001,
                  "velocity": 0.8661417322834646
              },
              {
                  "duration": 0.11658037499999807,
                  "durationTicks": 3600,
                  "midi": 36,
                  "name": "C2",
                  "ticks": 2616000,
                  "time": 84.7150725,
                  "velocity": 0.8031496062992126
              },
              {
                  "duration": 0.07772024999999871,
                  "durationTicks": 2400,
                  "midi": 69,
                  "name": "A4",
                  "ticks": 2616000,
                  "time": 84.7150725,
                  "velocity": 0.8031496062992126
              },
              {
                  "duration": 0.11658037499999807,
                  "durationTicks": 3600,
                  "midi": 36,
                  "name": "C2",
                  "ticks": 2620800,
                  "time": 84.870513,
                  "velocity": 0.8661417322834646
              },
              {
                  "duration": 0.07772024999999871,
                  "durationTicks": 2400,
                  "midi": 67,
                  "name": "G4",
                  "ticks": 2620800,
                  "time": 84.870513,
                  "velocity": 0.8346456692913385
              },
              {
                  "duration": 0.07772024999999871,
                  "durationTicks": 2400,
                  "midi": 36,
                  "name": "C2",
                  "ticks": 2625600,
                  "time": 85.0259535,
                  "velocity": 0.8031496062992126
              },
              {
                  "duration": 0.07772024999999871,
                  "durationTicks": 2400,
                  "midi": 65,
                  "name": "F4",
                  "ticks": 2625600,
                  "time": 85.0259535,
                  "velocity": 0.7637795275590551
              },
              {
                  "duration": 0.07772024999999871,
                  "durationTicks": 2400,
                  "midi": 67,
                  "name": "G4",
                  "ticks": 2630400,
                  "time": 85.18139400000001,
                  "velocity": 0.8031496062992126
              },
              {
                  "duration": 0.07772024999999871,
                  "durationTicks": 2400,
                  "midi": 65,
                  "name": "F4",
                  "ticks": 2635200,
                  "time": 85.33683450000001,
                  "velocity": 0.7244094488188977
              },
              {
                  "duration": 0.07772024999999871,
                  "durationTicks": 2400,
                  "midi": 62,
                  "name": "D4",
                  "ticks": 2640000,
                  "time": 85.492275,
                  "velocity": 0.8346456692913385
              },
              {
                  "duration": 0.07772024999999871,
                  "durationTicks": 2400,
                  "midi": 60,
                  "name": "C4",
                  "ticks": 2644800,
                  "time": 85.6477155,
                  "velocity": 0.7952755905511811
              },
              {
                  "duration": 0.11658037499999807,
                  "durationTicks": 3600,
                  "midi": 38,
                  "name": "D2",
                  "ticks": 2649600,
                  "time": 85.803156,
                  "velocity": 0.7716535433070866
              },
              {
                  "duration": 0.11658037499999807,
                  "durationTicks": 3600,
                  "midi": 65,
                  "name": "F4",
                  "ticks": 2649600,
                  "time": 85.803156,
                  "velocity": 0.6456692913385826
              },
              {
                  "duration": 0.03886012499999936,
                  "durationTicks": 1200,
                  "midi": 81,
                  "name": "A5",
                  "ticks": 2649600,
                  "time": 85.803156,
                  "velocity": 0.7716535433070866
              },
              {
                  "duration": 0.11658037500001228,
                  "durationTicks": 3600,
                  "midi": 38,
                  "name": "D2",
                  "ticks": 2654400,
                  "time": 85.9585965,
                  "velocity": 0.7007874015748031
              },
              {
                  "duration": 0.11658037500001228,
                  "durationTicks": 3600,
                  "midi": 65,
                  "name": "F4",
                  "ticks": 2654400,
                  "time": 85.9585965,
                  "velocity": 0.5669291338582677
              },
              {
                  "duration": 0.11658037500001228,
                  "durationTicks": 3600,
                  "midi": 84,
                  "name": "C6",
                  "ticks": 2654400,
                  "time": 85.9585965,
                  "velocity": 0.7244094488188977
              },
              {
                  "duration": 0.07772024999999871,
                  "durationTicks": 2400,
                  "midi": 38,
                  "name": "D2",
                  "ticks": 2659200,
                  "time": 86.11403700000001,
                  "velocity": 0.7716535433070866
              },
              {
                  "duration": 0.11658037499999807,
                  "durationTicks": 3600,
                  "midi": 65,
                  "name": "F4",
                  "ticks": 2659200,
                  "time": 86.11403700000001,
                  "velocity": 0.6456692913385826
              },
              {
                  "duration": 0.011075135624992072,
                  "durationTicks": 342,
                  "midi": 84,
                  "name": "C6",
                  "ticks": 2659200,
                  "time": 86.11403700000001,
                  "velocity": 0.7874015748031497
              },
              {
                  "duration": 0.11658037499999807,
                  "durationTicks": 3600,
                  "midi": 86,
                  "name": "D6",
                  "ticks": 2659200,
                  "time": 86.11403700000001,
                  "velocity": 0.7165354330708661
              },
              {
                  "duration": 0.03886012499999936,
                  "durationTicks": 1200,
                  "midi": 65,
                  "name": "F4",
                  "ticks": 2664000,
                  "time": 86.26947750000001,
                  "velocity": 0.5669291338582677
              },
              {
                  "duration": 0.11658037499999807,
                  "durationTicks": 3600,
                  "midi": 84,
                  "name": "C6",
                  "ticks": 2664000,
                  "time": 86.26947750000001,
                  "velocity": 0.7244094488188977
              },
              {
                  "duration": 0.07772024999999871,
                  "durationTicks": 2400,
                  "midi": 84,
                  "name": "C6",
                  "ticks": 2668800,
                  "time": 86.424918,
                  "velocity": 0.7874015748031497
              },
              {
                  "duration": 0.07772024999999871,
                  "durationTicks": 2400,
                  "midi": 38,
                  "name": "D2",
                  "ticks": 2673600,
                  "time": 86.5803585,
                  "velocity": 0.7401574803149606
              },
              {
                  "duration": 0.03886012499999936,
                  "durationTicks": 1200,
                  "midi": 81,
                  "name": "A5",
                  "ticks": 2673600,
                  "time": 86.5803585,
                  "velocity": 0.6535433070866141
              },
              {
                  "duration": 0.15544049999999743,
                  "durationTicks": 4800,
                  "midi": 34,
                  "name": "A#1",
                  "ticks": 2683200,
                  "time": 86.89123950000001,
                  "velocity": 0.7874015748031497
              },
              {
                  "duration": 0.07772024999999871,
                  "durationTicks": 2400,
                  "midi": 79,
                  "name": "G5",
                  "ticks": 2683200,
                  "time": 86.89123950000001,
                  "velocity": 0.7086614173228346
              },
              {
                  "duration": 0.11658037499999807,
                  "durationTicks": 3600,
                  "midi": 34,
                  "name": "A#1",
                  "ticks": 2688000,
                  "time": 87.04668000000001,
                  "velocity": 0.8346456692913385
              },
              {
                  "duration": 0.11658037499999807,
                  "durationTicks": 3600,
                  "midi": 34,
                  "name": "A#1",
                  "ticks": 2692800,
                  "time": 87.2021205,
                  "velocity": 0.7559055118110236
              },
              {
                  "duration": 0.03886012499999936,
                  "durationTicks": 1200,
                  "midi": 81,
                  "name": "A5",
                  "ticks": 2692800,
                  "time": 87.2021205,
                  "velocity": 0.7716535433070866
              },
              {
                  "duration": 0.11658037499999807,
                  "durationTicks": 3600,
                  "midi": 34,
                  "name": "A#1",
                  "ticks": 2697600,
                  "time": 87.357561,
                  "velocity": 0.8346456692913385
              },
              {
                  "duration": 0.11658037499999807,
                  "durationTicks": 3600,
                  "midi": 53,
                  "name": "F3",
                  "ticks": 2697600,
                  "time": 87.357561,
                  "velocity": 0.6141732283464567
              },
              {
                  "duration": 0.03886012499999936,
                  "durationTicks": 1200,
                  "midi": 79,
                  "name": "G5",
                  "ticks": 2697600,
                  "time": 87.357561,
                  "velocity": 0.7795275590551181
              },
              {
                  "duration": 0.11658037499999807,
                  "durationTicks": 3600,
                  "midi": 34,
                  "name": "A#1",
                  "ticks": 2702400,
                  "time": 87.5130015,
                  "velocity": 0.7559055118110236
              },
              {
                  "duration": 0.07772024999999871,
                  "durationTicks": 2400,
                  "midi": 53,
                  "name": "F3",
                  "ticks": 2702400,
                  "time": 87.5130015,
                  "velocity": 0.5354330708661418
              },
              {
                  "duration": 0.11658037499999807,
                  "durationTicks": 3600,
                  "midi": 65,
                  "name": "F4",
                  "ticks": 2702400,
                  "time": 87.5130015,
                  "velocity": 0.5196850393700787
              },
              {
                  "duration": 0.07772024999999871,
                  "durationTicks": 2400,
                  "midi": 77,
                  "name": "F5",
                  "ticks": 2702400,
                  "time": 87.5130015,
                  "velocity": 0.6929133858267716
              },
              {
                  "duration": 0.07772025000001292,
                  "durationTicks": 2400,
                  "midi": 34,
                  "name": "A#1",
                  "ticks": 2707200,
                  "time": 87.668442,
                  "velocity": 0.8346456692913385
              },
              {
                  "duration": 0.07772025000001292,
                  "durationTicks": 2400,
                  "midi": 65,
                  "name": "F4",
                  "ticks": 2707200,
                  "time": 87.668442,
                  "velocity": 0.5984251968503937
              },
              {
                  "duration": 0.07772025000001292,
                  "durationTicks": 2400,
                  "midi": 79,
                  "name": "G5",
                  "ticks": 2707200,
                  "time": 87.668442,
                  "velocity": 0.7874015748031497
              },
              {
                  "duration": 0.07772024999999871,
                  "durationTicks": 2400,
                  "midi": 77,
                  "name": "F5",
                  "ticks": 2712000,
                  "time": 87.82388250000001,
                  "velocity": 0.6771653543307087
              },
              {
                  "duration": 0.07772024999999871,
                  "durationTicks": 2400,
                  "midi": 74,
                  "name": "D5",
                  "ticks": 2716800,
                  "time": 87.97932300000001,
                  "velocity": 0.8346456692913385
              },
              {
                  "duration": 0.07772024999999871,
                  "durationTicks": 2400,
                  "midi": 72,
                  "name": "C5",
                  "ticks": 2721600,
                  "time": 88.1347635,
                  "velocity": 0.8031496062992126
              },
              {
                  "duration": 0.11658037499999807,
                  "durationTicks": 3600,
                  "midi": 31,
                  "name": "G1",
                  "ticks": 2726400,
                  "time": 88.290204,
                  "velocity": 0.8346456692913385
              },
              {
                  "duration": 0.07772024999999871,
                  "durationTicks": 2400,
                  "midi": 74,
                  "name": "D5",
                  "ticks": 2726400,
                  "time": 88.290204,
                  "velocity": 0.8110236220472441
              },
              {
                  "duration": 0.11658037499999807,
                  "durationTicks": 3600,
                  "midi": 31,
                  "name": "G1",
                  "ticks": 2731200,
                  "time": 88.4456445,
                  "velocity": 0.7559055118110236
              },
              {
                  "duration": 0.07772024999999871,
                  "durationTicks": 2400,
                  "midi": 77,
                  "name": "F5",
                  "ticks": 2731200,
                  "time": 88.4456445,
                  "velocity": 0.7401574803149606
              },
              {
                  "duration": 0.07772024999999871,
                  "durationTicks": 2400,
                  "midi": 31,
                  "name": "G1",
                  "ticks": 2736000,
                  "time": 88.60108500000001,
                  "velocity": 0.8346456692913385
              },
              {
                  "duration": 0.03886012499999936,
                  "durationTicks": 1200,
                  "midi": 79,
                  "name": "G5",
                  "ticks": 2736000,
                  "time": 88.60108500000001,
                  "velocity": 0.8110236220472441
              },
              {
                  "duration": 0.11658037499999807,
                  "durationTicks": 3600,
                  "midi": 33,
                  "name": "A1",
                  "ticks": 2740800,
                  "time": 88.75652550000001,
                  "velocity": 0.7716535433070866
              },
              {
                  "duration": 0.03886012499999936,
                  "durationTicks": 1200,
                  "midi": 77,
                  "name": "F5",
                  "ticks": 2740800,
                  "time": 88.75652550000001,
                  "velocity": 0.7165354330708661
              },
              {
                  "duration": 0.07772024999999871,
                  "durationTicks": 2400,
                  "midi": 33,
                  "name": "A1",
                  "ticks": 2745600,
                  "time": 88.911966,
                  "velocity": 0.8346456692913385
              },
              {
                  "duration": 0.07772024999999871,
                  "durationTicks": 2400,
                  "midi": 33,
                  "name": "A1",
                  "ticks": 2750400,
                  "time": 89.0674065,
                  "velocity": 0.7716535433070866
              },
              {
                  "duration": 0.07772024999999871,
                  "durationTicks": 2400,
                  "midi": 79,
                  "name": "G5",
                  "ticks": 2750400,
                  "time": 89.0674065,
                  "velocity": 0.7559055118110236
              },
              {
                  "duration": 0.11658037499999807,
                  "durationTicks": 3600,
                  "midi": 34,
                  "name": "A#1",
                  "ticks": 2755200,
                  "time": 89.222847,
                  "velocity": 0.8582677165354331
              },
              {
                  "duration": 0.03886012499999936,
                  "durationTicks": 1200,
                  "midi": 81,
                  "name": "A5",
                  "ticks": 2755200,
                  "time": 89.222847,
                  "velocity": 0.8110236220472441
              },
              {
                  "duration": 0.11658037500001228,
                  "durationTicks": 3600,
                  "midi": 34,
                  "name": "A#1",
                  "ticks": 2760000,
                  "time": 89.3782875,
                  "velocity": 0.8031496062992126
              },
              {
                  "duration": 0.03886012499999936,
                  "durationTicks": 1200,
                  "midi": 84,
                  "name": "C6",
                  "ticks": 2760000,
                  "time": 89.3782875,
                  "velocity": 0.7086614173228346
              },
              {
                  "duration": 0.11658037499999807,
                  "durationTicks": 3600,
                  "midi": 36,
                  "name": "C2",
                  "ticks": 2769600,
                  "time": 89.68916850000001,
                  "velocity": 0.8031496062992126
              },
              {
                  "duration": 0.11658037499999807,
                  "durationTicks": 3600,
                  "midi": 36,
                  "name": "C2",
                  "ticks": 2774400,
                  "time": 89.844609,
                  "velocity": 0.8661417322834646
              },
              {
                  "duration": 0.03886012499999936,
                  "durationTicks": 1200,
                  "midi": 84,
                  "name": "C6",
                  "ticks": 2774400,
                  "time": 89.844609,
                  "velocity": 0.7874015748031497
              },
              {
                  "duration": 0.07772024999999871,
                  "durationTicks": 2400,
                  "midi": 81,
                  "name": "A5",
                  "ticks": 2779200,
                  "time": 90.0000495,
                  "velocity": 0.7559055118110236
              },
              {
                  "duration": 0.07772024999999871,
                  "durationTicks": 2400,
                  "midi": 36,
                  "name": "C2",
                  "ticks": 2784000,
                  "time": 90.15549,
                  "velocity": 0.84251968503937
              },
              {
                  "duration": 0.07772024999999871,
                  "durationTicks": 2400,
                  "midi": 67,
                  "name": "G4",
                  "ticks": 2784000,
                  "time": 90.15549,
                  "velocity": 0.84251968503937
              },
              {
                  "duration": 0.07772024999999871,
                  "durationTicks": 2400,
                  "midi": 77,
                  "name": "F5",
                  "ticks": 2788800,
                  "time": 90.31093050000001,
                  "velocity": 0.7716535433070866
              },
              {
                  "duration": 0.11658037499999807,
                  "durationTicks": 3600,
                  "midi": 36,
                  "name": "C2",
                  "ticks": 2793600,
                  "time": 90.46637100000001,
                  "velocity": 0.8503937007874016
              },
              {
                  "duration": 0.07772024999999871,
                  "durationTicks": 2400,
                  "midi": 74,
                  "name": "D5",
                  "ticks": 2793600,
                  "time": 90.46637100000001,
                  "velocity": 0.8110236220472441
              },
              {
                  "duration": 0.009974098749992777,
                  "durationTicks": 308,
                  "midi": 36,
                  "name": "C2",
                  "ticks": 2798400,
                  "time": 90.6218115,
                  "velocity": 0.7952755905511811
              },
              {
                  "duration": 0.07772024999999871,
                  "durationTicks": 2400,
                  "midi": 72,
                  "name": "C5",
                  "ticks": 2798400,
                  "time": 90.6218115,
                  "velocity": 0.7086614173228346
              },
              {
                  "duration": 0.11658037499999807,
                  "durationTicks": 3600,
                  "midi": 41,
                  "name": "F2",
                  "ticks": 2803200,
                  "time": 90.777252,
                  "velocity": 0.7637795275590551
              },
              {
                  "duration": 0.11658037499999807,
                  "durationTicks": 3600,
                  "midi": 48,
                  "name": "C3",
                  "ticks": 2803200,
                  "time": 90.777252,
                  "velocity": 0.6535433070866141
              },
              {
                  "duration": 0.11658037499999807,
                  "durationTicks": 3600,
                  "midi": 57,
                  "name": "A3",
                  "ticks": 2803200,
                  "time": 90.777252,
                  "velocity": 0.7559055118110236
              },
              {
                  "duration": 0.11658037499999807,
                  "durationTicks": 3600,
                  "midi": 41,
                  "name": "F2",
                  "ticks": 2808000,
                  "time": 90.9326925,
                  "velocity": 0.6929133858267716
              },
              {
                  "duration": 0.07772024999999871,
                  "durationTicks": 2400,
                  "midi": 48,
                  "name": "C3",
                  "ticks": 2808000,
                  "time": 90.9326925,
                  "velocity": 0.5748031496062992
              },
              {
                  "duration": 0.11658037499999807,
                  "durationTicks": 3600,
                  "midi": 57,
                  "name": "A3",
                  "ticks": 2808000,
                  "time": 90.9326925,
                  "velocity": 0.6929133858267716
              },
              {
                  "duration": 0.11658037499999807,
                  "durationTicks": 3600,
                  "midi": 84,
                  "name": "C6",
                  "ticks": 2808000,
                  "time": 90.9326925,
                  "velocity": 0.6456692913385826
              },
              {
                  "duration": 0.03886012499999936,
                  "durationTicks": 1200,
                  "midi": 79,
                  "name": "G5",
                  "ticks": 2812800,
                  "time": 91.088133,
                  "velocity": 0.7559055118110236
              },
              {
                  "duration": 0.11658037499999807,
                  "durationTicks": 3600,
                  "midi": 29,
                  "name": "F1",
                  "ticks": 2817600,
                  "time": 91.24357350000001,
                  "velocity": 0.5905511811023622
              },
              {
                  "duration": 0.03886012499999936,
                  "durationTicks": 1200,
                  "midi": 81,
                  "name": "A5",
                  "ticks": 2817600,
                  "time": 91.24357350000001,
                  "velocity": 0.7086614173228346
              },
              {
                  "duration": 0.07772024999999871,
                  "durationTicks": 2400,
                  "midi": 29,
                  "name": "F1",
                  "ticks": 2822400,
                  "time": 91.39901400000001,
                  "velocity": 0.6614173228346457
              },
              {
                  "duration": 0.07772024999999871,
                  "durationTicks": 2400,
                  "midi": 29,
                  "name": "F1",
                  "ticks": 2827200,
                  "time": 91.5544545,
                  "velocity": 0.6692913385826772
              },
              {
                  "duration": 0.07772024999999871,
                  "durationTicks": 2400,
                  "midi": 41,
                  "name": "F2",
                  "ticks": 2827200,
                  "time": 91.5544545,
                  "velocity": 0.6771653543307087
              },
              {
                  "duration": 0.07772024999999871,
                  "durationTicks": 2400,
                  "midi": 57,
                  "name": "A3",
                  "ticks": 2827200,
                  "time": 91.5544545,
                  "velocity": 0.5669291338582677
              },
              {
                  "duration": 0.07772024999999871,
                  "durationTicks": 2400,
                  "midi": 77,
                  "name": "F5",
                  "ticks": 2827200,
                  "time": 91.5544545,
                  "velocity": 0.6456692913385826
              },
              {
                  "duration": 0.07772024999999871,
                  "durationTicks": 2400,
                  "midi": 29,
                  "name": "F1",
                  "ticks": 2832000,
                  "time": 91.709895,
                  "velocity": 0.7559055118110236
              },
              {
                  "duration": 0.15544050000001164,
                  "durationTicks": 4800,
                  "midi": 34,
                  "name": "A#1",
                  "ticks": 2836800,
                  "time": 91.8653355,
                  "velocity": 0.7874015748031497
              },
              {
                  "duration": 0.07772024999999871,
                  "durationTicks": 2400,
                  "midi": 74,
                  "name": "D5",
                  "ticks": 2836800,
                  "time": 91.8653355,
                  "velocity": 0.7952755905511811
              },
              {
                  "duration": 0.11658037499999807,
                  "durationTicks": 3600,
                  "midi": 34,
                  "name": "A#1",
                  "ticks": 2841600,
                  "time": 92.02077600000001,
                  "velocity": 0.8346456692913385
              },
              {
                  "duration": 0.11658037499999807,
                  "durationTicks": 3600,
                  "midi": 34,
                  "name": "A#1",
                  "ticks": 2846400,
                  "time": 92.17621650000001,
                  "velocity": 0.7716535433070866
              },
              {
                  "duration": 0.07772024999999871,
                  "durationTicks": 2400,
                  "midi": 77,
                  "name": "F5",
                  "ticks": 2846400,
                  "time": 92.17621650000001,
                  "velocity": 0.6771653543307087
              },
              {
                  "duration": 0.11658037499999807,
                  "durationTicks": 3600,
                  "midi": 34,
                  "name": "A#1",
                  "ticks": 2851200,
                  "time": 92.331657,
                  "velocity": 0.8346456692913385
              },
              {
                  "duration": 0.07772024999999871,
                  "durationTicks": 2400,
                  "midi": 74,
                  "name": "D5",
                  "ticks": 2851200,
                  "time": 92.331657,
                  "velocity": 0.8188976377952756
              },
              {
                  "duration": 0.11658037499999807,
                  "durationTicks": 3600,
                  "midi": 34,
                  "name": "A#1",
                  "ticks": 2856000,
                  "time": 92.4870975,
                  "velocity": 0.7716535433070866
              },
              {
                  "duration": 0.11658037499999807,
                  "durationTicks": 3600,
                  "midi": 53,
                  "name": "F3",
                  "ticks": 2856000,
                  "time": 92.4870975,
                  "velocity": 0.5196850393700787
              },
              {
                  "duration": 0.07772024999999871,
                  "durationTicks": 2400,
                  "midi": 72,
                  "name": "C5",
                  "ticks": 2856000,
                  "time": 92.4870975,
                  "velocity": 0.7086614173228346
              },
              {
                  "duration": 0.07772024999999871,
                  "durationTicks": 2400,
                  "midi": 34,
                  "name": "A#1",
                  "ticks": 2860800,
                  "time": 92.642538,
                  "velocity": 0.8346456692913385
              },
              {
                  "duration": 0.03886012499999936,
                  "durationTicks": 1200,
                  "midi": 53,
                  "name": "F3",
                  "ticks": 2860800,
                  "time": 92.642538,
                  "velocity": 0.5905511811023622
              },
              {
                  "duration": 0.07772024999999871,
                  "durationTicks": 2400,
                  "midi": 74,
                  "name": "D5",
                  "ticks": 2860800,
                  "time": 92.642538,
                  "velocity": 0.7637795275590551
              },
              {
                  "duration": 0.07772025000001292,
                  "durationTicks": 2400,
                  "midi": 34,
                  "name": "A#1",
                  "ticks": 2865600,
                  "time": 92.7979785,
                  "velocity": 0.7716535433070866
              },
              {
                  "duration": 0.07772025000001292,
                  "durationTicks": 2400,
                  "midi": 72,
                  "name": "C5",
                  "ticks": 2865600,
                  "time": 92.7979785,
                  "velocity": 0.7086614173228346
              },
              {
                  "duration": 0.03886012499999936,
                  "durationTicks": 1200,
                  "midi": 34,
                  "name": "A#1",
                  "ticks": 2870400,
                  "time": 92.95341900000001,
                  "velocity": 0.8503937007874016
              },
              {
                  "duration": 0.07772024999999871,
                  "durationTicks": 2400,
                  "midi": 69,
                  "name": "A4",
                  "ticks": 2870400,
                  "time": 92.95341900000001,
                  "velocity": 0.8346456692913385
              },
              {
                  "duration": 0.07772024999999871,
                  "durationTicks": 2400,
                  "midi": 67,
                  "name": "G4",
                  "ticks": 2875200,
                  "time": 93.10885950000001,
                  "velocity": 0.8031496062992126
              },
              {
                  "duration": 0.11658037499999807,
                  "durationTicks": 3600,
                  "midi": 31,
                  "name": "G1",
                  "ticks": 2880000,
                  "time": 93.2643,
                  "velocity": 0.6850393700787402
              },
              {
                  "duration": 0.11658037499999807,
                  "durationTicks": 3600,
                  "midi": 43,
                  "name": "G2",
                  "ticks": 2880000,
                  "time": 93.2643,
                  "velocity": 0.7322834645669292
              },
              {
                  "duration": 0.11658037499999807,
                  "durationTicks": 3600,
                  "midi": 58,
                  "name": "A#3",
                  "ticks": 2880000,
                  "time": 93.2643,
                  "velocity": 0.6771653543307087
              },
              {
                  "duration": 0.03886012499999936,
                  "durationTicks": 1200,
                  "midi": 69,
                  "name": "A4",
                  "ticks": 2880000,
                  "time": 93.2643,
                  "velocity": 0.7244094488188977
              },
              {
                  "duration": 0.11658037499999807,
                  "durationTicks": 3600,
                  "midi": 31,
                  "name": "G1",
                  "ticks": 2884800,
                  "time": 93.4197405,
                  "velocity": 0.6062992125984252
              },
              {
                  "duration": 0.07772024999999871,
                  "durationTicks": 2400,
                  "midi": 72,
                  "name": "C5",
                  "ticks": 2884800,
                  "time": 93.4197405,
                  "velocity": 0.7244094488188977
              },
              {
                  "duration": 0.07772024999999871,
                  "durationTicks": 2400,
                  "midi": 43,
                  "name": "G2",
                  "ticks": 2884800,
                  "time": 93.4197405,
                  "velocity": 0.6614173228346457
              },
              {
                  "duration": 0.11658037499999807,
                  "durationTicks": 3600,
                  "midi": 58,
                  "name": "A#3",
                  "ticks": 2884800,
                  "time": 93.4197405,
                  "velocity": 0.6062992125984252
              },
              {
                  "duration": 0.03886012499999936,
                  "durationTicks": 1200,
                  "midi": 31,
                  "name": "G1",
                  "ticks": 2889600,
                  "time": 93.575181,
                  "velocity": 0.6850393700787402
              },
              {
                  "duration": 0.03886012499999936,
                  "durationTicks": 1200,
                  "midi": 58,
                  "name": "A#3",
                  "ticks": 2889600,
                  "time": 93.575181,
                  "velocity": 0.6771653543307087
              },
              {
                  "duration": 0.07772024999999871,
                  "durationTicks": 2400,
                  "midi": 74,
                  "name": "D5",
                  "ticks": 2889600,
                  "time": 93.575181,
                  "velocity": 0.7716535433070866
              },
              {
                  "duration": 0.07772024999999871,
                  "durationTicks": 2400,
                  "midi": 72,
                  "name": "C5",
                  "ticks": 2894400,
                  "time": 93.73062150000001,
                  "velocity": 0.7244094488188977
              },
              {
                  "duration": 0.07772024999999871,
                  "durationTicks": 2400,
                  "midi": 31,
                  "name": "G1",
                  "ticks": 2904000,
                  "time": 94.0415025,
                  "velocity": 0.7716535433070866
              },
              {
                  "duration": 0.07772024999999871,
                  "durationTicks": 2400,
                  "midi": 69,
                  "name": "A4",
                  "ticks": 2904000,
                  "time": 94.0415025,
                  "velocity": 0.6771653543307087
              },
              {
                  "duration": 0.11658037499999807,
                  "durationTicks": 3600,
                  "midi": 36,
                  "name": "C2",
                  "ticks": 2913600,
                  "time": 94.3523835,
                  "velocity": 0.8188976377952756
              },
              {
                  "duration": 0.07772024999999871,
                  "durationTicks": 2400,
                  "midi": 67,
                  "name": "G4",
                  "ticks": 2913600,
                  "time": 94.3523835,
                  "velocity": 0.8188976377952756
              },
              {
                  "duration": 0.11658037500001228,
                  "durationTicks": 3600,
                  "midi": 36,
                  "name": "C2",
                  "ticks": 2918400,
                  "time": 94.507824,
                  "velocity": 0.8661417322834646
              },
              {
                  "duration": 0.11658037499999807,
                  "durationTicks": 3600,
                  "midi": 36,
                  "name": "C2",
                  "ticks": 2923200,
                  "time": 94.66326450000001,
                  "velocity": 0.8031496062992126
              },
              {
                  "duration": 0.07772024999999871,
                  "durationTicks": 2400,
                  "midi": 69,
                  "name": "A4",
                  "ticks": 2923200,
                  "time": 94.66326450000001,
                  "velocity": 0.8031496062992126
              },
              {
                  "duration": 0.11658037499999807,
                  "durationTicks": 3600,
                  "midi": 36,
                  "name": "C2",
                  "ticks": 2928000,
                  "time": 94.81870500000001,
                  "velocity": 0.8661417322834646
              },
              {
                  "duration": 0.07772024999999871,
                  "durationTicks": 2400,
                  "midi": 67,
                  "name": "G4",
                  "ticks": 2928000,
                  "time": 94.81870500000001,
                  "velocity": 0.8346456692913385
              },
              {
                  "duration": 0.07772024999999871,
                  "durationTicks": 2400,
                  "midi": 36,
                  "name": "C2",
                  "ticks": 2932800,
                  "time": 94.9741455,
                  "velocity": 0.8031496062992126
              },
              {
                  "duration": 0.07772024999999871,
                  "durationTicks": 2400,
                  "midi": 65,
                  "name": "F4",
                  "ticks": 2932800,
                  "time": 94.9741455,
                  "velocity": 0.7637795275590551
              },
              {
                  "duration": 0.07772024999999871,
                  "durationTicks": 2400,
                  "midi": 67,
                  "name": "G4",
                  "ticks": 2937600,
                  "time": 95.129586,
                  "velocity": 0.8031496062992126
              },
              {
                  "duration": 0.07772024999999871,
                  "durationTicks": 2400,
                  "midi": 65,
                  "name": "F4",
                  "ticks": 2942400,
                  "time": 95.2850265,
                  "velocity": 0.7244094488188977
              },
              {
                  "duration": 0.07772024999999871,
                  "durationTicks": 2400,
                  "midi": 62,
                  "name": "D4",
                  "ticks": 2947200,
                  "time": 95.44046700000001,
                  "velocity": 0.8346456692913385
              },
              {
                  "duration": 0.07772024999999871,
                  "durationTicks": 2400,
                  "midi": 60,
                  "name": "C4",
                  "ticks": 2952000,
                  "time": 95.59590750000001,
                  "velocity": 0.7952755905511811
              },
              {
                  "duration": 0.11658037499999807,
                  "durationTicks": 3600,
                  "midi": 38,
                  "name": "D2",
                  "ticks": 2956800,
                  "time": 95.75134800000001,
                  "velocity": 0.7716535433070866
              },
              {
                  "duration": 0.11658037499999807,
                  "durationTicks": 3600,
                  "midi": 65,
                  "name": "F4",
                  "ticks": 2956800,
                  "time": 95.75134800000001,
                  "velocity": 0.6456692913385826
              },
              {
                  "duration": 0.03886012499999936,
                  "durationTicks": 1200,
                  "midi": 81,
                  "name": "A5",
                  "ticks": 2956800,
                  "time": 95.75134800000001,
                  "velocity": 0.7716535433070866
              },
              {
                  "duration": 0.11658037499999807,
                  "durationTicks": 3600,
                  "midi": 38,
                  "name": "D2",
                  "ticks": 2961600,
                  "time": 95.9067885,
                  "velocity": 0.7007874015748031
              },
              {
                  "duration": 0.11658037499999807,
                  "durationTicks": 3600,
                  "midi": 65,
                  "name": "F4",
                  "ticks": 2961600,
                  "time": 95.9067885,
                  "velocity": 0.5669291338582677
              },
              {
                  "duration": 0.11658037499999807,
                  "durationTicks": 3600,
                  "midi": 84,
                  "name": "C6",
                  "ticks": 2961600,
                  "time": 95.9067885,
                  "velocity": 0.7244094488188977
              },
              {
                  "duration": 0.07772024999999871,
                  "durationTicks": 2400,
                  "midi": 38,
                  "name": "D2",
                  "ticks": 2966400,
                  "time": 96.062229,
                  "velocity": 0.7716535433070866
              },
              {
                  "duration": 0.11658037499999807,
                  "durationTicks": 3600,
                  "midi": 65,
                  "name": "F4",
                  "ticks": 2966400,
                  "time": 96.062229,
                  "velocity": 0.6456692913385826
              },
              {
                  "duration": 0.011075135624992072,
                  "durationTicks": 342,
                  "midi": 84,
                  "name": "C6",
                  "ticks": 2966400,
                  "time": 96.062229,
                  "velocity": 0.7874015748031497
              },
              {
                  "duration": 0.11658037499999807,
                  "durationTicks": 3600,
                  "midi": 86,
                  "name": "D6",
                  "ticks": 2966400,
                  "time": 96.062229,
                  "velocity": 0.7165354330708661
              },
              {
                  "duration": 0.03886012499999936,
                  "durationTicks": 1200,
                  "midi": 65,
                  "name": "F4",
                  "ticks": 2971200,
                  "time": 96.2176695,
                  "velocity": 0.5669291338582677
              },
              {
                  "duration": 0.11658037500001228,
                  "durationTicks": 3600,
                  "midi": 84,
                  "name": "C6",
                  "ticks": 2971200,
                  "time": 96.2176695,
                  "velocity": 0.7244094488188977
              },
              {
                  "duration": 0.07772024999999871,
                  "durationTicks": 2400,
                  "midi": 84,
                  "name": "C6",
                  "ticks": 2976000,
                  "time": 96.37311000000001,
                  "velocity": 0.7874015748031497
              },
              {
                  "duration": 0.07772024999999871,
                  "durationTicks": 2400,
                  "midi": 38,
                  "name": "D2",
                  "ticks": 2980800,
                  "time": 96.52855050000001,
                  "velocity": 0.7401574803149606
              },
              {
                  "duration": 0.03886012499999936,
                  "durationTicks": 1200,
                  "midi": 81,
                  "name": "A5",
                  "ticks": 2980800,
                  "time": 96.52855050000001,
                  "velocity": 0.6535433070866141
              },
              {
                  "duration": 0.15544049999999743,
                  "durationTicks": 4800,
                  "midi": 34,
                  "name": "A#1",
                  "ticks": 2990400,
                  "time": 96.8394315,
                  "velocity": 0.7874015748031497
              },
              {
                  "duration": 0.07772024999999871,
                  "durationTicks": 2400,
                  "midi": 79,
                  "name": "G5",
                  "ticks": 2990400,
                  "time": 96.8394315,
                  "velocity": 0.7086614173228346
              },
              {
                  "duration": 0.11658037499999807,
                  "durationTicks": 3600,
                  "midi": 34,
                  "name": "A#1",
                  "ticks": 2995200,
                  "time": 96.994872,
                  "velocity": 0.8346456692913385
              },
              {
                  "duration": 0.11658037499999807,
                  "durationTicks": 3600,
                  "midi": 34,
                  "name": "A#1",
                  "ticks": 3000000,
                  "time": 97.15031250000001,
                  "velocity": 0.7559055118110236
              },
              {
                  "duration": 0.03886012499999936,
                  "durationTicks": 1200,
                  "midi": 81,
                  "name": "A5",
                  "ticks": 3000000,
                  "time": 97.15031250000001,
                  "velocity": 0.7716535433070866
              },
              {
                  "duration": 0.11658037499999807,
                  "durationTicks": 3600,
                  "midi": 34,
                  "name": "A#1",
                  "ticks": 3004800,
                  "time": 97.30575300000001,
                  "velocity": 0.8346456692913385
              },
              {
                  "duration": 0.11658037499999807,
                  "durationTicks": 3600,
                  "midi": 53,
                  "name": "F3",
                  "ticks": 3004800,
                  "time": 97.30575300000001,
                  "velocity": 0.6141732283464567
              },
              {
                  "duration": 0.03886012499999936,
                  "durationTicks": 1200,
                  "midi": 79,
                  "name": "G5",
                  "ticks": 3004800,
                  "time": 97.30575300000001,
                  "velocity": 0.7795275590551181
              },
              {
                  "duration": 0.11658037499999807,
                  "durationTicks": 3600,
                  "midi": 34,
                  "name": "A#1",
                  "ticks": 3009600,
                  "time": 97.46119350000001,
                  "velocity": 0.7559055118110236
              },
              {
                  "duration": 0.07772024999999871,
                  "durationTicks": 2400,
                  "midi": 77,
                  "name": "F5",
                  "ticks": 3009600,
                  "time": 97.46119350000001,
                  "velocity": 0.6929133858267716
              },
              {
                  "duration": 0.07772024999999871,
                  "durationTicks": 2400,
                  "midi": 53,
                  "name": "F3",
                  "ticks": 3009600,
                  "time": 97.46119350000001,
                  "velocity": 0.5354330708661418
              },
              {
                  "duration": 0.11658037499999807,
                  "durationTicks": 3600,
                  "midi": 65,
                  "name": "F4",
                  "ticks": 3009600,
                  "time": 97.46119350000001,
                  "velocity": 0.5196850393700787
              },
              {
                  "duration": 0.07772024999999871,
                  "durationTicks": 2400,
                  "midi": 34,
                  "name": "A#1",
                  "ticks": 3014400,
                  "time": 97.616634,
                  "velocity": 0.8346456692913385
              },
              {
                  "duration": 0.07772024999999871,
                  "durationTicks": 2400,
                  "midi": 65,
                  "name": "F4",
                  "ticks": 3014400,
                  "time": 97.616634,
                  "velocity": 0.5984251968503937
              },
              {
                  "duration": 0.07772024999999871,
                  "durationTicks": 2400,
                  "midi": 79,
                  "name": "G5",
                  "ticks": 3014400,
                  "time": 97.616634,
                  "velocity": 0.7874015748031497
              },
              {
                  "duration": 0.07772024999999871,
                  "durationTicks": 2400,
                  "midi": 77,
                  "name": "F5",
                  "ticks": 3019200,
                  "time": 97.7720745,
                  "velocity": 0.6771653543307087
              },
              {
                  "duration": 0.07772025000001292,
                  "durationTicks": 2400,
                  "midi": 74,
                  "name": "D5",
                  "ticks": 3024000,
                  "time": 97.927515,
                  "velocity": 0.8346456692913385
              },
              {
                  "duration": 0.07772024999999871,
                  "durationTicks": 2400,
                  "midi": 72,
                  "name": "C5",
                  "ticks": 3028800,
                  "time": 98.08295550000001,
                  "velocity": 0.8031496062992126
              },
              {
                  "duration": 0.11658037499999807,
                  "durationTicks": 3600,
                  "midi": 31,
                  "name": "G1",
                  "ticks": 3033600,
                  "time": 98.23839600000001,
                  "velocity": 0.8346456692913385
              },
              {
                  "duration": 0.07772024999999871,
                  "durationTicks": 2400,
                  "midi": 74,
                  "name": "D5",
                  "ticks": 3033600,
                  "time": 98.23839600000001,
                  "velocity": 0.8110236220472441
              },
              {
                  "duration": 0.11658037499999807,
                  "durationTicks": 3600,
                  "midi": 31,
                  "name": "G1",
                  "ticks": 3038400,
                  "time": 98.3938365,
                  "velocity": 0.7559055118110236
              },
              {
                  "duration": 0.07772024999999871,
                  "durationTicks": 2400,
                  "midi": 77,
                  "name": "F5",
                  "ticks": 3038400,
                  "time": 98.3938365,
                  "velocity": 0.7401574803149606
              },
              {
                  "duration": 0.07772024999999871,
                  "durationTicks": 2400,
                  "midi": 31,
                  "name": "G1",
                  "ticks": 3043200,
                  "time": 98.549277,
                  "velocity": 0.8346456692913385
              },
              {
                  "duration": 0.03886012499999936,
                  "durationTicks": 1200,
                  "midi": 79,
                  "name": "G5",
                  "ticks": 3043200,
                  "time": 98.549277,
                  "velocity": 0.8110236220472441
              },
              {
                  "duration": 0.11658037499999807,
                  "durationTicks": 3600,
                  "midi": 33,
                  "name": "A1",
                  "ticks": 3048000,
                  "time": 98.7047175,
                  "velocity": 0.7716535433070866
              },
              {
                  "duration": 0.03886012499999936,
                  "durationTicks": 1200,
                  "midi": 77,
                  "name": "F5",
                  "ticks": 3048000,
                  "time": 98.7047175,
                  "velocity": 0.7165354330708661
              },
              {
                  "duration": 0.07772024999999871,
                  "durationTicks": 2400,
                  "midi": 33,
                  "name": "A1",
                  "ticks": 3052800,
                  "time": 98.86015800000001,
                  "velocity": 0.8346456692913385
              },
              {
                  "duration": 0.07772024999999871,
                  "durationTicks": 2400,
                  "midi": 33,
                  "name": "A1",
                  "ticks": 3057600,
                  "time": 99.01559850000001,
                  "velocity": 0.7716535433070866
              },
              {
                  "duration": 0.07772024999999871,
                  "durationTicks": 2400,
                  "midi": 79,
                  "name": "G5",
                  "ticks": 3057600,
                  "time": 99.01559850000001,
                  "velocity": 0.7559055118110236
              },
              {
                  "duration": 0.11658037499999807,
                  "durationTicks": 3600,
                  "midi": 34,
                  "name": "A#1",
                  "ticks": 3062400,
                  "time": 99.17103900000001,
                  "velocity": 0.8582677165354331
              },
              {
                  "duration": 0.03886012499999936,
                  "durationTicks": 1200,
                  "midi": 81,
                  "name": "A5",
                  "ticks": 3062400,
                  "time": 99.17103900000001,
                  "velocity": 0.8110236220472441
              },
              {
                  "duration": 0.11658037499999807,
                  "durationTicks": 3600,
                  "midi": 34,
                  "name": "A#1",
                  "ticks": 3067200,
                  "time": 99.3264795,
                  "velocity": 0.8031496062992126
              },
              {
                  "duration": 0.03886012499999936,
                  "durationTicks": 1200,
                  "midi": 84,
                  "name": "C6",
                  "ticks": 3067200,
                  "time": 99.3264795,
                  "velocity": 0.7086614173228346
              },
              {
                  "duration": 0.11658037500001228,
                  "durationTicks": 3600,
                  "midi": 36,
                  "name": "C2",
                  "ticks": 3076800,
                  "time": 99.6373605,
                  "velocity": 0.8031496062992126
              },
              {
                  "duration": 0.11658037499999807,
                  "durationTicks": 3600,
                  "midi": 36,
                  "name": "C2",
                  "ticks": 3081600,
                  "time": 99.79280100000001,
                  "velocity": 0.8661417322834646
              },
              {
                  "duration": 0.03886012499999936,
                  "durationTicks": 1200,
                  "midi": 84,
                  "name": "C6",
                  "ticks": 3081600,
                  "time": 99.79280100000001,
                  "velocity": 0.7874015748031497
              },
              {
                  "duration": 0.07772024999999871,
                  "durationTicks": 2400,
                  "midi": 81,
                  "name": "A5",
                  "ticks": 3086400,
                  "time": 99.94824150000001,
                  "velocity": 0.7559055118110236
              },
              {
                  "duration": 0.07772024999999871,
                  "durationTicks": 2400,
                  "midi": 36,
                  "name": "C2",
                  "ticks": 3091200,
                  "time": 100.103682,
                  "velocity": 0.84251968503937
              },
              {
                  "duration": 0.07772024999999871,
                  "durationTicks": 2400,
                  "midi": 67,
                  "name": "G4",
                  "ticks": 3091200,
                  "time": 100.103682,
                  "velocity": 0.84251968503937
              },
              {
                  "duration": 0.07772024999999871,
                  "durationTicks": 2400,
                  "midi": 77,
                  "name": "F5",
                  "ticks": 3096000,
                  "time": 100.2591225,
                  "velocity": 0.7716535433070866
              },
              {
                  "duration": 0.11658037499999807,
                  "durationTicks": 3600,
                  "midi": 36,
                  "name": "C2",
                  "ticks": 3100800,
                  "time": 100.414563,
                  "velocity": 0.8503937007874016
              },
              {
                  "duration": 0.07772024999999871,
                  "durationTicks": 2400,
                  "midi": 74,
                  "name": "D5",
                  "ticks": 3100800,
                  "time": 100.414563,
                  "velocity": 0.8110236220472441
              },
              {
                  "duration": 0.009974098749992777,
                  "durationTicks": 308,
                  "midi": 36,
                  "name": "C2",
                  "ticks": 3105600,
                  "time": 100.57000350000001,
                  "velocity": 0.7952755905511811
              },
              {
                  "duration": 0.07772024999999871,
                  "durationTicks": 2400,
                  "midi": 72,
                  "name": "C5",
                  "ticks": 3105600,
                  "time": 100.57000350000001,
                  "velocity": 0.7086614173228346
              },
              {
                  "duration": 0.11658037499999807,
                  "durationTicks": 3600,
                  "midi": 34,
                  "name": "A#1",
                  "ticks": 3110400,
                  "time": 100.72544400000001,
                  "velocity": 0.7244094488188977
              },
              {
                  "duration": 0.11658037499999807,
                  "durationTicks": 3600,
                  "midi": 57,
                  "name": "A3",
                  "ticks": 3110400,
                  "time": 100.72544400000001,
                  "velocity": 0.6692913385826772
              },
              {
                  "duration": 0.11658037499999807,
                  "durationTicks": 3600,
                  "midi": 41,
                  "name": "F2",
                  "ticks": 3110400,
                  "time": 100.72544400000001,
                  "velocity": 0.6771653543307087
              },
              {
                  "duration": 0.11658037499999807,
                  "durationTicks": 3600,
                  "midi": 53,
                  "name": "F3",
                  "ticks": 3110400,
                  "time": 100.72544400000001,
                  "velocity": 0.6771653543307087
              },
              {
                  "duration": 0.11658037499999807,
                  "durationTicks": 3600,
                  "midi": 41,
                  "name": "F2",
                  "ticks": 3115200,
                  "time": 100.88088450000001,
                  "velocity": 0.5984251968503937
              },
              {
                  "duration": 0.11658037499999807,
                  "durationTicks": 3600,
                  "midi": 53,
                  "name": "F3",
                  "ticks": 3115200,
                  "time": 100.88088450000001,
                  "velocity": 0.5984251968503937
              },
              {
                  "duration": 0.03886012499999936,
                  "durationTicks": 1200,
                  "midi": 57,
                  "name": "A3",
                  "ticks": 3115200,
                  "time": 100.88088450000001,
                  "velocity": 0.5905511811023622
              },
              {
                  "duration": 0.11658037499999807,
                  "durationTicks": 3600,
                  "midi": 60,
                  "name": "C4",
                  "ticks": 3115200,
                  "time": 100.88088450000001,
                  "velocity": 0.5039370078740157
              },
              {
                  "duration": 0.03886012499999936,
                  "durationTicks": 1200,
                  "midi": 41,
                  "name": "F2",
                  "ticks": 3120000,
                  "time": 101.036325,
                  "velocity": 0.6771653543307087
              },
              {
                  "duration": 0.15544049999999743,
                  "durationTicks": 4800,
                  "midi": 60,
                  "name": "C4",
                  "ticks": 3120000,
                  "time": 101.036325,
                  "velocity": 0.5669291338582677
              },
              {
                  "duration": 0.15544049999999743,
                  "durationTicks": 4800,
                  "midi": 53,
                  "name": "F3",
                  "ticks": 3120000,
                  "time": 101.036325,
                  "velocity": 0.6771653543307087
              },
              {
                  "duration": 0.11658037499999807,
                  "durationTicks": 3600,
                  "midi": 41,
                  "name": "F2",
                  "ticks": 3124800,
                  "time": 101.1917655,
                  "velocity": 0.5511811023622047
              },
              {
                  "duration": 0.11658037499999807,
                  "durationTicks": 3600,
                  "midi": 60,
                  "name": "C4",
                  "ticks": 3124800,
                  "time": 101.1917655,
                  "velocity": 0.5039370078740157
              },
              {
                  "duration": 0.11658037499999807,
                  "durationTicks": 3600,
                  "midi": 53,
                  "name": "F3",
                  "ticks": 3124800,
                  "time": 101.1917655,
                  "velocity": 0.5984251968503937
              },
              {
                  "duration": 0.11658037499999807,
                  "durationTicks": 3600,
                  "midi": 57,
                  "name": "A3",
                  "ticks": 3124800,
                  "time": 101.1917655,
                  "velocity": 0.5511811023622047
              },
              {
                  "duration": 0.07772025000001292,
                  "durationTicks": 2400,
                  "midi": 41,
                  "name": "F2",
                  "ticks": 3129600,
                  "time": 101.347206,
                  "velocity": 0.6220472440944882
              },
              {
                  "duration": 0.07772025000001292,
                  "durationTicks": 2400,
                  "midi": 53,
                  "name": "F3",
                  "ticks": 3129600,
                  "time": 101.347206,
                  "velocity": 0.6771653543307087
              },
              {
                  "duration": 0.07772025000001292,
                  "durationTicks": 2400,
                  "midi": 57,
                  "name": "A3",
                  "ticks": 3129600,
                  "time": 101.347206,
                  "velocity": 0.6141732283464567
              },
              {
                  "duration": 0.07772025000001292,
                  "durationTicks": 2400,
                  "midi": 60,
                  "name": "C4",
                  "ticks": 3129600,
                  "time": 101.347206,
                  "velocity": 0.5669291338582677
              },
              {
                  "duration": 0.07772024999999871,
                  "durationTicks": 2400,
                  "midi": 53,
                  "name": "F3",
                  "ticks": 3134400,
                  "time": 101.50264650000001,
                  "velocity": 0.5984251968503937
              },
              {
                  "duration": 0.03886012499999936,
                  "durationTicks": 1200,
                  "midi": 57,
                  "name": "A3",
                  "ticks": 3134400,
                  "time": 101.50264650000001,
                  "velocity": 0.5511811023622047
              },
              {
                  "duration": 0.07772024999999871,
                  "durationTicks": 2400,
                  "midi": 60,
                  "name": "C4",
                  "ticks": 3134400,
                  "time": 101.50264650000001,
                  "velocity": 0.5039370078740157
              },
              {
                  "duration": 0.11658037499999807,
                  "durationTicks": 3600,
                  "midi": 53,
                  "name": "F3",
                  "ticks": 3139200,
                  "time": 101.65808700000001,
                  "velocity": 0.6850393700787402
              },
              {
                  "duration": 0.11658037499999807,
                  "durationTicks": 3600,
                  "midi": 57,
                  "name": "A3",
                  "ticks": 3139200,
                  "time": 101.65808700000001,
                  "velocity": 0.6299212598425197
              },
              {
                  "duration": 0.11658037499999807,
                  "durationTicks": 3600,
                  "midi": 60,
                  "name": "C4",
                  "ticks": 3139200,
                  "time": 101.65808700000001,
                  "velocity": 0.5826771653543307
              },
              {
                  "duration": 0.11658037499999807,
                  "durationTicks": 3600,
                  "midi": 65,
                  "name": "F4",
                  "ticks": 3139200,
                  "time": 101.65808700000001,
                  "velocity": 0.6535433070866141
              },
              {
                  "duration": 0.11658037499999807,
                  "durationTicks": 3600,
                  "midi": 53,
                  "name": "F3",
                  "ticks": 3144000,
                  "time": 101.8135275,
                  "velocity": 0.6299212598425197
              },
              {
                  "duration": 0.03886012499999936,
                  "durationTicks": 1200,
                  "midi": 57,
                  "name": "A3",
                  "ticks": 3144000,
                  "time": 101.8135275,
                  "velocity": 0.5669291338582677
              },
              {
                  "duration": 0.03886012499999936,
                  "durationTicks": 1200,
                  "midi": 60,
                  "name": "C4",
                  "ticks": 3144000,
                  "time": 101.8135275,
                  "velocity": 0.5196850393700787
              },
              {
                  "duration": 0.03886012499999936,
                  "durationTicks": 1200,
                  "midi": 65,
                  "name": "F4",
                  "ticks": 3144000,
                  "time": 101.8135275,
                  "velocity": 0.5984251968503937
              },
              {
                  "duration": 0.11658037499999807,
                  "durationTicks": 3600,
                  "midi": 46,
                  "name": "A#2",
                  "ticks": 3148800,
                  "time": 101.968968,
                  "velocity": 0.5354330708661418
              },
              {
                  "duration": 0.11658037499999807,
                  "durationTicks": 3600,
                  "midi": 53,
                  "name": "F3",
                  "ticks": 3148800,
                  "time": 101.968968,
                  "velocity": 0.6771653543307087
              },
              {
                  "duration": 0.11658037499999807,
                  "durationTicks": 3600,
                  "midi": 58,
                  "name": "A#3",
                  "ticks": 3148800,
                  "time": 101.968968,
                  "velocity": 0.6850393700787402
              },
              {
                  "duration": 0.11658037499999807,
                  "durationTicks": 3600,
                  "midi": 46,
                  "name": "A#2",
                  "ticks": 3153600,
                  "time": 102.1244085,
                  "velocity": 0.4645669291338583
              },
              {
                  "duration": 0.11658037499999807,
                  "durationTicks": 3600,
                  "midi": 53,
                  "name": "F3",
                  "ticks": 3153600,
                  "time": 102.1244085,
                  "velocity": 0.5984251968503937
              },
              {
                  "duration": 0.11658037499999807,
                  "durationTicks": 3600,
                  "midi": 58,
                  "name": "A#3",
                  "ticks": 3153600,
                  "time": 102.1244085,
                  "velocity": 0.6141732283464567
              },
              {
                  "duration": 0.15544049999999743,
                  "durationTicks": 4800,
                  "midi": 46,
                  "name": "A#2",
                  "ticks": 3158400,
                  "time": 102.27984900000001,
                  "velocity": 0.5354330708661418
              },
              {
                  "duration": 0.15544049999999743,
                  "durationTicks": 4800,
                  "midi": 58,
                  "name": "A#3",
                  "ticks": 3158400,
                  "time": 102.27984900000001,
                  "velocity": 0.6850393700787402
              },
              {
                  "duration": 0.15544049999999743,
                  "durationTicks": 4800,
                  "midi": 53,
                  "name": "F3",
                  "ticks": 3158400,
                  "time": 102.27984900000001,
                  "velocity": 0.6771653543307087
              },
              {
                  "duration": 0.03886012499999936,
                  "durationTicks": 1200,
                  "midi": 46,
                  "name": "A#2",
                  "ticks": 3163200,
                  "time": 102.43528950000001,
                  "velocity": 0.4645669291338583
              },
              {
                  "duration": 0.11658037499999807,
                  "durationTicks": 3600,
                  "midi": 53,
                  "name": "F3",
                  "ticks": 3163200,
                  "time": 102.43528950000001,
                  "velocity": 0.5984251968503937
              },
              {
                  "duration": 0.11658037499999807,
                  "durationTicks": 3600,
                  "midi": 58,
                  "name": "A#3",
                  "ticks": 3163200,
                  "time": 102.43528950000001,
                  "velocity": 0.6141732283464567
              },
              {
                  "duration": 0.11658037499999807,
                  "durationTicks": 3600,
                  "midi": 65,
                  "name": "F4",
                  "ticks": 3163200,
                  "time": 102.43528950000001,
                  "velocity": 0.5669291338582677
              },
              {
                  "duration": 0.07772024999999871,
                  "durationTicks": 2400,
                  "midi": 53,
                  "name": "F3",
                  "ticks": 3168000,
                  "time": 102.59073000000001,
                  "velocity": 0.6771653543307087
              },
              {
                  "duration": 0.07772024999999871,
                  "durationTicks": 2400,
                  "midi": 58,
                  "name": "A#3",
                  "ticks": 3168000,
                  "time": 102.59073000000001,
                  "velocity": 0.6850393700787402
              },
              {
                  "duration": 0.03886012499999936,
                  "durationTicks": 1200,
                  "midi": 65,
                  "name": "F4",
                  "ticks": 3168000,
                  "time": 102.59073000000001,
                  "velocity": 0.6456692913385826
              },
              {
                  "duration": 0.07772024999999871,
                  "durationTicks": 2400,
                  "midi": 53,
                  "name": "F3",
                  "ticks": 3172800,
                  "time": 102.7461705,
                  "velocity": 0.5984251968503937
              },
              {
                  "duration": 0.07772024999999871,
                  "durationTicks": 2400,
                  "midi": 58,
                  "name": "A#3",
                  "ticks": 3172800,
                  "time": 102.7461705,
                  "velocity": 0.6141732283464567
              },
              {
                  "duration": 0.11658037499999807,
                  "durationTicks": 3600,
                  "midi": 53,
                  "name": "F3",
                  "ticks": 3177600,
                  "time": 102.901611,
                  "velocity": 0.6850393700787402
              },
              {
                  "duration": 0.11658037499999807,
                  "durationTicks": 3600,
                  "midi": 58,
                  "name": "A#3",
                  "ticks": 3177600,
                  "time": 102.901611,
                  "velocity": 0.6929133858267716
              },
              {
                  "duration": 0.11658037499999807,
                  "durationTicks": 3600,
                  "midi": 62,
                  "name": "D4",
                  "ticks": 3177600,
                  "time": 102.901611,
                  "velocity": 0.5984251968503937
              },
              {
                  "duration": 0.11658037499999807,
                  "durationTicks": 3600,
                  "midi": 65,
                  "name": "F4",
                  "ticks": 3177600,
                  "time": 102.901611,
                  "velocity": 0.6456692913385826
              },
              {
                  "duration": 0.11658037500001228,
                  "durationTicks": 3600,
                  "midi": 53,
                  "name": "F3",
                  "ticks": 3182400,
                  "time": 103.0570515,
                  "velocity": 0.6299212598425197
              },
              {
                  "duration": 0.11658037500001228,
                  "durationTicks": 3600,
                  "midi": 58,
                  "name": "A#3",
                  "ticks": 3182400,
                  "time": 103.0570515,
                  "velocity": 0.6377952755905512
              },
              {
                  "duration": 0.018523326250004857,
                  "durationTicks": 572,
                  "midi": 62,
                  "name": "D4",
                  "ticks": 3182400,
                  "time": 103.0570515,
                  "velocity": 0.5433070866141733
              },
              {
                  "duration": 0.018523326250004857,
                  "durationTicks": 572,
                  "midi": 65,
                  "name": "F4",
                  "ticks": 3182400,
                  "time": 103.0570515,
                  "velocity": 0.5905511811023622
              },
              {
                  "duration": 0.11658037499999807,
                  "durationTicks": 3600,
                  "midi": 55,
                  "name": "G3",
                  "ticks": 3187200,
                  "time": 103.21249200000001,
                  "velocity": 0.6220472440944882
              },
              {
                  "duration": 0.11658037499999807,
                  "durationTicks": 3600,
                  "midi": 57,
                  "name": "A3",
                  "ticks": 3187200,
                  "time": 103.21249200000001,
                  "velocity": 0.6299212598425197
              },
              {
                  "duration": 0.11658037499999807,
                  "durationTicks": 3600,
                  "midi": 62,
                  "name": "D4",
                  "ticks": 3187200,
                  "time": 103.21249200000001,
                  "velocity": 0.5433070866141733
              },
              {
                  "duration": 0.11658037499999807,
                  "durationTicks": 3600,
                  "midi": 65,
                  "name": "F4",
                  "ticks": 3187200,
                  "time": 103.21249200000001,
                  "velocity": 0.5748031496062992
              },
              {
                  "duration": 0.11658037499999807,
                  "durationTicks": 3600,
                  "midi": 55,
                  "name": "G3",
                  "ticks": 3192000,
                  "time": 103.36793250000001,
                  "velocity": 0.5511811023622047
              },
              {
                  "duration": 0.11658037499999807,
                  "durationTicks": 3600,
                  "midi": 65,
                  "name": "F4",
                  "ticks": 3192000,
                  "time": 103.36793250000001,
                  "velocity": 0.5039370078740157
              },
              {
                  "duration": 0.11658037499999807,
                  "durationTicks": 3600,
                  "midi": 57,
                  "name": "A3",
                  "ticks": 3192000,
                  "time": 103.36793250000001,
                  "velocity": 0.5511811023622047
              },
              {
                  "duration": 0.11658037499999807,
                  "durationTicks": 3600,
                  "midi": 62,
                  "name": "D4",
                  "ticks": 3192000,
                  "time": 103.36793250000001,
                  "velocity": 0.47244094488188976
              },
              {
                  "duration": 0.15544049999999743,
                  "durationTicks": 4800,
                  "midi": 55,
                  "name": "G3",
                  "ticks": 3196800,
                  "time": 103.523373,
                  "velocity": 0.6220472440944882
              },
              {
                  "duration": 0.15544049999999743,
                  "durationTicks": 4800,
                  "midi": 57,
                  "name": "A3",
                  "ticks": 3196800,
                  "time": 103.523373,
                  "velocity": 0.6299212598425197
              },
              {
                  "duration": 0.15544049999999743,
                  "durationTicks": 4800,
                  "midi": 62,
                  "name": "D4",
                  "ticks": 3196800,
                  "time": 103.523373,
                  "velocity": 0.5433070866141733
              },
              {
                  "duration": 0.15544049999999743,
                  "durationTicks": 4800,
                  "midi": 65,
                  "name": "F4",
                  "ticks": 3196800,
                  "time": 103.523373,
                  "velocity": 0.5748031496062992
              },
              {
                  "duration": 0.15544049999999743,
                  "durationTicks": 4800,
                  "midi": 55,
                  "name": "G3",
                  "ticks": 3201600,
                  "time": 103.6788135,
                  "velocity": 0.5511811023622047
              },
              {
                  "duration": 0.15544049999999743,
                  "durationTicks": 4800,
                  "midi": 57,
                  "name": "A3",
                  "ticks": 3201600,
                  "time": 103.6788135,
                  "velocity": 0.5511811023622047
              },
              {
                  "duration": 0.15544049999999743,
                  "durationTicks": 4800,
                  "midi": 62,
                  "name": "D4",
                  "ticks": 3201600,
                  "time": 103.6788135,
                  "velocity": 0.47244094488188976
              },
              {
                  "duration": 0.15544049999999743,
                  "durationTicks": 4800,
                  "midi": 65,
                  "name": "F4",
                  "ticks": 3201600,
                  "time": 103.6788135,
                  "velocity": 0.5039370078740157
              },
              {
                  "duration": 0.07772024999999871,
                  "durationTicks": 2400,
                  "midi": 55,
                  "name": "G3",
                  "ticks": 3206400,
                  "time": 103.834254,
                  "velocity": 0.6220472440944882
              },
              {
                  "duration": 0.07772024999999871,
                  "durationTicks": 2400,
                  "midi": 57,
                  "name": "A3",
                  "ticks": 3206400,
                  "time": 103.834254,
                  "velocity": 0.6299212598425197
              },
              {
                  "duration": 0.07772024999999871,
                  "durationTicks": 2400,
                  "midi": 62,
                  "name": "D4",
                  "ticks": 3206400,
                  "time": 103.834254,
                  "velocity": 0.5433070866141733
              },
              {
                  "duration": 0.07772024999999871,
                  "durationTicks": 2400,
                  "midi": 65,
                  "name": "F4",
                  "ticks": 3206400,
                  "time": 103.834254,
                  "velocity": 0.5748031496062992
              },
              {
                  "duration": 0.07772024999999871,
                  "durationTicks": 2400,
                  "midi": 55,
                  "name": "G3",
                  "ticks": 3211200,
                  "time": 103.98969450000001,
                  "velocity": 0.5511811023622047
              },
              {
                  "duration": 0.07772024999999871,
                  "durationTicks": 2400,
                  "midi": 57,
                  "name": "A3",
                  "ticks": 3211200,
                  "time": 103.98969450000001,
                  "velocity": 0.5511811023622047
              },
              {
                  "duration": 0.07772024999999871,
                  "durationTicks": 2400,
                  "midi": 62,
                  "name": "D4",
                  "ticks": 3211200,
                  "time": 103.98969450000001,
                  "velocity": 0.47244094488188976
              },
              {
                  "duration": 0.07772024999999871,
                  "durationTicks": 2400,
                  "midi": 65,
                  "name": "F4",
                  "ticks": 3211200,
                  "time": 103.98969450000001,
                  "velocity": 0.5039370078740157
              },
              {
                  "duration": 0.11658037499999807,
                  "durationTicks": 3600,
                  "midi": 55,
                  "name": "G3",
                  "ticks": 3216000,
                  "time": 104.14513500000001,
                  "velocity": 0.6299212598425197
              },
              {
                  "duration": 0.11658037499999807,
                  "durationTicks": 3600,
                  "midi": 57,
                  "name": "A3",
                  "ticks": 3216000,
                  "time": 104.14513500000001,
                  "velocity": 0.6377952755905512
              },
              {
                  "duration": 0.11658037499999807,
                  "durationTicks": 3600,
                  "midi": 62,
                  "name": "D4",
                  "ticks": 3216000,
                  "time": 104.14513500000001,
                  "velocity": 0.5511811023622047
              },
              {
                  "duration": 0.11658037499999807,
                  "durationTicks": 3600,
                  "midi": 65,
                  "name": "F4",
                  "ticks": 3216000,
                  "time": 104.14513500000001,
                  "velocity": 0.5826771653543307
              },
              {
                  "duration": 0.07772024999999871,
                  "durationTicks": 2400,
                  "midi": 55,
                  "name": "G3",
                  "ticks": 3220800,
                  "time": 104.30057550000001,
                  "velocity": 0.5748031496062992
              },
              {
                  "duration": 0.11658037499999807,
                  "durationTicks": 3600,
                  "midi": 57,
                  "name": "A3",
                  "ticks": 3220800,
                  "time": 104.30057550000001,
                  "velocity": 0.5826771653543307
              },
              {
                  "duration": 0.07772024999999871,
                  "durationTicks": 2400,
                  "midi": 62,
                  "name": "D4",
                  "ticks": 3220800,
                  "time": 104.30057550000001,
                  "velocity": 0.49606299212598426
              },
              {
                  "duration": 0.03886012499999936,
                  "durationTicks": 1200,
                  "midi": 65,
                  "name": "F4",
                  "ticks": 3220800,
                  "time": 104.30057550000001,
                  "velocity": 0.5275590551181102
              },
              {
                  "duration": 0.11658037499999807,
                  "durationTicks": 3600,
                  "midi": 48,
                  "name": "C3",
                  "ticks": 3225600,
                  "time": 104.456016,
                  "velocity": 0.6614173228346457
              },
              {
                  "duration": 0.11658037499999807,
                  "durationTicks": 3600,
                  "midi": 64,
                  "name": "E4",
                  "ticks": 3225600,
                  "time": 104.456016,
                  "velocity": 0.6299212598425197
              },
              {
                  "duration": 0.07772024999999871,
                  "durationTicks": 2400,
                  "midi": 48,
                  "name": "C3",
                  "ticks": 3230400,
                  "time": 104.6114565,
                  "velocity": 0.5905511811023622
              },
              {
                  "duration": 0.11658037499999807,
                  "durationTicks": 3600,
                  "midi": 64,
                  "name": "E4",
                  "ticks": 3230400,
                  "time": 104.6114565,
                  "velocity": 0.5669291338582677
              },
              {
                  "duration": 0.03886012499999936,
                  "durationTicks": 1200,
                  "midi": 74,
                  "name": "D5",
                  "ticks": 3230400,
                  "time": 104.6114565,
                  "velocity": 0.6062992125984252
              },
              {
                  "duration": 0.15544050000001164,
                  "durationTicks": 4800,
                  "midi": 64,
                  "name": "E4",
                  "ticks": 3235200,
                  "time": 104.766897,
                  "velocity": 0.6299212598425197
              },
              {
                  "duration": 0.03886012499999936,
                  "durationTicks": 1200,
                  "midi": 72,
                  "name": "C5",
                  "ticks": 3235200,
                  "time": 104.766897,
                  "velocity": 0.7244094488188977
              },
              {
                  "duration": 0.15544049999999743,
                  "durationTicks": 4800,
                  "midi": 64,
                  "name": "E4",
                  "ticks": 3240000,
                  "time": 104.92233750000001,
                  "velocity": 0.5669291338582677
              },
              {
                  "duration": 0.07772024999999871,
                  "durationTicks": 2400,
                  "midi": 69,
                  "name": "A4",
                  "ticks": 3240000,
                  "time": 104.92233750000001,
                  "velocity": 0.6692913385826772
              },
              {
                  "duration": 0.07772024999999871,
                  "durationTicks": 2400,
                  "midi": 48,
                  "name": "C3",
                  "ticks": 3244800,
                  "time": 105.07777800000001,
                  "velocity": 0.6299212598425197
              },
              {
                  "duration": 0.03886012499999936,
                  "durationTicks": 1200,
                  "midi": 64,
                  "name": "E4",
                  "ticks": 3244800,
                  "time": 105.07777800000001,
                  "velocity": 0.6299212598425197
              },
              {
                  "duration": 0.03886012499999936,
                  "durationTicks": 1200,
                  "midi": 67,
                  "name": "G4",
                  "ticks": 3244800,
                  "time": 105.07777800000001,
                  "velocity": 0.7322834645669292
              },
              {
                  "duration": 0.03886012499999936,
                  "durationTicks": 1200,
                  "midi": 48,
                  "name": "C3",
                  "ticks": 3249600,
                  "time": 105.2332185,
                  "velocity": 0.5669291338582677
              },
              {
                  "duration": 0.03886012499999936,
                  "durationTicks": 1200,
                  "midi": 65,
                  "name": "F4",
                  "ticks": 3249600,
                  "time": 105.2332185,
                  "velocity": 0.6771653543307087
              },
              {
                  "duration": 0.03886012499999936,
                  "durationTicks": 1200,
                  "midi": 60,
                  "name": "C4",
                  "ticks": 3254400,
                  "time": 105.388659,
                  "velocity": 0.6614173228346457
              },
              {
                  "duration": 0.03886012499999936,
                  "durationTicks": 1200,
                  "midi": 62,
                  "name": "D4",
                  "ticks": 3254400,
                  "time": 105.388659,
                  "velocity": 0.8031496062992126
              },
              {
                  "duration": 0.11658037499999807,
                  "durationTicks": 3600,
                  "midi": 67,
                  "name": "G4",
                  "ticks": 3254400,
                  "time": 105.388659,
                  "velocity": 0.5590551181102362
              },
              {
                  "duration": 0.03886012499999936,
                  "durationTicks": 1200,
                  "midi": 48,
                  "name": "C3",
                  "ticks": 3259200,
                  "time": 105.5440995,
                  "velocity": 0.4566929133858268
              },
              {
                  "duration": 0.11658037499999807,
                  "durationTicks": 3600,
                  "midi": 55,
                  "name": "G3",
                  "ticks": 3259200,
                  "time": 105.5440995,
                  "velocity": 0.4566929133858268
              },
              {
                  "duration": 0.03886012499999936,
                  "durationTicks": 1200,
                  "midi": 60,
                  "name": "C4",
                  "ticks": 3259200,
                  "time": 105.5440995,
                  "velocity": 0.7086614173228346
              },
              {
                  "duration": 0.03886012499999936,
                  "durationTicks": 1200,
                  "midi": 64,
                  "name": "E4",
                  "ticks": 3259200,
                  "time": 105.5440995,
                  "velocity": 0.5039370078740157
              },
              {
                  "duration": 0.11658037499999807,
                  "durationTicks": 3600,
                  "midi": 67,
                  "name": "G4",
                  "ticks": 3259200,
                  "time": 105.5440995,
                  "velocity": 0.5039370078740157
              },
              {
                  "duration": 0.11658037499999807,
                  "durationTicks": 3600,
                  "midi": 50,
                  "name": "D3",
                  "ticks": 3264000,
                  "time": 105.69954000000001,
                  "velocity": 0.6692913385826772
              },
              {
                  "duration": 0.11658037499999807,
                  "durationTicks": 3600,
                  "midi": 65,
                  "name": "F4",
                  "ticks": 3264000,
                  "time": 105.69954000000001,
                  "velocity": 0.6062992125984252
              },
              {
                  "duration": 0.11658037499999807,
                  "durationTicks": 3600,
                  "midi": 57,
                  "name": "A3",
                  "ticks": 3264000,
                  "time": 105.69954000000001,
                  "velocity": 0.6535433070866141
              },
              {
                  "duration": 0.11658037499999807,
                  "durationTicks": 3600,
                  "midi": 50,
                  "name": "D3",
                  "ticks": 3268800,
                  "time": 105.85498050000001,
                  "velocity": 0.5905511811023622
              },
              {
                  "duration": 0.11658037499999807,
                  "durationTicks": 3600,
                  "midi": 57,
                  "name": "A3",
                  "ticks": 3268800,
                  "time": 105.85498050000001,
                  "velocity": 0.5748031496062992
              },
              {
                  "duration": 0.11658037499999807,
                  "durationTicks": 3600,
                  "midi": 65,
                  "name": "F4",
                  "ticks": 3268800,
                  "time": 105.85498050000001,
                  "velocity": 0.5354330708661418
              },
              {
                  "duration": 0.15544049999999743,
                  "durationTicks": 4800,
                  "midi": 50,
                  "name": "D3",
                  "ticks": 3273600,
                  "time": 106.01042100000001,
                  "velocity": 0.6692913385826772
              },
              {
                  "duration": 0.15544049999999743,
                  "durationTicks": 4800,
                  "midi": 57,
                  "name": "A3",
                  "ticks": 3273600,
                  "time": 106.01042100000001,
                  "velocity": 0.6535433070866141
              },
              {
                  "duration": 0.15544049999999743,
                  "durationTicks": 4800,
                  "midi": 65,
                  "name": "F4",
                  "ticks": 3273600,
                  "time": 106.01042100000001,
                  "velocity": 0.6062992125984252
              },
              {
                  "duration": 0.11658037499999807,
                  "durationTicks": 3600,
                  "midi": 50,
                  "name": "D3",
                  "ticks": 3278400,
                  "time": 106.1658615,
                  "velocity": 0.5905511811023622
              },
              {
                  "duration": 0.11658037499999807,
                  "durationTicks": 3600,
                  "midi": 57,
                  "name": "A3",
                  "ticks": 3278400,
                  "time": 106.1658615,
                  "velocity": 0.5748031496062992
              },
              {
                  "duration": 0.07772024999999871,
                  "durationTicks": 2400,
                  "midi": 65,
                  "name": "F4",
                  "ticks": 3278400,
                  "time": 106.1658615,
                  "velocity": 0.5354330708661418
              },
              {
                  "duration": 0.07772024999999871,
                  "durationTicks": 2400,
                  "midi": 50,
                  "name": "D3",
                  "ticks": 3283200,
                  "time": 106.321302,
                  "velocity": 0.6692913385826772
              },
              {
                  "duration": 0.07772024999999871,
                  "durationTicks": 2400,
                  "midi": 57,
                  "name": "A3",
                  "ticks": 3283200,
                  "time": 106.321302,
                  "velocity": 0.6535433070866141
              },
              {
                  "duration": 0.07772025000001292,
                  "durationTicks": 2400,
                  "midi": 50,
                  "name": "D3",
                  "ticks": 3288000,
                  "time": 106.4767425,
                  "velocity": 0.5905511811023622
              },
              {
                  "duration": 0.07772025000001292,
                  "durationTicks": 2400,
                  "midi": 57,
                  "name": "A3",
                  "ticks": 3288000,
                  "time": 106.4767425,
                  "velocity": 0.5748031496062992
              },
              {
                  "duration": 0.11658037499999807,
                  "durationTicks": 3600,
                  "midi": 50,
                  "name": "D3",
                  "ticks": 3292800,
                  "time": 106.63218300000001,
                  "velocity": 0.6771653543307087
              },
              {
                  "duration": 0.11658037499999807,
                  "durationTicks": 3600,
                  "midi": 57,
                  "name": "A3",
                  "ticks": 3292800,
                  "time": 106.63218300000001,
                  "velocity": 0.6614173228346457
              },
              {
                  "duration": 0.11658037499999807,
                  "durationTicks": 3600,
                  "midi": 50,
                  "name": "D3",
                  "ticks": 3297600,
                  "time": 106.78762350000001,
                  "velocity": 0.6141732283464567
              },
              {
                  "duration": 0.11658037499999807,
                  "durationTicks": 3600,
                  "midi": 57,
                  "name": "A3",
                  "ticks": 3297600,
                  "time": 106.78762350000001,
                  "velocity": 0.5984251968503937
              },
              {
                  "duration": 0.11658037499999807,
                  "durationTicks": 3600,
                  "midi": 46,
                  "name": "A#2",
                  "ticks": 3302400,
                  "time": 106.943064,
                  "velocity": 0.4881889763779528
              },
              {
                  "duration": 0.11658037499999807,
                  "durationTicks": 3600,
                  "midi": 53,
                  "name": "F3",
                  "ticks": 3302400,
                  "time": 106.943064,
                  "velocity": 0.49606299212598426
              },
              {
                  "duration": 0.11658037499999807,
                  "durationTicks": 3600,
                  "midi": 58,
                  "name": "A#3",
                  "ticks": 3302400,
                  "time": 106.943064,
                  "velocity": 0.6929133858267716
              },
              {
                  "duration": 0.11658037499999807,
                  "durationTicks": 3600,
                  "midi": 62,
                  "name": "D4",
                  "ticks": 3302400,
                  "time": 106.943064,
                  "velocity": 0.5433070866141733
              },
              {
                  "duration": 0.11658037499999807,
                  "durationTicks": 3600,
                  "midi": 65,
                  "name": "F4",
                  "ticks": 3302400,
                  "time": 106.943064,
                  "velocity": 0.6141732283464567
              },
              {
                  "duration": 0.11658037499999807,
                  "durationTicks": 3600,
                  "midi": 46,
                  "name": "A#2",
                  "ticks": 3307200,
                  "time": 107.0985045,
                  "velocity": 0.4094488188976378
              },
              {
                  "duration": 0.11658037499999807,
                  "durationTicks": 3600,
                  "midi": 53,
                  "name": "F3",
                  "ticks": 3307200,
                  "time": 107.0985045,
                  "velocity": 0.4251968503937008
              },
              {
                  "duration": 0.11658037499999807,
                  "durationTicks": 3600,
                  "midi": 58,
                  "name": "A#3",
                  "ticks": 3307200,
                  "time": 107.0985045,
                  "velocity": 0.6141732283464567
              },
              {
                  "duration": 0.11658037499999807,
                  "durationTicks": 3600,
                  "midi": 62,
                  "name": "D4",
                  "ticks": 3307200,
                  "time": 107.0985045,
                  "velocity": 0.47244094488188976
              },
              {
                  "duration": 0.07772024999999871,
                  "durationTicks": 2400,
                  "midi": 65,
                  "name": "F4",
                  "ticks": 3307200,
                  "time": 107.0985045,
                  "velocity": 0.5511811023622047
              },
              {
                  "duration": 0.15544050000001164,
                  "durationTicks": 4800,
                  "midi": 46,
                  "name": "A#2",
                  "ticks": 3312000,
                  "time": 107.253945,
                  "velocity": 0.4881889763779528
              },
              {
                  "duration": 0.03886012499999936,
                  "durationTicks": 1200,
                  "midi": 53,
                  "name": "F3",
                  "ticks": 3312000,
                  "time": 107.253945,
                  "velocity": 0.49606299212598426
              },
              {
                  "duration": 0.15544050000001164,
                  "durationTicks": 4800,
                  "midi": 58,
                  "name": "A#3",
                  "ticks": 3312000,
                  "time": 107.253945,
                  "velocity": 0.6929133858267716
              },
              {
                  "duration": 0.15544050000001164,
                  "durationTicks": 4800,
                  "midi": 62,
                  "name": "D4",
                  "ticks": 3312000,
                  "time": 107.253945,
                  "velocity": 0.5433070866141733
              },
              {
                  "duration": 0.11658037499999807,
                  "durationTicks": 3600,
                  "midi": 58,
                  "name": "A#3",
                  "ticks": 3316800,
                  "time": 107.40938550000001,
                  "velocity": 0.6141732283464567
              },
              {
                  "duration": 0.11658037499999807,
                  "durationTicks": 3600,
                  "midi": 65,
                  "name": "F4",
                  "ticks": 3316800,
                  "time": 107.40938550000001,
                  "velocity": 0.5905511811023622
              },
              {
                  "duration": 0.07772024999999871,
                  "durationTicks": 2400,
                  "midi": 46,
                  "name": "A#2",
                  "ticks": 3321600,
                  "time": 107.56482600000001,
                  "velocity": 0.5039370078740157
              },
              {
                  "duration": 0.07772024999999871,
                  "durationTicks": 2400,
                  "midi": 65,
                  "name": "F4",
                  "ticks": 3321600,
                  "time": 107.56482600000001,
                  "velocity": 0.6614173228346457
              },
              {
                  "duration": 0.07772024999999871,
                  "durationTicks": 2400,
                  "midi": 58,
                  "name": "A#3",
                  "ticks": 3321600,
                  "time": 107.56482600000001,
                  "velocity": 0.6929133858267716
              },
              {
                  "duration": 0.07772024999999871,
                  "durationTicks": 2400,
                  "midi": 46,
                  "name": "A#2",
                  "ticks": 3326400,
                  "time": 107.72026650000001,
                  "velocity": 0.4251968503937008
              },
              {
                  "duration": 0.07772024999999871,
                  "durationTicks": 2400,
                  "midi": 58,
                  "name": "A#3",
                  "ticks": 3326400,
                  "time": 107.72026650000001,
                  "velocity": 0.6141732283464567
              },
              {
                  "duration": 0.07772024999999871,
                  "durationTicks": 2400,
                  "midi": 65,
                  "name": "F4",
                  "ticks": 3326400,
                  "time": 107.72026650000001,
                  "velocity": 0.5905511811023622
              },
              {
                  "duration": 0.11658037499999807,
                  "durationTicks": 3600,
                  "midi": 46,
                  "name": "A#2",
                  "ticks": 3331200,
                  "time": 107.875707,
                  "velocity": 0.5118110236220472
              },
              {
                  "duration": 0.11658037499999807,
                  "durationTicks": 3600,
                  "midi": 58,
                  "name": "A#3",
                  "ticks": 3331200,
                  "time": 107.875707,
                  "velocity": 0.7007874015748031
              },
              {
                  "duration": 0.11658037499999807,
                  "durationTicks": 3600,
                  "midi": 65,
                  "name": "F4",
                  "ticks": 3331200,
                  "time": 107.875707,
                  "velocity": 0.6771653543307087
              },
              {
                  "duration": 0.11658037499999807,
                  "durationTicks": 3600,
                  "midi": 46,
                  "name": "A#2",
                  "ticks": 3336000,
                  "time": 108.0311475,
                  "velocity": 0.4566929133858268
              },
              {
                  "duration": 0.07772024999999871,
                  "durationTicks": 2400,
                  "midi": 58,
                  "name": "A#3",
                  "ticks": 3336000,
                  "time": 108.0311475,
                  "velocity": 0.6456692913385826
              },
              {
                  "duration": 0.11658037499999807,
                  "durationTicks": 3600,
                  "midi": 65,
                  "name": "F4",
                  "ticks": 3336000,
                  "time": 108.0311475,
                  "velocity": 0.6141732283464567
              },
              {
                  "duration": 0.11658037500001228,
                  "durationTicks": 3600,
                  "midi": 55,
                  "name": "G3",
                  "ticks": 3340800,
                  "time": 108.186588,
                  "velocity": 0.6692913385826772
              },
              {
                  "duration": 0.11658037500001228,
                  "durationTicks": 3600,
                  "midi": 57,
                  "name": "A3",
                  "ticks": 3340800,
                  "time": 108.186588,
                  "velocity": 0.7244094488188977
              },
              {
                  "duration": 0.11658037499999807,
                  "durationTicks": 3600,
                  "midi": 55,
                  "name": "G3",
                  "ticks": 3345600,
                  "time": 108.34202850000001,
                  "velocity": 0.5984251968503937
              },
              {
                  "duration": 0.11658037499999807,
                  "durationTicks": 3600,
                  "midi": 57,
                  "name": "A3",
                  "ticks": 3345600,
                  "time": 108.34202850000001,
                  "velocity": 0.6614173228346457
              },
              {
                  "duration": 0.07772024999999871,
                  "durationTicks": 2400,
                  "midi": 65,
                  "name": "F4",
                  "ticks": 3345600,
                  "time": 108.34202850000001,
                  "velocity": 0.7007874015748031
              },
              {
                  "duration": 0.11658037499999807,
                  "durationTicks": 3600,
                  "midi": 55,
                  "name": "G3",
                  "ticks": 3350400,
                  "time": 108.49746900000001,
                  "velocity": 0.6692913385826772
              },
              {
                  "duration": 0.03886012499999936,
                  "durationTicks": 1200,
                  "midi": 67,
                  "name": "G4",
                  "ticks": 3350400,
                  "time": 108.49746900000001,
                  "velocity": 0.7007874015748031
              },
              {
                  "duration": 0.15544049999999743,
                  "durationTicks": 4800,
                  "midi": 45,
                  "name": "A2",
                  "ticks": 3355200,
                  "time": 108.6529095,
                  "velocity": 0.47244094488188976
              },
              {
                  "duration": 0.15544049999999743,
                  "durationTicks": 4800,
                  "midi": 57,
                  "name": "A3",
                  "ticks": 3355200,
                  "time": 108.6529095,
                  "velocity": 0.6614173228346457
              },
              {
                  "duration": 0.15544049999999743,
                  "durationTicks": 4800,
                  "midi": 60,
                  "name": "C4",
                  "ticks": 3355200,
                  "time": 108.6529095,
                  "velocity": 0.5826771653543307
              },
              {
                  "duration": 0.03886012499999936,
                  "durationTicks": 1200,
                  "midi": 65,
                  "name": "F4",
                  "ticks": 3355200,
                  "time": 108.6529095,
                  "velocity": 0.6929133858267716
              },
              {
                  "duration": 0.07772024999999871,
                  "durationTicks": 2400,
                  "midi": 45,
                  "name": "A2",
                  "ticks": 3360000,
                  "time": 108.80835,
                  "velocity": 0.5433070866141733
              },
              {
                  "duration": 0.07772024999999871,
                  "durationTicks": 2400,
                  "midi": 57,
                  "name": "A3",
                  "ticks": 3360000,
                  "time": 108.80835,
                  "velocity": 0.7401574803149606
              },
              {
                  "duration": 0.07772024999999871,
                  "durationTicks": 2400,
                  "midi": 60,
                  "name": "C4",
                  "ticks": 3360000,
                  "time": 108.80835,
                  "velocity": 0.6614173228346457
              },
              {
                  "duration": 0.07772024999999871,
                  "durationTicks": 2400,
                  "midi": 45,
                  "name": "A2",
                  "ticks": 3364800,
                  "time": 108.9637905,
                  "velocity": 0.47244094488188976
              },
              {
                  "duration": 0.07772024999999871,
                  "durationTicks": 2400,
                  "midi": 57,
                  "name": "A3",
                  "ticks": 3364800,
                  "time": 108.9637905,
                  "velocity": 0.6614173228346457
              },
              {
                  "duration": 0.07772024999999871,
                  "durationTicks": 2400,
                  "midi": 60,
                  "name": "C4",
                  "ticks": 3364800,
                  "time": 108.9637905,
                  "velocity": 0.5826771653543307
              },
              {
                  "duration": 0.03886012499999936,
                  "durationTicks": 1200,
                  "midi": 67,
                  "name": "G4",
                  "ticks": 3364800,
                  "time": 108.9637905,
                  "velocity": 0.7086614173228346
              },
              {
                  "duration": 0.11658037499999807,
                  "durationTicks": 3600,
                  "midi": 58,
                  "name": "A#3",
                  "ticks": 3369600,
                  "time": 109.11923100000001,
                  "velocity": 0.7244094488188977
              },
              {
                  "duration": 0.07772024999999871,
                  "durationTicks": 2400,
                  "midi": 62,
                  "name": "D4",
                  "ticks": 3369600,
                  "time": 109.11923100000001,
                  "velocity": 0.5669291338582677
              },
              {
                  "duration": 0.11658037499999807,
                  "durationTicks": 3600,
                  "midi": 65,
                  "name": "F4",
                  "ticks": 3369600,
                  "time": 109.11923100000001,
                  "velocity": 0.6141732283464567
              },
              {
                  "duration": 0.03886012499999936,
                  "durationTicks": 1200,
                  "midi": 69,
                  "name": "A4",
                  "ticks": 3369600,
                  "time": 109.11923100000001,
                  "velocity": 0.7165354330708661
              },
              {
                  "duration": 0.15544049999999743,
                  "durationTicks": 4800,
                  "midi": 46,
                  "name": "A#2",
                  "ticks": 3374400,
                  "time": 109.27467150000001,
                  "velocity": 0.4566929133858268
              },
              {
                  "duration": 0.15544049999999743,
                  "durationTicks": 4800,
                  "midi": 58,
                  "name": "A#3",
                  "ticks": 3374400,
                  "time": 109.27467150000001,
                  "velocity": 0.6692913385826772
              },
              {
                  "duration": 0.15544049999999743,
                  "durationTicks": 4800,
                  "midi": 62,
                  "name": "D4",
                  "ticks": 3374400,
                  "time": 109.27467150000001,
                  "velocity": 0.4881889763779528
              },
              {
                  "duration": 0.15544049999999743,
                  "durationTicks": 4800,
                  "midi": 65,
                  "name": "F4",
                  "ticks": 3374400,
                  "time": 109.27467150000001,
                  "velocity": 0.5511811023622047
              },
              {
                  "duration": 0.15544049999999743,
                  "durationTicks": 4800,
                  "midi": 72,
                  "name": "C5",
                  "ticks": 3374400,
                  "time": 109.27467150000001,
                  "velocity": 0.6535433070866141
              },
              {
                  "duration": 0.03886012499999936,
                  "durationTicks": 1200,
                  "midi": 46,
                  "name": "A#2",
                  "ticks": 3379200,
                  "time": 109.43011200000001,
                  "velocity": 0.5039370078740157
              },
              {
                  "duration": 0.11658037499999807,
                  "durationTicks": 3600,
                  "midi": 58,
                  "name": "A#3",
                  "ticks": 3379200,
                  "time": 109.43011200000001,
                  "velocity": 0.7086614173228346
              },
              {
                  "duration": 0.11658037499999807,
                  "durationTicks": 3600,
                  "midi": 62,
                  "name": "D4",
                  "ticks": 3379200,
                  "time": 109.43011200000001,
                  "velocity": 0.5354330708661418
              },
              {
                  "duration": 0.11658037499999807,
                  "durationTicks": 3600,
                  "midi": 65,
                  "name": "F4",
                  "ticks": 3379200,
                  "time": 109.43011200000001,
                  "velocity": 0.5984251968503937
              },
              {
                  "duration": 0.11658037499999807,
                  "durationTicks": 3600,
                  "midi": 58,
                  "name": "A#3",
                  "ticks": 3384000,
                  "time": 109.5855525,
                  "velocity": 0.6456692913385826
              },
              {
                  "duration": 0.07772024999999871,
                  "durationTicks": 2400,
                  "midi": 62,
                  "name": "D4",
                  "ticks": 3384000,
                  "time": 109.5855525,
                  "velocity": 0.4566929133858268
              },
              {
                  "duration": 0.11658037499999807,
                  "durationTicks": 3600,
                  "midi": 65,
                  "name": "F4",
                  "ticks": 3384000,
                  "time": 109.5855525,
                  "velocity": 0.5354330708661418
              },
              {
                  "duration": 0.03886012499999936,
                  "durationTicks": 1200,
                  "midi": 74,
                  "name": "D5",
                  "ticks": 3384000,
                  "time": 109.5855525,
                  "velocity": 0.7401574803149606
              },
              {
                  "duration": 0.11658037499999807,
                  "durationTicks": 3600,
                  "midi": 58,
                  "name": "A#3",
                  "ticks": 3388800,
                  "time": 109.740993,
                  "velocity": 0.7086614173228346
              },
              {
                  "duration": 0.07772024999999871,
                  "durationTicks": 2400,
                  "midi": 65,
                  "name": "F4",
                  "ticks": 3388800,
                  "time": 109.740993,
                  "velocity": 0.5984251968503937
              },
              {
                  "duration": 0.07772024999999871,
                  "durationTicks": 2400,
                  "midi": 72,
                  "name": "C5",
                  "ticks": 3388800,
                  "time": 109.740993,
                  "velocity": 0.7637795275590551
              },
              {
                  "duration": 0.07772025000001292,
                  "durationTicks": 2400,
                  "midi": 69,
                  "name": "A4",
                  "ticks": 3393600,
                  "time": 109.8964335,
                  "velocity": 0.6377952755905512
              },
              {
                  "duration": 0.07772024999999871,
                  "durationTicks": 2400,
                  "midi": 48,
                  "name": "C3",
                  "ticks": 3398400,
                  "time": 110.05187400000001,
                  "velocity": 0.5826771653543307
              },
              {
                  "duration": 0.07772024999999871,
                  "durationTicks": 2400,
                  "midi": 55,
                  "name": "G3",
                  "ticks": 3398400,
                  "time": 110.05187400000001,
                  "velocity": 0.5354330708661418
              },
              {
                  "duration": 0.07772024999999871,
                  "durationTicks": 2400,
                  "midi": 60,
                  "name": "C4",
                  "ticks": 3398400,
                  "time": 110.05187400000001,
                  "velocity": 0.6929133858267716
              },
              {
                  "duration": 0.07772024999999871,
                  "durationTicks": 2400,
                  "midi": 67,
                  "name": "G4",
                  "ticks": 3398400,
                  "time": 110.05187400000001,
                  "velocity": 0.7716535433070866
              },
              {
                  "duration": 0.03886012499999936,
                  "durationTicks": 1200,
                  "midi": 55,
                  "name": "G3",
                  "ticks": 3403200,
                  "time": 110.20731450000001,
                  "velocity": 0.47244094488188976
              },
              {
                  "duration": 0.07772024999999871,
                  "durationTicks": 2400,
                  "midi": 60,
                  "name": "C4",
                  "ticks": 3403200,
                  "time": 110.20731450000001,
                  "velocity": 0.6141732283464567
              },
              {
                  "duration": 0.07772024999999871,
                  "durationTicks": 2400,
                  "midi": 65,
                  "name": "F4",
                  "ticks": 3403200,
                  "time": 110.20731450000001,
                  "velocity": 0.7086614173228346
              },
              {
                  "duration": 0.03886012499999936,
                  "durationTicks": 1200,
                  "midi": 48,
                  "name": "C3",
                  "ticks": 3408000,
                  "time": 110.362755,
                  "velocity": 0.6141732283464567
              },
              {
                  "duration": 0.11658037499999807,
                  "durationTicks": 3600,
                  "midi": 55,
                  "name": "G3",
                  "ticks": 3408000,
                  "time": 110.362755,
                  "velocity": 0.6141732283464567
              },
              {
                  "duration": 0.03886012499999936,
                  "durationTicks": 1200,
                  "midi": 60,
                  "name": "C4",
                  "ticks": 3408000,
                  "time": 110.362755,
                  "velocity": 0.7007874015748031
              },
              {
                  "duration": 0.03886012499999936,
                  "durationTicks": 1200,
                  "midi": 62,
                  "name": "D4",
                  "ticks": 3408000,
                  "time": 110.362755,
                  "velocity": 0.8346456692913385
              },
              {
                  "duration": 0.07772024999999871,
                  "durationTicks": 2400,
                  "midi": 48,
                  "name": "C3",
                  "ticks": 3412800,
                  "time": 110.5181955,
                  "velocity": 0.5196850393700787
              },
              {
                  "duration": 0.03886012499999936,
                  "durationTicks": 1200,
                  "midi": 60,
                  "name": "C4",
                  "ticks": 3412800,
                  "time": 110.5181955,
                  "velocity": 0.6220472440944882
              },
              {
                  "duration": 0.11658037499999807,
                  "durationTicks": 3600,
                  "midi": 41,
                  "name": "F2",
                  "ticks": 3417600,
                  "time": 110.673636,
                  "velocity": 0.48031496062992124
              },
              {
                  "duration": 0.11658037499999807,
                  "durationTicks": 3600,
                  "midi": 53,
                  "name": "F3",
                  "ticks": 3417600,
                  "time": 110.673636,
                  "velocity": 0.6692913385826772
              },
              {
                  "duration": 0.11658037499999807,
                  "durationTicks": 3600,
                  "midi": 57,
                  "name": "A3",
                  "ticks": 3417600,
                  "time": 110.673636,
                  "velocity": 0.4881889763779528
              },
              {
                  "duration": 0.11658037499999807,
                  "durationTicks": 3600,
                  "midi": 69,
                  "name": "A4",
                  "ticks": 3417600,
                  "time": 110.673636,
                  "velocity": 0.6141732283464567
              },
              {
                  "duration": 0.11658037499999807,
                  "durationTicks": 3600,
                  "midi": 41,
                  "name": "F2",
                  "ticks": 3422400,
                  "time": 110.82907650000001,
                  "velocity": 0.4094488188976378
              },
              {
                  "duration": 0.11658037499999807,
                  "durationTicks": 3600,
                  "midi": 53,
                  "name": "F3",
                  "ticks": 3422400,
                  "time": 110.82907650000001,
                  "velocity": 0.5905511811023622
              },
              {
                  "duration": 0.11658037499999807,
                  "durationTicks": 3600,
                  "midi": 57,
                  "name": "A3",
                  "ticks": 3422400,
                  "time": 110.82907650000001,
                  "velocity": 0.41732283464566927
              },
              {
                  "duration": 0.11658037499999807,
                  "durationTicks": 3600,
                  "midi": 69,
                  "name": "A4",
                  "ticks": 3422400,
                  "time": 110.82907650000001,
                  "velocity": 0.5354330708661418
              },
              {
                  "duration": 0.15544049999999743,
                  "durationTicks": 4800,
                  "midi": 53,
                  "name": "F3",
                  "ticks": 3427200,
                  "time": 110.98451700000001,
                  "velocity": 0.6692913385826772
              },
              {
                  "duration": 0.15544049999999743,
                  "durationTicks": 4800,
                  "midi": 57,
                  "name": "A3",
                  "ticks": 3427200,
                  "time": 110.98451700000001,
                  "velocity": 0.4881889763779528
              },
              {
                  "duration": 0.15544049999999743,
                  "durationTicks": 4800,
                  "midi": 69,
                  "name": "A4",
                  "ticks": 3427200,
                  "time": 110.98451700000001,
                  "velocity": 0.6141732283464567
              },
              {
                  "duration": 0.11658037499999807,
                  "durationTicks": 3600,
                  "midi": 53,
                  "name": "F3",
                  "ticks": 3432000,
                  "time": 111.13995750000001,
                  "velocity": 0.5905511811023622
              },
              {
                  "duration": 0.11658037499999807,
                  "durationTicks": 3600,
                  "midi": 57,
                  "name": "A3",
                  "ticks": 3432000,
                  "time": 111.13995750000001,
                  "velocity": 0.41732283464566927
              },
              {
                  "duration": 0.11658037499999807,
                  "durationTicks": 3600,
                  "midi": 69,
                  "name": "A4",
                  "ticks": 3432000,
                  "time": 111.13995750000001,
                  "velocity": 0.5354330708661418
              },
              {
                  "duration": 0.07772024999999871,
                  "durationTicks": 2400,
                  "midi": 53,
                  "name": "F3",
                  "ticks": 3436800,
                  "time": 111.295398,
                  "velocity": 0.6692913385826772
              },
              {
                  "duration": 0.07772024999999871,
                  "durationTicks": 2400,
                  "midi": 57,
                  "name": "A3",
                  "ticks": 3436800,
                  "time": 111.295398,
                  "velocity": 0.4881889763779528
              },
              {
                  "duration": 0.07772024999999871,
                  "durationTicks": 2400,
                  "midi": 69,
                  "name": "A4",
                  "ticks": 3436800,
                  "time": 111.295398,
                  "velocity": 0.6141732283464567
              },
              {
                  "duration": 0.07772024999999871,
                  "durationTicks": 2400,
                  "midi": 53,
                  "name": "F3",
                  "ticks": 3441600,
                  "time": 111.4508385,
                  "velocity": 0.5905511811023622
              },
              {
                  "duration": 0.07772024999999871,
                  "durationTicks": 2400,
                  "midi": 69,
                  "name": "A4",
                  "ticks": 3441600,
                  "time": 111.4508385,
                  "velocity": 0.5354330708661418
              },
              {
                  "duration": 0.11658037500001228,
                  "durationTicks": 3600,
                  "midi": 53,
                  "name": "F3",
                  "ticks": 3446400,
                  "time": 111.606279,
                  "velocity": 0.6771653543307087
              },
              {
                  "duration": 0.11658037500001228,
                  "durationTicks": 3600,
                  "midi": 69,
                  "name": "A4",
                  "ticks": 3446400,
                  "time": 111.606279,
                  "velocity": 0.6220472440944882
              },
              {
                  "duration": 0.11658037499999807,
                  "durationTicks": 3600,
                  "midi": 53,
                  "name": "F3",
                  "ticks": 3451200,
                  "time": 111.76171950000001,
                  "velocity": 0.6141732283464567
              },
              {
                  "duration": 0.11658037499999807,
                  "durationTicks": 3600,
                  "midi": 69,
                  "name": "A4",
                  "ticks": 3451200,
                  "time": 111.76171950000001,
                  "velocity": 0.5669291338582677
              },
              {
                  "duration": 0.11658037499999807,
                  "durationTicks": 3600,
                  "midi": 53,
                  "name": "F3",
                  "ticks": 3456000,
                  "time": 111.91716000000001,
                  "velocity": 0.6692913385826772
              },
              {
                  "duration": 0.11658037499999807,
                  "durationTicks": 3600,
                  "midi": 58,
                  "name": "A#3",
                  "ticks": 3456000,
                  "time": 111.91716000000001,
                  "velocity": 0.6692913385826772
              },
              {
                  "duration": 0.11658037499999807,
                  "durationTicks": 3600,
                  "midi": 62,
                  "name": "D4",
                  "ticks": 3456000,
                  "time": 111.91716000000001,
                  "velocity": 0.5826771653543307
              },
              {
                  "duration": 0.11658037499999807,
                  "durationTicks": 3600,
                  "midi": 53,
                  "name": "F3",
                  "ticks": 3460800,
                  "time": 112.07260050000001,
                  "velocity": 0.5905511811023622
              },
              {
                  "duration": 0.11658037499999807,
                  "durationTicks": 3600,
                  "midi": 58,
                  "name": "A#3",
                  "ticks": 3460800,
                  "time": 112.07260050000001,
                  "velocity": 0.5984251968503937
              },
              {
                  "duration": 0.11658037499999807,
                  "durationTicks": 3600,
                  "midi": 62,
                  "name": "D4",
                  "ticks": 3460800,
                  "time": 112.07260050000001,
                  "velocity": 0.5118110236220472
              },
              {
                  "duration": 0.11658037499999807,
                  "durationTicks": 3600,
                  "midi": 65,
                  "name": "F4",
                  "ticks": 3460800,
                  "time": 112.07260050000001,
                  "velocity": 0.4566929133858268
              },
              {
                  "duration": 0.15544049999999743,
                  "durationTicks": 4800,
                  "midi": 53,
                  "name": "F3",
                  "ticks": 3465600,
                  "time": 112.228041,
                  "velocity": 0.6692913385826772
              },
              {
                  "duration": 0.15544049999999743,
                  "durationTicks": 4800,
                  "midi": 58,
                  "name": "A#3",
                  "ticks": 3465600,
                  "time": 112.228041,
                  "velocity": 0.6692913385826772
              },
              {
                  "duration": 0.15544049999999743,
                  "durationTicks": 4800,
                  "midi": 62,
                  "name": "D4",
                  "ticks": 3465600,
                  "time": 112.228041,
                  "velocity": 0.5826771653543307
              },
              {
                  "duration": 0.15544049999999743,
                  "durationTicks": 4800,
                  "midi": 65,
                  "name": "F4",
                  "ticks": 3465600,
                  "time": 112.228041,
                  "velocity": 0.5275590551181102
              },
              {
                  "duration": 0.11658037499999807,
                  "durationTicks": 3600,
                  "midi": 53,
                  "name": "F3",
                  "ticks": 3470400,
                  "time": 112.3834815,
                  "velocity": 0.5905511811023622
              },
              {
                  "duration": 0.11658037499999807,
                  "durationTicks": 3600,
                  "midi": 58,
                  "name": "A#3",
                  "ticks": 3470400,
                  "time": 112.3834815,
                  "velocity": 0.5984251968503937
              },
              {
                  "duration": 0.11658037499999807,
                  "durationTicks": 3600,
                  "midi": 65,
                  "name": "F4",
                  "ticks": 3470400,
                  "time": 112.3834815,
                  "velocity": 0.4566929133858268
              },
              {
                  "duration": 0.11658037499999807,
                  "durationTicks": 3600,
                  "midi": 62,
                  "name": "D4",
                  "ticks": 3470400,
                  "time": 112.3834815,
                  "velocity": 0.5118110236220472
              },
              {
                  "duration": 0.07772024999999871,
                  "durationTicks": 2400,
                  "midi": 53,
                  "name": "F3",
                  "ticks": 3475200,
                  "time": 112.53892200000001,
                  "velocity": 0.6692913385826772
              },
              {
                  "duration": 0.07772024999999871,
                  "durationTicks": 2400,
                  "midi": 58,
                  "name": "A#3",
                  "ticks": 3475200,
                  "time": 112.53892200000001,
                  "velocity": 0.6692913385826772
              },
              {
                  "duration": 0.07772024999999871,
                  "durationTicks": 2400,
                  "midi": 62,
                  "name": "D4",
                  "ticks": 3475200,
                  "time": 112.53892200000001,
                  "velocity": 0.5826771653543307
              },
              {
                  "duration": 0.07772024999999871,
                  "durationTicks": 2400,
                  "midi": 65,
                  "name": "F4",
                  "ticks": 3475200,
                  "time": 112.53892200000001,
                  "velocity": 0.5275590551181102
              },
              {
                  "duration": 0.07772024999999871,
                  "durationTicks": 2400,
                  "midi": 46,
                  "name": "A#2",
                  "ticks": 3480000,
                  "time": 112.69436250000001,
                  "velocity": 0.4094488188976378
              },
              {
                  "duration": 0.07772024999999871,
                  "durationTicks": 2400,
                  "midi": 53,
                  "name": "F3",
                  "ticks": 3480000,
                  "time": 112.69436250000001,
                  "velocity": 0.5905511811023622
              },
              {
                  "duration": 0.07772024999999871,
                  "durationTicks": 2400,
                  "midi": 58,
                  "name": "A#3",
                  "ticks": 3480000,
                  "time": 112.69436250000001,
                  "velocity": 0.5984251968503937
              },
              {
                  "duration": 0.07772024999999871,
                  "durationTicks": 2400,
                  "midi": 62,
                  "name": "D4",
                  "ticks": 3480000,
                  "time": 112.69436250000001,
                  "velocity": 0.5118110236220472
              },
              {
                  "duration": 0.07772024999999871,
                  "durationTicks": 2400,
                  "midi": 65,
                  "name": "F4",
                  "ticks": 3480000,
                  "time": 112.69436250000001,
                  "velocity": 0.4566929133858268
              },
              {
                  "duration": 0.11658037499999807,
                  "durationTicks": 3600,
                  "midi": 46,
                  "name": "A#2",
                  "ticks": 3484800,
                  "time": 112.84980300000001,
                  "velocity": 0.49606299212598426
              },
              {
                  "duration": 0.11658037499999807,
                  "durationTicks": 3600,
                  "midi": 65,
                  "name": "F4",
                  "ticks": 3484800,
                  "time": 112.84980300000001,
                  "velocity": 0.5354330708661418
              },
              {
                  "duration": 0.11658037499999807,
                  "durationTicks": 3600,
                  "midi": 53,
                  "name": "F3",
                  "ticks": 3484800,
                  "time": 112.84980300000001,
                  "velocity": 0.6771653543307087
              },
              {
                  "duration": 0.11658037499999807,
                  "durationTicks": 3600,
                  "midi": 62,
                  "name": "D4",
                  "ticks": 3484800,
                  "time": 112.84980300000001,
                  "velocity": 0.5984251968503937
              },
              {
                  "duration": 0.11658037499999807,
                  "durationTicks": 3600,
                  "midi": 58,
                  "name": "A#3",
                  "ticks": 3484800,
                  "time": 112.84980300000001,
                  "velocity": 0.6850393700787402
              },
              {
                  "duration": 0.11658037499999807,
                  "durationTicks": 3600,
                  "midi": 46,
                  "name": "A#2",
                  "ticks": 3489600,
                  "time": 113.0052435,
                  "velocity": 0.4409448818897638
              },
              {
                  "duration": 0.11658037499999807,
                  "durationTicks": 3600,
                  "midi": 53,
                  "name": "F3",
                  "ticks": 3489600,
                  "time": 113.0052435,
                  "velocity": 0.6141732283464567
              },
              {
                  "duration": 0.11658037499999807,
                  "durationTicks": 3600,
                  "midi": 58,
                  "name": "A#3",
                  "ticks": 3489600,
                  "time": 113.0052435,
                  "velocity": 0.6220472440944882
              },
              {
                  "duration": 0.07772024999999871,
                  "durationTicks": 2400,
                  "midi": 62,
                  "name": "D4",
                  "ticks": 3489600,
                  "time": 113.0052435,
                  "velocity": 0.5354330708661418
              },
              {
                  "duration": 0.03886012499999936,
                  "durationTicks": 1200,
                  "midi": 65,
                  "name": "F4",
                  "ticks": 3489600,
                  "time": 113.0052435,
                  "velocity": 0.48031496062992124
              },
              {
                  "duration": 0.018426175937506173,
                  "durationTicks": 569,
                  "midi": 46,
                  "name": "A#2",
                  "ticks": 3494400,
                  "time": 113.160684,
                  "velocity": 0.4881889763779528
              },
              {
                  "duration": 0.03886012499999936,
                  "durationTicks": 1200,
                  "midi": 53,
                  "name": "F3",
                  "ticks": 3494400,
                  "time": 113.160684,
                  "velocity": 0.6692913385826772
              },
              {
                  "duration": 0.11658037499999807,
                  "durationTicks": 3600,
                  "midi": 55,
                  "name": "G3",
                  "ticks": 3494400,
                  "time": 113.160684,
                  "velocity": 0.6141732283464567
              },
              {
                  "duration": 0.11658037499999807,
                  "durationTicks": 3600,
                  "midi": 57,
                  "name": "A3",
                  "ticks": 3494400,
                  "time": 113.160684,
                  "velocity": 0.6614173228346457
              },
              {
                  "duration": 0.11658037499999807,
                  "durationTicks": 3600,
                  "midi": 65,
                  "name": "F4",
                  "ticks": 3494400,
                  "time": 113.160684,
                  "velocity": 0.5984251968503937
              },
              {
                  "duration": 0.11658037500001228,
                  "durationTicks": 3600,
                  "midi": 55,
                  "name": "G3",
                  "ticks": 3499200,
                  "time": 113.3161245,
                  "velocity": 0.5511811023622047
              },
              {
                  "duration": 0.11658037500001228,
                  "durationTicks": 3600,
                  "midi": 57,
                  "name": "A3",
                  "ticks": 3499200,
                  "time": 113.3161245,
                  "velocity": 0.5905511811023622
              },
              {
                  "duration": 0.11658037500001228,
                  "durationTicks": 3600,
                  "midi": 65,
                  "name": "F4",
                  "ticks": 3499200,
                  "time": 113.3161245,
                  "velocity": 0.5275590551181102
              },
              {
                  "duration": 0.15544049999999743,
                  "durationTicks": 4800,
                  "midi": 55,
                  "name": "G3",
                  "ticks": 3504000,
                  "time": 113.47156500000001,
                  "velocity": 0.6141732283464567
              },
              {
                  "duration": 0.15544049999999743,
                  "durationTicks": 4800,
                  "midi": 57,
                  "name": "A3",
                  "ticks": 3504000,
                  "time": 113.47156500000001,
                  "velocity": 0.6614173228346457
              },
              {
                  "duration": 0.15544049999999743,
                  "durationTicks": 4800,
                  "midi": 65,
                  "name": "F4",
                  "ticks": 3504000,
                  "time": 113.47156500000001,
                  "velocity": 0.5984251968503937
              },
              {
                  "duration": 0.15544049999999743,
                  "durationTicks": 4800,
                  "midi": 55,
                  "name": "G3",
                  "ticks": 3508800,
                  "time": 113.62700550000001,
                  "velocity": 0.5511811023622047
              },
              {
                  "duration": 0.15544049999999743,
                  "durationTicks": 4800,
                  "midi": 57,
                  "name": "A3",
                  "ticks": 3508800,
                  "time": 113.62700550000001,
                  "velocity": 0.5905511811023622
              },
              {
                  "duration": 0.15544049999999743,
                  "durationTicks": 4800,
                  "midi": 65,
                  "name": "F4",
                  "ticks": 3508800,
                  "time": 113.62700550000001,
                  "velocity": 0.5275590551181102
              },
              {
                  "duration": 0.07772024999999871,
                  "durationTicks": 2400,
                  "midi": 55,
                  "name": "G3",
                  "ticks": 3513600,
                  "time": 113.78244600000001,
                  "velocity": 0.6141732283464567
              },
              {
                  "duration": 0.07772024999999871,
                  "durationTicks": 2400,
                  "midi": 65,
                  "name": "F4",
                  "ticks": 3513600,
                  "time": 113.78244600000001,
                  "velocity": 0.5984251968503937
              },
              {
                  "duration": 0.07772024999999871,
                  "durationTicks": 2400,
                  "midi": 57,
                  "name": "A3",
                  "ticks": 3513600,
                  "time": 113.78244600000001,
                  "velocity": 0.6614173228346457
              },
              {
                  "duration": 0.07772024999999871,
                  "durationTicks": 2400,
                  "midi": 55,
                  "name": "G3",
                  "ticks": 3518400,
                  "time": 113.9378865,
                  "velocity": 0.5511811023622047
              },
              {
                  "duration": 0.07772024999999871,
                  "durationTicks": 2400,
                  "midi": 57,
                  "name": "A3",
                  "ticks": 3518400,
                  "time": 113.9378865,
                  "velocity": 0.5905511811023622
              },
              {
                  "duration": 0.07772024999999871,
                  "durationTicks": 2400,
                  "midi": 65,
                  "name": "F4",
                  "ticks": 3518400,
                  "time": 113.9378865,
                  "velocity": 0.5275590551181102
              },
              {
                  "duration": 0.11658037499999807,
                  "durationTicks": 3600,
                  "midi": 55,
                  "name": "G3",
                  "ticks": 3523200,
                  "time": 114.093327,
                  "velocity": 0.6299212598425197
              },
              {
                  "duration": 0.11658037499999807,
                  "durationTicks": 3600,
                  "midi": 57,
                  "name": "A3",
                  "ticks": 3523200,
                  "time": 114.093327,
                  "velocity": 0.6771653543307087
              },
              {
                  "duration": 0.11658037499999807,
                  "durationTicks": 3600,
                  "midi": 65,
                  "name": "F4",
                  "ticks": 3523200,
                  "time": 114.093327,
                  "velocity": 0.6141732283464567
              },
              {
                  "duration": 0.15544049999999743,
                  "durationTicks": 4800,
                  "midi": 55,
                  "name": "G3",
                  "ticks": 3528000,
                  "time": 114.24876750000001,
                  "velocity": 0.5669291338582677
              },
              {
                  "duration": 0.15544049999999743,
                  "durationTicks": 4800,
                  "midi": 57,
                  "name": "A3",
                  "ticks": 3528000,
                  "time": 114.24876750000001,
                  "velocity": 0.6141732283464567
              },
              {
                  "duration": 0.11658037499999807,
                  "durationTicks": 3600,
                  "midi": 65,
                  "name": "F4",
                  "ticks": 3528000,
                  "time": 114.24876750000001,
                  "velocity": 0.5511811023622047
              },
              {
                  "duration": 0.11658037499999807,
                  "durationTicks": 3600,
                  "midi": 48,
                  "name": "C3",
                  "ticks": 3532800,
                  "time": 114.40420800000001,
                  "velocity": 0.4881889763779528
              },
              {
                  "duration": 0.11658037499999807,
                  "durationTicks": 3600,
                  "midi": 55,
                  "name": "G3",
                  "ticks": 3532800,
                  "time": 114.40420800000001,
                  "velocity": 0.6141732283464567
              },
              {
                  "duration": 0.11658037499999807,
                  "durationTicks": 3600,
                  "midi": 60,
                  "name": "C4",
                  "ticks": 3532800,
                  "time": 114.40420800000001,
                  "velocity": 0.6850393700787402
              },
              {
                  "duration": 0.11658037499999807,
                  "durationTicks": 3600,
                  "midi": 64,
                  "name": "E4",
                  "ticks": 3532800,
                  "time": 114.40420800000001,
                  "velocity": 0.5826771653543307
              },
              {
                  "duration": 0.11658037499999807,
                  "durationTicks": 3600,
                  "midi": 67,
                  "name": "G4",
                  "ticks": 3532800,
                  "time": 114.40420800000001,
                  "velocity": 0.6929133858267716
              },
              {
                  "duration": 0.11658037499999807,
                  "durationTicks": 3600,
                  "midi": 48,
                  "name": "C3",
                  "ticks": 3537600,
                  "time": 114.55964850000001,
                  "velocity": 0.4094488188976378
              },
              {
                  "duration": 0.07772024999999871,
                  "durationTicks": 2400,
                  "midi": 55,
                  "name": "G3",
                  "ticks": 3537600,
                  "time": 114.55964850000001,
                  "velocity": 0.5511811023622047
              },
              {
                  "duration": 0.11658037499999807,
                  "durationTicks": 3600,
                  "midi": 60,
                  "name": "C4",
                  "ticks": 3537600,
                  "time": 114.55964850000001,
                  "velocity": 0.6062992125984252
              },
              {
                  "duration": 0.11658037499999807,
                  "durationTicks": 3600,
                  "midi": 64,
                  "name": "E4",
                  "ticks": 3537600,
                  "time": 114.55964850000001,
                  "velocity": 0.5118110236220472
              },
              {
                  "duration": 0.11658037499999807,
                  "durationTicks": 3600,
                  "midi": 67,
                  "name": "G4",
                  "ticks": 3537600,
                  "time": 114.55964850000001,
                  "velocity": 0.6220472440944882
              },
              {
                  "duration": 0.03886012499999936,
                  "durationTicks": 1200,
                  "midi": 74,
                  "name": "D5",
                  "ticks": 3537600,
                  "time": 114.55964850000001,
                  "velocity": 0.6771653543307087
              },
              {
                  "duration": 0.15544049999999743,
                  "durationTicks": 4800,
                  "midi": 60,
                  "name": "C4",
                  "ticks": 3542400,
                  "time": 114.715089,
                  "velocity": 0.6850393700787402
              },
              {
                  "duration": 0.15544049999999743,
                  "durationTicks": 4800,
                  "midi": 64,
                  "name": "E4",
                  "ticks": 3542400,
                  "time": 114.715089,
                  "velocity": 0.5826771653543307
              },
              {
                  "duration": 0.07772024999999871,
                  "durationTicks": 2400,
                  "midi": 72,
                  "name": "C5",
                  "ticks": 3542400,
                  "time": 114.715089,
                  "velocity": 0.6692913385826772
              },
              {
                  "duration": 0.03886012499999936,
                  "durationTicks": 1200,
                  "midi": 67,
                  "name": "G4",
                  "ticks": 3542400,
                  "time": 114.715089,
                  "velocity": 0.6929133858267716
              },
              {
                  "duration": 0.15544049999999743,
                  "durationTicks": 4800,
                  "midi": 60,
                  "name": "C4",
                  "ticks": 3547200,
                  "time": 114.8705295,
                  "velocity": 0.6062992125984252
              },
              {
                  "duration": 0.07772024999999871,
                  "durationTicks": 2400,
                  "midi": 64,
                  "name": "E4",
                  "ticks": 3547200,
                  "time": 114.8705295,
                  "velocity": 0.5118110236220472
              },
              {
                  "duration": 0.07772024999999871,
                  "durationTicks": 2400,
                  "midi": 69,
                  "name": "A4",
                  "ticks": 3547200,
                  "time": 114.8705295,
                  "velocity": 0.6535433070866141
              },
              {
                  "duration": 0.07772025000001292,
                  "durationTicks": 2400,
                  "midi": 60,
                  "name": "C4",
                  "ticks": 3552000,
                  "time": 115.02597,
                  "velocity": 0.6850393700787402
              },
              {
                  "duration": 0.03886012499999936,
                  "durationTicks": 1200,
                  "midi": 67,
                  "name": "G4",
                  "ticks": 3552000,
                  "time": 115.02597,
                  "velocity": 0.7637795275590551
              },
              {
                  "duration": 0.07772024999999871,
                  "durationTicks": 2400,
                  "midi": 60,
                  "name": "C4",
                  "ticks": 3556800,
                  "time": 115.18141050000001,
                  "velocity": 0.6062992125984252
              },
              {
                  "duration": 0.07772024999999871,
                  "durationTicks": 2400,
                  "midi": 64,
                  "name": "E4",
                  "ticks": 3556800,
                  "time": 115.18141050000001,
                  "velocity": 0.5354330708661418
              },
              {
                  "duration": 0.07772024999999871,
                  "durationTicks": 2400,
                  "midi": 65,
                  "name": "F4",
                  "ticks": 3556800,
                  "time": 115.18141050000001,
                  "velocity": 0.6771653543307087
              },
              {
                  "duration": 0.03886012499999936,
                  "durationTicks": 1200,
                  "midi": 62,
                  "name": "D4",
                  "ticks": 3561600,
                  "time": 115.33685100000001,
                  "velocity": 0.8110236220472441
              },
              {
                  "duration": 0.11658037499999807,
                  "durationTicks": 3600,
                  "midi": 64,
                  "name": "E4",
                  "ticks": 3561600,
                  "time": 115.33685100000001,
                  "velocity": 0.6220472440944882
              },
              {
                  "duration": 0.11658037499999807,
                  "durationTicks": 3600,
                  "midi": 60,
                  "name": "C4",
                  "ticks": 3566400,
                  "time": 115.49229150000001,
                  "velocity": 0.7086614173228346
              },
              {
                  "duration": 0.07772024999999871,
                  "durationTicks": 2400,
                  "midi": 64,
                  "name": "E4",
                  "ticks": 3566400,
                  "time": 115.49229150000001,
                  "velocity": 0.5669291338582677
              },
              {
                  "duration": 0.11658037499999807,
                  "durationTicks": 3600,
                  "midi": 38,
                  "name": "D2",
                  "ticks": 3571200,
                  "time": 115.647732,
                  "velocity": 0.5196850393700787
              },
              {
                  "duration": 0.11658037499999807,
                  "durationTicks": 3600,
                  "midi": 50,
                  "name": "D3",
                  "ticks": 3571200,
                  "time": 115.647732,
                  "velocity": 0.6377952755905512
              },
              {
                  "duration": 0.11658037499999807,
                  "durationTicks": 3600,
                  "midi": 65,
                  "name": "F4",
                  "ticks": 3571200,
                  "time": 115.647732,
                  "velocity": 0.6062992125984252
              },
              {
                  "duration": 0.11658037499999807,
                  "durationTicks": 3600,
                  "midi": 38,
                  "name": "D2",
                  "ticks": 3576000,
                  "time": 115.8031725,
                  "velocity": 0.4409448818897638
              },
              {
                  "duration": 0.11658037499999807,
                  "durationTicks": 3600,
                  "midi": 50,
                  "name": "D3",
                  "ticks": 3576000,
                  "time": 115.8031725,
                  "velocity": 0.5669291338582677
              },
              {
                  "duration": 0.11658037499999807,
                  "durationTicks": 3600,
                  "midi": 65,
                  "name": "F4",
                  "ticks": 3576000,
                  "time": 115.8031725,
                  "velocity": 0.5354330708661418
              },
              {
                  "duration": 0.15544049999999743,
                  "durationTicks": 4800,
                  "midi": 38,
                  "name": "D2",
                  "ticks": 3580800,
                  "time": 115.95861300000001,
                  "velocity": 0.5196850393700787
              },
              {
                  "duration": 0.15544049999999743,
                  "durationTicks": 4800,
                  "midi": 50,
                  "name": "D3",
                  "ticks": 3580800,
                  "time": 115.95861300000001,
                  "velocity": 0.6377952755905512
              },
              {
                  "duration": 0.15544049999999743,
                  "durationTicks": 4800,
                  "midi": 65,
                  "name": "F4",
                  "ticks": 3580800,
                  "time": 115.95861300000001,
                  "velocity": 0.6062992125984252
              },
              {
                  "duration": 0.11658037499999807,
                  "durationTicks": 3600,
                  "midi": 38,
                  "name": "D2",
                  "ticks": 3585600,
                  "time": 116.11405350000001,
                  "velocity": 0.4409448818897638
              },
              {
                  "duration": 0.11658037499999807,
                  "durationTicks": 3600,
                  "midi": 50,
                  "name": "D3",
                  "ticks": 3585600,
                  "time": 116.11405350000001,
                  "velocity": 0.5669291338582677
              },
              {
                  "duration": 0.11658037499999807,
                  "durationTicks": 3600,
                  "midi": 65,
                  "name": "F4",
                  "ticks": 3585600,
                  "time": 116.11405350000001,
                  "velocity": 0.5354330708661418
              },
              {
                  "duration": 0.07772024999999871,
                  "durationTicks": 2400,
                  "midi": 38,
                  "name": "D2",
                  "ticks": 3590400,
                  "time": 116.26949400000001,
                  "velocity": 0.5196850393700787
              },
              {
                  "duration": 0.07772024999999871,
                  "durationTicks": 2400,
                  "midi": 50,
                  "name": "D3",
                  "ticks": 3590400,
                  "time": 116.26949400000001,
                  "velocity": 0.6377952755905512
              },
              {
                  "duration": 0.07772024999999871,
                  "durationTicks": 2400,
                  "midi": 57,
                  "name": "A3",
                  "ticks": 3590400,
                  "time": 116.26949400000001,
                  "velocity": 0.4881889763779528
              },
              {
                  "duration": 0.07772024999999871,
                  "durationTicks": 2400,
                  "midi": 38,
                  "name": "D2",
                  "ticks": 3595200,
                  "time": 116.4249345,
                  "velocity": 0.4409448818897638
              },
              {
                  "duration": 0.07772024999999871,
                  "durationTicks": 2400,
                  "midi": 50,
                  "name": "D3",
                  "ticks": 3595200,
                  "time": 116.4249345,
                  "velocity": 0.5669291338582677
              },
              {
                  "duration": 0.07772024999999871,
                  "durationTicks": 2400,
                  "midi": 57,
                  "name": "A3",
                  "ticks": 3595200,
                  "time": 116.4249345,
                  "velocity": 0.41732283464566927
              },
              {
                  "duration": 0.11658037499999807,
                  "durationTicks": 3600,
                  "midi": 38,
                  "name": "D2",
                  "ticks": 3600000,
                  "time": 116.580375,
                  "velocity": 0.5275590551181102
              },
              {
                  "duration": 0.11658037499999807,
                  "durationTicks": 3600,
                  "midi": 50,
                  "name": "D3",
                  "ticks": 3600000,
                  "time": 116.580375,
                  "velocity": 0.6456692913385826
              },
              {
                  "duration": 0.11658037499999807,
                  "durationTicks": 3600,
                  "midi": 57,
                  "name": "A3",
                  "ticks": 3600000,
                  "time": 116.580375,
                  "velocity": 0.5039370078740157
              },
              {
                  "duration": 0.11658037500001228,
                  "durationTicks": 3600,
                  "midi": 38,
                  "name": "D2",
                  "ticks": 3604800,
                  "time": 116.7358155,
                  "velocity": 0.47244094488188976
              },
              {
                  "duration": 0.11658037500001228,
                  "durationTicks": 3600,
                  "midi": 50,
                  "name": "D3",
                  "ticks": 3604800,
                  "time": 116.7358155,
                  "velocity": 0.5905511811023622
              },
              {
                  "duration": 0.07772025000001292,
                  "durationTicks": 2400,
                  "midi": 57,
                  "name": "A3",
                  "ticks": 3604800,
                  "time": 116.7358155,
                  "velocity": 0.4409448818897638
              },
              {
                  "duration": 0.11658037499999807,
                  "durationTicks": 3600,
                  "midi": 34,
                  "name": "A#1",
                  "ticks": 3609600,
                  "time": 116.89125600000001,
                  "velocity": 0.5590551181102362
              },
              {
                  "duration": 0.11658037499999807,
                  "durationTicks": 3600,
                  "midi": 65,
                  "name": "F4",
                  "ticks": 3609600,
                  "time": 116.89125600000001,
                  "velocity": 0.6614173228346457
              },
              {
                  "duration": 0.11658037499999807,
                  "durationTicks": 3600,
                  "midi": 70,
                  "name": "A#4",
                  "ticks": 3609600,
                  "time": 116.89125600000001,
                  "velocity": 0.5669291338582677
              },
              {
                  "duration": 0.11658037499999807,
                  "durationTicks": 3600,
                  "midi": 34,
                  "name": "A#1",
                  "ticks": 3614400,
                  "time": 117.04669650000001,
                  "velocity": 0.4881889763779528
              },
              {
                  "duration": 0.11658037499999807,
                  "durationTicks": 3600,
                  "midi": 65,
                  "name": "F4",
                  "ticks": 3614400,
                  "time": 117.04669650000001,
                  "velocity": 0.5826771653543307
              },
              {
                  "duration": 0.11658037499999807,
                  "durationTicks": 3600,
                  "midi": 70,
                  "name": "A#4",
                  "ticks": 3614400,
                  "time": 117.04669650000001,
                  "velocity": 0.4881889763779528
              },
              {
                  "duration": 0.15544049999999743,
                  "durationTicks": 4800,
                  "midi": 34,
                  "name": "A#1",
                  "ticks": 3619200,
                  "time": 117.20213700000001,
                  "velocity": 0.5590551181102362
              },
              {
                  "duration": 0.15544049999999743,
                  "durationTicks": 4800,
                  "midi": 53,
                  "name": "F3",
                  "ticks": 3619200,
                  "time": 117.20213700000001,
                  "velocity": 0.48031496062992124
              },
              {
                  "duration": 0.15544049999999743,
                  "durationTicks": 4800,
                  "midi": 58,
                  "name": "A#3",
                  "ticks": 3619200,
                  "time": 117.20213700000001,
                  "velocity": 0.5039370078740157
              },
              {
                  "duration": 0.15544049999999743,
                  "durationTicks": 4800,
                  "midi": 65,
                  "name": "F4",
                  "ticks": 3619200,
                  "time": 117.20213700000001,
                  "velocity": 0.6614173228346457
              },
              {
                  "duration": 0.15544049999999743,
                  "durationTicks": 4800,
                  "midi": 70,
                  "name": "A#4",
                  "ticks": 3619200,
                  "time": 117.20213700000001,
                  "velocity": 0.5669291338582677
              },
              {
                  "duration": 0.11658037499999807,
                  "durationTicks": 3600,
                  "midi": 34,
                  "name": "A#1",
                  "ticks": 3624000,
                  "time": 117.3575775,
                  "velocity": 0.4881889763779528
              },
              {
                  "duration": 0.11658037499999807,
                  "durationTicks": 3600,
                  "midi": 46,
                  "name": "A#2",
                  "ticks": 3624000,
                  "time": 117.3575775,
                  "velocity": 0.4094488188976378
              },
              {
                  "duration": 0.11658037499999807,
                  "durationTicks": 3600,
                  "midi": 53,
                  "name": "F3",
                  "ticks": 3624000,
                  "time": 117.3575775,
                  "velocity": 0.4094488188976378
              },
              {
                  "duration": 0.11658037499999807,
                  "durationTicks": 3600,
                  "midi": 58,
                  "name": "A#3",
                  "ticks": 3624000,
                  "time": 117.3575775,
                  "velocity": 0.4330708661417323
              },
              {
                  "duration": 0.11658037499999807,
                  "durationTicks": 3600,
                  "midi": 65,
                  "name": "F4",
                  "ticks": 3624000,
                  "time": 117.3575775,
                  "velocity": 0.5826771653543307
              },
              {
                  "duration": 0.11658037499999807,
                  "durationTicks": 3600,
                  "midi": 70,
                  "name": "A#4",
                  "ticks": 3624000,
                  "time": 117.3575775,
                  "velocity": 0.4881889763779528
              },
              {
                  "duration": 0.07772024999999871,
                  "durationTicks": 2400,
                  "midi": 34,
                  "name": "A#1",
                  "ticks": 3628800,
                  "time": 117.513018,
                  "velocity": 0.5590551181102362
              },
              {
                  "duration": 0.07772024999999871,
                  "durationTicks": 2400,
                  "midi": 46,
                  "name": "A#2",
                  "ticks": 3628800,
                  "time": 117.513018,
                  "velocity": 0.47244094488188976
              },
              {
                  "duration": 0.07772024999999871,
                  "durationTicks": 2400,
                  "midi": 53,
                  "name": "F3",
                  "ticks": 3628800,
                  "time": 117.513018,
                  "velocity": 0.48031496062992124
              },
              {
                  "duration": 0.07772024999999871,
                  "durationTicks": 2400,
                  "midi": 58,
                  "name": "A#3",
                  "ticks": 3628800,
                  "time": 117.513018,
                  "velocity": 0.5039370078740157
              },
              {
                  "duration": 0.07772024999999871,
                  "durationTicks": 2400,
                  "midi": 65,
                  "name": "F4",
                  "ticks": 3628800,
                  "time": 117.513018,
                  "velocity": 0.6614173228346457
              },
              {
                  "duration": 0.07772024999999871,
                  "durationTicks": 2400,
                  "midi": 70,
                  "name": "A#4",
                  "ticks": 3628800,
                  "time": 117.513018,
                  "velocity": 0.5669291338582677
              },
              {
                  "duration": 0.07772024999999871,
                  "durationTicks": 2400,
                  "midi": 34,
                  "name": "A#1",
                  "ticks": 3633600,
                  "time": 117.66845850000001,
                  "velocity": 0.4881889763779528
              },
              {
                  "duration": 0.07772024999999871,
                  "durationTicks": 2400,
                  "midi": 46,
                  "name": "A#2",
                  "ticks": 3633600,
                  "time": 117.66845850000001,
                  "velocity": 0.4094488188976378
              },
              {
                  "duration": 0.07772024999999871,
                  "durationTicks": 2400,
                  "midi": 53,
                  "name": "F3",
                  "ticks": 3633600,
                  "time": 117.66845850000001,
                  "velocity": 0.4094488188976378
              },
              {
                  "duration": 0.07772024999999871,
                  "durationTicks": 2400,
                  "midi": 58,
                  "name": "A#3",
                  "ticks": 3633600,
                  "time": 117.66845850000001,
                  "velocity": 0.4330708661417323
              },
              {
                  "duration": 0.07772024999999871,
                  "durationTicks": 2400,
                  "midi": 65,
                  "name": "F4",
                  "ticks": 3633600,
                  "time": 117.66845850000001,
                  "velocity": 0.5826771653543307
              },
              {
                  "duration": 0.07772024999999871,
                  "durationTicks": 2400,
                  "midi": 70,
                  "name": "A#4",
                  "ticks": 3633600,
                  "time": 117.66845850000001,
                  "velocity": 0.4881889763779528
              },
              {
                  "duration": 0.11658037499999807,
                  "durationTicks": 3600,
                  "midi": 34,
                  "name": "A#1",
                  "ticks": 3638400,
                  "time": 117.82389900000001,
                  "velocity": 0.5669291338582677
              },
              {
                  "duration": 0.11658037499999807,
                  "durationTicks": 3600,
                  "midi": 53,
                  "name": "F3",
                  "ticks": 3638400,
                  "time": 117.82389900000001,
                  "velocity": 0.4881889763779528
              },
              {
                  "duration": 0.11658037499999807,
                  "durationTicks": 3600,
                  "midi": 58,
                  "name": "A#3",
                  "ticks": 3638400,
                  "time": 117.82389900000001,
                  "velocity": 0.5196850393700787
              },
              {
                  "duration": 0.03886012499999936,
                  "durationTicks": 1200,
                  "midi": 65,
                  "name": "F4",
                  "ticks": 3638400,
                  "time": 117.82389900000001,
                  "velocity": 0.6692913385826772
              },
              {
                  "duration": 0.03886012499999936,
                  "durationTicks": 1200,
                  "midi": 70,
                  "name": "A#4",
                  "ticks": 3638400,
                  "time": 117.82389900000001,
                  "velocity": 0.5748031496062992
              },
              {
                  "duration": 0.11658037499999807,
                  "durationTicks": 3600,
                  "midi": 34,
                  "name": "A#1",
                  "ticks": 3643200,
                  "time": 117.97933950000001,
                  "velocity": 0.5039370078740157
              },
              {
                  "duration": 0.07772024999999871,
                  "durationTicks": 2400,
                  "midi": 53,
                  "name": "F3",
                  "ticks": 3643200,
                  "time": 117.97933950000001,
                  "velocity": 0.4330708661417323
              },
              {
                  "duration": 0.07772024999999871,
                  "durationTicks": 2400,
                  "midi": 58,
                  "name": "A#3",
                  "ticks": 3643200,
                  "time": 117.97933950000001,
                  "velocity": 0.4566929133858268
              },
              {
                  "duration": 0.11658037499999807,
                  "durationTicks": 3600,
                  "midi": 31,
                  "name": "G1",
                  "ticks": 3648000,
                  "time": 118.13478,
                  "velocity": 0.6850393700787402
              },
              {
                  "duration": 0.11658037499999807,
                  "durationTicks": 3600,
                  "midi": 55,
                  "name": "G3",
                  "ticks": 3648000,
                  "time": 118.13478,
                  "velocity": 0.6299212598425197
              },
              {
                  "duration": 0.07772024999999871,
                  "durationTicks": 2400,
                  "midi": 62,
                  "name": "D4",
                  "ticks": 3648000,
                  "time": 118.13478,
                  "velocity": 0.8031496062992126
              },
              {
                  "duration": 0.11658037499999807,
                  "durationTicks": 3600,
                  "midi": 31,
                  "name": "G1",
                  "ticks": 3652800,
                  "time": 118.2902205,
                  "velocity": 0.6062992125984252
              },
              {
                  "duration": 0.11658037499999807,
                  "durationTicks": 3600,
                  "midi": 55,
                  "name": "G3",
                  "ticks": 3652800,
                  "time": 118.2902205,
                  "velocity": 0.5511811023622047
              },
              {
                  "duration": 0.03886012499999936,
                  "durationTicks": 1200,
                  "midi": 65,
                  "name": "F4",
                  "ticks": 3652800,
                  "time": 118.2902205,
                  "velocity": 0.7244094488188977
              },
              {
                  "duration": 0.07772025000001292,
                  "durationTicks": 2400,
                  "midi": 31,
                  "name": "G1",
                  "ticks": 3657600,
                  "time": 118.445661,
                  "velocity": 0.6850393700787402
              },
              {
                  "duration": 0.07772025000001292,
                  "durationTicks": 2400,
                  "midi": 55,
                  "name": "G3",
                  "ticks": 3657600,
                  "time": 118.445661,
                  "velocity": 0.6299212598425197
              },
              {
                  "duration": 0.03886012499999936,
                  "durationTicks": 1200,
                  "midi": 67,
                  "name": "G4",
                  "ticks": 3657600,
                  "time": 118.445661,
                  "velocity": 0.7322834645669292
              },
              {
                  "duration": 0.15544049999999743,
                  "durationTicks": 4800,
                  "midi": 33,
                  "name": "A1",
                  "ticks": 3662400,
                  "time": 118.60110150000001,
                  "velocity": 0.6377952755905512
              },
              {
                  "duration": 0.15544049999999743,
                  "durationTicks": 4800,
                  "midi": 65,
                  "name": "F4",
                  "ticks": 3662400,
                  "time": 118.60110150000001,
                  "velocity": 0.6299212598425197
              },
              {
                  "duration": 0.15544049999999743,
                  "durationTicks": 4800,
                  "midi": 60,
                  "name": "C4",
                  "ticks": 3662400,
                  "time": 118.60110150000001,
                  "velocity": 0.5196850393700787
              },
              {
                  "duration": 0.07772024999999871,
                  "durationTicks": 2400,
                  "midi": 33,
                  "name": "A1",
                  "ticks": 3667200,
                  "time": 118.75654200000001,
                  "velocity": 0.7086614173228346
              },
              {
                  "duration": 0.07772024999999871,
                  "durationTicks": 2400,
                  "midi": 60,
                  "name": "C4",
                  "ticks": 3667200,
                  "time": 118.75654200000001,
                  "velocity": 0.5984251968503937
              },
              {
                  "duration": 0.07772024999999871,
                  "durationTicks": 2400,
                  "midi": 65,
                  "name": "F4",
                  "ticks": 3667200,
                  "time": 118.75654200000001,
                  "velocity": 0.7086614173228346
              },
              {
                  "duration": 0.07772024999999871,
                  "durationTicks": 2400,
                  "midi": 33,
                  "name": "A1",
                  "ticks": 3672000,
                  "time": 118.91198250000001,
                  "velocity": 0.6377952755905512
              },
              {
                  "duration": 0.07772024999999871,
                  "durationTicks": 2400,
                  "midi": 60,
                  "name": "C4",
                  "ticks": 3672000,
                  "time": 118.91198250000001,
                  "velocity": 0.5196850393700787
              },
              {
                  "duration": 0.03886012499999936,
                  "durationTicks": 1200,
                  "midi": 67,
                  "name": "G4",
                  "ticks": 3672000,
                  "time": 118.91198250000001,
                  "velocity": 0.7401574803149606
              },
              {
                  "duration": 0.11658037499999807,
                  "durationTicks": 3600,
                  "midi": 34,
                  "name": "A#1",
                  "ticks": 3676800,
                  "time": 119.067423,
                  "velocity": 0.7401574803149606
              },
              {
                  "duration": 0.03886012499999936,
                  "durationTicks": 1200,
                  "midi": 69,
                  "name": "A4",
                  "ticks": 3676800,
                  "time": 119.067423,
                  "velocity": 0.7874015748031497
              },
              {
                  "duration": 0.15544050000001164,
                  "durationTicks": 4800,
                  "midi": 34,
                  "name": "A#1",
                  "ticks": 3681600,
                  "time": 119.2228635,
                  "velocity": 0.6771653543307087
              },
              {
                  "duration": 0.07772024999999871,
                  "durationTicks": 2400,
                  "midi": 72,
                  "name": "C5",
                  "ticks": 3681600,
                  "time": 119.2228635,
                  "velocity": 0.6692913385826772
              }
          ],
          "endOfTrackTicks": 3686400
      },
      {
          "channel": 6,
          "controlChanges": {},
          "pitchBends": [],
          "instrument": {
              "family": "synth pads",
              "number": 6,
              "name": "poly synth"
          },
          "name": "Poly Synth",
          "notes": [
              {
                  "duration": 0.11658037500000007,
                  "durationTicks": 3600,
                  "midi": 41,
                  "name": "F2",
                  "ticks": 38400,
                  "time": 1.243524,
                  "velocity": 0.7322834645669292
              },
              {
                  "duration": 0.11658037500000007,
                  "durationTicks": 3600,
                  "midi": 48,
                  "name": "C3",
                  "ticks": 38400,
                  "time": 1.243524,
                  "velocity": 0.6141732283464567
              },
              {
                  "duration": 0.11658037500000007,
                  "durationTicks": 3600,
                  "midi": 57,
                  "name": "A3",
                  "ticks": 38400,
                  "time": 1.243524,
                  "velocity": 0.7244094488188977
              },
              {
                  "duration": 0.11658037499999985,
                  "durationTicks": 3600,
                  "midi": 41,
                  "name": "F2",
                  "ticks": 43200,
                  "time": 1.3989645000000002,
                  "velocity": 0.8503937007874016
              },
              {
                  "duration": 0.07772024999999982,
                  "durationTicks": 2400,
                  "midi": 48,
                  "name": "C3",
                  "ticks": 43200,
                  "time": 1.3989645000000002,
                  "velocity": 0.7401574803149606
              },
              {
                  "duration": 0.11658037499999985,
                  "durationTicks": 3600,
                  "midi": 57,
                  "name": "A3",
                  "ticks": 43200,
                  "time": 1.3989645000000002,
                  "velocity": 0.8503937007874016
              },
              {
                  "duration": 0.11658037499999985,
                  "durationTicks": 3600,
                  "midi": 84,
                  "name": "C6",
                  "ticks": 43200,
                  "time": 1.3989645000000002,
                  "velocity": 0.8031496062992126
              },
              {
                  "duration": 0.03886012500000002,
                  "durationTicks": 1200,
                  "midi": 79,
                  "name": "G5",
                  "ticks": 48000,
                  "time": 1.554405,
                  "velocity": 0.7401574803149606
              },
              {
                  "duration": 0.11658037500000007,
                  "durationTicks": 3600,
                  "midi": 29,
                  "name": "F1",
                  "ticks": 52800,
                  "time": 1.7098455000000001,
                  "velocity": 0.6456692913385826
              },
              {
                  "duration": 0.03886012500000002,
                  "durationTicks": 1200,
                  "midi": 81,
                  "name": "A5",
                  "ticks": 52800,
                  "time": 1.7098455000000001,
                  "velocity": 0.7559055118110236
              },
              {
                  "duration": 0.07772024999999982,
                  "durationTicks": 2400,
                  "midi": 29,
                  "name": "F1",
                  "ticks": 57600,
                  "time": 1.8652860000000002,
                  "velocity": 0.7086614173228346
              },
              {
                  "duration": 0.11658037499999985,
                  "durationTicks": 3600,
                  "midi": 29,
                  "name": "F1",
                  "ticks": 62400,
                  "time": 2.0207265000000003,
                  "velocity": 0.6929133858267716
              },
              {
                  "duration": 0.11658037499999985,
                  "durationTicks": 3600,
                  "midi": 41,
                  "name": "F2",
                  "ticks": 62400,
                  "time": 2.0207265000000003,
                  "velocity": 0.7007874015748031
              },
              {
                  "duration": 0.11658037499999985,
                  "durationTicks": 3600,
                  "midi": 57,
                  "name": "A3",
                  "ticks": 62400,
                  "time": 2.0207265000000003,
                  "velocity": 0.5905511811023622
              },
              {
                  "duration": 0.0777202499999996,
                  "durationTicks": 2400,
                  "midi": 77,
                  "name": "F5",
                  "ticks": 62400,
                  "time": 2.0207265000000003,
                  "velocity": 0.6771653543307087
              },
              {
                  "duration": 0.07772025000000005,
                  "durationTicks": 2400,
                  "midi": 29,
                  "name": "F1",
                  "ticks": 67200,
                  "time": 2.176167,
                  "velocity": 0.8267716535433071
              },
              {
                  "duration": 0.11658037500000029,
                  "durationTicks": 3600,
                  "midi": 34,
                  "name": "A#1",
                  "ticks": 72000,
                  "time": 2.3316075,
                  "velocity": 0.8188976377952756
              },
              {
                  "duration": 0.07772025000000005,
                  "durationTicks": 2400,
                  "midi": 74,
                  "name": "D5",
                  "ticks": 72000,
                  "time": 2.3316075,
                  "velocity": 0.8188976377952756
              },
              {
                  "duration": 0.11658037499999985,
                  "durationTicks": 3600,
                  "midi": 34,
                  "name": "A#1",
                  "ticks": 76800,
                  "time": 2.487048,
                  "velocity": 0.8031496062992126
              },
              {
                  "duration": 0.11658037499999985,
                  "durationTicks": 3600,
                  "midi": 34,
                  "name": "A#1",
                  "ticks": 81600,
                  "time": 2.6424885000000002,
                  "velocity": 0.9291338582677166
              },
              {
                  "duration": 0.07772025000000005,
                  "durationTicks": 2400,
                  "midi": 77,
                  "name": "F5",
                  "ticks": 81600,
                  "time": 2.6424885000000002,
                  "velocity": 0.8346456692913385
              },
              {
                  "duration": 0.11658037499999985,
                  "durationTicks": 3600,
                  "midi": 34,
                  "name": "A#1",
                  "ticks": 86400,
                  "time": 2.7979290000000003,
                  "velocity": 0.8188976377952756
              },
              {
                  "duration": 0.07772025000000005,
                  "durationTicks": 2400,
                  "midi": 74,
                  "name": "D5",
                  "ticks": 86400,
                  "time": 2.7979290000000003,
                  "velocity": 0.8031496062992126
              },
              {
                  "duration": 0.11658037500000029,
                  "durationTicks": 3600,
                  "midi": 34,
                  "name": "A#1",
                  "ticks": 91200,
                  "time": 2.9533695,
                  "velocity": 0.8188976377952756
              },
              {
                  "duration": 0.11658037500000029,
                  "durationTicks": 3600,
                  "midi": 53,
                  "name": "F3",
                  "ticks": 91200,
                  "time": 2.9533695,
                  "velocity": 0.5669291338582677
              },
              {
                  "duration": 0.07772025000000005,
                  "durationTicks": 2400,
                  "midi": 72,
                  "name": "C5",
                  "ticks": 91200,
                  "time": 2.9533695,
                  "velocity": 0.7637795275590551
              },
              {
                  "duration": 0.11658037500000029,
                  "durationTicks": 3600,
                  "midi": 34,
                  "name": "A#1",
                  "ticks": 96000,
                  "time": 3.10881,
                  "velocity": 0.889763779527559
              },
              {
                  "duration": 0.038860125000000245,
                  "durationTicks": 1200,
                  "midi": 53,
                  "name": "F3",
                  "ticks": 96000,
                  "time": 3.10881,
                  "velocity": 0.6456692913385826
              },
              {
                  "duration": 0.07772025000000005,
                  "durationTicks": 2400,
                  "midi": 74,
                  "name": "D5",
                  "ticks": 96000,
                  "time": 3.10881,
                  "velocity": 0.8110236220472441
              },
              {
                  "duration": 0.11658037499999985,
                  "durationTicks": 3600,
                  "midi": 34,
                  "name": "A#1",
                  "ticks": 100800,
                  "time": 3.2642505,
                  "velocity": 0.7952755905511811
              },
              {
                  "duration": 0.07772025000000005,
                  "durationTicks": 2400,
                  "midi": 72,
                  "name": "C5",
                  "ticks": 100800,
                  "time": 3.2642505,
                  "velocity": 0.7401574803149606
              },
              {
                  "duration": 0.0388601249999998,
                  "durationTicks": 1200,
                  "midi": 34,
                  "name": "A#1",
                  "ticks": 105600,
                  "time": 3.4196910000000003,
                  "velocity": 0.9291338582677166
              },
              {
                  "duration": 0.07772025000000005,
                  "durationTicks": 2400,
                  "midi": 69,
                  "name": "A4",
                  "ticks": 105600,
                  "time": 3.4196910000000003,
                  "velocity": 0.9133858267716536
              },
              {
                  "duration": 0.07772025000000005,
                  "durationTicks": 2400,
                  "midi": 67,
                  "name": "G4",
                  "ticks": 110400,
                  "time": 3.5751315000000004,
                  "velocity": 0.8267716535433071
              },
              {
                  "duration": 0.11658037499999985,
                  "durationTicks": 3600,
                  "midi": 31,
                  "name": "G1",
                  "ticks": 115200,
                  "time": 3.7305720000000004,
                  "velocity": 0.6456692913385826
              },
              {
                  "duration": 0.11658037499999985,
                  "durationTicks": 3600,
                  "midi": 43,
                  "name": "G2",
                  "ticks": 115200,
                  "time": 3.7305720000000004,
                  "velocity": 0.7007874015748031
              },
              {
                  "duration": 0.11658037499999985,
                  "durationTicks": 3600,
                  "midi": 58,
                  "name": "A#3",
                  "ticks": 115200,
                  "time": 3.7305720000000004,
                  "velocity": 0.6456692913385826
              },
              {
                  "duration": 0.0388601249999998,
                  "durationTicks": 1200,
                  "midi": 69,
                  "name": "A4",
                  "ticks": 115200,
                  "time": 3.7305720000000004,
                  "velocity": 0.6929133858267716
              },
              {
                  "duration": 0.11658037500000029,
                  "durationTicks": 3600,
                  "midi": 31,
                  "name": "G1",
                  "ticks": 120000,
                  "time": 3.8860125,
                  "velocity": 0.7716535433070866
              },
              {
                  "duration": 0.07772025000000005,
                  "durationTicks": 2400,
                  "midi": 43,
                  "name": "G2",
                  "ticks": 120000,
                  "time": 3.8860125,
                  "velocity": 0.8188976377952756
              },
              {
                  "duration": 0.11658037500000029,
                  "durationTicks": 3600,
                  "midi": 58,
                  "name": "A#3",
                  "ticks": 120000,
                  "time": 3.8860125,
                  "velocity": 0.7637795275590551
              },
              {
                  "duration": 0.07772025000000005,
                  "durationTicks": 2400,
                  "midi": 72,
                  "name": "C5",
                  "ticks": 120000,
                  "time": 3.8860125,
                  "velocity": 0.8818897637795275
              },
              {
                  "duration": 0.03886012499999936,
                  "durationTicks": 1200,
                  "midi": 31,
                  "name": "G1",
                  "ticks": 124800,
                  "time": 4.041453000000001,
                  "velocity": 0.6614173228346457
              },
              {
                  "duration": 0.03886012499999936,
                  "durationTicks": 1200,
                  "midi": 58,
                  "name": "A#3",
                  "ticks": 124800,
                  "time": 4.041453000000001,
                  "velocity": 0.6614173228346457
              },
              {
                  "duration": 0.0777202499999996,
                  "durationTicks": 2400,
                  "midi": 74,
                  "name": "D5",
                  "ticks": 124800,
                  "time": 4.041453000000001,
                  "velocity": 0.7480314960629921
              },
              {
                  "duration": 0.07772025000000049,
                  "durationTicks": 2400,
                  "midi": 72,
                  "name": "C5",
                  "ticks": 129600,
                  "time": 4.1968935,
                  "velocity": 0.7716535433070866
              },
              {
                  "duration": 0.11658037499999985,
                  "durationTicks": 3600,
                  "midi": 31,
                  "name": "G1",
                  "ticks": 139200,
                  "time": 4.5077745,
                  "velocity": 0.8031496062992126
              },
              {
                  "duration": 0.07772025000000049,
                  "durationTicks": 2400,
                  "midi": 69,
                  "name": "A4",
                  "ticks": 139200,
                  "time": 4.5077745,
                  "velocity": 0.7007874015748031
              },
              {
                  "duration": 0.11658037499999985,
                  "durationTicks": 3600,
                  "midi": 36,
                  "name": "C2",
                  "ticks": 148800,
                  "time": 4.8186555,
                  "velocity": 0.8503937007874016
              },
              {
                  "duration": 0.07772025000000049,
                  "durationTicks": 2400,
                  "midi": 67,
                  "name": "G4",
                  "ticks": 148800,
                  "time": 4.8186555,
                  "velocity": 0.84251968503937
              },
              {
                  "duration": 0.11658037499999985,
                  "durationTicks": 3600,
                  "midi": 36,
                  "name": "C2",
                  "ticks": 153600,
                  "time": 4.974096,
                  "velocity": 0.8346456692913385
              },
              {
                  "duration": 0.11658037499999985,
                  "durationTicks": 3600,
                  "midi": 36,
                  "name": "C2",
                  "ticks": 158400,
                  "time": 5.1295365,
                  "velocity": 0.9606299212598425
              },
              {
                  "duration": 0.0777202499999996,
                  "durationTicks": 2400,
                  "midi": 69,
                  "name": "A4",
                  "ticks": 158400,
                  "time": 5.1295365,
                  "velocity": 0.9606299212598425
              },
              {
                  "duration": 0.11658037499999985,
                  "durationTicks": 3600,
                  "midi": 36,
                  "name": "C2",
                  "ticks": 163200,
                  "time": 5.2849770000000005,
                  "velocity": 0.8503937007874016
              },
              {
                  "duration": 0.0777202499999996,
                  "durationTicks": 2400,
                  "midi": 67,
                  "name": "G4",
                  "ticks": 163200,
                  "time": 5.2849770000000005,
                  "velocity": 0.8188976377952756
              },
              {
                  "duration": 0.0777202499999996,
                  "durationTicks": 2400,
                  "midi": 36,
                  "name": "C2",
                  "ticks": 168000,
                  "time": 5.440417500000001,
                  "velocity": 0.8503937007874016
              },
              {
                  "duration": 0.0777202499999996,
                  "durationTicks": 2400,
                  "midi": 65,
                  "name": "F4",
                  "ticks": 168000,
                  "time": 5.440417500000001,
                  "velocity": 0.8110236220472441
              },
              {
                  "duration": 0.11658037499999985,
                  "durationTicks": 3600,
                  "midi": 67,
                  "name": "G4",
                  "ticks": 172800,
                  "time": 5.595858000000001,
                  "velocity": 0.8503937007874016
              },
              {
                  "duration": 0.0777202499999996,
                  "durationTicks": 2400,
                  "midi": 65,
                  "name": "F4",
                  "ticks": 177600,
                  "time": 5.751298500000001,
                  "velocity": 0.7559055118110236
              },
              {
                  "duration": 0.07772025000000049,
                  "durationTicks": 2400,
                  "midi": 62,
                  "name": "D4",
                  "ticks": 182400,
                  "time": 5.906739,
                  "velocity": 0.9133858267716536
              },
              {
                  "duration": 0.07772025000000049,
                  "durationTicks": 2400,
                  "midi": 60,
                  "name": "C4",
                  "ticks": 187200,
                  "time": 6.0621795,
                  "velocity": 0.8188976377952756
              },
              {
                  "duration": 0.11658037499999985,
                  "durationTicks": 3600,
                  "midi": 38,
                  "name": "D2",
                  "ticks": 192000,
                  "time": 6.21762,
                  "velocity": 0.7401574803149606
              },
              {
                  "duration": 0.11658037499999985,
                  "durationTicks": 3600,
                  "midi": 65,
                  "name": "F4",
                  "ticks": 192000,
                  "time": 6.21762,
                  "velocity": 0.6141732283464567
              },
              {
                  "duration": 0.038860125000000245,
                  "durationTicks": 1200,
                  "midi": 81,
                  "name": "A5",
                  "ticks": 192000,
                  "time": 6.21762,
                  "velocity": 0.7401574803149606
              },
              {
                  "duration": 0.11658037499999985,
                  "durationTicks": 3600,
                  "midi": 38,
                  "name": "D2",
                  "ticks": 196800,
                  "time": 6.3730605,
                  "velocity": 0.8582677165354331
              },
              {
                  "duration": 0.11658037499999985,
                  "durationTicks": 3600,
                  "midi": 65,
                  "name": "F4",
                  "ticks": 196800,
                  "time": 6.3730605,
                  "velocity": 0.7244094488188977
              },
              {
                  "duration": 0.11658037499999985,
                  "durationTicks": 3600,
                  "midi": 84,
                  "name": "C6",
                  "ticks": 196800,
                  "time": 6.3730605,
                  "velocity": 0.8818897637795275
              },
              {
                  "duration": 0.07772025000000049,
                  "durationTicks": 2400,
                  "midi": 38,
                  "name": "D2",
                  "ticks": 201600,
                  "time": 6.528501,
                  "velocity": 0.7559055118110236
              },
              {
                  "duration": 0.11658037499999985,
                  "durationTicks": 3600,
                  "midi": 65,
                  "name": "F4",
                  "ticks": 201600,
                  "time": 6.528501,
                  "velocity": 0.6220472440944882
              },
              {
                  "duration": 0.038860125000000245,
                  "durationTicks": 1200,
                  "midi": 84,
                  "name": "C6",
                  "ticks": 201600,
                  "time": 6.528501,
                  "velocity": 0.7716535433070866
              },
              {
                  "duration": 0.11658037499999985,
                  "durationTicks": 3600,
                  "midi": 86,
                  "name": "D6",
                  "ticks": 201600,
                  "time": 6.528501,
                  "velocity": 0.6929133858267716
              },
              {
                  "duration": 0.038860125000000245,
                  "durationTicks": 1200,
                  "midi": 65,
                  "name": "F4",
                  "ticks": 206400,
                  "time": 6.6839415,
                  "velocity": 0.6220472440944882
              },
              {
                  "duration": 0.11658037499999985,
                  "durationTicks": 3600,
                  "midi": 84,
                  "name": "C6",
                  "ticks": 206400,
                  "time": 6.6839415,
                  "velocity": 0.7716535433070866
              },
              {
                  "duration": 0.11658037499999985,
                  "durationTicks": 3600,
                  "midi": 84,
                  "name": "C6",
                  "ticks": 211200,
                  "time": 6.8393820000000005,
                  "velocity": 0.84251968503937
              },
              {
                  "duration": 0.11658037499999985,
                  "durationTicks": 3600,
                  "midi": 38,
                  "name": "D2",
                  "ticks": 216000,
                  "time": 6.994822500000001,
                  "velocity": 0.7716535433070866
              },
              {
                  "duration": 0.038860125000000245,
                  "durationTicks": 1200,
                  "midi": 81,
                  "name": "A5",
                  "ticks": 216000,
                  "time": 6.994822500000001,
                  "velocity": 0.6850393700787402
              },
              {
                  "duration": 0.11658037499999985,
                  "durationTicks": 3600,
                  "midi": 34,
                  "name": "A#1",
                  "ticks": 225600,
                  "time": 7.305703500000001,
                  "velocity": 0.8110236220472441
              },
              {
                  "duration": 0.0777202499999996,
                  "durationTicks": 2400,
                  "midi": 79,
                  "name": "G5",
                  "ticks": 225600,
                  "time": 7.305703500000001,
                  "velocity": 0.7401574803149606
              },
              {
                  "duration": 0.11658037499999985,
                  "durationTicks": 3600,
                  "midi": 34,
                  "name": "A#1",
                  "ticks": 230400,
                  "time": 7.461144000000001,
                  "velocity": 0.8031496062992126
              },
              {
                  "duration": 0.11658037500000074,
                  "durationTicks": 3600,
                  "midi": 34,
                  "name": "A#1",
                  "ticks": 235200,
                  "time": 7.6165845,
                  "velocity": 0.9212598425196851
              },
              {
                  "duration": 0.038860125000000245,
                  "durationTicks": 1200,
                  "midi": 81,
                  "name": "A5",
                  "ticks": 235200,
                  "time": 7.6165845,
                  "velocity": 0.9291338582677166
              },
              {
                  "duration": 0.11658037499999985,
                  "durationTicks": 3600,
                  "midi": 34,
                  "name": "A#1",
                  "ticks": 240000,
                  "time": 7.772025,
                  "velocity": 0.8110236220472441
              },
              {
                  "duration": 0.11658037499999985,
                  "durationTicks": 3600,
                  "midi": 53,
                  "name": "F3",
                  "ticks": 240000,
                  "time": 7.772025,
                  "velocity": 0.5905511811023622
              },
              {
                  "duration": 0.038860125000000245,
                  "durationTicks": 1200,
                  "midi": 79,
                  "name": "G5",
                  "ticks": 240000,
                  "time": 7.772025,
                  "velocity": 0.7559055118110236
              },
              {
                  "duration": 0.11658037499999985,
                  "durationTicks": 3600,
                  "midi": 34,
                  "name": "A#1",
                  "ticks": 244800,
                  "time": 7.9274655,
                  "velocity": 0.8110236220472441
              },
              {
                  "duration": 0.07772025000000049,
                  "durationTicks": 2400,
                  "midi": 53,
                  "name": "F3",
                  "ticks": 244800,
                  "time": 7.9274655,
                  "velocity": 0.5905511811023622
              },
              {
                  "duration": 0.11658037499999985,
                  "durationTicks": 3600,
                  "midi": 65,
                  "name": "F4",
                  "ticks": 244800,
                  "time": 7.9274655,
                  "velocity": 0.5748031496062992
              },
              {
                  "duration": 0.07772025000000049,
                  "durationTicks": 2400,
                  "midi": 77,
                  "name": "F5",
                  "ticks": 244800,
                  "time": 7.9274655,
                  "velocity": 0.7401574803149606
              },
              {
                  "duration": 0.11658037499999985,
                  "durationTicks": 3600,
                  "midi": 34,
                  "name": "A#1",
                  "ticks": 249600,
                  "time": 8.082906000000001,
                  "velocity": 0.8818897637795275
              },
              {
                  "duration": 0.07772024999999871,
                  "durationTicks": 2400,
                  "midi": 65,
                  "name": "F4",
                  "ticks": 249600,
                  "time": 8.082906000000001,
                  "velocity": 0.6456692913385826
              },
              {
                  "duration": 0.07772024999999871,
                  "durationTicks": 2400,
                  "midi": 79,
                  "name": "G5",
                  "ticks": 249600,
                  "time": 8.082906000000001,
                  "velocity": 0.8346456692913385
              },
              {
                  "duration": 0.07772025000000049,
                  "durationTicks": 2400,
                  "midi": 77,
                  "name": "F5",
                  "ticks": 254400,
                  "time": 8.2383465,
                  "velocity": 0.7086614173228346
              },
              {
                  "duration": 0.07772025000000049,
                  "durationTicks": 2400,
                  "midi": 74,
                  "name": "D5",
                  "ticks": 259200,
                  "time": 8.393787,
                  "velocity": 0.9133858267716536
              },
              {
                  "duration": 0.07772025000000049,
                  "durationTicks": 2400,
                  "midi": 72,
                  "name": "C5",
                  "ticks": 264000,
                  "time": 8.5492275,
                  "velocity": 0.8267716535433071
              },
              {
                  "duration": 0.11658037499999985,
                  "durationTicks": 3600,
                  "midi": 31,
                  "name": "G1",
                  "ticks": 268800,
                  "time": 8.704668,
                  "velocity": 0.8031496062992126
              },
              {
                  "duration": 0.07772025000000049,
                  "durationTicks": 2400,
                  "midi": 74,
                  "name": "D5",
                  "ticks": 268800,
                  "time": 8.704668,
                  "velocity": 0.7874015748031497
              },
              {
                  "duration": 0.11658037499999985,
                  "durationTicks": 3600,
                  "midi": 31,
                  "name": "G1",
                  "ticks": 273600,
                  "time": 8.8601085,
                  "velocity": 0.9212598425196851
              },
              {
                  "duration": 0.07772025000000049,
                  "durationTicks": 2400,
                  "midi": 77,
                  "name": "F5",
                  "ticks": 273600,
                  "time": 8.8601085,
                  "velocity": 0.8976377952755905
              },
              {
                  "duration": 0.07772025000000049,
                  "durationTicks": 2400,
                  "midi": 31,
                  "name": "G1",
                  "ticks": 278400,
                  "time": 9.015549,
                  "velocity": 0.8110236220472441
              },
              {
                  "duration": 0.03886012500000113,
                  "durationTicks": 1200,
                  "midi": 79,
                  "name": "G5",
                  "ticks": 278400,
                  "time": 9.015549,
                  "velocity": 0.7952755905511811
              },
              {
                  "duration": 0.11658037499999985,
                  "durationTicks": 3600,
                  "midi": 33,
                  "name": "A1",
                  "ticks": 283200,
                  "time": 9.170989500000001,
                  "velocity": 0.8188976377952756
              },
              {
                  "duration": 0.03886012499999936,
                  "durationTicks": 1200,
                  "midi": 77,
                  "name": "F5",
                  "ticks": 283200,
                  "time": 9.170989500000001,
                  "velocity": 0.7716535433070866
              },
              {
                  "duration": 0.11658037499999985,
                  "durationTicks": 3600,
                  "midi": 33,
                  "name": "A1",
                  "ticks": 288000,
                  "time": 9.32643,
                  "velocity": 0.889763779527559
              },
              {
                  "duration": 0.07772024999999871,
                  "durationTicks": 2400,
                  "midi": 33,
                  "name": "A1",
                  "ticks": 292800,
                  "time": 9.481870500000001,
                  "velocity": 0.7952755905511811
              },
              {
                  "duration": 0.07772024999999871,
                  "durationTicks": 2400,
                  "midi": 79,
                  "name": "G5",
                  "ticks": 292800,
                  "time": 9.481870500000001,
                  "velocity": 0.7795275590551181
              },
              {
                  "duration": 0.11658037499999985,
                  "durationTicks": 3600,
                  "midi": 34,
                  "name": "A#1",
                  "ticks": 297600,
                  "time": 9.637311,
                  "velocity": 0.937007874015748
              },
              {
                  "duration": 0.03886012499999936,
                  "durationTicks": 1200,
                  "midi": 81,
                  "name": "A5",
                  "ticks": 297600,
                  "time": 9.637311,
                  "velocity": 0.889763779527559
              },
              {
                  "duration": 0.11658037499999985,
                  "durationTicks": 3600,
                  "midi": 34,
                  "name": "A#1",
                  "ticks": 302400,
                  "time": 9.792751500000001,
                  "velocity": 0.8267716535433071
              },
              {
                  "duration": 0.03886012499999936,
                  "durationTicks": 1200,
                  "midi": 84,
                  "name": "C6",
                  "ticks": 302400,
                  "time": 9.792751500000001,
                  "velocity": 0.7401574803149606
              },
              {
                  "duration": 0.11658037500000162,
                  "durationTicks": 3600,
                  "midi": 36,
                  "name": "C2",
                  "ticks": 312000,
                  "time": 10.1036325,
                  "velocity": 0.9606299212598425
              },
              {
                  "duration": 0.11658037499999985,
                  "durationTicks": 3600,
                  "midi": 36,
                  "name": "C2",
                  "ticks": 316800,
                  "time": 10.259073,
                  "velocity": 0.8503937007874016
              },
              {
                  "duration": 0.03886012499999936,
                  "durationTicks": 1200,
                  "midi": 84,
                  "name": "C6",
                  "ticks": 316800,
                  "time": 10.259073,
                  "velocity": 0.7716535433070866
              },
              {
                  "duration": 0.07772025000000049,
                  "durationTicks": 2400,
                  "midi": 81,
                  "name": "A5",
                  "ticks": 321600,
                  "time": 10.4145135,
                  "velocity": 0.8110236220472441
              },
              {
                  "duration": 0.11658037499999985,
                  "durationTicks": 3600,
                  "midi": 36,
                  "name": "C2",
                  "ticks": 326400,
                  "time": 10.569954000000001,
                  "velocity": 0.8976377952755905
              },
              {
                  "duration": 0.11658037499999985,
                  "durationTicks": 3600,
                  "midi": 67,
                  "name": "G4",
                  "ticks": 326400,
                  "time": 10.569954000000001,
                  "velocity": 0.8976377952755905
              },
              {
                  "duration": 0.07772025000000049,
                  "durationTicks": 2400,
                  "midi": 77,
                  "name": "F5",
                  "ticks": 331200,
                  "time": 10.7253945,
                  "velocity": 0.7952755905511811
              },
              {
                  "duration": 0.11658037499999985,
                  "durationTicks": 3600,
                  "midi": 36,
                  "name": "C2",
                  "ticks": 336000,
                  "time": 10.880835000000001,
                  "velocity": 0.9291338582677166
              },
              {
                  "duration": 0.07772024999999871,
                  "durationTicks": 2400,
                  "midi": 74,
                  "name": "D5",
                  "ticks": 336000,
                  "time": 10.880835000000001,
                  "velocity": 0.8818897637795275
              },
              {
                  "duration": 0.03886012500000113,
                  "durationTicks": 1200,
                  "midi": 36,
                  "name": "C2",
                  "ticks": 340800,
                  "time": 11.0362755,
                  "velocity": 0.8188976377952756
              },
              {
                  "duration": 0.07772025000000049,
                  "durationTicks": 2400,
                  "midi": 72,
                  "name": "C5",
                  "ticks": 340800,
                  "time": 11.0362755,
                  "velocity": 0.7401574803149606
              },
              {
                  "duration": 0.11658037499999985,
                  "durationTicks": 3600,
                  "midi": 29,
                  "name": "F1",
                  "ticks": 345600,
                  "time": 11.191716000000001,
                  "velocity": 0.7716535433070866
              },
              {
                  "duration": 0.11658037499999985,
                  "durationTicks": 3600,
                  "midi": 69,
                  "name": "A4",
                  "ticks": 345600,
                  "time": 11.191716000000001,
                  "velocity": 0.7244094488188977
              },
              {
                  "duration": 0.11658037499999985,
                  "durationTicks": 3600,
                  "midi": 29,
                  "name": "F1",
                  "ticks": 350400,
                  "time": 11.3471565,
                  "velocity": 0.8976377952755905
              },
              {
                  "duration": 0.11658037499999985,
                  "durationTicks": 3600,
                  "midi": 48,
                  "name": "C3",
                  "ticks": 350400,
                  "time": 11.3471565,
                  "velocity": 0.7480314960629921
              },
              {
                  "duration": 0.11658037499999985,
                  "durationTicks": 3600,
                  "midi": 69,
                  "name": "A4",
                  "ticks": 350400,
                  "time": 11.3471565,
                  "velocity": 0.8346456692913385
              },
              {
                  "duration": 0.03886012499999936,
                  "durationTicks": 1200,
                  "midi": 29,
                  "name": "F1",
                  "ticks": 355200,
                  "time": 11.502597000000002,
                  "velocity": 0.7874015748031497
              },
              {
                  "duration": 0.03886012499999936,
                  "durationTicks": 1200,
                  "midi": 48,
                  "name": "C3",
                  "ticks": 355200,
                  "time": 11.502597000000002,
                  "velocity": 0.6456692913385826
              },
              {
                  "duration": 0.07772024999999871,
                  "durationTicks": 2400,
                  "midi": 67,
                  "name": "G4",
                  "ticks": 355200,
                  "time": 11.502597000000002,
                  "velocity": 0.7874015748031497
              },
              {
                  "duration": 0.11658037499999985,
                  "durationTicks": 3600,
                  "midi": 69,
                  "name": "A4",
                  "ticks": 360000,
                  "time": 11.6580375,
                  "velocity": 0.8188976377952756
              },
              {
                  "duration": 0.11658037499999985,
                  "durationTicks": 3600,
                  "midi": 29,
                  "name": "F1",
                  "ticks": 369600,
                  "time": 11.968918500000001,
                  "velocity": 0.8031496062992126
              },
              {
                  "duration": 0.11658037499999985,
                  "durationTicks": 3600,
                  "midi": 65,
                  "name": "F4",
                  "ticks": 369600,
                  "time": 11.968918500000001,
                  "velocity": 0.7480314960629921
              },
              {
                  "duration": 0.07772025000000049,
                  "durationTicks": 2400,
                  "midi": 34,
                  "name": "A#1",
                  "ticks": 379200,
                  "time": 12.279799500000001,
                  "velocity": 0.8267716535433071
              },
              {
                  "duration": 0.11658037499999985,
                  "durationTicks": 3600,
                  "midi": 62,
                  "name": "D4",
                  "ticks": 379200,
                  "time": 12.279799500000001,
                  "velocity": 0.7874015748031497
              },
              {
                  "duration": 0.11658037499999985,
                  "durationTicks": 3600,
                  "midi": 34,
                  "name": "A#1",
                  "ticks": 384000,
                  "time": 12.43524,
                  "velocity": 0.7165354330708661
              },
              {
                  "duration": 0.11658037499999985,
                  "durationTicks": 3600,
                  "midi": 65,
                  "name": "F4",
                  "ticks": 384000,
                  "time": 12.43524,
                  "velocity": 0.7874015748031497
              },
              {
                  "duration": 0.11658037499999985,
                  "durationTicks": 3600,
                  "midi": 34,
                  "name": "A#1",
                  "ticks": 388800,
                  "time": 12.590680500000001,
                  "velocity": 0.8346456692913385
              },
              {
                  "duration": 0.07772024999999871,
                  "durationTicks": 2400,
                  "midi": 46,
                  "name": "A#2",
                  "ticks": 388800,
                  "time": 12.590680500000001,
                  "velocity": 0.7244094488188977
              },
              {
                  "duration": 0.11658037499999985,
                  "durationTicks": 3600,
                  "midi": 58,
                  "name": "A#3",
                  "ticks": 388800,
                  "time": 12.590680500000001,
                  "velocity": 0.7244094488188977
              },
              {
                  "duration": 0.11658037499999985,
                  "durationTicks": 3600,
                  "midi": 65,
                  "name": "F4",
                  "ticks": 388800,
                  "time": 12.590680500000001,
                  "velocity": 0.8976377952755905
              },
              {
                  "duration": 0.11658037499999985,
                  "durationTicks": 3600,
                  "midi": 62,
                  "name": "D4",
                  "ticks": 393600,
                  "time": 12.746121,
                  "velocity": 0.8346456692913385
              },
              {
                  "duration": 0.07772024999999871,
                  "durationTicks": 2400,
                  "midi": 60,
                  "name": "C4",
                  "ticks": 398400,
                  "time": 12.901561500000001,
                  "velocity": 0.8503937007874016
              },
              {
                  "duration": 0.07772025000000049,
                  "durationTicks": 2400,
                  "midi": 62,
                  "name": "D4",
                  "ticks": 403200,
                  "time": 13.057002,
                  "velocity": 0.8740157480314961
              },
              {
                  "duration": 0.11658037499999985,
                  "durationTicks": 3600,
                  "midi": 60,
                  "name": "C4",
                  "ticks": 408000,
                  "time": 13.212442500000002,
                  "velocity": 0.7874015748031497
              },
              {
                  "duration": 0.11658037499999985,
                  "durationTicks": 3600,
                  "midi": 57,
                  "name": "A3",
                  "ticks": 412800,
                  "time": 13.367883,
                  "velocity": 0.9606299212598425
              },
              {
                  "duration": 0.11658037500000162,
                  "durationTicks": 3600,
                  "midi": 55,
                  "name": "G3",
                  "ticks": 417600,
                  "time": 13.5233235,
                  "velocity": 0.8503937007874016
              },
              {
                  "duration": 0.11658037499999985,
                  "durationTicks": 3600,
                  "midi": 31,
                  "name": "G1",
                  "ticks": 422400,
                  "time": 13.678764000000001,
                  "velocity": 0.8031496062992126
              },
              {
                  "duration": 0.11658037499999985,
                  "durationTicks": 3600,
                  "midi": 69,
                  "name": "A4",
                  "ticks": 422400,
                  "time": 13.678764000000001,
                  "velocity": 0.6850393700787402
              },
              {
                  "duration": 0.11658037499999985,
                  "durationTicks": 3600,
                  "midi": 31,
                  "name": "G1",
                  "ticks": 427200,
                  "time": 13.8342045,
                  "velocity": 0.9212598425196851
              },
              {
                  "duration": 0.11658037499999985,
                  "durationTicks": 3600,
                  "midi": 55,
                  "name": "G3",
                  "ticks": 427200,
                  "time": 13.8342045,
                  "velocity": 0.7244094488188977
              },
              {
                  "duration": 0.07772025000000049,
                  "durationTicks": 2400,
                  "midi": 60,
                  "name": "C4",
                  "ticks": 427200,
                  "time": 13.8342045,
                  "velocity": 0.9133858267716536
              },
              {
                  "duration": 0.07772025000000049,
                  "durationTicks": 2400,
                  "midi": 31,
                  "name": "G1",
                  "ticks": 432000,
                  "time": 13.989645000000001,
                  "velocity": 0.8110236220472441
              },
              {
                  "duration": 0.07772025000000049,
                  "durationTicks": 2400,
                  "midi": 55,
                  "name": "G3",
                  "ticks": 432000,
                  "time": 13.989645000000001,
                  "velocity": 0.6141732283464567
              },
              {
                  "duration": 0.11658037499999985,
                  "durationTicks": 3600,
                  "midi": 62,
                  "name": "D4",
                  "ticks": 432000,
                  "time": 13.989645000000001,
                  "velocity": 0.84251968503937
              },
              {
                  "duration": 0.07772025000000049,
                  "durationTicks": 2400,
                  "midi": 60,
                  "name": "C4",
                  "ticks": 436800,
                  "time": 14.1450855,
                  "velocity": 0.84251968503937
              },
              {
                  "duration": 0.11658037499999985,
                  "durationTicks": 3600,
                  "midi": 31,
                  "name": "G1",
                  "ticks": 446400,
                  "time": 14.4559665,
                  "velocity": 0.8031496062992126
              },
              {
                  "duration": 0.11658037499999985,
                  "durationTicks": 3600,
                  "midi": 57,
                  "name": "A3",
                  "ticks": 446400,
                  "time": 14.4559665,
                  "velocity": 0.6456692913385826
              },
              {
                  "duration": 0.07772025000000049,
                  "durationTicks": 2400,
                  "midi": 69,
                  "name": "A4",
                  "ticks": 446400,
                  "time": 14.4559665,
                  "velocity": 0.7086614173228346
              },
              {
                  "duration": 0.03886012499999936,
                  "durationTicks": 1200,
                  "midi": 31,
                  "name": "G1",
                  "ticks": 451200,
                  "time": 14.611407000000002,
                  "velocity": 0.9291338582677166
              },
              {
                  "duration": 0.03886012499999936,
                  "durationTicks": 1200,
                  "midi": 24,
                  "name": "C1",
                  "ticks": 456000,
                  "time": 14.7668475,
                  "velocity": 0.7637795275590551
              },
              {
                  "duration": 0.11658037499999985,
                  "durationTicks": 3600,
                  "midi": 55,
                  "name": "G3",
                  "ticks": 456000,
                  "time": 14.7668475,
                  "velocity": 0.6062992125984252
              },
              {
                  "duration": 0.07772025000000049,
                  "durationTicks": 2400,
                  "midi": 67,
                  "name": "G4",
                  "ticks": 456000,
                  "time": 14.7668475,
                  "velocity": 0.8110236220472441
              },
              {
                  "duration": 0.11658037499999985,
                  "durationTicks": 3600,
                  "midi": 24,
                  "name": "C1",
                  "ticks": 460800,
                  "time": 14.922288000000002,
                  "velocity": 0.7716535433070866
              },
              {
                  "duration": 0.07772024999999871,
                  "durationTicks": 2400,
                  "midi": 55,
                  "name": "G3",
                  "ticks": 460800,
                  "time": 14.922288000000002,
                  "velocity": 0.5984251968503937
              },
              {
                  "duration": 0.11658037499999985,
                  "durationTicks": 3600,
                  "midi": 60,
                  "name": "C4",
                  "ticks": 460800,
                  "time": 14.922288000000002,
                  "velocity": 0.5669291338582677
              },
              {
                  "duration": 0.11658037499999985,
                  "durationTicks": 3600,
                  "midi": 24,
                  "name": "C1",
                  "ticks": 465600,
                  "time": 15.077728500000001,
                  "velocity": 0.889763779527559
              },
              {
                  "duration": 0.11658037499999985,
                  "durationTicks": 3600,
                  "midi": 57,
                  "name": "A3",
                  "ticks": 465600,
                  "time": 15.077728500000001,
                  "velocity": 0.7716535433070866
              },
              {
                  "duration": 0.07772025000000049,
                  "durationTicks": 2400,
                  "midi": 60,
                  "name": "C4",
                  "ticks": 465600,
                  "time": 15.077728500000001,
                  "velocity": 0.6850393700787402
              },
              {
                  "duration": 0.07772025000000049,
                  "durationTicks": 2400,
                  "midi": 69,
                  "name": "A4",
                  "ticks": 465600,
                  "time": 15.077728500000001,
                  "velocity": 0.8503937007874016
              },
              {
                  "duration": 0.07772025000000049,
                  "durationTicks": 2400,
                  "midi": 24,
                  "name": "C1",
                  "ticks": 470400,
                  "time": 15.233169,
                  "velocity": 0.7874015748031497
              },
              {
                  "duration": 0.11658037499999985,
                  "durationTicks": 3600,
                  "midi": 55,
                  "name": "G3",
                  "ticks": 470400,
                  "time": 15.233169,
                  "velocity": 0.6456692913385826
              },
              {
                  "duration": 0.07772025000000049,
                  "durationTicks": 2400,
                  "midi": 67,
                  "name": "G4",
                  "ticks": 470400,
                  "time": 15.233169,
                  "velocity": 0.8110236220472441
              },
              {
                  "duration": 0.11658037499999985,
                  "durationTicks": 3600,
                  "midi": 53,
                  "name": "F3",
                  "ticks": 475200,
                  "time": 15.388609500000001,
                  "velocity": 0.8188976377952756
              },
              {
                  "duration": 0.11658037499999985,
                  "durationTicks": 3600,
                  "midi": 55,
                  "name": "G3",
                  "ticks": 480000,
                  "time": 15.54405,
                  "velocity": 0.9133858267716536
              },
              {
                  "duration": 0.11658037499999985,
                  "durationTicks": 3600,
                  "midi": 53,
                  "name": "F3",
                  "ticks": 484800,
                  "time": 15.699490500000001,
                  "velocity": 0.8267716535433071
              },
              {
                  "duration": 0.11658037499999985,
                  "durationTicks": 3600,
                  "midi": 50,
                  "name": "D3",
                  "ticks": 489600,
                  "time": 15.854931,
                  "velocity": 0.952755905511811
              },
              {
                  "duration": 0.07772024999999871,
                  "durationTicks": 2400,
                  "midi": 48,
                  "name": "C3",
                  "ticks": 494400,
                  "time": 16.0103715,
                  "velocity": 0.8503937007874016
              },
              {
                  "duration": 0.11658037499999807,
                  "durationTicks": 3600,
                  "midi": 26,
                  "name": "D1",
                  "ticks": 499200,
                  "time": 16.165812000000003,
                  "velocity": 0.7559055118110236
              },
              {
                  "duration": 0.11658037499999807,
                  "durationTicks": 3600,
                  "midi": 57,
                  "name": "A3",
                  "ticks": 499200,
                  "time": 16.165812000000003,
                  "velocity": 0.6220472440944882
              },
              {
                  "duration": 0.07772024999999871,
                  "durationTicks": 2400,
                  "midi": 69,
                  "name": "A4",
                  "ticks": 499200,
                  "time": 16.165812000000003,
                  "velocity": 0.6929133858267716
              },
              {
                  "duration": 0.11658037500000162,
                  "durationTicks": 3600,
                  "midi": 26,
                  "name": "D1",
                  "ticks": 504000,
                  "time": 16.3212525,
                  "velocity": 0.8740157480314961
              },
              {
                  "duration": 0.07772025000000227,
                  "durationTicks": 2400,
                  "midi": 72,
                  "name": "C5",
                  "ticks": 504000,
                  "time": 16.3212525,
                  "velocity": 0.9291338582677166
              },
              {
                  "duration": 0.07772024999999871,
                  "durationTicks": 2400,
                  "midi": 26,
                  "name": "D1",
                  "ticks": 508800,
                  "time": 16.476693,
                  "velocity": 0.7716535433070866
              },
              {
                  "duration": 0.07772024999999871,
                  "durationTicks": 2400,
                  "midi": 74,
                  "name": "D5",
                  "ticks": 508800,
                  "time": 16.476693,
                  "velocity": 0.8031496062992126
              },
              {
                  "duration": 0.07772024999999871,
                  "durationTicks": 2400,
                  "midi": 72,
                  "name": "C5",
                  "ticks": 513600,
                  "time": 16.632133500000002,
                  "velocity": 0.8188976377952756
              },
              {
                  "duration": 0.11658037500000162,
                  "durationTicks": 3600,
                  "midi": 26,
                  "name": "D1",
                  "ticks": 523200,
                  "time": 16.9430145,
                  "velocity": 0.7874015748031497
              },
              {
                  "duration": 0.11658037500000162,
                  "durationTicks": 3600,
                  "midi": 69,
                  "name": "A4",
                  "ticks": 523200,
                  "time": 16.9430145,
                  "velocity": 0.7244094488188977
              },
              {
                  "duration": 0.11658037500000162,
                  "durationTicks": 3600,
                  "midi": 54,
                  "name": "F#3",
                  "ticks": 523200,
                  "time": 16.9430145,
                  "velocity": 0.6299212598425197
              },
              {
                  "duration": 0.11658037499999807,
                  "durationTicks": 3600,
                  "midi": 34,
                  "name": "A#1",
                  "ticks": 532800,
                  "time": 17.253895500000002,
                  "velocity": 0.8188976377952756
              },
              {
                  "duration": 0.11658037499999807,
                  "durationTicks": 3600,
                  "midi": 67,
                  "name": "G4",
                  "ticks": 532800,
                  "time": 17.253895500000002,
                  "velocity": 0.7795275590551181
              },
              {
                  "duration": 0.11658037500000162,
                  "durationTicks": 3600,
                  "midi": 34,
                  "name": "A#1",
                  "ticks": 537600,
                  "time": 17.409336,
                  "velocity": 0.8031496062992126
              },
              {
                  "duration": 0.11658037500000162,
                  "durationTicks": 3600,
                  "midi": 53,
                  "name": "F3",
                  "ticks": 537600,
                  "time": 17.409336,
                  "velocity": 0.5984251968503937
              },
              {
                  "duration": 0.11658037500000162,
                  "durationTicks": 3600,
                  "midi": 34,
                  "name": "A#1",
                  "ticks": 542400,
                  "time": 17.5647765,
                  "velocity": 0.9291338582677166
              },
              {
                  "duration": 0.11658037500000162,
                  "durationTicks": 3600,
                  "midi": 46,
                  "name": "A#2",
                  "ticks": 542400,
                  "time": 17.5647765,
                  "velocity": 0.7559055118110236
              },
              {
                  "duration": 0.11658037500000162,
                  "durationTicks": 3600,
                  "midi": 53,
                  "name": "F3",
                  "ticks": 542400,
                  "time": 17.5647765,
                  "velocity": 0.7244094488188977
              },
              {
                  "duration": 0.11658037500000162,
                  "durationTicks": 3600,
                  "midi": 69,
                  "name": "A4",
                  "ticks": 542400,
                  "time": 17.5647765,
                  "velocity": 0.8976377952755905
              },
              {
                  "duration": 0.07772024999999871,
                  "durationTicks": 2400,
                  "midi": 34,
                  "name": "A#1",
                  "ticks": 547200,
                  "time": 17.720217,
                  "velocity": 0.8188976377952756
              },
              {
                  "duration": 0.03886012499999936,
                  "durationTicks": 1200,
                  "midi": 53,
                  "name": "F3",
                  "ticks": 547200,
                  "time": 17.720217,
                  "velocity": 0.6141732283464567
              },
              {
                  "duration": 0.11658037499999807,
                  "durationTicks": 3600,
                  "midi": 67,
                  "name": "G4",
                  "ticks": 547200,
                  "time": 17.720217,
                  "velocity": 0.8346456692913385
              },
              {
                  "duration": 0.11658037499999807,
                  "durationTicks": 3600,
                  "midi": 65,
                  "name": "F4",
                  "ticks": 552000,
                  "time": 17.875657500000003,
                  "velocity": 0.8503937007874016
              },
              {
                  "duration": 0.07772025000000227,
                  "durationTicks": 2400,
                  "midi": 67,
                  "name": "G4",
                  "ticks": 556800,
                  "time": 18.031098,
                  "velocity": 0.8976377952755905
              },
              {
                  "duration": 0.07772024999999871,
                  "durationTicks": 2400,
                  "midi": 65,
                  "name": "F4",
                  "ticks": 561600,
                  "time": 18.1865385,
                  "velocity": 0.7874015748031497
              },
              {
                  "duration": 0.11658037499999807,
                  "durationTicks": 3600,
                  "midi": 62,
                  "name": "D4",
                  "ticks": 566400,
                  "time": 18.341979000000002,
                  "velocity": 0.9606299212598425
              },
              {
                  "duration": 0.11658037500000162,
                  "durationTicks": 3600,
                  "midi": 60,
                  "name": "C4",
                  "ticks": 571200,
                  "time": 18.4974195,
                  "velocity": 0.8503937007874016
              },
              {
                  "duration": 0.11658037500000162,
                  "durationTicks": 3600,
                  "midi": 31,
                  "name": "G1",
                  "ticks": 576000,
                  "time": 18.65286,
                  "velocity": 0.8188976377952756
              },
              {
                  "duration": 0.07772025000000227,
                  "durationTicks": 2400,
                  "midi": 62,
                  "name": "D4",
                  "ticks": 576000,
                  "time": 18.65286,
                  "velocity": 0.7165354330708661
              },
              {
                  "duration": 0.11658037499999807,
                  "durationTicks": 3600,
                  "midi": 31,
                  "name": "G1",
                  "ticks": 580800,
                  "time": 18.8083005,
                  "velocity": 0.9448818897637795
              },
              {
                  "duration": 0.11658037499999807,
                  "durationTicks": 3600,
                  "midi": 65,
                  "name": "F4",
                  "ticks": 580800,
                  "time": 18.8083005,
                  "velocity": 0.9291338582677166
              },
              {
                  "duration": 0.07772024999999871,
                  "durationTicks": 2400,
                  "midi": 31,
                  "name": "G1",
                  "ticks": 585600,
                  "time": 18.963741000000002,
                  "velocity": 0.8346456692913385
              },
              {
                  "duration": 0.11658037499999807,
                  "durationTicks": 3600,
                  "midi": 67,
                  "name": "G4",
                  "ticks": 585600,
                  "time": 18.963741000000002,
                  "velocity": 0.8031496062992126
              },
              {
                  "duration": 0.11658037500000162,
                  "durationTicks": 3600,
                  "midi": 33,
                  "name": "A1",
                  "ticks": 590400,
                  "time": 19.1191815,
                  "velocity": 0.8503937007874016
              },
              {
                  "duration": 0.11658037500000162,
                  "durationTicks": 3600,
                  "midi": 65,
                  "name": "F4",
                  "ticks": 590400,
                  "time": 19.1191815,
                  "velocity": 0.7716535433070866
              },
              {
                  "duration": 0.11658037500000162,
                  "durationTicks": 3600,
                  "midi": 33,
                  "name": "A1",
                  "ticks": 595200,
                  "time": 19.274622,
                  "velocity": 0.9212598425196851
              },
              {
                  "duration": 0.03886012499999936,
                  "durationTicks": 1200,
                  "midi": 65,
                  "name": "F4",
                  "ticks": 595200,
                  "time": 19.274622,
                  "velocity": 0.8346456692913385
              },
              {
                  "duration": 0.03886012499999936,
                  "durationTicks": 1200,
                  "midi": 33,
                  "name": "A1",
                  "ticks": 600000,
                  "time": 19.430062500000002,
                  "velocity": 0.8267716535433071
              },
              {
                  "duration": 0.11658037499999807,
                  "durationTicks": 3600,
                  "midi": 67,
                  "name": "G4",
                  "ticks": 600000,
                  "time": 19.430062500000002,
                  "velocity": 0.8267716535433071
              },
              {
                  "duration": 0.11658037499999807,
                  "durationTicks": 3600,
                  "midi": 46,
                  "name": "A#2",
                  "ticks": 604800,
                  "time": 19.585503000000003,
                  "velocity": 0.7086614173228346
              },
              {
                  "duration": 0.11658037499999807,
                  "durationTicks": 3600,
                  "midi": 69,
                  "name": "A4",
                  "ticks": 604800,
                  "time": 19.585503000000003,
                  "velocity": 0.8110236220472441
              },
              {
                  "duration": 0.11658037499999807,
                  "durationTicks": 3600,
                  "midi": 53,
                  "name": "F3",
                  "ticks": 604800,
                  "time": 19.585503000000003,
                  "velocity": 0.7874015748031497
              },
              {
                  "duration": 0.11658037500000162,
                  "durationTicks": 3600,
                  "midi": 34,
                  "name": "A#1",
                  "ticks": 609600,
                  "time": 19.7409435,
                  "velocity": 0.7559055118110236
              },
              {
                  "duration": 0.11658037500000162,
                  "durationTicks": 3600,
                  "midi": 46,
                  "name": "A#2",
                  "ticks": 609600,
                  "time": 19.7409435,
                  "velocity": 0.5984251968503937
              },
              {
                  "duration": 0.11658037500000162,
                  "durationTicks": 3600,
                  "midi": 53,
                  "name": "F3",
                  "ticks": 609600,
                  "time": 19.7409435,
                  "velocity": 0.6771653543307087
              },
              {
                  "duration": 0.03886012499999936,
                  "durationTicks": 1200,
                  "midi": 69,
                  "name": "A4",
                  "ticks": 609600,
                  "time": 19.7409435,
                  "velocity": 0.7086614173228346
              },
              {
                  "duration": 0.11658037500000162,
                  "durationTicks": 3600,
                  "midi": 72,
                  "name": "C5",
                  "ticks": 609600,
                  "time": 19.7409435,
                  "velocity": 0.6850393700787402
              },
              {
                  "duration": 0.07772025000000227,
                  "durationTicks": 2400,
                  "midi": 84,
                  "name": "C6",
                  "ticks": 609600,
                  "time": 19.7409435,
                  "velocity": 0.6614173228346457
              },
              {
                  "duration": 0.03886012499999936,
                  "durationTicks": 1200,
                  "midi": 74,
                  "name": "D5",
                  "ticks": 619200,
                  "time": 20.051824500000002,
                  "velocity": 0.8740157480314961
              },
              {
                  "duration": 0.11658037500000162,
                  "durationTicks": 3600,
                  "midi": 72,
                  "name": "C5",
                  "ticks": 624000,
                  "time": 20.207265,
                  "velocity": 0.8267716535433071
              },
              {
                  "duration": 0.11658037500000162,
                  "durationTicks": 3600,
                  "midi": 69,
                  "name": "A4",
                  "ticks": 628800,
                  "time": 20.3627055,
                  "velocity": 0.84251968503937
              },
              {
                  "duration": 0.07772024999999871,
                  "durationTicks": 2400,
                  "midi": 67,
                  "name": "G4",
                  "ticks": 633600,
                  "time": 20.518146,
                  "velocity": 0.9133858267716536
              },
              {
                  "duration": 0.07772024999999871,
                  "durationTicks": 2400,
                  "midi": 65,
                  "name": "F4",
                  "ticks": 638400,
                  "time": 20.673586500000003,
                  "velocity": 0.8188976377952756
              },
              {
                  "duration": 0.11658037500000162,
                  "durationTicks": 3600,
                  "midi": 62,
                  "name": "D4",
                  "ticks": 643200,
                  "time": 20.829027,
                  "velocity": 0.9606299212598425
              },
              {
                  "duration": 0.03886012499999936,
                  "durationTicks": 1200,
                  "midi": 60,
                  "name": "C4",
                  "ticks": 648000,
                  "time": 20.9844675,
                  "velocity": 0.8582677165354331
              },
              {
                  "duration": 0.11658037499999807,
                  "durationTicks": 3600,
                  "midi": 29,
                  "name": "F1",
                  "ticks": 652800,
                  "time": 21.139908000000002,
                  "velocity": 0.8346456692913385
              },
              {
                  "duration": 0.11658037499999807,
                  "durationTicks": 3600,
                  "midi": 29,
                  "name": "F1",
                  "ticks": 657600,
                  "time": 21.295348500000003,
                  "velocity": 0.9606299212598425
              },
              {
                  "duration": 0.11658037499999807,
                  "durationTicks": 3600,
                  "midi": 41,
                  "name": "F2",
                  "ticks": 657600,
                  "time": 21.295348500000003,
                  "velocity": 0.7874015748031497
              },
              {
                  "duration": 0.03886012499999936,
                  "durationTicks": 1200,
                  "midi": 29,
                  "name": "F1",
                  "ticks": 662400,
                  "time": 21.450789,
                  "velocity": 0.8503937007874016
              },
              {
                  "duration": 0.11658037500000162,
                  "durationTicks": 3600,
                  "midi": 41,
                  "name": "F2",
                  "ticks": 662400,
                  "time": 21.450789,
                  "velocity": 0.6771653543307087
              },
              {
                  "duration": 0.03886012499999936,
                  "durationTicks": 1200,
                  "midi": 60,
                  "name": "C4",
                  "ticks": 662400,
                  "time": 21.450789,
                  "velocity": 0.7559055118110236
              },
              {
                  "duration": 0.03886012499999936,
                  "durationTicks": 1200,
                  "midi": 41,
                  "name": "F2",
                  "ticks": 667200,
                  "time": 21.6062295,
                  "velocity": 0.6771653543307087
              },
              {
                  "duration": 0.11658037500000162,
                  "durationTicks": 3600,
                  "midi": 53,
                  "name": "F3",
                  "ticks": 667200,
                  "time": 21.6062295,
                  "velocity": 0.5354330708661418
              },
              {
                  "duration": 0.11658037500000162,
                  "durationTicks": 3600,
                  "midi": 65,
                  "name": "F4",
                  "ticks": 667200,
                  "time": 21.6062295,
                  "velocity": 0.5826771653543307
              },
              {
                  "duration": 0.11658037500000162,
                  "durationTicks": 3600,
                  "midi": 60,
                  "name": "C4",
                  "ticks": 667200,
                  "time": 21.6062295,
                  "velocity": 0.6141732283464567
              },
              {
                  "duration": 0.11658037500000162,
                  "durationTicks": 3600,
                  "midi": 41,
                  "name": "F2",
                  "ticks": 676800,
                  "time": 21.9171105,
                  "velocity": 0.6299212598425197
              },
              {
                  "duration": 0.07772025000000227,
                  "durationTicks": 2400,
                  "midi": 53,
                  "name": "F3",
                  "ticks": 676800,
                  "time": 21.9171105,
                  "velocity": 0.6220472440944882
              },
              {
                  "duration": 0.03886012499999936,
                  "durationTicks": 1200,
                  "midi": 41,
                  "name": "F2",
                  "ticks": 681600,
                  "time": 22.072551,
                  "velocity": 0.7559055118110236
              },
              {
                  "duration": 0.03886012499999936,
                  "durationTicks": 1200,
                  "midi": 60,
                  "name": "C4",
                  "ticks": 681600,
                  "time": 22.072551,
                  "velocity": 0.7480314960629921
              },
              {
                  "duration": 0.03886012499999936,
                  "durationTicks": 1200,
                  "midi": 65,
                  "name": "F4",
                  "ticks": 681600,
                  "time": 22.072551,
                  "velocity": 0.7086614173228346
              },
              {
                  "duration": 0.11658037499999807,
                  "durationTicks": 3600,
                  "midi": 41,
                  "name": "F2",
                  "ticks": 686400,
                  "time": 22.2279915,
                  "velocity": 0.7559055118110236
              },
              {
                  "duration": 0.03886012500000291,
                  "durationTicks": 1200,
                  "midi": 41,
                  "name": "F2",
                  "ticks": 696000,
                  "time": 22.5388725,
                  "velocity": 0.7874015748031497
              },
              {
                  "duration": 0.03886012500000291,
                  "durationTicks": 1200,
                  "midi": 53,
                  "name": "F3",
                  "ticks": 696000,
                  "time": 22.5388725,
                  "velocity": 0.7559055118110236
              },
              {
                  "duration": 0.11658037500000162,
                  "durationTicks": 3600,
                  "midi": 41,
                  "name": "F2",
                  "ticks": 700800,
                  "time": 22.694313,
                  "velocity": 0.7716535433070866
              },
              {
                  "duration": 0.03886012499999936,
                  "durationTicks": 1200,
                  "midi": 69,
                  "name": "A4",
                  "ticks": 700800,
                  "time": 22.694313,
                  "velocity": 0.6692913385826772
              },
              {
                  "duration": 0.07772024999999871,
                  "durationTicks": 2400,
                  "midi": 41,
                  "name": "F2",
                  "ticks": 705600,
                  "time": 22.849753500000002,
                  "velocity": 0.7716535433070866
              },
              {
                  "duration": 0.07772024999999871,
                  "durationTicks": 2400,
                  "midi": 60,
                  "name": "C4",
                  "ticks": 705600,
                  "time": 22.849753500000002,
                  "velocity": 0.6614173228346457
              },
              {
                  "duration": 0.11658037500000162,
                  "durationTicks": 3600,
                  "midi": 41,
                  "name": "F2",
                  "ticks": 715200,
                  "time": 23.1606345,
                  "velocity": 0.7244094488188977
              },
              {
                  "duration": 0.03886012499999936,
                  "durationTicks": 1200,
                  "midi": 53,
                  "name": "F3",
                  "ticks": 720000,
                  "time": 23.316075,
                  "velocity": 0.8346456692913385
              },
              {
                  "duration": 0.11658037499999807,
                  "durationTicks": 3600,
                  "midi": 41,
                  "name": "F2",
                  "ticks": 724800,
                  "time": 23.471515500000002,
                  "velocity": 0.6062992125984252
              },
              {
                  "duration": 0.07772024999999871,
                  "durationTicks": 2400,
                  "midi": 53,
                  "name": "F3",
                  "ticks": 724800,
                  "time": 23.471515500000002,
                  "velocity": 0.6141732283464567
              },
              {
                  "duration": 0.11658037499999807,
                  "durationTicks": 3600,
                  "midi": 60,
                  "name": "C4",
                  "ticks": 724800,
                  "time": 23.471515500000002,
                  "velocity": 0.5984251968503937
              },
              {
                  "duration": 0.11658037500000162,
                  "durationTicks": 3600,
                  "midi": 29,
                  "name": "F1",
                  "ticks": 729600,
                  "time": 23.626956,
                  "velocity": 0.8110236220472441
              },
              {
                  "duration": 0.11658037500000162,
                  "durationTicks": 3600,
                  "midi": 29,
                  "name": "F1",
                  "ticks": 734400,
                  "time": 23.7823965,
                  "velocity": 0.937007874015748
              },
              {
                  "duration": 0.11658037500000162,
                  "durationTicks": 3600,
                  "midi": 41,
                  "name": "F2",
                  "ticks": 734400,
                  "time": 23.7823965,
                  "velocity": 0.7716535433070866
              },
              {
                  "duration": 0.03886012499999936,
                  "durationTicks": 1200,
                  "midi": 29,
                  "name": "F1",
                  "ticks": 739200,
                  "time": 23.937837000000002,
                  "velocity": 0.8267716535433071
              },
              {
                  "duration": 0.11658037499999807,
                  "durationTicks": 3600,
                  "midi": 41,
                  "name": "F2",
                  "ticks": 739200,
                  "time": 23.937837000000002,
                  "velocity": 0.6692913385826772
              },
              {
                  "duration": 0.11658037499999807,
                  "durationTicks": 3600,
                  "midi": 60,
                  "name": "C4",
                  "ticks": 739200,
                  "time": 23.937837000000002,
                  "velocity": 0.6299212598425197
              },
              {
                  "duration": 0.11658037499999807,
                  "durationTicks": 3600,
                  "midi": 53,
                  "name": "F3",
                  "ticks": 744000,
                  "time": 24.093277500000003,
                  "velocity": 0.7165354330708661
              },
              {
                  "duration": 0.03886012499999936,
                  "durationTicks": 1200,
                  "midi": 60,
                  "name": "C4",
                  "ticks": 744000,
                  "time": 24.093277500000003,
                  "velocity": 0.6299212598425197
              },
              {
                  "duration": 0.07772024999999871,
                  "durationTicks": 2400,
                  "midi": 41,
                  "name": "F2",
                  "ticks": 753600,
                  "time": 24.4041585,
                  "velocity": 0.7401574803149606
              },
              {
                  "duration": 0.03886012499999936,
                  "durationTicks": 1200,
                  "midi": 53,
                  "name": "F3",
                  "ticks": 758400,
                  "time": 24.559599000000002,
                  "velocity": 0.84251968503937
              },
              {
                  "duration": 0.11658037499999807,
                  "durationTicks": 3600,
                  "midi": 41,
                  "name": "F2",
                  "ticks": 763200,
                  "time": 24.715039500000003,
                  "velocity": 0.6299212598425197
              },
              {
                  "duration": 0.07772024999999871,
                  "durationTicks": 2400,
                  "midi": 53,
                  "name": "F3",
                  "ticks": 763200,
                  "time": 24.715039500000003,
                  "velocity": 0.6692913385826772
              },
              {
                  "duration": 0.03886012499999936,
                  "durationTicks": 1200,
                  "midi": 41,
                  "name": "F2",
                  "ticks": 772800,
                  "time": 25.0259205,
                  "velocity": 0.8110236220472441
              },
              {
                  "duration": 0.03886012499999936,
                  "durationTicks": 1200,
                  "midi": 53,
                  "name": "F3",
                  "ticks": 772800,
                  "time": 25.0259205,
                  "velocity": 0.8031496062992126
              },
              {
                  "duration": 0.11658037499999807,
                  "durationTicks": 3600,
                  "midi": 41,
                  "name": "F2",
                  "ticks": 777600,
                  "time": 25.181361000000003,
                  "velocity": 0.7401574803149606
              },
              {
                  "duration": 0.11658037500000162,
                  "durationTicks": 3600,
                  "midi": 41,
                  "name": "F2",
                  "ticks": 782400,
                  "time": 25.3368015,
                  "velocity": 0.7401574803149606
              },
              {
                  "duration": 0.11658037500000162,
                  "durationTicks": 3600,
                  "midi": 53,
                  "name": "F3",
                  "ticks": 782400,
                  "time": 25.3368015,
                  "velocity": 0.6692913385826772
              },
              {
                  "duration": 0.11658037500000162,
                  "durationTicks": 3600,
                  "midi": 60,
                  "name": "C4",
                  "ticks": 782400,
                  "time": 25.3368015,
                  "velocity": 0.6141732283464567
              },
              {
                  "duration": 0.11658037499999807,
                  "durationTicks": 3600,
                  "midi": 60,
                  "name": "C4",
                  "ticks": 792000,
                  "time": 25.647682500000002,
                  "velocity": 0.6771653543307087
              },
              {
                  "duration": 0.07772024999999871,
                  "durationTicks": 2400,
                  "midi": 60,
                  "name": "C4",
                  "ticks": 796800,
                  "time": 25.803123000000003,
                  "velocity": 0.8031496062992126
              },
              {
                  "duration": 0.07772025000000227,
                  "durationTicks": 2400,
                  "midi": 64,
                  "name": "E4",
                  "ticks": 801600,
                  "time": 25.9585635,
                  "velocity": 0.6299212598425197
              },
              {
                  "duration": 0.11658037500000162,
                  "durationTicks": 3600,
                  "midi": 29,
                  "name": "F1",
                  "ticks": 806400,
                  "time": 26.114004,
                  "velocity": 0.84251968503937
              },
              {
                  "duration": 0.11658037499999807,
                  "durationTicks": 3600,
                  "midi": 29,
                  "name": "F1",
                  "ticks": 811200,
                  "time": 26.269444500000002,
                  "velocity": 0.9606299212598425
              },
              {
                  "duration": 0.11658037499999807,
                  "durationTicks": 3600,
                  "midi": 65,
                  "name": "F4",
                  "ticks": 811200,
                  "time": 26.269444500000002,
                  "velocity": 0.7874015748031497
              },
              {
                  "duration": 0.03886012499999936,
                  "durationTicks": 1200,
                  "midi": 29,
                  "name": "F1",
                  "ticks": 816000,
                  "time": 26.424885000000003,
                  "velocity": 0.8582677165354331
              },
              {
                  "duration": 0.11658037499999807,
                  "durationTicks": 3600,
                  "midi": 41,
                  "name": "F2",
                  "ticks": 816000,
                  "time": 26.424885000000003,
                  "velocity": 0.7007874015748031
              },
              {
                  "duration": 0.03886012499999936,
                  "durationTicks": 1200,
                  "midi": 65,
                  "name": "F4",
                  "ticks": 816000,
                  "time": 26.424885000000003,
                  "velocity": 0.6850393700787402
              },
              {
                  "duration": 0.11658037500000162,
                  "durationTicks": 3600,
                  "midi": 29,
                  "name": "F1",
                  "ticks": 820800,
                  "time": 26.5803255,
                  "velocity": 0.8346456692913385
              },
              {
                  "duration": 0.11658037500000162,
                  "durationTicks": 3600,
                  "midi": 41,
                  "name": "F2",
                  "ticks": 820800,
                  "time": 26.5803255,
                  "velocity": 0.7007874015748031
              },
              {
                  "duration": 0.03886012499999936,
                  "durationTicks": 1200,
                  "midi": 29,
                  "name": "F1",
                  "ticks": 825600,
                  "time": 26.735766,
                  "velocity": 0.905511811023622
              },
              {
                  "duration": 0.03886012499999936,
                  "durationTicks": 1200,
                  "midi": 29,
                  "name": "F1",
                  "ticks": 830400,
                  "time": 26.891206500000003,
                  "velocity": 0.8267716535433071
              },
              {
                  "duration": 0.03886012499999936,
                  "durationTicks": 1200,
                  "midi": 60,
                  "name": "C4",
                  "ticks": 830400,
                  "time": 26.891206500000003,
                  "velocity": 0.6692913385826772
              },
              {
                  "duration": 0.03886012500000291,
                  "durationTicks": 1200,
                  "midi": 29,
                  "name": "F1",
                  "ticks": 835200,
                  "time": 27.046647,
                  "velocity": 0.9291338582677166
              },
              {
                  "duration": 0.03886012500000291,
                  "durationTicks": 1200,
                  "midi": 57,
                  "name": "A3",
                  "ticks": 835200,
                  "time": 27.046647,
                  "velocity": 0.7244094488188977
              },
              {
                  "duration": 0.11658037500000162,
                  "durationTicks": 3600,
                  "midi": 60,
                  "name": "C4",
                  "ticks": 835200,
                  "time": 27.046647,
                  "velocity": 0.7559055118110236
              },
              {
                  "duration": 0.11658037500000162,
                  "durationTicks": 3600,
                  "midi": 65,
                  "name": "F4",
                  "ticks": 835200,
                  "time": 27.046647,
                  "velocity": 0.7086614173228346
              },
              {
                  "duration": 0.07772025000000227,
                  "durationTicks": 2400,
                  "midi": 29,
                  "name": "F1",
                  "ticks": 840000,
                  "time": 27.2020875,
                  "velocity": 0.8503937007874016
              },
              {
                  "duration": 0.11658037500000162,
                  "durationTicks": 3600,
                  "midi": 60,
                  "name": "C4",
                  "ticks": 840000,
                  "time": 27.2020875,
                  "velocity": 0.6456692913385826
              },
              {
                  "duration": 0.07772025000000227,
                  "durationTicks": 2400,
                  "midi": 65,
                  "name": "F4",
                  "ticks": 840000,
                  "time": 27.2020875,
                  "velocity": 0.6062992125984252
              },
              {
                  "duration": 0.11658037499999807,
                  "durationTicks": 3600,
                  "midi": 48,
                  "name": "C3",
                  "ticks": 844800,
                  "time": 27.357528000000002,
                  "velocity": 0.5748031496062992
              },
              {
                  "duration": 0.03886012499999936,
                  "durationTicks": 1200,
                  "midi": 29,
                  "name": "F1",
                  "ticks": 849600,
                  "time": 27.512968500000003,
                  "velocity": 0.9606299212598425
              },
              {
                  "duration": 0.07772024999999871,
                  "durationTicks": 2400,
                  "midi": 48,
                  "name": "C3",
                  "ticks": 849600,
                  "time": 27.512968500000003,
                  "velocity": 0.6929133858267716
              },
              {
                  "duration": 0.03886012500000291,
                  "durationTicks": 1200,
                  "midi": 29,
                  "name": "F1",
                  "ticks": 854400,
                  "time": 27.668409,
                  "velocity": 0.8503937007874016
              },
              {
                  "duration": 0.07772024999999871,
                  "durationTicks": 2400,
                  "midi": 29,
                  "name": "F1",
                  "ticks": 859200,
                  "time": 27.8238495,
                  "velocity": 0.8503937007874016
              },
              {
                  "duration": 0.03886012499999936,
                  "durationTicks": 1200,
                  "midi": 29,
                  "name": "F1",
                  "ticks": 868800,
                  "time": 28.134730500000003,
                  "velocity": 0.8267716535433071
              },
              {
                  "duration": 0.03886012499999936,
                  "durationTicks": 1200,
                  "midi": 60,
                  "name": "C4",
                  "ticks": 868800,
                  "time": 28.134730500000003,
                  "velocity": 0.6771653543307087
              },
              {
                  "duration": 0.03886012499999936,
                  "durationTicks": 1200,
                  "midi": 29,
                  "name": "F1",
                  "ticks": 873600,
                  "time": 28.290171,
                  "velocity": 0.9606299212598425
              },
              {
                  "duration": 0.11658037500000162,
                  "durationTicks": 3600,
                  "midi": 29,
                  "name": "F1",
                  "ticks": 878400,
                  "time": 28.445611500000002,
                  "velocity": 0.8503937007874016
              },
              {
                  "duration": 0.11658037499999807,
                  "durationTicks": 3600,
                  "midi": 65,
                  "name": "F4",
                  "ticks": 883200,
                  "time": 28.601052000000003,
                  "velocity": 0.6141732283464567
              },
              {
                  "duration": 0.03886012500000291,
                  "durationTicks": 1200,
                  "midi": 29,
                  "name": "F1",
                  "ticks": 888000,
                  "time": 28.7564925,
                  "velocity": 0.9606299212598425
              },
              {
                  "duration": 0.07772025000000227,
                  "durationTicks": 2400,
                  "midi": 60,
                  "name": "C4",
                  "ticks": 888000,
                  "time": 28.7564925,
                  "velocity": 0.7716535433070866
              },
              {
                  "duration": 0.11658037500000162,
                  "durationTicks": 3600,
                  "midi": 65,
                  "name": "F4",
                  "ticks": 888000,
                  "time": 28.7564925,
                  "velocity": 0.7322834645669292
              },
              {
                  "duration": 0.03886012499999936,
                  "durationTicks": 1200,
                  "midi": 29,
                  "name": "F1",
                  "ticks": 892800,
                  "time": 28.911933,
                  "velocity": 0.8582677165354331
              },
              {
                  "duration": 0.07772025000000227,
                  "durationTicks": 2400,
                  "midi": 65,
                  "name": "F4",
                  "ticks": 892800,
                  "time": 28.911933,
                  "velocity": 0.6299212598425197
              },
              {
                  "duration": 0.11658037499999807,
                  "durationTicks": 3600,
                  "midi": 29,
                  "name": "F1",
                  "ticks": 897600,
                  "time": 29.067373500000002,
                  "velocity": 0.8503937007874016
              },
              {
                  "duration": 0.03886012499999936,
                  "durationTicks": 1200,
                  "midi": 53,
                  "name": "F3",
                  "ticks": 902400,
                  "time": 29.222814000000003,
                  "velocity": 0.6377952755905512
              },
              {
                  "duration": 0.03886012499999936,
                  "durationTicks": 1200,
                  "midi": 60,
                  "name": "C4",
                  "ticks": 902400,
                  "time": 29.222814000000003,
                  "velocity": 0.5826771653543307
              },
              {
                  "duration": 0.03886012500000291,
                  "durationTicks": 1200,
                  "midi": 29,
                  "name": "F1",
                  "ticks": 907200,
                  "time": 29.3782545,
                  "velocity": 0.8346456692913385
              },
              {
                  "duration": 0.07772025000000227,
                  "durationTicks": 2400,
                  "midi": 60,
                  "name": "C4",
                  "ticks": 907200,
                  "time": 29.3782545,
                  "velocity": 0.6771653543307087
              },
              {
                  "duration": 0.03886012499999936,
                  "durationTicks": 1200,
                  "midi": 29,
                  "name": "F1",
                  "ticks": 912000,
                  "time": 29.533695,
                  "velocity": 0.9606299212598425
              },
              {
                  "duration": 0.07772024999999871,
                  "durationTicks": 2400,
                  "midi": 29,
                  "name": "F1",
                  "ticks": 916800,
                  "time": 29.689135500000003,
                  "velocity": 0.8503937007874016
              },
              {
                  "duration": 0.07772024999999871,
                  "durationTicks": 2400,
                  "midi": 62,
                  "name": "D4",
                  "ticks": 921600,
                  "time": 29.844576000000004,
                  "velocity": 0.5511811023622047
              },
              {
                  "duration": 0.03886012499999936,
                  "durationTicks": 1200,
                  "midi": 74,
                  "name": "D5",
                  "ticks": 921600,
                  "time": 29.844576000000004,
                  "velocity": 0.6141732283464567
              },
              {
                  "duration": 0.07772025000000227,
                  "durationTicks": 2400,
                  "midi": 72,
                  "name": "C5",
                  "ticks": 926400,
                  "time": 30.0000165,
                  "velocity": 0.8976377952755905
              },
              {
                  "duration": 0.07772024999999871,
                  "durationTicks": 2400,
                  "midi": 69,
                  "name": "A4",
                  "ticks": 931200,
                  "time": 30.155457000000002,
                  "velocity": 0.7322834645669292
              },
              {
                  "duration": 0.07772024999999871,
                  "durationTicks": 2400,
                  "midi": 67,
                  "name": "G4",
                  "ticks": 936000,
                  "time": 30.310897500000003,
                  "velocity": 0.7401574803149606
              },
              {
                  "duration": 0.03886012499999936,
                  "durationTicks": 1200,
                  "midi": 65,
                  "name": "F4",
                  "ticks": 945600,
                  "time": 30.6217785,
                  "velocity": 0.7559055118110236
              },
              {
                  "duration": 0.07772024999999871,
                  "durationTicks": 2400,
                  "midi": 62,
                  "name": "D4",
                  "ticks": 950400,
                  "time": 30.777219000000002,
                  "velocity": 0.937007874015748
              },
              {
                  "duration": 0.07772024999999871,
                  "durationTicks": 2400,
                  "midi": 60,
                  "name": "C4",
                  "ticks": 955200,
                  "time": 30.932659500000003,
                  "velocity": 0.7874015748031497
              },
              {
                  "duration": 0.11658037499999807,
                  "durationTicks": 3600,
                  "midi": 65,
                  "name": "F4",
                  "ticks": 955200,
                  "time": 30.932659500000003,
                  "velocity": 0.8110236220472441
              },
              {
                  "duration": 0.11658037500000162,
                  "durationTicks": 3600,
                  "midi": 29,
                  "name": "F1",
                  "ticks": 960000,
                  "time": 31.0881,
                  "velocity": 0.84251968503937
              },
              {
                  "duration": 0.11658037500000162,
                  "durationTicks": 3600,
                  "midi": 65,
                  "name": "F4",
                  "ticks": 960000,
                  "time": 31.0881,
                  "velocity": 0.8031496062992126
              },
              {
                  "duration": 0.11658037500000162,
                  "durationTicks": 3600,
                  "midi": 29,
                  "name": "F1",
                  "ticks": 964800,
                  "time": 31.2435405,
                  "velocity": 0.9606299212598425
              },
              {
                  "duration": 0.03886012499999936,
                  "durationTicks": 1200,
                  "midi": 65,
                  "name": "F4",
                  "ticks": 964800,
                  "time": 31.2435405,
                  "velocity": 0.9212598425196851
              },
              {
                  "duration": 0.07772024999999871,
                  "durationTicks": 2400,
                  "midi": 29,
                  "name": "F1",
                  "ticks": 969600,
                  "time": 31.398981000000003,
                  "velocity": 0.8503937007874016
              },
              {
                  "duration": 0.11658037499999807,
                  "durationTicks": 3600,
                  "midi": 41,
                  "name": "F2",
                  "ticks": 969600,
                  "time": 31.398981000000003,
                  "velocity": 0.6771653543307087
              },
              {
                  "duration": 0.07772024999999871,
                  "durationTicks": 2400,
                  "midi": 65,
                  "name": "F4",
                  "ticks": 969600,
                  "time": 31.398981000000003,
                  "velocity": 0.7874015748031497
              },
              {
                  "duration": 0.07772025000000227,
                  "durationTicks": 2400,
                  "midi": 41,
                  "name": "F2",
                  "ticks": 974400,
                  "time": 31.5544215,
                  "velocity": 0.6771653543307087
              },
              {
                  "duration": 0.07772025000000227,
                  "durationTicks": 2400,
                  "midi": 53,
                  "name": "F3",
                  "ticks": 974400,
                  "time": 31.5544215,
                  "velocity": 0.6141732283464567
              },
              {
                  "duration": 0.07772025000000227,
                  "durationTicks": 2400,
                  "midi": 60,
                  "name": "C4",
                  "ticks": 974400,
                  "time": 31.5544215,
                  "velocity": 0.5984251968503937
              },
              {
                  "duration": 0.11658037499999807,
                  "durationTicks": 3600,
                  "midi": 29,
                  "name": "F1",
                  "ticks": 984000,
                  "time": 31.865302500000002,
                  "velocity": 0.8346456692913385
              },
              {
                  "duration": 0.11658037499999807,
                  "durationTicks": 3600,
                  "midi": 60,
                  "name": "C4",
                  "ticks": 984000,
                  "time": 31.865302500000002,
                  "velocity": 0.7480314960629921
              },
              {
                  "duration": 0.03886012499999936,
                  "durationTicks": 1200,
                  "midi": 29,
                  "name": "F1",
                  "ticks": 988800,
                  "time": 32.020743,
                  "velocity": 0.9606299212598425
              },
              {
                  "duration": 0.11658037499999807,
                  "durationTicks": 3600,
                  "midi": 29,
                  "name": "F1",
                  "ticks": 993600,
                  "time": 32.1761835,
                  "velocity": 0.8503937007874016
              },
              {
                  "duration": 0.11658037499999807,
                  "durationTicks": 3600,
                  "midi": 65,
                  "name": "F4",
                  "ticks": 993600,
                  "time": 32.1761835,
                  "velocity": 0.8031496062992126
              },
              {
                  "duration": 0.11658037499999807,
                  "durationTicks": 3600,
                  "midi": 74,
                  "name": "D5",
                  "ticks": 998400,
                  "time": 32.331624000000005,
                  "velocity": 0.6614173228346457
              },
              {
                  "duration": 0.11658037499999807,
                  "durationTicks": 3600,
                  "midi": 29,
                  "name": "F1",
                  "ticks": 1003200,
                  "time": 32.4870645,
                  "velocity": 0.9606299212598425
              },
              {
                  "duration": 0.03886012499999936,
                  "durationTicks": 1200,
                  "midi": 29,
                  "name": "F1",
                  "ticks": 1008000,
                  "time": 32.642505,
                  "velocity": 0.8503937007874016
              },
              {
                  "duration": 0.03886012499999936,
                  "durationTicks": 1200,
                  "midi": 41,
                  "name": "F2",
                  "ticks": 1008000,
                  "time": 32.642505,
                  "velocity": 0.7952755905511811
              },
              {
                  "duration": 0.07772024999999871,
                  "durationTicks": 2400,
                  "midi": 29,
                  "name": "F1",
                  "ticks": 1012800,
                  "time": 32.797945500000004,
                  "velocity": 0.8582677165354331
              },
              {
                  "duration": 0.11658037499999807,
                  "durationTicks": 3600,
                  "midi": 29,
                  "name": "F1",
                  "ticks": 1017600,
                  "time": 32.953386,
                  "velocity": 0.9133858267716536
              },
              {
                  "duration": 0.11658037499999807,
                  "durationTicks": 3600,
                  "midi": 62,
                  "name": "D4",
                  "ticks": 1017600,
                  "time": 32.953386,
                  "velocity": 0.8110236220472441
              },
              {
                  "duration": 0.07772025000000582,
                  "durationTicks": 2400,
                  "midi": 48,
                  "name": "C3",
                  "ticks": 1022400,
                  "time": 33.1088265,
                  "velocity": 0.8188976377952756
              },
              {
                  "duration": 0.11658037499999807,
                  "durationTicks": 3600,
                  "midi": 38,
                  "name": "D2",
                  "ticks": 1027200,
                  "time": 33.264267000000004,
                  "velocity": 0.7874015748031497
              },
              {
                  "duration": 0.11658037499999807,
                  "durationTicks": 3600,
                  "midi": 50,
                  "name": "D3",
                  "ticks": 1027200,
                  "time": 33.264267000000004,
                  "velocity": 0.9212598425196851
              },
              {
                  "duration": 0.07772024999999871,
                  "durationTicks": 2400,
                  "midi": 53,
                  "name": "F3",
                  "ticks": 1032000,
                  "time": 33.4197075,
                  "velocity": 0.8267716535433071
              },
              {
                  "duration": 0.11658037500000518,
                  "durationTicks": 3600,
                  "midi": 26,
                  "name": "D1",
                  "ticks": 1036800,
                  "time": 33.575148,
                  "velocity": 0.8346456692913385
              },
              {
                  "duration": 0.11658037500000518,
                  "durationTicks": 3600,
                  "midi": 77,
                  "name": "F5",
                  "ticks": 1036800,
                  "time": 33.575148,
                  "velocity": 0.6535433070866141
              },
              {
                  "duration": 0.11658037499999807,
                  "durationTicks": 3600,
                  "midi": 26,
                  "name": "D1",
                  "ticks": 1041600,
                  "time": 33.7305885,
                  "velocity": 0.9606299212598425
              },
              {
                  "duration": 0.11658037499999807,
                  "durationTicks": 3600,
                  "midi": 69,
                  "name": "A4",
                  "ticks": 1041600,
                  "time": 33.7305885,
                  "velocity": 0.6929133858267716
              },
              {
                  "duration": 0.11658037499999807,
                  "durationTicks": 3600,
                  "midi": 77,
                  "name": "F5",
                  "ticks": 1041600,
                  "time": 33.7305885,
                  "velocity": 0.7716535433070866
              },
              {
                  "duration": 0.03886012499999936,
                  "durationTicks": 1200,
                  "midi": 26,
                  "name": "D1",
                  "ticks": 1046400,
                  "time": 33.886029,
                  "velocity": 0.8503937007874016
              },
              {
                  "duration": 0.03886012499999936,
                  "durationTicks": 1200,
                  "midi": 50,
                  "name": "D3",
                  "ticks": 1046400,
                  "time": 33.886029,
                  "velocity": 0.7559055118110236
              },
              {
                  "duration": 0.11658037499999807,
                  "durationTicks": 3600,
                  "midi": 65,
                  "name": "F4",
                  "ticks": 1046400,
                  "time": 33.886029,
                  "velocity": 0.8031496062992126
              },
              {
                  "duration": 0.07772024999999871,
                  "durationTicks": 2400,
                  "midi": 69,
                  "name": "A4",
                  "ticks": 1046400,
                  "time": 33.886029,
                  "velocity": 0.5826771653543307
              },
              {
                  "duration": 0.03886012499999936,
                  "durationTicks": 1200,
                  "midi": 77,
                  "name": "F5",
                  "ticks": 1046400,
                  "time": 33.886029,
                  "velocity": 0.6614173228346457
              },
              {
                  "duration": 0.11658037499999807,
                  "durationTicks": 3600,
                  "midi": 38,
                  "name": "D2",
                  "ticks": 1051200,
                  "time": 34.041469500000005,
                  "velocity": 0.7086614173228346
              },
              {
                  "duration": 0.11658037500000518,
                  "durationTicks": 3600,
                  "midi": 26,
                  "name": "D1",
                  "ticks": 1060800,
                  "time": 34.3523505,
                  "velocity": 0.8346456692913385
              },
              {
                  "duration": 0.11658037500000518,
                  "durationTicks": 3600,
                  "midi": 57,
                  "name": "A3",
                  "ticks": 1060800,
                  "time": 34.3523505,
                  "velocity": 0.6456692913385826
              },
              {
                  "duration": 0.11658037500000518,
                  "durationTicks": 3600,
                  "midi": 69,
                  "name": "A4",
                  "ticks": 1060800,
                  "time": 34.3523505,
                  "velocity": 0.6377952755905512
              },
              {
                  "duration": 0.03886012499999936,
                  "durationTicks": 1200,
                  "midi": 26,
                  "name": "D1",
                  "ticks": 1065600,
                  "time": 34.507791000000005,
                  "velocity": 0.9606299212598425
              },
              {
                  "duration": 0.03886012499999936,
                  "durationTicks": 1200,
                  "midi": 50,
                  "name": "D3",
                  "ticks": 1065600,
                  "time": 34.507791000000005,
                  "velocity": 0.7874015748031497
              },
              {
                  "duration": 0.07772024999999871,
                  "durationTicks": 2400,
                  "midi": 57,
                  "name": "A3",
                  "ticks": 1065600,
                  "time": 34.507791000000005,
                  "velocity": 0.7716535433070866
              },
              {
                  "duration": 0.11658037499999807,
                  "durationTicks": 3600,
                  "midi": 26,
                  "name": "D1",
                  "ticks": 1070400,
                  "time": 34.6632315,
                  "velocity": 0.8503937007874016
              },
              {
                  "duration": 0.11658037499999807,
                  "durationTicks": 3600,
                  "midi": 65,
                  "name": "F4",
                  "ticks": 1070400,
                  "time": 34.6632315,
                  "velocity": 0.8188976377952756
              },
              {
                  "duration": 0.07772025000000582,
                  "durationTicks": 2400,
                  "midi": 62,
                  "name": "D4",
                  "ticks": 1075200,
                  "time": 34.818672,
                  "velocity": 0.6929133858267716
              },
              {
                  "duration": 0.11658037499999807,
                  "durationTicks": 3600,
                  "midi": 36,
                  "name": "C2",
                  "ticks": 1080000,
                  "time": 34.974112500000004,
                  "velocity": 0.968503937007874
              },
              {
                  "duration": 0.03886012499999936,
                  "durationTicks": 1200,
                  "midi": 36,
                  "name": "C2",
                  "ticks": 1084800,
                  "time": 35.129553,
                  "velocity": 0.8582677165354331
              },
              {
                  "duration": 0.11658037500000518,
                  "durationTicks": 3600,
                  "midi": 36,
                  "name": "C2",
                  "ticks": 1089600,
                  "time": 35.2849935,
                  "velocity": 0.8503937007874016
              },
              {
                  "duration": 0.11658037499999807,
                  "durationTicks": 3600,
                  "midi": 67,
                  "name": "G4",
                  "ticks": 1094400,
                  "time": 35.440434,
                  "velocity": 0.8031496062992126
              },
              {
                  "duration": 0.11658037499999807,
                  "durationTicks": 3600,
                  "midi": 48,
                  "name": "C3",
                  "ticks": 1099200,
                  "time": 35.5958745,
                  "velocity": 0.7086614173228346
              },
              {
                  "duration": 0.11658037499999807,
                  "durationTicks": 3600,
                  "midi": 65,
                  "name": "F4",
                  "ticks": 1099200,
                  "time": 35.5958745,
                  "velocity": 0.7559055118110236
              },
              {
                  "duration": 0.11658037499999807,
                  "durationTicks": 3600,
                  "midi": 50,
                  "name": "D3",
                  "ticks": 1104000,
                  "time": 35.751315000000005,
                  "velocity": 0.8031496062992126
              },
              {
                  "duration": 0.07772024999999871,
                  "durationTicks": 2400,
                  "midi": 62,
                  "name": "D4",
                  "ticks": 1104000,
                  "time": 35.751315000000005,
                  "velocity": 0.8976377952755905
              },
              {
                  "duration": 0.11658037499999807,
                  "durationTicks": 3600,
                  "midi": 60,
                  "name": "C4",
                  "ticks": 1108800,
                  "time": 35.9067555,
                  "velocity": 0.8267716535433071
              },
              {
                  "duration": 0.11658037500000518,
                  "durationTicks": 3600,
                  "midi": 34,
                  "name": "A#1",
                  "ticks": 1113600,
                  "time": 36.062196,
                  "velocity": 0.8346456692913385
              },
              {
                  "duration": 0.11658037500000518,
                  "durationTicks": 3600,
                  "midi": 62,
                  "name": "D4",
                  "ticks": 1113600,
                  "time": 36.062196,
                  "velocity": 0.7637795275590551
              },
              {
                  "duration": 0.11658037500000518,
                  "durationTicks": 3600,
                  "midi": 65,
                  "name": "F4",
                  "ticks": 1113600,
                  "time": 36.062196,
                  "velocity": 0.7244094488188977
              },
              {
                  "duration": 0.11658037499999807,
                  "durationTicks": 3600,
                  "midi": 34,
                  "name": "A#1",
                  "ticks": 1118400,
                  "time": 36.217636500000005,
                  "velocity": 0.9606299212598425
              },
              {
                  "duration": 0.11658037499999807,
                  "durationTicks": 3600,
                  "midi": 62,
                  "name": "D4",
                  "ticks": 1118400,
                  "time": 36.217636500000005,
                  "velocity": 0.8818897637795275
              },
              {
                  "duration": 0.11658037499999807,
                  "durationTicks": 3600,
                  "midi": 65,
                  "name": "F4",
                  "ticks": 1118400,
                  "time": 36.217636500000005,
                  "velocity": 0.8346456692913385
              },
              {
                  "duration": 0.03886012499999936,
                  "durationTicks": 1200,
                  "midi": 34,
                  "name": "A#1",
                  "ticks": 1123200,
                  "time": 36.373077,
                  "velocity": 0.8503937007874016
              },
              {
                  "duration": 0.03886012499999936,
                  "durationTicks": 1200,
                  "midi": 65,
                  "name": "F4",
                  "ticks": 1123200,
                  "time": 36.373077,
                  "velocity": 0.7322834645669292
              },
              {
                  "duration": 0.11658037500000518,
                  "durationTicks": 3600,
                  "midi": 46,
                  "name": "A#2",
                  "ticks": 1128000,
                  "time": 36.5285175,
                  "velocity": 0.7086614173228346
              },
              {
                  "duration": 0.07772025000000582,
                  "durationTicks": 2400,
                  "midi": 53,
                  "name": "F3",
                  "ticks": 1128000,
                  "time": 36.5285175,
                  "velocity": 0.6141732283464567
              },
              {
                  "duration": 0.11658037499999807,
                  "durationTicks": 3600,
                  "midi": 34,
                  "name": "A#1",
                  "ticks": 1137600,
                  "time": 36.8393985,
                  "velocity": 0.84251968503937
              },
              {
                  "duration": 0.03886012500000646,
                  "durationTicks": 1200,
                  "midi": 34,
                  "name": "A#1",
                  "ticks": 1142400,
                  "time": 36.994839,
                  "velocity": 0.9763779527559056
              },
              {
                  "duration": 0.11658037499999807,
                  "durationTicks": 3600,
                  "midi": 34,
                  "name": "A#1",
                  "ticks": 1147200,
                  "time": 37.1502795,
                  "velocity": 0.8582677165354331
              },
              {
                  "duration": 0.07772024999999871,
                  "durationTicks": 2400,
                  "midi": 62,
                  "name": "D4",
                  "ticks": 1152000,
                  "time": 37.30572,
                  "velocity": 0.6771653543307087
              },
              {
                  "duration": 0.11658037499999807,
                  "durationTicks": 3600,
                  "midi": 34,
                  "name": "A#1",
                  "ticks": 1156800,
                  "time": 37.461160500000005,
                  "velocity": 0.9606299212598425
              },
              {
                  "duration": 0.03886012499999936,
                  "durationTicks": 1200,
                  "midi": 34,
                  "name": "A#1",
                  "ticks": 1161600,
                  "time": 37.616601,
                  "velocity": 0.8582677165354331
              },
              {
                  "duration": 0.11658037499999807,
                  "durationTicks": 3600,
                  "midi": 46,
                  "name": "A#2",
                  "ticks": 1161600,
                  "time": 37.616601,
                  "velocity": 0.7322834645669292
              },
              {
                  "duration": 0.03886012499999936,
                  "durationTicks": 1200,
                  "midi": 34,
                  "name": "A#1",
                  "ticks": 1166400,
                  "time": 37.7720415,
                  "velocity": 0.8582677165354331
              },
              {
                  "duration": 0.11658037500000518,
                  "durationTicks": 3600,
                  "midi": 46,
                  "name": "A#2",
                  "ticks": 1166400,
                  "time": 37.7720415,
                  "velocity": 0.7322834645669292
              },
              {
                  "duration": 0.11658037499999807,
                  "durationTicks": 3600,
                  "midi": 34,
                  "name": "A#1",
                  "ticks": 1171200,
                  "time": 37.927482000000005,
                  "velocity": 0.8976377952755905
              },
              {
                  "duration": 0.11658037499999807,
                  "durationTicks": 3600,
                  "midi": 60,
                  "name": "C4",
                  "ticks": 1171200,
                  "time": 37.927482000000005,
                  "velocity": 0.7952755905511811
              },
              {
                  "duration": 0.03886012499999936,
                  "durationTicks": 1200,
                  "midi": 46,
                  "name": "A#2",
                  "ticks": 1176000,
                  "time": 38.0829225,
                  "velocity": 0.7244094488188977
              },
              {
                  "duration": 0.03886012499999936,
                  "durationTicks": 1200,
                  "midi": 53,
                  "name": "F3",
                  "ticks": 1176000,
                  "time": 38.0829225,
                  "velocity": 0.6692913385826772
              },
              {
                  "duration": 0.11658037499999807,
                  "durationTicks": 3600,
                  "midi": 62,
                  "name": "D4",
                  "ticks": 1176000,
                  "time": 38.0829225,
                  "velocity": 0.7559055118110236
              },
              {
                  "duration": 0.11658037500000518,
                  "durationTicks": 3600,
                  "midi": 46,
                  "name": "A#2",
                  "ticks": 1180800,
                  "time": 38.238363,
                  "velocity": 0.905511811023622
              },
              {
                  "duration": 0.11658037500000518,
                  "durationTicks": 3600,
                  "midi": 53,
                  "name": "F3",
                  "ticks": 1180800,
                  "time": 38.238363,
                  "velocity": 0.889763779527559
              },
              {
                  "duration": 0.07772024999999871,
                  "durationTicks": 2400,
                  "midi": 46,
                  "name": "A#2",
                  "ticks": 1185600,
                  "time": 38.393803500000004,
                  "velocity": 0.8031496062992126
              },
              {
                  "duration": 0.07772024999999871,
                  "durationTicks": 2400,
                  "midi": 53,
                  "name": "F3",
                  "ticks": 1185600,
                  "time": 38.393803500000004,
                  "velocity": 0.7874015748031497
              },
              {
                  "duration": 0.07772024999999871,
                  "durationTicks": 2400,
                  "midi": 67,
                  "name": "G4",
                  "ticks": 1185600,
                  "time": 38.393803500000004,
                  "velocity": 0.8267716535433071
              },
              {
                  "duration": 0.11658037499999807,
                  "durationTicks": 3600,
                  "midi": 31,
                  "name": "G1",
                  "ticks": 1190400,
                  "time": 38.549244,
                  "velocity": 0.84251968503937
              },
              {
                  "duration": 0.11658037499999807,
                  "durationTicks": 3600,
                  "midi": 69,
                  "name": "A4",
                  "ticks": 1190400,
                  "time": 38.549244,
                  "velocity": 0.7559055118110236
              },
              {
                  "duration": 0.03886012500000646,
                  "durationTicks": 1200,
                  "midi": 31,
                  "name": "G1",
                  "ticks": 1195200,
                  "time": 38.7046845,
                  "velocity": 0.9606299212598425
              },
              {
                  "duration": 0.11658037500000518,
                  "durationTicks": 3600,
                  "midi": 72,
                  "name": "C5",
                  "ticks": 1195200,
                  "time": 38.7046845,
                  "velocity": 0.9133858267716536
              },
              {
                  "duration": 0.11658037499999807,
                  "durationTicks": 3600,
                  "midi": 31,
                  "name": "G1",
                  "ticks": 1200000,
                  "time": 38.860125000000004,
                  "velocity": 0.8582677165354331
              },
              {
                  "duration": 0.11658037499999807,
                  "durationTicks": 3600,
                  "midi": 32,
                  "name": "G#1",
                  "ticks": 1204800,
                  "time": 39.0155655,
                  "velocity": 0.8503937007874016
              },
              {
                  "duration": 0.07772024999999871,
                  "durationTicks": 2400,
                  "midi": 72,
                  "name": "C5",
                  "ticks": 1204800,
                  "time": 39.0155655,
                  "velocity": 0.7559055118110236
              },
              {
                  "duration": 0.11658037499999807,
                  "durationTicks": 3600,
                  "midi": 33,
                  "name": "A1",
                  "ticks": 1214400,
                  "time": 39.3264465,
                  "velocity": 0.8346456692913385
              },
              {
                  "duration": 0.11658037499999807,
                  "durationTicks": 3600,
                  "midi": 69,
                  "name": "A4",
                  "ticks": 1214400,
                  "time": 39.3264465,
                  "velocity": 0.7716535433070866
              },
              {
                  "duration": 0.11658037500000518,
                  "durationTicks": 3600,
                  "midi": 34,
                  "name": "A#1",
                  "ticks": 1219200,
                  "time": 39.481887,
                  "velocity": 0.9606299212598425
              },
              {
                  "duration": 0.07772024999999871,
                  "durationTicks": 2400,
                  "midi": 34,
                  "name": "A#1",
                  "ticks": 1224000,
                  "time": 39.637327500000005,
                  "velocity": 0.8503937007874016
              },
              {
                  "duration": 0.07772024999999871,
                  "durationTicks": 2400,
                  "midi": 67,
                  "name": "G4",
                  "ticks": 1224000,
                  "time": 39.637327500000005,
                  "velocity": 0.7716535433070866
              },
              {
                  "duration": 0.11658037500000518,
                  "durationTicks": 3600,
                  "midi": 36,
                  "name": "C2",
                  "ticks": 1233600,
                  "time": 39.9482085,
                  "velocity": 0.9606299212598425
              },
              {
                  "duration": 0.11658037500000518,
                  "durationTicks": 3600,
                  "midi": 69,
                  "name": "A4",
                  "ticks": 1233600,
                  "time": 39.9482085,
                  "velocity": 0.8661417322834646
              },
              {
                  "duration": 0.07772024999999871,
                  "durationTicks": 2400,
                  "midi": 67,
                  "name": "G4",
                  "ticks": 1238400,
                  "time": 40.103649000000004,
                  "velocity": 0.7322834645669292
              },
              {
                  "duration": 0.03886012499999936,
                  "durationTicks": 1200,
                  "midi": 36,
                  "name": "C2",
                  "ticks": 1243200,
                  "time": 40.2590895,
                  "velocity": 0.8503937007874016
              },
              {
                  "duration": 0.11658037499999807,
                  "durationTicks": 3600,
                  "midi": 65,
                  "name": "F4",
                  "ticks": 1243200,
                  "time": 40.2590895,
                  "velocity": 0.8031496062992126
              },
              {
                  "duration": 0.11658037500000518,
                  "durationTicks": 3600,
                  "midi": 36,
                  "name": "C2",
                  "ticks": 1248000,
                  "time": 40.41453,
                  "velocity": 0.9212598425196851
              },
              {
                  "duration": 0.03886012499999936,
                  "durationTicks": 1200,
                  "midi": 36,
                  "name": "C2",
                  "ticks": 1252800,
                  "time": 40.569970500000004,
                  "velocity": 0.8267716535433071
              },
              {
                  "duration": 0.11658037499999807,
                  "durationTicks": 3600,
                  "midi": 65,
                  "name": "F4",
                  "ticks": 1252800,
                  "time": 40.569970500000004,
                  "velocity": 0.7637795275590551
              },
              {
                  "duration": 0.11658037499999807,
                  "durationTicks": 3600,
                  "midi": 36,
                  "name": "C2",
                  "ticks": 1257600,
                  "time": 40.725411,
                  "velocity": 0.9606299212598425
              },
              {
                  "duration": 0.03886012499999936,
                  "durationTicks": 1200,
                  "midi": 62,
                  "name": "D4",
                  "ticks": 1257600,
                  "time": 40.725411,
                  "velocity": 0.8503937007874016
              },
              {
                  "duration": 0.11658037499999807,
                  "durationTicks": 3600,
                  "midi": 36,
                  "name": "C2",
                  "ticks": 1262400,
                  "time": 40.880851500000006,
                  "velocity": 0.8582677165354331
              },
              {
                  "duration": 0.11658037499999807,
                  "durationTicks": 3600,
                  "midi": 60,
                  "name": "C4",
                  "ticks": 1262400,
                  "time": 40.880851500000006,
                  "velocity": 0.7952755905511811
              },
              {
                  "duration": 0.11658037499999807,
                  "durationTicks": 3600,
                  "midi": 29,
                  "name": "F1",
                  "ticks": 1267200,
                  "time": 41.036292,
                  "velocity": 0.84251968503937
              },
              {
                  "duration": 0.11658037499999807,
                  "durationTicks": 3600,
                  "midi": 65,
                  "name": "F4",
                  "ticks": 1267200,
                  "time": 41.036292,
                  "velocity": 0.84251968503937
              },
              {
                  "duration": 0.11658037500000518,
                  "durationTicks": 3600,
                  "midi": 29,
                  "name": "F1",
                  "ticks": 1272000,
                  "time": 41.1917325,
                  "velocity": 0.9606299212598425
              },
              {
                  "duration": 0.03886012499999936,
                  "durationTicks": 1200,
                  "midi": 65,
                  "name": "F4",
                  "ticks": 1272000,
                  "time": 41.1917325,
                  "velocity": 0.9606299212598425
              },
              {
                  "duration": 0.07772024999999871,
                  "durationTicks": 2400,
                  "midi": 29,
                  "name": "F1",
                  "ticks": 1276800,
                  "time": 41.347173000000005,
                  "velocity": 0.8503937007874016
              },
              {
                  "duration": 0.03886012499999936,
                  "durationTicks": 1200,
                  "midi": 53,
                  "name": "F3",
                  "ticks": 1276800,
                  "time": 41.347173000000005,
                  "velocity": 0.84251968503937
              },
              {
                  "duration": 0.11658037499999807,
                  "durationTicks": 3600,
                  "midi": 41,
                  "name": "F2",
                  "ticks": 1281600,
                  "time": 41.5026135,
                  "velocity": 0.5590551181102362
              },
              {
                  "duration": 0.07772024999999871,
                  "durationTicks": 2400,
                  "midi": 53,
                  "name": "F3",
                  "ticks": 1281600,
                  "time": 41.5026135,
                  "velocity": 0.6929133858267716
              },
              {
                  "duration": 0.07772024999999871,
                  "durationTicks": 2400,
                  "midi": 60,
                  "name": "C4",
                  "ticks": 1281600,
                  "time": 41.5026135,
                  "velocity": 0.5669291338582677
              },
              {
                  "duration": 0.11658037500000518,
                  "durationTicks": 3600,
                  "midi": 41,
                  "name": "F2",
                  "ticks": 1286400,
                  "time": 41.658054,
                  "velocity": 0.6299212598425197
              },
              {
                  "duration": 0.11658037499999807,
                  "durationTicks": 3600,
                  "midi": 29,
                  "name": "F1",
                  "ticks": 1291200,
                  "time": 41.813494500000004,
                  "velocity": 0.8346456692913385
              },
              {
                  "duration": 0.11658037499999807,
                  "durationTicks": 3600,
                  "midi": 60,
                  "name": "C4",
                  "ticks": 1291200,
                  "time": 41.813494500000004,
                  "velocity": 0.7637795275590551
              },
              {
                  "duration": 0.03886012499999936,
                  "durationTicks": 1200,
                  "midi": 29,
                  "name": "F1",
                  "ticks": 1296000,
                  "time": 41.968935,
                  "velocity": 0.9606299212598425
              },
              {
                  "duration": 0.11658037500000518,
                  "durationTicks": 3600,
                  "midi": 29,
                  "name": "F1",
                  "ticks": 1300800,
                  "time": 42.1243755,
                  "velocity": 0.8582677165354331
              },
              {
                  "duration": 0.11658037500000518,
                  "durationTicks": 3600,
                  "midi": 65,
                  "name": "F4",
                  "ticks": 1300800,
                  "time": 42.1243755,
                  "velocity": 0.8188976377952756
              },
              {
                  "duration": 0.07772024999999871,
                  "durationTicks": 2400,
                  "midi": 74,
                  "name": "D5",
                  "ticks": 1305600,
                  "time": 42.279816000000004,
                  "velocity": 0.6377952755905512
              },
              {
                  "duration": 0.11658037499999807,
                  "durationTicks": 3600,
                  "midi": 29,
                  "name": "F1",
                  "ticks": 1310400,
                  "time": 42.4352565,
                  "velocity": 0.968503937007874
              },
              {
                  "duration": 0.03886012499999936,
                  "durationTicks": 1200,
                  "midi": 29,
                  "name": "F1",
                  "ticks": 1315200,
                  "time": 42.590697000000006,
                  "velocity": 0.8582677165354331
              },
              {
                  "duration": 0.07772024999999871,
                  "durationTicks": 2400,
                  "midi": 29,
                  "name": "F1",
                  "ticks": 1320000,
                  "time": 42.7461375,
                  "velocity": 0.8661417322834646
              },
              {
                  "duration": 0.11658037500000518,
                  "durationTicks": 3600,
                  "midi": 29,
                  "name": "F1",
                  "ticks": 1324800,
                  "time": 42.901578,
                  "velocity": 0.9212598425196851
              },
              {
                  "duration": 0.07772024999999871,
                  "durationTicks": 2400,
                  "midi": 74,
                  "name": "D5",
                  "ticks": 1324800,
                  "time": 42.901578,
                  "velocity": 0.84251968503937
              },
              {
                  "duration": 0.11658037499999807,
                  "durationTicks": 3600,
                  "midi": 48,
                  "name": "C3",
                  "ticks": 1329600,
                  "time": 43.057018500000005,
                  "velocity": 0.8188976377952756
              },
              {
                  "duration": 0.11658037499999807,
                  "durationTicks": 3600,
                  "midi": 50,
                  "name": "D3",
                  "ticks": 1334400,
                  "time": 43.212459,
                  "velocity": 0.9448818897637795
              },
              {
                  "duration": 0.11658037500000518,
                  "durationTicks": 3600,
                  "midi": 41,
                  "name": "F2",
                  "ticks": 1339200,
                  "time": 43.3678995,
                  "velocity": 0.6771653543307087
              },
              {
                  "duration": 0.11658037500000518,
                  "durationTicks": 3600,
                  "midi": 53,
                  "name": "F3",
                  "ticks": 1339200,
                  "time": 43.3678995,
                  "velocity": 0.84251968503937
              },
              {
                  "duration": 0.11658037499999807,
                  "durationTicks": 3600,
                  "midi": 26,
                  "name": "D1",
                  "ticks": 1344000,
                  "time": 43.523340000000005,
                  "velocity": 0.8188976377952756
              },
              {
                  "duration": 0.11658037499999807,
                  "durationTicks": 3600,
                  "midi": 65,
                  "name": "F4",
                  "ticks": 1344000,
                  "time": 43.523340000000005,
                  "velocity": 0.8110236220472441
              },
              {
                  "duration": 0.11658037499999807,
                  "durationTicks": 3600,
                  "midi": 26,
                  "name": "D1",
                  "ticks": 1348800,
                  "time": 43.6787805,
                  "velocity": 0.9448818897637795
              },
              {
                  "duration": 0.11658037499999807,
                  "durationTicks": 3600,
                  "midi": 38,
                  "name": "D2",
                  "ticks": 1348800,
                  "time": 43.6787805,
                  "velocity": 0.8188976377952756
              },
              {
                  "duration": 0.11658037499999807,
                  "durationTicks": 3600,
                  "midi": 65,
                  "name": "F4",
                  "ticks": 1348800,
                  "time": 43.6787805,
                  "velocity": 0.937007874015748
              },
              {
                  "duration": 0.03886012500000646,
                  "durationTicks": 1200,
                  "midi": 26,
                  "name": "D1",
                  "ticks": 1353600,
                  "time": 43.834221,
                  "velocity": 0.8346456692913385
              },
              {
                  "duration": 0.03886012500000646,
                  "durationTicks": 1200,
                  "midi": 38,
                  "name": "D2",
                  "ticks": 1353600,
                  "time": 43.834221,
                  "velocity": 0.7086614173228346
              },
              {
                  "duration": 0.03886012500000646,
                  "durationTicks": 1200,
                  "midi": 50,
                  "name": "D3",
                  "ticks": 1353600,
                  "time": 43.834221,
                  "velocity": 0.6692913385826772
              },
              {
                  "duration": 0.11658037500000518,
                  "durationTicks": 3600,
                  "midi": 57,
                  "name": "A3",
                  "ticks": 1353600,
                  "time": 43.834221,
                  "velocity": 0.5984251968503937
              },
              {
                  "duration": 0.11658037500000518,
                  "durationTicks": 3600,
                  "midi": 65,
                  "name": "F4",
                  "ticks": 1353600,
                  "time": 43.834221,
                  "velocity": 0.8267716535433071
              },
              {
                  "duration": 0.11658037499999807,
                  "durationTicks": 3600,
                  "midi": 38,
                  "name": "D2",
                  "ticks": 1358400,
                  "time": 43.989661500000004,
                  "velocity": 0.6929133858267716
              },
              {
                  "duration": 0.07772024999999871,
                  "durationTicks": 2400,
                  "midi": 57,
                  "name": "A3",
                  "ticks": 1358400,
                  "time": 43.989661500000004,
                  "velocity": 0.5984251968503937
              },
              {
                  "duration": 0.11658037499999807,
                  "durationTicks": 3600,
                  "midi": 66,
                  "name": "F#4",
                  "ticks": 1358400,
                  "time": 43.989661500000004,
                  "velocity": 0.5826771653543307
              },
              {
                  "duration": 0.11658037499999807,
                  "durationTicks": 3600,
                  "midi": 26,
                  "name": "D1",
                  "ticks": 1368000,
                  "time": 44.300542500000006,
                  "velocity": 0.8346456692913385
              },
              {
                  "duration": 0.11658037499999807,
                  "durationTicks": 3600,
                  "midi": 72,
                  "name": "C5",
                  "ticks": 1368000,
                  "time": 44.300542500000006,
                  "velocity": 0.7401574803149606
              },
              {
                  "duration": 0.03886012499999936,
                  "durationTicks": 1200,
                  "midi": 26,
                  "name": "D1",
                  "ticks": 1372800,
                  "time": 44.455983,
                  "velocity": 0.9606299212598425
              },
              {
                  "duration": 0.11658037499999807,
                  "durationTicks": 3600,
                  "midi": 65,
                  "name": "F4",
                  "ticks": 1372800,
                  "time": 44.455983,
                  "velocity": 0.8818897637795275
              },
              {
                  "duration": 0.11658037500000518,
                  "durationTicks": 3600,
                  "midi": 26,
                  "name": "D1",
                  "ticks": 1377600,
                  "time": 44.6114235,
                  "velocity": 0.8503937007874016
              },
              {
                  "duration": 0.11658037500000518,
                  "durationTicks": 3600,
                  "midi": 57,
                  "name": "A3",
                  "ticks": 1377600,
                  "time": 44.6114235,
                  "velocity": 0.6456692913385826
              },
              {
                  "duration": 0.11658037500000518,
                  "durationTicks": 3600,
                  "midi": 65,
                  "name": "F4",
                  "ticks": 1377600,
                  "time": 44.6114235,
                  "velocity": 0.7716535433070866
              },
              {
                  "duration": 0.11658037499999807,
                  "durationTicks": 3600,
                  "midi": 62,
                  "name": "D4",
                  "ticks": 1382400,
                  "time": 44.766864000000005,
                  "velocity": 0.6614173228346457
              },
              {
                  "duration": 0.11658037499999807,
                  "durationTicks": 3600,
                  "midi": 36,
                  "name": "C2",
                  "ticks": 1387200,
                  "time": 44.9223045,
                  "velocity": 0.9763779527559056
              },
              {
                  "duration": 0.03886012499999936,
                  "durationTicks": 1200,
                  "midi": 36,
                  "name": "C2",
                  "ticks": 1392000,
                  "time": 45.077745,
                  "velocity": 0.8661417322834646
              },
              {
                  "duration": 0.03886012499999936,
                  "durationTicks": 1200,
                  "midi": 36,
                  "name": "C2",
                  "ticks": 1396800,
                  "time": 45.233185500000005,
                  "velocity": 0.8582677165354331
              },
              {
                  "duration": 0.11658037499999807,
                  "durationTicks": 3600,
                  "midi": 36,
                  "name": "C2",
                  "ticks": 1401600,
                  "time": 45.388626,
                  "velocity": 0.9291338582677166
              },
              {
                  "duration": 0.07772025000000582,
                  "durationTicks": 2400,
                  "midi": 36,
                  "name": "C2",
                  "ticks": 1406400,
                  "time": 45.5440665,
                  "velocity": 0.6929133858267716
              },
              {
                  "duration": 0.07772025000000582,
                  "durationTicks": 2400,
                  "midi": 48,
                  "name": "C3",
                  "ticks": 1406400,
                  "time": 45.5440665,
                  "velocity": 0.7244094488188977
              },
              {
                  "duration": 0.07772025000000582,
                  "durationTicks": 2400,
                  "midi": 69,
                  "name": "A4",
                  "ticks": 1406400,
                  "time": 45.5440665,
                  "velocity": 0.7716535433070866
              },
              {
                  "duration": 0.11658037499999807,
                  "durationTicks": 3600,
                  "midi": 50,
                  "name": "D3",
                  "ticks": 1411200,
                  "time": 45.699507000000004,
                  "velocity": 0.8818897637795275
              },
              {
                  "duration": 0.11658037499999807,
                  "durationTicks": 3600,
                  "midi": 67,
                  "name": "G4",
                  "ticks": 1411200,
                  "time": 45.699507000000004,
                  "velocity": 0.9133858267716536
              },
              {
                  "duration": 0.11658037499999807,
                  "durationTicks": 3600,
                  "midi": 65,
                  "name": "F4",
                  "ticks": 1416000,
                  "time": 45.8549475,
                  "velocity": 0.8503937007874016
              },
              {
                  "duration": 0.03886012499999936,
                  "durationTicks": 1200,
                  "midi": 67,
                  "name": "G4",
                  "ticks": 1416000,
                  "time": 45.8549475,
                  "velocity": 0.8031496062992126
              },
              {
                  "duration": 0.11658037499999807,
                  "durationTicks": 3600,
                  "midi": 34,
                  "name": "A#1",
                  "ticks": 1420800,
                  "time": 46.010388000000006,
                  "velocity": 0.84251968503937
              },
              {
                  "duration": 0.11658037499999807,
                  "durationTicks": 3600,
                  "midi": 65,
                  "name": "F4",
                  "ticks": 1420800,
                  "time": 46.010388000000006,
                  "velocity": 0.7716535433070866
              },
              {
                  "duration": 0.11658037499999807,
                  "durationTicks": 3600,
                  "midi": 34,
                  "name": "A#1",
                  "ticks": 1425600,
                  "time": 46.1658285,
                  "velocity": 0.9606299212598425
              },
              {
                  "duration": 0.11658037499999807,
                  "durationTicks": 3600,
                  "midi": 62,
                  "name": "D4",
                  "ticks": 1425600,
                  "time": 46.1658285,
                  "velocity": 0.8740157480314961
              },
              {
                  "duration": 0.07772024999999871,
                  "durationTicks": 2400,
                  "midi": 34,
                  "name": "A#1",
                  "ticks": 1430400,
                  "time": 46.321269,
                  "velocity": 0.8503937007874016
              },
              {
                  "duration": 0.07772024999999871,
                  "durationTicks": 2400,
                  "midi": 62,
                  "name": "D4",
                  "ticks": 1430400,
                  "time": 46.321269,
                  "velocity": 0.7716535433070866
              },
              {
                  "duration": 0.07772024999999871,
                  "durationTicks": 2400,
                  "midi": 46,
                  "name": "A#2",
                  "ticks": 1435200,
                  "time": 46.476709500000005,
                  "velocity": 0.7244094488188977
              },
              {
                  "duration": 0.11658037500000518,
                  "durationTicks": 3600,
                  "midi": 34,
                  "name": "A#1",
                  "ticks": 1444800,
                  "time": 46.7875905,
                  "velocity": 0.8346456692913385
              },
              {
                  "duration": 0.07772025000000582,
                  "durationTicks": 2400,
                  "midi": 60,
                  "name": "C4",
                  "ticks": 1444800,
                  "time": 46.7875905,
                  "velocity": 0.7559055118110236
              },
              {
                  "duration": 0.03886012499999936,
                  "durationTicks": 1200,
                  "midi": 34,
                  "name": "A#1",
                  "ticks": 1449600,
                  "time": 46.943031000000005,
                  "velocity": 0.9606299212598425
              },
              {
                  "duration": 0.11658037499999807,
                  "durationTicks": 3600,
                  "midi": 34,
                  "name": "A#1",
                  "ticks": 1454400,
                  "time": 47.0984715,
                  "velocity": 0.8503937007874016
              },
              {
                  "duration": 0.11658037499999807,
                  "durationTicks": 3600,
                  "midi": 62,
                  "name": "D4",
                  "ticks": 1454400,
                  "time": 47.0984715,
                  "velocity": 0.7795275590551181
              },
              {
                  "duration": 0.11658037499999807,
                  "durationTicks": 3600,
                  "midi": 34,
                  "name": "A#1",
                  "ticks": 1464000,
                  "time": 47.409352500000004,
                  "velocity": 0.9763779527559056
              },
              {
                  "duration": 0.07772024999999871,
                  "durationTicks": 2400,
                  "midi": 34,
                  "name": "A#1",
                  "ticks": 1468800,
                  "time": 47.564793,
                  "velocity": 0.8661417322834646
              },
              {
                  "duration": 0.11658037499999807,
                  "durationTicks": 3600,
                  "midi": 46,
                  "name": "A#2",
                  "ticks": 1473600,
                  "time": 47.720233500000006,
                  "velocity": 0.7716535433070866
              },
              {
                  "duration": 0.11658037499999807,
                  "durationTicks": 3600,
                  "midi": 34,
                  "name": "A#1",
                  "ticks": 1478400,
                  "time": 47.875674000000004,
                  "velocity": 0.9133858267716536
              },
              {
                  "duration": 0.11658037499999807,
                  "durationTicks": 3600,
                  "midi": 60,
                  "name": "C4",
                  "ticks": 1478400,
                  "time": 47.875674000000004,
                  "velocity": 0.8031496062992126
              },
              {
                  "duration": 0.07772024999999871,
                  "durationTicks": 2400,
                  "midi": 46,
                  "name": "A#2",
                  "ticks": 1483200,
                  "time": 48.0311145,
                  "velocity": 0.7637795275590551
              },
              {
                  "duration": 0.03886012499999936,
                  "durationTicks": 1200,
                  "midi": 60,
                  "name": "C4",
                  "ticks": 1483200,
                  "time": 48.0311145,
                  "velocity": 0.7086614173228346
              },
              {
                  "duration": 0.07772024999999871,
                  "durationTicks": 2400,
                  "midi": 62,
                  "name": "D4",
                  "ticks": 1483200,
                  "time": 48.0311145,
                  "velocity": 0.7874015748031497
              },
              {
                  "duration": 0.03886012499999936,
                  "durationTicks": 1200,
                  "midi": 53,
                  "name": "F3",
                  "ticks": 1488000,
                  "time": 48.186555000000006,
                  "velocity": 0.7716535433070866
              },
              {
                  "duration": 0.11658037499999807,
                  "durationTicks": 3600,
                  "midi": 65,
                  "name": "F4",
                  "ticks": 1488000,
                  "time": 48.186555000000006,
                  "velocity": 0.9291338582677166
              },
              {
                  "duration": 0.11658037499999807,
                  "durationTicks": 3600,
                  "midi": 31,
                  "name": "G1",
                  "ticks": 1492800,
                  "time": 48.3419955,
                  "velocity": 0.8346456692913385
              },
              {
                  "duration": 0.07772024999999871,
                  "durationTicks": 2400,
                  "midi": 46,
                  "name": "A#2",
                  "ticks": 1492800,
                  "time": 48.3419955,
                  "velocity": 0.7559055118110236
              },
              {
                  "duration": 0.11658037499999807,
                  "durationTicks": 3600,
                  "midi": 53,
                  "name": "F3",
                  "ticks": 1492800,
                  "time": 48.3419955,
                  "velocity": 0.7086614173228346
              },
              {
                  "duration": 0.07772024999999871,
                  "durationTicks": 2400,
                  "midi": 67,
                  "name": "G4",
                  "ticks": 1492800,
                  "time": 48.3419955,
                  "velocity": 0.8346456692913385
              },
              {
                  "duration": 0.11658037500000518,
                  "durationTicks": 3600,
                  "midi": 31,
                  "name": "G1",
                  "ticks": 1497600,
                  "time": 48.497436,
                  "velocity": 0.8188976377952756
              },
              {
                  "duration": 0.11658037500000518,
                  "durationTicks": 3600,
                  "midi": 69,
                  "name": "A4",
                  "ticks": 1497600,
                  "time": 48.497436,
                  "velocity": 0.7086614173228346
              },
              {
                  "duration": 0.07772024999999871,
                  "durationTicks": 2400,
                  "midi": 31,
                  "name": "G1",
                  "ticks": 1502400,
                  "time": 48.652876500000005,
                  "velocity": 0.9448818897637795
              },
              {
                  "duration": 0.11658037499999807,
                  "durationTicks": 3600,
                  "midi": 72,
                  "name": "C5",
                  "ticks": 1502400,
                  "time": 48.652876500000005,
                  "velocity": 0.9448818897637795
              },
              {
                  "duration": 0.07772024999999871,
                  "durationTicks": 2400,
                  "midi": 74,
                  "name": "D5",
                  "ticks": 1507200,
                  "time": 48.808317,
                  "velocity": 0.84251968503937
              },
              {
                  "duration": 0.11658037500000518,
                  "durationTicks": 3600,
                  "midi": 33,
                  "name": "A1",
                  "ticks": 1512000,
                  "time": 48.9637575,
                  "velocity": 0.8503937007874016
              },
              {
                  "duration": 0.07772025000000582,
                  "durationTicks": 2400,
                  "midi": 72,
                  "name": "C5",
                  "ticks": 1512000,
                  "time": 48.9637575,
                  "velocity": 0.6692913385826772
              },
              {
                  "duration": 0.03886012499999936,
                  "durationTicks": 1200,
                  "midi": 33,
                  "name": "A1",
                  "ticks": 1516800,
                  "time": 49.119198000000004,
                  "velocity": 0.9291338582677166
              },
              {
                  "duration": 0.07772024999999871,
                  "durationTicks": 2400,
                  "midi": 69,
                  "name": "A4",
                  "ticks": 1521600,
                  "time": 49.2746385,
                  "velocity": 0.8267716535433071
              },
              {
                  "duration": 0.11658037499999807,
                  "durationTicks": 3600,
                  "midi": 34,
                  "name": "A#1",
                  "ticks": 1526400,
                  "time": 49.430079000000006,
                  "velocity": 0.937007874015748
              },
              {
                  "duration": 0.07772024999999871,
                  "durationTicks": 2400,
                  "midi": 34,
                  "name": "A#1",
                  "ticks": 1531200,
                  "time": 49.585519500000004,
                  "velocity": 0.8267716535433071
              },
              {
                  "duration": 0.11658037499999807,
                  "durationTicks": 3600,
                  "midi": 67,
                  "name": "G4",
                  "ticks": 1531200,
                  "time": 49.585519500000004,
                  "velocity": 0.7716535433070866
              },
              {
                  "duration": 0.11658037499999807,
                  "durationTicks": 3600,
                  "midi": 62,
                  "name": "D4",
                  "ticks": 1540800,
                  "time": 49.896400500000006,
                  "velocity": 0.9606299212598425
              },
              {
                  "duration": 0.11658037499999807,
                  "durationTicks": 3600,
                  "midi": 60,
                  "name": "C4",
                  "ticks": 1545600,
                  "time": 50.051841,
                  "velocity": 0.7716535433070866
              },
              {
                  "duration": 0.07772025000000582,
                  "durationTicks": 2400,
                  "midi": 57,
                  "name": "A3",
                  "ticks": 1550400,
                  "time": 50.2072815,
                  "velocity": 0.7795275590551181
              },
              {
                  "duration": 0.11658037499999807,
                  "durationTicks": 3600,
                  "midi": 55,
                  "name": "G3",
                  "ticks": 1555200,
                  "time": 50.362722000000005,
                  "velocity": 0.8976377952755905
              },
              {
                  "duration": 0.11658037499999807,
                  "durationTicks": 3600,
                  "midi": 53,
                  "name": "F3",
                  "ticks": 1560000,
                  "time": 50.5181625,
                  "velocity": 0.7637795275590551
              },
              {
                  "duration": 0.07772025000000582,
                  "durationTicks": 2400,
                  "midi": 50,
                  "name": "D3",
                  "ticks": 1564800,
                  "time": 50.673603,
                  "velocity": 0.9606299212598425
              },
              {
                  "duration": 0.11658037500000518,
                  "durationTicks": 3600,
                  "midi": 53,
                  "name": "F3",
                  "ticks": 1564800,
                  "time": 50.673603,
                  "velocity": 0.8976377952755905
              },
              {
                  "duration": 0.11658037499999807,
                  "durationTicks": 3600,
                  "midi": 48,
                  "name": "C3",
                  "ticks": 1569600,
                  "time": 50.829043500000004,
                  "velocity": 0.8503937007874016
              },
              {
                  "duration": 0.11658037499999807,
                  "durationTicks": 3600,
                  "midi": 53,
                  "name": "F3",
                  "ticks": 1569600,
                  "time": 50.829043500000004,
                  "velocity": 0.7874015748031497
              },
              {
                  "duration": 0.11658037499999807,
                  "durationTicks": 3600,
                  "midi": 29,
                  "name": "F1",
                  "ticks": 1574400,
                  "time": 50.984484,
                  "velocity": 0.8110236220472441
              },
              {
                  "duration": 0.07772024999999871,
                  "durationTicks": 2400,
                  "midi": 69,
                  "name": "A4",
                  "ticks": 1574400,
                  "time": 50.984484,
                  "velocity": 0.7244094488188977
              },
              {
                  "duration": 0.11658037499999807,
                  "durationTicks": 3600,
                  "midi": 29,
                  "name": "F1",
                  "ticks": 1579200,
                  "time": 51.139924500000006,
                  "velocity": 0.937007874015748
              },
              {
                  "duration": 0.03886012499999936,
                  "durationTicks": 1200,
                  "midi": 41,
                  "name": "F2",
                  "ticks": 1579200,
                  "time": 51.139924500000006,
                  "velocity": 0.7007874015748031
              },
              {
                  "duration": 0.11658037499999807,
                  "durationTicks": 3600,
                  "midi": 53,
                  "name": "F3",
                  "ticks": 1579200,
                  "time": 51.139924500000006,
                  "velocity": 0.8503937007874016
              },
              {
                  "duration": 0.03886012499999936,
                  "durationTicks": 1200,
                  "midi": 29,
                  "name": "F1",
                  "ticks": 1584000,
                  "time": 51.295365000000004,
                  "velocity": 0.8267716535433071
              },
              {
                  "duration": 0.03886012499999936,
                  "durationTicks": 1200,
                  "midi": 53,
                  "name": "F3",
                  "ticks": 1584000,
                  "time": 51.295365000000004,
                  "velocity": 0.7401574803149606
              },
              {
                  "duration": 0.07772024999999871,
                  "durationTicks": 2400,
                  "midi": 67,
                  "name": "G4",
                  "ticks": 1584000,
                  "time": 51.295365000000004,
                  "velocity": 0.7874015748031497
              },
              {
                  "duration": 0.07772024999999871,
                  "durationTicks": 2400,
                  "midi": 69,
                  "name": "A4",
                  "ticks": 1588800,
                  "time": 51.4508055,
                  "velocity": 0.7637795275590551
              },
              {
                  "duration": 0.11658037499999807,
                  "durationTicks": 3600,
                  "midi": 29,
                  "name": "F1",
                  "ticks": 1598400,
                  "time": 51.7616865,
                  "velocity": 0.8346456692913385
              },
              {
                  "duration": 0.11658037499999807,
                  "durationTicks": 3600,
                  "midi": 65,
                  "name": "F4",
                  "ticks": 1598400,
                  "time": 51.7616865,
                  "velocity": 0.7716535433070866
              },
              {
                  "duration": 0.03886012499999936,
                  "durationTicks": 1200,
                  "midi": 29,
                  "name": "F1",
                  "ticks": 1603200,
                  "time": 51.917127,
                  "velocity": 0.9606299212598425
              },
              {
                  "duration": 0.11658037499999807,
                  "durationTicks": 3600,
                  "midi": 34,
                  "name": "A#1",
                  "ticks": 1608000,
                  "time": 52.072567500000005,
                  "velocity": 0.8267716535433071
              },
              {
                  "duration": 0.11658037499999807,
                  "durationTicks": 3600,
                  "midi": 62,
                  "name": "D4",
                  "ticks": 1608000,
                  "time": 52.072567500000005,
                  "velocity": 0.6929133858267716
              },
              {
                  "duration": 0.07772025000000582,
                  "durationTicks": 2400,
                  "midi": 65,
                  "name": "F4",
                  "ticks": 1617600,
                  "time": 52.3834485,
                  "velocity": 0.9212598425196851
              },
              {
                  "duration": 0.07772024999999871,
                  "durationTicks": 2400,
                  "midi": 62,
                  "name": "D4",
                  "ticks": 1622400,
                  "time": 52.538889000000005,
                  "velocity": 0.8110236220472441
              },
              {
                  "duration": 0.11658037499999807,
                  "durationTicks": 3600,
                  "midi": 60,
                  "name": "C4",
                  "ticks": 1627200,
                  "time": 52.6943295,
                  "velocity": 0.8031496062992126
              },
              {
                  "duration": 0.07772024999999871,
                  "durationTicks": 2400,
                  "midi": 62,
                  "name": "D4",
                  "ticks": 1632000,
                  "time": 52.84977000000001,
                  "velocity": 0.8503937007874016
              },
              {
                  "duration": 0.07772024999999871,
                  "durationTicks": 2400,
                  "midi": 60,
                  "name": "C4",
                  "ticks": 1636800,
                  "time": 53.005210500000004,
                  "velocity": 0.7401574803149606
              },
              {
                  "duration": 0.07772024999999871,
                  "durationTicks": 2400,
                  "midi": 57,
                  "name": "A3",
                  "ticks": 1641600,
                  "time": 53.160651,
                  "velocity": 0.9448818897637795
              },
              {
                  "duration": 0.07772024999999871,
                  "durationTicks": 2400,
                  "midi": 55,
                  "name": "G3",
                  "ticks": 1646400,
                  "time": 53.316091500000006,
                  "velocity": 0.7716535433070866
              },
              {
                  "duration": 0.11658037499999807,
                  "durationTicks": 3600,
                  "midi": 31,
                  "name": "G1",
                  "ticks": 1651200,
                  "time": 53.471532,
                  "velocity": 0.8031496062992126
              },
              {
                  "duration": 0.07772024999999871,
                  "durationTicks": 2400,
                  "midi": 57,
                  "name": "A3",
                  "ticks": 1651200,
                  "time": 53.471532,
                  "velocity": 0.7559055118110236
              },
              {
                  "duration": 0.11658037500000518,
                  "durationTicks": 3600,
                  "midi": 31,
                  "name": "G1",
                  "ticks": 1656000,
                  "time": 53.6269725,
                  "velocity": 0.9212598425196851
              },
              {
                  "duration": 0.11658037500000518,
                  "durationTicks": 3600,
                  "midi": 60,
                  "name": "C4",
                  "ticks": 1656000,
                  "time": 53.6269725,
                  "velocity": 0.8661417322834646
              },
              {
                  "duration": 0.03886012499999936,
                  "durationTicks": 1200,
                  "midi": 31,
                  "name": "G1",
                  "ticks": 1660800,
                  "time": 53.782413000000005,
                  "velocity": 0.8110236220472441
              },
              {
                  "duration": 0.07772024999999871,
                  "durationTicks": 2400,
                  "midi": 62,
                  "name": "D4",
                  "ticks": 1660800,
                  "time": 53.782413000000005,
                  "velocity": 0.8267716535433071
              },
              {
                  "duration": 0.07772024999999871,
                  "durationTicks": 2400,
                  "midi": 60,
                  "name": "C4",
                  "ticks": 1665600,
                  "time": 53.9378535,
                  "velocity": 0.8188976377952756
              },
              {
                  "duration": 0.11658037499999807,
                  "durationTicks": 3600,
                  "midi": 31,
                  "name": "G1",
                  "ticks": 1675200,
                  "time": 54.248734500000005,
                  "velocity": 0.8267716535433071
              },
              {
                  "duration": 0.07772024999999871,
                  "durationTicks": 2400,
                  "midi": 57,
                  "name": "A3",
                  "ticks": 1675200,
                  "time": 54.248734500000005,
                  "velocity": 0.7401574803149606
              },
              {
                  "duration": 0.11658037499999807,
                  "durationTicks": 3600,
                  "midi": 24,
                  "name": "C1",
                  "ticks": 1684800,
                  "time": 54.55961550000001,
                  "velocity": 0.8582677165354331
              },
              {
                  "duration": 0.11658037499999807,
                  "durationTicks": 3600,
                  "midi": 48,
                  "name": "C3",
                  "ticks": 1684800,
                  "time": 54.55961550000001,
                  "velocity": 0.6377952755905512
              },
              {
                  "duration": 0.11658037499999807,
                  "durationTicks": 3600,
                  "midi": 55,
                  "name": "G3",
                  "ticks": 1684800,
                  "time": 54.55961550000001,
                  "velocity": 0.7244094488188977
              },
              {
                  "duration": 0.11658037499999807,
                  "durationTicks": 3600,
                  "midi": 24,
                  "name": "C1",
                  "ticks": 1689600,
                  "time": 54.715056000000004,
                  "velocity": 0.7637795275590551
              },
              {
                  "duration": 0.11658037499999807,
                  "durationTicks": 3600,
                  "midi": 48,
                  "name": "C3",
                  "ticks": 1689600,
                  "time": 54.715056000000004,
                  "velocity": 0.6299212598425197
              },
              {
                  "duration": 0.11658037500000518,
                  "durationTicks": 3600,
                  "midi": 24,
                  "name": "C1",
                  "ticks": 1694400,
                  "time": 54.8704965,
                  "velocity": 0.8818897637795275
              },
              {
                  "duration": 0.03886012499999936,
                  "durationTicks": 1200,
                  "midi": 48,
                  "name": "C3",
                  "ticks": 1694400,
                  "time": 54.8704965,
                  "velocity": 0.7401574803149606
              },
              {
                  "duration": 0.11658037500000518,
                  "durationTicks": 3600,
                  "midi": 57,
                  "name": "A3",
                  "ticks": 1694400,
                  "time": 54.8704965,
                  "velocity": 0.937007874015748
              },
              {
                  "duration": 0.03886012499999936,
                  "durationTicks": 1200,
                  "midi": 24,
                  "name": "C1",
                  "ticks": 1699200,
                  "time": 55.025937000000006,
                  "velocity": 0.7716535433070866
              },
              {
                  "duration": 0.11658037499999807,
                  "durationTicks": 3600,
                  "midi": 55,
                  "name": "G3",
                  "ticks": 1699200,
                  "time": 55.025937000000006,
                  "velocity": 0.8267716535433071
              },
              {
                  "duration": 0.07772024999999871,
                  "durationTicks": 2400,
                  "midi": 53,
                  "name": "F3",
                  "ticks": 1704000,
                  "time": 55.1813775,
                  "velocity": 0.8110236220472441
              },
              {
                  "duration": 0.07772025000000582,
                  "durationTicks": 2400,
                  "midi": 55,
                  "name": "G3",
                  "ticks": 1708800,
                  "time": 55.336818,
                  "velocity": 0.8740157480314961
              },
              {
                  "duration": 0.07772024999999871,
                  "durationTicks": 2400,
                  "midi": 53,
                  "name": "F3",
                  "ticks": 1713600,
                  "time": 55.492258500000005,
                  "velocity": 0.7874015748031497
              },
              {
                  "duration": 0.11658037499999807,
                  "durationTicks": 3600,
                  "midi": 50,
                  "name": "D3",
                  "ticks": 1718400,
                  "time": 55.647699,
                  "velocity": 0.9448818897637795
              },
              {
                  "duration": 0.11658037500000518,
                  "durationTicks": 3600,
                  "midi": 48,
                  "name": "C3",
                  "ticks": 1723200,
                  "time": 55.8031395,
                  "velocity": 0.8346456692913385
              },
              {
                  "duration": 0.11658037499999807,
                  "durationTicks": 3600,
                  "midi": 26,
                  "name": "D1",
                  "ticks": 1728000,
                  "time": 55.958580000000005,
                  "velocity": 0.8031496062992126
              },
              {
                  "duration": 0.07772024999999871,
                  "durationTicks": 2400,
                  "midi": 69,
                  "name": "A4",
                  "ticks": 1728000,
                  "time": 55.958580000000005,
                  "velocity": 0.6614173228346457
              },
              {
                  "duration": 0.11658037499999807,
                  "durationTicks": 3600,
                  "midi": 26,
                  "name": "D1",
                  "ticks": 1732800,
                  "time": 56.1140205,
                  "velocity": 0.9212598425196851
              },
              {
                  "duration": 0.07772024999999871,
                  "durationTicks": 2400,
                  "midi": 72,
                  "name": "C5",
                  "ticks": 1732800,
                  "time": 56.1140205,
                  "velocity": 0.8976377952755905
              },
              {
                  "duration": 0.07772024999999871,
                  "durationTicks": 2400,
                  "midi": 26,
                  "name": "D1",
                  "ticks": 1737600,
                  "time": 56.26946100000001,
                  "velocity": 0.8110236220472441
              },
              {
                  "duration": 0.07772024999999871,
                  "durationTicks": 2400,
                  "midi": 74,
                  "name": "D5",
                  "ticks": 1737600,
                  "time": 56.26946100000001,
                  "velocity": 0.7559055118110236
              },
              {
                  "duration": 0.07772024999999871,
                  "durationTicks": 2400,
                  "midi": 72,
                  "name": "C5",
                  "ticks": 1742400,
                  "time": 56.424901500000004,
                  "velocity": 0.8267716535433071
              },
              {
                  "duration": 0.11658037499999807,
                  "durationTicks": 3600,
                  "midi": 26,
                  "name": "D1",
                  "ticks": 1752000,
                  "time": 56.735782500000006,
                  "velocity": 0.8267716535433071
              },
              {
                  "duration": 0.07772024999999871,
                  "durationTicks": 2400,
                  "midi": 69,
                  "name": "A4",
                  "ticks": 1752000,
                  "time": 56.735782500000006,
                  "velocity": 0.7716535433070866
              },
              {
                  "duration": 0.03886012499999936,
                  "durationTicks": 1200,
                  "midi": 26,
                  "name": "D1",
                  "ticks": 1756800,
                  "time": 56.891223000000004,
                  "velocity": 0.9606299212598425
              },
              {
                  "duration": 0.11658037500000518,
                  "durationTicks": 3600,
                  "midi": 34,
                  "name": "A#1",
                  "ticks": 1761600,
                  "time": 57.0466635,
                  "velocity": 0.8031496062992126
              },
              {
                  "duration": 0.11658037500000518,
                  "durationTicks": 3600,
                  "midi": 67,
                  "name": "G4",
                  "ticks": 1761600,
                  "time": 57.0466635,
                  "velocity": 0.7795275590551181
              },
              {
                  "duration": 0.11658037499999807,
                  "durationTicks": 3600,
                  "midi": 53,
                  "name": "F3",
                  "ticks": 1766400,
                  "time": 57.202104000000006,
                  "velocity": 0.6141732283464567
              },
              {
                  "duration": 0.11658037499999807,
                  "durationTicks": 3600,
                  "midi": 62,
                  "name": "D4",
                  "ticks": 1766400,
                  "time": 57.202104000000006,
                  "velocity": 0.6062992125984252
              },
              {
                  "duration": 0.11658037499999807,
                  "durationTicks": 3600,
                  "midi": 53,
                  "name": "F3",
                  "ticks": 1771200,
                  "time": 57.3575445,
                  "velocity": 0.7322834645669292
              },
              {
                  "duration": 0.07772024999999871,
                  "durationTicks": 2400,
                  "midi": 69,
                  "name": "A4",
                  "ticks": 1771200,
                  "time": 57.3575445,
                  "velocity": 0.8661417322834646
              },
              {
                  "duration": 0.03886012500000646,
                  "durationTicks": 1200,
                  "midi": 53,
                  "name": "F3",
                  "ticks": 1776000,
                  "time": 57.512985,
                  "velocity": 0.6299212598425197
              },
              {
                  "duration": 0.07772025000000582,
                  "durationTicks": 2400,
                  "midi": 67,
                  "name": "G4",
                  "ticks": 1776000,
                  "time": 57.512985,
                  "velocity": 0.8031496062992126
              },
              {
                  "duration": 0.07772024999999871,
                  "durationTicks": 2400,
                  "midi": 65,
                  "name": "F4",
                  "ticks": 1780800,
                  "time": 57.668425500000005,
                  "velocity": 0.8110236220472441
              },
              {
                  "duration": 0.07772024999999871,
                  "durationTicks": 2400,
                  "midi": 67,
                  "name": "G4",
                  "ticks": 1785600,
                  "time": 57.823866,
                  "velocity": 0.8740157480314961
              },
              {
                  "duration": 0.07772024999999871,
                  "durationTicks": 2400,
                  "midi": 65,
                  "name": "F4",
                  "ticks": 1790400,
                  "time": 57.97930650000001,
                  "velocity": 0.7559055118110236
              },
              {
                  "duration": 0.07772024999999871,
                  "durationTicks": 2400,
                  "midi": 62,
                  "name": "D4",
                  "ticks": 1795200,
                  "time": 58.134747000000004,
                  "velocity": 0.9448818897637795
              },
              {
                  "duration": 0.07772024999999871,
                  "durationTicks": 2400,
                  "midi": 60,
                  "name": "C4",
                  "ticks": 1800000,
                  "time": 58.2901875,
                  "velocity": 0.8346456692913385
              },
              {
                  "duration": 0.11658037499999807,
                  "durationTicks": 3600,
                  "midi": 31,
                  "name": "G1",
                  "ticks": 1804800,
                  "time": 58.445628000000006,
                  "velocity": 0.8267716535433071
              },
              {
                  "duration": 0.07772024999999871,
                  "durationTicks": 2400,
                  "midi": 62,
                  "name": "D4",
                  "ticks": 1804800,
                  "time": 58.445628000000006,
                  "velocity": 0.7401574803149606
              },
              {
                  "duration": 0.11658037499999807,
                  "durationTicks": 3600,
                  "midi": 62,
                  "name": "D4",
                  "ticks": 1804800,
                  "time": 58.445628000000006,
                  "velocity": 0.7559055118110236
              },
              {
                  "duration": 0.11658037499999807,
                  "durationTicks": 3600,
                  "midi": 31,
                  "name": "G1",
                  "ticks": 1809600,
                  "time": 58.601068500000004,
                  "velocity": 0.9448818897637795
              },
              {
                  "duration": 0.11658037499999807,
                  "durationTicks": 3600,
                  "midi": 65,
                  "name": "F4",
                  "ticks": 1809600,
                  "time": 58.601068500000004,
                  "velocity": 0.8661417322834646
              },
              {
                  "duration": 0.03886012499999936,
                  "durationTicks": 1200,
                  "midi": 31,
                  "name": "G1",
                  "ticks": 1814400,
                  "time": 58.756509,
                  "velocity": 0.8346456692913385
              },
              {
                  "duration": 0.07772025000000582,
                  "durationTicks": 2400,
                  "midi": 67,
                  "name": "G4",
                  "ticks": 1814400,
                  "time": 58.756509,
                  "velocity": 0.8503937007874016
              },
              {
                  "duration": 0.11658037499999807,
                  "durationTicks": 3600,
                  "midi": 33,
                  "name": "A1",
                  "ticks": 1819200,
                  "time": 58.911949500000006,
                  "velocity": 0.8503937007874016
              },
              {
                  "duration": 0.11658037499999807,
                  "durationTicks": 3600,
                  "midi": 65,
                  "name": "F4",
                  "ticks": 1819200,
                  "time": 58.911949500000006,
                  "velocity": 0.7559055118110236
              },
              {
                  "duration": 0.11658037499999807,
                  "durationTicks": 3600,
                  "midi": 33,
                  "name": "A1",
                  "ticks": 1824000,
                  "time": 59.06739,
                  "velocity": 0.9291338582677166
              },
              {
                  "duration": 0.03886012500000646,
                  "durationTicks": 1200,
                  "midi": 33,
                  "name": "A1",
                  "ticks": 1828800,
                  "time": 59.2228305,
                  "velocity": 0.8267716535433071
              },
              {
                  "duration": 0.07772025000000582,
                  "durationTicks": 2400,
                  "midi": 67,
                  "name": "G4",
                  "ticks": 1828800,
                  "time": 59.2228305,
                  "velocity": 0.8267716535433071
              },
              {
                  "duration": 0.11658037499999807,
                  "durationTicks": 3600,
                  "midi": 34,
                  "name": "A#1",
                  "ticks": 1833600,
                  "time": 59.378271000000005,
                  "velocity": 0.9448818897637795
              },
              {
                  "duration": 0.11658037499999807,
                  "durationTicks": 3600,
                  "midi": 72,
                  "name": "C5",
                  "ticks": 1833600,
                  "time": 59.378271000000005,
                  "velocity": 0.889763779527559
              },
              {
                  "duration": 0.11658037499999807,
                  "durationTicks": 3600,
                  "midi": 69,
                  "name": "A4",
                  "ticks": 1833600,
                  "time": 59.378271000000005,
                  "velocity": 0.8503937007874016
              },
              {
                  "duration": 0.11658037499999807,
                  "durationTicks": 3600,
                  "midi": 34,
                  "name": "A#1",
                  "ticks": 1838400,
                  "time": 59.5337115,
                  "velocity": 0.84251968503937
              },
              {
                  "duration": 0.11658037499999807,
                  "durationTicks": 3600,
                  "midi": 72,
                  "name": "C5",
                  "ticks": 1838400,
                  "time": 59.5337115,
                  "velocity": 0.7874015748031497
              },
              {
                  "duration": 0.07772024999999871,
                  "durationTicks": 2400,
                  "midi": 74,
                  "name": "D5",
                  "ticks": 1848000,
                  "time": 59.844592500000005,
                  "velocity": 0.9212598425196851
              },
              {
                  "duration": 0.11658037499999807,
                  "durationTicks": 3600,
                  "midi": 72,
                  "name": "C5",
                  "ticks": 1852800,
                  "time": 60.000033,
                  "velocity": 0.7874015748031497
              },
              {
                  "duration": 0.07772024999999871,
                  "durationTicks": 2400,
                  "midi": 69,
                  "name": "A4",
                  "ticks": 1857600,
                  "time": 60.15547350000001,
                  "velocity": 0.7559055118110236
              },
              {
                  "duration": 0.07772024999999871,
                  "durationTicks": 2400,
                  "midi": 67,
                  "name": "G4",
                  "ticks": 1862400,
                  "time": 60.310914000000004,
                  "velocity": 0.8976377952755905
              },
              {
                  "duration": 0.07772024999999871,
                  "durationTicks": 2400,
                  "midi": 65,
                  "name": "F4",
                  "ticks": 1867200,
                  "time": 60.4663545,
                  "velocity": 0.7874015748031497
              },
              {
                  "duration": 0.07772024999999871,
                  "durationTicks": 2400,
                  "midi": 62,
                  "name": "D4",
                  "ticks": 1872000,
                  "time": 60.621795000000006,
                  "velocity": 0.9606299212598425
              },
              {
                  "duration": 0.11658037499999807,
                  "durationTicks": 3600,
                  "midi": 60,
                  "name": "C4",
                  "ticks": 1876800,
                  "time": 60.7772355,
                  "velocity": 0.8031496062992126
              },
              {
                  "duration": 0.11658037500000518,
                  "durationTicks": 3600,
                  "midi": 29,
                  "name": "F1",
                  "ticks": 1881600,
                  "time": 60.932676,
                  "velocity": 0.84251968503937
              },
              {
                  "duration": 0.11658037500000518,
                  "durationTicks": 3600,
                  "midi": 65,
                  "name": "F4",
                  "ticks": 1881600,
                  "time": 60.932676,
                  "velocity": 0.7401574803149606
              },
              {
                  "duration": 0.11658037499999807,
                  "durationTicks": 3600,
                  "midi": 29,
                  "name": "F1",
                  "ticks": 1886400,
                  "time": 61.088116500000005,
                  "velocity": 0.9606299212598425
              },
              {
                  "duration": 0.11658037499999807,
                  "durationTicks": 3600,
                  "midi": 65,
                  "name": "F4",
                  "ticks": 1886400,
                  "time": 61.088116500000005,
                  "velocity": 0.8661417322834646
              },
              {
                  "duration": 0.03886012499999936,
                  "durationTicks": 1200,
                  "midi": 29,
                  "name": "F1",
                  "ticks": 1891200,
                  "time": 61.243557,
                  "velocity": 0.8503937007874016
              },
              {
                  "duration": 0.07772024999999871,
                  "durationTicks": 2400,
                  "midi": 65,
                  "name": "F4",
                  "ticks": 1891200,
                  "time": 61.243557,
                  "velocity": 0.7559055118110236
              },
              {
                  "duration": 0.07772024999999871,
                  "durationTicks": 2400,
                  "midi": 67,
                  "name": "G4",
                  "ticks": 1891200,
                  "time": 61.243557,
                  "velocity": 0.8346456692913385
              },
              {
                  "duration": 0.11658037500000518,
                  "durationTicks": 3600,
                  "midi": 29,
                  "name": "F1",
                  "ticks": 1896000,
                  "time": 61.3989975,
                  "velocity": 0.8503937007874016
              },
              {
                  "duration": 0.11658037499999807,
                  "durationTicks": 3600,
                  "midi": 29,
                  "name": "F1",
                  "ticks": 1900800,
                  "time": 61.554438000000005,
                  "velocity": 0.9291338582677166
              },
              {
                  "duration": 0.03886012499999936,
                  "durationTicks": 1200,
                  "midi": 29,
                  "name": "F1",
                  "ticks": 1905600,
                  "time": 61.7098785,
                  "velocity": 0.8267716535433071
              },
              {
                  "duration": 0.03886012499999936,
                  "durationTicks": 1200,
                  "midi": 65,
                  "name": "F4",
                  "ticks": 1905600,
                  "time": 61.7098785,
                  "velocity": 0.8267716535433071
              },
              {
                  "duration": 0.11658037499999807,
                  "durationTicks": 3600,
                  "midi": 29,
                  "name": "F1",
                  "ticks": 1910400,
                  "time": 61.86531900000001,
                  "velocity": 0.9606299212598425
              },
              {
                  "duration": 0.07772024999999871,
                  "durationTicks": 2400,
                  "midi": 65,
                  "name": "F4",
                  "ticks": 1910400,
                  "time": 61.86531900000001,
                  "velocity": 0.8188976377952756
              },
              {
                  "duration": 0.11658037499999807,
                  "durationTicks": 3600,
                  "midi": 29,
                  "name": "F1",
                  "ticks": 1915200,
                  "time": 62.020759500000004,
                  "velocity": 0.8503937007874016
              },
              {
                  "duration": 0.07772024999999871,
                  "durationTicks": 2400,
                  "midi": 74,
                  "name": "D5",
                  "ticks": 1915200,
                  "time": 62.020759500000004,
                  "velocity": 0.8267716535433071
              },
              {
                  "duration": 0.11658037500000518,
                  "durationTicks": 3600,
                  "midi": 34,
                  "name": "A#1",
                  "ticks": 1920000,
                  "time": 62.1762,
                  "velocity": 0.8346456692913385
              },
              {
                  "duration": 0.11658037499999807,
                  "durationTicks": 3600,
                  "midi": 34,
                  "name": "A#1",
                  "ticks": 1924800,
                  "time": 62.331640500000006,
                  "velocity": 0.952755905511811
              },
              {
                  "duration": 0.11658037499999807,
                  "durationTicks": 3600,
                  "midi": 65,
                  "name": "F4",
                  "ticks": 1924800,
                  "time": 62.331640500000006,
                  "velocity": 0.9448818897637795
              },
              {
                  "duration": 0.03886012499999936,
                  "durationTicks": 1200,
                  "midi": 34,
                  "name": "A#1",
                  "ticks": 1929600,
                  "time": 62.487081,
                  "velocity": 0.84251968503937
              },
              {
                  "duration": 0.07772024999999871,
                  "durationTicks": 2400,
                  "midi": 74,
                  "name": "D5",
                  "ticks": 1929600,
                  "time": 62.487081,
                  "velocity": 0.8110236220472441
              },
              {
                  "duration": 0.11658037500000518,
                  "durationTicks": 3600,
                  "midi": 34,
                  "name": "A#1",
                  "ticks": 1934400,
                  "time": 62.6425215,
                  "velocity": 0.8346456692913385
              },
              {
                  "duration": 0.07772025000000582,
                  "durationTicks": 2400,
                  "midi": 72,
                  "name": "C5",
                  "ticks": 1934400,
                  "time": 62.6425215,
                  "velocity": 0.7401574803149606
              },
              {
                  "duration": 0.11658037499999807,
                  "durationTicks": 3600,
                  "midi": 34,
                  "name": "A#1",
                  "ticks": 1939200,
                  "time": 62.797962000000005,
                  "velocity": 0.9133858267716536
              },
              {
                  "duration": 0.11658037499999807,
                  "durationTicks": 3600,
                  "midi": 74,
                  "name": "D5",
                  "ticks": 1939200,
                  "time": 62.797962000000005,
                  "velocity": 0.8582677165354331
              },
              {
                  "duration": 0.07772024999999871,
                  "durationTicks": 2400,
                  "midi": 72,
                  "name": "C5",
                  "ticks": 1944000,
                  "time": 62.9534025,
                  "velocity": 0.7874015748031497
              },
              {
                  "duration": 0.11658037500000518,
                  "durationTicks": 3600,
                  "midi": 34,
                  "name": "A#1",
                  "ticks": 1948800,
                  "time": 63.108843,
                  "velocity": 0.9606299212598425
              },
              {
                  "duration": 0.07772025000000582,
                  "durationTicks": 2400,
                  "midi": 69,
                  "name": "A4",
                  "ticks": 1948800,
                  "time": 63.108843,
                  "velocity": 0.889763779527559
              },
              {
                  "duration": 0.11658037499999807,
                  "durationTicks": 3600,
                  "midi": 34,
                  "name": "A#1",
                  "ticks": 1953600,
                  "time": 63.264283500000005,
                  "velocity": 0.8503937007874016
              },
              {
                  "duration": 0.11658037499999807,
                  "durationTicks": 3600,
                  "midi": 67,
                  "name": "G4",
                  "ticks": 1953600,
                  "time": 63.264283500000005,
                  "velocity": 0.8188976377952756
              },
              {
                  "duration": 0.11658037499999807,
                  "durationTicks": 3600,
                  "midi": 31,
                  "name": "G1",
                  "ticks": 1958400,
                  "time": 63.419724,
                  "velocity": 0.8031496062992126
              },
              {
                  "duration": 0.11658037499999807,
                  "durationTicks": 3600,
                  "midi": 69,
                  "name": "A4",
                  "ticks": 1958400,
                  "time": 63.419724,
                  "velocity": 0.8031496062992126
              },
              {
                  "duration": 0.11658037499999807,
                  "durationTicks": 3600,
                  "midi": 31,
                  "name": "G1",
                  "ticks": 1963200,
                  "time": 63.57516450000001,
                  "velocity": 0.9291338582677166
              },
              {
                  "duration": 0.11658037499999807,
                  "durationTicks": 3600,
                  "midi": 43,
                  "name": "G2",
                  "ticks": 1963200,
                  "time": 63.57516450000001,
                  "velocity": 0.7244094488188977
              },
              {
                  "duration": 0.07772024999999871,
                  "durationTicks": 2400,
                  "midi": 72,
                  "name": "C5",
                  "ticks": 1963200,
                  "time": 63.57516450000001,
                  "velocity": 0.8818897637795275
              },
              {
                  "duration": 0.03886012499999936,
                  "durationTicks": 1200,
                  "midi": 31,
                  "name": "G1",
                  "ticks": 1968000,
                  "time": 63.730605000000004,
                  "velocity": 0.8188976377952756
              },
              {
                  "duration": 0.07772024999999871,
                  "durationTicks": 2400,
                  "midi": 43,
                  "name": "G2",
                  "ticks": 1968000,
                  "time": 63.730605000000004,
                  "velocity": 0.6220472440944882
              },
              {
                  "duration": 0.07772024999999871,
                  "durationTicks": 2400,
                  "midi": 74,
                  "name": "D5",
                  "ticks": 1968000,
                  "time": 63.730605000000004,
                  "velocity": 0.8503937007874016
              },
              {
                  "duration": 0.11658037500000518,
                  "durationTicks": 3600,
                  "midi": 31,
                  "name": "G1",
                  "ticks": 1972800,
                  "time": 63.8860455,
                  "velocity": 0.84251968503937
              },
              {
                  "duration": 0.07772024999999871,
                  "durationTicks": 2400,
                  "midi": 72,
                  "name": "C5",
                  "ticks": 1972800,
                  "time": 63.8860455,
                  "velocity": 0.7795275590551181
              },
              {
                  "duration": 0.11658037499999807,
                  "durationTicks": 3600,
                  "midi": 31,
                  "name": "G1",
                  "ticks": 1977600,
                  "time": 64.041486,
                  "velocity": 0.9133858267716536
              },
              {
                  "duration": 0.03886012499999936,
                  "durationTicks": 1200,
                  "midi": 31,
                  "name": "G1",
                  "ticks": 1982400,
                  "time": 64.1969265,
                  "velocity": 0.8188976377952756
              },
              {
                  "duration": 0.07772024999999871,
                  "durationTicks": 2400,
                  "midi": 69,
                  "name": "A4",
                  "ticks": 1982400,
                  "time": 64.1969265,
                  "velocity": 0.7165354330708661
              },
              {
                  "duration": 0.11658037499999807,
                  "durationTicks": 3600,
                  "midi": 31,
                  "name": "G1",
                  "ticks": 1987200,
                  "time": 64.352367,
                  "velocity": 0.9606299212598425
              },
              {
                  "duration": 0.11658037500001228,
                  "durationTicks": 3600,
                  "midi": 31,
                  "name": "G1",
                  "ticks": 1992000,
                  "time": 64.5078075,
                  "velocity": 0.8503937007874016
              },
              {
                  "duration": 0.07772024999999871,
                  "durationTicks": 2400,
                  "midi": 43,
                  "name": "G2",
                  "ticks": 1992000,
                  "time": 64.5078075,
                  "velocity": 0.7086614173228346
              },
              {
                  "duration": 0.07772024999999871,
                  "durationTicks": 2400,
                  "midi": 67,
                  "name": "G4",
                  "ticks": 1992000,
                  "time": 64.5078075,
                  "velocity": 0.7480314960629921
              },
              {
                  "duration": 0.11658037499999807,
                  "durationTicks": 3600,
                  "midi": 36,
                  "name": "C2",
                  "ticks": 1996800,
                  "time": 64.66324800000001,
                  "velocity": 0.8031496062992126
              },
              {
                  "duration": 0.11658037499999807,
                  "durationTicks": 3600,
                  "midi": 36,
                  "name": "C2",
                  "ticks": 2001600,
                  "time": 64.81868850000001,
                  "velocity": 0.9212598425196851
              },
              {
                  "duration": 0.07772024999999871,
                  "durationTicks": 2400,
                  "midi": 69,
                  "name": "A4",
                  "ticks": 2001600,
                  "time": 64.81868850000001,
                  "velocity": 0.8976377952755905
              },
              {
                  "duration": 0.03886012499999936,
                  "durationTicks": 1200,
                  "midi": 36,
                  "name": "C2",
                  "ticks": 2006400,
                  "time": 64.974129,
                  "velocity": 0.8110236220472441
              },
              {
                  "duration": 0.07772024999999871,
                  "durationTicks": 2400,
                  "midi": 67,
                  "name": "G4",
                  "ticks": 2006400,
                  "time": 64.974129,
                  "velocity": 0.8110236220472441
              },
              {
                  "duration": 0.11658037499999807,
                  "durationTicks": 3600,
                  "midi": 36,
                  "name": "C2",
                  "ticks": 2011200,
                  "time": 65.1295695,
                  "velocity": 0.8188976377952756
              },
              {
                  "duration": 0.07772024999999871,
                  "durationTicks": 2400,
                  "midi": 65,
                  "name": "F4",
                  "ticks": 2011200,
                  "time": 65.1295695,
                  "velocity": 0.7795275590551181
              },
              {
                  "duration": 0.11658037499999807,
                  "durationTicks": 3600,
                  "midi": 36,
                  "name": "C2",
                  "ticks": 2016000,
                  "time": 65.28501,
                  "velocity": 0.8976377952755905
              },
              {
                  "duration": 0.11658037499999807,
                  "durationTicks": 3600,
                  "midi": 67,
                  "name": "G4",
                  "ticks": 2016000,
                  "time": 65.28501,
                  "velocity": 0.8346456692913385
              },
              {
                  "duration": 0.03886012500001357,
                  "durationTicks": 1200,
                  "midi": 36,
                  "name": "C2",
                  "ticks": 2020800,
                  "time": 65.4404505,
                  "velocity": 0.8031496062992126
              },
              {
                  "duration": 0.07772025000001292,
                  "durationTicks": 2400,
                  "midi": 65,
                  "name": "F4",
                  "ticks": 2020800,
                  "time": 65.4404505,
                  "velocity": 0.8031496062992126
              },
              {
                  "duration": 0.11658037499999807,
                  "durationTicks": 3600,
                  "midi": 38,
                  "name": "D2",
                  "ticks": 2025600,
                  "time": 65.59589100000001,
                  "velocity": 0.9291338582677166
              },
              {
                  "duration": 0.07772024999999871,
                  "durationTicks": 2400,
                  "midi": 50,
                  "name": "D3",
                  "ticks": 2025600,
                  "time": 65.59589100000001,
                  "velocity": 0.8818897637795275
              },
              {
                  "duration": 0.11658037499999807,
                  "durationTicks": 3600,
                  "midi": 40,
                  "name": "E2",
                  "ticks": 2030400,
                  "time": 65.7513315,
                  "velocity": 0.8267716535433071
              },
              {
                  "duration": 0.07772024999999871,
                  "durationTicks": 2400,
                  "midi": 60,
                  "name": "C4",
                  "ticks": 2030400,
                  "time": 65.7513315,
                  "velocity": 0.7559055118110236
              },
              {
                  "duration": 0.11658037499999807,
                  "durationTicks": 3600,
                  "midi": 29,
                  "name": "F1",
                  "ticks": 2035200,
                  "time": 65.906772,
                  "velocity": 0.8346456692913385
              },
              {
                  "duration": 0.11658037499999807,
                  "durationTicks": 3600,
                  "midi": 29,
                  "name": "F1",
                  "ticks": 2040000,
                  "time": 66.0622125,
                  "velocity": 0.9606299212598425
              },
              {
                  "duration": 0.03886012499999936,
                  "durationTicks": 1200,
                  "midi": 84,
                  "name": "C6",
                  "ticks": 2040000,
                  "time": 66.0622125,
                  "velocity": 0.8661417322834646
              },
              {
                  "duration": 0.03886012499999936,
                  "durationTicks": 1200,
                  "midi": 29,
                  "name": "F1",
                  "ticks": 2044800,
                  "time": 66.217653,
                  "velocity": 0.8503937007874016
              },
              {
                  "duration": 0.07772024999999871,
                  "durationTicks": 2400,
                  "midi": 74,
                  "name": "D5",
                  "ticks": 2044800,
                  "time": 66.217653,
                  "velocity": 0.6456692913385826
              },
              {
                  "duration": 0.07772024999999871,
                  "durationTicks": 2400,
                  "midi": 86,
                  "name": "D6",
                  "ticks": 2044800,
                  "time": 66.217653,
                  "velocity": 0.7637795275590551
              },
              {
                  "duration": 0.11658037499999807,
                  "durationTicks": 3600,
                  "midi": 29,
                  "name": "F1",
                  "ticks": 2049600,
                  "time": 66.37309350000001,
                  "velocity": 0.84251968503937
              },
              {
                  "duration": 0.11658037499999807,
                  "durationTicks": 3600,
                  "midi": 65,
                  "name": "F4",
                  "ticks": 2049600,
                  "time": 66.37309350000001,
                  "velocity": 0.7637795275590551
              },
              {
                  "duration": 0.11658037499999807,
                  "durationTicks": 3600,
                  "midi": 29,
                  "name": "F1",
                  "ticks": 2054400,
                  "time": 66.52853400000001,
                  "velocity": 0.9133858267716536
              },
              {
                  "duration": 0.11658037499999807,
                  "durationTicks": 3600,
                  "midi": 65,
                  "name": "F4",
                  "ticks": 2054400,
                  "time": 66.52853400000001,
                  "velocity": 0.8346456692913385
              },
              {
                  "duration": 0.03886012499999936,
                  "durationTicks": 1200,
                  "midi": 29,
                  "name": "F1",
                  "ticks": 2059200,
                  "time": 66.6839745,
                  "velocity": 0.8188976377952756
              },
              {
                  "duration": 0.07772024999999871,
                  "durationTicks": 2400,
                  "midi": 81,
                  "name": "A5",
                  "ticks": 2059200,
                  "time": 66.6839745,
                  "velocity": 0.8110236220472441
              },
              {
                  "duration": 0.11658037499999807,
                  "durationTicks": 3600,
                  "midi": 29,
                  "name": "F1",
                  "ticks": 2064000,
                  "time": 66.839415,
                  "velocity": 0.9606299212598425
              },
              {
                  "duration": 0.11658037499999807,
                  "durationTicks": 3600,
                  "midi": 65,
                  "name": "F4",
                  "ticks": 2064000,
                  "time": 66.839415,
                  "velocity": 0.8267716535433071
              },
              {
                  "duration": 0.11658037499999807,
                  "durationTicks": 3600,
                  "midi": 29,
                  "name": "F1",
                  "ticks": 2068800,
                  "time": 66.9948555,
                  "velocity": 0.8503937007874016
              },
              {
                  "duration": 0.07772024999999871,
                  "durationTicks": 2400,
                  "midi": 79,
                  "name": "G5",
                  "ticks": 2068800,
                  "time": 66.9948555,
                  "velocity": 0.7401574803149606
              },
              {
                  "duration": 0.11658037500001228,
                  "durationTicks": 3600,
                  "midi": 34,
                  "name": "A#1",
                  "ticks": 2073600,
                  "time": 67.150296,
                  "velocity": 0.8267716535433071
              },
              {
                  "duration": 0.11658037500001228,
                  "durationTicks": 3600,
                  "midi": 65,
                  "name": "F4",
                  "ticks": 2073600,
                  "time": 67.150296,
                  "velocity": 0.6929133858267716
              },
              {
                  "duration": 0.11658037499999807,
                  "durationTicks": 3600,
                  "midi": 34,
                  "name": "A#1",
                  "ticks": 2078400,
                  "time": 67.30573650000001,
                  "velocity": 0.9448818897637795
              },
              {
                  "duration": 0.03886012499999936,
                  "durationTicks": 1200,
                  "midi": 81,
                  "name": "A5",
                  "ticks": 2078400,
                  "time": 67.30573650000001,
                  "velocity": 0.8818897637795275
              },
              {
                  "duration": 0.03886012499999936,
                  "durationTicks": 1200,
                  "midi": 34,
                  "name": "A#1",
                  "ticks": 2083200,
                  "time": 67.461177,
                  "velocity": 0.8346456692913385
              },
              {
                  "duration": 0.07772024999999871,
                  "durationTicks": 2400,
                  "midi": 79,
                  "name": "G5",
                  "ticks": 2083200,
                  "time": 67.461177,
                  "velocity": 0.7874015748031497
              },
              {
                  "duration": 0.11658037499999807,
                  "durationTicks": 3600,
                  "midi": 34,
                  "name": "A#1",
                  "ticks": 2088000,
                  "time": 67.6166175,
                  "velocity": 0.8346456692913385
              },
              {
                  "duration": 0.11658037499999807,
                  "durationTicks": 3600,
                  "midi": 65,
                  "name": "F4",
                  "ticks": 2088000,
                  "time": 67.6166175,
                  "velocity": 0.7716535433070866
              },
              {
                  "duration": 0.11658037499999807,
                  "durationTicks": 3600,
                  "midi": 34,
                  "name": "A#1",
                  "ticks": 2092800,
                  "time": 67.772058,
                  "velocity": 0.905511811023622
              },
              {
                  "duration": 0.07772024999999871,
                  "durationTicks": 2400,
                  "midi": 65,
                  "name": "F4",
                  "ticks": 2092800,
                  "time": 67.772058,
                  "velocity": 0.8346456692913385
              },
              {
                  "duration": 0.07772024999999871,
                  "durationTicks": 2400,
                  "midi": 79,
                  "name": "G5",
                  "ticks": 2092800,
                  "time": 67.772058,
                  "velocity": 0.8582677165354331
              },
              {
                  "duration": 0.03886012499999936,
                  "durationTicks": 1200,
                  "midi": 34,
                  "name": "A#1",
                  "ticks": 2097600,
                  "time": 67.9274985,
                  "velocity": 0.8110236220472441
              },
              {
                  "duration": 0.07772024999999871,
                  "durationTicks": 2400,
                  "midi": 77,
                  "name": "F5",
                  "ticks": 2097600,
                  "time": 67.9274985,
                  "velocity": 0.8031496062992126
              },
              {
                  "duration": 0.11658037499999807,
                  "durationTicks": 3600,
                  "midi": 34,
                  "name": "A#1",
                  "ticks": 2102400,
                  "time": 68.08293900000001,
                  "velocity": 0.9606299212598425
              },
              {
                  "duration": 0.07772024999999871,
                  "durationTicks": 2400,
                  "midi": 74,
                  "name": "D5",
                  "ticks": 2102400,
                  "time": 68.08293900000001,
                  "velocity": 0.8818897637795275
              },
              {
                  "duration": 0.07772024999999871,
                  "durationTicks": 2400,
                  "midi": 34,
                  "name": "A#1",
                  "ticks": 2107200,
                  "time": 68.23837950000001,
                  "velocity": 0.8503937007874016
              },
              {
                  "duration": 0.07772024999999871,
                  "durationTicks": 2400,
                  "midi": 72,
                  "name": "C5",
                  "ticks": 2107200,
                  "time": 68.23837950000001,
                  "velocity": 0.7952755905511811
              },
              {
                  "duration": 0.11658037499999807,
                  "durationTicks": 3600,
                  "midi": 31,
                  "name": "G1",
                  "ticks": 2112000,
                  "time": 68.39382,
                  "velocity": 0.8267716535433071
              },
              {
                  "duration": 0.07772024999999871,
                  "durationTicks": 2400,
                  "midi": 74,
                  "name": "D5",
                  "ticks": 2112000,
                  "time": 68.39382,
                  "velocity": 0.7480314960629921
              },
              {
                  "duration": 0.11658037499999807,
                  "durationTicks": 3600,
                  "midi": 31,
                  "name": "G1",
                  "ticks": 2116800,
                  "time": 68.5492605,
                  "velocity": 0.9448818897637795
              },
              {
                  "duration": 0.07772024999999871,
                  "durationTicks": 2400,
                  "midi": 77,
                  "name": "F5",
                  "ticks": 2116800,
                  "time": 68.5492605,
                  "velocity": 0.8818897637795275
              },
              {
                  "duration": 0.03886012499999936,
                  "durationTicks": 1200,
                  "midi": 31,
                  "name": "G1",
                  "ticks": 2121600,
                  "time": 68.704701,
                  "velocity": 0.8346456692913385
              },
              {
                  "duration": 0.03886012499999936,
                  "durationTicks": 1200,
                  "midi": 79,
                  "name": "G5",
                  "ticks": 2121600,
                  "time": 68.704701,
                  "velocity": 0.7559055118110236
              },
              {
                  "duration": 0.11658037500001228,
                  "durationTicks": 3600,
                  "midi": 31,
                  "name": "G1",
                  "ticks": 2126400,
                  "time": 68.8601415,
                  "velocity": 0.8582677165354331
              },
              {
                  "duration": 0.11658037499999807,
                  "durationTicks": 3600,
                  "midi": 31,
                  "name": "G1",
                  "ticks": 2131200,
                  "time": 69.01558200000001,
                  "velocity": 0.9291338582677166
              },
              {
                  "duration": 0.03886012499999936,
                  "durationTicks": 1200,
                  "midi": 31,
                  "name": "G1",
                  "ticks": 2136000,
                  "time": 69.1710225,
                  "velocity": 0.8346456692913385
              },
              {
                  "duration": 0.07772024999999871,
                  "durationTicks": 2400,
                  "midi": 79,
                  "name": "G5",
                  "ticks": 2136000,
                  "time": 69.1710225,
                  "velocity": 0.7559055118110236
              },
              {
                  "duration": 0.11658037499999807,
                  "durationTicks": 3600,
                  "midi": 31,
                  "name": "G1",
                  "ticks": 2140800,
                  "time": 69.326463,
                  "velocity": 0.9606299212598425
              },
              {
                  "duration": 0.11658037499999807,
                  "durationTicks": 3600,
                  "midi": 31,
                  "name": "G1",
                  "ticks": 2145600,
                  "time": 69.4819035,
                  "velocity": 0.8503937007874016
              },
              {
                  "duration": 0.07772024999999871,
                  "durationTicks": 2400,
                  "midi": 84,
                  "name": "C6",
                  "ticks": 2145600,
                  "time": 69.4819035,
                  "velocity": 0.8031496062992126
              },
              {
                  "duration": 0.11658037500001228,
                  "durationTicks": 3600,
                  "midi": 36,
                  "name": "C2",
                  "ticks": 2150400,
                  "time": 69.637344,
                  "velocity": 0.8267716535433071
              },
              {
                  "duration": 0.11658037499999807,
                  "durationTicks": 3600,
                  "midi": 36,
                  "name": "C2",
                  "ticks": 2155200,
                  "time": 69.79278450000001,
                  "velocity": 0.9448818897637795
              },
              {
                  "duration": 0.07772024999999871,
                  "durationTicks": 2400,
                  "midi": 86,
                  "name": "D6",
                  "ticks": 2155200,
                  "time": 69.79278450000001,
                  "velocity": 0.8976377952755905
              },
              {
                  "duration": 0.03886012499999936,
                  "durationTicks": 1200,
                  "midi": 36,
                  "name": "C2",
                  "ticks": 2160000,
                  "time": 69.94822500000001,
                  "velocity": 0.84251968503937
              },
              {
                  "duration": 0.03886012499999936,
                  "durationTicks": 1200,
                  "midi": 84,
                  "name": "C6",
                  "ticks": 2160000,
                  "time": 69.94822500000001,
                  "velocity": 0.8031496062992126
              },
              {
                  "duration": 0.11658037499999807,
                  "durationTicks": 3600,
                  "midi": 36,
                  "name": "C2",
                  "ticks": 2164800,
                  "time": 70.1036655,
                  "velocity": 0.8346456692913385
              },
              {
                  "duration": 0.11658037499999807,
                  "durationTicks": 3600,
                  "midi": 36,
                  "name": "C2",
                  "ticks": 2169600,
                  "time": 70.259106,
                  "velocity": 0.9133858267716536
              },
              {
                  "duration": 0.03886012499999936,
                  "durationTicks": 1200,
                  "midi": 79,
                  "name": "G5",
                  "ticks": 2169600,
                  "time": 70.259106,
                  "velocity": 0.8267716535433071
              },
              {
                  "duration": 0.07772024999999871,
                  "durationTicks": 2400,
                  "midi": 36,
                  "name": "C2",
                  "ticks": 2174400,
                  "time": 70.4145465,
                  "velocity": 0.8110236220472441
              },
              {
                  "duration": 0.07772024999999871,
                  "durationTicks": 2400,
                  "midi": 77,
                  "name": "F5",
                  "ticks": 2174400,
                  "time": 70.4145465,
                  "velocity": 0.7952755905511811
              },
              {
                  "duration": 0.11658037500001228,
                  "durationTicks": 3600,
                  "midi": 38,
                  "name": "D2",
                  "ticks": 2179200,
                  "time": 70.569987,
                  "velocity": 0.937007874015748
              },
              {
                  "duration": 0.07772025000001292,
                  "durationTicks": 2400,
                  "midi": 69,
                  "name": "A4",
                  "ticks": 2179200,
                  "time": 70.569987,
                  "velocity": 0.7716535433070866
              },
              {
                  "duration": 0.07772025000001292,
                  "durationTicks": 2400,
                  "midi": 74,
                  "name": "D5",
                  "ticks": 2179200,
                  "time": 70.569987,
                  "velocity": 0.9133858267716536
              },
              {
                  "duration": 0.11658037499999807,
                  "durationTicks": 3600,
                  "midi": 40,
                  "name": "E2",
                  "ticks": 2184000,
                  "time": 70.72542750000001,
                  "velocity": 0.8503937007874016
              },
              {
                  "duration": 0.07772024999999871,
                  "durationTicks": 2400,
                  "midi": 72,
                  "name": "C5",
                  "ticks": 2184000,
                  "time": 70.72542750000001,
                  "velocity": 0.7480314960629921
              },
              {
                  "duration": 0.11658037499999807,
                  "durationTicks": 3600,
                  "midi": 29,
                  "name": "F1",
                  "ticks": 2193600,
                  "time": 71.0363085,
                  "velocity": 0.937007874015748
              },
              {
                  "duration": 0.07772024999999871,
                  "durationTicks": 2400,
                  "midi": 77,
                  "name": "F5",
                  "ticks": 2193600,
                  "time": 71.0363085,
                  "velocity": 0.8818897637795275
              },
              {
                  "duration": 0.11658037499999807,
                  "durationTicks": 3600,
                  "midi": 29,
                  "name": "F1",
                  "ticks": 2198400,
                  "time": 71.191749,
                  "velocity": 0.8267716535433071
              },
              {
                  "duration": 0.07772024999999871,
                  "durationTicks": 2400,
                  "midi": 74,
                  "name": "D5",
                  "ticks": 2198400,
                  "time": 71.191749,
                  "velocity": 0.8110236220472441
              },
              {
                  "duration": 0.03886012499999936,
                  "durationTicks": 1200,
                  "midi": 29,
                  "name": "F1",
                  "ticks": 2203200,
                  "time": 71.3471895,
                  "velocity": 0.8267716535433071
              },
              {
                  "duration": 0.07772024999999871,
                  "durationTicks": 2400,
                  "midi": 72,
                  "name": "C5",
                  "ticks": 2203200,
                  "time": 71.3471895,
                  "velocity": 0.7244094488188977
              },
              {
                  "duration": 0.03886012499999936,
                  "durationTicks": 1200,
                  "midi": 29,
                  "name": "F1",
                  "ticks": 2208000,
                  "time": 71.50263000000001,
                  "velocity": 0.7559055118110236
              },
              {
                  "duration": 0.03886012499999936,
                  "durationTicks": 1200,
                  "midi": 29,
                  "name": "F1",
                  "ticks": 2212800,
                  "time": 71.65807050000001,
                  "velocity": 0.5748031496062992
              },
              {
                  "duration": 0.11658037499999807,
                  "durationTicks": 3600,
                  "midi": 48,
                  "name": "C3",
                  "ticks": 2212800,
                  "time": 71.65807050000001,
                  "velocity": 0.6456692913385826
              },
              {
                  "duration": 0.07772024999999871,
                  "durationTicks": 2400,
                  "midi": 77,
                  "name": "F5",
                  "ticks": 2212800,
                  "time": 71.65807050000001,
                  "velocity": 0.7480314960629921
              },
              {
                  "duration": 0.11658037499999807,
                  "durationTicks": 3600,
                  "midi": 57,
                  "name": "A3",
                  "ticks": 2212800,
                  "time": 71.65807050000001,
                  "velocity": 0.5826771653543307
              },
              {
                  "duration": 0.11658037499999807,
                  "durationTicks": 3600,
                  "midi": 65,
                  "name": "F4",
                  "ticks": 2212800,
                  "time": 71.65807050000001,
                  "velocity": 0.6141732283464567
              },
              {
                  "duration": 0.03886012499999936,
                  "durationTicks": 1200,
                  "midi": 29,
                  "name": "F1",
                  "ticks": 2217600,
                  "time": 71.813511,
                  "velocity": 0.8503937007874016
              },
              {
                  "duration": 0.03886012499999936,
                  "durationTicks": 1200,
                  "midi": 48,
                  "name": "C3",
                  "ticks": 2217600,
                  "time": 71.813511,
                  "velocity": 0.7716535433070866
              },
              {
                  "duration": 0.07772024999999871,
                  "durationTicks": 2400,
                  "midi": 74,
                  "name": "D5",
                  "ticks": 2217600,
                  "time": 71.813511,
                  "velocity": 0.8188976377952756
              },
              {
                  "duration": 0.11658037499999807,
                  "durationTicks": 3600,
                  "midi": 29,
                  "name": "F1",
                  "ticks": 2222400,
                  "time": 71.9689515,
                  "velocity": 0.7637795275590551
              },
              {
                  "duration": 0.11658037499999807,
                  "durationTicks": 3600,
                  "midi": 72,
                  "name": "C5",
                  "ticks": 2222400,
                  "time": 71.9689515,
                  "velocity": 0.7874015748031497
              },
              {
                  "duration": 0.11658037499999807,
                  "durationTicks": 3600,
                  "midi": 29,
                  "name": "F1",
                  "ticks": 2227200,
                  "time": 72.124392,
                  "velocity": 0.7559055118110236
              },
              {
                  "duration": 0.11658037500001228,
                  "durationTicks": 3600,
                  "midi": 29,
                  "name": "F1",
                  "ticks": 2232000,
                  "time": 72.2798325,
                  "velocity": 0.8661417322834646
              },
              {
                  "duration": 0.11658037500001228,
                  "durationTicks": 3600,
                  "midi": 41,
                  "name": "F2",
                  "ticks": 2232000,
                  "time": 72.2798325,
                  "velocity": 0.6456692913385826
              },
              {
                  "duration": 0.11658037500001228,
                  "durationTicks": 3600,
                  "midi": 53,
                  "name": "F3",
                  "ticks": 2232000,
                  "time": 72.2798325,
                  "velocity": 0.6771653543307087
              },
              {
                  "duration": 0.07772025000001292,
                  "durationTicks": 2400,
                  "midi": 77,
                  "name": "F5",
                  "ticks": 2232000,
                  "time": 72.2798325,
                  "velocity": 0.7716535433070866
              },
              {
                  "duration": 0.03886012499999936,
                  "durationTicks": 1200,
                  "midi": 29,
                  "name": "F1",
                  "ticks": 2236800,
                  "time": 72.43527300000001,
                  "velocity": 0.7637795275590551
              },
              {
                  "duration": 0.03886012499999936,
                  "durationTicks": 1200,
                  "midi": 41,
                  "name": "F2",
                  "ticks": 2236800,
                  "time": 72.43527300000001,
                  "velocity": 0.5354330708661418
              },
              {
                  "duration": 0.03886012499999936,
                  "durationTicks": 1200,
                  "midi": 53,
                  "name": "F3",
                  "ticks": 2236800,
                  "time": 72.43527300000001,
                  "velocity": 0.5669291338582677
              },
              {
                  "duration": 0.11658037499999807,
                  "durationTicks": 3600,
                  "midi": 74,
                  "name": "D5",
                  "ticks": 2236800,
                  "time": 72.43527300000001,
                  "velocity": 0.7874015748031497
              },
              {
                  "duration": 0.11658037499999807,
                  "durationTicks": 3600,
                  "midi": 48,
                  "name": "C3",
                  "ticks": 2241600,
                  "time": 72.5907135,
                  "velocity": 0.5826771653543307
              },
              {
                  "duration": 0.11658037499999807,
                  "durationTicks": 3600,
                  "midi": 53,
                  "name": "F3",
                  "ticks": 2241600,
                  "time": 72.5907135,
                  "velocity": 0.7559055118110236
              },
              {
                  "duration": 0.11658037499999807,
                  "durationTicks": 3600,
                  "midi": 57,
                  "name": "A3",
                  "ticks": 2241600,
                  "time": 72.5907135,
                  "velocity": 0.5590551181102362
              },
              {
                  "duration": 0.03886012499999936,
                  "durationTicks": 1200,
                  "midi": 48,
                  "name": "C3",
                  "ticks": 2246400,
                  "time": 72.746154,
                  "velocity": 0.6614173228346457
              },
              {
                  "duration": 0.03886012499999936,
                  "durationTicks": 1200,
                  "midi": 53,
                  "name": "F3",
                  "ticks": 2246400,
                  "time": 72.746154,
                  "velocity": 0.8267716535433071
              },
              {
                  "duration": 0.11658037499999807,
                  "durationTicks": 3600,
                  "midi": 48,
                  "name": "C3",
                  "ticks": 2251200,
                  "time": 72.9015945,
                  "velocity": 0.5984251968503937
              },
              {
                  "duration": 0.11658037499999807,
                  "durationTicks": 3600,
                  "midi": 53,
                  "name": "F3",
                  "ticks": 2251200,
                  "time": 72.9015945,
                  "velocity": 0.5275590551181102
              },
              {
                  "duration": 0.03886012499999936,
                  "durationTicks": 1200,
                  "midi": 77,
                  "name": "F5",
                  "ticks": 2251200,
                  "time": 72.9015945,
                  "velocity": 0.6220472440944882
              },
              {
                  "duration": 0.03886012499999936,
                  "durationTicks": 1200,
                  "midi": 48,
                  "name": "C3",
                  "ticks": 2256000,
                  "time": 73.057035,
                  "velocity": 0.7322834645669292
              },
              {
                  "duration": 0.07772024999999871,
                  "durationTicks": 2400,
                  "midi": 74,
                  "name": "D5",
                  "ticks": 2256000,
                  "time": 73.057035,
                  "velocity": 0.8346456692913385
              },
              {
                  "duration": 0.03886012499999936,
                  "durationTicks": 1200,
                  "midi": 29,
                  "name": "F1",
                  "ticks": 2260800,
                  "time": 73.21247550000001,
                  "velocity": 0.6614173228346457
              },
              {
                  "duration": 0.11658037499999807,
                  "durationTicks": 3600,
                  "midi": 72,
                  "name": "C5",
                  "ticks": 2260800,
                  "time": 73.21247550000001,
                  "velocity": 0.6771653543307087
              },
              {
                  "duration": 0.11658037499999807,
                  "durationTicks": 3600,
                  "midi": 29,
                  "name": "F1",
                  "ticks": 2265600,
                  "time": 73.36791600000001,
                  "velocity": 0.7874015748031497
              },
              {
                  "duration": 0.11658037499999807,
                  "durationTicks": 3600,
                  "midi": 65,
                  "name": "F4",
                  "ticks": 2265600,
                  "time": 73.36791600000001,
                  "velocity": 0.6929133858267716
              },
              {
                  "duration": 0.03886012499999936,
                  "durationTicks": 1200,
                  "midi": 72,
                  "name": "C5",
                  "ticks": 2265600,
                  "time": 73.36791600000001,
                  "velocity": 0.6692913385826772
              },
              {
                  "duration": 0.11658037499999807,
                  "durationTicks": 3600,
                  "midi": 29,
                  "name": "F1",
                  "ticks": 2270400,
                  "time": 73.5233565,
                  "velocity": 0.905511811023622
              },
              {
                  "duration": 0.07772024999999871,
                  "durationTicks": 2400,
                  "midi": 65,
                  "name": "F4",
                  "ticks": 2270400,
                  "time": 73.5233565,
                  "velocity": 0.8031496062992126
              },
              {
                  "duration": 0.07772024999999871,
                  "durationTicks": 2400,
                  "midi": 29,
                  "name": "F1",
                  "ticks": 2275200,
                  "time": 73.678797,
                  "velocity": 0.8031496062992126
              },
              {
                  "duration": 0.07772024999999871,
                  "durationTicks": 2400,
                  "midi": 74,
                  "name": "D5",
                  "ticks": 2275200,
                  "time": 73.678797,
                  "velocity": 0.7086614173228346
              },
              {
                  "duration": 0.11658037499999807,
                  "durationTicks": 3600,
                  "midi": 60,
                  "name": "C4",
                  "ticks": 2280000,
                  "time": 73.8342375,
                  "velocity": 0.5039370078740157
              },
              {
                  "duration": 0.07772024999999871,
                  "durationTicks": 2400,
                  "midi": 65,
                  "name": "F4",
                  "ticks": 2280000,
                  "time": 73.8342375,
                  "velocity": 0.6220472440944882
              },
              {
                  "duration": 0.07772024999999871,
                  "durationTicks": 2400,
                  "midi": 72,
                  "name": "C5",
                  "ticks": 2280000,
                  "time": 73.8342375,
                  "velocity": 0.6929133858267716
              },
              {
                  "duration": 0.03886012500001357,
                  "durationTicks": 1200,
                  "midi": 60,
                  "name": "C4",
                  "ticks": 2284800,
                  "time": 73.989678,
                  "velocity": 0.5748031496062992
              },
              {
                  "duration": 0.11658037499999807,
                  "durationTicks": 3600,
                  "midi": 29,
                  "name": "F1",
                  "ticks": 2289600,
                  "time": 74.14511850000001,
                  "velocity": 0.8110236220472441
              },
              {
                  "duration": 0.07772024999999871,
                  "durationTicks": 2400,
                  "midi": 57,
                  "name": "A3",
                  "ticks": 2289600,
                  "time": 74.14511850000001,
                  "velocity": 0.5826771653543307
              },
              {
                  "duration": 0.03886012499999936,
                  "durationTicks": 1200,
                  "midi": 29,
                  "name": "F1",
                  "ticks": 2294400,
                  "time": 74.300559,
                  "velocity": 0.9448818897637795
              },
              {
                  "duration": 0.07772024999999871,
                  "durationTicks": 2400,
                  "midi": 74,
                  "name": "D5",
                  "ticks": 2294400,
                  "time": 74.300559,
                  "velocity": 0.7874015748031497
              },
              {
                  "duration": 0.11658037499999807,
                  "durationTicks": 3600,
                  "midi": 29,
                  "name": "F1",
                  "ticks": 2299200,
                  "time": 74.4559995,
                  "velocity": 0.8110236220472441
              },
              {
                  "duration": 0.11658037499999807,
                  "durationTicks": 3600,
                  "midi": 29,
                  "name": "F1",
                  "ticks": 2304000,
                  "time": 74.61144,
                  "velocity": 0.8031496062992126
              },
              {
                  "duration": 0.07772024999999871,
                  "durationTicks": 2400,
                  "midi": 53,
                  "name": "F3",
                  "ticks": 2304000,
                  "time": 74.61144,
                  "velocity": 0.7401574803149606
              },
              {
                  "duration": 0.11658037500001228,
                  "durationTicks": 3600,
                  "midi": 29,
                  "name": "F1",
                  "ticks": 2308800,
                  "time": 74.7668805,
                  "velocity": 0.9212598425196851
              },
              {
                  "duration": 0.11658037499999807,
                  "durationTicks": 3600,
                  "midi": 29,
                  "name": "F1",
                  "ticks": 2313600,
                  "time": 74.92232100000001,
                  "velocity": 0.8110236220472441
              },
              {
                  "duration": 0.11658037499999807,
                  "durationTicks": 3600,
                  "midi": 29,
                  "name": "F1",
                  "ticks": 2318400,
                  "time": 75.07776150000001,
                  "velocity": 0.8110236220472441
              },
              {
                  "duration": 0.07772024999999871,
                  "durationTicks": 2400,
                  "midi": 72,
                  "name": "C5",
                  "ticks": 2318400,
                  "time": 75.07776150000001,
                  "velocity": 0.7637795275590551
              },
              {
                  "duration": 0.11658037499999807,
                  "durationTicks": 3600,
                  "midi": 29,
                  "name": "F1",
                  "ticks": 2323200,
                  "time": 75.233202,
                  "velocity": 0.8818897637795275
              },
              {
                  "duration": 0.11658037499999807,
                  "durationTicks": 3600,
                  "midi": 29,
                  "name": "F1",
                  "ticks": 2328000,
                  "time": 75.3886425,
                  "velocity": 0.7874015748031497
              },
              {
                  "duration": 0.11658037499999807,
                  "durationTicks": 3600,
                  "midi": 53,
                  "name": "F3",
                  "ticks": 2328000,
                  "time": 75.3886425,
                  "velocity": 0.6692913385826772
              },
              {
                  "duration": 0.11658037499999807,
                  "durationTicks": 3600,
                  "midi": 29,
                  "name": "F1",
                  "ticks": 2332800,
                  "time": 75.544083,
                  "velocity": 0.9212598425196851
              },
              {
                  "duration": 0.11658037499999807,
                  "durationTicks": 3600,
                  "midi": 74,
                  "name": "D5",
                  "ticks": 2332800,
                  "time": 75.544083,
                  "velocity": 0.8188976377952756
              },
              {
                  "duration": 0.03886012500001357,
                  "durationTicks": 1200,
                  "midi": 72,
                  "name": "C5",
                  "ticks": 2337600,
                  "time": 75.6995235,
                  "velocity": 0.7874015748031497
              },
              {
                  "duration": 0.11658037499999807,
                  "durationTicks": 3600,
                  "midi": 29,
                  "name": "F1",
                  "ticks": 2342400,
                  "time": 75.85496400000001,
                  "velocity": 0.84251968503937
              },
              {
                  "duration": 0.11658037499999807,
                  "durationTicks": 3600,
                  "midi": 29,
                  "name": "F1",
                  "ticks": 2347200,
                  "time": 76.0104045,
                  "velocity": 0.9606299212598425
              },
              {
                  "duration": 0.11658037499999807,
                  "durationTicks": 3600,
                  "midi": 29,
                  "name": "F1",
                  "ticks": 2352000,
                  "time": 76.165845,
                  "velocity": 0.8503937007874016
              },
              {
                  "duration": 0.07772024999999871,
                  "durationTicks": 2400,
                  "midi": 74,
                  "name": "D5",
                  "ticks": 2352000,
                  "time": 76.165845,
                  "velocity": 0.7559055118110236
              },
              {
                  "duration": 0.11658037499999807,
                  "durationTicks": 3600,
                  "midi": 29,
                  "name": "F1",
                  "ticks": 2356800,
                  "time": 76.3212855,
                  "velocity": 0.8503937007874016
              },
              {
                  "duration": 0.11658037499999807,
                  "durationTicks": 3600,
                  "midi": 57,
                  "name": "A3",
                  "ticks": 2356800,
                  "time": 76.3212855,
                  "velocity": 0.6535433070866141
              },
              {
                  "duration": 0.11658037499999807,
                  "durationTicks": 3600,
                  "midi": 53,
                  "name": "F3",
                  "ticks": 2356800,
                  "time": 76.3212855,
                  "velocity": 0.7480314960629921
              },
              {
                  "duration": 0.03886012499999936,
                  "durationTicks": 1200,
                  "midi": 29,
                  "name": "F1",
                  "ticks": 2361600,
                  "time": 76.476726,
                  "velocity": 0.9291338582677166
              },
              {
                  "duration": 0.03886012499999936,
                  "durationTicks": 1200,
                  "midi": 53,
                  "name": "F3",
                  "ticks": 2361600,
                  "time": 76.476726,
                  "velocity": 0.8188976377952756
              },
              {
                  "duration": 0.11658037499999807,
                  "durationTicks": 3600,
                  "midi": 29,
                  "name": "F1",
                  "ticks": 2366400,
                  "time": 76.63216650000001,
                  "velocity": 0.8267716535433071
              },
              {
                  "duration": 0.03886012499999936,
                  "durationTicks": 1200,
                  "midi": 29,
                  "name": "F1",
                  "ticks": 2371200,
                  "time": 76.78760700000001,
                  "velocity": 0.9606299212598425
              },
              {
                  "duration": 0.07772024999999871,
                  "durationTicks": 2400,
                  "midi": 74,
                  "name": "D5",
                  "ticks": 2371200,
                  "time": 76.78760700000001,
                  "velocity": 0.7874015748031497
              },
              {
                  "duration": 0.11658037499999807,
                  "durationTicks": 3600,
                  "midi": 29,
                  "name": "F1",
                  "ticks": 2376000,
                  "time": 76.9430475,
                  "velocity": 0.8503937007874016
              },
              {
                  "duration": 0.11658037499999807,
                  "durationTicks": 3600,
                  "midi": 29,
                  "name": "F1",
                  "ticks": 2380800,
                  "time": 77.098488,
                  "velocity": 0.8346456692913385
              },
              {
                  "duration": 0.11658037499999807,
                  "durationTicks": 3600,
                  "midi": 41,
                  "name": "F2",
                  "ticks": 2380800,
                  "time": 77.098488,
                  "velocity": 0.6456692913385826
              },
              {
                  "duration": 0.11658037499999807,
                  "durationTicks": 3600,
                  "midi": 53,
                  "name": "F3",
                  "ticks": 2380800,
                  "time": 77.098488,
                  "velocity": 0.7716535433070866
              },
              {
                  "duration": 0.11658037499999807,
                  "durationTicks": 3600,
                  "midi": 29,
                  "name": "F1",
                  "ticks": 2385600,
                  "time": 77.2539285,
                  "velocity": 0.9606299212598425
              },
              {
                  "duration": 0.03886012499999936,
                  "durationTicks": 1200,
                  "midi": 53,
                  "name": "F3",
                  "ticks": 2385600,
                  "time": 77.2539285,
                  "velocity": 0.889763779527559
              },
              {
                  "duration": 0.03886012499999936,
                  "durationTicks": 1200,
                  "midi": 41,
                  "name": "F2",
                  "ticks": 2385600,
                  "time": 77.2539285,
                  "velocity": 0.7716535433070866
              },
              {
                  "duration": 0.11658037500001228,
                  "durationTicks": 3600,
                  "midi": 29,
                  "name": "F1",
                  "ticks": 2390400,
                  "time": 77.409369,
                  "velocity": 0.8503937007874016
              },
              {
                  "duration": 0.07772025000001292,
                  "durationTicks": 2400,
                  "midi": 74,
                  "name": "D5",
                  "ticks": 2390400,
                  "time": 77.409369,
                  "velocity": 0.8188976377952756
              },
              {
                  "duration": 0.11658037499999807,
                  "durationTicks": 3600,
                  "midi": 29,
                  "name": "F1",
                  "ticks": 2395200,
                  "time": 77.56480950000001,
                  "velocity": 0.8503937007874016
              },
              {
                  "duration": 0.11658037499999807,
                  "durationTicks": 3600,
                  "midi": 48,
                  "name": "C3",
                  "ticks": 2395200,
                  "time": 77.56480950000001,
                  "velocity": 0.7322834645669292
              },
              {
                  "duration": 0.11658037499999807,
                  "durationTicks": 3600,
                  "midi": 29,
                  "name": "F1",
                  "ticks": 2400000,
                  "time": 77.72025000000001,
                  "velocity": 0.9212598425196851
              },
              {
                  "duration": 0.11658037499999807,
                  "durationTicks": 3600,
                  "midi": 48,
                  "name": "C3",
                  "ticks": 2400000,
                  "time": 77.72025000000001,
                  "velocity": 0.8031496062992126
              },
              {
                  "duration": 0.11658037499999807,
                  "durationTicks": 3600,
                  "midi": 29,
                  "name": "F1",
                  "ticks": 2404800,
                  "time": 77.8756905,
                  "velocity": 0.8267716535433071
              },
              {
                  "duration": 0.11658037499999807,
                  "durationTicks": 3600,
                  "midi": 57,
                  "name": "A3",
                  "ticks": 2404800,
                  "time": 77.8756905,
                  "velocity": 0.5984251968503937
              },
              {
                  "duration": 0.11658037499999807,
                  "durationTicks": 3600,
                  "midi": 41,
                  "name": "F2",
                  "ticks": 2404800,
                  "time": 77.8756905,
                  "velocity": 0.5511811023622047
              },
              {
                  "duration": 0.11658037499999807,
                  "durationTicks": 3600,
                  "midi": 53,
                  "name": "F3",
                  "ticks": 2404800,
                  "time": 77.8756905,
                  "velocity": 0.6850393700787402
              },
              {
                  "duration": 0.11658037499999807,
                  "durationTicks": 3600,
                  "midi": 48,
                  "name": "C3",
                  "ticks": 2404800,
                  "time": 77.8756905,
                  "velocity": 0.7086614173228346
              },
              {
                  "duration": 0.11658037499999807,
                  "durationTicks": 3600,
                  "midi": 29,
                  "name": "F1",
                  "ticks": 2409600,
                  "time": 78.031131,
                  "velocity": 0.9606299212598425
              },
              {
                  "duration": 0.11658037499999807,
                  "durationTicks": 3600,
                  "midi": 48,
                  "name": "C3",
                  "ticks": 2409600,
                  "time": 78.031131,
                  "velocity": 0.8346456692913385
              },
              {
                  "duration": 0.03886012499999936,
                  "durationTicks": 1200,
                  "midi": 53,
                  "name": "F3",
                  "ticks": 2409600,
                  "time": 78.031131,
                  "velocity": 0.8110236220472441
              },
              {
                  "duration": 0.07772024999999871,
                  "durationTicks": 2400,
                  "midi": 74,
                  "name": "D5",
                  "ticks": 2409600,
                  "time": 78.031131,
                  "velocity": 0.8267716535433071
              },
              {
                  "duration": 0.11658037500001228,
                  "durationTicks": 3600,
                  "midi": 29,
                  "name": "F1",
                  "ticks": 2414400,
                  "time": 78.1865715,
                  "velocity": 0.8503937007874016
              },
              {
                  "duration": 0.03886012499999936,
                  "durationTicks": 1200,
                  "midi": 48,
                  "name": "C3",
                  "ticks": 2414400,
                  "time": 78.1865715,
                  "velocity": 0.7322834645669292
              },
              {
                  "duration": 0.03886012499999936,
                  "durationTicks": 1200,
                  "midi": 72,
                  "name": "C5",
                  "ticks": 2414400,
                  "time": 78.1865715,
                  "velocity": 0.8188976377952756
              },
              {
                  "duration": 0.11658037499999807,
                  "durationTicks": 3600,
                  "midi": 29,
                  "name": "F1",
                  "ticks": 2419200,
                  "time": 78.34201200000001,
                  "velocity": 0.8346456692913385
              },
              {
                  "duration": 0.11658037499999807,
                  "durationTicks": 3600,
                  "midi": 53,
                  "name": "F3",
                  "ticks": 2419200,
                  "time": 78.34201200000001,
                  "velocity": 0.7007874015748031
              },
              {
                  "duration": 0.11658037499999807,
                  "durationTicks": 3600,
                  "midi": 41,
                  "name": "F2",
                  "ticks": 2419200,
                  "time": 78.34201200000001,
                  "velocity": 0.5905511811023622
              },
              {
                  "duration": 0.11658037499999807,
                  "durationTicks": 3600,
                  "midi": 48,
                  "name": "C3",
                  "ticks": 2419200,
                  "time": 78.34201200000001,
                  "velocity": 0.6299212598425197
              },
              {
                  "duration": 0.11658037499999807,
                  "durationTicks": 3600,
                  "midi": 29,
                  "name": "F1",
                  "ticks": 2424000,
                  "time": 78.49745250000001,
                  "velocity": 0.9606299212598425
              },
              {
                  "duration": 0.11658037499999807,
                  "durationTicks": 3600,
                  "midi": 41,
                  "name": "F2",
                  "ticks": 2424000,
                  "time": 78.49745250000001,
                  "velocity": 0.7086614173228346
              },
              {
                  "duration": 0.11658037499999807,
                  "durationTicks": 3600,
                  "midi": 48,
                  "name": "C3",
                  "ticks": 2424000,
                  "time": 78.49745250000001,
                  "velocity": 0.7401574803149606
              },
              {
                  "duration": 0.11658037499999807,
                  "durationTicks": 3600,
                  "midi": 53,
                  "name": "F3",
                  "ticks": 2424000,
                  "time": 78.49745250000001,
                  "velocity": 0.8188976377952756
              },
              {
                  "duration": 0.07772024999999871,
                  "durationTicks": 2400,
                  "midi": 77,
                  "name": "F5",
                  "ticks": 2424000,
                  "time": 78.49745250000001,
                  "velocity": 0.8976377952755905
              },
              {
                  "duration": 0.07772024999999871,
                  "durationTicks": 2400,
                  "midi": 29,
                  "name": "F1",
                  "ticks": 2428800,
                  "time": 78.652893,
                  "velocity": 0.8503937007874016
              },
              {
                  "duration": 0.03886012499999936,
                  "durationTicks": 1200,
                  "midi": 41,
                  "name": "F2",
                  "ticks": 2428800,
                  "time": 78.652893,
                  "velocity": 0.5984251968503937
              },
              {
                  "duration": 0.07772024999999871,
                  "durationTicks": 2400,
                  "midi": 74,
                  "name": "D5",
                  "ticks": 2428800,
                  "time": 78.652893,
                  "velocity": 0.7559055118110236
              },
              {
                  "duration": 0.11658037499999807,
                  "durationTicks": 3600,
                  "midi": 41,
                  "name": "F2",
                  "ticks": 2433600,
                  "time": 78.8083335,
                  "velocity": 0.6456692913385826
              },
              {
                  "duration": 0.11658037499999807,
                  "durationTicks": 3600,
                  "midi": 48,
                  "name": "C3",
                  "ticks": 2433600,
                  "time": 78.8083335,
                  "velocity": 0.7716535433070866
              },
              {
                  "duration": 0.11658037499999807,
                  "durationTicks": 3600,
                  "midi": 57,
                  "name": "A3",
                  "ticks": 2433600,
                  "time": 78.8083335,
                  "velocity": 0.6220472440944882
              },
              {
                  "duration": 0.03886012499999936,
                  "durationTicks": 1200,
                  "midi": 41,
                  "name": "F2",
                  "ticks": 2438400,
                  "time": 78.963774,
                  "velocity": 0.7086614173228346
              },
              {
                  "duration": 0.03886012499999936,
                  "durationTicks": 1200,
                  "midi": 48,
                  "name": "C3",
                  "ticks": 2438400,
                  "time": 78.963774,
                  "velocity": 0.8346456692913385
              },
              {
                  "duration": 0.03886012499999936,
                  "durationTicks": 1200,
                  "midi": 57,
                  "name": "A3",
                  "ticks": 2438400,
                  "time": 78.963774,
                  "velocity": 0.6929133858267716
              },
              {
                  "duration": 0.11658037500001228,
                  "durationTicks": 3600,
                  "midi": 29,
                  "name": "F1",
                  "ticks": 2443200,
                  "time": 79.1192145,
                  "velocity": 0.8110236220472441
              },
              {
                  "duration": 0.11658037500001228,
                  "durationTicks": 3600,
                  "midi": 57,
                  "name": "A3",
                  "ticks": 2443200,
                  "time": 79.1192145,
                  "velocity": 0.6299212598425197
              },
              {
                  "duration": 0.03886012500001357,
                  "durationTicks": 1200,
                  "midi": 65,
                  "name": "F4",
                  "ticks": 2443200,
                  "time": 79.1192145,
                  "velocity": 0.7401574803149606
              },
              {
                  "duration": 0.11658037499999807,
                  "durationTicks": 3600,
                  "midi": 29,
                  "name": "F1",
                  "ticks": 2448000,
                  "time": 79.27465500000001,
                  "velocity": 0.9448818897637795
              },
              {
                  "duration": 0.03886012499999936,
                  "durationTicks": 1200,
                  "midi": 57,
                  "name": "A3",
                  "ticks": 2448000,
                  "time": 79.27465500000001,
                  "velocity": 0.7559055118110236
              },
              {
                  "duration": 0.07772024999999871,
                  "durationTicks": 2400,
                  "midi": 74,
                  "name": "D5",
                  "ticks": 2448000,
                  "time": 79.27465500000001,
                  "velocity": 0.8818897637795275
              },
              {
                  "duration": 0.11658037499999807,
                  "durationTicks": 3600,
                  "midi": 53,
                  "name": "F3",
                  "ticks": 2452800,
                  "time": 79.43009550000001,
                  "velocity": 0.84251968503937
              },
              {
                  "duration": 0.07772024999999871,
                  "durationTicks": 2400,
                  "midi": 72,
                  "name": "C5",
                  "ticks": 2462400,
                  "time": 79.7409765,
                  "velocity": 0.889763779527559
              },
              {
                  "duration": 0.07772024999999871,
                  "durationTicks": 2400,
                  "midi": 69,
                  "name": "A4",
                  "ticks": 2467200,
                  "time": 79.896417,
                  "velocity": 0.7559055118110236
              },
              {
                  "duration": 0.07772024999999871,
                  "durationTicks": 2400,
                  "midi": 67,
                  "name": "G4",
                  "ticks": 2472000,
                  "time": 80.05185750000001,
                  "velocity": 0.7874015748031497
              },
              {
                  "duration": 0.07772024999999871,
                  "durationTicks": 2400,
                  "midi": 65,
                  "name": "F4",
                  "ticks": 2481600,
                  "time": 80.3627385,
                  "velocity": 0.8031496062992126
              },
              {
                  "duration": 0.11658037499999807,
                  "durationTicks": 3600,
                  "midi": 62,
                  "name": "D4",
                  "ticks": 2486400,
                  "time": 80.518179,
                  "velocity": 0.9606299212598425
              },
              {
                  "duration": 0.07772024999999871,
                  "durationTicks": 2400,
                  "midi": 60,
                  "name": "C4",
                  "ticks": 2491200,
                  "time": 80.6736195,
                  "velocity": 0.8503937007874016
              },
              {
                  "duration": 0.11658037500001228,
                  "durationTicks": 3600,
                  "midi": 41,
                  "name": "F2",
                  "ticks": 2496000,
                  "time": 80.82906,
                  "velocity": 0.7322834645669292
              },
              {
                  "duration": 0.11658037500001228,
                  "durationTicks": 3600,
                  "midi": 48,
                  "name": "C3",
                  "ticks": 2496000,
                  "time": 80.82906,
                  "velocity": 0.6141732283464567
              },
              {
                  "duration": 0.11658037500001228,
                  "durationTicks": 3600,
                  "midi": 57,
                  "name": "A3",
                  "ticks": 2496000,
                  "time": 80.82906,
                  "velocity": 0.7244094488188977
              },
              {
                  "duration": 0.11658037499999807,
                  "durationTicks": 3600,
                  "midi": 41,
                  "name": "F2",
                  "ticks": 2500800,
                  "time": 80.98450050000001,
                  "velocity": 0.8503937007874016
              },
              {
                  "duration": 0.07772024999999871,
                  "durationTicks": 2400,
                  "midi": 48,
                  "name": "C3",
                  "ticks": 2500800,
                  "time": 80.98450050000001,
                  "velocity": 0.7401574803149606
              },
              {
                  "duration": 0.11658037499999807,
                  "durationTicks": 3600,
                  "midi": 57,
                  "name": "A3",
                  "ticks": 2500800,
                  "time": 80.98450050000001,
                  "velocity": 0.8503937007874016
              },
              {
                  "duration": 0.11658037499999807,
                  "durationTicks": 3600,
                  "midi": 84,
                  "name": "C6",
                  "ticks": 2500800,
                  "time": 80.98450050000001,
                  "velocity": 0.8031496062992126
              },
              {
                  "duration": 0.03886012499999936,
                  "durationTicks": 1200,
                  "midi": 79,
                  "name": "G5",
                  "ticks": 2505600,
                  "time": 81.13994100000001,
                  "velocity": 0.7401574803149606
              },
              {
                  "duration": 0.11658037499999807,
                  "durationTicks": 3600,
                  "midi": 29,
                  "name": "F1",
                  "ticks": 2510400,
                  "time": 81.2953815,
                  "velocity": 0.6456692913385826
              },
              {
                  "duration": 0.03886012499999936,
                  "durationTicks": 1200,
                  "midi": 81,
                  "name": "A5",
                  "ticks": 2510400,
                  "time": 81.2953815,
                  "velocity": 0.7559055118110236
              },
              {
                  "duration": 0.07772024999999871,
                  "durationTicks": 2400,
                  "midi": 29,
                  "name": "F1",
                  "ticks": 2515200,
                  "time": 81.450822,
                  "velocity": 0.7086614173228346
              },
              {
                  "duration": 0.11658037499999807,
                  "durationTicks": 3600,
                  "midi": 29,
                  "name": "F1",
                  "ticks": 2520000,
                  "time": 81.6062625,
                  "velocity": 0.6929133858267716
              },
              {
                  "duration": 0.11658037499999807,
                  "durationTicks": 3600,
                  "midi": 41,
                  "name": "F2",
                  "ticks": 2520000,
                  "time": 81.6062625,
                  "velocity": 0.7007874015748031
              },
              {
                  "duration": 0.11658037499999807,
                  "durationTicks": 3600,
                  "midi": 57,
                  "name": "A3",
                  "ticks": 2520000,
                  "time": 81.6062625,
                  "velocity": 0.5905511811023622
              },
              {
                  "duration": 0.07772024999999871,
                  "durationTicks": 2400,
                  "midi": 77,
                  "name": "F5",
                  "ticks": 2520000,
                  "time": 81.6062625,
                  "velocity": 0.6771653543307087
              },
              {
                  "duration": 0.07772024999999871,
                  "durationTicks": 2400,
                  "midi": 29,
                  "name": "F1",
                  "ticks": 2524800,
                  "time": 81.76170300000001,
                  "velocity": 0.8267716535433071
              },
              {
                  "duration": 0.11658037499999807,
                  "durationTicks": 3600,
                  "midi": 34,
                  "name": "A#1",
                  "ticks": 2529600,
                  "time": 81.91714350000001,
                  "velocity": 0.8188976377952756
              },
              {
                  "duration": 0.07772024999999871,
                  "durationTicks": 2400,
                  "midi": 74,
                  "name": "D5",
                  "ticks": 2529600,
                  "time": 81.91714350000001,
                  "velocity": 0.8188976377952756
              },
              {
                  "duration": 0.11658037499999807,
                  "durationTicks": 3600,
                  "midi": 34,
                  "name": "A#1",
                  "ticks": 2534400,
                  "time": 82.072584,
                  "velocity": 0.8031496062992126
              },
              {
                  "duration": 0.11658037499999807,
                  "durationTicks": 3600,
                  "midi": 34,
                  "name": "A#1",
                  "ticks": 2539200,
                  "time": 82.2280245,
                  "velocity": 0.9291338582677166
              },
              {
                  "duration": 0.07772024999999871,
                  "durationTicks": 2400,
                  "midi": 77,
                  "name": "F5",
                  "ticks": 2539200,
                  "time": 82.2280245,
                  "velocity": 0.8346456692913385
              },
              {
                  "duration": 0.11658037499999807,
                  "durationTicks": 3600,
                  "midi": 34,
                  "name": "A#1",
                  "ticks": 2544000,
                  "time": 82.383465,
                  "velocity": 0.8188976377952756
              },
              {
                  "duration": 0.07772024999999871,
                  "durationTicks": 2400,
                  "midi": 74,
                  "name": "D5",
                  "ticks": 2544000,
                  "time": 82.383465,
                  "velocity": 0.8031496062992126
              },
              {
                  "duration": 0.11658037500001228,
                  "durationTicks": 3600,
                  "midi": 34,
                  "name": "A#1",
                  "ticks": 2548800,
                  "time": 82.5389055,
                  "velocity": 0.8188976377952756
              },
              {
                  "duration": 0.11658037500001228,
                  "durationTicks": 3600,
                  "midi": 53,
                  "name": "F3",
                  "ticks": 2548800,
                  "time": 82.5389055,
                  "velocity": 0.5669291338582677
              },
              {
                  "duration": 0.07772025000001292,
                  "durationTicks": 2400,
                  "midi": 72,
                  "name": "C5",
                  "ticks": 2548800,
                  "time": 82.5389055,
                  "velocity": 0.7637795275590551
              },
              {
                  "duration": 0.11658037499999807,
                  "durationTicks": 3600,
                  "midi": 34,
                  "name": "A#1",
                  "ticks": 2553600,
                  "time": 82.69434600000001,
                  "velocity": 0.889763779527559
              },
              {
                  "duration": 0.03886012499999936,
                  "durationTicks": 1200,
                  "midi": 53,
                  "name": "F3",
                  "ticks": 2553600,
                  "time": 82.69434600000001,
                  "velocity": 0.6456692913385826
              },
              {
                  "duration": 0.07772024999999871,
                  "durationTicks": 2400,
                  "midi": 74,
                  "name": "D5",
                  "ticks": 2553600,
                  "time": 82.69434600000001,
                  "velocity": 0.8110236220472441
              },
              {
                  "duration": 0.11658037499999807,
                  "durationTicks": 3600,
                  "midi": 34,
                  "name": "A#1",
                  "ticks": 2558400,
                  "time": 82.84978650000001,
                  "velocity": 0.7952755905511811
              },
              {
                  "duration": 0.07772024999999871,
                  "durationTicks": 2400,
                  "midi": 72,
                  "name": "C5",
                  "ticks": 2558400,
                  "time": 82.84978650000001,
                  "velocity": 0.7401574803149606
              },
              {
                  "duration": 0.03886012499999936,
                  "durationTicks": 1200,
                  "midi": 34,
                  "name": "A#1",
                  "ticks": 2563200,
                  "time": 83.005227,
                  "velocity": 0.9291338582677166
              },
              {
                  "duration": 0.07772024999999871,
                  "durationTicks": 2400,
                  "midi": 69,
                  "name": "A4",
                  "ticks": 2563200,
                  "time": 83.005227,
                  "velocity": 0.9133858267716536
              },
              {
                  "duration": 0.07772024999999871,
                  "durationTicks": 2400,
                  "midi": 67,
                  "name": "G4",
                  "ticks": 2568000,
                  "time": 83.1606675,
                  "velocity": 0.8267716535433071
              },
              {
                  "duration": 0.11658037499999807,
                  "durationTicks": 3600,
                  "midi": 31,
                  "name": "G1",
                  "ticks": 2572800,
                  "time": 83.316108,
                  "velocity": 0.6456692913385826
              },
              {
                  "duration": 0.11658037499999807,
                  "durationTicks": 3600,
                  "midi": 43,
                  "name": "G2",
                  "ticks": 2572800,
                  "time": 83.316108,
                  "velocity": 0.7007874015748031
              },
              {
                  "duration": 0.11658037499999807,
                  "durationTicks": 3600,
                  "midi": 58,
                  "name": "A#3",
                  "ticks": 2572800,
                  "time": 83.316108,
                  "velocity": 0.6456692913385826
              },
              {
                  "duration": 0.03886012499999936,
                  "durationTicks": 1200,
                  "midi": 69,
                  "name": "A4",
                  "ticks": 2572800,
                  "time": 83.316108,
                  "velocity": 0.6929133858267716
              },
              {
                  "duration": 0.11658037499999807,
                  "durationTicks": 3600,
                  "midi": 31,
                  "name": "G1",
                  "ticks": 2577600,
                  "time": 83.47154850000001,
                  "velocity": 0.7716535433070866
              },
              {
                  "duration": 0.07772024999999871,
                  "durationTicks": 2400,
                  "midi": 43,
                  "name": "G2",
                  "ticks": 2577600,
                  "time": 83.47154850000001,
                  "velocity": 0.8188976377952756
              },
              {
                  "duration": 0.11658037499999807,
                  "durationTicks": 3600,
                  "midi": 58,
                  "name": "A#3",
                  "ticks": 2577600,
                  "time": 83.47154850000001,
                  "velocity": 0.7637795275590551
              },
              {
                  "duration": 0.07772024999999871,
                  "durationTicks": 2400,
                  "midi": 72,
                  "name": "C5",
                  "ticks": 2577600,
                  "time": 83.47154850000001,
                  "velocity": 0.8818897637795275
              },
              {
                  "duration": 0.03886012499999936,
                  "durationTicks": 1200,
                  "midi": 31,
                  "name": "G1",
                  "ticks": 2582400,
                  "time": 83.62698900000001,
                  "velocity": 0.6614173228346457
              },
              {
                  "duration": 0.03886012499999936,
                  "durationTicks": 1200,
                  "midi": 58,
                  "name": "A#3",
                  "ticks": 2582400,
                  "time": 83.62698900000001,
                  "velocity": 0.6614173228346457
              },
              {
                  "duration": 0.07772024999999871,
                  "durationTicks": 2400,
                  "midi": 74,
                  "name": "D5",
                  "ticks": 2582400,
                  "time": 83.62698900000001,
                  "velocity": 0.7480314960629921
              },
              {
                  "duration": 0.07772024999999871,
                  "durationTicks": 2400,
                  "midi": 72,
                  "name": "C5",
                  "ticks": 2587200,
                  "time": 83.7824295,
                  "velocity": 0.7716535433070866
              },
              {
                  "duration": 0.11658037499999807,
                  "durationTicks": 3600,
                  "midi": 31,
                  "name": "G1",
                  "ticks": 2596800,
                  "time": 84.0933105,
                  "velocity": 0.8031496062992126
              },
              {
                  "duration": 0.07772024999999871,
                  "durationTicks": 2400,
                  "midi": 69,
                  "name": "A4",
                  "ticks": 2596800,
                  "time": 84.0933105,
                  "velocity": 0.7007874015748031
              },
              {
                  "duration": 0.11658037499999807,
                  "durationTicks": 3600,
                  "midi": 36,
                  "name": "C2",
                  "ticks": 2606400,
                  "time": 84.40419150000001,
                  "velocity": 0.8503937007874016
              },
              {
                  "duration": 0.07772024999999871,
                  "durationTicks": 2400,
                  "midi": 67,
                  "name": "G4",
                  "ticks": 2606400,
                  "time": 84.40419150000001,
                  "velocity": 0.84251968503937
              },
              {
                  "duration": 0.11658037499999807,
                  "durationTicks": 3600,
                  "midi": 36,
                  "name": "C2",
                  "ticks": 2611200,
                  "time": 84.55963200000001,
                  "velocity": 0.8346456692913385
              },
              {
                  "duration": 0.11658037499999807,
                  "durationTicks": 3600,
                  "midi": 36,
                  "name": "C2",
                  "ticks": 2616000,
                  "time": 84.7150725,
                  "velocity": 0.9606299212598425
              },
              {
                  "duration": 0.07772024999999871,
                  "durationTicks": 2400,
                  "midi": 69,
                  "name": "A4",
                  "ticks": 2616000,
                  "time": 84.7150725,
                  "velocity": 0.9606299212598425
              },
              {
                  "duration": 0.11658037499999807,
                  "durationTicks": 3600,
                  "midi": 36,
                  "name": "C2",
                  "ticks": 2620800,
                  "time": 84.870513,
                  "velocity": 0.8503937007874016
              },
              {
                  "duration": 0.07772024999999871,
                  "durationTicks": 2400,
                  "midi": 67,
                  "name": "G4",
                  "ticks": 2620800,
                  "time": 84.870513,
                  "velocity": 0.8188976377952756
              },
              {
                  "duration": 0.07772024999999871,
                  "durationTicks": 2400,
                  "midi": 36,
                  "name": "C2",
                  "ticks": 2625600,
                  "time": 85.0259535,
                  "velocity": 0.8503937007874016
              },
              {
                  "duration": 0.07772024999999871,
                  "durationTicks": 2400,
                  "midi": 65,
                  "name": "F4",
                  "ticks": 2625600,
                  "time": 85.0259535,
                  "velocity": 0.8110236220472441
              },
              {
                  "duration": 0.11658037499999807,
                  "durationTicks": 3600,
                  "midi": 67,
                  "name": "G4",
                  "ticks": 2630400,
                  "time": 85.18139400000001,
                  "velocity": 0.8503937007874016
              },
              {
                  "duration": 0.07772024999999871,
                  "durationTicks": 2400,
                  "midi": 65,
                  "name": "F4",
                  "ticks": 2635200,
                  "time": 85.33683450000001,
                  "velocity": 0.7559055118110236
              },
              {
                  "duration": 0.07772024999999871,
                  "durationTicks": 2400,
                  "midi": 62,
                  "name": "D4",
                  "ticks": 2640000,
                  "time": 85.492275,
                  "velocity": 0.9133858267716536
              },
              {
                  "duration": 0.07772024999999871,
                  "durationTicks": 2400,
                  "midi": 60,
                  "name": "C4",
                  "ticks": 2644800,
                  "time": 85.6477155,
                  "velocity": 0.8188976377952756
              },
              {
                  "duration": 0.11658037499999807,
                  "durationTicks": 3600,
                  "midi": 38,
                  "name": "D2",
                  "ticks": 2649600,
                  "time": 85.803156,
                  "velocity": 0.7401574803149606
              },
              {
                  "duration": 0.11658037499999807,
                  "durationTicks": 3600,
                  "midi": 65,
                  "name": "F4",
                  "ticks": 2649600,
                  "time": 85.803156,
                  "velocity": 0.6141732283464567
              },
              {
                  "duration": 0.03886012499999936,
                  "durationTicks": 1200,
                  "midi": 81,
                  "name": "A5",
                  "ticks": 2649600,
                  "time": 85.803156,
                  "velocity": 0.7401574803149606
              },
              {
                  "duration": 0.11658037500001228,
                  "durationTicks": 3600,
                  "midi": 38,
                  "name": "D2",
                  "ticks": 2654400,
                  "time": 85.9585965,
                  "velocity": 0.8582677165354331
              },
              {
                  "duration": 0.11658037500001228,
                  "durationTicks": 3600,
                  "midi": 65,
                  "name": "F4",
                  "ticks": 2654400,
                  "time": 85.9585965,
                  "velocity": 0.7244094488188977
              },
              {
                  "duration": 0.11658037500001228,
                  "durationTicks": 3600,
                  "midi": 84,
                  "name": "C6",
                  "ticks": 2654400,
                  "time": 85.9585965,
                  "velocity": 0.8818897637795275
              },
              {
                  "duration": 0.07772024999999871,
                  "durationTicks": 2400,
                  "midi": 38,
                  "name": "D2",
                  "ticks": 2659200,
                  "time": 86.11403700000001,
                  "velocity": 0.7559055118110236
              },
              {
                  "duration": 0.11658037499999807,
                  "durationTicks": 3600,
                  "midi": 65,
                  "name": "F4",
                  "ticks": 2659200,
                  "time": 86.11403700000001,
                  "velocity": 0.6220472440944882
              },
              {
                  "duration": 0.11658037499999807,
                  "durationTicks": 3600,
                  "midi": 86,
                  "name": "D6",
                  "ticks": 2659200,
                  "time": 86.11403700000001,
                  "velocity": 0.6929133858267716
              },
              {
                  "duration": 0.03886012499999936,
                  "durationTicks": 1200,
                  "midi": 84,
                  "name": "C6",
                  "ticks": 2659200,
                  "time": 86.11403700000001,
                  "velocity": 0.7716535433070866
              },
              {
                  "duration": 0.03886012499999936,
                  "durationTicks": 1200,
                  "midi": 65,
                  "name": "F4",
                  "ticks": 2664000,
                  "time": 86.26947750000001,
                  "velocity": 0.6220472440944882
              },
              {
                  "duration": 0.11658037499999807,
                  "durationTicks": 3600,
                  "midi": 84,
                  "name": "C6",
                  "ticks": 2664000,
                  "time": 86.26947750000001,
                  "velocity": 0.7716535433070866
              },
              {
                  "duration": 0.11658037499999807,
                  "durationTicks": 3600,
                  "midi": 84,
                  "name": "C6",
                  "ticks": 2668800,
                  "time": 86.424918,
                  "velocity": 0.84251968503937
              },
              {
                  "duration": 0.11658037499999807,
                  "durationTicks": 3600,
                  "midi": 38,
                  "name": "D2",
                  "ticks": 2673600,
                  "time": 86.5803585,
                  "velocity": 0.7716535433070866
              },
              {
                  "duration": 0.03886012499999936,
                  "durationTicks": 1200,
                  "midi": 81,
                  "name": "A5",
                  "ticks": 2673600,
                  "time": 86.5803585,
                  "velocity": 0.6850393700787402
              },
              {
                  "duration": 0.11658037499999807,
                  "durationTicks": 3600,
                  "midi": 34,
                  "name": "A#1",
                  "ticks": 2683200,
                  "time": 86.89123950000001,
                  "velocity": 0.8110236220472441
              },
              {
                  "duration": 0.07772024999999871,
                  "durationTicks": 2400,
                  "midi": 79,
                  "name": "G5",
                  "ticks": 2683200,
                  "time": 86.89123950000001,
                  "velocity": 0.7401574803149606
              },
              {
                  "duration": 0.11658037499999807,
                  "durationTicks": 3600,
                  "midi": 34,
                  "name": "A#1",
                  "ticks": 2688000,
                  "time": 87.04668000000001,
                  "velocity": 0.8031496062992126
              },
              {
                  "duration": 0.11658037499999807,
                  "durationTicks": 3600,
                  "midi": 34,
                  "name": "A#1",
                  "ticks": 2692800,
                  "time": 87.2021205,
                  "velocity": 0.9212598425196851
              },
              {
                  "duration": 0.03886012499999936,
                  "durationTicks": 1200,
                  "midi": 81,
                  "name": "A5",
                  "ticks": 2692800,
                  "time": 87.2021205,
                  "velocity": 0.9291338582677166
              },
              {
                  "duration": 0.11658037499999807,
                  "durationTicks": 3600,
                  "midi": 34,
                  "name": "A#1",
                  "ticks": 2697600,
                  "time": 87.357561,
                  "velocity": 0.8110236220472441
              },
              {
                  "duration": 0.11658037499999807,
                  "durationTicks": 3600,
                  "midi": 53,
                  "name": "F3",
                  "ticks": 2697600,
                  "time": 87.357561,
                  "velocity": 0.5905511811023622
              },
              {
                  "duration": 0.03886012499999936,
                  "durationTicks": 1200,
                  "midi": 79,
                  "name": "G5",
                  "ticks": 2697600,
                  "time": 87.357561,
                  "velocity": 0.7559055118110236
              },
              {
                  "duration": 0.11658037499999807,
                  "durationTicks": 3600,
                  "midi": 34,
                  "name": "A#1",
                  "ticks": 2702400,
                  "time": 87.5130015,
                  "velocity": 0.8110236220472441
              },
              {
                  "duration": 0.07772024999999871,
                  "durationTicks": 2400,
                  "midi": 53,
                  "name": "F3",
                  "ticks": 2702400,
                  "time": 87.5130015,
                  "velocity": 0.5905511811023622
              },
              {
                  "duration": 0.11658037499999807,
                  "durationTicks": 3600,
                  "midi": 65,
                  "name": "F4",
                  "ticks": 2702400,
                  "time": 87.5130015,
                  "velocity": 0.5748031496062992
              },
              {
                  "duration": 0.07772024999999871,
                  "durationTicks": 2400,
                  "midi": 77,
                  "name": "F5",
                  "ticks": 2702400,
                  "time": 87.5130015,
                  "velocity": 0.7401574803149606
              },
              {
                  "duration": 0.11658037500001228,
                  "durationTicks": 3600,
                  "midi": 34,
                  "name": "A#1",
                  "ticks": 2707200,
                  "time": 87.668442,
                  "velocity": 0.8818897637795275
              },
              {
                  "duration": 0.07772025000001292,
                  "durationTicks": 2400,
                  "midi": 65,
                  "name": "F4",
                  "ticks": 2707200,
                  "time": 87.668442,
                  "velocity": 0.6456692913385826
              },
              {
                  "duration": 0.07772025000001292,
                  "durationTicks": 2400,
                  "midi": 79,
                  "name": "G5",
                  "ticks": 2707200,
                  "time": 87.668442,
                  "velocity": 0.8346456692913385
              },
              {
                  "duration": 0.07772024999999871,
                  "durationTicks": 2400,
                  "midi": 77,
                  "name": "F5",
                  "ticks": 2712000,
                  "time": 87.82388250000001,
                  "velocity": 0.7086614173228346
              },
              {
                  "duration": 0.07772024999999871,
                  "durationTicks": 2400,
                  "midi": 74,
                  "name": "D5",
                  "ticks": 2716800,
                  "time": 87.97932300000001,
                  "velocity": 0.9133858267716536
              },
              {
                  "duration": 0.07772024999999871,
                  "durationTicks": 2400,
                  "midi": 72,
                  "name": "C5",
                  "ticks": 2721600,
                  "time": 88.1347635,
                  "velocity": 0.8267716535433071
              },
              {
                  "duration": 0.11658037499999807,
                  "durationTicks": 3600,
                  "midi": 31,
                  "name": "G1",
                  "ticks": 2726400,
                  "time": 88.290204,
                  "velocity": 0.8031496062992126
              },
              {
                  "duration": 0.07772024999999871,
                  "durationTicks": 2400,
                  "midi": 74,
                  "name": "D5",
                  "ticks": 2726400,
                  "time": 88.290204,
                  "velocity": 0.7874015748031497
              },
              {
                  "duration": 0.11658037499999807,
                  "durationTicks": 3600,
                  "midi": 31,
                  "name": "G1",
                  "ticks": 2731200,
                  "time": 88.4456445,
                  "velocity": 0.9212598425196851
              },
              {
                  "duration": 0.07772024999999871,
                  "durationTicks": 2400,
                  "midi": 77,
                  "name": "F5",
                  "ticks": 2731200,
                  "time": 88.4456445,
                  "velocity": 0.8976377952755905
              },
              {
                  "duration": 0.07772024999999871,
                  "durationTicks": 2400,
                  "midi": 31,
                  "name": "G1",
                  "ticks": 2736000,
                  "time": 88.60108500000001,
                  "velocity": 0.8110236220472441
              },
              {
                  "duration": 0.03886012499999936,
                  "durationTicks": 1200,
                  "midi": 79,
                  "name": "G5",
                  "ticks": 2736000,
                  "time": 88.60108500000001,
                  "velocity": 0.7952755905511811
              },
              {
                  "duration": 0.11658037499999807,
                  "durationTicks": 3600,
                  "midi": 33,
                  "name": "A1",
                  "ticks": 2740800,
                  "time": 88.75652550000001,
                  "velocity": 0.8188976377952756
              },
              {
                  "duration": 0.03886012499999936,
                  "durationTicks": 1200,
                  "midi": 77,
                  "name": "F5",
                  "ticks": 2740800,
                  "time": 88.75652550000001,
                  "velocity": 0.7716535433070866
              },
              {
                  "duration": 0.11658037499999807,
                  "durationTicks": 3600,
                  "midi": 33,
                  "name": "A1",
                  "ticks": 2745600,
                  "time": 88.911966,
                  "velocity": 0.889763779527559
              },
              {
                  "duration": 0.07772024999999871,
                  "durationTicks": 2400,
                  "midi": 33,
                  "name": "A1",
                  "ticks": 2750400,
                  "time": 89.0674065,
                  "velocity": 0.7952755905511811
              },
              {
                  "duration": 0.07772024999999871,
                  "durationTicks": 2400,
                  "midi": 79,
                  "name": "G5",
                  "ticks": 2750400,
                  "time": 89.0674065,
                  "velocity": 0.7795275590551181
              },
              {
                  "duration": 0.11658037499999807,
                  "durationTicks": 3600,
                  "midi": 34,
                  "name": "A#1",
                  "ticks": 2755200,
                  "time": 89.222847,
                  "velocity": 0.937007874015748
              },
              {
                  "duration": 0.03886012499999936,
                  "durationTicks": 1200,
                  "midi": 81,
                  "name": "A5",
                  "ticks": 2755200,
                  "time": 89.222847,
                  "velocity": 0.889763779527559
              },
              {
                  "duration": 0.11658037500001228,
                  "durationTicks": 3600,
                  "midi": 34,
                  "name": "A#1",
                  "ticks": 2760000,
                  "time": 89.3782875,
                  "velocity": 0.8267716535433071
              },
              {
                  "duration": 0.03886012499999936,
                  "durationTicks": 1200,
                  "midi": 84,
                  "name": "C6",
                  "ticks": 2760000,
                  "time": 89.3782875,
                  "velocity": 0.7401574803149606
              },
              {
                  "duration": 0.11658037499999807,
                  "durationTicks": 3600,
                  "midi": 36,
                  "name": "C2",
                  "ticks": 2769600,
                  "time": 89.68916850000001,
                  "velocity": 0.9606299212598425
              },
              {
                  "duration": 0.11658037499999807,
                  "durationTicks": 3600,
                  "midi": 36,
                  "name": "C2",
                  "ticks": 2774400,
                  "time": 89.844609,
                  "velocity": 0.8503937007874016
              },
              {
                  "duration": 0.03886012499999936,
                  "durationTicks": 1200,
                  "midi": 84,
                  "name": "C6",
                  "ticks": 2774400,
                  "time": 89.844609,
                  "velocity": 0.7716535433070866
              },
              {
                  "duration": 0.07772024999999871,
                  "durationTicks": 2400,
                  "midi": 81,
                  "name": "A5",
                  "ticks": 2779200,
                  "time": 90.0000495,
                  "velocity": 0.8110236220472441
              },
              {
                  "duration": 0.11658037499999807,
                  "durationTicks": 3600,
                  "midi": 36,
                  "name": "C2",
                  "ticks": 2784000,
                  "time": 90.15549,
                  "velocity": 0.8976377952755905
              },
              {
                  "duration": 0.11658037499999807,
                  "durationTicks": 3600,
                  "midi": 67,
                  "name": "G4",
                  "ticks": 2784000,
                  "time": 90.15549,
                  "velocity": 0.8976377952755905
              },
              {
                  "duration": 0.07772024999999871,
                  "durationTicks": 2400,
                  "midi": 77,
                  "name": "F5",
                  "ticks": 2788800,
                  "time": 90.31093050000001,
                  "velocity": 0.7952755905511811
              },
              {
                  "duration": 0.11658037499999807,
                  "durationTicks": 3600,
                  "midi": 36,
                  "name": "C2",
                  "ticks": 2793600,
                  "time": 90.46637100000001,
                  "velocity": 0.9291338582677166
              },
              {
                  "duration": 0.07772024999999871,
                  "durationTicks": 2400,
                  "midi": 74,
                  "name": "D5",
                  "ticks": 2793600,
                  "time": 90.46637100000001,
                  "velocity": 0.8818897637795275
              },
              {
                  "duration": 0.03886012499999936,
                  "durationTicks": 1200,
                  "midi": 36,
                  "name": "C2",
                  "ticks": 2798400,
                  "time": 90.6218115,
                  "velocity": 0.8188976377952756
              },
              {
                  "duration": 0.07772024999999871,
                  "durationTicks": 2400,
                  "midi": 72,
                  "name": "C5",
                  "ticks": 2798400,
                  "time": 90.6218115,
                  "velocity": 0.7401574803149606
              },
              {
                  "duration": 0.11658037499999807,
                  "durationTicks": 3600,
                  "midi": 41,
                  "name": "F2",
                  "ticks": 2803200,
                  "time": 90.777252,
                  "velocity": 0.7322834645669292
              },
              {
                  "duration": 0.11658037499999807,
                  "durationTicks": 3600,
                  "midi": 48,
                  "name": "C3",
                  "ticks": 2803200,
                  "time": 90.777252,
                  "velocity": 0.6141732283464567
              },
              {
                  "duration": 0.11658037499999807,
                  "durationTicks": 3600,
                  "midi": 57,
                  "name": "A3",
                  "ticks": 2803200,
                  "time": 90.777252,
                  "velocity": 0.7244094488188977
              },
              {
                  "duration": 0.11658037499999807,
                  "durationTicks": 3600,
                  "midi": 41,
                  "name": "F2",
                  "ticks": 2808000,
                  "time": 90.9326925,
                  "velocity": 0.8503937007874016
              },
              {
                  "duration": 0.07772024999999871,
                  "durationTicks": 2400,
                  "midi": 48,
                  "name": "C3",
                  "ticks": 2808000,
                  "time": 90.9326925,
                  "velocity": 0.7401574803149606
              },
              {
                  "duration": 0.11658037499999807,
                  "durationTicks": 3600,
                  "midi": 57,
                  "name": "A3",
                  "ticks": 2808000,
                  "time": 90.9326925,
                  "velocity": 0.8503937007874016
              },
              {
                  "duration": 0.11658037499999807,
                  "durationTicks": 3600,
                  "midi": 84,
                  "name": "C6",
                  "ticks": 2808000,
                  "time": 90.9326925,
                  "velocity": 0.8031496062992126
              },
              {
                  "duration": 0.03886012499999936,
                  "durationTicks": 1200,
                  "midi": 79,
                  "name": "G5",
                  "ticks": 2812800,
                  "time": 91.088133,
                  "velocity": 0.7401574803149606
              },
              {
                  "duration": 0.11658037499999807,
                  "durationTicks": 3600,
                  "midi": 29,
                  "name": "F1",
                  "ticks": 2817600,
                  "time": 91.24357350000001,
                  "velocity": 0.6456692913385826
              },
              {
                  "duration": 0.03886012499999936,
                  "durationTicks": 1200,
                  "midi": 81,
                  "name": "A5",
                  "ticks": 2817600,
                  "time": 91.24357350000001,
                  "velocity": 0.7559055118110236
              },
              {
                  "duration": 0.07772024999999871,
                  "durationTicks": 2400,
                  "midi": 29,
                  "name": "F1",
                  "ticks": 2822400,
                  "time": 91.39901400000001,
                  "velocity": 0.7086614173228346
              },
              {
                  "duration": 0.11658037499999807,
                  "durationTicks": 3600,
                  "midi": 29,
                  "name": "F1",
                  "ticks": 2827200,
                  "time": 91.5544545,
                  "velocity": 0.6929133858267716
              },
              {
                  "duration": 0.11658037499999807,
                  "durationTicks": 3600,
                  "midi": 41,
                  "name": "F2",
                  "ticks": 2827200,
                  "time": 91.5544545,
                  "velocity": 0.7007874015748031
              },
              {
                  "duration": 0.11658037499999807,
                  "durationTicks": 3600,
                  "midi": 57,
                  "name": "A3",
                  "ticks": 2827200,
                  "time": 91.5544545,
                  "velocity": 0.5905511811023622
              },
              {
                  "duration": 0.07772024999999871,
                  "durationTicks": 2400,
                  "midi": 77,
                  "name": "F5",
                  "ticks": 2827200,
                  "time": 91.5544545,
                  "velocity": 0.6771653543307087
              },
              {
                  "duration": 0.07772024999999871,
                  "durationTicks": 2400,
                  "midi": 29,
                  "name": "F1",
                  "ticks": 2832000,
                  "time": 91.709895,
                  "velocity": 0.8267716535433071
              },
              {
                  "duration": 0.11658037499999807,
                  "durationTicks": 3600,
                  "midi": 34,
                  "name": "A#1",
                  "ticks": 2836800,
                  "time": 91.8653355,
                  "velocity": 0.8188976377952756
              },
              {
                  "duration": 0.07772024999999871,
                  "durationTicks": 2400,
                  "midi": 74,
                  "name": "D5",
                  "ticks": 2836800,
                  "time": 91.8653355,
                  "velocity": 0.8188976377952756
              },
              {
                  "duration": 0.11658037499999807,
                  "durationTicks": 3600,
                  "midi": 34,
                  "name": "A#1",
                  "ticks": 2841600,
                  "time": 92.02077600000001,
                  "velocity": 0.8031496062992126
              },
              {
                  "duration": 0.11658037499999807,
                  "durationTicks": 3600,
                  "midi": 34,
                  "name": "A#1",
                  "ticks": 2846400,
                  "time": 92.17621650000001,
                  "velocity": 0.9291338582677166
              },
              {
                  "duration": 0.07772024999999871,
                  "durationTicks": 2400,
                  "midi": 77,
                  "name": "F5",
                  "ticks": 2846400,
                  "time": 92.17621650000001,
                  "velocity": 0.8346456692913385
              },
              {
                  "duration": 0.11658037499999807,
                  "durationTicks": 3600,
                  "midi": 34,
                  "name": "A#1",
                  "ticks": 2851200,
                  "time": 92.331657,
                  "velocity": 0.8188976377952756
              },
              {
                  "duration": 0.07772024999999871,
                  "durationTicks": 2400,
                  "midi": 74,
                  "name": "D5",
                  "ticks": 2851200,
                  "time": 92.331657,
                  "velocity": 0.8031496062992126
              },
              {
                  "duration": 0.11658037499999807,
                  "durationTicks": 3600,
                  "midi": 34,
                  "name": "A#1",
                  "ticks": 2856000,
                  "time": 92.4870975,
                  "velocity": 0.8188976377952756
              },
              {
                  "duration": 0.11658037499999807,
                  "durationTicks": 3600,
                  "midi": 53,
                  "name": "F3",
                  "ticks": 2856000,
                  "time": 92.4870975,
                  "velocity": 0.5669291338582677
              },
              {
                  "duration": 0.07772024999999871,
                  "durationTicks": 2400,
                  "midi": 72,
                  "name": "C5",
                  "ticks": 2856000,
                  "time": 92.4870975,
                  "velocity": 0.7637795275590551
              },
              {
                  "duration": 0.11658037499999807,
                  "durationTicks": 3600,
                  "midi": 34,
                  "name": "A#1",
                  "ticks": 2860800,
                  "time": 92.642538,
                  "velocity": 0.889763779527559
              },
              {
                  "duration": 0.03886012499999936,
                  "durationTicks": 1200,
                  "midi": 53,
                  "name": "F3",
                  "ticks": 2860800,
                  "time": 92.642538,
                  "velocity": 0.6456692913385826
              },
              {
                  "duration": 0.07772024999999871,
                  "durationTicks": 2400,
                  "midi": 74,
                  "name": "D5",
                  "ticks": 2860800,
                  "time": 92.642538,
                  "velocity": 0.8110236220472441
              },
              {
                  "duration": 0.11658037500001228,
                  "durationTicks": 3600,
                  "midi": 34,
                  "name": "A#1",
                  "ticks": 2865600,
                  "time": 92.7979785,
                  "velocity": 0.7952755905511811
              },
              {
                  "duration": 0.07772025000001292,
                  "durationTicks": 2400,
                  "midi": 72,
                  "name": "C5",
                  "ticks": 2865600,
                  "time": 92.7979785,
                  "velocity": 0.7401574803149606
              },
              {
                  "duration": 0.03886012499999936,
                  "durationTicks": 1200,
                  "midi": 34,
                  "name": "A#1",
                  "ticks": 2870400,
                  "time": 92.95341900000001,
                  "velocity": 0.9291338582677166
              },
              {
                  "duration": 0.07772024999999871,
                  "durationTicks": 2400,
                  "midi": 69,
                  "name": "A4",
                  "ticks": 2870400,
                  "time": 92.95341900000001,
                  "velocity": 0.9133858267716536
              },
              {
                  "duration": 0.07772024999999871,
                  "durationTicks": 2400,
                  "midi": 67,
                  "name": "G4",
                  "ticks": 2875200,
                  "time": 93.10885950000001,
                  "velocity": 0.8267716535433071
              },
              {
                  "duration": 0.11658037499999807,
                  "durationTicks": 3600,
                  "midi": 31,
                  "name": "G1",
                  "ticks": 2880000,
                  "time": 93.2643,
                  "velocity": 0.6456692913385826
              },
              {
                  "duration": 0.11658037499999807,
                  "durationTicks": 3600,
                  "midi": 43,
                  "name": "G2",
                  "ticks": 2880000,
                  "time": 93.2643,
                  "velocity": 0.7007874015748031
              },
              {
                  "duration": 0.11658037499999807,
                  "durationTicks": 3600,
                  "midi": 58,
                  "name": "A#3",
                  "ticks": 2880000,
                  "time": 93.2643,
                  "velocity": 0.6456692913385826
              },
              {
                  "duration": 0.03886012499999936,
                  "durationTicks": 1200,
                  "midi": 69,
                  "name": "A4",
                  "ticks": 2880000,
                  "time": 93.2643,
                  "velocity": 0.6929133858267716
              },
              {
                  "duration": 0.11658037499999807,
                  "durationTicks": 3600,
                  "midi": 31,
                  "name": "G1",
                  "ticks": 2884800,
                  "time": 93.4197405,
                  "velocity": 0.7716535433070866
              },
              {
                  "duration": 0.07772024999999871,
                  "durationTicks": 2400,
                  "midi": 43,
                  "name": "G2",
                  "ticks": 2884800,
                  "time": 93.4197405,
                  "velocity": 0.8188976377952756
              },
              {
                  "duration": 0.11658037499999807,
                  "durationTicks": 3600,
                  "midi": 58,
                  "name": "A#3",
                  "ticks": 2884800,
                  "time": 93.4197405,
                  "velocity": 0.7637795275590551
              },
              {
                  "duration": 0.07772024999999871,
                  "durationTicks": 2400,
                  "midi": 72,
                  "name": "C5",
                  "ticks": 2884800,
                  "time": 93.4197405,
                  "velocity": 0.8818897637795275
              },
              {
                  "duration": 0.03886012499999936,
                  "durationTicks": 1200,
                  "midi": 31,
                  "name": "G1",
                  "ticks": 2889600,
                  "time": 93.575181,
                  "velocity": 0.6614173228346457
              },
              {
                  "duration": 0.03886012499999936,
                  "durationTicks": 1200,
                  "midi": 58,
                  "name": "A#3",
                  "ticks": 2889600,
                  "time": 93.575181,
                  "velocity": 0.6614173228346457
              },
              {
                  "duration": 0.07772024999999871,
                  "durationTicks": 2400,
                  "midi": 74,
                  "name": "D5",
                  "ticks": 2889600,
                  "time": 93.575181,
                  "velocity": 0.7480314960629921
              },
              {
                  "duration": 0.07772024999999871,
                  "durationTicks": 2400,
                  "midi": 72,
                  "name": "C5",
                  "ticks": 2894400,
                  "time": 93.73062150000001,
                  "velocity": 0.7716535433070866
              },
              {
                  "duration": 0.11658037499999807,
                  "durationTicks": 3600,
                  "midi": 31,
                  "name": "G1",
                  "ticks": 2904000,
                  "time": 94.0415025,
                  "velocity": 0.8031496062992126
              },
              {
                  "duration": 0.07772024999999871,
                  "durationTicks": 2400,
                  "midi": 69,
                  "name": "A4",
                  "ticks": 2904000,
                  "time": 94.0415025,
                  "velocity": 0.7007874015748031
              },
              {
                  "duration": 0.11658037499999807,
                  "durationTicks": 3600,
                  "midi": 36,
                  "name": "C2",
                  "ticks": 2913600,
                  "time": 94.3523835,
                  "velocity": 0.8503937007874016
              },
              {
                  "duration": 0.07772024999999871,
                  "durationTicks": 2400,
                  "midi": 67,
                  "name": "G4",
                  "ticks": 2913600,
                  "time": 94.3523835,
                  "velocity": 0.84251968503937
              },
              {
                  "duration": 0.11658037500001228,
                  "durationTicks": 3600,
                  "midi": 36,
                  "name": "C2",
                  "ticks": 2918400,
                  "time": 94.507824,
                  "velocity": 0.8346456692913385
              },
              {
                  "duration": 0.11658037499999807,
                  "durationTicks": 3600,
                  "midi": 36,
                  "name": "C2",
                  "ticks": 2923200,
                  "time": 94.66326450000001,
                  "velocity": 0.9606299212598425
              },
              {
                  "duration": 0.07772024999999871,
                  "durationTicks": 2400,
                  "midi": 69,
                  "name": "A4",
                  "ticks": 2923200,
                  "time": 94.66326450000001,
                  "velocity": 0.9606299212598425
              },
              {
                  "duration": 0.11658037499999807,
                  "durationTicks": 3600,
                  "midi": 36,
                  "name": "C2",
                  "ticks": 2928000,
                  "time": 94.81870500000001,
                  "velocity": 0.8503937007874016
              },
              {
                  "duration": 0.07772024999999871,
                  "durationTicks": 2400,
                  "midi": 67,
                  "name": "G4",
                  "ticks": 2928000,
                  "time": 94.81870500000001,
                  "velocity": 0.8188976377952756
              },
              {
                  "duration": 0.07772024999999871,
                  "durationTicks": 2400,
                  "midi": 36,
                  "name": "C2",
                  "ticks": 2932800,
                  "time": 94.9741455,
                  "velocity": 0.8503937007874016
              },
              {
                  "duration": 0.07772024999999871,
                  "durationTicks": 2400,
                  "midi": 65,
                  "name": "F4",
                  "ticks": 2932800,
                  "time": 94.9741455,
                  "velocity": 0.8110236220472441
              },
              {
                  "duration": 0.11658037499999807,
                  "durationTicks": 3600,
                  "midi": 67,
                  "name": "G4",
                  "ticks": 2937600,
                  "time": 95.129586,
                  "velocity": 0.8503937007874016
              },
              {
                  "duration": 0.07772024999999871,
                  "durationTicks": 2400,
                  "midi": 65,
                  "name": "F4",
                  "ticks": 2942400,
                  "time": 95.2850265,
                  "velocity": 0.7559055118110236
              },
              {
                  "duration": 0.07772024999999871,
                  "durationTicks": 2400,
                  "midi": 62,
                  "name": "D4",
                  "ticks": 2947200,
                  "time": 95.44046700000001,
                  "velocity": 0.9133858267716536
              },
              {
                  "duration": 0.07772024999999871,
                  "durationTicks": 2400,
                  "midi": 60,
                  "name": "C4",
                  "ticks": 2952000,
                  "time": 95.59590750000001,
                  "velocity": 0.8188976377952756
              },
              {
                  "duration": 0.11658037499999807,
                  "durationTicks": 3600,
                  "midi": 38,
                  "name": "D2",
                  "ticks": 2956800,
                  "time": 95.75134800000001,
                  "velocity": 0.7401574803149606
              },
              {
                  "duration": 0.11658037499999807,
                  "durationTicks": 3600,
                  "midi": 65,
                  "name": "F4",
                  "ticks": 2956800,
                  "time": 95.75134800000001,
                  "velocity": 0.6141732283464567
              },
              {
                  "duration": 0.03886012499999936,
                  "durationTicks": 1200,
                  "midi": 81,
                  "name": "A5",
                  "ticks": 2956800,
                  "time": 95.75134800000001,
                  "velocity": 0.7401574803149606
              },
              {
                  "duration": 0.11658037499999807,
                  "durationTicks": 3600,
                  "midi": 38,
                  "name": "D2",
                  "ticks": 2961600,
                  "time": 95.9067885,
                  "velocity": 0.8582677165354331
              },
              {
                  "duration": 0.11658037499999807,
                  "durationTicks": 3600,
                  "midi": 65,
                  "name": "F4",
                  "ticks": 2961600,
                  "time": 95.9067885,
                  "velocity": 0.7244094488188977
              },
              {
                  "duration": 0.11658037499999807,
                  "durationTicks": 3600,
                  "midi": 84,
                  "name": "C6",
                  "ticks": 2961600,
                  "time": 95.9067885,
                  "velocity": 0.8818897637795275
              },
              {
                  "duration": 0.07772024999999871,
                  "durationTicks": 2400,
                  "midi": 38,
                  "name": "D2",
                  "ticks": 2966400,
                  "time": 96.062229,
                  "velocity": 0.7559055118110236
              },
              {
                  "duration": 0.11658037499999807,
                  "durationTicks": 3600,
                  "midi": 65,
                  "name": "F4",
                  "ticks": 2966400,
                  "time": 96.062229,
                  "velocity": 0.6220472440944882
              },
              {
                  "duration": 0.03886012499999936,
                  "durationTicks": 1200,
                  "midi": 84,
                  "name": "C6",
                  "ticks": 2966400,
                  "time": 96.062229,
                  "velocity": 0.7716535433070866
              },
              {
                  "duration": 0.11658037499999807,
                  "durationTicks": 3600,
                  "midi": 86,
                  "name": "D6",
                  "ticks": 2966400,
                  "time": 96.062229,
                  "velocity": 0.6929133858267716
              },
              {
                  "duration": 0.03886012499999936,
                  "durationTicks": 1200,
                  "midi": 65,
                  "name": "F4",
                  "ticks": 2971200,
                  "time": 96.2176695,
                  "velocity": 0.6220472440944882
              },
              {
                  "duration": 0.11658037500001228,
                  "durationTicks": 3600,
                  "midi": 84,
                  "name": "C6",
                  "ticks": 2971200,
                  "time": 96.2176695,
                  "velocity": 0.7716535433070866
              },
              {
                  "duration": 0.11658037499999807,
                  "durationTicks": 3600,
                  "midi": 84,
                  "name": "C6",
                  "ticks": 2976000,
                  "time": 96.37311000000001,
                  "velocity": 0.84251968503937
              },
              {
                  "duration": 0.11658037499999807,
                  "durationTicks": 3600,
                  "midi": 38,
                  "name": "D2",
                  "ticks": 2980800,
                  "time": 96.52855050000001,
                  "velocity": 0.7716535433070866
              },
              {
                  "duration": 0.03886012499999936,
                  "durationTicks": 1200,
                  "midi": 81,
                  "name": "A5",
                  "ticks": 2980800,
                  "time": 96.52855050000001,
                  "velocity": 0.6850393700787402
              },
              {
                  "duration": 0.11658037499999807,
                  "durationTicks": 3600,
                  "midi": 34,
                  "name": "A#1",
                  "ticks": 2990400,
                  "time": 96.8394315,
                  "velocity": 0.8110236220472441
              },
              {
                  "duration": 0.07772024999999871,
                  "durationTicks": 2400,
                  "midi": 79,
                  "name": "G5",
                  "ticks": 2990400,
                  "time": 96.8394315,
                  "velocity": 0.7401574803149606
              },
              {
                  "duration": 0.11658037499999807,
                  "durationTicks": 3600,
                  "midi": 34,
                  "name": "A#1",
                  "ticks": 2995200,
                  "time": 96.994872,
                  "velocity": 0.8031496062992126
              },
              {
                  "duration": 0.11658037499999807,
                  "durationTicks": 3600,
                  "midi": 34,
                  "name": "A#1",
                  "ticks": 3000000,
                  "time": 97.15031250000001,
                  "velocity": 0.9212598425196851
              },
              {
                  "duration": 0.03886012499999936,
                  "durationTicks": 1200,
                  "midi": 81,
                  "name": "A5",
                  "ticks": 3000000,
                  "time": 97.15031250000001,
                  "velocity": 0.9291338582677166
              },
              {
                  "duration": 0.11658037499999807,
                  "durationTicks": 3600,
                  "midi": 34,
                  "name": "A#1",
                  "ticks": 3004800,
                  "time": 97.30575300000001,
                  "velocity": 0.8110236220472441
              },
              {
                  "duration": 0.11658037499999807,
                  "durationTicks": 3600,
                  "midi": 53,
                  "name": "F3",
                  "ticks": 3004800,
                  "time": 97.30575300000001,
                  "velocity": 0.5905511811023622
              },
              {
                  "duration": 0.03886012499999936,
                  "durationTicks": 1200,
                  "midi": 79,
                  "name": "G5",
                  "ticks": 3004800,
                  "time": 97.30575300000001,
                  "velocity": 0.7559055118110236
              },
              {
                  "duration": 0.11658037499999807,
                  "durationTicks": 3600,
                  "midi": 34,
                  "name": "A#1",
                  "ticks": 3009600,
                  "time": 97.46119350000001,
                  "velocity": 0.8110236220472441
              },
              {
                  "duration": 0.07772024999999871,
                  "durationTicks": 2400,
                  "midi": 53,
                  "name": "F3",
                  "ticks": 3009600,
                  "time": 97.46119350000001,
                  "velocity": 0.5905511811023622
              },
              {
                  "duration": 0.11658037499999807,
                  "durationTicks": 3600,
                  "midi": 65,
                  "name": "F4",
                  "ticks": 3009600,
                  "time": 97.46119350000001,
                  "velocity": 0.5748031496062992
              },
              {
                  "duration": 0.07772024999999871,
                  "durationTicks": 2400,
                  "midi": 77,
                  "name": "F5",
                  "ticks": 3009600,
                  "time": 97.46119350000001,
                  "velocity": 0.7401574803149606
              },
              {
                  "duration": 0.11658037499999807,
                  "durationTicks": 3600,
                  "midi": 34,
                  "name": "A#1",
                  "ticks": 3014400,
                  "time": 97.616634,
                  "velocity": 0.8818897637795275
              },
              {
                  "duration": 0.07772024999999871,
                  "durationTicks": 2400,
                  "midi": 65,
                  "name": "F4",
                  "ticks": 3014400,
                  "time": 97.616634,
                  "velocity": 0.6456692913385826
              },
              {
                  "duration": 0.07772024999999871,
                  "durationTicks": 2400,
                  "midi": 79,
                  "name": "G5",
                  "ticks": 3014400,
                  "time": 97.616634,
                  "velocity": 0.8346456692913385
              },
              {
                  "duration": 0.07772024999999871,
                  "durationTicks": 2400,
                  "midi": 77,
                  "name": "F5",
                  "ticks": 3019200,
                  "time": 97.7720745,
                  "velocity": 0.7086614173228346
              },
              {
                  "duration": 0.07772025000001292,
                  "durationTicks": 2400,
                  "midi": 74,
                  "name": "D5",
                  "ticks": 3024000,
                  "time": 97.927515,
                  "velocity": 0.9133858267716536
              },
              {
                  "duration": 0.07772024999999871,
                  "durationTicks": 2400,
                  "midi": 72,
                  "name": "C5",
                  "ticks": 3028800,
                  "time": 98.08295550000001,
                  "velocity": 0.8267716535433071
              },
              {
                  "duration": 0.11658037499999807,
                  "durationTicks": 3600,
                  "midi": 31,
                  "name": "G1",
                  "ticks": 3033600,
                  "time": 98.23839600000001,
                  "velocity": 0.8031496062992126
              },
              {
                  "duration": 0.07772024999999871,
                  "durationTicks": 2400,
                  "midi": 74,
                  "name": "D5",
                  "ticks": 3033600,
                  "time": 98.23839600000001,
                  "velocity": 0.7874015748031497
              },
              {
                  "duration": 0.11658037499999807,
                  "durationTicks": 3600,
                  "midi": 31,
                  "name": "G1",
                  "ticks": 3038400,
                  "time": 98.3938365,
                  "velocity": 0.9212598425196851
              },
              {
                  "duration": 0.07772024999999871,
                  "durationTicks": 2400,
                  "midi": 77,
                  "name": "F5",
                  "ticks": 3038400,
                  "time": 98.3938365,
                  "velocity": 0.8976377952755905
              },
              {
                  "duration": 0.07772024999999871,
                  "durationTicks": 2400,
                  "midi": 31,
                  "name": "G1",
                  "ticks": 3043200,
                  "time": 98.549277,
                  "velocity": 0.8110236220472441
              },
              {
                  "duration": 0.03886012499999936,
                  "durationTicks": 1200,
                  "midi": 79,
                  "name": "G5",
                  "ticks": 3043200,
                  "time": 98.549277,
                  "velocity": 0.7952755905511811
              },
              {
                  "duration": 0.11658037499999807,
                  "durationTicks": 3600,
                  "midi": 33,
                  "name": "A1",
                  "ticks": 3048000,
                  "time": 98.7047175,
                  "velocity": 0.8188976377952756
              },
              {
                  "duration": 0.03886012499999936,
                  "durationTicks": 1200,
                  "midi": 77,
                  "name": "F5",
                  "ticks": 3048000,
                  "time": 98.7047175,
                  "velocity": 0.7716535433070866
              },
              {
                  "duration": 0.11658037499999807,
                  "durationTicks": 3600,
                  "midi": 33,
                  "name": "A1",
                  "ticks": 3052800,
                  "time": 98.86015800000001,
                  "velocity": 0.889763779527559
              },
              {
                  "duration": 0.07772024999999871,
                  "durationTicks": 2400,
                  "midi": 33,
                  "name": "A1",
                  "ticks": 3057600,
                  "time": 99.01559850000001,
                  "velocity": 0.7952755905511811
              },
              {
                  "duration": 0.07772024999999871,
                  "durationTicks": 2400,
                  "midi": 79,
                  "name": "G5",
                  "ticks": 3057600,
                  "time": 99.01559850000001,
                  "velocity": 0.7795275590551181
              },
              {
                  "duration": 0.11658037499999807,
                  "durationTicks": 3600,
                  "midi": 34,
                  "name": "A#1",
                  "ticks": 3062400,
                  "time": 99.17103900000001,
                  "velocity": 0.937007874015748
              },
              {
                  "duration": 0.03886012499999936,
                  "durationTicks": 1200,
                  "midi": 81,
                  "name": "A5",
                  "ticks": 3062400,
                  "time": 99.17103900000001,
                  "velocity": 0.889763779527559
              },
              {
                  "duration": 0.11658037499999807,
                  "durationTicks": 3600,
                  "midi": 34,
                  "name": "A#1",
                  "ticks": 3067200,
                  "time": 99.3264795,
                  "velocity": 0.8267716535433071
              },
              {
                  "duration": 0.03886012499999936,
                  "durationTicks": 1200,
                  "midi": 84,
                  "name": "C6",
                  "ticks": 3067200,
                  "time": 99.3264795,
                  "velocity": 0.7401574803149606
              },
              {
                  "duration": 0.11658037500001228,
                  "durationTicks": 3600,
                  "midi": 36,
                  "name": "C2",
                  "ticks": 3076800,
                  "time": 99.6373605,
                  "velocity": 0.9606299212598425
              },
              {
                  "duration": 0.11658037499999807,
                  "durationTicks": 3600,
                  "midi": 36,
                  "name": "C2",
                  "ticks": 3081600,
                  "time": 99.79280100000001,
                  "velocity": 0.8503937007874016
              },
              {
                  "duration": 0.03886012499999936,
                  "durationTicks": 1200,
                  "midi": 84,
                  "name": "C6",
                  "ticks": 3081600,
                  "time": 99.79280100000001,
                  "velocity": 0.7716535433070866
              },
              {
                  "duration": 0.07772024999999871,
                  "durationTicks": 2400,
                  "midi": 81,
                  "name": "A5",
                  "ticks": 3086400,
                  "time": 99.94824150000001,
                  "velocity": 0.8110236220472441
              },
              {
                  "duration": 0.11658037499999807,
                  "durationTicks": 3600,
                  "midi": 36,
                  "name": "C2",
                  "ticks": 3091200,
                  "time": 100.103682,
                  "velocity": 0.8976377952755905
              },
              {
                  "duration": 0.11658037499999807,
                  "durationTicks": 3600,
                  "midi": 67,
                  "name": "G4",
                  "ticks": 3091200,
                  "time": 100.103682,
                  "velocity": 0.8976377952755905
              },
              {
                  "duration": 0.07772024999999871,
                  "durationTicks": 2400,
                  "midi": 77,
                  "name": "F5",
                  "ticks": 3096000,
                  "time": 100.2591225,
                  "velocity": 0.7952755905511811
              },
              {
                  "duration": 0.11658037499999807,
                  "durationTicks": 3600,
                  "midi": 36,
                  "name": "C2",
                  "ticks": 3100800,
                  "time": 100.414563,
                  "velocity": 0.9291338582677166
              },
              {
                  "duration": 0.07772024999999871,
                  "durationTicks": 2400,
                  "midi": 74,
                  "name": "D5",
                  "ticks": 3100800,
                  "time": 100.414563,
                  "velocity": 0.8818897637795275
              },
              {
                  "duration": 0.03886012499999936,
                  "durationTicks": 1200,
                  "midi": 36,
                  "name": "C2",
                  "ticks": 3105600,
                  "time": 100.57000350000001,
                  "velocity": 0.8188976377952756
              },
              {
                  "duration": 0.07772024999999871,
                  "durationTicks": 2400,
                  "midi": 72,
                  "name": "C5",
                  "ticks": 3105600,
                  "time": 100.57000350000001,
                  "velocity": 0.7401574803149606
              },
              {
                  "duration": 0.11658037499999807,
                  "durationTicks": 3600,
                  "midi": 34,
                  "name": "A#1",
                  "ticks": 3110400,
                  "time": 100.72544400000001,
                  "velocity": 0.6929133858267716
              },
              {
                  "duration": 0.11658037499999807,
                  "durationTicks": 3600,
                  "midi": 41,
                  "name": "F2",
                  "ticks": 3110400,
                  "time": 100.72544400000001,
                  "velocity": 0.6456692913385826
              },
              {
                  "duration": 0.11658037499999807,
                  "durationTicks": 3600,
                  "midi": 53,
                  "name": "F3",
                  "ticks": 3110400,
                  "time": 100.72544400000001,
                  "velocity": 0.6456692913385826
              },
              {
                  "duration": 0.11658037499999807,
                  "durationTicks": 3600,
                  "midi": 57,
                  "name": "A3",
                  "ticks": 3110400,
                  "time": 100.72544400000001,
                  "velocity": 0.6299212598425197
              },
              {
                  "duration": 0.11658037499999807,
                  "durationTicks": 3600,
                  "midi": 41,
                  "name": "F2",
                  "ticks": 3115200,
                  "time": 100.88088450000001,
                  "velocity": 0.7559055118110236
              },
              {
                  "duration": 0.11658037499999807,
                  "durationTicks": 3600,
                  "midi": 53,
                  "name": "F3",
                  "ticks": 3115200,
                  "time": 100.88088450000001,
                  "velocity": 0.7559055118110236
              },
              {
                  "duration": 0.03886012499999936,
                  "durationTicks": 1200,
                  "midi": 57,
                  "name": "A3",
                  "ticks": 3115200,
                  "time": 100.88088450000001,
                  "velocity": 0.7559055118110236
              },
              {
                  "duration": 0.11658037499999807,
                  "durationTicks": 3600,
                  "midi": 60,
                  "name": "C4",
                  "ticks": 3115200,
                  "time": 100.88088450000001,
                  "velocity": 0.6614173228346457
              },
              {
                  "duration": 0.03886012499999936,
                  "durationTicks": 1200,
                  "midi": 41,
                  "name": "F2",
                  "ticks": 3120000,
                  "time": 101.036325,
                  "velocity": 0.6535433070866141
              },
              {
                  "duration": 0.11658037499999807,
                  "durationTicks": 3600,
                  "midi": 53,
                  "name": "F3",
                  "ticks": 3120000,
                  "time": 101.036325,
                  "velocity": 0.6535433070866141
              },
              {
                  "duration": 0.11658037499999807,
                  "durationTicks": 3600,
                  "midi": 60,
                  "name": "C4",
                  "ticks": 3120000,
                  "time": 101.036325,
                  "velocity": 0.5511811023622047
              },
              {
                  "duration": 0.11658037499999807,
                  "durationTicks": 3600,
                  "midi": 41,
                  "name": "F2",
                  "ticks": 3124800,
                  "time": 101.1917655,
                  "velocity": 0.5984251968503937
              },
              {
                  "duration": 0.11658037499999807,
                  "durationTicks": 3600,
                  "midi": 53,
                  "name": "F3",
                  "ticks": 3124800,
                  "time": 101.1917655,
                  "velocity": 0.6535433070866141
              },
              {
                  "duration": 0.11658037499999807,
                  "durationTicks": 3600,
                  "midi": 57,
                  "name": "A3",
                  "ticks": 3124800,
                  "time": 101.1917655,
                  "velocity": 0.5984251968503937
              },
              {
                  "duration": 0.11658037499999807,
                  "durationTicks": 3600,
                  "midi": 60,
                  "name": "C4",
                  "ticks": 3124800,
                  "time": 101.1917655,
                  "velocity": 0.5511811023622047
              },
              {
                  "duration": 0.07772025000001292,
                  "durationTicks": 2400,
                  "midi": 41,
                  "name": "F2",
                  "ticks": 3129600,
                  "time": 101.347206,
                  "velocity": 0.6771653543307087
              },
              {
                  "duration": 0.11658037500001228,
                  "durationTicks": 3600,
                  "midi": 53,
                  "name": "F3",
                  "ticks": 3129600,
                  "time": 101.347206,
                  "velocity": 0.7244094488188977
              },
              {
                  "duration": 0.11658037500001228,
                  "durationTicks": 3600,
                  "midi": 57,
                  "name": "A3",
                  "ticks": 3129600,
                  "time": 101.347206,
                  "velocity": 0.6692913385826772
              },
              {
                  "duration": 0.11658037500001228,
                  "durationTicks": 3600,
                  "midi": 60,
                  "name": "C4",
                  "ticks": 3129600,
                  "time": 101.347206,
                  "velocity": 0.6220472440944882
              },
              {
                  "duration": 0.11658037499999807,
                  "durationTicks": 3600,
                  "midi": 53,
                  "name": "F3",
                  "ticks": 3134400,
                  "time": 101.50264650000001,
                  "velocity": 0.6299212598425197
              },
              {
                  "duration": 0.11658037499999807,
                  "durationTicks": 3600,
                  "midi": 60,
                  "name": "C4",
                  "ticks": 3134400,
                  "time": 101.50264650000001,
                  "velocity": 0.5275590551181102
              },
              {
                  "duration": 0.03886012499999936,
                  "durationTicks": 1200,
                  "midi": 57,
                  "name": "A3",
                  "ticks": 3134400,
                  "time": 101.50264650000001,
                  "velocity": 0.5748031496062992
              },
              {
                  "duration": 0.11658037499999807,
                  "durationTicks": 3600,
                  "midi": 53,
                  "name": "F3",
                  "ticks": 3139200,
                  "time": 101.65808700000001,
                  "velocity": 0.7559055118110236
              },
              {
                  "duration": 0.11658037499999807,
                  "durationTicks": 3600,
                  "midi": 57,
                  "name": "A3",
                  "ticks": 3139200,
                  "time": 101.65808700000001,
                  "velocity": 0.7086614173228346
              },
              {
                  "duration": 0.11658037499999807,
                  "durationTicks": 3600,
                  "midi": 60,
                  "name": "C4",
                  "ticks": 3139200,
                  "time": 101.65808700000001,
                  "velocity": 0.6614173228346457
              },
              {
                  "duration": 0.11658037499999807,
                  "durationTicks": 3600,
                  "midi": 65,
                  "name": "F4",
                  "ticks": 3139200,
                  "time": 101.65808700000001,
                  "velocity": 0.7244094488188977
              },
              {
                  "duration": 0.11658037499999807,
                  "durationTicks": 3600,
                  "midi": 53,
                  "name": "F3",
                  "ticks": 3144000,
                  "time": 101.8135275,
                  "velocity": 0.6535433070866141
              },
              {
                  "duration": 0.03886012499999936,
                  "durationTicks": 1200,
                  "midi": 57,
                  "name": "A3",
                  "ticks": 3144000,
                  "time": 101.8135275,
                  "velocity": 0.5984251968503937
              },
              {
                  "duration": 0.03886012499999936,
                  "durationTicks": 1200,
                  "midi": 60,
                  "name": "C4",
                  "ticks": 3144000,
                  "time": 101.8135275,
                  "velocity": 0.5511811023622047
              },
              {
                  "duration": 0.03886012499999936,
                  "durationTicks": 1200,
                  "midi": 65,
                  "name": "F4",
                  "ticks": 3144000,
                  "time": 101.8135275,
                  "velocity": 0.6220472440944882
              },
              {
                  "duration": 0.11658037499999807,
                  "durationTicks": 3600,
                  "midi": 46,
                  "name": "A#2",
                  "ticks": 3148800,
                  "time": 101.968968,
                  "velocity": 0.5039370078740157
              },
              {
                  "duration": 0.11658037499999807,
                  "durationTicks": 3600,
                  "midi": 53,
                  "name": "F3",
                  "ticks": 3148800,
                  "time": 101.968968,
                  "velocity": 0.6456692913385826
              },
              {
                  "duration": 0.11658037499999807,
                  "durationTicks": 3600,
                  "midi": 58,
                  "name": "A#3",
                  "ticks": 3148800,
                  "time": 101.968968,
                  "velocity": 0.6535433070866141
              },
              {
                  "duration": 0.11658037499999807,
                  "durationTicks": 3600,
                  "midi": 46,
                  "name": "A#2",
                  "ticks": 3153600,
                  "time": 102.1244085,
                  "velocity": 0.6220472440944882
              },
              {
                  "duration": 0.11658037499999807,
                  "durationTicks": 3600,
                  "midi": 53,
                  "name": "F3",
                  "ticks": 3153600,
                  "time": 102.1244085,
                  "velocity": 0.7559055118110236
              },
              {
                  "duration": 0.11658037499999807,
                  "durationTicks": 3600,
                  "midi": 58,
                  "name": "A#3",
                  "ticks": 3153600,
                  "time": 102.1244085,
                  "velocity": 0.7716535433070866
              },
              {
                  "duration": 0.11658037499999807,
                  "durationTicks": 3600,
                  "midi": 46,
                  "name": "A#2",
                  "ticks": 3158400,
                  "time": 102.27984900000001,
                  "velocity": 0.5196850393700787
              },
              {
                  "duration": 0.11658037499999807,
                  "durationTicks": 3600,
                  "midi": 53,
                  "name": "F3",
                  "ticks": 3158400,
                  "time": 102.27984900000001,
                  "velocity": 0.6535433070866141
              },
              {
                  "duration": 0.11658037499999807,
                  "durationTicks": 3600,
                  "midi": 58,
                  "name": "A#3",
                  "ticks": 3158400,
                  "time": 102.27984900000001,
                  "velocity": 0.6614173228346457
              },
              {
                  "duration": 0.03886012499999936,
                  "durationTicks": 1200,
                  "midi": 46,
                  "name": "A#2",
                  "ticks": 3163200,
                  "time": 102.43528950000001,
                  "velocity": 0.5196850393700787
              },
              {
                  "duration": 0.11658037499999807,
                  "durationTicks": 3600,
                  "midi": 53,
                  "name": "F3",
                  "ticks": 3163200,
                  "time": 102.43528950000001,
                  "velocity": 0.6535433070866141
              },
              {
                  "duration": 0.11658037499999807,
                  "durationTicks": 3600,
                  "midi": 58,
                  "name": "A#3",
                  "ticks": 3163200,
                  "time": 102.43528950000001,
                  "velocity": 0.6614173228346457
              },
              {
                  "duration": 0.11658037499999807,
                  "durationTicks": 3600,
                  "midi": 65,
                  "name": "F4",
                  "ticks": 3163200,
                  "time": 102.43528950000001,
                  "velocity": 0.6220472440944882
              },
              {
                  "duration": 0.11658037499999807,
                  "durationTicks": 3600,
                  "midi": 53,
                  "name": "F3",
                  "ticks": 3168000,
                  "time": 102.59073000000001,
                  "velocity": 0.7244094488188977
              },
              {
                  "duration": 0.11658037499999807,
                  "durationTicks": 3600,
                  "midi": 58,
                  "name": "A#3",
                  "ticks": 3168000,
                  "time": 102.59073000000001,
                  "velocity": 0.7401574803149606
              },
              {
                  "duration": 0.03886012499999936,
                  "durationTicks": 1200,
                  "midi": 65,
                  "name": "F4",
                  "ticks": 3168000,
                  "time": 102.59073000000001,
                  "velocity": 0.6929133858267716
              },
              {
                  "duration": 0.11658037499999807,
                  "durationTicks": 3600,
                  "midi": 53,
                  "name": "F3",
                  "ticks": 3172800,
                  "time": 102.7461705,
                  "velocity": 0.6299212598425197
              },
              {
                  "duration": 0.11658037499999807,
                  "durationTicks": 3600,
                  "midi": 58,
                  "name": "A#3",
                  "ticks": 3172800,
                  "time": 102.7461705,
                  "velocity": 0.6456692913385826
              },
              {
                  "duration": 0.11658037499999807,
                  "durationTicks": 3600,
                  "midi": 53,
                  "name": "F3",
                  "ticks": 3177600,
                  "time": 102.901611,
                  "velocity": 0.7559055118110236
              },
              {
                  "duration": 0.11658037499999807,
                  "durationTicks": 3600,
                  "midi": 65,
                  "name": "F4",
                  "ticks": 3177600,
                  "time": 102.901611,
                  "velocity": 0.7244094488188977
              },
              {
                  "duration": 0.11658037499999807,
                  "durationTicks": 3600,
                  "midi": 58,
                  "name": "A#3",
                  "ticks": 3177600,
                  "time": 102.901611,
                  "velocity": 0.7716535433070866
              },
              {
                  "duration": 0.11658037499999807,
                  "durationTicks": 3600,
                  "midi": 62,
                  "name": "D4",
                  "ticks": 3177600,
                  "time": 102.901611,
                  "velocity": 0.6771653543307087
              },
              {
                  "duration": 0.11658037500001228,
                  "durationTicks": 3600,
                  "midi": 53,
                  "name": "F3",
                  "ticks": 3182400,
                  "time": 103.0570515,
                  "velocity": 0.6535433070866141
              },
              {
                  "duration": 0.11658037500001228,
                  "durationTicks": 3600,
                  "midi": 58,
                  "name": "A#3",
                  "ticks": 3182400,
                  "time": 103.0570515,
                  "velocity": 0.6614173228346457
              },
              {
                  "duration": 0.03886012499999936,
                  "durationTicks": 1200,
                  "midi": 62,
                  "name": "D4",
                  "ticks": 3182400,
                  "time": 103.0570515,
                  "velocity": 0.5669291338582677
              },
              {
                  "duration": 0.03886012499999936,
                  "durationTicks": 1200,
                  "midi": 65,
                  "name": "F4",
                  "ticks": 3182400,
                  "time": 103.0570515,
                  "velocity": 0.6141732283464567
              },
              {
                  "duration": 0.11658037499999807,
                  "durationTicks": 3600,
                  "midi": 55,
                  "name": "G3",
                  "ticks": 3187200,
                  "time": 103.21249200000001,
                  "velocity": 0.5905511811023622
              },
              {
                  "duration": 0.11658037499999807,
                  "durationTicks": 3600,
                  "midi": 65,
                  "name": "F4",
                  "ticks": 3187200,
                  "time": 103.21249200000001,
                  "velocity": 0.5433070866141733
              },
              {
                  "duration": 0.11658037499999807,
                  "durationTicks": 3600,
                  "midi": 57,
                  "name": "A3",
                  "ticks": 3187200,
                  "time": 103.21249200000001,
                  "velocity": 0.5984251968503937
              },
              {
                  "duration": 0.11658037499999807,
                  "durationTicks": 3600,
                  "midi": 62,
                  "name": "D4",
                  "ticks": 3187200,
                  "time": 103.21249200000001,
                  "velocity": 0.5118110236220472
              },
              {
                  "duration": 0.11658037499999807,
                  "durationTicks": 3600,
                  "midi": 55,
                  "name": "G3",
                  "ticks": 3192000,
                  "time": 103.36793250000001,
                  "velocity": 0.7086614173228346
              },
              {
                  "duration": 0.11658037499999807,
                  "durationTicks": 3600,
                  "midi": 57,
                  "name": "A3",
                  "ticks": 3192000,
                  "time": 103.36793250000001,
                  "velocity": 0.7086614173228346
              },
              {
                  "duration": 0.11658037499999807,
                  "durationTicks": 3600,
                  "midi": 62,
                  "name": "D4",
                  "ticks": 3192000,
                  "time": 103.36793250000001,
                  "velocity": 0.6299212598425197
              },
              {
                  "duration": 0.11658037499999807,
                  "durationTicks": 3600,
                  "midi": 65,
                  "name": "F4",
                  "ticks": 3192000,
                  "time": 103.36793250000001,
                  "velocity": 0.6614173228346457
              },
              {
                  "duration": 0.11658037499999807,
                  "durationTicks": 3600,
                  "midi": 55,
                  "name": "G3",
                  "ticks": 3196800,
                  "time": 103.523373,
                  "velocity": 0.5984251968503937
              },
              {
                  "duration": 0.11658037499999807,
                  "durationTicks": 3600,
                  "midi": 57,
                  "name": "A3",
                  "ticks": 3196800,
                  "time": 103.523373,
                  "velocity": 0.6062992125984252
              },
              {
                  "duration": 0.11658037499999807,
                  "durationTicks": 3600,
                  "midi": 62,
                  "name": "D4",
                  "ticks": 3196800,
                  "time": 103.523373,
                  "velocity": 0.5196850393700787
              },
              {
                  "duration": 0.11658037499999807,
                  "durationTicks": 3600,
                  "midi": 65,
                  "name": "F4",
                  "ticks": 3196800,
                  "time": 103.523373,
                  "velocity": 0.5511811023622047
              },
              {
                  "duration": 0.11658037499999807,
                  "durationTicks": 3600,
                  "midi": 55,
                  "name": "G3",
                  "ticks": 3201600,
                  "time": 103.6788135,
                  "velocity": 0.5984251968503937
              },
              {
                  "duration": 0.11658037499999807,
                  "durationTicks": 3600,
                  "midi": 57,
                  "name": "A3",
                  "ticks": 3201600,
                  "time": 103.6788135,
                  "velocity": 0.6062992125984252
              },
              {
                  "duration": 0.11658037499999807,
                  "durationTicks": 3600,
                  "midi": 62,
                  "name": "D4",
                  "ticks": 3201600,
                  "time": 103.6788135,
                  "velocity": 0.5196850393700787
              },
              {
                  "duration": 0.11658037499999807,
                  "durationTicks": 3600,
                  "midi": 65,
                  "name": "F4",
                  "ticks": 3201600,
                  "time": 103.6788135,
                  "velocity": 0.5511811023622047
              },
              {
                  "duration": 0.11658037499999807,
                  "durationTicks": 3600,
                  "midi": 55,
                  "name": "G3",
                  "ticks": 3206400,
                  "time": 103.834254,
                  "velocity": 0.6771653543307087
              },
              {
                  "duration": 0.11658037499999807,
                  "durationTicks": 3600,
                  "midi": 57,
                  "name": "A3",
                  "ticks": 3206400,
                  "time": 103.834254,
                  "velocity": 0.6771653543307087
              },
              {
                  "duration": 0.11658037499999807,
                  "durationTicks": 3600,
                  "midi": 62,
                  "name": "D4",
                  "ticks": 3206400,
                  "time": 103.834254,
                  "velocity": 0.5905511811023622
              },
              {
                  "duration": 0.11658037499999807,
                  "durationTicks": 3600,
                  "midi": 65,
                  "name": "F4",
                  "ticks": 3206400,
                  "time": 103.834254,
                  "velocity": 0.6299212598425197
              },
              {
                  "duration": 0.11658037499999807,
                  "durationTicks": 3600,
                  "midi": 55,
                  "name": "G3",
                  "ticks": 3211200,
                  "time": 103.98969450000001,
                  "velocity": 0.5826771653543307
              },
              {
                  "duration": 0.11658037499999807,
                  "durationTicks": 3600,
                  "midi": 57,
                  "name": "A3",
                  "ticks": 3211200,
                  "time": 103.98969450000001,
                  "velocity": 0.5826771653543307
              },
              {
                  "duration": 0.11658037499999807,
                  "durationTicks": 3600,
                  "midi": 62,
                  "name": "D4",
                  "ticks": 3211200,
                  "time": 103.98969450000001,
                  "velocity": 0.5039370078740157
              },
              {
                  "duration": 0.11658037499999807,
                  "durationTicks": 3600,
                  "midi": 65,
                  "name": "F4",
                  "ticks": 3211200,
                  "time": 103.98969450000001,
                  "velocity": 0.5354330708661418
              },
              {
                  "duration": 0.11658037499999807,
                  "durationTicks": 3600,
                  "midi": 55,
                  "name": "G3",
                  "ticks": 3216000,
                  "time": 104.14513500000001,
                  "velocity": 0.7086614173228346
              },
              {
                  "duration": 0.11658037499999807,
                  "durationTicks": 3600,
                  "midi": 65,
                  "name": "F4",
                  "ticks": 3216000,
                  "time": 104.14513500000001,
                  "velocity": 0.6614173228346457
              },
              {
                  "duration": 0.11658037499999807,
                  "durationTicks": 3600,
                  "midi": 57,
                  "name": "A3",
                  "ticks": 3216000,
                  "time": 104.14513500000001,
                  "velocity": 0.7086614173228346
              },
              {
                  "duration": 0.11658037499999807,
                  "durationTicks": 3600,
                  "midi": 62,
                  "name": "D4",
                  "ticks": 3216000,
                  "time": 104.14513500000001,
                  "velocity": 0.6299212598425197
              },
              {
                  "duration": 0.07772024999999871,
                  "durationTicks": 2400,
                  "midi": 55,
                  "name": "G3",
                  "ticks": 3220800,
                  "time": 104.30057550000001,
                  "velocity": 0.5984251968503937
              },
              {
                  "duration": 0.03886012499999936,
                  "durationTicks": 1200,
                  "midi": 65,
                  "name": "F4",
                  "ticks": 3220800,
                  "time": 104.30057550000001,
                  "velocity": 0.5511811023622047
              },
              {
                  "duration": 0.11658037499999807,
                  "durationTicks": 3600,
                  "midi": 57,
                  "name": "A3",
                  "ticks": 3220800,
                  "time": 104.30057550000001,
                  "velocity": 0.6062992125984252
              },
              {
                  "duration": 0.07772024999999871,
                  "durationTicks": 2400,
                  "midi": 62,
                  "name": "D4",
                  "ticks": 3220800,
                  "time": 104.30057550000001,
                  "velocity": 0.5196850393700787
              },
              {
                  "duration": 0.11658037499999807,
                  "durationTicks": 3600,
                  "midi": 48,
                  "name": "C3",
                  "ticks": 3225600,
                  "time": 104.456016,
                  "velocity": 0.6299212598425197
              },
              {
                  "duration": 0.11658037499999807,
                  "durationTicks": 3600,
                  "midi": 64,
                  "name": "E4",
                  "ticks": 3225600,
                  "time": 104.456016,
                  "velocity": 0.5984251968503937
              },
              {
                  "duration": 0.07772024999999871,
                  "durationTicks": 2400,
                  "midi": 48,
                  "name": "C3",
                  "ticks": 3230400,
                  "time": 104.6114565,
                  "velocity": 0.7480314960629921
              },
              {
                  "duration": 0.11658037499999807,
                  "durationTicks": 3600,
                  "midi": 64,
                  "name": "E4",
                  "ticks": 3230400,
                  "time": 104.6114565,
                  "velocity": 0.7244094488188977
              },
              {
                  "duration": 0.03886012499999936,
                  "durationTicks": 1200,
                  "midi": 74,
                  "name": "D5",
                  "ticks": 3230400,
                  "time": 104.6114565,
                  "velocity": 0.7716535433070866
              },
              {
                  "duration": 0.11658037500001228,
                  "durationTicks": 3600,
                  "midi": 64,
                  "name": "E4",
                  "ticks": 3235200,
                  "time": 104.766897,
                  "velocity": 0.6141732283464567
              },
              {
                  "duration": 0.03886012499999936,
                  "durationTicks": 1200,
                  "midi": 72,
                  "name": "C5",
                  "ticks": 3235200,
                  "time": 104.766897,
                  "velocity": 0.7007874015748031
              },
              {
                  "duration": 0.11658037499999807,
                  "durationTicks": 3600,
                  "midi": 64,
                  "name": "E4",
                  "ticks": 3240000,
                  "time": 104.92233750000001,
                  "velocity": 0.6141732283464567
              },
              {
                  "duration": 0.07772024999999871,
                  "durationTicks": 2400,
                  "midi": 69,
                  "name": "A4",
                  "ticks": 3240000,
                  "time": 104.92233750000001,
                  "velocity": 0.7244094488188977
              },
              {
                  "duration": 0.11658037499999807,
                  "durationTicks": 3600,
                  "midi": 48,
                  "name": "C3",
                  "ticks": 3244800,
                  "time": 105.07777800000001,
                  "velocity": 0.6850393700787402
              },
              {
                  "duration": 0.03886012499999936,
                  "durationTicks": 1200,
                  "midi": 64,
                  "name": "E4",
                  "ticks": 3244800,
                  "time": 105.07777800000001,
                  "velocity": 0.6850393700787402
              },
              {
                  "duration": 0.03886012499999936,
                  "durationTicks": 1200,
                  "midi": 67,
                  "name": "G4",
                  "ticks": 3244800,
                  "time": 105.07777800000001,
                  "velocity": 0.7874015748031497
              },
              {
                  "duration": 0.03886012499999936,
                  "durationTicks": 1200,
                  "midi": 48,
                  "name": "C3",
                  "ticks": 3249600,
                  "time": 105.2332185,
                  "velocity": 0.5905511811023622
              },
              {
                  "duration": 0.03886012499999936,
                  "durationTicks": 1200,
                  "midi": 65,
                  "name": "F4",
                  "ticks": 3249600,
                  "time": 105.2332185,
                  "velocity": 0.7086614173228346
              },
              {
                  "duration": 0.03886012499999936,
                  "durationTicks": 1200,
                  "midi": 60,
                  "name": "C4",
                  "ticks": 3254400,
                  "time": 105.388659,
                  "velocity": 0.7322834645669292
              },
              {
                  "duration": 0.11658037499999807,
                  "durationTicks": 3600,
                  "midi": 67,
                  "name": "G4",
                  "ticks": 3254400,
                  "time": 105.388659,
                  "velocity": 0.6299212598425197
              },
              {
                  "duration": 0.03886012499999936,
                  "durationTicks": 1200,
                  "midi": 62,
                  "name": "D4",
                  "ticks": 3254400,
                  "time": 105.388659,
                  "velocity": 0.8818897637795275
              },
              {
                  "duration": 0.03886012499999936,
                  "durationTicks": 1200,
                  "midi": 48,
                  "name": "C3",
                  "ticks": 3259200,
                  "time": 105.5440995,
                  "velocity": 0.48031496062992124
              },
              {
                  "duration": 0.11658037499999807,
                  "durationTicks": 3600,
                  "midi": 55,
                  "name": "G3",
                  "ticks": 3259200,
                  "time": 105.5440995,
                  "velocity": 0.4881889763779528
              },
              {
                  "duration": 0.03886012499999936,
                  "durationTicks": 1200,
                  "midi": 60,
                  "name": "C4",
                  "ticks": 3259200,
                  "time": 105.5440995,
                  "velocity": 0.7401574803149606
              },
              {
                  "duration": 0.03886012499999936,
                  "durationTicks": 1200,
                  "midi": 64,
                  "name": "E4",
                  "ticks": 3259200,
                  "time": 105.5440995,
                  "velocity": 0.5354330708661418
              },
              {
                  "duration": 0.11658037499999807,
                  "durationTicks": 3600,
                  "midi": 67,
                  "name": "G4",
                  "ticks": 3259200,
                  "time": 105.5440995,
                  "velocity": 0.5275590551181102
              },
              {
                  "duration": 0.11658037499999807,
                  "durationTicks": 3600,
                  "midi": 50,
                  "name": "D3",
                  "ticks": 3264000,
                  "time": 105.69954000000001,
                  "velocity": 0.6299212598425197
              },
              {
                  "duration": 0.11658037499999807,
                  "durationTicks": 3600,
                  "midi": 57,
                  "name": "A3",
                  "ticks": 3264000,
                  "time": 105.69954000000001,
                  "velocity": 0.6141732283464567
              },
              {
                  "duration": 0.11658037499999807,
                  "durationTicks": 3600,
                  "midi": 65,
                  "name": "F4",
                  "ticks": 3264000,
                  "time": 105.69954000000001,
                  "velocity": 0.5748031496062992
              },
              {
                  "duration": 0.11658037499999807,
                  "durationTicks": 3600,
                  "midi": 50,
                  "name": "D3",
                  "ticks": 3268800,
                  "time": 105.85498050000001,
                  "velocity": 0.7559055118110236
              },
              {
                  "duration": 0.11658037499999807,
                  "durationTicks": 3600,
                  "midi": 65,
                  "name": "F4",
                  "ticks": 3268800,
                  "time": 105.85498050000001,
                  "velocity": 0.6929133858267716
              },
              {
                  "duration": 0.11658037499999807,
                  "durationTicks": 3600,
                  "midi": 57,
                  "name": "A3",
                  "ticks": 3268800,
                  "time": 105.85498050000001,
                  "velocity": 0.7401574803149606
              },
              {
                  "duration": 0.11658037499999807,
                  "durationTicks": 3600,
                  "midi": 50,
                  "name": "D3",
                  "ticks": 3273600,
                  "time": 106.01042100000001,
                  "velocity": 0.6456692913385826
              },
              {
                  "duration": 0.11658037499999807,
                  "durationTicks": 3600,
                  "midi": 57,
                  "name": "A3",
                  "ticks": 3273600,
                  "time": 106.01042100000001,
                  "velocity": 0.6299212598425197
              },
              {
                  "duration": 0.11658037499999807,
                  "durationTicks": 3600,
                  "midi": 65,
                  "name": "F4",
                  "ticks": 3273600,
                  "time": 106.01042100000001,
                  "velocity": 0.5826771653543307
              },
              {
                  "duration": 0.11658037499999807,
                  "durationTicks": 3600,
                  "midi": 50,
                  "name": "D3",
                  "ticks": 3278400,
                  "time": 106.1658615,
                  "velocity": 0.6456692913385826
              },
              {
                  "duration": 0.11658037499999807,
                  "durationTicks": 3600,
                  "midi": 57,
                  "name": "A3",
                  "ticks": 3278400,
                  "time": 106.1658615,
                  "velocity": 0.6299212598425197
              },
              {
                  "duration": 0.07772024999999871,
                  "durationTicks": 2400,
                  "midi": 65,
                  "name": "F4",
                  "ticks": 3278400,
                  "time": 106.1658615,
                  "velocity": 0.5826771653543307
              },
              {
                  "duration": 0.11658037499999807,
                  "durationTicks": 3600,
                  "midi": 50,
                  "name": "D3",
                  "ticks": 3283200,
                  "time": 106.321302,
                  "velocity": 0.7165354330708661
              },
              {
                  "duration": 0.11658037499999807,
                  "durationTicks": 3600,
                  "midi": 57,
                  "name": "A3",
                  "ticks": 3283200,
                  "time": 106.321302,
                  "velocity": 0.7007874015748031
              },
              {
                  "duration": 0.11658037500001228,
                  "durationTicks": 3600,
                  "midi": 50,
                  "name": "D3",
                  "ticks": 3288000,
                  "time": 106.4767425,
                  "velocity": 0.6220472440944882
              },
              {
                  "duration": 0.11658037500001228,
                  "durationTicks": 3600,
                  "midi": 57,
                  "name": "A3",
                  "ticks": 3288000,
                  "time": 106.4767425,
                  "velocity": 0.6062992125984252
              },
              {
                  "duration": 0.11658037499999807,
                  "durationTicks": 3600,
                  "midi": 50,
                  "name": "D3",
                  "ticks": 3292800,
                  "time": 106.63218300000001,
                  "velocity": 0.7559055118110236
              },
              {
                  "duration": 0.11658037499999807,
                  "durationTicks": 3600,
                  "midi": 57,
                  "name": "A3",
                  "ticks": 3292800,
                  "time": 106.63218300000001,
                  "velocity": 0.7401574803149606
              },
              {
                  "duration": 0.11658037499999807,
                  "durationTicks": 3600,
                  "midi": 50,
                  "name": "D3",
                  "ticks": 3297600,
                  "time": 106.78762350000001,
                  "velocity": 0.6456692913385826
              },
              {
                  "duration": 0.11658037499999807,
                  "durationTicks": 3600,
                  "midi": 57,
                  "name": "A3",
                  "ticks": 3297600,
                  "time": 106.78762350000001,
                  "velocity": 0.6299212598425197
              },
              {
                  "duration": 0.11658037499999807,
                  "durationTicks": 3600,
                  "midi": 46,
                  "name": "A#2",
                  "ticks": 3302400,
                  "time": 106.943064,
                  "velocity": 0.4566929133858268
              },
              {
                  "duration": 0.11658037499999807,
                  "durationTicks": 3600,
                  "midi": 53,
                  "name": "F3",
                  "ticks": 3302400,
                  "time": 106.943064,
                  "velocity": 0.4645669291338583
              },
              {
                  "duration": 0.11658037499999807,
                  "durationTicks": 3600,
                  "midi": 58,
                  "name": "A#3",
                  "ticks": 3302400,
                  "time": 106.943064,
                  "velocity": 0.6614173228346457
              },
              {
                  "duration": 0.11658037499999807,
                  "durationTicks": 3600,
                  "midi": 62,
                  "name": "D4",
                  "ticks": 3302400,
                  "time": 106.943064,
                  "velocity": 0.5118110236220472
              },
              {
                  "duration": 0.11658037499999807,
                  "durationTicks": 3600,
                  "midi": 65,
                  "name": "F4",
                  "ticks": 3302400,
                  "time": 106.943064,
                  "velocity": 0.5826771653543307
              },
              {
                  "duration": 0.11658037499999807,
                  "durationTicks": 3600,
                  "midi": 46,
                  "name": "A#2",
                  "ticks": 3307200,
                  "time": 107.0985045,
                  "velocity": 0.5669291338582677
              },
              {
                  "duration": 0.11658037499999807,
                  "durationTicks": 3600,
                  "midi": 53,
                  "name": "F3",
                  "ticks": 3307200,
                  "time": 107.0985045,
                  "velocity": 0.5826771653543307
              },
              {
                  "duration": 0.11658037499999807,
                  "durationTicks": 3600,
                  "midi": 58,
                  "name": "A#3",
                  "ticks": 3307200,
                  "time": 107.0985045,
                  "velocity": 0.7716535433070866
              },
              {
                  "duration": 0.11658037499999807,
                  "durationTicks": 3600,
                  "midi": 62,
                  "name": "D4",
                  "ticks": 3307200,
                  "time": 107.0985045,
                  "velocity": 0.6299212598425197
              },
              {
                  "duration": 0.07772024999999871,
                  "durationTicks": 2400,
                  "midi": 65,
                  "name": "F4",
                  "ticks": 3307200,
                  "time": 107.0985045,
                  "velocity": 0.7086614173228346
              },
              {
                  "duration": 0.11658037499999807,
                  "durationTicks": 3600,
                  "midi": 46,
                  "name": "A#2",
                  "ticks": 3312000,
                  "time": 107.253945,
                  "velocity": 0.4645669291338583
              },
              {
                  "duration": 0.03886012499999936,
                  "durationTicks": 1200,
                  "midi": 53,
                  "name": "F3",
                  "ticks": 3312000,
                  "time": 107.253945,
                  "velocity": 0.47244094488188976
              },
              {
                  "duration": 0.11658037499999807,
                  "durationTicks": 3600,
                  "midi": 58,
                  "name": "A#3",
                  "ticks": 3312000,
                  "time": 107.253945,
                  "velocity": 0.6692913385826772
              },
              {
                  "duration": 0.11658037499999807,
                  "durationTicks": 3600,
                  "midi": 62,
                  "name": "D4",
                  "ticks": 3312000,
                  "time": 107.253945,
                  "velocity": 0.5196850393700787
              },
              {
                  "duration": 0.11658037499999807,
                  "durationTicks": 3600,
                  "midi": 58,
                  "name": "A#3",
                  "ticks": 3316800,
                  "time": 107.40938550000001,
                  "velocity": 0.6692913385826772
              },
              {
                  "duration": 0.11658037499999807,
                  "durationTicks": 3600,
                  "midi": 65,
                  "name": "F4",
                  "ticks": 3316800,
                  "time": 107.40938550000001,
                  "velocity": 0.6456692913385826
              },
              {
                  "duration": 0.11658037499999807,
                  "durationTicks": 3600,
                  "midi": 46,
                  "name": "A#2",
                  "ticks": 3321600,
                  "time": 107.56482600000001,
                  "velocity": 0.5511811023622047
              },
              {
                  "duration": 0.11658037499999807,
                  "durationTicks": 3600,
                  "midi": 65,
                  "name": "F4",
                  "ticks": 3321600,
                  "time": 107.56482600000001,
                  "velocity": 0.7086614173228346
              },
              {
                  "duration": 0.11658037499999807,
                  "durationTicks": 3600,
                  "midi": 58,
                  "name": "A#3",
                  "ticks": 3321600,
                  "time": 107.56482600000001,
                  "velocity": 0.7401574803149606
              },
              {
                  "duration": 0.11658037499999807,
                  "durationTicks": 3600,
                  "midi": 46,
                  "name": "A#2",
                  "ticks": 3326400,
                  "time": 107.72026650000001,
                  "velocity": 0.4566929133858268
              },
              {
                  "duration": 0.11658037499999807,
                  "durationTicks": 3600,
                  "midi": 65,
                  "name": "F4",
                  "ticks": 3326400,
                  "time": 107.72026650000001,
                  "velocity": 0.6141732283464567
              },
              {
                  "duration": 0.11658037499999807,
                  "durationTicks": 3600,
                  "midi": 58,
                  "name": "A#3",
                  "ticks": 3326400,
                  "time": 107.72026650000001,
                  "velocity": 0.6456692913385826
              },
              {
                  "duration": 0.11658037499999807,
                  "durationTicks": 3600,
                  "midi": 46,
                  "name": "A#2",
                  "ticks": 3331200,
                  "time": 107.875707,
                  "velocity": 0.5826771653543307
              },
              {
                  "duration": 0.11658037499999807,
                  "durationTicks": 3600,
                  "midi": 65,
                  "name": "F4",
                  "ticks": 3331200,
                  "time": 107.875707,
                  "velocity": 0.7480314960629921
              },
              {
                  "duration": 0.11658037499999807,
                  "durationTicks": 3600,
                  "midi": 58,
                  "name": "A#3",
                  "ticks": 3331200,
                  "time": 107.875707,
                  "velocity": 0.7716535433070866
              },
              {
                  "duration": 0.11658037499999807,
                  "durationTicks": 3600,
                  "midi": 46,
                  "name": "A#2",
                  "ticks": 3336000,
                  "time": 108.0311475,
                  "velocity": 0.48031496062992124
              },
              {
                  "duration": 0.11658037499999807,
                  "durationTicks": 3600,
                  "midi": 65,
                  "name": "F4",
                  "ticks": 3336000,
                  "time": 108.0311475,
                  "velocity": 0.6456692913385826
              },
              {
                  "duration": 0.07772024999999871,
                  "durationTicks": 2400,
                  "midi": 58,
                  "name": "A#3",
                  "ticks": 3336000,
                  "time": 108.0311475,
                  "velocity": 0.6692913385826772
              },
              {
                  "duration": 0.11658037500001228,
                  "durationTicks": 3600,
                  "midi": 55,
                  "name": "G3",
                  "ticks": 3340800,
                  "time": 108.186588,
                  "velocity": 0.6377952755905512
              },
              {
                  "duration": 0.11658037500001228,
                  "durationTicks": 3600,
                  "midi": 57,
                  "name": "A3",
                  "ticks": 3340800,
                  "time": 108.186588,
                  "velocity": 0.6929133858267716
              },
              {
                  "duration": 0.11658037499999807,
                  "durationTicks": 3600,
                  "midi": 55,
                  "name": "G3",
                  "ticks": 3345600,
                  "time": 108.34202850000001,
                  "velocity": 0.7559055118110236
              },
              {
                  "duration": 0.07772024999999871,
                  "durationTicks": 2400,
                  "midi": 65,
                  "name": "F4",
                  "ticks": 3345600,
                  "time": 108.34202850000001,
                  "velocity": 0.8582677165354331
              },
              {
                  "duration": 0.11658037499999807,
                  "durationTicks": 3600,
                  "midi": 57,
                  "name": "A3",
                  "ticks": 3345600,
                  "time": 108.34202850000001,
                  "velocity": 0.8110236220472441
              },
              {
                  "duration": 0.11658037499999807,
                  "durationTicks": 3600,
                  "midi": 55,
                  "name": "G3",
                  "ticks": 3350400,
                  "time": 108.49746900000001,
                  "velocity": 0.6456692913385826
              },
              {
                  "duration": 0.03886012499999936,
                  "durationTicks": 1200,
                  "midi": 67,
                  "name": "G4",
                  "ticks": 3350400,
                  "time": 108.49746900000001,
                  "velocity": 0.6850393700787402
              },
              {
                  "duration": 0.11658037499999807,
                  "durationTicks": 3600,
                  "midi": 45,
                  "name": "A2",
                  "ticks": 3355200,
                  "time": 108.6529095,
                  "velocity": 0.5196850393700787
              },
              {
                  "duration": 0.11658037499999807,
                  "durationTicks": 3600,
                  "midi": 57,
                  "name": "A3",
                  "ticks": 3355200,
                  "time": 108.6529095,
                  "velocity": 0.7165354330708661
              },
              {
                  "duration": 0.11658037499999807,
                  "durationTicks": 3600,
                  "midi": 60,
                  "name": "C4",
                  "ticks": 3355200,
                  "time": 108.6529095,
                  "velocity": 0.6377952755905512
              },
              {
                  "duration": 0.03886012499999936,
                  "durationTicks": 1200,
                  "midi": 65,
                  "name": "F4",
                  "ticks": 3355200,
                  "time": 108.6529095,
                  "velocity": 0.7401574803149606
              },
              {
                  "duration": 0.11658037499999807,
                  "durationTicks": 3600,
                  "midi": 45,
                  "name": "A2",
                  "ticks": 3360000,
                  "time": 108.80835,
                  "velocity": 0.5905511811023622
              },
              {
                  "duration": 0.11658037499999807,
                  "durationTicks": 3600,
                  "midi": 57,
                  "name": "A3",
                  "ticks": 3360000,
                  "time": 108.80835,
                  "velocity": 0.7874015748031497
              },
              {
                  "duration": 0.11658037499999807,
                  "durationTicks": 3600,
                  "midi": 60,
                  "name": "C4",
                  "ticks": 3360000,
                  "time": 108.80835,
                  "velocity": 0.7086614173228346
              },
              {
                  "duration": 0.07772024999999871,
                  "durationTicks": 2400,
                  "midi": 45,
                  "name": "A2",
                  "ticks": 3364800,
                  "time": 108.9637905,
                  "velocity": 0.5039370078740157
              },
              {
                  "duration": 0.11658037499999807,
                  "durationTicks": 3600,
                  "midi": 57,
                  "name": "A3",
                  "ticks": 3364800,
                  "time": 108.9637905,
                  "velocity": 0.6929133858267716
              },
              {
                  "duration": 0.07772024999999871,
                  "durationTicks": 2400,
                  "midi": 60,
                  "name": "C4",
                  "ticks": 3364800,
                  "time": 108.9637905,
                  "velocity": 0.6141732283464567
              },
              {
                  "duration": 0.03886012499999936,
                  "durationTicks": 1200,
                  "midi": 67,
                  "name": "G4",
                  "ticks": 3364800,
                  "time": 108.9637905,
                  "velocity": 0.7401574803149606
              },
              {
                  "duration": 0.11658037499999807,
                  "durationTicks": 3600,
                  "midi": 58,
                  "name": "A#3",
                  "ticks": 3369600,
                  "time": 109.11923100000001,
                  "velocity": 0.8031496062992126
              },
              {
                  "duration": 0.03886012499999936,
                  "durationTicks": 1200,
                  "midi": 69,
                  "name": "A4",
                  "ticks": 3369600,
                  "time": 109.11923100000001,
                  "velocity": 0.7874015748031497
              },
              {
                  "duration": 0.07772024999999871,
                  "durationTicks": 2400,
                  "midi": 62,
                  "name": "D4",
                  "ticks": 3369600,
                  "time": 109.11923100000001,
                  "velocity": 0.6456692913385826
              },
              {
                  "duration": 0.11658037499999807,
                  "durationTicks": 3600,
                  "midi": 65,
                  "name": "F4",
                  "ticks": 3369600,
                  "time": 109.11923100000001,
                  "velocity": 0.6929133858267716
              },
              {
                  "duration": 0.11658037499999807,
                  "durationTicks": 3600,
                  "midi": 46,
                  "name": "A#2",
                  "ticks": 3374400,
                  "time": 109.27467150000001,
                  "velocity": 0.4881889763779528
              },
              {
                  "duration": 0.11658037499999807,
                  "durationTicks": 3600,
                  "midi": 72,
                  "name": "C5",
                  "ticks": 3374400,
                  "time": 109.27467150000001,
                  "velocity": 0.6771653543307087
              },
              {
                  "duration": 0.11658037499999807,
                  "durationTicks": 3600,
                  "midi": 58,
                  "name": "A#3",
                  "ticks": 3374400,
                  "time": 109.27467150000001,
                  "velocity": 0.6929133858267716
              },
              {
                  "duration": 0.11658037499999807,
                  "durationTicks": 3600,
                  "midi": 65,
                  "name": "F4",
                  "ticks": 3374400,
                  "time": 109.27467150000001,
                  "velocity": 0.5826771653543307
              },
              {
                  "duration": 0.11658037499999807,
                  "durationTicks": 3600,
                  "midi": 62,
                  "name": "D4",
                  "ticks": 3374400,
                  "time": 109.27467150000001,
                  "velocity": 0.5118110236220472
              },
              {
                  "duration": 0.03886012499999936,
                  "durationTicks": 1200,
                  "midi": 46,
                  "name": "A#2",
                  "ticks": 3379200,
                  "time": 109.43011200000001,
                  "velocity": 0.47244094488188976
              },
              {
                  "duration": 0.11658037499999807,
                  "durationTicks": 3600,
                  "midi": 58,
                  "name": "A#3",
                  "ticks": 3379200,
                  "time": 109.43011200000001,
                  "velocity": 0.6850393700787402
              },
              {
                  "duration": 0.11658037499999807,
                  "durationTicks": 3600,
                  "midi": 62,
                  "name": "D4",
                  "ticks": 3379200,
                  "time": 109.43011200000001,
                  "velocity": 0.5039370078740157
              },
              {
                  "duration": 0.11658037499999807,
                  "durationTicks": 3600,
                  "midi": 65,
                  "name": "F4",
                  "ticks": 3379200,
                  "time": 109.43011200000001,
                  "velocity": 0.5669291338582677
              },
              {
                  "duration": 0.11658037499999807,
                  "durationTicks": 3600,
                  "midi": 58,
                  "name": "A#3",
                  "ticks": 3384000,
                  "time": 109.5855525,
                  "velocity": 0.8031496062992126
              },
              {
                  "duration": 0.07772024999999871,
                  "durationTicks": 2400,
                  "midi": 62,
                  "name": "D4",
                  "ticks": 3384000,
                  "time": 109.5855525,
                  "velocity": 0.6141732283464567
              },
              {
                  "duration": 0.11658037499999807,
                  "durationTicks": 3600,
                  "midi": 65,
                  "name": "F4",
                  "ticks": 3384000,
                  "time": 109.5855525,
                  "velocity": 0.6929133858267716
              },
              {
                  "duration": 0.03886012499999936,
                  "durationTicks": 1200,
                  "midi": 74,
                  "name": "D5",
                  "ticks": 3384000,
                  "time": 109.5855525,
                  "velocity": 0.8976377952755905
              },
              {
                  "duration": 0.11658037499999807,
                  "durationTicks": 3600,
                  "midi": 58,
                  "name": "A#3",
                  "ticks": 3388800,
                  "time": 109.740993,
                  "velocity": 0.6929133858267716
              },
              {
                  "duration": 0.07772024999999871,
                  "durationTicks": 2400,
                  "midi": 65,
                  "name": "F4",
                  "ticks": 3388800,
                  "time": 109.740993,
                  "velocity": 0.5826771653543307
              },
              {
                  "duration": 0.07772024999999871,
                  "durationTicks": 2400,
                  "midi": 72,
                  "name": "C5",
                  "ticks": 3388800,
                  "time": 109.740993,
                  "velocity": 0.7401574803149606
              },
              {
                  "duration": 0.07772025000001292,
                  "durationTicks": 2400,
                  "midi": 69,
                  "name": "A4",
                  "ticks": 3393600,
                  "time": 109.8964335,
                  "velocity": 0.6929133858267716
              },
              {
                  "duration": 0.07772024999999871,
                  "durationTicks": 2400,
                  "midi": 48,
                  "name": "C3",
                  "ticks": 3398400,
                  "time": 110.05187400000001,
                  "velocity": 0.6299212598425197
              },
              {
                  "duration": 0.07772024999999871,
                  "durationTicks": 2400,
                  "midi": 67,
                  "name": "G4",
                  "ticks": 3398400,
                  "time": 110.05187400000001,
                  "velocity": 0.8188976377952756
              },
              {
                  "duration": 0.11658037499999807,
                  "durationTicks": 3600,
                  "midi": 55,
                  "name": "G3",
                  "ticks": 3398400,
                  "time": 110.05187400000001,
                  "velocity": 0.5905511811023622
              },
              {
                  "duration": 0.11658037499999807,
                  "durationTicks": 3600,
                  "midi": 60,
                  "name": "C4",
                  "ticks": 3398400,
                  "time": 110.05187400000001,
                  "velocity": 0.7401574803149606
              },
              {
                  "duration": 0.03886012499999936,
                  "durationTicks": 1200,
                  "midi": 55,
                  "name": "G3",
                  "ticks": 3403200,
                  "time": 110.20731450000001,
                  "velocity": 0.49606299212598426
              },
              {
                  "duration": 0.07772024999999871,
                  "durationTicks": 2400,
                  "midi": 65,
                  "name": "F4",
                  "ticks": 3403200,
                  "time": 110.20731450000001,
                  "velocity": 0.7401574803149606
              },
              {
                  "duration": 0.11658037499999807,
                  "durationTicks": 3600,
                  "midi": 60,
                  "name": "C4",
                  "ticks": 3403200,
                  "time": 110.20731450000001,
                  "velocity": 0.6456692913385826
              },
              {
                  "duration": 0.03886012499999936,
                  "durationTicks": 1200,
                  "midi": 48,
                  "name": "C3",
                  "ticks": 3408000,
                  "time": 110.362755,
                  "velocity": 0.6929133858267716
              },
              {
                  "duration": 0.03886012499999936,
                  "durationTicks": 1200,
                  "midi": 62,
                  "name": "D4",
                  "ticks": 3408000,
                  "time": 110.362755,
                  "velocity": 0.9133858267716536
              },
              {
                  "duration": 0.11658037499999807,
                  "durationTicks": 3600,
                  "midi": 55,
                  "name": "G3",
                  "ticks": 3408000,
                  "time": 110.362755,
                  "velocity": 0.6929133858267716
              },
              {
                  "duration": 0.03886012499999936,
                  "durationTicks": 1200,
                  "midi": 60,
                  "name": "C4",
                  "ticks": 3408000,
                  "time": 110.362755,
                  "velocity": 0.7716535433070866
              },
              {
                  "duration": 0.07772024999999871,
                  "durationTicks": 2400,
                  "midi": 48,
                  "name": "C3",
                  "ticks": 3412800,
                  "time": 110.5181955,
                  "velocity": 0.5511811023622047
              },
              {
                  "duration": 0.03886012499999936,
                  "durationTicks": 1200,
                  "midi": 60,
                  "name": "C4",
                  "ticks": 3412800,
                  "time": 110.5181955,
                  "velocity": 0.6456692913385826
              },
              {
                  "duration": 0.11658037499999807,
                  "durationTicks": 3600,
                  "midi": 41,
                  "name": "F2",
                  "ticks": 3417600,
                  "time": 110.673636,
                  "velocity": 0.44881889763779526
              },
              {
                  "duration": 0.11658037499999807,
                  "durationTicks": 3600,
                  "midi": 53,
                  "name": "F3",
                  "ticks": 3417600,
                  "time": 110.673636,
                  "velocity": 0.6299212598425197
              },
              {
                  "duration": 0.11658037499999807,
                  "durationTicks": 3600,
                  "midi": 57,
                  "name": "A3",
                  "ticks": 3417600,
                  "time": 110.673636,
                  "velocity": 0.4566929133858268
              },
              {
                  "duration": 0.11658037499999807,
                  "durationTicks": 3600,
                  "midi": 69,
                  "name": "A4",
                  "ticks": 3417600,
                  "time": 110.673636,
                  "velocity": 0.5748031496062992
              },
              {
                  "duration": 0.11658037499999807,
                  "durationTicks": 3600,
                  "midi": 41,
                  "name": "F2",
                  "ticks": 3422400,
                  "time": 110.82907650000001,
                  "velocity": 0.5669291338582677
              },
              {
                  "duration": 0.11658037499999807,
                  "durationTicks": 3600,
                  "midi": 53,
                  "name": "F3",
                  "ticks": 3422400,
                  "time": 110.82907650000001,
                  "velocity": 0.7559055118110236
              },
              {
                  "duration": 0.11658037499999807,
                  "durationTicks": 3600,
                  "midi": 57,
                  "name": "A3",
                  "ticks": 3422400,
                  "time": 110.82907650000001,
                  "velocity": 0.5826771653543307
              },
              {
                  "duration": 0.11658037499999807,
                  "durationTicks": 3600,
                  "midi": 69,
                  "name": "A4",
                  "ticks": 3422400,
                  "time": 110.82907650000001,
                  "velocity": 0.6929133858267716
              },
              {
                  "duration": 0.11658037499999807,
                  "durationTicks": 3600,
                  "midi": 53,
                  "name": "F3",
                  "ticks": 3427200,
                  "time": 110.98451700000001,
                  "velocity": 0.6456692913385826
              },
              {
                  "duration": 0.11658037499999807,
                  "durationTicks": 3600,
                  "midi": 57,
                  "name": "A3",
                  "ticks": 3427200,
                  "time": 110.98451700000001,
                  "velocity": 0.47244094488188976
              },
              {
                  "duration": 0.11658037499999807,
                  "durationTicks": 3600,
                  "midi": 69,
                  "name": "A4",
                  "ticks": 3427200,
                  "time": 110.98451700000001,
                  "velocity": 0.5905511811023622
              },
              {
                  "duration": 0.11658037499999807,
                  "durationTicks": 3600,
                  "midi": 53,
                  "name": "F3",
                  "ticks": 3432000,
                  "time": 111.13995750000001,
                  "velocity": 0.6456692913385826
              },
              {
                  "duration": 0.11658037499999807,
                  "durationTicks": 3600,
                  "midi": 57,
                  "name": "A3",
                  "ticks": 3432000,
                  "time": 111.13995750000001,
                  "velocity": 0.47244094488188976
              },
              {
                  "duration": 0.11658037499999807,
                  "durationTicks": 3600,
                  "midi": 69,
                  "name": "A4",
                  "ticks": 3432000,
                  "time": 111.13995750000001,
                  "velocity": 0.5905511811023622
              },
              {
                  "duration": 0.11658037499999807,
                  "durationTicks": 3600,
                  "midi": 53,
                  "name": "F3",
                  "ticks": 3436800,
                  "time": 111.295398,
                  "velocity": 0.7165354330708661
              },
              {
                  "duration": 0.11658037499999807,
                  "durationTicks": 3600,
                  "midi": 57,
                  "name": "A3",
                  "ticks": 3436800,
                  "time": 111.295398,
                  "velocity": 0.5433070866141733
              },
              {
                  "duration": 0.11658037499999807,
                  "durationTicks": 3600,
                  "midi": 69,
                  "name": "A4",
                  "ticks": 3436800,
                  "time": 111.295398,
                  "velocity": 0.6614173228346457
              },
              {
                  "duration": 0.11658037499999807,
                  "durationTicks": 3600,
                  "midi": 53,
                  "name": "F3",
                  "ticks": 3441600,
                  "time": 111.4508385,
                  "velocity": 0.6220472440944882
              },
              {
                  "duration": 0.11658037499999807,
                  "durationTicks": 3600,
                  "midi": 69,
                  "name": "A4",
                  "ticks": 3441600,
                  "time": 111.4508385,
                  "velocity": 0.5669291338582677
              },
              {
                  "duration": 0.11658037500001228,
                  "durationTicks": 3600,
                  "midi": 53,
                  "name": "F3",
                  "ticks": 3446400,
                  "time": 111.606279,
                  "velocity": 0.7559055118110236
              },
              {
                  "duration": 0.11658037500001228,
                  "durationTicks": 3600,
                  "midi": 69,
                  "name": "A4",
                  "ticks": 3446400,
                  "time": 111.606279,
                  "velocity": 0.6929133858267716
              },
              {
                  "duration": 0.11658037499999807,
                  "durationTicks": 3600,
                  "midi": 53,
                  "name": "F3",
                  "ticks": 3451200,
                  "time": 111.76171950000001,
                  "velocity": 0.6456692913385826
              },
              {
                  "duration": 0.11658037499999807,
                  "durationTicks": 3600,
                  "midi": 69,
                  "name": "A4",
                  "ticks": 3451200,
                  "time": 111.76171950000001,
                  "velocity": 0.5905511811023622
              },
              {
                  "duration": 0.11658037499999807,
                  "durationTicks": 3600,
                  "midi": 53,
                  "name": "F3",
                  "ticks": 3456000,
                  "time": 111.91716000000001,
                  "velocity": 0.6299212598425197
              },
              {
                  "duration": 0.11658037499999807,
                  "durationTicks": 3600,
                  "midi": 58,
                  "name": "A#3",
                  "ticks": 3456000,
                  "time": 111.91716000000001,
                  "velocity": 0.6377952755905512
              },
              {
                  "duration": 0.11658037499999807,
                  "durationTicks": 3600,
                  "midi": 62,
                  "name": "D4",
                  "ticks": 3456000,
                  "time": 111.91716000000001,
                  "velocity": 0.5511811023622047
              },
              {
                  "duration": 0.11658037499999807,
                  "durationTicks": 3600,
                  "midi": 53,
                  "name": "F3",
                  "ticks": 3460800,
                  "time": 112.07260050000001,
                  "velocity": 0.7559055118110236
              },
              {
                  "duration": 0.11658037499999807,
                  "durationTicks": 3600,
                  "midi": 58,
                  "name": "A#3",
                  "ticks": 3460800,
                  "time": 112.07260050000001,
                  "velocity": 0.7559055118110236
              },
              {
                  "duration": 0.11658037499999807,
                  "durationTicks": 3600,
                  "midi": 62,
                  "name": "D4",
                  "ticks": 3460800,
                  "time": 112.07260050000001,
                  "velocity": 0.6692913385826772
              },
              {
                  "duration": 0.11658037499999807,
                  "durationTicks": 3600,
                  "midi": 65,
                  "name": "F4",
                  "ticks": 3460800,
                  "time": 112.07260050000001,
                  "velocity": 0.6141732283464567
              },
              {
                  "duration": 0.11658037499999807,
                  "durationTicks": 3600,
                  "midi": 53,
                  "name": "F3",
                  "ticks": 3465600,
                  "time": 112.228041,
                  "velocity": 0.6456692913385826
              },
              {
                  "duration": 0.11658037499999807,
                  "durationTicks": 3600,
                  "midi": 58,
                  "name": "A#3",
                  "ticks": 3465600,
                  "time": 112.228041,
                  "velocity": 0.6456692913385826
              },
              {
                  "duration": 0.11658037499999807,
                  "durationTicks": 3600,
                  "midi": 62,
                  "name": "D4",
                  "ticks": 3465600,
                  "time": 112.228041,
                  "velocity": 0.5669291338582677
              },
              {
                  "duration": 0.11658037499999807,
                  "durationTicks": 3600,
                  "midi": 65,
                  "name": "F4",
                  "ticks": 3465600,
                  "time": 112.228041,
                  "velocity": 0.5039370078740157
              },
              {
                  "duration": 0.11658037499999807,
                  "durationTicks": 3600,
                  "midi": 53,
                  "name": "F3",
                  "ticks": 3470400,
                  "time": 112.3834815,
                  "velocity": 0.6456692913385826
              },
              {
                  "duration": 0.11658037499999807,
                  "durationTicks": 3600,
                  "midi": 58,
                  "name": "A#3",
                  "ticks": 3470400,
                  "time": 112.3834815,
                  "velocity": 0.6456692913385826
              },
              {
                  "duration": 0.11658037499999807,
                  "durationTicks": 3600,
                  "midi": 62,
                  "name": "D4",
                  "ticks": 3470400,
                  "time": 112.3834815,
                  "velocity": 0.5669291338582677
              },
              {
                  "duration": 0.11658037499999807,
                  "durationTicks": 3600,
                  "midi": 65,
                  "name": "F4",
                  "ticks": 3470400,
                  "time": 112.3834815,
                  "velocity": 0.5039370078740157
              },
              {
                  "duration": 0.11658037499999807,
                  "durationTicks": 3600,
                  "midi": 53,
                  "name": "F3",
                  "ticks": 3475200,
                  "time": 112.53892200000001,
                  "velocity": 0.7165354330708661
              },
              {
                  "duration": 0.11658037499999807,
                  "durationTicks": 3600,
                  "midi": 58,
                  "name": "A#3",
                  "ticks": 3475200,
                  "time": 112.53892200000001,
                  "velocity": 0.7244094488188977
              },
              {
                  "duration": 0.11658037499999807,
                  "durationTicks": 3600,
                  "midi": 62,
                  "name": "D4",
                  "ticks": 3475200,
                  "time": 112.53892200000001,
                  "velocity": 0.6299212598425197
              },
              {
                  "duration": 0.11658037499999807,
                  "durationTicks": 3600,
                  "midi": 65,
                  "name": "F4",
                  "ticks": 3475200,
                  "time": 112.53892200000001,
                  "velocity": 0.5748031496062992
              },
              {
                  "duration": 0.11658037499999807,
                  "durationTicks": 3600,
                  "midi": 46,
                  "name": "A#2",
                  "ticks": 3480000,
                  "time": 112.69436250000001,
                  "velocity": 0.4409448818897638
              },
              {
                  "duration": 0.11658037499999807,
                  "durationTicks": 3600,
                  "midi": 53,
                  "name": "F3",
                  "ticks": 3480000,
                  "time": 112.69436250000001,
                  "velocity": 0.6220472440944882
              },
              {
                  "duration": 0.11658037499999807,
                  "durationTicks": 3600,
                  "midi": 58,
                  "name": "A#3",
                  "ticks": 3480000,
                  "time": 112.69436250000001,
                  "velocity": 0.6299212598425197
              },
              {
                  "duration": 0.11658037499999807,
                  "durationTicks": 3600,
                  "midi": 62,
                  "name": "D4",
                  "ticks": 3480000,
                  "time": 112.69436250000001,
                  "velocity": 0.5354330708661418
              },
              {
                  "duration": 0.11658037499999807,
                  "durationTicks": 3600,
                  "midi": 65,
                  "name": "F4",
                  "ticks": 3480000,
                  "time": 112.69436250000001,
                  "velocity": 0.4881889763779528
              },
              {
                  "duration": 0.11658037499999807,
                  "durationTicks": 3600,
                  "midi": 46,
                  "name": "A#2",
                  "ticks": 3484800,
                  "time": 112.84980300000001,
                  "velocity": 0.5669291338582677
              },
              {
                  "duration": 0.11658037499999807,
                  "durationTicks": 3600,
                  "midi": 53,
                  "name": "F3",
                  "ticks": 3484800,
                  "time": 112.84980300000001,
                  "velocity": 0.7559055118110236
              },
              {
                  "duration": 0.11658037499999807,
                  "durationTicks": 3600,
                  "midi": 58,
                  "name": "A#3",
                  "ticks": 3484800,
                  "time": 112.84980300000001,
                  "velocity": 0.7559055118110236
              },
              {
                  "duration": 0.11658037499999807,
                  "durationTicks": 3600,
                  "midi": 62,
                  "name": "D4",
                  "ticks": 3484800,
                  "time": 112.84980300000001,
                  "velocity": 0.6692913385826772
              },
              {
                  "duration": 0.11658037499999807,
                  "durationTicks": 3600,
                  "midi": 65,
                  "name": "F4",
                  "ticks": 3484800,
                  "time": 112.84980300000001,
                  "velocity": 0.6141732283464567
              },
              {
                  "duration": 0.11658037499999807,
                  "durationTicks": 3600,
                  "midi": 46,
                  "name": "A#2",
                  "ticks": 3489600,
                  "time": 113.0052435,
                  "velocity": 0.4645669291338583
              },
              {
                  "duration": 0.11658037499999807,
                  "durationTicks": 3600,
                  "midi": 53,
                  "name": "F3",
                  "ticks": 3489600,
                  "time": 113.0052435,
                  "velocity": 0.6456692913385826
              },
              {
                  "duration": 0.11658037499999807,
                  "durationTicks": 3600,
                  "midi": 58,
                  "name": "A#3",
                  "ticks": 3489600,
                  "time": 113.0052435,
                  "velocity": 0.6456692913385826
              },
              {
                  "duration": 0.07772024999999871,
                  "durationTicks": 2400,
                  "midi": 62,
                  "name": "D4",
                  "ticks": 3489600,
                  "time": 113.0052435,
                  "velocity": 0.5669291338582677
              },
              {
                  "duration": 0.03886012499999936,
                  "durationTicks": 1200,
                  "midi": 65,
                  "name": "F4",
                  "ticks": 3489600,
                  "time": 113.0052435,
                  "velocity": 0.5039370078740157
              },
              {
                  "duration": 0.03886012499999936,
                  "durationTicks": 1200,
                  "midi": 46,
                  "name": "A#2",
                  "ticks": 3494400,
                  "time": 113.160684,
                  "velocity": 0.4566929133858268
              },
              {
                  "duration": 0.03886012499999936,
                  "durationTicks": 1200,
                  "midi": 53,
                  "name": "F3",
                  "ticks": 3494400,
                  "time": 113.160684,
                  "velocity": 0.6299212598425197
              },
              {
                  "duration": 0.11658037499999807,
                  "durationTicks": 3600,
                  "midi": 55,
                  "name": "G3",
                  "ticks": 3494400,
                  "time": 113.160684,
                  "velocity": 0.5826771653543307
              },
              {
                  "duration": 0.11658037499999807,
                  "durationTicks": 3600,
                  "midi": 57,
                  "name": "A3",
                  "ticks": 3494400,
                  "time": 113.160684,
                  "velocity": 0.6299212598425197
              },
              {
                  "duration": 0.11658037499999807,
                  "durationTicks": 3600,
                  "midi": 65,
                  "name": "F4",
                  "ticks": 3494400,
                  "time": 113.160684,
                  "velocity": 0.5669291338582677
              },
              {
                  "duration": 0.11658037500001228,
                  "durationTicks": 3600,
                  "midi": 55,
                  "name": "G3",
                  "ticks": 3499200,
                  "time": 113.3161245,
                  "velocity": 0.7086614173228346
              },
              {
                  "duration": 0.11658037500001228,
                  "durationTicks": 3600,
                  "midi": 57,
                  "name": "A3",
                  "ticks": 3499200,
                  "time": 113.3161245,
                  "velocity": 0.7480314960629921
              },
              {
                  "duration": 0.11658037500001228,
                  "durationTicks": 3600,
                  "midi": 65,
                  "name": "F4",
                  "ticks": 3499200,
                  "time": 113.3161245,
                  "velocity": 0.6850393700787402
              },
              {
                  "duration": 0.11658037499999807,
                  "durationTicks": 3600,
                  "midi": 55,
                  "name": "G3",
                  "ticks": 3504000,
                  "time": 113.47156500000001,
                  "velocity": 0.5984251968503937
              },
              {
                  "duration": 0.11658037499999807,
                  "durationTicks": 3600,
                  "midi": 57,
                  "name": "A3",
                  "ticks": 3504000,
                  "time": 113.47156500000001,
                  "velocity": 0.6456692913385826
              },
              {
                  "duration": 0.11658037499999807,
                  "durationTicks": 3600,
                  "midi": 65,
                  "name": "F4",
                  "ticks": 3504000,
                  "time": 113.47156500000001,
                  "velocity": 0.5748031496062992
              },
              {
                  "duration": 0.11658037499999807,
                  "durationTicks": 3600,
                  "midi": 55,
                  "name": "G3",
                  "ticks": 3508800,
                  "time": 113.62700550000001,
                  "velocity": 0.5984251968503937
              },
              {
                  "duration": 0.11658037499999807,
                  "durationTicks": 3600,
                  "midi": 57,
                  "name": "A3",
                  "ticks": 3508800,
                  "time": 113.62700550000001,
                  "velocity": 0.6456692913385826
              },
              {
                  "duration": 0.11658037499999807,
                  "durationTicks": 3600,
                  "midi": 65,
                  "name": "F4",
                  "ticks": 3508800,
                  "time": 113.62700550000001,
                  "velocity": 0.5748031496062992
              },
              {
                  "duration": 0.11658037499999807,
                  "durationTicks": 3600,
                  "midi": 55,
                  "name": "G3",
                  "ticks": 3513600,
                  "time": 113.78244600000001,
                  "velocity": 0.6692913385826772
              },
              {
                  "duration": 0.11658037499999807,
                  "durationTicks": 3600,
                  "midi": 65,
                  "name": "F4",
                  "ticks": 3513600,
                  "time": 113.78244600000001,
                  "velocity": 0.6456692913385826
              },
              {
                  "duration": 0.11658037499999807,
                  "durationTicks": 3600,
                  "midi": 57,
                  "name": "A3",
                  "ticks": 3513600,
                  "time": 113.78244600000001,
                  "velocity": 0.7086614173228346
              },
              {
                  "duration": 0.11658037499999807,
                  "durationTicks": 3600,
                  "midi": 55,
                  "name": "G3",
                  "ticks": 3518400,
                  "time": 113.9378865,
                  "velocity": 0.5748031496062992
              },
              {
                  "duration": 0.11658037499999807,
                  "durationTicks": 3600,
                  "midi": 57,
                  "name": "A3",
                  "ticks": 3518400,
                  "time": 113.9378865,
                  "velocity": 0.6141732283464567
              },
              {
                  "duration": 0.11658037499999807,
                  "durationTicks": 3600,
                  "midi": 65,
                  "name": "F4",
                  "ticks": 3518400,
                  "time": 113.9378865,
                  "velocity": 0.5511811023622047
              },
              {
                  "duration": 0.11658037499999807,
                  "durationTicks": 3600,
                  "midi": 55,
                  "name": "G3",
                  "ticks": 3523200,
                  "time": 114.093327,
                  "velocity": 0.7086614173228346
              },
              {
                  "duration": 0.11658037499999807,
                  "durationTicks": 3600,
                  "midi": 57,
                  "name": "A3",
                  "ticks": 3523200,
                  "time": 114.093327,
                  "velocity": 0.7480314960629921
              },
              {
                  "duration": 0.11658037499999807,
                  "durationTicks": 3600,
                  "midi": 65,
                  "name": "F4",
                  "ticks": 3523200,
                  "time": 114.093327,
                  "velocity": 0.6850393700787402
              },
              {
                  "duration": 0.11658037499999807,
                  "durationTicks": 3600,
                  "midi": 55,
                  "name": "G3",
                  "ticks": 3528000,
                  "time": 114.24876750000001,
                  "velocity": 0.5984251968503937
              },
              {
                  "duration": 0.11658037499999807,
                  "durationTicks": 3600,
                  "midi": 57,
                  "name": "A3",
                  "ticks": 3528000,
                  "time": 114.24876750000001,
                  "velocity": 0.6456692913385826
              },
              {
                  "duration": 0.11658037499999807,
                  "durationTicks": 3600,
                  "midi": 65,
                  "name": "F4",
                  "ticks": 3528000,
                  "time": 114.24876750000001,
                  "velocity": 0.5748031496062992
              },
              {
                  "duration": 0.11658037499999807,
                  "durationTicks": 3600,
                  "midi": 48,
                  "name": "C3",
                  "ticks": 3532800,
                  "time": 114.40420800000001,
                  "velocity": 0.4566929133858268
              },
              {
                  "duration": 0.11658037499999807,
                  "durationTicks": 3600,
                  "midi": 67,
                  "name": "G4",
                  "ticks": 3532800,
                  "time": 114.40420800000001,
                  "velocity": 0.6614173228346457
              },
              {
                  "duration": 0.11658037499999807,
                  "durationTicks": 3600,
                  "midi": 55,
                  "name": "G3",
                  "ticks": 3532800,
                  "time": 114.40420800000001,
                  "velocity": 0.5826771653543307
              },
              {
                  "duration": 0.11658037499999807,
                  "durationTicks": 3600,
                  "midi": 64,
                  "name": "E4",
                  "ticks": 3532800,
                  "time": 114.40420800000001,
                  "velocity": 0.5511811023622047
              },
              {
                  "duration": 0.11658037499999807,
                  "durationTicks": 3600,
                  "midi": 60,
                  "name": "C4",
                  "ticks": 3532800,
                  "time": 114.40420800000001,
                  "velocity": 0.6456692913385826
              },
              {
                  "duration": 0.11658037499999807,
                  "durationTicks": 3600,
                  "midi": 48,
                  "name": "C3",
                  "ticks": 3537600,
                  "time": 114.55964850000001,
                  "velocity": 0.5669291338582677
              },
              {
                  "duration": 0.07772024999999871,
                  "durationTicks": 2400,
                  "midi": 55,
                  "name": "G3",
                  "ticks": 3537600,
                  "time": 114.55964850000001,
                  "velocity": 0.7086614173228346
              },
              {
                  "duration": 0.11658037499999807,
                  "durationTicks": 3600,
                  "midi": 60,
                  "name": "C4",
                  "ticks": 3537600,
                  "time": 114.55964850000001,
                  "velocity": 0.7716535433070866
              },
              {
                  "duration": 0.11658037499999807,
                  "durationTicks": 3600,
                  "midi": 64,
                  "name": "E4",
                  "ticks": 3537600,
                  "time": 114.55964850000001,
                  "velocity": 0.6692913385826772
              },
              {
                  "duration": 0.11658037499999807,
                  "durationTicks": 3600,
                  "midi": 67,
                  "name": "G4",
                  "ticks": 3537600,
                  "time": 114.55964850000001,
                  "velocity": 0.7795275590551181
              },
              {
                  "duration": 0.03886012499999936,
                  "durationTicks": 1200,
                  "midi": 74,
                  "name": "D5",
                  "ticks": 3537600,
                  "time": 114.55964850000001,
                  "velocity": 0.8267716535433071
              },
              {
                  "duration": 0.11658037499999807,
                  "durationTicks": 3600,
                  "midi": 60,
                  "name": "C4",
                  "ticks": 3542400,
                  "time": 114.715089,
                  "velocity": 0.6614173228346457
              },
              {
                  "duration": 0.07772024999999871,
                  "durationTicks": 2400,
                  "midi": 72,
                  "name": "C5",
                  "ticks": 3542400,
                  "time": 114.715089,
                  "velocity": 0.6456692913385826
              },
              {
                  "duration": 0.11658037499999807,
                  "durationTicks": 3600,
                  "midi": 64,
                  "name": "E4",
                  "ticks": 3542400,
                  "time": 114.715089,
                  "velocity": 0.5669291338582677
              },
              {
                  "duration": 0.03886012499999936,
                  "durationTicks": 1200,
                  "midi": 67,
                  "name": "G4",
                  "ticks": 3542400,
                  "time": 114.715089,
                  "velocity": 0.6771653543307087
              },
              {
                  "duration": 0.11658037499999807,
                  "durationTicks": 3600,
                  "midi": 60,
                  "name": "C4",
                  "ticks": 3547200,
                  "time": 114.8705295,
                  "velocity": 0.6614173228346457
              },
              {
                  "duration": 0.07772024999999871,
                  "durationTicks": 2400,
                  "midi": 64,
                  "name": "E4",
                  "ticks": 3547200,
                  "time": 114.8705295,
                  "velocity": 0.5669291338582677
              },
              {
                  "duration": 0.07772024999999871,
                  "durationTicks": 2400,
                  "midi": 69,
                  "name": "A4",
                  "ticks": 3547200,
                  "time": 114.8705295,
                  "velocity": 0.7086614173228346
              },
              {
                  "duration": 0.11658037500001228,
                  "durationTicks": 3600,
                  "midi": 60,
                  "name": "C4",
                  "ticks": 3552000,
                  "time": 115.02597,
                  "velocity": 0.7322834645669292
              },
              {
                  "duration": 0.03886012499999936,
                  "durationTicks": 1200,
                  "midi": 67,
                  "name": "G4",
                  "ticks": 3552000,
                  "time": 115.02597,
                  "velocity": 0.8110236220472441
              },
              {
                  "duration": 0.07772024999999871,
                  "durationTicks": 2400,
                  "midi": 60,
                  "name": "C4",
                  "ticks": 3556800,
                  "time": 115.18141050000001,
                  "velocity": 0.6377952755905512
              },
              {
                  "duration": 0.11658037499999807,
                  "durationTicks": 3600,
                  "midi": 64,
                  "name": "E4",
                  "ticks": 3556800,
                  "time": 115.18141050000001,
                  "velocity": 0.5669291338582677
              },
              {
                  "duration": 0.07772024999999871,
                  "durationTicks": 2400,
                  "midi": 65,
                  "name": "F4",
                  "ticks": 3556800,
                  "time": 115.18141050000001,
                  "velocity": 0.7086614173228346
              },
              {
                  "duration": 0.03886012499999936,
                  "durationTicks": 1200,
                  "midi": 62,
                  "name": "D4",
                  "ticks": 3561600,
                  "time": 115.33685100000001,
                  "velocity": 0.889763779527559
              },
              {
                  "duration": 0.11658037499999807,
                  "durationTicks": 3600,
                  "midi": 64,
                  "name": "E4",
                  "ticks": 3561600,
                  "time": 115.33685100000001,
                  "velocity": 0.6929133858267716
              },
              {
                  "duration": 0.11658037499999807,
                  "durationTicks": 3600,
                  "midi": 60,
                  "name": "C4",
                  "ticks": 3566400,
                  "time": 115.49229150000001,
                  "velocity": 0.7401574803149606
              },
              {
                  "duration": 0.07772024999999871,
                  "durationTicks": 2400,
                  "midi": 64,
                  "name": "E4",
                  "ticks": 3566400,
                  "time": 115.49229150000001,
                  "velocity": 0.5905511811023622
              },
              {
                  "duration": 0.11658037499999807,
                  "durationTicks": 3600,
                  "midi": 38,
                  "name": "D2",
                  "ticks": 3571200,
                  "time": 115.647732,
                  "velocity": 0.4881889763779528
              },
              {
                  "duration": 0.11658037499999807,
                  "durationTicks": 3600,
                  "midi": 50,
                  "name": "D3",
                  "ticks": 3571200,
                  "time": 115.647732,
                  "velocity": 0.6062992125984252
              },
              {
                  "duration": 0.11658037499999807,
                  "durationTicks": 3600,
                  "midi": 65,
                  "name": "F4",
                  "ticks": 3571200,
                  "time": 115.647732,
                  "velocity": 0.5748031496062992
              },
              {
                  "duration": 0.11658037499999807,
                  "durationTicks": 3600,
                  "midi": 38,
                  "name": "D2",
                  "ticks": 3576000,
                  "time": 115.8031725,
                  "velocity": 0.5984251968503937
              },
              {
                  "duration": 0.11658037499999807,
                  "durationTicks": 3600,
                  "midi": 50,
                  "name": "D3",
                  "ticks": 3576000,
                  "time": 115.8031725,
                  "velocity": 0.7244094488188977
              },
              {
                  "duration": 0.11658037499999807,
                  "durationTicks": 3600,
                  "midi": 65,
                  "name": "F4",
                  "ticks": 3576000,
                  "time": 115.8031725,
                  "velocity": 0.6929133858267716
              },
              {
                  "duration": 0.11658037499999807,
                  "durationTicks": 3600,
                  "midi": 38,
                  "name": "D2",
                  "ticks": 3580800,
                  "time": 115.95861300000001,
                  "velocity": 0.49606299212598426
              },
              {
                  "duration": 0.11658037499999807,
                  "durationTicks": 3600,
                  "midi": 50,
                  "name": "D3",
                  "ticks": 3580800,
                  "time": 115.95861300000001,
                  "velocity": 0.6141732283464567
              },
              {
                  "duration": 0.11658037499999807,
                  "durationTicks": 3600,
                  "midi": 65,
                  "name": "F4",
                  "ticks": 3580800,
                  "time": 115.95861300000001,
                  "velocity": 0.5826771653543307
              },
              {
                  "duration": 0.11658037499999807,
                  "durationTicks": 3600,
                  "midi": 38,
                  "name": "D2",
                  "ticks": 3585600,
                  "time": 116.11405350000001,
                  "velocity": 0.49606299212598426
              },
              {
                  "duration": 0.11658037499999807,
                  "durationTicks": 3600,
                  "midi": 65,
                  "name": "F4",
                  "ticks": 3585600,
                  "time": 116.11405350000001,
                  "velocity": 0.5826771653543307
              },
              {
                  "duration": 0.11658037499999807,
                  "durationTicks": 3600,
                  "midi": 50,
                  "name": "D3",
                  "ticks": 3585600,
                  "time": 116.11405350000001,
                  "velocity": 0.6141732283464567
              },
              {
                  "duration": 0.11658037499999807,
                  "durationTicks": 3600,
                  "midi": 38,
                  "name": "D2",
                  "ticks": 3590400,
                  "time": 116.26949400000001,
                  "velocity": 0.5669291338582677
              },
              {
                  "duration": 0.11658037499999807,
                  "durationTicks": 3600,
                  "midi": 50,
                  "name": "D3",
                  "ticks": 3590400,
                  "time": 116.26949400000001,
                  "velocity": 0.6850393700787402
              },
              {
                  "duration": 0.11658037499999807,
                  "durationTicks": 3600,
                  "midi": 57,
                  "name": "A3",
                  "ticks": 3590400,
                  "time": 116.26949400000001,
                  "velocity": 0.5433070866141733
              },
              {
                  "duration": 0.11658037499999807,
                  "durationTicks": 3600,
                  "midi": 38,
                  "name": "D2",
                  "ticks": 3595200,
                  "time": 116.4249345,
                  "velocity": 0.47244094488188976
              },
              {
                  "duration": 0.11658037499999807,
                  "durationTicks": 3600,
                  "midi": 50,
                  "name": "D3",
                  "ticks": 3595200,
                  "time": 116.4249345,
                  "velocity": 0.5984251968503937
              },
              {
                  "duration": 0.11658037499999807,
                  "durationTicks": 3600,
                  "midi": 57,
                  "name": "A3",
                  "ticks": 3595200,
                  "time": 116.4249345,
                  "velocity": 0.44881889763779526
              },
              {
                  "duration": 0.11658037499999807,
                  "durationTicks": 3600,
                  "midi": 38,
                  "name": "D2",
                  "ticks": 3600000,
                  "time": 116.580375,
                  "velocity": 0.5984251968503937
              },
              {
                  "duration": 0.11658037499999807,
                  "durationTicks": 3600,
                  "midi": 50,
                  "name": "D3",
                  "ticks": 3600000,
                  "time": 116.580375,
                  "velocity": 0.7244094488188977
              },
              {
                  "duration": 0.11658037499999807,
                  "durationTicks": 3600,
                  "midi": 57,
                  "name": "A3",
                  "ticks": 3600000,
                  "time": 116.580375,
                  "velocity": 0.5826771653543307
              },
              {
                  "duration": 0.11658037500001228,
                  "durationTicks": 3600,
                  "midi": 38,
                  "name": "D2",
                  "ticks": 3604800,
                  "time": 116.7358155,
                  "velocity": 0.49606299212598426
              },
              {
                  "duration": 0.11658037500001228,
                  "durationTicks": 3600,
                  "midi": 50,
                  "name": "D3",
                  "ticks": 3604800,
                  "time": 116.7358155,
                  "velocity": 0.6141732283464567
              },
              {
                  "duration": 0.07772025000001292,
                  "durationTicks": 2400,
                  "midi": 57,
                  "name": "A3",
                  "ticks": 3604800,
                  "time": 116.7358155,
                  "velocity": 0.47244094488188976
              },
              {
                  "duration": 0.11658037499999807,
                  "durationTicks": 3600,
                  "midi": 34,
                  "name": "A#1",
                  "ticks": 3609600,
                  "time": 116.89125600000001,
                  "velocity": 0.5196850393700787
              },
              {
                  "duration": 0.11658037499999807,
                  "durationTicks": 3600,
                  "midi": 65,
                  "name": "F4",
                  "ticks": 3609600,
                  "time": 116.89125600000001,
                  "velocity": 0.6299212598425197
              },
              {
                  "duration": 0.11658037499999807,
                  "durationTicks": 3600,
                  "midi": 70,
                  "name": "A#4",
                  "ticks": 3609600,
                  "time": 116.89125600000001,
                  "velocity": 0.5354330708661418
              },
              {
                  "duration": 0.11658037499999807,
                  "durationTicks": 3600,
                  "midi": 34,
                  "name": "A#1",
                  "ticks": 3614400,
                  "time": 117.04669650000001,
                  "velocity": 0.6456692913385826
              },
              {
                  "duration": 0.11658037499999807,
                  "durationTicks": 3600,
                  "midi": 65,
                  "name": "F4",
                  "ticks": 3614400,
                  "time": 117.04669650000001,
                  "velocity": 0.7401574803149606
              },
              {
                  "duration": 0.11658037499999807,
                  "durationTicks": 3600,
                  "midi": 70,
                  "name": "A#4",
                  "ticks": 3614400,
                  "time": 117.04669650000001,
                  "velocity": 0.6456692913385826
              },
              {
                  "duration": 0.11658037499999807,
                  "durationTicks": 3600,
                  "midi": 34,
                  "name": "A#1",
                  "ticks": 3619200,
                  "time": 117.20213700000001,
                  "velocity": 0.5354330708661418
              },
              {
                  "duration": 0.11658037499999807,
                  "durationTicks": 3600,
                  "midi": 70,
                  "name": "A#4",
                  "ticks": 3619200,
                  "time": 117.20213700000001,
                  "velocity": 0.5433070866141733
              },
              {
                  "duration": 0.11658037499999807,
                  "durationTicks": 3600,
                  "midi": 53,
                  "name": "F3",
                  "ticks": 3619200,
                  "time": 117.20213700000001,
                  "velocity": 0.4566929133858268
              },
              {
                  "duration": 0.11658037499999807,
                  "durationTicks": 3600,
                  "midi": 65,
                  "name": "F4",
                  "ticks": 3619200,
                  "time": 117.20213700000001,
                  "velocity": 0.6377952755905512
              },
              {
                  "duration": 0.11658037499999807,
                  "durationTicks": 3600,
                  "midi": 58,
                  "name": "A#3",
                  "ticks": 3619200,
                  "time": 117.20213700000001,
                  "velocity": 0.4881889763779528
              },
              {
                  "duration": 0.11658037499999807,
                  "durationTicks": 3600,
                  "midi": 34,
                  "name": "A#1",
                  "ticks": 3624000,
                  "time": 117.3575775,
                  "velocity": 0.5354330708661418
              },
              {
                  "duration": 0.11658037499999807,
                  "durationTicks": 3600,
                  "midi": 46,
                  "name": "A#2",
                  "ticks": 3624000,
                  "time": 117.3575775,
                  "velocity": 0.4566929133858268
              },
              {
                  "duration": 0.11658037499999807,
                  "durationTicks": 3600,
                  "midi": 53,
                  "name": "F3",
                  "ticks": 3624000,
                  "time": 117.3575775,
                  "velocity": 0.4566929133858268
              },
              {
                  "duration": 0.11658037499999807,
                  "durationTicks": 3600,
                  "midi": 58,
                  "name": "A#3",
                  "ticks": 3624000,
                  "time": 117.3575775,
                  "velocity": 0.4881889763779528
              },
              {
                  "duration": 0.11658037499999807,
                  "durationTicks": 3600,
                  "midi": 65,
                  "name": "F4",
                  "ticks": 3624000,
                  "time": 117.3575775,
                  "velocity": 0.6377952755905512
              },
              {
                  "duration": 0.11658037499999807,
                  "durationTicks": 3600,
                  "midi": 70,
                  "name": "A#4",
                  "ticks": 3624000,
                  "time": 117.3575775,
                  "velocity": 0.5433070866141733
              },
              {
                  "duration": 0.11658037499999807,
                  "durationTicks": 3600,
                  "midi": 34,
                  "name": "A#1",
                  "ticks": 3628800,
                  "time": 117.513018,
                  "velocity": 0.6062992125984252
              },
              {
                  "duration": 0.11658037499999807,
                  "durationTicks": 3600,
                  "midi": 46,
                  "name": "A#2",
                  "ticks": 3628800,
                  "time": 117.513018,
                  "velocity": 0.5275590551181102
              },
              {
                  "duration": 0.11658037499999807,
                  "durationTicks": 3600,
                  "midi": 53,
                  "name": "F3",
                  "ticks": 3628800,
                  "time": 117.513018,
                  "velocity": 0.5354330708661418
              },
              {
                  "duration": 0.11658037499999807,
                  "durationTicks": 3600,
                  "midi": 58,
                  "name": "A#3",
                  "ticks": 3628800,
                  "time": 117.513018,
                  "velocity": 0.5511811023622047
              },
              {
                  "duration": 0.11658037499999807,
                  "durationTicks": 3600,
                  "midi": 70,
                  "name": "A#4",
                  "ticks": 3628800,
                  "time": 117.513018,
                  "velocity": 0.6141732283464567
              },
              {
                  "duration": 0.11658037499999807,
                  "durationTicks": 3600,
                  "midi": 65,
                  "name": "F4",
                  "ticks": 3628800,
                  "time": 117.513018,
                  "velocity": 0.7086614173228346
              },
              {
                  "duration": 0.11658037499999807,
                  "durationTicks": 3600,
                  "midi": 34,
                  "name": "A#1",
                  "ticks": 3633600,
                  "time": 117.66845850000001,
                  "velocity": 0.5118110236220472
              },
              {
                  "duration": 0.07772024999999871,
                  "durationTicks": 2400,
                  "midi": 46,
                  "name": "A#2",
                  "ticks": 3633600,
                  "time": 117.66845850000001,
                  "velocity": 0.4330708661417323
              },
              {
                  "duration": 0.11658037499999807,
                  "durationTicks": 3600,
                  "midi": 53,
                  "name": "F3",
                  "ticks": 3633600,
                  "time": 117.66845850000001,
                  "velocity": 0.4409448818897638
              },
              {
                  "duration": 0.11658037499999807,
                  "durationTicks": 3600,
                  "midi": 58,
                  "name": "A#3",
                  "ticks": 3633600,
                  "time": 117.66845850000001,
                  "velocity": 0.4645669291338583
              },
              {
                  "duration": 0.11658037499999807,
                  "durationTicks": 3600,
                  "midi": 65,
                  "name": "F4",
                  "ticks": 3633600,
                  "time": 117.66845850000001,
                  "velocity": 0.6141732283464567
              },
              {
                  "duration": 0.11658037499999807,
                  "durationTicks": 3600,
                  "midi": 70,
                  "name": "A#4",
                  "ticks": 3633600,
                  "time": 117.66845850000001,
                  "velocity": 0.5196850393700787
              },
              {
                  "duration": 0.11658037499999807,
                  "durationTicks": 3600,
                  "midi": 34,
                  "name": "A#1",
                  "ticks": 3638400,
                  "time": 117.82389900000001,
                  "velocity": 0.6456692913385826
              },
              {
                  "duration": 0.11658037499999807,
                  "durationTicks": 3600,
                  "midi": 53,
                  "name": "F3",
                  "ticks": 3638400,
                  "time": 117.82389900000001,
                  "velocity": 0.5669291338582677
              },
              {
                  "duration": 0.11658037499999807,
                  "durationTicks": 3600,
                  "midi": 58,
                  "name": "A#3",
                  "ticks": 3638400,
                  "time": 117.82389900000001,
                  "velocity": 0.5905511811023622
              },
              {
                  "duration": 0.03886012499999936,
                  "durationTicks": 1200,
                  "midi": 65,
                  "name": "F4",
                  "ticks": 3638400,
                  "time": 117.82389900000001,
                  "velocity": 0.7401574803149606
              },
              {
                  "duration": 0.03886012499999936,
                  "durationTicks": 1200,
                  "midi": 70,
                  "name": "A#4",
                  "ticks": 3638400,
                  "time": 117.82389900000001,
                  "velocity": 0.6456692913385826
              },
              {
                  "duration": 0.11658037499999807,
                  "durationTicks": 3600,
                  "midi": 34,
                  "name": "A#1",
                  "ticks": 3643200,
                  "time": 117.97933950000001,
                  "velocity": 0.5354330708661418
              },
              {
                  "duration": 0.07772024999999871,
                  "durationTicks": 2400,
                  "midi": 53,
                  "name": "F3",
                  "ticks": 3643200,
                  "time": 117.97933950000001,
                  "velocity": 0.4566929133858268
              },
              {
                  "duration": 0.07772024999999871,
                  "durationTicks": 2400,
                  "midi": 58,
                  "name": "A#3",
                  "ticks": 3643200,
                  "time": 117.97933950000001,
                  "velocity": 0.4881889763779528
              },
              {
                  "duration": 0.11658037499999807,
                  "durationTicks": 3600,
                  "midi": 31,
                  "name": "G1",
                  "ticks": 3648000,
                  "time": 118.13478,
                  "velocity": 0.6456692913385826
              },
              {
                  "duration": 0.11658037499999807,
                  "durationTicks": 3600,
                  "midi": 55,
                  "name": "G3",
                  "ticks": 3648000,
                  "time": 118.13478,
                  "velocity": 0.5984251968503937
              },
              {
                  "duration": 0.07772024999999871,
                  "durationTicks": 2400,
                  "midi": 62,
                  "name": "D4",
                  "ticks": 3648000,
                  "time": 118.13478,
                  "velocity": 0.7716535433070866
              },
              {
                  "duration": 0.11658037499999807,
                  "durationTicks": 3600,
                  "midi": 31,
                  "name": "G1",
                  "ticks": 3652800,
                  "time": 118.2902205,
                  "velocity": 0.7716535433070866
              },
              {
                  "duration": 0.11658037499999807,
                  "durationTicks": 3600,
                  "midi": 55,
                  "name": "G3",
                  "ticks": 3652800,
                  "time": 118.2902205,
                  "velocity": 0.7086614173228346
              },
              {
                  "duration": 0.03886012499999936,
                  "durationTicks": 1200,
                  "midi": 65,
                  "name": "F4",
                  "ticks": 3652800,
                  "time": 118.2902205,
                  "velocity": 0.8818897637795275
              },
              {
                  "duration": 0.07772025000001292,
                  "durationTicks": 2400,
                  "midi": 31,
                  "name": "G1",
                  "ticks": 3657600,
                  "time": 118.445661,
                  "velocity": 0.6614173228346457
              },
              {
                  "duration": 0.07772025000001292,
                  "durationTicks": 2400,
                  "midi": 55,
                  "name": "G3",
                  "ticks": 3657600,
                  "time": 118.445661,
                  "velocity": 0.6062992125984252
              },
              {
                  "duration": 0.03886012499999936,
                  "durationTicks": 1200,
                  "midi": 67,
                  "name": "G4",
                  "ticks": 3657600,
                  "time": 118.445661,
                  "velocity": 0.7086614173228346
              },
              {
                  "duration": 0.11658037499999807,
                  "durationTicks": 3600,
                  "midi": 33,
                  "name": "A1",
                  "ticks": 3662400,
                  "time": 118.60110150000001,
                  "velocity": 0.6929133858267716
              },
              {
                  "duration": 0.11658037499999807,
                  "durationTicks": 3600,
                  "midi": 65,
                  "name": "F4",
                  "ticks": 3662400,
                  "time": 118.60110150000001,
                  "velocity": 0.6850393700787402
              },
              {
                  "duration": 0.11658037499999807,
                  "durationTicks": 3600,
                  "midi": 60,
                  "name": "C4",
                  "ticks": 3662400,
                  "time": 118.60110150000001,
                  "velocity": 0.5748031496062992
              },
              {
                  "duration": 0.11658037499999807,
                  "durationTicks": 3600,
                  "midi": 33,
                  "name": "A1",
                  "ticks": 3667200,
                  "time": 118.75654200000001,
                  "velocity": 0.7559055118110236
              },
              {
                  "duration": 0.11658037499999807,
                  "durationTicks": 3600,
                  "midi": 60,
                  "name": "C4",
                  "ticks": 3667200,
                  "time": 118.75654200000001,
                  "velocity": 0.6456692913385826
              },
              {
                  "duration": 0.07772024999999871,
                  "durationTicks": 2400,
                  "midi": 65,
                  "name": "F4",
                  "ticks": 3667200,
                  "time": 118.75654200000001,
                  "velocity": 0.7559055118110236
              },
              {
                  "duration": 0.07772024999999871,
                  "durationTicks": 2400,
                  "midi": 33,
                  "name": "A1",
                  "ticks": 3672000,
                  "time": 118.91198250000001,
                  "velocity": 0.6692913385826772
              },
              {
                  "duration": 0.07772024999999871,
                  "durationTicks": 2400,
                  "midi": 60,
                  "name": "C4",
                  "ticks": 3672000,
                  "time": 118.91198250000001,
                  "velocity": 0.5511811023622047
              },
              {
                  "duration": 0.03886012499999936,
                  "durationTicks": 1200,
                  "midi": 67,
                  "name": "G4",
                  "ticks": 3672000,
                  "time": 118.91198250000001,
                  "velocity": 0.7716535433070866
              },
              {
                  "duration": 0.11658037499999807,
                  "durationTicks": 3600,
                  "midi": 34,
                  "name": "A#1",
                  "ticks": 3676800,
                  "time": 119.067423,
                  "velocity": 0.8110236220472441
              },
              {
                  "duration": 0.03886012499999936,
                  "durationTicks": 1200,
                  "midi": 69,
                  "name": "A4",
                  "ticks": 3676800,
                  "time": 119.067423,
                  "velocity": 0.8661417322834646
              },
              {
                  "duration": 0.11658037499999807,
                  "durationTicks": 3600,
                  "midi": 34,
                  "name": "A#1",
                  "ticks": 3681600,
                  "time": 119.2228635,
                  "velocity": 0.7086614173228346
              },
              {
                  "duration": 0.07772024999999871,
                  "durationTicks": 2400,
                  "midi": 72,
                  "name": "C5",
                  "ticks": 3681600,
                  "time": 119.2228635,
                  "velocity": 0.6929133858267716
              }
          ],
          "endOfTrackTicks": 3686400
      },
      {
          "channel": 7,
          "controlChanges": {},
          "pitchBends": [],
          "instrument": {
              "family": "synth lead",
              "number": 7,
              "name": "synth lead"
          },
          "name": "Melody High",
          "notes": [
              {
                  "duration": 0.19345865562499998,
                  "durationTicks": 5974,
                  "midi": 77,
                  "name": "F5",
                  "ticks": 33600,
                  "time": 1.0880835,
                  "velocity": 0.7874015748031497
              },
              {
                  "duration": 0.2569301931249999,
                  "durationTicks": 7934,
                  "midi": 79,
                  "name": "G5",
                  "ticks": 36000,
                  "time": 1.16580375,
                  "velocity": 0.7795275590551181
              },
              {
                  "duration": 0.2569301931249999,
                  "durationTicks": 7934,
                  "midi": 81,
                  "name": "A5",
                  "ticks": 38400,
                  "time": 1.243524,
                  "velocity": 0.8031496062992126
              },
              {
                  "duration": 0.24148329343749975,
                  "durationTicks": 7457,
                  "midi": 84,
                  "name": "C6",
                  "ticks": 43200,
                  "time": 1.3989645000000002,
                  "velocity": 0.8740157480314961
              },
              {
                  "duration": 0.16648325218749993,
                  "durationTicks": 5141,
                  "midi": 79,
                  "name": "G5",
                  "ticks": 48000,
                  "time": 1.554405,
                  "velocity": 0.8976377952755905
              },
              {
                  "duration": 0.16318014156249983,
                  "durationTicks": 5039,
                  "midi": 81,
                  "name": "A5",
                  "ticks": 52800,
                  "time": 1.7098455000000001,
                  "velocity": 0.8740157480314961
              },
              {
                  "duration": 0.18869829031249985,
                  "durationTicks": 5827,
                  "midi": 77,
                  "name": "F5",
                  "ticks": 62400,
                  "time": 2.0207265000000003,
                  "velocity": 0.7874015748031497
              },
              {
                  "duration": 0.17487056250000022,
                  "durationTicks": 5400,
                  "midi": 74,
                  "name": "D5",
                  "ticks": 72000,
                  "time": 2.3316075,
                  "velocity": 0.8031496062992126
              },
              {
                  "duration": 0.17917755968750004,
                  "durationTicks": 5533,
                  "midi": 77,
                  "name": "F5",
                  "ticks": 81600,
                  "time": 2.6424885000000002,
                  "velocity": 0.8267716535433071
              },
              {
                  "duration": 0.19154803281249944,
                  "durationTicks": 5915,
                  "midi": 74,
                  "name": "D5",
                  "ticks": 86400,
                  "time": 2.7979290000000003,
                  "velocity": 0.7874015748031497
              },
              {
                  "duration": 0.18533041281250018,
                  "durationTicks": 5723,
                  "midi": 72,
                  "name": "C5",
                  "ticks": 91200,
                  "time": 2.9533695,
                  "velocity": 0.84251968503937
              },
              {
                  "duration": 0.17875657499999997,
                  "durationTicks": 5520,
                  "midi": 74,
                  "name": "D5",
                  "ticks": 96000,
                  "time": 3.10881,
                  "velocity": 0.8582677165354331
              },
              {
                  "duration": 0.17085501625,
                  "durationTicks": 5276,
                  "midi": 72,
                  "name": "C5",
                  "ticks": 100800,
                  "time": 3.2642505,
                  "velocity": 0.7716535433070866
              },
              {
                  "duration": 0.18539517968749974,
                  "durationTicks": 5725,
                  "midi": 69,
                  "name": "A4",
                  "ticks": 105600,
                  "time": 3.4196910000000003,
                  "velocity": 0.8976377952755905
              },
              {
                  "duration": 0.17998714562499973,
                  "durationTicks": 5558,
                  "midi": 67,
                  "name": "G4",
                  "ticks": 110400,
                  "time": 3.5751315000000004,
                  "velocity": 0.889763779527559
              },
              {
                  "duration": 0.14980578187500004,
                  "durationTicks": 4626,
                  "midi": 69,
                  "name": "A4",
                  "ticks": 115200,
                  "time": 3.7305720000000004,
                  "velocity": 0.889763779527559
              },
              {
                  "duration": 0.1866581337499995,
                  "durationTicks": 5764,
                  "midi": 72,
                  "name": "C5",
                  "ticks": 120000,
                  "time": 3.8860125,
                  "velocity": 0.8110236220472441
              },
              {
                  "duration": 0.17642496750000003,
                  "durationTicks": 5448,
                  "midi": 74,
                  "name": "D5",
                  "ticks": 124800,
                  "time": 4.041453000000001,
                  "velocity": 0.7637795275590551
              },
              {
                  "duration": 0.19248715250000004,
                  "durationTicks": 5944,
                  "midi": 72,
                  "name": "C5",
                  "ticks": 129600,
                  "time": 4.1968935,
                  "velocity": 0.7795275590551181
              },
              {
                  "duration": 0.1967941496875003,
                  "durationTicks": 6077,
                  "midi": 69,
                  "name": "A4",
                  "ticks": 139200,
                  "time": 4.5077745,
                  "velocity": 0.8740157480314961
              },
              {
                  "duration": 0.18309595562500025,
                  "durationTicks": 5654,
                  "midi": 67,
                  "name": "G4",
                  "ticks": 148800,
                  "time": 4.8186555,
                  "velocity": 0.937007874015748
              },
              {
                  "duration": 0.1886011399999994,
                  "durationTicks": 5824,
                  "midi": 69,
                  "name": "A4",
                  "ticks": 158400,
                  "time": 5.1295365,
                  "velocity": 0.9291338582677166
              },
              {
                  "duration": 0.20216980031249943,
                  "durationTicks": 6243,
                  "midi": 67,
                  "name": "G4",
                  "ticks": 163200,
                  "time": 5.2849770000000005,
                  "velocity": 0.7952755905511811
              },
              {
                  "duration": 0.19407394093749986,
                  "durationTicks": 5993,
                  "midi": 65,
                  "name": "F4",
                  "ticks": 168000,
                  "time": 5.440417500000001,
                  "velocity": 0.905511811023622
              },
              {
                  "duration": 0.20825788656249955,
                  "durationTicks": 6431,
                  "midi": 67,
                  "name": "G4",
                  "ticks": 172800,
                  "time": 5.595858000000001,
                  "velocity": 0.8110236220472441
              },
              {
                  "duration": 0.20301176968749957,
                  "durationTicks": 6269,
                  "midi": 65,
                  "name": "F4",
                  "ticks": 177600,
                  "time": 5.751298500000001,
                  "velocity": 0.8818897637795275
              },
              {
                  "duration": 0.19452730906249993,
                  "durationTicks": 6007,
                  "midi": 62,
                  "name": "D4",
                  "ticks": 182400,
                  "time": 5.906739,
                  "velocity": 0.9212598425196851
              },
              {
                  "duration": 0.20874363812500007,
                  "durationTicks": 6446,
                  "midi": 60,
                  "name": "C4",
                  "ticks": 187200,
                  "time": 6.0621795,
                  "velocity": 0.8740157480314961
              },
              {
                  "duration": 0.15990941437500084,
                  "durationTicks": 4938,
                  "midi": 81,
                  "name": "A5",
                  "ticks": 192000,
                  "time": 6.21762,
                  "velocity": 0.8346456692913385
              },
              {
                  "duration": 0.27885378031250063,
                  "durationTicks": 8611,
                  "midi": 84,
                  "name": "C6",
                  "ticks": 196800,
                  "time": 6.3730605,
                  "velocity": 0.8267716535433071
              },
              {
                  "duration": 0.2279794000000006,
                  "durationTicks": 7040,
                  "midi": 86,
                  "name": "D6",
                  "ticks": 201600,
                  "time": 6.528501,
                  "velocity": 0.7795275590551181
              },
              {
                  "duration": 0.39022042187500006,
                  "durationTicks": 12050,
                  "midi": 84,
                  "name": "C6",
                  "ticks": 206400,
                  "time": 6.6839415,
                  "velocity": 0.8740157480314961
              },
              {
                  "duration": 0.1640221109374993,
                  "durationTicks": 5065,
                  "midi": 81,
                  "name": "A5",
                  "ticks": 216000,
                  "time": 6.994822500000001,
                  "velocity": 0.7952755905511811
              },
              {
                  "duration": 0.17276563906249898,
                  "durationTicks": 5335,
                  "midi": 79,
                  "name": "G5",
                  "ticks": 225600,
                  "time": 7.305703500000001,
                  "velocity": 0.8582677165354331
              },
              {
                  "duration": 0.15569956750000014,
                  "durationTicks": 4808,
                  "midi": 81,
                  "name": "A5",
                  "ticks": 235200,
                  "time": 7.6165845,
                  "velocity": 0.84251968503937
              },
              {
                  "duration": 0.16933299468750018,
                  "durationTicks": 5229,
                  "midi": 79,
                  "name": "G5",
                  "ticks": 240000,
                  "time": 7.772025,
                  "velocity": 0.8031496062992126
              },
              {
                  "duration": 0.20437187406250068,
                  "durationTicks": 6311,
                  "midi": 77,
                  "name": "F5",
                  "ticks": 244800,
                  "time": 7.9274655,
                  "velocity": 0.7795275590551181
              },
              {
                  "duration": 0.17597159937499995,
                  "durationTicks": 5434,
                  "midi": 79,
                  "name": "G5",
                  "ticks": 249600,
                  "time": 8.082906000000001,
                  "velocity": 0.8503937007874016
              },
              {
                  "duration": 0.18856875656249983,
                  "durationTicks": 5823,
                  "midi": 77,
                  "name": "F5",
                  "ticks": 254400,
                  "time": 8.2383465,
                  "velocity": 0.8582677165354331
              },
              {
                  "duration": 0.1822539862500001,
                  "durationTicks": 5628,
                  "midi": 74,
                  "name": "D5",
                  "ticks": 259200,
                  "time": 8.393787,
                  "velocity": 0.8346456692913385
              },
              {
                  "duration": 0.17555061468750033,
                  "durationTicks": 5421,
                  "midi": 72,
                  "name": "C5",
                  "ticks": 264000,
                  "time": 8.5492275,
                  "velocity": 0.8740157480314961
              },
              {
                  "duration": 0.18795347125000106,
                  "durationTicks": 5804,
                  "midi": 74,
                  "name": "D5",
                  "ticks": 268800,
                  "time": 8.704668,
                  "velocity": 0.84251968503937
              },
              {
                  "duration": 0.18286927156250066,
                  "durationTicks": 5647,
                  "midi": 77,
                  "name": "F5",
                  "ticks": 273600,
                  "time": 8.8601085,
                  "velocity": 0.8188976377952756
              },
              {
                  "duration": 0.15216977281250088,
                  "durationTicks": 4699,
                  "midi": 79,
                  "name": "G5",
                  "ticks": 278400,
                  "time": 9.015549,
                  "velocity": 0.8818897637795275
              },
              {
                  "duration": 0.16602988406249963,
                  "durationTicks": 5127,
                  "midi": 77,
                  "name": "F5",
                  "ticks": 283200,
                  "time": 9.170989500000001,
                  "velocity": 0.8503937007874016
              },
              {
                  "duration": 0.1723770378124989,
                  "durationTicks": 5323,
                  "midi": 79,
                  "name": "G5",
                  "ticks": 292800,
                  "time": 9.481870500000001,
                  "velocity": 0.889763779527559
              },
              {
                  "duration": 0.16748713874999943,
                  "durationTicks": 5172,
                  "midi": 81,
                  "name": "A5",
                  "ticks": 297600,
                  "time": 9.637311,
                  "velocity": 0.8818897637795275
              },
              {
                  "duration": 0.13941069843749965,
                  "durationTicks": 4305,
                  "midi": 84,
                  "name": "C6",
                  "ticks": 302400,
                  "time": 9.792751500000001,
                  "velocity": 0.7716535433070866
              },
              {
                  "duration": 0.1385687290625004,
                  "durationTicks": 4279,
                  "midi": 86,
                  "name": "D6",
                  "ticks": 312000,
                  "time": 10.1036325,
                  "velocity": 0.8188976377952756
              },
              {
                  "duration": 0.1385687290625004,
                  "durationTicks": 4279,
                  "midi": 84,
                  "name": "C6",
                  "ticks": 316800,
                  "time": 10.259073,
                  "velocity": 0.8188976377952756
              },
              {
                  "duration": 0.17318662375000038,
                  "durationTicks": 5348,
                  "midi": 81,
                  "name": "A5",
                  "ticks": 321600,
                  "time": 10.4145135,
                  "velocity": 0.937007874015748
              },
              {
                  "duration": 0.1731866237499986,
                  "durationTicks": 5348,
                  "midi": 79,
                  "name": "G5",
                  "ticks": 326400,
                  "time": 10.569954000000001,
                  "velocity": 0.937007874015748
              },
              {
                  "duration": 0.1800842959374993,
                  "durationTicks": 5561,
                  "midi": 77,
                  "name": "F5",
                  "ticks": 331200,
                  "time": 10.7253945,
                  "velocity": 0.9133858267716536
              },
              {
                  "duration": 0.1928109868749992,
                  "durationTicks": 5954,
                  "midi": 74,
                  "name": "D5",
                  "ticks": 336000,
                  "time": 10.880835000000001,
                  "velocity": 0.8267716535433071
              },
              {
                  "duration": 0.1856866306249998,
                  "durationTicks": 5734,
                  "midi": 72,
                  "name": "C5",
                  "ticks": 340800,
                  "time": 11.0362755,
                  "velocity": 0.8110236220472441
              },
              {
                  "duration": 0.14336147781249764,
                  "durationTicks": 4427,
                  "midi": 84,
                  "name": "C6",
                  "ticks": 811200,
                  "time": 26.269444500000002,
                  "velocity": 0.8110236220472441
              },
              {
                  "duration": 0.1575778068749969,
                  "durationTicks": 4866,
                  "midi": 86,
                  "name": "D6",
                  "ticks": 816000,
                  "time": 26.424885000000003,
                  "velocity": 0.7952755905511811
              },
              {
                  "duration": 0.1791775596874956,
                  "durationTicks": 5533,
                  "midi": 81,
                  "name": "A5",
                  "ticks": 830400,
                  "time": 26.891206500000003,
                  "velocity": 0.9291338582677166
              },
              {
                  "duration": 0.16525268156250306,
                  "durationTicks": 5103,
                  "midi": 79,
                  "name": "G5",
                  "ticks": 840000,
                  "time": 27.2020875,
                  "velocity": 0.8110236220472441
              },
              {
                  "duration": 0.15136018687499941,
                  "durationTicks": 4674,
                  "midi": 81,
                  "name": "A5",
                  "ticks": 849600,
                  "time": 27.512968500000003,
                  "velocity": 0.84251968503937
              },
              {
                  "duration": 0.1868200509375022,
                  "durationTicks": 5769,
                  "midi": 79,
                  "name": "G5",
                  "ticks": 854400,
                  "time": 27.668409,
                  "velocity": 0.7952755905511811
              },
              {
                  "duration": 0.1729275562500021,
                  "durationTicks": 5340,
                  "midi": 79,
                  "name": "G5",
                  "ticks": 864000,
                  "time": 27.979290000000002,
                  "velocity": 0.7952755905511811
              },
              {
                  "duration": 0.18717626875000093,
                  "durationTicks": 5780,
                  "midi": 77,
                  "name": "F5",
                  "ticks": 868800,
                  "time": 28.134730500000003,
                  "velocity": 0.9133858267716536
              },
              {
                  "duration": 0.1802462131249989,
                  "durationTicks": 5566,
                  "midi": 74,
                  "name": "D5",
                  "ticks": 873600,
                  "time": 28.290171,
                  "velocity": 0.8346456692913385
              },
              {
                  "duration": 0.1944625421875017,
                  "durationTicks": 6005,
                  "midi": 72,
                  "name": "C5",
                  "ticks": 878400,
                  "time": 28.445611500000002,
                  "velocity": 0.7952755905511811
              },
              {
                  "duration": 0.16628895156249968,
                  "durationTicks": 5135,
                  "midi": 74,
                  "name": "D5",
                  "ticks": 883200,
                  "time": 28.601052000000003,
                  "velocity": 0.8818897637795275
              },
              {
                  "duration": 0.18053766406250205,
                  "durationTicks": 5575,
                  "midi": 77,
                  "name": "F5",
                  "ticks": 888000,
                  "time": 28.7564925,
                  "velocity": 0.7952755905511811
              },
              {
                  "duration": 0.15236407343750002,
                  "durationTicks": 4705,
                  "midi": 79,
                  "name": "G5",
                  "ticks": 892800,
                  "time": 28.911933,
                  "velocity": 0.8976377952755905
              },
              {
                  "duration": 0.17393144281249917,
                  "durationTicks": 5371,
                  "midi": 79,
                  "name": "G5",
                  "ticks": 907200,
                  "time": 29.3782545,
                  "velocity": 0.7716535433070866
              },
              {
                  "duration": 0.18128248312499906,
                  "durationTicks": 5598,
                  "midi": 84,
                  "name": "C6",
                  "ticks": 916800,
                  "time": 29.689135500000003,
                  "velocity": 0.8582677165354331
              },
              {
                  "duration": 0.16732522156249985,
                  "durationTicks": 5167,
                  "midi": 86,
                  "name": "D6",
                  "ticks": 926400,
                  "time": 30.0000165,
                  "velocity": 0.8661417322834646
              },
              {
                  "duration": 0.1392163978125005,
                  "durationTicks": 4299,
                  "midi": 84,
                  "name": "C6",
                  "ticks": 931200,
                  "time": 30.155457000000002,
                  "velocity": 0.7874015748031497
              },
              {
                  "duration": 0.1464702878125017,
                  "durationTicks": 4523,
                  "midi": 79,
                  "name": "G5",
                  "ticks": 940800,
                  "time": 30.466338,
                  "velocity": 0.8976377952755905
              },
              {
                  "duration": 0.1819625353125005,
                  "durationTicks": 5619,
                  "midi": 77,
                  "name": "F5",
                  "ticks": 945600,
                  "time": 30.6217785,
                  "velocity": 0.8740157480314961
              },
              {
                  "duration": 0.1749677128125029,
                  "durationTicks": 5403,
                  "midi": 69,
                  "name": "A4",
                  "ticks": 950400,
                  "time": 30.777219000000002,
                  "velocity": 0.7480314960629921
              },
              {
                  "duration": 0.1749677128125029,
                  "durationTicks": 5403,
                  "midi": 74,
                  "name": "D5",
                  "ticks": 950400,
                  "time": 30.777219000000002,
                  "velocity": 0.9133858267716536
              },
              {
                  "duration": 0.16807004062500042,
                  "durationTicks": 5190,
                  "midi": 72,
                  "name": "C5",
                  "ticks": 955200,
                  "time": 30.932659500000003,
                  "velocity": 0.7795275590551181
              },
              {
                  "duration": 0.14336147781250475,
                  "durationTicks": 4427,
                  "midi": 84,
                  "name": "C6",
                  "ticks": 1425600,
                  "time": 46.1658285,
                  "velocity": 0.8110236220472441
              },
              {
                  "duration": 0.157577806875004,
                  "durationTicks": 4866,
                  "midi": 86,
                  "name": "D6",
                  "ticks": 1430400,
                  "time": 46.321269,
                  "velocity": 0.7952755905511811
              },
              {
                  "duration": 0.1791775596875027,
                  "durationTicks": 5533,
                  "midi": 81,
                  "name": "A5",
                  "ticks": 1444800,
                  "time": 46.7875905,
                  "velocity": 0.9291338582677166
              },
              {
                  "duration": 0.1652526815624995,
                  "durationTicks": 5103,
                  "midi": 79,
                  "name": "G5",
                  "ticks": 1454400,
                  "time": 47.0984715,
                  "velocity": 0.8110236220472441
              },
              {
                  "duration": 0.15136018687499586,
                  "durationTicks": 4674,
                  "midi": 81,
                  "name": "A5",
                  "ticks": 1464000,
                  "time": 47.409352500000004,
                  "velocity": 0.84251968503937
              },
              {
                  "duration": 0.18682005093749865,
                  "durationTicks": 5769,
                  "midi": 79,
                  "name": "G5",
                  "ticks": 1468800,
                  "time": 47.564793,
                  "velocity": 0.7952755905511811
              },
              {
                  "duration": 0.1729275562500021,
                  "durationTicks": 5340,
                  "midi": 79,
                  "name": "G5",
                  "ticks": 1478400,
                  "time": 47.875674000000004,
                  "velocity": 0.7952755905511811
              },
              {
                  "duration": 0.18717626875000093,
                  "durationTicks": 5780,
                  "midi": 77,
                  "name": "F5",
                  "ticks": 1483200,
                  "time": 48.0311145,
                  "velocity": 0.9133858267716536
              },
              {
                  "duration": 0.18024621312499534,
                  "durationTicks": 5566,
                  "midi": 74,
                  "name": "D5",
                  "ticks": 1488000,
                  "time": 48.186555000000006,
                  "velocity": 0.8346456692913385
              },
              {
                  "duration": 0.1944625421874946,
                  "durationTicks": 6005,
                  "midi": 72,
                  "name": "C5",
                  "ticks": 1492800,
                  "time": 48.3419955,
                  "velocity": 0.7952755905511811
              },
              {
                  "duration": 0.16628895156250678,
                  "durationTicks": 5135,
                  "midi": 74,
                  "name": "D5",
                  "ticks": 1497600,
                  "time": 48.497436,
                  "velocity": 0.8818897637795275
              },
              {
                  "duration": 0.1805376640624985,
                  "durationTicks": 5575,
                  "midi": 77,
                  "name": "F5",
                  "ticks": 1502400,
                  "time": 48.652876500000005,
                  "velocity": 0.7952755905511811
              },
              {
                  "duration": 0.15236407343750358,
                  "durationTicks": 4705,
                  "midi": 79,
                  "name": "G5",
                  "ticks": 1507200,
                  "time": 48.808317,
                  "velocity": 0.8976377952755905
              },
              {
                  "duration": 0.17393144281250272,
                  "durationTicks": 5371,
                  "midi": 79,
                  "name": "G5",
                  "ticks": 1521600,
                  "time": 49.2746385,
                  "velocity": 0.7716535433070866
              },
              {
                  "duration": 0.1812824831249955,
                  "durationTicks": 5598,
                  "midi": 84,
                  "name": "C6",
                  "ticks": 1531200,
                  "time": 49.585519500000004,
                  "velocity": 0.8582677165354331
              },
              {
                  "duration": 0.16732522156249985,
                  "durationTicks": 5167,
                  "midi": 86,
                  "name": "D6",
                  "ticks": 1540800,
                  "time": 49.896400500000006,
                  "velocity": 0.8661417322834646
              },
              {
                  "duration": 0.13921639781249695,
                  "durationTicks": 4299,
                  "midi": 84,
                  "name": "C6",
                  "ticks": 1545600,
                  "time": 50.051841,
                  "velocity": 0.7874015748031497
              },
              {
                  "duration": 0.14647028781249816,
                  "durationTicks": 4523,
                  "midi": 79,
                  "name": "G5",
                  "ticks": 1555200,
                  "time": 50.362722000000005,
                  "velocity": 0.8976377952755905
              },
              {
                  "duration": 0.1819625353124934,
                  "durationTicks": 5619,
                  "midi": 77,
                  "name": "F5",
                  "ticks": 1560000,
                  "time": 50.5181625,
                  "velocity": 0.8740157480314961
              },
              {
                  "duration": 0.1749677128125029,
                  "durationTicks": 5403,
                  "midi": 69,
                  "name": "A4",
                  "ticks": 1564800,
                  "time": 50.673603,
                  "velocity": 0.7480314960629921
              },
              {
                  "duration": 0.1749677128125029,
                  "durationTicks": 5403,
                  "midi": 74,
                  "name": "D5",
                  "ticks": 1564800,
                  "time": 50.673603,
                  "velocity": 0.9133858267716536
              },
              {
                  "duration": 0.16807004062499686,
                  "durationTicks": 5190,
                  "midi": 72,
                  "name": "C5",
                  "ticks": 1569600,
                  "time": 50.829043500000004,
                  "velocity": 0.7795275590551181
              },
              {
                  "duration": 0.18928119218750084,
                  "durationTicks": 5845,
                  "midi": 67,
                  "name": "G4",
                  "ticks": 1891200,
                  "time": 61.243557,
                  "velocity": 0.8818897637795275
              },
              {
                  "duration": 0.1471827234374956,
                  "durationTicks": 4545,
                  "midi": 65,
                  "name": "F4",
                  "ticks": 1905600,
                  "time": 61.7098785,
                  "velocity": 0.9448818897637795
              },
              {
                  "duration": 0.161463819374994,
                  "durationTicks": 4986,
                  "midi": 65,
                  "name": "F4",
                  "ticks": 1910400,
                  "time": 61.86531900000001,
                  "velocity": 0.8188976377952756
              },
              {
                  "duration": 0.1757125318749999,
                  "durationTicks": 5426,
                  "midi": 74,
                  "name": "D5",
                  "ticks": 1915200,
                  "time": 62.020759500000004,
                  "velocity": 0.9212598425196851
              },
              {
                  "duration": 0.22538872499999485,
                  "durationTicks": 6960,
                  "midi": 65,
                  "name": "F4",
                  "ticks": 1924800,
                  "time": 62.331640500000006,
                  "velocity": 0.9133858267716536
              },
              {
                  "duration": 0.17606874968749509,
                  "durationTicks": 5437,
                  "midi": 74,
                  "name": "D5",
                  "ticks": 1929600,
                  "time": 62.487081,
                  "velocity": 0.889763779527559
              },
              {
                  "duration": 0.19028507875000855,
                  "durationTicks": 5876,
                  "midi": 72,
                  "name": "C5",
                  "ticks": 1934400,
                  "time": 62.6425215,
                  "velocity": 0.8031496062992126
              },
              {
                  "duration": 0.20453379125000026,
                  "durationTicks": 6316,
                  "midi": 74,
                  "name": "D5",
                  "ticks": 1939200,
                  "time": 62.797962000000005,
                  "velocity": 0.7874015748031497
              },
              {
                  "duration": 0.1763925840625049,
                  "durationTicks": 5447,
                  "midi": 72,
                  "name": "C5",
                  "ticks": 1944000,
                  "time": 62.9534025,
                  "velocity": 0.8740157480314961
              },
              {
                  "duration": 0.16943014499999975,
                  "durationTicks": 5232,
                  "midi": 69,
                  "name": "A4",
                  "ticks": 1948800,
                  "time": 63.108843,
                  "velocity": 0.8740157480314961
              },
              {
                  "duration": 0.20495477593749456,
                  "durationTicks": 6329,
                  "midi": 67,
                  "name": "G4",
                  "ticks": 1953600,
                  "time": 63.264283500000005,
                  "velocity": 0.84251968503937
              },
              {
                  "duration": 0.19795995343750405,
                  "durationTicks": 6113,
                  "midi": 69,
                  "name": "A4",
                  "ticks": 1958400,
                  "time": 63.419724,
                  "velocity": 0.9133858267716536
              },
              {
                  "duration": 0.19102989781249136,
                  "durationTicks": 5899,
                  "midi": 72,
                  "name": "C5",
                  "ticks": 1963200,
                  "time": 63.57516450000001,
                  "velocity": 0.8582677165354331
              },
              {
                  "duration": 0.18403507531250085,
                  "durationTicks": 5683,
                  "midi": 74,
                  "name": "D5",
                  "ticks": 1968000,
                  "time": 63.730605000000004,
                  "velocity": 0.8740157480314961
              },
              {
                  "duration": 0.17710501968749526,
                  "durationTicks": 5469,
                  "midi": 72,
                  "name": "C5",
                  "ticks": 1972800,
                  "time": 63.8860455,
                  "velocity": 0.8818897637795275
              },
              {
                  "duration": 0.18439129312498892,
                  "durationTicks": 5694,
                  "midi": 69,
                  "name": "A4",
                  "ticks": 1982400,
                  "time": 64.1969265,
                  "velocity": 0.8031496062992126
              },
              {
                  "duration": 0.1916775665625039,
                  "durationTicks": 5919,
                  "midi": 67,
                  "name": "G4",
                  "ticks": 1992000,
                  "time": 64.5078075,
                  "velocity": 0.84251968503937
              },
              {
                  "duration": 0.1778174553124927,
                  "durationTicks": 5491,
                  "midi": 69,
                  "name": "A4",
                  "ticks": 2001600,
                  "time": 64.81868850000001,
                  "velocity": 0.8346456692913385
              },
              {
                  "duration": 0.1920014009374995,
                  "durationTicks": 5929,
                  "midi": 67,
                  "name": "G4",
                  "ticks": 2006400,
                  "time": 64.974129,
                  "velocity": 0.9133858267716536
              },
              {
                  "duration": 0.18507134531250813,
                  "durationTicks": 5715,
                  "midi": 65,
                  "name": "F4",
                  "ticks": 2011200,
                  "time": 65.1295695,
                  "velocity": 0.8346456692913385
              },
              {
                  "duration": 0.22056359281249627,
                  "durationTicks": 6811,
                  "midi": 67,
                  "name": "G4",
                  "ticks": 2016000,
                  "time": 65.28501,
                  "velocity": 0.7874015748031497
              },
              {
                  "duration": 0.19242238562500802,
                  "durationTicks": 5942,
                  "midi": 65,
                  "name": "F4",
                  "ticks": 2020800,
                  "time": 65.4404505,
                  "velocity": 0.8582677165354331
              },
              {
                  "duration": 0.17846512406249815,
                  "durationTicks": 5511,
                  "midi": 60,
                  "name": "C4",
                  "ticks": 2030400,
                  "time": 65.7513315,
                  "velocity": 0.8661417322834646
              },
              {
                  "duration": 0.14336147781250475,
                  "durationTicks": 4427,
                  "midi": 84,
                  "name": "C6",
                  "ticks": 2040000,
                  "time": 66.0622125,
                  "velocity": 0.8110236220472441
              },
              {
                  "duration": 0.1575778068750111,
                  "durationTicks": 4866,
                  "midi": 86,
                  "name": "D6",
                  "ticks": 2044800,
                  "time": 66.217653,
                  "velocity": 0.7952755905511811
              },
              {
                  "duration": 0.1791775596875027,
                  "durationTicks": 5533,
                  "midi": 81,
                  "name": "A5",
                  "ticks": 2059200,
                  "time": 66.6839745,
                  "velocity": 0.9291338582677166
              },
              {
                  "duration": 0.1652526815625066,
                  "durationTicks": 5103,
                  "midi": 79,
                  "name": "G5",
                  "ticks": 2068800,
                  "time": 66.9948555,
                  "velocity": 0.8110236220472441
              },
              {
                  "duration": 0.15136018687499586,
                  "durationTicks": 4674,
                  "midi": 81,
                  "name": "A5",
                  "ticks": 2078400,
                  "time": 67.30573650000001,
                  "velocity": 0.84251968503937
              },
              {
                  "duration": 0.18682005093749865,
                  "durationTicks": 5769,
                  "midi": 79,
                  "name": "G5",
                  "ticks": 2083200,
                  "time": 67.461177,
                  "velocity": 0.7952755905511811
              },
              {
                  "duration": 0.1729275562500021,
                  "durationTicks": 5340,
                  "midi": 79,
                  "name": "G5",
                  "ticks": 2092800,
                  "time": 67.772058,
                  "velocity": 0.7952755905511811
              },
              {
                  "duration": 0.18717626875000803,
                  "durationTicks": 5780,
                  "midi": 77,
                  "name": "F5",
                  "ticks": 2097600,
                  "time": 67.9274985,
                  "velocity": 0.9133858267716536
              },
              {
                  "duration": 0.18024621312498823,
                  "durationTicks": 5566,
                  "midi": 74,
                  "name": "D5",
                  "ticks": 2102400,
                  "time": 68.08293900000001,
                  "velocity": 0.8346456692913385
              },
              {
                  "duration": 0.1944625421874946,
                  "durationTicks": 6005,
                  "midi": 72,
                  "name": "C5",
                  "ticks": 2107200,
                  "time": 68.23837950000001,
                  "velocity": 0.7952755905511811
              },
              {
                  "duration": 0.16628895156250678,
                  "durationTicks": 5135,
                  "midi": 74,
                  "name": "D5",
                  "ticks": 2112000,
                  "time": 68.39382,
                  "velocity": 0.8818897637795275
              },
              {
                  "duration": 0.1805376640624985,
                  "durationTicks": 5575,
                  "midi": 77,
                  "name": "F5",
                  "ticks": 2116800,
                  "time": 68.5492605,
                  "velocity": 0.7952755905511811
              },
              {
                  "duration": 0.15236407343751068,
                  "durationTicks": 4705,
                  "midi": 79,
                  "name": "G5",
                  "ticks": 2121600,
                  "time": 68.704701,
                  "velocity": 0.8976377952755905
              },
              {
                  "duration": 0.17393144281250272,
                  "durationTicks": 5371,
                  "midi": 79,
                  "name": "G5",
                  "ticks": 2136000,
                  "time": 69.1710225,
                  "velocity": 0.7716535433070866
              },
              {
                  "duration": 0.1812824831250026,
                  "durationTicks": 5598,
                  "midi": 84,
                  "name": "C6",
                  "ticks": 2145600,
                  "time": 69.4819035,
                  "velocity": 0.8582677165354331
              },
              {
                  "duration": 0.16732522156249274,
                  "durationTicks": 5167,
                  "midi": 86,
                  "name": "D6",
                  "ticks": 2155200,
                  "time": 69.79278450000001,
                  "velocity": 0.8661417322834646
              },
              {
                  "duration": 0.13921639781248984,
                  "durationTicks": 4299,
                  "midi": 84,
                  "name": "C6",
                  "ticks": 2160000,
                  "time": 69.94822500000001,
                  "velocity": 0.7874015748031497
              },
              {
                  "duration": 0.14647028781250526,
                  "durationTicks": 4523,
                  "midi": 79,
                  "name": "G5",
                  "ticks": 2169600,
                  "time": 70.259106,
                  "velocity": 0.8976377952755905
              },
              {
                  "duration": 0.1819625353124934,
                  "durationTicks": 5619,
                  "midi": 77,
                  "name": "F5",
                  "ticks": 2174400,
                  "time": 70.4145465,
                  "velocity": 0.8740157480314961
              },
              {
                  "duration": 0.1749677128125029,
                  "durationTicks": 5403,
                  "midi": 69,
                  "name": "A4",
                  "ticks": 2179200,
                  "time": 70.569987,
                  "velocity": 0.7480314960629921
              },
              {
                  "duration": 0.1749677128125029,
                  "durationTicks": 5403,
                  "midi": 74,
                  "name": "D5",
                  "ticks": 2179200,
                  "time": 70.569987,
                  "velocity": 0.9133858267716536
              },
              {
                  "duration": 0.16807004062499686,
                  "durationTicks": 5190,
                  "midi": 72,
                  "name": "C5",
                  "ticks": 2184000,
                  "time": 70.72542750000001,
                  "velocity": 0.7795275590551181
              },
              {
                  "duration": 0.17532393062499807,
                  "durationTicks": 5414,
                  "midi": 77,
                  "name": "F5",
                  "ticks": 2193600,
                  "time": 71.0363085,
                  "velocity": 0.6614173228346457
              },
              {
                  "duration": 0.18960502656250355,
                  "durationTicks": 5855,
                  "midi": 74,
                  "name": "D5",
                  "ticks": 2198400,
                  "time": 71.191749,
                  "velocity": 0.7007874015748031
              },
              {
                  "duration": 0.18267497093749796,
                  "durationTicks": 5641,
                  "midi": 72,
                  "name": "C5",
                  "ticks": 2203200,
                  "time": 71.3471895,
                  "velocity": 0.7086614173228346
              },
              {
                  "duration": 0.1687177093750023,
                  "durationTicks": 5210,
                  "midi": 77,
                  "name": "F5",
                  "ticks": 2212800,
                  "time": 71.65807050000001,
                  "velocity": 0.7322834645669292
              },
              {
                  "duration": 0.16175527031249715,
                  "durationTicks": 4995,
                  "midi": 74,
                  "name": "D5",
                  "ticks": 2217600,
                  "time": 71.813511,
                  "velocity": 0.7716535433070866
              },
              {
                  "duration": 0.19727990124999906,
                  "durationTicks": 6092,
                  "midi": 72,
                  "name": "C5",
                  "ticks": 2222400,
                  "time": 71.9689515,
                  "velocity": 0.7795275590551181
              },
              {
                  "duration": 0.16211148812500653,
                  "durationTicks": 5006,
                  "midi": 77,
                  "name": "F5",
                  "ticks": 2232000,
                  "time": 72.2798325,
                  "velocity": 0.7480314960629921
              },
              {
                  "duration": 0.19760373562499467,
                  "durationTicks": 6102,
                  "midi": 74,
                  "name": "D5",
                  "ticks": 2236800,
                  "time": 72.43527300000001,
                  "velocity": 0.6614173228346457
              },
              {
                  "duration": 0.2007773124999943,
                  "durationTicks": 6200,
                  "midi": 72,
                  "name": "C5",
                  "ticks": 2241600,
                  "time": 72.5907135,
                  "velocity": 0.7322834645669292
              },
              {
                  "duration": 0.15553765031251032,
                  "durationTicks": 4803,
                  "midi": 77,
                  "name": "F5",
                  "ticks": 2251200,
                  "time": 72.9015945,
                  "velocity": 0.6850393700787402
              },
              {
                  "duration": 0.16978636281250203,
                  "durationTicks": 5243,
                  "midi": 74,
                  "name": "D5",
                  "ticks": 2256000,
                  "time": 73.057035,
                  "velocity": 0.7401574803149606
              },
              {
                  "duration": 0.15544049999999743,
                  "durationTicks": 4800,
                  "midi": 72,
                  "name": "C5",
                  "ticks": 2260800,
                  "time": 73.21247550000001,
                  "velocity": 0.7716535433070866
              },
              {
                  "duration": 0.17532393062499807,
                  "durationTicks": 5414,
                  "midi": 77,
                  "name": "F5",
                  "ticks": 2270400,
                  "time": 73.5233565,
                  "velocity": 0.7559055118110236
              },
              {
                  "duration": 0.16318014156250626,
                  "durationTicks": 5039,
                  "midi": 74,
                  "name": "D5",
                  "ticks": 2275200,
                  "time": 73.678797,
                  "velocity": 0.6141732283464567
              },
              {
                  "duration": 0.17742885406249798,
                  "durationTicks": 5479,
                  "midi": 72,
                  "name": "C5",
                  "ticks": 2280000,
                  "time": 73.8342375,
                  "velocity": 0.6929133858267716
              },
              {
                  "duration": 0.1687177093750023,
                  "durationTicks": 5210,
                  "midi": 77,
                  "name": "F5",
                  "ticks": 2289600,
                  "time": 74.14511850000001,
                  "velocity": 0.6299212598425197
              },
              {
                  "duration": 0.17778507187499315,
                  "durationTicks": 5490,
                  "midi": 74,
                  "name": "D5",
                  "ticks": 2294400,
                  "time": 74.300559,
                  "velocity": 0.6299212598425197
              },
              {
                  "duration": 0.18354932375000033,
                  "durationTicks": 5668,
                  "midi": 72,
                  "name": "C5",
                  "ticks": 2299200,
                  "time": 74.4559995,
                  "velocity": 0.6535433070866141
              },
              {
                  "duration": 0.16211148812500653,
                  "durationTicks": 5006,
                  "midi": 77,
                  "name": "F5",
                  "ticks": 2308800,
                  "time": 74.7668805,
                  "velocity": 0.7716535433070866
              },
              {
                  "duration": 0.18354932375000033,
                  "durationTicks": 5668,
                  "midi": 74,
                  "name": "D5",
                  "ticks": 2313600,
                  "time": 74.92232100000001,
                  "velocity": 0.6929133858267716
              },
              {
                  "duration": 0.18539517968748953,
                  "durationTicks": 5725,
                  "midi": 72,
                  "name": "C5",
                  "ticks": 2318400,
                  "time": 75.07776150000001,
                  "velocity": 0.7401574803149606
              },
              {
                  "duration": 0.15550526687501076,
                  "durationTicks": 4802,
                  "midi": 77,
                  "name": "F5",
                  "ticks": 2328000,
                  "time": 75.3886425,
                  "velocity": 0.7007874015748031
              },
              {
                  "duration": 0.20699493249999534,
                  "durationTicks": 6392,
                  "midi": 74,
                  "name": "D5",
                  "ticks": 2332800,
                  "time": 75.544083,
                  "velocity": 0.6692913385826772
              },
              {
                  "duration": 0.1363990387499996,
                  "durationTicks": 4212,
                  "midi": 72,
                  "name": "C5",
                  "ticks": 2337600,
                  "time": 75.6995235,
                  "velocity": 0.5984251968503937
              },
              {
                  "duration": 0.16807004062501107,
                  "durationTicks": 5190,
                  "midi": 72,
                  "name": "C5",
                  "ticks": 2337600,
                  "time": 75.6995235,
                  "velocity": 0.7480314960629921
              },
              {
                  "duration": 0.17532393062499807,
                  "durationTicks": 5414,
                  "midi": 77,
                  "name": "F5",
                  "ticks": 2347200,
                  "time": 76.0104045,
                  "velocity": 0.6535433070866141
              },
              {
                  "duration": 0.15793402468750628,
                  "durationTicks": 4877,
                  "midi": 74,
                  "name": "D5",
                  "ticks": 2352000,
                  "time": 76.165845,
                  "velocity": 0.6929133858267716
              },
              {
                  "duration": 0.189572643125004,
                  "durationTicks": 5854,
                  "midi": 74,
                  "name": "D5",
                  "ticks": 2352000,
                  "time": 76.165845,
                  "velocity": 0.6614173228346457
              },
              {
                  "duration": 0.1826425874999984,
                  "durationTicks": 5640,
                  "midi": 72,
                  "name": "C5",
                  "ticks": 2356800,
                  "time": 76.3212855,
                  "velocity": 0.6535433070866141
              },
              {
                  "duration": 0.1687177093749881,
                  "durationTicks": 5210,
                  "midi": 77,
                  "name": "F5",
                  "ticks": 2366400,
                  "time": 76.63216650000001,
                  "velocity": 0.7244094488188977
              },
              {
                  "duration": 0.1617876537499967,
                  "durationTicks": 4996,
                  "midi": 74,
                  "name": "D5",
                  "ticks": 2371200,
                  "time": 76.78760700000001,
                  "velocity": 0.6929133858267716
              },
              {
                  "duration": 0.17257133843749273,
                  "durationTicks": 5329,
                  "midi": 74,
                  "name": "D5",
                  "ticks": 2371200,
                  "time": 76.78760700000001,
                  "velocity": 0.6929133858267716
              },
              {
                  "duration": 0.19727990124999906,
                  "durationTicks": 6092,
                  "midi": 72,
                  "name": "C5",
                  "ticks": 2376000,
                  "time": 76.9430475,
                  "velocity": 0.7637795275590551
              },
              {
                  "duration": 0.16211148812500653,
                  "durationTicks": 5006,
                  "midi": 77,
                  "name": "F5",
                  "ticks": 2385600,
                  "time": 77.2539285,
                  "velocity": 0.7322834645669292
              },
              {
                  "duration": 0.16596511718749696,
                  "durationTicks": 5125,
                  "midi": 74,
                  "name": "D5",
                  "ticks": 2390400,
                  "time": 77.409369,
                  "velocity": 0.6929133858267716
              },
              {
                  "duration": 0.19760373562500888,
                  "durationTicks": 6102,
                  "midi": 74,
                  "name": "D5",
                  "ticks": 2390400,
                  "time": 77.409369,
                  "velocity": 0.6614173228346457
              },
              {
                  "duration": 0.2007773124999943,
                  "durationTicks": 6200,
                  "midi": 72,
                  "name": "C5",
                  "ticks": 2395200,
                  "time": 77.56480950000001,
                  "velocity": 0.6929133858267716
              },
              {
                  "duration": 0.15550526687501076,
                  "durationTicks": 4802,
                  "midi": 77,
                  "name": "F5",
                  "ticks": 2404800,
                  "time": 77.8756905,
                  "velocity": 0.6692913385826772
              },
              {
                  "duration": 0.1593588959375012,
                  "durationTicks": 4921,
                  "midi": 74,
                  "name": "D5",
                  "ticks": 2409600,
                  "time": 78.031131,
                  "velocity": 0.6535433070866141
              },
              {
                  "duration": 0.16975397937500247,
                  "durationTicks": 5242,
                  "midi": 74,
                  "name": "D5",
                  "ticks": 2409600,
                  "time": 78.031131,
                  "velocity": 0.6299212598425197
              },
              {
                  "duration": 0.15236407343751068,
                  "durationTicks": 4705,
                  "midi": 72,
                  "name": "C5",
                  "ticks": 2414400,
                  "time": 78.1865715,
                  "velocity": 0.6771653543307087
              },
              {
                  "duration": 0.3112696012500038,
                  "durationTicks": 9612,
                  "midi": 72,
                  "name": "C5",
                  "ticks": 2414400,
                  "time": 78.1865715,
                  "velocity": 0.7322834645669292
              },
              {
                  "duration": 0.18089388187499367,
                  "durationTicks": 5586,
                  "midi": 77,
                  "name": "F5",
                  "ticks": 2424000,
                  "time": 78.49745250000001,
                  "velocity": 0.6692913385826772
              },
              {
                  "duration": 0.17393144281250272,
                  "durationTicks": 5371,
                  "midi": 74,
                  "name": "D5",
                  "ticks": 2428800,
                  "time": 78.652893,
                  "velocity": 0.5984251968503937
              },
              {
                  "duration": 0.1645078625000025,
                  "durationTicks": 5080,
                  "midi": 72,
                  "name": "C5",
                  "ticks": 2443200,
                  "time": 79.1192145,
                  "velocity": 0.7795275590551181
              },
              {
                  "duration": 0.1673576049999923,
                  "durationTicks": 5168,
                  "midi": 74,
                  "name": "D5",
                  "ticks": 2448000,
                  "time": 79.27465500000001,
                  "velocity": 0.7007874015748031
              },
              {
                  "duration": 0.16764905593750257,
                  "durationTicks": 5177,
                  "midi": 72,
                  "name": "C5",
                  "ticks": 2462400,
                  "time": 79.7409765,
                  "velocity": 0.7322834645669292
              },
              {
                  "duration": 0.16068661687501162,
                  "durationTicks": 4962,
                  "midi": 69,
                  "name": "A4",
                  "ticks": 2467200,
                  "time": 79.896417,
                  "velocity": 0.6614173228346457
              },
              {
                  "duration": 0.17500009625000246,
                  "durationTicks": 5404,
                  "midi": 67,
                  "name": "G4",
                  "ticks": 2472000,
                  "time": 80.05185750000001,
                  "velocity": 0.7795275590551181
              },
              {
                  "duration": 0.1610428346874926,
                  "durationTicks": 4973,
                  "midi": 65,
                  "name": "F4",
                  "ticks": 2481600,
                  "time": 80.3627385,
                  "velocity": 0.7637795275590551
              },
              {
                  "duration": 0.19650269875000959,
                  "durationTicks": 6068,
                  "midi": 62,
                  "name": "D4",
                  "ticks": 2486400,
                  "time": 80.518179,
                  "velocity": 0.7244094488188977
              },
              {
                  "duration": 0.16836149156250713,
                  "durationTicks": 5199,
                  "midi": 60,
                  "name": "C4",
                  "ticks": 2491200,
                  "time": 80.6736195,
                  "velocity": 0.7244094488188977
              },
              {
                  "duration": 0.256930193125001,
                  "durationTicks": 7934,
                  "midi": 81,
                  "name": "A5",
                  "ticks": 2496000,
                  "time": 80.82906,
                  "velocity": 0.8031496062992126
              },
              {
                  "duration": 0.24148329343749708,
                  "durationTicks": 7457,
                  "midi": 84,
                  "name": "C6",
                  "ticks": 2500800,
                  "time": 80.98450050000001,
                  "velocity": 0.8740157480314961
              },
              {
                  "duration": 0.16648325218750415,
                  "durationTicks": 5141,
                  "midi": 79,
                  "name": "G5",
                  "ticks": 2505600,
                  "time": 81.13994100000001,
                  "velocity": 0.8976377952755905
              },
              {
                  "duration": 0.16318014156250626,
                  "durationTicks": 5039,
                  "midi": 81,
                  "name": "A5",
                  "ticks": 2510400,
                  "time": 81.2953815,
                  "velocity": 0.8740157480314961
              },
              {
                  "duration": 0.18869829031251584,
                  "durationTicks": 5827,
                  "midi": 77,
                  "name": "F5",
                  "ticks": 2520000,
                  "time": 81.6062625,
                  "velocity": 0.7874015748031497
              },
              {
                  "duration": 0.17487056249999,
                  "durationTicks": 5400,
                  "midi": 74,
                  "name": "D5",
                  "ticks": 2529600,
                  "time": 81.91714350000001,
                  "velocity": 0.8031496062992126
              },
              {
                  "duration": 0.1791775596874885,
                  "durationTicks": 5533,
                  "midi": 77,
                  "name": "F5",
                  "ticks": 2539200,
                  "time": 82.2280245,
                  "velocity": 0.8267716535433071
              },
              {
                  "duration": 0.19154803281250565,
                  "durationTicks": 5915,
                  "midi": 74,
                  "name": "D5",
                  "ticks": 2544000,
                  "time": 82.383465,
                  "velocity": 0.7874015748031497
              },
              {
                  "duration": 0.18533041281250462,
                  "durationTicks": 5723,
                  "midi": 72,
                  "name": "C5",
                  "ticks": 2548800,
                  "time": 82.5389055,
                  "velocity": 0.84251968503937
              },
              {
                  "duration": 0.1787565749999942,
                  "durationTicks": 5520,
                  "midi": 74,
                  "name": "D5",
                  "ticks": 2553600,
                  "time": 82.69434600000001,
                  "velocity": 0.8582677165354331
              },
              {
                  "duration": 0.17085501624998756,
                  "durationTicks": 5276,
                  "midi": 72,
                  "name": "C5",
                  "ticks": 2558400,
                  "time": 82.84978650000001,
                  "velocity": 0.7716535433070866
              },
              {
                  "duration": 0.18539517968750374,
                  "durationTicks": 5725,
                  "midi": 69,
                  "name": "A4",
                  "ticks": 2563200,
                  "time": 83.005227,
                  "velocity": 0.8976377952755905
              },
              {
                  "duration": 0.17998714562500595,
                  "durationTicks": 5558,
                  "midi": 67,
                  "name": "G4",
                  "ticks": 2568000,
                  "time": 83.1606675,
                  "velocity": 0.889763779527559
              },
              {
                  "duration": 0.1498057818750027,
                  "durationTicks": 4626,
                  "midi": 69,
                  "name": "A4",
                  "ticks": 2572800,
                  "time": 83.316108,
                  "velocity": 0.889763779527559
              },
              {
                  "duration": 0.18665813374998663,
                  "durationTicks": 5764,
                  "midi": 72,
                  "name": "C5",
                  "ticks": 2577600,
                  "time": 83.47154850000001,
                  "velocity": 0.8110236220472441
              },
              {
                  "duration": 0.17642496749999736,
                  "durationTicks": 5448,
                  "midi": 74,
                  "name": "D5",
                  "ticks": 2582400,
                  "time": 83.62698900000001,
                  "velocity": 0.7637795275590551
              },
              {
                  "duration": 0.19248715250000714,
                  "durationTicks": 5944,
                  "midi": 72,
                  "name": "C5",
                  "ticks": 2587200,
                  "time": 83.7824295,
                  "velocity": 0.7795275590551181
              },
              {
                  "duration": 0.19679414968750564,
                  "durationTicks": 6077,
                  "midi": 69,
                  "name": "A4",
                  "ticks": 2596800,
                  "time": 84.0933105,
                  "velocity": 0.8740157480314961
              },
              {
                  "duration": 0.18309595562499226,
                  "durationTicks": 5654,
                  "midi": 67,
                  "name": "G4",
                  "ticks": 2606400,
                  "time": 84.40419150000001,
                  "velocity": 0.937007874015748
              },
              {
                  "duration": 0.18860114000000294,
                  "durationTicks": 5824,
                  "midi": 69,
                  "name": "A4",
                  "ticks": 2616000,
                  "time": 84.7150725,
                  "velocity": 0.9291338582677166
              },
              {
                  "duration": 0.20216980031250387,
                  "durationTicks": 6243,
                  "midi": 67,
                  "name": "G4",
                  "ticks": 2620800,
                  "time": 84.870513,
                  "velocity": 0.7952755905511811
              },
              {
                  "duration": 0.19407394093751407,
                  "durationTicks": 5993,
                  "midi": 65,
                  "name": "F4",
                  "ticks": 2625600,
                  "time": 85.0259535,
                  "velocity": 0.905511811023622
              },
              {
                  "duration": 0.20825788656249244,
                  "durationTicks": 6431,
                  "midi": 67,
                  "name": "G4",
                  "ticks": 2630400,
                  "time": 85.18139400000001,
                  "velocity": 0.8110236220472441
              },
              {
                  "duration": 0.20301176968750667,
                  "durationTicks": 6269,
                  "midi": 65,
                  "name": "F4",
                  "ticks": 2635200,
                  "time": 85.33683450000001,
                  "velocity": 0.8818897637795275
              },
              {
                  "duration": 0.19452730906249371,
                  "durationTicks": 6007,
                  "midi": 62,
                  "name": "D4",
                  "ticks": 2640000,
                  "time": 85.492275,
                  "velocity": 0.9212598425196851
              },
              {
                  "duration": 0.20874363812498586,
                  "durationTicks": 6446,
                  "midi": 60,
                  "name": "C4",
                  "ticks": 2644800,
                  "time": 85.6477155,
                  "velocity": 0.8740157480314961
              },
              {
                  "duration": 0.15990941437499373,
                  "durationTicks": 4938,
                  "midi": 81,
                  "name": "A5",
                  "ticks": 2649600,
                  "time": 85.803156,
                  "velocity": 0.8346456692913385
              },
              {
                  "duration": 0.2788537803125024,
                  "durationTicks": 8611,
                  "midi": 84,
                  "name": "C6",
                  "ticks": 2654400,
                  "time": 85.9585965,
                  "velocity": 0.8267716535433071
              },
              {
                  "duration": 0.22797939999999528,
                  "durationTicks": 7040,
                  "midi": 86,
                  "name": "D6",
                  "ticks": 2659200,
                  "time": 86.11403700000001,
                  "velocity": 0.7795275590551181
              },
              {
                  "duration": 0.39022042187498585,
                  "durationTicks": 12050,
                  "midi": 84,
                  "name": "C6",
                  "ticks": 2664000,
                  "time": 86.26947750000001,
                  "velocity": 0.8740157480314961
              },
              {
                  "duration": 0.16402211093749486,
                  "durationTicks": 5065,
                  "midi": 81,
                  "name": "A5",
                  "ticks": 2673600,
                  "time": 86.5803585,
                  "velocity": 0.7952755905511811
              },
              {
                  "duration": 0.1727656390624901,
                  "durationTicks": 5335,
                  "midi": 79,
                  "name": "G5",
                  "ticks": 2683200,
                  "time": 86.89123950000001,
                  "velocity": 0.8582677165354331
              },
              {
                  "duration": 0.15569956749999392,
                  "durationTicks": 4808,
                  "midi": 81,
                  "name": "A5",
                  "ticks": 2692800,
                  "time": 87.2021205,
                  "velocity": 0.84251968503937
              },
              {
                  "duration": 0.16933299468750818,
                  "durationTicks": 5229,
                  "midi": 79,
                  "name": "G5",
                  "ticks": 2697600,
                  "time": 87.357561,
                  "velocity": 0.8031496062992126
              },
              {
                  "duration": 0.20437187406250246,
                  "durationTicks": 6311,
                  "midi": 77,
                  "name": "F5",
                  "ticks": 2702400,
                  "time": 87.5130015,
                  "velocity": 0.7795275590551181
              },
              {
                  "duration": 0.1759715993750035,
                  "durationTicks": 5434,
                  "midi": 79,
                  "name": "G5",
                  "ticks": 2707200,
                  "time": 87.668442,
                  "velocity": 0.8503937007874016
              },
              {
                  "duration": 0.18856875656248917,
                  "durationTicks": 5823,
                  "midi": 77,
                  "name": "F5",
                  "ticks": 2712000,
                  "time": 87.82388250000001,
                  "velocity": 0.8582677165354331
              },
              {
                  "duration": 0.18225398625000366,
                  "durationTicks": 5628,
                  "midi": 74,
                  "name": "D5",
                  "ticks": 2716800,
                  "time": 87.97932300000001,
                  "velocity": 0.8346456692913385
              },
              {
                  "duration": 0.175550614687495,
                  "durationTicks": 5421,
                  "midi": 72,
                  "name": "C5",
                  "ticks": 2721600,
                  "time": 88.1347635,
                  "velocity": 0.8740157480314961
              },
              {
                  "duration": 0.1879534712499975,
                  "durationTicks": 5804,
                  "midi": 74,
                  "name": "D5",
                  "ticks": 2726400,
                  "time": 88.290204,
                  "velocity": 0.84251968503937
              },
              {
                  "duration": 0.18286927156250954,
                  "durationTicks": 5647,
                  "midi": 77,
                  "name": "F5",
                  "ticks": 2731200,
                  "time": 88.4456445,
                  "velocity": 0.8188976377952756
              },
              {
                  "duration": 0.1521697728124991,
                  "durationTicks": 4699,
                  "midi": 79,
                  "name": "G5",
                  "ticks": 2736000,
                  "time": 88.60108500000001,
                  "velocity": 0.8818897637795275
              },
              {
                  "duration": 0.16602988406249608,
                  "durationTicks": 5127,
                  "midi": 77,
                  "name": "F5",
                  "ticks": 2740800,
                  "time": 88.75652550000001,
                  "velocity": 0.8503937007874016
              },
              {
                  "duration": 0.17237703781250957,
                  "durationTicks": 5323,
                  "midi": 79,
                  "name": "G5",
                  "ticks": 2750400,
                  "time": 89.0674065,
                  "velocity": 0.889763779527559
              },
              {
                  "duration": 0.16748713875000476,
                  "durationTicks": 5172,
                  "midi": 81,
                  "name": "A5",
                  "ticks": 2755200,
                  "time": 89.222847,
                  "velocity": 0.8818897637795275
              },
              {
                  "duration": 0.13941069843751563,
                  "durationTicks": 4305,
                  "midi": 84,
                  "name": "C6",
                  "ticks": 2760000,
                  "time": 89.3782875,
                  "velocity": 0.7716535433070866
              },
              {
                  "duration": 0.13856872906251283,
                  "durationTicks": 4279,
                  "midi": 86,
                  "name": "D6",
                  "ticks": 2769600,
                  "time": 89.68916850000001,
                  "velocity": 0.8188976377952756
              },
              {
                  "duration": 0.13856872906251283,
                  "durationTicks": 4279,
                  "midi": 84,
                  "name": "C6",
                  "ticks": 2774400,
                  "time": 89.844609,
                  "velocity": 0.8188976377952756
              },
              {
                  "duration": 0.1731866237499986,
                  "durationTicks": 5348,
                  "midi": 81,
                  "name": "A5",
                  "ticks": 2779200,
                  "time": 90.0000495,
                  "velocity": 0.937007874015748
              },
              {
                  "duration": 0.1731866237499986,
                  "durationTicks": 5348,
                  "midi": 79,
                  "name": "G5",
                  "ticks": 2784000,
                  "time": 90.15549,
                  "velocity": 0.937007874015748
              },
              {
                  "duration": 0.18008429593749042,
                  "durationTicks": 5561,
                  "midi": 77,
                  "name": "F5",
                  "ticks": 2788800,
                  "time": 90.31093050000001,
                  "velocity": 0.9133858267716536
              },
              {
                  "duration": 0.19281098687498854,
                  "durationTicks": 5954,
                  "midi": 74,
                  "name": "D5",
                  "ticks": 2793600,
                  "time": 90.46637100000001,
                  "velocity": 0.8267716535433071
              },
              {
                  "duration": 0.1856866306249998,
                  "durationTicks": 5734,
                  "midi": 72,
                  "name": "C5",
                  "ticks": 2798400,
                  "time": 90.6218115,
                  "velocity": 0.8110236220472441
              },
              {
                  "duration": 0.256930193125001,
                  "durationTicks": 7934,
                  "midi": 81,
                  "name": "A5",
                  "ticks": 2803200,
                  "time": 90.777252,
                  "velocity": 0.8031496062992126
              },
              {
                  "duration": 0.24148329343749708,
                  "durationTicks": 7457,
                  "midi": 84,
                  "name": "C6",
                  "ticks": 2808000,
                  "time": 90.9326925,
                  "velocity": 0.8740157480314961
              },
              {
                  "duration": 0.16648325218751836,
                  "durationTicks": 5141,
                  "midi": 79,
                  "name": "G5",
                  "ticks": 2812800,
                  "time": 91.088133,
                  "velocity": 0.8976377952755905
              },
              {
                  "duration": 0.16318014156249205,
                  "durationTicks": 5039,
                  "midi": 81,
                  "name": "A5",
                  "ticks": 2817600,
                  "time": 91.24357350000001,
                  "velocity": 0.8740157480314961
              },
              {
                  "duration": 0.18869829031250163,
                  "durationTicks": 5827,
                  "midi": 77,
                  "name": "F5",
                  "ticks": 2827200,
                  "time": 91.5544545,
                  "velocity": 0.7874015748031497
              },
              {
                  "duration": 0.1748705625000042,
                  "durationTicks": 5400,
                  "midi": 74,
                  "name": "D5",
                  "ticks": 2836800,
                  "time": 91.8653355,
                  "velocity": 0.8031496062992126
              },
              {
                  "duration": 0.1791775596874885,
                  "durationTicks": 5533,
                  "midi": 77,
                  "name": "F5",
                  "ticks": 2846400,
                  "time": 92.17621650000001,
                  "velocity": 0.8267716535433071
              },
              {
                  "duration": 0.19154803281250565,
                  "durationTicks": 5915,
                  "midi": 74,
                  "name": "D5",
                  "ticks": 2851200,
                  "time": 92.331657,
                  "velocity": 0.7874015748031497
              },
              {
                  "duration": 0.1853304128124904,
                  "durationTicks": 5723,
                  "midi": 72,
                  "name": "C5",
                  "ticks": 2856000,
                  "time": 92.4870975,
                  "velocity": 0.84251968503937
              },
              {
                  "duration": 0.1787565749999942,
                  "durationTicks": 5520,
                  "midi": 74,
                  "name": "D5",
                  "ticks": 2860800,
                  "time": 92.642538,
                  "velocity": 0.8582677165354331
              },
              {
                  "duration": 0.17085501625000177,
                  "durationTicks": 5276,
                  "midi": 72,
                  "name": "C5",
                  "ticks": 2865600,
                  "time": 92.7979785,
                  "velocity": 0.7716535433070866
              },
              {
                  "duration": 0.18539517968750374,
                  "durationTicks": 5725,
                  "midi": 69,
                  "name": "A4",
                  "ticks": 2870400,
                  "time": 92.95341900000001,
                  "velocity": 0.8976377952755905
              },
              {
                  "duration": 0.17998714562499174,
                  "durationTicks": 5558,
                  "midi": 67,
                  "name": "G4",
                  "ticks": 2875200,
                  "time": 93.10885950000001,
                  "velocity": 0.889763779527559
              },
              {
                  "duration": 0.1498057818750027,
                  "durationTicks": 4626,
                  "midi": 69,
                  "name": "A4",
                  "ticks": 2880000,
                  "time": 93.2643,
                  "velocity": 0.889763779527559
              },
              {
                  "duration": 0.18665813375000084,
                  "durationTicks": 5764,
                  "midi": 72,
                  "name": "C5",
                  "ticks": 2884800,
                  "time": 93.4197405,
                  "velocity": 0.8110236220472441
              },
              {
                  "duration": 0.17642496749999736,
                  "durationTicks": 5448,
                  "midi": 74,
                  "name": "D5",
                  "ticks": 2889600,
                  "time": 93.575181,
                  "velocity": 0.7637795275590551
              },
              {
                  "duration": 0.19248715249999293,
                  "durationTicks": 5944,
                  "midi": 72,
                  "name": "C5",
                  "ticks": 2894400,
                  "time": 93.73062150000001,
                  "velocity": 0.7795275590551181
              },
              {
                  "duration": 0.19679414968749143,
                  "durationTicks": 6077,
                  "midi": 69,
                  "name": "A4",
                  "ticks": 2904000,
                  "time": 94.0415025,
                  "velocity": 0.8740157480314961
              },
              {
                  "duration": 0.18309595562500647,
                  "durationTicks": 5654,
                  "midi": 67,
                  "name": "G4",
                  "ticks": 2913600,
                  "time": 94.3523835,
                  "velocity": 0.937007874015748
              },
              {
                  "duration": 0.18860114000000294,
                  "durationTicks": 5824,
                  "midi": 69,
                  "name": "A4",
                  "ticks": 2923200,
                  "time": 94.66326450000001,
                  "velocity": 0.9291338582677166
              },
              {
                  "duration": 0.20216980031248966,
                  "durationTicks": 6243,
                  "midi": 67,
                  "name": "G4",
                  "ticks": 2928000,
                  "time": 94.81870500000001,
                  "velocity": 0.7952755905511811
              },
              {
                  "duration": 0.19407394093749986,
                  "durationTicks": 5993,
                  "midi": 65,
                  "name": "F4",
                  "ticks": 2932800,
                  "time": 94.9741455,
                  "velocity": 0.905511811023622
              },
              {
                  "duration": 0.20825788656250666,
                  "durationTicks": 6431,
                  "midi": 67,
                  "name": "G4",
                  "ticks": 2937600,
                  "time": 95.129586,
                  "velocity": 0.8110236220472441
              },
              {
                  "duration": 0.20301176968750667,
                  "durationTicks": 6269,
                  "midi": 65,
                  "name": "F4",
                  "ticks": 2942400,
                  "time": 95.2850265,
                  "velocity": 0.8818897637795275
              },
              {
                  "duration": 0.1945273090624795,
                  "durationTicks": 6007,
                  "midi": 62,
                  "name": "D4",
                  "ticks": 2947200,
                  "time": 95.44046700000001,
                  "velocity": 0.9212598425196851
              },
              {
                  "duration": 0.20874363812498586,
                  "durationTicks": 6446,
                  "midi": 60,
                  "name": "C4",
                  "ticks": 2952000,
                  "time": 95.59590750000001,
                  "velocity": 0.8740157480314961
              },
              {
                  "duration": 0.15990941437499373,
                  "durationTicks": 4938,
                  "midi": 81,
                  "name": "A5",
                  "ticks": 2956800,
                  "time": 95.75134800000001,
                  "velocity": 0.8346456692913385
              },
              {
                  "duration": 0.2788537803125024,
                  "durationTicks": 8611,
                  "midi": 84,
                  "name": "C6",
                  "ticks": 2961600,
                  "time": 95.9067885,
                  "velocity": 0.8267716535433071
              },
              {
                  "duration": 0.2279794000000095,
                  "durationTicks": 7040,
                  "midi": 86,
                  "name": "D6",
                  "ticks": 2966400,
                  "time": 96.062229,
                  "velocity": 0.7795275590551181
              },
              {
                  "duration": 0.39022042187500006,
                  "durationTicks": 12050,
                  "midi": 84,
                  "name": "C6",
                  "ticks": 2971200,
                  "time": 96.2176695,
                  "velocity": 0.8740157480314961
              },
              {
                  "duration": 0.16402211093749486,
                  "durationTicks": 5065,
                  "midi": 81,
                  "name": "A5",
                  "ticks": 2980800,
                  "time": 96.52855050000001,
                  "velocity": 0.7952755905511811
              },
              {
                  "duration": 0.1727656390625043,
                  "durationTicks": 5335,
                  "midi": 79,
                  "name": "G5",
                  "ticks": 2990400,
                  "time": 96.8394315,
                  "velocity": 0.8582677165354331
              },
              {
                  "duration": 0.15569956749999392,
                  "durationTicks": 4808,
                  "midi": 81,
                  "name": "A5",
                  "ticks": 3000000,
                  "time": 97.15031250000001,
                  "velocity": 0.84251968503937
              },
              {
                  "duration": 0.16933299468749397,
                  "durationTicks": 5229,
                  "midi": 79,
                  "name": "G5",
                  "ticks": 3004800,
                  "time": 97.30575300000001,
                  "velocity": 0.8031496062992126
              },
              {
                  "duration": 0.20437187406250246,
                  "durationTicks": 6311,
                  "midi": 77,
                  "name": "F5",
                  "ticks": 3009600,
                  "time": 97.46119350000001,
                  "velocity": 0.7795275590551181
              },
              {
                  "duration": 0.1759715993749893,
                  "durationTicks": 5434,
                  "midi": 79,
                  "name": "G5",
                  "ticks": 3014400,
                  "time": 97.616634,
                  "velocity": 0.8503937007874016
              },
              {
                  "duration": 0.18856875656250338,
                  "durationTicks": 5823,
                  "midi": 77,
                  "name": "F5",
                  "ticks": 3019200,
                  "time": 97.7720745,
                  "velocity": 0.8582677165354331
              },
              {
                  "duration": 0.18225398625000366,
                  "durationTicks": 5628,
                  "midi": 74,
                  "name": "D5",
                  "ticks": 3024000,
                  "time": 97.927515,
                  "velocity": 0.8346456692913385
              },
              {
                  "duration": 0.175550614687495,
                  "durationTicks": 5421,
                  "midi": 72,
                  "name": "C5",
                  "ticks": 3028800,
                  "time": 98.08295550000001,
                  "velocity": 0.8740157480314961
              },
              {
                  "duration": 0.1879534712499975,
                  "durationTicks": 5804,
                  "midi": 74,
                  "name": "D5",
                  "ticks": 3033600,
                  "time": 98.23839600000001,
                  "velocity": 0.84251968503937
              },
              {
                  "duration": 0.18286927156250954,
                  "durationTicks": 5647,
                  "midi": 77,
                  "name": "F5",
                  "ticks": 3038400,
                  "time": 98.3938365,
                  "velocity": 0.8188976377952756
              },
              {
                  "duration": 0.15216977281251332,
                  "durationTicks": 4699,
                  "midi": 79,
                  "name": "G5",
                  "ticks": 3043200,
                  "time": 98.549277,
                  "velocity": 0.8818897637795275
              },
              {
                  "duration": 0.1660298840625103,
                  "durationTicks": 5127,
                  "midi": 77,
                  "name": "F5",
                  "ticks": 3048000,
                  "time": 98.7047175,
                  "velocity": 0.8503937007874016
              },
              {
                  "duration": 0.17237703781249536,
                  "durationTicks": 5323,
                  "midi": 79,
                  "name": "G5",
                  "ticks": 3057600,
                  "time": 99.01559850000001,
                  "velocity": 0.889763779527559
              },
              {
                  "duration": 0.16748713874999055,
                  "durationTicks": 5172,
                  "midi": 81,
                  "name": "A5",
                  "ticks": 3062400,
                  "time": 99.17103900000001,
                  "velocity": 0.8818897637795275
              },
              {
                  "duration": 0.13941069843750142,
                  "durationTicks": 4305,
                  "midi": 84,
                  "name": "C6",
                  "ticks": 3067200,
                  "time": 99.3264795,
                  "velocity": 0.7716535433070866
              },
              {
                  "duration": 0.13856872906251283,
                  "durationTicks": 4279,
                  "midi": 86,
                  "name": "D6",
                  "ticks": 3076800,
                  "time": 99.6373605,
                  "velocity": 0.8188976377952756
              },
              {
                  "duration": 0.13856872906249862,
                  "durationTicks": 4279,
                  "midi": 84,
                  "name": "C6",
                  "ticks": 3081600,
                  "time": 99.79280100000001,
                  "velocity": 0.8188976377952756
              },
              {
                  "duration": 0.1731866237499844,
                  "durationTicks": 5348,
                  "midi": 81,
                  "name": "A5",
                  "ticks": 3086400,
                  "time": 99.94824150000001,
                  "velocity": 0.937007874015748
              },
              {
                  "duration": 0.1731866237499986,
                  "durationTicks": 5348,
                  "midi": 79,
                  "name": "G5",
                  "ticks": 3091200,
                  "time": 100.103682,
                  "velocity": 0.937007874015748
              },
              {
                  "duration": 0.18008429593750463,
                  "durationTicks": 5561,
                  "midi": 77,
                  "name": "F5",
                  "ticks": 3096000,
                  "time": 100.2591225,
                  "velocity": 0.9133858267716536
              },
              {
                  "duration": 0.19281098687500275,
                  "durationTicks": 5954,
                  "midi": 74,
                  "name": "D5",
                  "ticks": 3100800,
                  "time": 100.414563,
                  "velocity": 0.8267716535433071
              },
              {
                  "duration": 0.18568663062498558,
                  "durationTicks": 5734,
                  "midi": 72,
                  "name": "C5",
                  "ticks": 3105600,
                  "time": 100.57000350000001,
                  "velocity": 0.8110236220472441
              },
              {
                  "duration": 0.12726690937500962,
                  "durationTicks": 3930,
                  "midi": 74,
                  "name": "D5",
                  "ticks": 3230400,
                  "time": 104.6114565,
                  "velocity": 0.7637795275590551
              },
              {
                  "duration": 0.14258427531250106,
                  "durationTicks": 4403,
                  "midi": 72,
                  "name": "C5",
                  "ticks": 3235200,
                  "time": 104.766897,
                  "velocity": 0.8110236220472441
              },
              {
                  "duration": 0.1793394768749863,
                  "durationTicks": 5538,
                  "midi": 69,
                  "name": "A4",
                  "ticks": 3240000,
                  "time": 104.92233750000001,
                  "velocity": 0.7952755905511811
              },
              {
                  "duration": 0.15194308874998796,
                  "durationTicks": 4692,
                  "midi": 67,
                  "name": "G4",
                  "ticks": 3244800,
                  "time": 105.07777800000001,
                  "velocity": 0.8976377952755905
              },
              {
                  "duration": 0.14598453624999763,
                  "durationTicks": 4508,
                  "midi": 65,
                  "name": "F4",
                  "ticks": 3249600,
                  "time": 105.2332185,
                  "velocity": 0.9291338582677166
              },
              {
                  "duration": 0.13999360031250774,
                  "durationTicks": 4323,
                  "midi": 62,
                  "name": "D4",
                  "ticks": 3254400,
                  "time": 105.388659,
                  "velocity": 0.968503937007874
              },
              {
                  "duration": 0.15534334968749874,
                  "durationTicks": 4797,
                  "midi": 60,
                  "name": "C4",
                  "ticks": 3259200,
                  "time": 105.5440995,
                  "velocity": 0.8188976377952756
              },
              {
                  "duration": 0.19643793187498204,
                  "durationTicks": 6066,
                  "midi": 65,
                  "name": "F4",
                  "ticks": 3345600,
                  "time": 108.34202850000001,
                  "velocity": 0.9291338582677166
              },
              {
                  "duration": 0.14724749031249473,
                  "durationTicks": 4547,
                  "midi": 67,
                  "name": "G4",
                  "ticks": 3350400,
                  "time": 108.49746900000001,
                  "velocity": 0.7952755905511811
              },
              {
                  "duration": 0.1625648562500004,
                  "durationTicks": 5020,
                  "midi": 69,
                  "name": "A4",
                  "ticks": 3355200,
                  "time": 108.6529095,
                  "velocity": 0.8582677165354331
              },
              {
                  "duration": 0.14889904562500078,
                  "durationTicks": 4598,
                  "midi": 67,
                  "name": "G4",
                  "ticks": 3364800,
                  "time": 108.9637905,
                  "velocity": 0.9212598425196851
              },
              {
                  "duration": 0.16612703437499476,
                  "durationTicks": 5130,
                  "midi": 69,
                  "name": "A4",
                  "ticks": 3369600,
                  "time": 109.11923100000001,
                  "velocity": 0.8188976377952756
              },
              {
                  "duration": 0.2666128409374835,
                  "durationTicks": 8233,
                  "midi": 72,
                  "name": "C5",
                  "ticks": 3374400,
                  "time": 109.27467150000001,
                  "velocity": 0.8582677165354331
              },
              {
                  "duration": 0.16926822781250905,
                  "durationTicks": 5227,
                  "midi": 74,
                  "name": "D5",
                  "ticks": 3384000,
                  "time": 109.5855525,
                  "velocity": 0.9606299212598425
              },
              {
                  "duration": 0.20589389562499605,
                  "durationTicks": 6358,
                  "midi": 72,
                  "name": "C5",
                  "ticks": 3388800,
                  "time": 109.740993,
                  "velocity": 0.8740157480314961
              },
              {
                  "duration": 0.17856227437499683,
                  "durationTicks": 5514,
                  "midi": 69,
                  "name": "A4",
                  "ticks": 3393600,
                  "time": 109.8964335,
                  "velocity": 0.889763779527559
              },
              {
                  "duration": 0.1939444071874874,
                  "durationTicks": 5989,
                  "midi": 67,
                  "name": "G4",
                  "ticks": 3398400,
                  "time": 110.05187400000001,
                  "velocity": 0.8976377952755905
              },
              {
                  "duration": 0.18792108781249794,
                  "durationTicks": 5803,
                  "midi": 65,
                  "name": "F4",
                  "ticks": 3403200,
                  "time": 110.20731450000001,
                  "velocity": 0.8661417322834646
              },
              {
                  "duration": 0.16055708312499917,
                  "durationTicks": 4958,
                  "midi": 62,
                  "name": "D4",
                  "ticks": 3408000,
                  "time": 110.362755,
                  "velocity": 1
              },
              {
                  "duration": 0.1759715993750035,
                  "durationTicks": 5434,
                  "midi": 60,
                  "name": "C4",
                  "ticks": 3412800,
                  "time": 110.5181955,
                  "velocity": 0.8582677165354331
              },
              {
                  "duration": 0.17305709000000036,
                  "durationTicks": 5344,
                  "midi": 74,
                  "name": "D5",
                  "ticks": 3537600,
                  "time": 114.55964850000001,
                  "velocity": 0.9606299212598425
              },
              {
                  "duration": 0.17305709000000036,
                  "durationTicks": 5344,
                  "midi": 72,
                  "name": "C5",
                  "ticks": 3542400,
                  "time": 114.715089,
                  "velocity": 0.8503937007874016
              },
              {
                  "duration": 0.17305709000000036,
                  "durationTicks": 5344,
                  "midi": 69,
                  "name": "A4",
                  "ticks": 3547200,
                  "time": 114.8705295,
                  "velocity": 0.8188976377952756
              },
              {
                  "duration": 0.17305709000001457,
                  "durationTicks": 5344,
                  "midi": 67,
                  "name": "G4",
                  "ticks": 3552000,
                  "time": 115.02597,
                  "velocity": 0.8503937007874016
              },
              {
                  "duration": 0.17305709000000036,
                  "durationTicks": 5344,
                  "midi": 65,
                  "name": "F4",
                  "ticks": 3556800,
                  "time": 115.18141050000001,
                  "velocity": 0.8818897637795275
              },
              {
                  "duration": 0.17305709000000036,
                  "durationTicks": 5344,
                  "midi": 62,
                  "name": "D4",
                  "ticks": 3561600,
                  "time": 115.33685100000001,
                  "velocity": 0.9448818897637795
              },
              {
                  "duration": 0.17305709000000036,
                  "durationTicks": 5344,
                  "midi": 60,
                  "name": "C4",
                  "ticks": 3566400,
                  "time": 115.49229150000001,
                  "velocity": 0.7874015748031497
              },
              {
                  "duration": 0.16055708312499917,
                  "durationTicks": 4958,
                  "midi": 58,
                  "name": "A#3",
                  "ticks": 3648000,
                  "time": 118.13478,
                  "velocity": 0.9291338582677166
              },
              {
                  "duration": 0.1724418046875087,
                  "durationTicks": 5325,
                  "midi": 60,
                  "name": "C4",
                  "ticks": 3652800,
                  "time": 118.2902205,
                  "velocity": 0.9921259842519685
              },
              {
                  "duration": 0.16305060781250802,
                  "durationTicks": 5035,
                  "midi": 62,
                  "name": "D4",
                  "ticks": 3657600,
                  "time": 118.445661,
                  "velocity": 0.8503937007874016
              },
              {
                  "duration": 0.31334214125000415,
                  "durationTicks": 9676,
                  "midi": 65,
                  "name": "F4",
                  "ticks": 3662400,
                  "time": 118.60110150000001,
                  "velocity": 0.889763779527559
              },
              {
                  "duration": 0.17072548250000352,
                  "durationTicks": 5272,
                  "midi": 67,
                  "name": "G4",
                  "ticks": 3672000,
                  "time": 118.91198250000001,
                  "velocity": 0.968503937007874
              },
              {
                  "duration": 0.16476692999999898,
                  "durationTicks": 5088,
                  "midi": 69,
                  "name": "A4",
                  "ticks": 3676800,
                  "time": 119.067423,
                  "velocity": 0.9291338582677166
              },
              {
                  "duration": 0.15544050000001164,
                  "durationTicks": 4800,
                  "midi": 67,
                  "name": "G4",
                  "ticks": 3681600,
                  "time": 119.2228635,
                  "velocity": 0.84251968503937
              }
          ],
          "endOfTrackTicks": 3686400
      },
      {
          "channel": 8,
          "controlChanges": {},
          "pitchBends": [],
          "instrument": {
              "family": "synth lead",
              "number": 8,
              "name": "synth lead"
          },
          "name": "Melody Low",
          "notes": [
              {
                  "duration": 0.19345865562499998,
                  "durationTicks": 5974,
                  "midi": 65,
                  "name": "F4",
                  "ticks": 33600,
                  "time": 1.0880835,
                  "velocity": 0.7874015748031497
              },
              {
                  "duration": 0.2569301931249999,
                  "durationTicks": 7934,
                  "midi": 67,
                  "name": "G4",
                  "ticks": 36000,
                  "time": 1.16580375,
                  "velocity": 0.7795275590551181
              },
              {
                  "duration": 0.2569301931249999,
                  "durationTicks": 7934,
                  "midi": 69,
                  "name": "A4",
                  "ticks": 38400,
                  "time": 1.243524,
                  "velocity": 0.8031496062992126
              },
              {
                  "duration": 0.24148329343749975,
                  "durationTicks": 7457,
                  "midi": 72,
                  "name": "C5",
                  "ticks": 43200,
                  "time": 1.3989645000000002,
                  "velocity": 0.8740157480314961
              },
              {
                  "duration": 0.16648325218749993,
                  "durationTicks": 5141,
                  "midi": 67,
                  "name": "G4",
                  "ticks": 48000,
                  "time": 1.554405,
                  "velocity": 0.8976377952755905
              },
              {
                  "duration": 0.16318014156249983,
                  "durationTicks": 5039,
                  "midi": 69,
                  "name": "A4",
                  "ticks": 52800,
                  "time": 1.7098455000000001,
                  "velocity": 0.8740157480314961
              },
              {
                  "duration": 0.18869829031249985,
                  "durationTicks": 5827,
                  "midi": 65,
                  "name": "F4",
                  "ticks": 62400,
                  "time": 2.0207265000000003,
                  "velocity": 0.7874015748031497
              },
              {
                  "duration": 0.17487056250000022,
                  "durationTicks": 5400,
                  "midi": 62,
                  "name": "D4",
                  "ticks": 72000,
                  "time": 2.3316075,
                  "velocity": 0.8031496062992126
              },
              {
                  "duration": 0.17917755968750004,
                  "durationTicks": 5533,
                  "midi": 65,
                  "name": "F4",
                  "ticks": 81600,
                  "time": 2.6424885000000002,
                  "velocity": 0.8267716535433071
              },
              {
                  "duration": 0.19154803281249944,
                  "durationTicks": 5915,
                  "midi": 62,
                  "name": "D4",
                  "ticks": 86400,
                  "time": 2.7979290000000003,
                  "velocity": 0.7874015748031497
              },
              {
                  "duration": 0.18533041281250018,
                  "durationTicks": 5723,
                  "midi": 60,
                  "name": "C4",
                  "ticks": 91200,
                  "time": 2.9533695,
                  "velocity": 0.84251968503937
              },
              {
                  "duration": 0.17875657499999997,
                  "durationTicks": 5520,
                  "midi": 62,
                  "name": "D4",
                  "ticks": 96000,
                  "time": 3.10881,
                  "velocity": 0.8582677165354331
              },
              {
                  "duration": 0.17085501625,
                  "durationTicks": 5276,
                  "midi": 60,
                  "name": "C4",
                  "ticks": 100800,
                  "time": 3.2642505,
                  "velocity": 0.7716535433070866
              },
              {
                  "duration": 0.18539517968749974,
                  "durationTicks": 5725,
                  "midi": 57,
                  "name": "A3",
                  "ticks": 105600,
                  "time": 3.4196910000000003,
                  "velocity": 0.8976377952755905
              },
              {
                  "duration": 0.17998714562499973,
                  "durationTicks": 5558,
                  "midi": 55,
                  "name": "G3",
                  "ticks": 110400,
                  "time": 3.5751315000000004,
                  "velocity": 0.889763779527559
              },
              {
                  "duration": 0.14980578187500004,
                  "durationTicks": 4626,
                  "midi": 57,
                  "name": "A3",
                  "ticks": 115200,
                  "time": 3.7305720000000004,
                  "velocity": 0.889763779527559
              },
              {
                  "duration": 0.1866581337499995,
                  "durationTicks": 5764,
                  "midi": 60,
                  "name": "C4",
                  "ticks": 120000,
                  "time": 3.8860125,
                  "velocity": 0.8110236220472441
              },
              {
                  "duration": 0.17642496750000003,
                  "durationTicks": 5448,
                  "midi": 62,
                  "name": "D4",
                  "ticks": 124800,
                  "time": 4.041453000000001,
                  "velocity": 0.7637795275590551
              },
              {
                  "duration": 0.19248715250000004,
                  "durationTicks": 5944,
                  "midi": 60,
                  "name": "C4",
                  "ticks": 129600,
                  "time": 4.1968935,
                  "velocity": 0.7795275590551181
              },
              {
                  "duration": 0.1967941496875003,
                  "durationTicks": 6077,
                  "midi": 57,
                  "name": "A3",
                  "ticks": 139200,
                  "time": 4.5077745,
                  "velocity": 0.8740157480314961
              },
              {
                  "duration": 0.18309595562500025,
                  "durationTicks": 5654,
                  "midi": 55,
                  "name": "G3",
                  "ticks": 148800,
                  "time": 4.8186555,
                  "velocity": 0.937007874015748
              },
              {
                  "duration": 0.1886011399999994,
                  "durationTicks": 5824,
                  "midi": 57,
                  "name": "A3",
                  "ticks": 158400,
                  "time": 5.1295365,
                  "velocity": 0.9291338582677166
              },
              {
                  "duration": 0.20216980031249943,
                  "durationTicks": 6243,
                  "midi": 55,
                  "name": "G3",
                  "ticks": 163200,
                  "time": 5.2849770000000005,
                  "velocity": 0.7952755905511811
              },
              {
                  "duration": 0.19407394093749986,
                  "durationTicks": 5993,
                  "midi": 53,
                  "name": "F3",
                  "ticks": 168000,
                  "time": 5.440417500000001,
                  "velocity": 0.905511811023622
              },
              {
                  "duration": 0.20825788656249955,
                  "durationTicks": 6431,
                  "midi": 55,
                  "name": "G3",
                  "ticks": 172800,
                  "time": 5.595858000000001,
                  "velocity": 0.8110236220472441
              },
              {
                  "duration": 0.20301176968749957,
                  "durationTicks": 6269,
                  "midi": 53,
                  "name": "F3",
                  "ticks": 177600,
                  "time": 5.751298500000001,
                  "velocity": 0.8818897637795275
              },
              {
                  "duration": 0.19452730906249993,
                  "durationTicks": 6007,
                  "midi": 50,
                  "name": "D3",
                  "ticks": 182400,
                  "time": 5.906739,
                  "velocity": 0.9212598425196851
              },
              {
                  "duration": 0.20874363812500007,
                  "durationTicks": 6446,
                  "midi": 48,
                  "name": "C3",
                  "ticks": 187200,
                  "time": 6.0621795,
                  "velocity": 0.8740157480314961
              },
              {
                  "duration": 0.15990941437500084,
                  "durationTicks": 4938,
                  "midi": 69,
                  "name": "A4",
                  "ticks": 192000,
                  "time": 6.21762,
                  "velocity": 0.8346456692913385
              },
              {
                  "duration": 0.27885378031250063,
                  "durationTicks": 8611,
                  "midi": 72,
                  "name": "C5",
                  "ticks": 196800,
                  "time": 6.3730605,
                  "velocity": 0.8267716535433071
              },
              {
                  "duration": 0.2279794000000006,
                  "durationTicks": 7040,
                  "midi": 74,
                  "name": "D5",
                  "ticks": 201600,
                  "time": 6.528501,
                  "velocity": 0.7795275590551181
              },
              {
                  "duration": 0.39022042187500006,
                  "durationTicks": 12050,
                  "midi": 72,
                  "name": "C5",
                  "ticks": 206400,
                  "time": 6.6839415,
                  "velocity": 0.8740157480314961
              },
              {
                  "duration": 0.1640221109374993,
                  "durationTicks": 5065,
                  "midi": 69,
                  "name": "A4",
                  "ticks": 216000,
                  "time": 6.994822500000001,
                  "velocity": 0.7952755905511811
              },
              {
                  "duration": 0.17276563906249898,
                  "durationTicks": 5335,
                  "midi": 67,
                  "name": "G4",
                  "ticks": 225600,
                  "time": 7.305703500000001,
                  "velocity": 0.8582677165354331
              },
              {
                  "duration": 0.15569956750000014,
                  "durationTicks": 4808,
                  "midi": 69,
                  "name": "A4",
                  "ticks": 235200,
                  "time": 7.6165845,
                  "velocity": 0.84251968503937
              },
              {
                  "duration": 0.16933299468750018,
                  "durationTicks": 5229,
                  "midi": 67,
                  "name": "G4",
                  "ticks": 240000,
                  "time": 7.772025,
                  "velocity": 0.8031496062992126
              },
              {
                  "duration": 0.20437187406250068,
                  "durationTicks": 6311,
                  "midi": 65,
                  "name": "F4",
                  "ticks": 244800,
                  "time": 7.9274655,
                  "velocity": 0.7795275590551181
              },
              {
                  "duration": 0.17597159937499995,
                  "durationTicks": 5434,
                  "midi": 67,
                  "name": "G4",
                  "ticks": 249600,
                  "time": 8.082906000000001,
                  "velocity": 0.8503937007874016
              },
              {
                  "duration": 0.18856875656249983,
                  "durationTicks": 5823,
                  "midi": 65,
                  "name": "F4",
                  "ticks": 254400,
                  "time": 8.2383465,
                  "velocity": 0.8582677165354331
              },
              {
                  "duration": 0.1822539862500001,
                  "durationTicks": 5628,
                  "midi": 62,
                  "name": "D4",
                  "ticks": 259200,
                  "time": 8.393787,
                  "velocity": 0.8346456692913385
              },
              {
                  "duration": 0.17555061468750033,
                  "durationTicks": 5421,
                  "midi": 60,
                  "name": "C4",
                  "ticks": 264000,
                  "time": 8.5492275,
                  "velocity": 0.8740157480314961
              },
              {
                  "duration": 0.18795347125000106,
                  "durationTicks": 5804,
                  "midi": 62,
                  "name": "D4",
                  "ticks": 268800,
                  "time": 8.704668,
                  "velocity": 0.84251968503937
              },
              {
                  "duration": 0.18286927156250066,
                  "durationTicks": 5647,
                  "midi": 65,
                  "name": "F4",
                  "ticks": 273600,
                  "time": 8.8601085,
                  "velocity": 0.8188976377952756
              },
              {
                  "duration": 0.15216977281250088,
                  "durationTicks": 4699,
                  "midi": 67,
                  "name": "G4",
                  "ticks": 278400,
                  "time": 9.015549,
                  "velocity": 0.8818897637795275
              },
              {
                  "duration": 0.16602988406249963,
                  "durationTicks": 5127,
                  "midi": 65,
                  "name": "F4",
                  "ticks": 283200,
                  "time": 9.170989500000001,
                  "velocity": 0.8503937007874016
              },
              {
                  "duration": 0.1723770378124989,
                  "durationTicks": 5323,
                  "midi": 67,
                  "name": "G4",
                  "ticks": 292800,
                  "time": 9.481870500000001,
                  "velocity": 0.889763779527559
              },
              {
                  "duration": 0.16748713874999943,
                  "durationTicks": 5172,
                  "midi": 69,
                  "name": "A4",
                  "ticks": 297600,
                  "time": 9.637311,
                  "velocity": 0.8818897637795275
              },
              {
                  "duration": 0.13941069843749965,
                  "durationTicks": 4305,
                  "midi": 72,
                  "name": "C5",
                  "ticks": 302400,
                  "time": 9.792751500000001,
                  "velocity": 0.7716535433070866
              },
              {
                  "duration": 0.1385687290625004,
                  "durationTicks": 4279,
                  "midi": 74,
                  "name": "D5",
                  "ticks": 312000,
                  "time": 10.1036325,
                  "velocity": 0.8188976377952756
              },
              {
                  "duration": 0.1385687290625004,
                  "durationTicks": 4279,
                  "midi": 72,
                  "name": "C5",
                  "ticks": 316800,
                  "time": 10.259073,
                  "velocity": 0.8188976377952756
              },
              {
                  "duration": 0.17318662375000038,
                  "durationTicks": 5348,
                  "midi": 69,
                  "name": "A4",
                  "ticks": 321600,
                  "time": 10.4145135,
                  "velocity": 0.937007874015748
              },
              {
                  "duration": 0.1731866237499986,
                  "durationTicks": 5348,
                  "midi": 67,
                  "name": "G4",
                  "ticks": 326400,
                  "time": 10.569954000000001,
                  "velocity": 0.937007874015748
              },
              {
                  "duration": 0.1800842959374993,
                  "durationTicks": 5561,
                  "midi": 65,
                  "name": "F4",
                  "ticks": 331200,
                  "time": 10.7253945,
                  "velocity": 0.9133858267716536
              },
              {
                  "duration": 0.1928109868749992,
                  "durationTicks": 5954,
                  "midi": 62,
                  "name": "D4",
                  "ticks": 336000,
                  "time": 10.880835000000001,
                  "velocity": 0.8267716535433071
              },
              {
                  "duration": 0.1856866306249998,
                  "durationTicks": 5734,
                  "midi": 60,
                  "name": "C4",
                  "ticks": 340800,
                  "time": 11.0362755,
                  "velocity": 0.8110236220472441
              },
              {
                  "duration": 0.1554404999999992,
                  "durationTicks": 4800,
                  "midi": 69,
                  "name": "A4",
                  "ticks": 345600,
                  "time": 11.191716000000001,
                  "velocity": 0.8188976377952756
              },
              {
                  "duration": 0.15165163781249902,
                  "durationTicks": 4683,
                  "midi": 72,
                  "name": "C5",
                  "ticks": 350400,
                  "time": 11.3471565,
                  "velocity": 0.8110236220472441
              },
              {
                  "duration": 0.20404803968749974,
                  "durationTicks": 6301,
                  "midi": 67,
                  "name": "G4",
                  "ticks": 355200,
                  "time": 11.502597000000002,
                  "velocity": 0.84251968503937
              },
              {
                  "duration": 0.22030452531249978,
                  "durationTicks": 6803,
                  "midi": 69,
                  "name": "A4",
                  "ticks": 360000,
                  "time": 11.6580375,
                  "velocity": 0.952755905511811
              },
              {
                  "duration": 0.22561540906250066,
                  "durationTicks": 6967,
                  "midi": 65,
                  "name": "F4",
                  "ticks": 369600,
                  "time": 11.968918500000001,
                  "velocity": 0.8110236220472441
              },
              {
                  "duration": 0.23160634499999944,
                  "durationTicks": 7152,
                  "midi": 62,
                  "name": "D4",
                  "ticks": 379200,
                  "time": 12.279799500000001,
                  "velocity": 0.8582677165354331
              },
              {
                  "duration": 0.3498382753125,
                  "durationTicks": 10803,
                  "midi": 65,
                  "name": "F4",
                  "ticks": 388800,
                  "time": 12.590680500000001,
                  "velocity": 0.8503937007874016
              },
              {
                  "duration": 0.233063599687501,
                  "durationTicks": 7197,
                  "midi": 62,
                  "name": "D4",
                  "ticks": 393600,
                  "time": 12.746121,
                  "velocity": 0.9212598425196851
              },
              {
                  "duration": 0.2034327543749992,
                  "durationTicks": 6282,
                  "midi": 60,
                  "name": "C4",
                  "ticks": 398400,
                  "time": 12.901561500000001,
                  "velocity": 0.968503937007874
              },
              {
                  "duration": 0.19844570500000103,
                  "durationTicks": 6128,
                  "midi": 62,
                  "name": "D4",
                  "ticks": 403200,
                  "time": 13.057002,
                  "velocity": 0.8503937007874016
              },
              {
                  "duration": 0.21055711062500038,
                  "durationTicks": 6502,
                  "midi": 60,
                  "name": "C4",
                  "ticks": 408000,
                  "time": 13.212442500000002,
                  "velocity": 0.8346456692913385
              },
              {
                  "duration": 0.2264573784374999,
                  "durationTicks": 6993,
                  "midi": 57,
                  "name": "A3",
                  "ticks": 412800,
                  "time": 13.367883,
                  "velocity": 0.9291338582677166
              },
              {
                  "duration": 0.16891201000000144,
                  "durationTicks": 5216,
                  "midi": 55,
                  "name": "G3",
                  "ticks": 417600,
                  "time": 13.5233235,
                  "velocity": 0.8582677165354331
              },
              {
                  "duration": 0.2525584290624998,
                  "durationTicks": 7799,
                  "midi": 57,
                  "name": "A3",
                  "ticks": 422400,
                  "time": 13.678764000000001,
                  "velocity": 0.8976377952755905
              },
              {
                  "duration": 0.20216980031250031,
                  "durationTicks": 6243,
                  "midi": 60,
                  "name": "C4",
                  "ticks": 427200,
                  "time": 13.8342045,
                  "velocity": 0.8976377952755905
              },
              {
                  "duration": 0.21528509250000027,
                  "durationTicks": 6648,
                  "midi": 62,
                  "name": "D4",
                  "ticks": 432000,
                  "time": 13.989645000000001,
                  "velocity": 0.9212598425196851
              },
              {
                  "duration": 0.20816073625000087,
                  "durationTicks": 6428,
                  "midi": 60,
                  "name": "C4",
                  "ticks": 436800,
                  "time": 14.1450855,
                  "velocity": 0.8661417322834646
              },
              {
                  "duration": 0.17338092437499952,
                  "durationTicks": 5354,
                  "midi": 57,
                  "name": "A3",
                  "ticks": 446400,
                  "time": 14.4559665,
                  "velocity": 0.7952755905511811
              },
              {
                  "duration": 0.19928767437500028,
                  "durationTicks": 6154,
                  "midi": 55,
                  "name": "G3",
                  "ticks": 456000,
                  "time": 14.7668475,
                  "velocity": 0.8818897637795275
              },
              {
                  "duration": 0.22823846750000065,
                  "durationTicks": 7048,
                  "midi": 57,
                  "name": "A3",
                  "ticks": 465600,
                  "time": 15.077728500000001,
                  "velocity": 0.8346456692913385
              },
              {
                  "duration": 0.22111411125000124,
                  "durationTicks": 6828,
                  "midi": 55,
                  "name": "G3",
                  "ticks": 470400,
                  "time": 15.233169,
                  "velocity": 0.7637795275590551
              },
              {
                  "duration": 0.21175529781250013,
                  "durationTicks": 6539,
                  "midi": 53,
                  "name": "F3",
                  "ticks": 475200,
                  "time": 15.388609500000001,
                  "velocity": 0.8740157480314961
              },
              {
                  "duration": 0.2293718878124995,
                  "durationTicks": 7083,
                  "midi": 55,
                  "name": "G3",
                  "ticks": 480000,
                  "time": 15.54405,
                  "velocity": 0.952755905511811
              },
              {
                  "duration": 0.22001307437500017,
                  "durationTicks": 6794,
                  "midi": 53,
                  "name": "F3",
                  "ticks": 484800,
                  "time": 15.699490500000001,
                  "velocity": 0.9212598425196851
              },
              {
                  "duration": 0.21217628249999976,
                  "durationTicks": 6552,
                  "midi": 50,
                  "name": "D3",
                  "ticks": 489600,
                  "time": 15.854931,
                  "velocity": 0.8818897637795275
              },
              {
                  "duration": 0.20612057968750008,
                  "durationTicks": 6365,
                  "midi": 48,
                  "name": "C3",
                  "ticks": 494400,
                  "time": 16.0103715,
                  "velocity": 1
              },
              {
                  "duration": 0.17674880187500008,
                  "durationTicks": 5458,
                  "midi": 69,
                  "name": "A4",
                  "ticks": 499200,
                  "time": 16.165812000000003,
                  "velocity": 0.889763779527559
              },
              {
                  "duration": 0.1893135756250004,
                  "durationTicks": 5846,
                  "midi": 72,
                  "name": "C5",
                  "ticks": 504000,
                  "time": 16.3212525,
                  "velocity": 0.8740157480314961
              },
              {
                  "duration": 0.20307653656250224,
                  "durationTicks": 6271,
                  "midi": 74,
                  "name": "D5",
                  "ticks": 508800,
                  "time": 16.476693,
                  "velocity": 0.8740157480314961
              },
              {
                  "duration": 0.19760373562499822,
                  "durationTicks": 6102,
                  "midi": 72,
                  "name": "C5",
                  "ticks": 513600,
                  "time": 16.632133500000002,
                  "velocity": 0.8661417322834646
              },
              {
                  "duration": 0.22419053781250042,
                  "durationTicks": 6923,
                  "midi": 69,
                  "name": "A4",
                  "ticks": 523200,
                  "time": 16.9430145,
                  "velocity": 0.7795275590551181
              },
              {
                  "duration": 0.2308291424999993,
                  "durationTicks": 7128,
                  "midi": 67,
                  "name": "G4",
                  "ticks": 532800,
                  "time": 17.253895500000002,
                  "velocity": 0.8740157480314961
              },
              {
                  "duration": 0.2167747306250014,
                  "durationTicks": 6694,
                  "midi": 69,
                  "name": "A4",
                  "ticks": 542400,
                  "time": 17.5647765,
                  "velocity": 0.889763779527559
              },
              {
                  "duration": 0.27244185968750045,
                  "durationTicks": 8413,
                  "midi": 67,
                  "name": "G4",
                  "ticks": 547200,
                  "time": 17.720217,
                  "velocity": 0.9133858267716536
              },
              {
                  "duration": 0.22367240281249678,
                  "durationTicks": 6907,
                  "midi": 65,
                  "name": "F4",
                  "ticks": 552000,
                  "time": 17.875657500000003,
                  "velocity": 0.984251968503937
              },
              {
                  "duration": 0.1965674656250016,
                  "durationTicks": 6070,
                  "midi": 67,
                  "name": "G4",
                  "ticks": 556800,
                  "time": 18.031098,
                  "velocity": 0.8110236220472441
              },
              {
                  "duration": 0.2079988190624995,
                  "durationTicks": 6423,
                  "midi": 65,
                  "name": "F4",
                  "ticks": 561600,
                  "time": 18.1865385,
                  "velocity": 0.8188976377952756
              },
              {
                  "duration": 0.22221514812499876,
                  "durationTicks": 6862,
                  "midi": 62,
                  "name": "D4",
                  "ticks": 566400,
                  "time": 18.341979000000002,
                  "velocity": 0.9606299212598425
              },
              {
                  "duration": 0.23766204781250266,
                  "durationTicks": 7339,
                  "midi": 60,
                  "name": "C4",
                  "ticks": 571200,
                  "time": 18.4974195,
                  "velocity": 0.9606299212598425
              },
              {
                  "duration": 0.2087112546875005,
                  "durationTicks": 6445,
                  "midi": 62,
                  "name": "D4",
                  "ticks": 576000,
                  "time": 18.65286,
                  "velocity": 0.8661417322834646
              },
              {
                  "duration": 0.22351048562499898,
                  "durationTicks": 6902,
                  "midi": 65,
                  "name": "F4",
                  "ticks": 580800,
                  "time": 18.8083005,
                  "velocity": 0.9133858267716536
              },
              {
                  "duration": 0.21489649124999843,
                  "durationTicks": 6636,
                  "midi": 67,
                  "name": "G4",
                  "ticks": 585600,
                  "time": 18.963741000000002,
                  "velocity": 0.8503937007874016
              },
              {
                  "duration": 0.31256493875000047,
                  "durationTicks": 9652,
                  "midi": 65,
                  "name": "F4",
                  "ticks": 590400,
                  "time": 19.1191815,
                  "velocity": 0.8346456692913385
              },
              {
                  "duration": 0.23571904156250056,
                  "durationTicks": 7279,
                  "midi": 67,
                  "name": "G4",
                  "ticks": 600000,
                  "time": 19.430062500000002,
                  "velocity": 0.8818897637795275
              },
              {
                  "duration": 0.3128887731249961,
                  "durationTicks": 9662,
                  "midi": 69,
                  "name": "A4",
                  "ticks": 604800,
                  "time": 19.585503000000003,
                  "velocity": 0.8740157480314961
              },
              {
                  "duration": 0.24047940687500358,
                  "durationTicks": 7426,
                  "midi": 72,
                  "name": "C5",
                  "ticks": 609600,
                  "time": 19.7409435,
                  "velocity": 0.8031496062992126
              },
              {
                  "duration": 0.14164515562499957,
                  "durationTicks": 4374,
                  "midi": 74,
                  "name": "D5",
                  "ticks": 619200,
                  "time": 20.051824500000002,
                  "velocity": 0.8031496062992126
              },
              {
                  "duration": 0.21946255593750408,
                  "durationTicks": 6777,
                  "midi": 72,
                  "name": "C5",
                  "ticks": 624000,
                  "time": 20.207265,
                  "velocity": 0.889763779527559
              },
              {
                  "duration": 0.2116257640625001,
                  "durationTicks": 6535,
                  "midi": 69,
                  "name": "A4",
                  "ticks": 628800,
                  "time": 20.3627055,
                  "velocity": 0.8503937007874016
              },
              {
                  "duration": 0.20469570843750162,
                  "durationTicks": 6321,
                  "midi": 67,
                  "name": "G4",
                  "ticks": 633600,
                  "time": 20.518146,
                  "velocity": 0.9448818897637795
              },
              {
                  "duration": 0.19679414968749853,
                  "durationTicks": 6077,
                  "midi": 65,
                  "name": "F4",
                  "ticks": 638400,
                  "time": 20.673586500000003,
                  "velocity": 0.9212598425196851
              },
              {
                  "duration": 0.2112047793749987,
                  "durationTicks": 6522,
                  "midi": 62,
                  "name": "D4",
                  "ticks": 643200,
                  "time": 20.829027,
                  "velocity": 0.889763779527559
              },
              {
                  "duration": 0.16152858625000022,
                  "durationTicks": 4988,
                  "midi": 60,
                  "name": "C4",
                  "ticks": 648000,
                  "time": 20.9844675,
                  "velocity": 0.8661417322834646
              },
              {
                  "duration": 0.17532393062499807,
                  "durationTicks": 5414,
                  "midi": 65,
                  "name": "F4",
                  "ticks": 657600,
                  "time": 21.295348500000003,
                  "velocity": 0.6614173228346457
              },
              {
                  "duration": 0.18960502656250355,
                  "durationTicks": 5855,
                  "midi": 62,
                  "name": "D4",
                  "ticks": 662400,
                  "time": 21.450789,
                  "velocity": 0.7007874015748031
              },
              {
                  "duration": 0.18267497093749796,
                  "durationTicks": 5641,
                  "midi": 60,
                  "name": "C4",
                  "ticks": 667200,
                  "time": 21.6062295,
                  "velocity": 0.7086614173228346
              },
              {
                  "duration": 0.1687177093750023,
                  "durationTicks": 5210,
                  "midi": 65,
                  "name": "F4",
                  "ticks": 676800,
                  "time": 21.9171105,
                  "velocity": 0.7322834645669292
              },
              {
                  "duration": 0.1617552703125007,
                  "durationTicks": 4995,
                  "midi": 62,
                  "name": "D4",
                  "ticks": 681600,
                  "time": 22.072551,
                  "velocity": 0.7716535433070866
              },
              {
                  "duration": 0.1972799012500026,
                  "durationTicks": 6092,
                  "midi": 60,
                  "name": "C4",
                  "ticks": 686400,
                  "time": 22.2279915,
                  "velocity": 0.7795275590551181
              },
              {
                  "duration": 0.16211148812499943,
                  "durationTicks": 5006,
                  "midi": 65,
                  "name": "F4",
                  "ticks": 696000,
                  "time": 22.5388725,
                  "velocity": 0.7480314960629921
              },
              {
                  "duration": 0.19760373562500178,
                  "durationTicks": 6102,
                  "midi": 62,
                  "name": "D4",
                  "ticks": 700800,
                  "time": 22.694313,
                  "velocity": 0.6614173228346457
              },
              {
                  "duration": 0.20077731249999786,
                  "durationTicks": 6200,
                  "midi": 60,
                  "name": "C4",
                  "ticks": 705600,
                  "time": 22.849753500000002,
                  "velocity": 0.7322834645669292
              },
              {
                  "duration": 0.15553765031250322,
                  "durationTicks": 4803,
                  "midi": 65,
                  "name": "F4",
                  "ticks": 715200,
                  "time": 23.1606345,
                  "velocity": 0.6850393700787402
              },
              {
                  "duration": 0.16978636281249848,
                  "durationTicks": 5243,
                  "midi": 62,
                  "name": "D4",
                  "ticks": 720000,
                  "time": 23.316075,
                  "velocity": 0.7401574803149606
              },
              {
                  "duration": 0.15544049999999743,
                  "durationTicks": 4800,
                  "midi": 60,
                  "name": "C4",
                  "ticks": 724800,
                  "time": 23.471515500000002,
                  "velocity": 0.7716535433070866
              },
              {
                  "duration": 0.17532393062500162,
                  "durationTicks": 5414,
                  "midi": 65,
                  "name": "F4",
                  "ticks": 734400,
                  "time": 23.7823965,
                  "velocity": 0.7559055118110236
              },
              {
                  "duration": 0.16318014156249916,
                  "durationTicks": 5039,
                  "midi": 62,
                  "name": "D4",
                  "ticks": 739200,
                  "time": 23.937837000000002,
                  "velocity": 0.6141732283464567
              },
              {
                  "duration": 0.17742885406249798,
                  "durationTicks": 5479,
                  "midi": 60,
                  "name": "C4",
                  "ticks": 744000,
                  "time": 24.093277500000003,
                  "velocity": 0.6929133858267716
              },
              {
                  "duration": 0.1687177093750023,
                  "durationTicks": 5210,
                  "midi": 65,
                  "name": "F4",
                  "ticks": 753600,
                  "time": 24.4041585,
                  "velocity": 0.6299212598425197
              },
              {
                  "duration": 0.17778507187500026,
                  "durationTicks": 5490,
                  "midi": 62,
                  "name": "D4",
                  "ticks": 758400,
                  "time": 24.559599000000002,
                  "velocity": 0.6299212598425197
              },
              {
                  "duration": 0.18354932375000033,
                  "durationTicks": 5668,
                  "midi": 60,
                  "name": "C4",
                  "ticks": 763200,
                  "time": 24.715039500000003,
                  "velocity": 0.6535433070866141
              },
              {
                  "duration": 0.16211148812499943,
                  "durationTicks": 5006,
                  "midi": 65,
                  "name": "F4",
                  "ticks": 772800,
                  "time": 25.0259205,
                  "velocity": 0.7716535433070866
              },
              {
                  "duration": 0.18354932375000033,
                  "durationTicks": 5668,
                  "midi": 62,
                  "name": "D4",
                  "ticks": 777600,
                  "time": 25.181361000000003,
                  "velocity": 0.6929133858267716
              },
              {
                  "duration": 0.18539517968750374,
                  "durationTicks": 5725,
                  "midi": 60,
                  "name": "C4",
                  "ticks": 782400,
                  "time": 25.3368015,
                  "velocity": 0.7401574803149606
              },
              {
                  "duration": 0.1555052668750001,
                  "durationTicks": 4802,
                  "midi": 65,
                  "name": "F4",
                  "ticks": 792000,
                  "time": 25.647682500000002,
                  "velocity": 0.7007874015748031
              },
              {
                  "duration": 0.2069949324999989,
                  "durationTicks": 6392,
                  "midi": 62,
                  "name": "D4",
                  "ticks": 796800,
                  "time": 25.803123000000003,
                  "velocity": 0.6692913385826772
              },
              {
                  "duration": 0.1363990387499996,
                  "durationTicks": 4212,
                  "midi": 60,
                  "name": "C4",
                  "ticks": 801600,
                  "time": 25.9585635,
                  "velocity": 0.7480314960629921
              },
              {
                  "duration": 0.16807004062500397,
                  "durationTicks": 5190,
                  "midi": 60,
                  "name": "C4",
                  "ticks": 801600,
                  "time": 25.9585635,
                  "velocity": 0.5984251968503937
              },
              {
                  "duration": 0.17532393062499807,
                  "durationTicks": 5414,
                  "midi": 65,
                  "name": "F4",
                  "ticks": 811200,
                  "time": 26.269444500000002,
                  "velocity": 0.6535433070866141
              },
              {
                  "duration": 0.15793402468749917,
                  "durationTicks": 4877,
                  "midi": 62,
                  "name": "D4",
                  "ticks": 816000,
                  "time": 26.424885000000003,
                  "velocity": 0.6929133858267716
              },
              {
                  "duration": 0.1895726431249969,
                  "durationTicks": 5854,
                  "midi": 62,
                  "name": "D4",
                  "ticks": 816000,
                  "time": 26.424885000000003,
                  "velocity": 0.6614173228346457
              },
              {
                  "duration": 0.18264258750000195,
                  "durationTicks": 5640,
                  "midi": 60,
                  "name": "C4",
                  "ticks": 820800,
                  "time": 26.5803255,
                  "velocity": 0.6535433070866141
              },
              {
                  "duration": 0.16871770937499875,
                  "durationTicks": 5210,
                  "midi": 65,
                  "name": "F4",
                  "ticks": 830400,
                  "time": 26.891206500000003,
                  "velocity": 0.7244094488188977
              },
              {
                  "duration": 0.16178765375000026,
                  "durationTicks": 4996,
                  "midi": 62,
                  "name": "D4",
                  "ticks": 835200,
                  "time": 27.046647,
                  "velocity": 0.6929133858267716
              },
              {
                  "duration": 0.17257133843749983,
                  "durationTicks": 5329,
                  "midi": 62,
                  "name": "D4",
                  "ticks": 835200,
                  "time": 27.046647,
                  "velocity": 0.6929133858267716
              },
              {
                  "duration": 0.1972799012500026,
                  "durationTicks": 6092,
                  "midi": 60,
                  "name": "C4",
                  "ticks": 840000,
                  "time": 27.2020875,
                  "velocity": 0.7637795275590551
              },
              {
                  "duration": 0.16211148812499587,
                  "durationTicks": 5006,
                  "midi": 65,
                  "name": "F4",
                  "ticks": 849600,
                  "time": 27.512968500000003,
                  "velocity": 0.7322834645669292
              },
              {
                  "duration": 0.16596511718750406,
                  "durationTicks": 5125,
                  "midi": 62,
                  "name": "D4",
                  "ticks": 854400,
                  "time": 27.668409,
                  "velocity": 0.6929133858267716
              },
              {
                  "duration": 0.19760373562500178,
                  "durationTicks": 6102,
                  "midi": 62,
                  "name": "D4",
                  "ticks": 854400,
                  "time": 27.668409,
                  "velocity": 0.6614173228346457
              },
              {
                  "duration": 0.20077731249999786,
                  "durationTicks": 6200,
                  "midi": 60,
                  "name": "C4",
                  "ticks": 859200,
                  "time": 27.8238495,
                  "velocity": 0.6929133858267716
              },
              {
                  "duration": 0.15550526687499655,
                  "durationTicks": 4802,
                  "midi": 65,
                  "name": "F4",
                  "ticks": 868800,
                  "time": 28.134730500000003,
                  "velocity": 0.6692913385826772
              },
              {
                  "duration": 0.1593588959375012,
                  "durationTicks": 4921,
                  "midi": 62,
                  "name": "D4",
                  "ticks": 873600,
                  "time": 28.290171,
                  "velocity": 0.6535433070866141
              },
              {
                  "duration": 0.16975397937500247,
                  "durationTicks": 5242,
                  "midi": 62,
                  "name": "D4",
                  "ticks": 873600,
                  "time": 28.290171,
                  "velocity": 0.6299212598425197
              },
              {
                  "duration": 0.15236407343750002,
                  "durationTicks": 4705,
                  "midi": 60,
                  "name": "C4",
                  "ticks": 878400,
                  "time": 28.445611500000002,
                  "velocity": 0.7322834645669292
              },
              {
                  "duration": 0.31126960125000025,
                  "durationTicks": 9612,
                  "midi": 60,
                  "name": "C4",
                  "ticks": 878400,
                  "time": 28.445611500000002,
                  "velocity": 0.6771653543307087
              },
              {
                  "duration": 0.18089388187500077,
                  "durationTicks": 5586,
                  "midi": 65,
                  "name": "F4",
                  "ticks": 888000,
                  "time": 28.7564925,
                  "velocity": 0.6692913385826772
              },
              {
                  "duration": 0.17393144281249917,
                  "durationTicks": 5371,
                  "midi": 62,
                  "name": "D4",
                  "ticks": 892800,
                  "time": 28.911933,
                  "velocity": 0.5984251968503937
              },
              {
                  "duration": 0.1645078625000025,
                  "durationTicks": 5080,
                  "midi": 60,
                  "name": "C4",
                  "ticks": 907200,
                  "time": 29.3782545,
                  "velocity": 0.7795275590551181
              },
              {
                  "duration": 0.1673576049999994,
                  "durationTicks": 5168,
                  "midi": 62,
                  "name": "D4",
                  "ticks": 912000,
                  "time": 29.533695,
                  "velocity": 0.7007874015748031
              },
              {
                  "duration": 0.16764905593749901,
                  "durationTicks": 5177,
                  "midi": 60,
                  "name": "C4",
                  "ticks": 926400,
                  "time": 30.0000165,
                  "velocity": 0.7322834645669292
              },
              {
                  "duration": 0.16068661687500096,
                  "durationTicks": 4962,
                  "midi": 57,
                  "name": "A3",
                  "ticks": 931200,
                  "time": 30.155457000000002,
                  "velocity": 0.6614173228346457
              },
              {
                  "duration": 0.1750000962499989,
                  "durationTicks": 5404,
                  "midi": 55,
                  "name": "G3",
                  "ticks": 936000,
                  "time": 30.310897500000003,
                  "velocity": 0.7795275590551181
              },
              {
                  "duration": 0.16104283468750324,
                  "durationTicks": 4973,
                  "midi": 53,
                  "name": "F3",
                  "ticks": 945600,
                  "time": 30.6217785,
                  "velocity": 0.7637795275590551
              },
              {
                  "duration": 0.19650269874999893,
                  "durationTicks": 6068,
                  "midi": 50,
                  "name": "D3",
                  "ticks": 950400,
                  "time": 30.777219000000002,
                  "velocity": 0.7244094488188977
              },
              {
                  "duration": 0.16836149156249647,
                  "durationTicks": 5199,
                  "midi": 48,
                  "name": "C3",
                  "ticks": 955200,
                  "time": 30.932659500000003,
                  "velocity": 0.7244094488188977
              },
              {
                  "duration": 0.256930193125001,
                  "durationTicks": 7934,
                  "midi": 69,
                  "name": "A4",
                  "ticks": 960000,
                  "time": 31.0881,
                  "velocity": 0.8031496062992126
              },
              {
                  "duration": 0.24148329343750063,
                  "durationTicks": 7457,
                  "midi": 72,
                  "name": "C5",
                  "ticks": 964800,
                  "time": 31.2435405,
                  "velocity": 0.8740157480314961
              },
              {
                  "duration": 0.1664832521875006,
                  "durationTicks": 5141,
                  "midi": 67,
                  "name": "G4",
                  "ticks": 969600,
                  "time": 31.398981000000003,
                  "velocity": 0.8976377952755905
              },
              {
                  "duration": 0.1631801415625027,
                  "durationTicks": 5039,
                  "midi": 69,
                  "name": "A4",
                  "ticks": 974400,
                  "time": 31.5544215,
                  "velocity": 0.8740157480314961
              },
              {
                  "duration": 0.18869829031249807,
                  "durationTicks": 5827,
                  "midi": 65,
                  "name": "F4",
                  "ticks": 984000,
                  "time": 31.865302500000002,
                  "velocity": 0.7874015748031497
              },
              {
                  "duration": 0.1748705625000042,
                  "durationTicks": 5400,
                  "midi": 62,
                  "name": "D4",
                  "ticks": 993600,
                  "time": 32.1761835,
                  "velocity": 0.8031496062992126
              },
              {
                  "duration": 0.1791775596874956,
                  "durationTicks": 5533,
                  "midi": 65,
                  "name": "F4",
                  "ticks": 1003200,
                  "time": 32.4870645,
                  "velocity": 0.8267716535433071
              },
              {
                  "duration": 0.19154803281250565,
                  "durationTicks": 5915,
                  "midi": 62,
                  "name": "D4",
                  "ticks": 1008000,
                  "time": 32.642505,
                  "velocity": 0.7874015748031497
              },
              {
                  "duration": 0.1853304128124975,
                  "durationTicks": 5723,
                  "midi": 60,
                  "name": "C4",
                  "ticks": 1012800,
                  "time": 32.797945500000004,
                  "velocity": 0.84251968503937
              },
              {
                  "duration": 0.1787565750000013,
                  "durationTicks": 5520,
                  "midi": 62,
                  "name": "D4",
                  "ticks": 1017600,
                  "time": 32.953386,
                  "velocity": 0.8582677165354331
              },
              {
                  "duration": 0.17085501625000177,
                  "durationTicks": 5276,
                  "midi": 60,
                  "name": "C4",
                  "ticks": 1022400,
                  "time": 33.1088265,
                  "velocity": 0.7716535433070866
              },
              {
                  "duration": 0.18539517968749664,
                  "durationTicks": 5725,
                  "midi": 57,
                  "name": "A3",
                  "ticks": 1027200,
                  "time": 33.264267000000004,
                  "velocity": 0.8976377952755905
              },
              {
                  "duration": 0.17998714562499885,
                  "durationTicks": 5558,
                  "midi": 55,
                  "name": "G3",
                  "ticks": 1032000,
                  "time": 33.4197075,
                  "velocity": 0.889763779527559
              },
              {
                  "duration": 0.1498057818750027,
                  "durationTicks": 4626,
                  "midi": 57,
                  "name": "A3",
                  "ticks": 1036800,
                  "time": 33.575148,
                  "velocity": 0.889763779527559
              },
              {
                  "duration": 0.18665813374999374,
                  "durationTicks": 5764,
                  "midi": 60,
                  "name": "C4",
                  "ticks": 1041600,
                  "time": 33.7305885,
                  "velocity": 0.8110236220472441
              },
              {
                  "duration": 0.17642496749999736,
                  "durationTicks": 5448,
                  "midi": 62,
                  "name": "D4",
                  "ticks": 1046400,
                  "time": 33.886029,
                  "velocity": 0.7637795275590551
              },
              {
                  "duration": 0.19248715250000004,
                  "durationTicks": 5944,
                  "midi": 60,
                  "name": "C4",
                  "ticks": 1051200,
                  "time": 34.041469500000005,
                  "velocity": 0.7795275590551181
              },
              {
                  "duration": 0.19679414968749853,
                  "durationTicks": 6077,
                  "midi": 57,
                  "name": "A3",
                  "ticks": 1060800,
                  "time": 34.3523505,
                  "velocity": 0.8740157480314961
              },
              {
                  "duration": 0.18309595562499936,
                  "durationTicks": 5654,
                  "midi": 55,
                  "name": "G3",
                  "ticks": 1070400,
                  "time": 34.6632315,
                  "velocity": 0.937007874015748
              },
              {
                  "duration": 0.18860113999999584,
                  "durationTicks": 5824,
                  "midi": 57,
                  "name": "A3",
                  "ticks": 1080000,
                  "time": 34.974112500000004,
                  "velocity": 0.9291338582677166
              },
              {
                  "duration": 0.20216980031249676,
                  "durationTicks": 6243,
                  "midi": 55,
                  "name": "G3",
                  "ticks": 1084800,
                  "time": 35.129553,
                  "velocity": 0.7952755905511811
              },
              {
                  "duration": 0.19407394093749986,
                  "durationTicks": 5993,
                  "midi": 53,
                  "name": "F3",
                  "ticks": 1089600,
                  "time": 35.2849935,
                  "velocity": 0.905511811023622
              },
              {
                  "duration": 0.20825788656249955,
                  "durationTicks": 6431,
                  "midi": 55,
                  "name": "G3",
                  "ticks": 1094400,
                  "time": 35.440434,
                  "velocity": 0.8110236220472441
              },
              {
                  "duration": 0.20301176968749957,
                  "durationTicks": 6269,
                  "midi": 53,
                  "name": "F3",
                  "ticks": 1099200,
                  "time": 35.5958745,
                  "velocity": 0.8818897637795275
              },
              {
                  "duration": 0.19452730906250082,
                  "durationTicks": 6007,
                  "midi": 50,
                  "name": "D3",
                  "ticks": 1104000,
                  "time": 35.751315000000005,
                  "velocity": 0.9212598425196851
              },
              {
                  "duration": 0.20874363812500007,
                  "durationTicks": 6446,
                  "midi": 48,
                  "name": "C3",
                  "ticks": 1108800,
                  "time": 35.9067555,
                  "velocity": 0.8740157480314961
              },
              {
                  "duration": 0.15990941437500084,
                  "durationTicks": 4938,
                  "midi": 69,
                  "name": "A4",
                  "ticks": 1113600,
                  "time": 36.062196,
                  "velocity": 0.8346456692913385
              },
              {
                  "duration": 0.2788537803124953,
                  "durationTicks": 8611,
                  "midi": 72,
                  "name": "C5",
                  "ticks": 1118400,
                  "time": 36.217636500000005,
                  "velocity": 0.8267716535433071
              },
              {
                  "duration": 0.22797940000000239,
                  "durationTicks": 7040,
                  "midi": 74,
                  "name": "D5",
                  "ticks": 1123200,
                  "time": 36.373077,
                  "velocity": 0.7795275590551181
              },
              {
                  "duration": 0.39022042187500006,
                  "durationTicks": 12050,
                  "midi": 72,
                  "name": "C5",
                  "ticks": 1128000,
                  "time": 36.5285175,
                  "velocity": 0.8740157480314961
              },
              {
                  "duration": 0.16402211093750196,
                  "durationTicks": 5065,
                  "midi": 69,
                  "name": "A4",
                  "ticks": 1137600,
                  "time": 36.8393985,
                  "velocity": 0.7952755905511811
              },
              {
                  "duration": 0.1727656390624972,
                  "durationTicks": 5335,
                  "midi": 67,
                  "name": "G4",
                  "ticks": 1147200,
                  "time": 37.1502795,
                  "velocity": 0.8582677165354331
              },
              {
                  "duration": 0.15569956749999392,
                  "durationTicks": 4808,
                  "midi": 69,
                  "name": "A4",
                  "ticks": 1156800,
                  "time": 37.461160500000005,
                  "velocity": 0.84251968503937
              },
              {
                  "duration": 0.16933299468750107,
                  "durationTicks": 5229,
                  "midi": 67,
                  "name": "G4",
                  "ticks": 1161600,
                  "time": 37.616601,
                  "velocity": 0.8031496062992126
              },
              {
                  "duration": 0.20437187406250246,
                  "durationTicks": 6311,
                  "midi": 65,
                  "name": "F4",
                  "ticks": 1166400,
                  "time": 37.7720415,
                  "velocity": 0.7795275590551181
              },
              {
                  "duration": 0.1759715993749964,
                  "durationTicks": 5434,
                  "midi": 67,
                  "name": "G4",
                  "ticks": 1171200,
                  "time": 37.927482000000005,
                  "velocity": 0.8503937007874016
              },
              {
                  "duration": 0.18856875656249628,
                  "durationTicks": 5823,
                  "midi": 65,
                  "name": "F4",
                  "ticks": 1176000,
                  "time": 38.0829225,
                  "velocity": 0.8582677165354331
              },
              {
                  "duration": 0.18225398625000366,
                  "durationTicks": 5628,
                  "midi": 62,
                  "name": "D4",
                  "ticks": 1180800,
                  "time": 38.238363,
                  "velocity": 0.8346456692913385
              },
              {
                  "duration": 0.1755506146875021,
                  "durationTicks": 5421,
                  "midi": 60,
                  "name": "C4",
                  "ticks": 1185600,
                  "time": 38.393803500000004,
                  "velocity": 0.8740157480314961
              },
              {
                  "duration": 0.1879534712500046,
                  "durationTicks": 5804,
                  "midi": 62,
                  "name": "D4",
                  "ticks": 1190400,
                  "time": 38.549244,
                  "velocity": 0.84251968503937
              },
              {
                  "duration": 0.18286927156250243,
                  "durationTicks": 5647,
                  "midi": 65,
                  "name": "F4",
                  "ticks": 1195200,
                  "time": 38.7046845,
                  "velocity": 0.8188976377952756
              },
              {
                  "duration": 0.1521697728124991,
                  "durationTicks": 4699,
                  "midi": 67,
                  "name": "G4",
                  "ticks": 1200000,
                  "time": 38.860125000000004,
                  "velocity": 0.8818897637795275
              },
              {
                  "duration": 0.16602988406250319,
                  "durationTicks": 5127,
                  "midi": 65,
                  "name": "F4",
                  "ticks": 1204800,
                  "time": 39.0155655,
                  "velocity": 0.8503937007874016
              },
              {
                  "duration": 0.17237703781250246,
                  "durationTicks": 5323,
                  "midi": 67,
                  "name": "G4",
                  "ticks": 1214400,
                  "time": 39.3264465,
                  "velocity": 0.889763779527559
              },
              {
                  "duration": 0.16748713874999765,
                  "durationTicks": 5172,
                  "midi": 69,
                  "name": "A4",
                  "ticks": 1219200,
                  "time": 39.481887,
                  "velocity": 0.8818897637795275
              },
              {
                  "duration": 0.13941069843749432,
                  "durationTicks": 4305,
                  "midi": 72,
                  "name": "C5",
                  "ticks": 1224000,
                  "time": 39.637327500000005,
                  "velocity": 0.7716535433070866
              },
              {
                  "duration": 0.13856872906250572,
                  "durationTicks": 4279,
                  "midi": 74,
                  "name": "D5",
                  "ticks": 1233600,
                  "time": 39.9482085,
                  "velocity": 0.8188976377952756
              },
              {
                  "duration": 0.13856872906249862,
                  "durationTicks": 4279,
                  "midi": 72,
                  "name": "C5",
                  "ticks": 1238400,
                  "time": 40.103649000000004,
                  "velocity": 0.8188976377952756
              },
              {
                  "duration": 0.1731866237500057,
                  "durationTicks": 5348,
                  "midi": 69,
                  "name": "A4",
                  "ticks": 1243200,
                  "time": 40.2590895,
                  "velocity": 0.937007874015748
              },
              {
                  "duration": 0.1731866237500057,
                  "durationTicks": 5348,
                  "midi": 67,
                  "name": "G4",
                  "ticks": 1248000,
                  "time": 40.41453,
                  "velocity": 0.937007874015748
              },
              {
                  "duration": 0.18008429593749753,
                  "durationTicks": 5561,
                  "midi": 65,
                  "name": "F4",
                  "ticks": 1252800,
                  "time": 40.569970500000004,
                  "velocity": 0.9133858267716536
              },
              {
                  "duration": 0.19281098687499565,
                  "durationTicks": 5954,
                  "midi": 62,
                  "name": "D4",
                  "ticks": 1257600,
                  "time": 40.725411,
                  "velocity": 0.8267716535433071
              },
              {
                  "duration": 0.1856866306249998,
                  "durationTicks": 5734,
                  "midi": 60,
                  "name": "C4",
                  "ticks": 1262400,
                  "time": 40.880851500000006,
                  "velocity": 0.8110236220472441
              },
              {
                  "duration": 0.18928119218750084,
                  "durationTicks": 5845,
                  "midi": 67,
                  "name": "G4",
                  "ticks": 1276800,
                  "time": 41.347173000000005,
                  "velocity": 0.8818897637795275
              },
              {
                  "duration": 0.1471827234374956,
                  "durationTicks": 4545,
                  "midi": 65,
                  "name": "F4",
                  "ticks": 1291200,
                  "time": 41.813494500000004,
                  "velocity": 0.9448818897637795
              },
              {
                  "duration": 0.1614638193750011,
                  "durationTicks": 4986,
                  "midi": 65,
                  "name": "F4",
                  "ticks": 1296000,
                  "time": 41.968935,
                  "velocity": 0.8188976377952756
              },
              {
                  "duration": 0.17571253187500702,
                  "durationTicks": 5426,
                  "midi": 74,
                  "name": "D5",
                  "ticks": 1300800,
                  "time": 42.1243755,
                  "velocity": 0.9212598425196851
              },
              {
                  "duration": 0.22538872500000195,
                  "durationTicks": 6960,
                  "midi": 65,
                  "name": "F4",
                  "ticks": 1310400,
                  "time": 42.4352565,
                  "velocity": 0.9133858267716536
              },
              {
                  "duration": 0.17606874968749509,
                  "durationTicks": 5437,
                  "midi": 74,
                  "name": "D5",
                  "ticks": 1315200,
                  "time": 42.590697000000006,
                  "velocity": 0.889763779527559
              },
              {
                  "duration": 0.19028507875000145,
                  "durationTicks": 5876,
                  "midi": 72,
                  "name": "C5",
                  "ticks": 1320000,
                  "time": 42.7461375,
                  "velocity": 0.8031496062992126
              },
              {
                  "duration": 0.20453379125000026,
                  "durationTicks": 6316,
                  "midi": 74,
                  "name": "D5",
                  "ticks": 1324800,
                  "time": 42.901578,
                  "velocity": 0.7874015748031497
              },
              {
                  "duration": 0.1763925840624978,
                  "durationTicks": 5447,
                  "midi": 72,
                  "name": "C5",
                  "ticks": 1329600,
                  "time": 43.057018500000005,
                  "velocity": 0.8740157480314961
              },
              {
                  "duration": 0.16943014499999265,
                  "durationTicks": 5232,
                  "midi": 69,
                  "name": "A4",
                  "ticks": 1334400,
                  "time": 43.212459,
                  "velocity": 0.8740157480314961
              },
              {
                  "duration": 0.20495477593750167,
                  "durationTicks": 6329,
                  "midi": 67,
                  "name": "G4",
                  "ticks": 1339200,
                  "time": 43.3678995,
                  "velocity": 0.84251968503937
              },
              {
                  "duration": 0.19795995343750405,
                  "durationTicks": 6113,
                  "midi": 69,
                  "name": "A4",
                  "ticks": 1344000,
                  "time": 43.523340000000005,
                  "velocity": 0.9133858267716536
              },
              {
                  "duration": 0.19102989781249846,
                  "durationTicks": 5899,
                  "midi": 72,
                  "name": "C5",
                  "ticks": 1348800,
                  "time": 43.6787805,
                  "velocity": 0.8582677165354331
              },
              {
                  "duration": 0.18403507531250796,
                  "durationTicks": 5683,
                  "midi": 74,
                  "name": "D5",
                  "ticks": 1353600,
                  "time": 43.834221,
                  "velocity": 0.8740157480314961
              },
              {
                  "duration": 0.17710501968749526,
                  "durationTicks": 5469,
                  "midi": 72,
                  "name": "C5",
                  "ticks": 1358400,
                  "time": 43.989661500000004,
                  "velocity": 0.8818897637795275
              },
              {
                  "duration": 0.18439129312498892,
                  "durationTicks": 5694,
                  "midi": 69,
                  "name": "A4",
                  "ticks": 1368000,
                  "time": 44.300542500000006,
                  "velocity": 0.8031496062992126
              },
              {
                  "duration": 0.1916775665624968,
                  "durationTicks": 5919,
                  "midi": 67,
                  "name": "G4",
                  "ticks": 1377600,
                  "time": 44.6114235,
                  "velocity": 0.84251968503937
              },
              {
                  "duration": 0.17781745531249982,
                  "durationTicks": 5491,
                  "midi": 69,
                  "name": "A4",
                  "ticks": 1387200,
                  "time": 44.9223045,
                  "velocity": 0.8346456692913385
              },
              {
                  "duration": 0.1920014009374995,
                  "durationTicks": 5929,
                  "midi": 67,
                  "name": "G4",
                  "ticks": 1392000,
                  "time": 45.077745,
                  "velocity": 0.9133858267716536
              },
              {
                  "duration": 0.18507134531250102,
                  "durationTicks": 5715,
                  "midi": 65,
                  "name": "F4",
                  "ticks": 1396800,
                  "time": 45.233185500000005,
                  "velocity": 0.8346456692913385
              },
              {
                  "duration": 0.22056359281249627,
                  "durationTicks": 6811,
                  "midi": 67,
                  "name": "G4",
                  "ticks": 1401600,
                  "time": 45.388626,
                  "velocity": 0.7874015748031497
              },
              {
                  "duration": 0.1924223856250009,
                  "durationTicks": 5942,
                  "midi": 65,
                  "name": "F4",
                  "ticks": 1406400,
                  "time": 45.5440665,
                  "velocity": 0.8582677165354331
              },
              {
                  "duration": 0.17846512406249815,
                  "durationTicks": 5511,
                  "midi": 60,
                  "name": "C4",
                  "ticks": 1416000,
                  "time": 45.8549475,
                  "velocity": 0.8661417322834646
              },
              {
                  "duration": 0.14336147781250475,
                  "durationTicks": 4427,
                  "midi": 72,
                  "name": "C5",
                  "ticks": 1425600,
                  "time": 46.1658285,
                  "velocity": 0.8110236220472441
              },
              {
                  "duration": 0.157577806875004,
                  "durationTicks": 4866,
                  "midi": 74,
                  "name": "D5",
                  "ticks": 1430400,
                  "time": 46.321269,
                  "velocity": 0.7952755905511811
              },
              {
                  "duration": 0.1791775596875027,
                  "durationTicks": 5533,
                  "midi": 69,
                  "name": "A4",
                  "ticks": 1444800,
                  "time": 46.7875905,
                  "velocity": 0.9291338582677166
              },
              {
                  "duration": 0.1652526815624995,
                  "durationTicks": 5103,
                  "midi": 67,
                  "name": "G4",
                  "ticks": 1454400,
                  "time": 47.0984715,
                  "velocity": 0.8110236220472441
              },
              {
                  "duration": 0.15136018687499586,
                  "durationTicks": 4674,
                  "midi": 69,
                  "name": "A4",
                  "ticks": 1464000,
                  "time": 47.409352500000004,
                  "velocity": 0.84251968503937
              },
              {
                  "duration": 0.18682005093749865,
                  "durationTicks": 5769,
                  "midi": 67,
                  "name": "G4",
                  "ticks": 1468800,
                  "time": 47.564793,
                  "velocity": 0.7952755905511811
              },
              {
                  "duration": 0.1729275562500021,
                  "durationTicks": 5340,
                  "midi": 67,
                  "name": "G4",
                  "ticks": 1478400,
                  "time": 47.875674000000004,
                  "velocity": 0.7952755905511811
              },
              {
                  "duration": 0.18717626875000093,
                  "durationTicks": 5780,
                  "midi": 65,
                  "name": "F4",
                  "ticks": 1483200,
                  "time": 48.0311145,
                  "velocity": 0.9133858267716536
              },
              {
                  "duration": 0.18024621312499534,
                  "durationTicks": 5566,
                  "midi": 62,
                  "name": "D4",
                  "ticks": 1488000,
                  "time": 48.186555000000006,
                  "velocity": 0.8346456692913385
              },
              {
                  "duration": 0.1944625421874946,
                  "durationTicks": 6005,
                  "midi": 60,
                  "name": "C4",
                  "ticks": 1492800,
                  "time": 48.3419955,
                  "velocity": 0.7952755905511811
              },
              {
                  "duration": 0.16628895156250678,
                  "durationTicks": 5135,
                  "midi": 62,
                  "name": "D4",
                  "ticks": 1497600,
                  "time": 48.497436,
                  "velocity": 0.8818897637795275
              },
              {
                  "duration": 0.1805376640624985,
                  "durationTicks": 5575,
                  "midi": 65,
                  "name": "F4",
                  "ticks": 1502400,
                  "time": 48.652876500000005,
                  "velocity": 0.7952755905511811
              },
              {
                  "duration": 0.15236407343750358,
                  "durationTicks": 4705,
                  "midi": 67,
                  "name": "G4",
                  "ticks": 1507200,
                  "time": 48.808317,
                  "velocity": 0.8976377952755905
              },
              {
                  "duration": 0.17393144281250272,
                  "durationTicks": 5371,
                  "midi": 67,
                  "name": "G4",
                  "ticks": 1521600,
                  "time": 49.2746385,
                  "velocity": 0.7716535433070866
              },
              {
                  "duration": 0.1812824831249955,
                  "durationTicks": 5598,
                  "midi": 72,
                  "name": "C5",
                  "ticks": 1531200,
                  "time": 49.585519500000004,
                  "velocity": 0.8582677165354331
              },
              {
                  "duration": 0.16732522156249985,
                  "durationTicks": 5167,
                  "midi": 74,
                  "name": "D5",
                  "ticks": 1540800,
                  "time": 49.896400500000006,
                  "velocity": 0.8661417322834646
              },
              {
                  "duration": 0.13921639781249695,
                  "durationTicks": 4299,
                  "midi": 72,
                  "name": "C5",
                  "ticks": 1545600,
                  "time": 50.051841,
                  "velocity": 0.7874015748031497
              },
              {
                  "duration": 0.14647028781249816,
                  "durationTicks": 4523,
                  "midi": 67,
                  "name": "G4",
                  "ticks": 1555200,
                  "time": 50.362722000000005,
                  "velocity": 0.8976377952755905
              },
              {
                  "duration": 0.1819625353124934,
                  "durationTicks": 5619,
                  "midi": 65,
                  "name": "F4",
                  "ticks": 1560000,
                  "time": 50.5181625,
                  "velocity": 0.8740157480314961
              },
              {
                  "duration": 0.1749677128125029,
                  "durationTicks": 5403,
                  "midi": 57,
                  "name": "A3",
                  "ticks": 1564800,
                  "time": 50.673603,
                  "velocity": 0.7480314960629921
              },
              {
                  "duration": 0.1749677128125029,
                  "durationTicks": 5403,
                  "midi": 62,
                  "name": "D4",
                  "ticks": 1564800,
                  "time": 50.673603,
                  "velocity": 0.9133858267716536
              },
              {
                  "duration": 0.16807004062499686,
                  "durationTicks": 5190,
                  "midi": 60,
                  "name": "C4",
                  "ticks": 1569600,
                  "time": 50.829043500000004,
                  "velocity": 0.7795275590551181
              },
              {
                  "duration": 0.1987695393750002,
                  "durationTicks": 6138,
                  "midi": 69,
                  "name": "A4",
                  "ticks": 1574400,
                  "time": 50.984484,
                  "velocity": 0.7952755905511811
              },
              {
                  "duration": 0.3073188218749934,
                  "durationTicks": 9490,
                  "midi": 65,
                  "name": "F4",
                  "ticks": 1579200,
                  "time": 51.139924500000006,
                  "velocity": 0.8110236220472441
              },
              {
                  "duration": 0.1952073612499987,
                  "durationTicks": 6028,
                  "midi": 67,
                  "name": "G4",
                  "ticks": 1584000,
                  "time": 51.295365000000004,
                  "velocity": 0.8188976377952756
              },
              {
                  "duration": 0.18704673500000268,
                  "durationTicks": 5776,
                  "midi": 69,
                  "name": "A4",
                  "ticks": 1588800,
                  "time": 51.4508055,
                  "velocity": 0.7874015748031497
              },
              {
                  "duration": 0.21554416000000032,
                  "durationTicks": 6656,
                  "midi": 65,
                  "name": "F4",
                  "ticks": 1598400,
                  "time": 51.7616865,
                  "velocity": 0.8503937007874016
              },
              {
                  "duration": 0.221632246249996,
                  "durationTicks": 6844,
                  "midi": 62,
                  "name": "D4",
                  "ticks": 1608000,
                  "time": 52.072567500000005,
                  "velocity": 0.8188976377952756
              },
              {
                  "duration": 0.20343275437500097,
                  "durationTicks": 6282,
                  "midi": 65,
                  "name": "F4",
                  "ticks": 1617600,
                  "time": 52.3834485,
                  "velocity": 0.9133858267716536
              },
              {
                  "duration": 0.20006487687499686,
                  "durationTicks": 6178,
                  "midi": 62,
                  "name": "D4",
                  "ticks": 1622400,
                  "time": 52.538889000000005,
                  "velocity": 0.8346456692913385
              },
              {
                  "duration": 0.21386022125000181,
                  "durationTicks": 6604,
                  "midi": 60,
                  "name": "C4",
                  "ticks": 1627200,
                  "time": 52.6943295,
                  "velocity": 0.84251968503937
              },
              {
                  "duration": 0.1873705693749983,
                  "durationTicks": 5786,
                  "midi": 62,
                  "name": "D4",
                  "ticks": 1632000,
                  "time": 52.84977000000001,
                  "velocity": 0.7637795275590551
              },
              {
                  "duration": 0.2007125456249952,
                  "durationTicks": 6198,
                  "midi": 60,
                  "name": "C4",
                  "ticks": 1636800,
                  "time": 53.005210500000004,
                  "velocity": 0.7716535433070866
              },
              {
                  "duration": 0.1931995881249975,
                  "durationTicks": 5966,
                  "midi": 57,
                  "name": "A3",
                  "ticks": 1641600,
                  "time": 53.160651,
                  "velocity": 0.968503937007874
              },
              {
                  "duration": 0.20738353374999718,
                  "durationTicks": 6404,
                  "midi": 55,
                  "name": "G3",
                  "ticks": 1646400,
                  "time": 53.316091500000006,
                  "velocity": 0.84251968503937
              },
              {
                  "duration": 0.1985104718750037,
                  "durationTicks": 6130,
                  "midi": 57,
                  "name": "A3",
                  "ticks": 1651200,
                  "time": 53.471532,
                  "velocity": 0.8031496062992126
              },
              {
                  "duration": 0.20595866250000228,
                  "durationTicks": 6360,
                  "midi": 60,
                  "name": "C4",
                  "ticks": 1656000,
                  "time": 53.6269725,
                  "velocity": 0.7795275590551181
              },
              {
                  "duration": 0.18477989437500497,
                  "durationTicks": 5706,
                  "midi": 62,
                  "name": "D4",
                  "ticks": 1660800,
                  "time": 53.782413000000005,
                  "velocity": 0.889763779527559
              },
              {
                  "duration": 0.19695606687500344,
                  "durationTicks": 6082,
                  "midi": 60,
                  "name": "C4",
                  "ticks": 1665600,
                  "time": 53.9378535,
                  "velocity": 0.9291338582677166
              },
              {
                  "duration": 0.20485762562500298,
                  "durationTicks": 6326,
                  "midi": 57,
                  "name": "A3",
                  "ticks": 1675200,
                  "time": 54.248734500000005,
                  "velocity": 0.7637795275590551
              },
              {
                  "duration": 0.2124353499999998,
                  "durationTicks": 6560,
                  "midi": 55,
                  "name": "G3",
                  "ticks": 1684800,
                  "time": 54.55961550000001,
                  "velocity": 0.8582677165354331
              },
              {
                  "duration": 0.23937837000000428,
                  "durationTicks": 7392,
                  "midi": 57,
                  "name": "A3",
                  "ticks": 1694400,
                  "time": 54.8704965,
                  "velocity": 0.952755905511811
              },
              {
                  "duration": 0.23257784812498983,
                  "durationTicks": 7182,
                  "midi": 55,
                  "name": "G3",
                  "ticks": 1699200,
                  "time": 55.025937000000006,
                  "velocity": 0.8976377952755905
              },
              {
                  "duration": 0.18244828687499393,
                  "durationTicks": 5634,
                  "midi": 53,
                  "name": "F3",
                  "ticks": 1704000,
                  "time": 55.1813775,
                  "velocity": 0.8582677165354331
              },
              {
                  "duration": 0.1985104718750037,
                  "durationTicks": 6130,
                  "midi": 55,
                  "name": "G3",
                  "ticks": 1708800,
                  "time": 55.336818,
                  "velocity": 0.8503937007874016
              },
              {
                  "duration": 0.18918404187499505,
                  "durationTicks": 5842,
                  "midi": 53,
                  "name": "F3",
                  "ticks": 1713600,
                  "time": 55.492258500000005,
                  "velocity": 0.9291338582677166
              },
              {
                  "duration": 0.22428768812500266,
                  "durationTicks": 6926,
                  "midi": 50,
                  "name": "D3",
                  "ticks": 1718400,
                  "time": 55.647699,
                  "velocity": 1
              },
              {
                  "duration": 0.21664519687500672,
                  "durationTicks": 6690,
                  "midi": 48,
                  "name": "C3",
                  "ticks": 1723200,
                  "time": 55.8031395,
                  "velocity": 0.8503937007874016
              },
              {
                  "duration": 0.18944310937499864,
                  "durationTicks": 5850,
                  "midi": 69,
                  "name": "A4",
                  "ticks": 1728000,
                  "time": 55.958580000000005,
                  "velocity": 0.7874015748031497
              },
              {
                  "duration": 0.20330322062499562,
                  "durationTicks": 6278,
                  "midi": 72,
                  "name": "C5",
                  "ticks": 1732800,
                  "time": 56.1140205,
                  "velocity": 0.8582677165354331
              },
              {
                  "duration": 0.19566072937499968,
                  "durationTicks": 6042,
                  "midi": 74,
                  "name": "D5",
                  "ticks": 1737600,
                  "time": 56.26946100000001,
                  "velocity": 0.8976377952755905
              },
              {
                  "duration": 0.1884716062499976,
                  "durationTicks": 5820,
                  "midi": 72,
                  "name": "C5",
                  "ticks": 1742400,
                  "time": 56.424901500000004,
                  "velocity": 0.9212598425196851
              },
              {
                  "duration": 0.19527212812499783,
                  "durationTicks": 6030,
                  "midi": 69,
                  "name": "A4",
                  "ticks": 1752000,
                  "time": 56.735782500000006,
                  "velocity": 0.8818897637795275
              },
              {
                  "duration": 0.22364001937500433,
                  "durationTicks": 6906,
                  "midi": 67,
                  "name": "G4",
                  "ticks": 1761600,
                  "time": 57.0466635,
                  "velocity": 0.7874015748031497
              },
              {
                  "duration": 0.19002601125000496,
                  "durationTicks": 5868,
                  "midi": 69,
                  "name": "A4",
                  "ticks": 1771200,
                  "time": 57.3575445,
                  "velocity": 0.8503937007874016
              },
              {
                  "duration": 0.1731866237500057,
                  "durationTicks": 5348,
                  "midi": 67,
                  "name": "G4",
                  "ticks": 1776000,
                  "time": 57.512985,
                  "velocity": 0.7952755905511811
              },
              {
                  "duration": 0.19494829374999512,
                  "durationTicks": 6020,
                  "midi": 65,
                  "name": "F4",
                  "ticks": 1780800,
                  "time": 57.668425500000005,
                  "velocity": 0.8503937007874016
              },
              {
                  "duration": 0.18898974124999768,
                  "durationTicks": 5836,
                  "midi": 67,
                  "name": "G4",
                  "ticks": 1785600,
                  "time": 57.823866,
                  "velocity": 0.8031496062992126
              },
              {
                  "duration": 0.20148974812499176,
                  "durationTicks": 6222,
                  "midi": 65,
                  "name": "F4",
                  "ticks": 1790400,
                  "time": 57.97930650000001,
                  "velocity": 0.8267716535433071
              },
              {
                  "duration": 0.17461149500000062,
                  "durationTicks": 5392,
                  "midi": 62,
                  "name": "D4",
                  "ticks": 1795200,
                  "time": 58.134747000000004,
                  "velocity": 0.905511811023622
              },
              {
                  "duration": 0.18588093124999716,
                  "durationTicks": 5740,
                  "midi": 60,
                  "name": "C4",
                  "ticks": 1800000,
                  "time": 58.2901875,
                  "velocity": 0.9291338582677166
              },
              {
                  "duration": 0.2001944106249951,
                  "durationTicks": 6182,
                  "midi": 62,
                  "name": "D4",
                  "ticks": 1804800,
                  "time": 58.445628000000006,
                  "velocity": 0.7874015748031497
              },
              {
                  "duration": 0.25408045062500406,
                  "durationTicks": 7846,
                  "midi": 65,
                  "name": "F4",
                  "ticks": 1809600,
                  "time": 58.601068500000004,
                  "velocity": 0.8188976377952756
              },
              {
                  "duration": 0.1854275631250033,
                  "durationTicks": 5726,
                  "midi": 67,
                  "name": "G4",
                  "ticks": 1814400,
                  "time": 58.756509,
                  "velocity": 0.968503937007874
              },
              {
                  "duration": 0.22014260812499487,
                  "durationTicks": 6798,
                  "midi": 65,
                  "name": "F4",
                  "ticks": 1819200,
                  "time": 58.911949500000006,
                  "velocity": 0.8031496062992126
              },
              {
                  "duration": 0.20705969937500157,
                  "durationTicks": 6394,
                  "midi": 67,
                  "name": "G4",
                  "ticks": 1828800,
                  "time": 59.2228305,
                  "velocity": 0.8582677165354331
              },
              {
                  "duration": 0.243070081875004,
                  "durationTicks": 7506,
                  "midi": 69,
                  "name": "A4",
                  "ticks": 1833600,
                  "time": 59.378271000000005,
                  "velocity": 0.8740157480314961
              },
              {
                  "duration": 0.24255194687499682,
                  "durationTicks": 7490,
                  "midi": 72,
                  "name": "C5",
                  "ticks": 1838400,
                  "time": 59.5337115,
                  "velocity": 0.905511811023622
              },
              {
                  "duration": 0.1804405137499998,
                  "durationTicks": 5572,
                  "midi": 74,
                  "name": "D5",
                  "ticks": 1848000,
                  "time": 59.844592500000005,
                  "velocity": 0.8740157480314961
              },
              {
                  "duration": 0.2146374237499984,
                  "durationTicks": 6628,
                  "midi": 72,
                  "name": "C5",
                  "ticks": 1852800,
                  "time": 60.000033,
                  "velocity": 0.8661417322834646
              },
              {
                  "duration": 0.18588093124999716,
                  "durationTicks": 5740,
                  "midi": 69,
                  "name": "A4",
                  "ticks": 1857600,
                  "time": 60.15547350000001,
                  "velocity": 0.8582677165354331
              },
              {
                  "duration": 0.17752600437500377,
                  "durationTicks": 5482,
                  "midi": 67,
                  "name": "G4",
                  "ticks": 1862400,
                  "time": 60.310914000000004,
                  "velocity": 0.8110236220472441
              },
              {
                  "duration": 0.19436539187501012,
                  "durationTicks": 6002,
                  "midi": 65,
                  "name": "F4",
                  "ticks": 1867200,
                  "time": 60.4663545,
                  "velocity": 0.9133858267716536
              },
              {
                  "duration": 0.18452082687499427,
                  "durationTicks": 5698,
                  "midi": 62,
                  "name": "D4",
                  "ticks": 1872000,
                  "time": 60.621795000000006,
                  "velocity": 0.9291338582677166
              },
              {
                  "duration": 0.2193654056249983,
                  "durationTicks": 6774,
                  "midi": 60,
                  "name": "C4",
                  "ticks": 1876800,
                  "time": 60.7772355,
                  "velocity": 0.8503937007874016
              },
              {
                  "duration": 0.256930193125001,
                  "durationTicks": 7934,
                  "midi": 69,
                  "name": "A4",
                  "ticks": 2496000,
                  "time": 80.82906,
                  "velocity": 0.8031496062992126
              },
              {
                  "duration": 0.24148329343749708,
                  "durationTicks": 7457,
                  "midi": 72,
                  "name": "C5",
                  "ticks": 2500800,
                  "time": 80.98450050000001,
                  "velocity": 0.8740157480314961
              },
              {
                  "duration": 0.16648325218750415,
                  "durationTicks": 5141,
                  "midi": 67,
                  "name": "G4",
                  "ticks": 2505600,
                  "time": 81.13994100000001,
                  "velocity": 0.8976377952755905
              },
              {
                  "duration": 0.16318014156250626,
                  "durationTicks": 5039,
                  "midi": 69,
                  "name": "A4",
                  "ticks": 2510400,
                  "time": 81.2953815,
                  "velocity": 0.8740157480314961
              },
              {
                  "duration": 0.18869829031251584,
                  "durationTicks": 5827,
                  "midi": 65,
                  "name": "F4",
                  "ticks": 2520000,
                  "time": 81.6062625,
                  "velocity": 0.7874015748031497
              },
              {
                  "duration": 0.17487056249999,
                  "durationTicks": 5400,
                  "midi": 62,
                  "name": "D4",
                  "ticks": 2529600,
                  "time": 81.91714350000001,
                  "velocity": 0.8031496062992126
              },
              {
                  "duration": 0.1791775596874885,
                  "durationTicks": 5533,
                  "midi": 65,
                  "name": "F4",
                  "ticks": 2539200,
                  "time": 82.2280245,
                  "velocity": 0.8267716535433071
              },
              {
                  "duration": 0.19154803281250565,
                  "durationTicks": 5915,
                  "midi": 62,
                  "name": "D4",
                  "ticks": 2544000,
                  "time": 82.383465,
                  "velocity": 0.7874015748031497
              },
              {
                  "duration": 0.18533041281250462,
                  "durationTicks": 5723,
                  "midi": 60,
                  "name": "C4",
                  "ticks": 2548800,
                  "time": 82.5389055,
                  "velocity": 0.84251968503937
              },
              {
                  "duration": 0.1787565749999942,
                  "durationTicks": 5520,
                  "midi": 62,
                  "name": "D4",
                  "ticks": 2553600,
                  "time": 82.69434600000001,
                  "velocity": 0.8582677165354331
              },
              {
                  "duration": 0.17085501624998756,
                  "durationTicks": 5276,
                  "midi": 60,
                  "name": "C4",
                  "ticks": 2558400,
                  "time": 82.84978650000001,
                  "velocity": 0.7716535433070866
              },
              {
                  "duration": 0.18539517968750374,
                  "durationTicks": 5725,
                  "midi": 57,
                  "name": "A3",
                  "ticks": 2563200,
                  "time": 83.005227,
                  "velocity": 0.8976377952755905
              },
              {
                  "duration": 0.17998714562500595,
                  "durationTicks": 5558,
                  "midi": 55,
                  "name": "G3",
                  "ticks": 2568000,
                  "time": 83.1606675,
                  "velocity": 0.889763779527559
              },
              {
                  "duration": 0.1498057818750027,
                  "durationTicks": 4626,
                  "midi": 57,
                  "name": "A3",
                  "ticks": 2572800,
                  "time": 83.316108,
                  "velocity": 0.889763779527559
              },
              {
                  "duration": 0.18665813374998663,
                  "durationTicks": 5764,
                  "midi": 60,
                  "name": "C4",
                  "ticks": 2577600,
                  "time": 83.47154850000001,
                  "velocity": 0.8110236220472441
              },
              {
                  "duration": 0.17642496749999736,
                  "durationTicks": 5448,
                  "midi": 62,
                  "name": "D4",
                  "ticks": 2582400,
                  "time": 83.62698900000001,
                  "velocity": 0.7637795275590551
              },
              {
                  "duration": 0.19248715250000714,
                  "durationTicks": 5944,
                  "midi": 60,
                  "name": "C4",
                  "ticks": 2587200,
                  "time": 83.7824295,
                  "velocity": 0.7795275590551181
              },
              {
                  "duration": 0.19679414968750564,
                  "durationTicks": 6077,
                  "midi": 57,
                  "name": "A3",
                  "ticks": 2596800,
                  "time": 84.0933105,
                  "velocity": 0.8740157480314961
              },
              {
                  "duration": 0.18309595562499226,
                  "durationTicks": 5654,
                  "midi": 55,
                  "name": "G3",
                  "ticks": 2606400,
                  "time": 84.40419150000001,
                  "velocity": 0.937007874015748
              },
              {
                  "duration": 0.18860114000000294,
                  "durationTicks": 5824,
                  "midi": 57,
                  "name": "A3",
                  "ticks": 2616000,
                  "time": 84.7150725,
                  "velocity": 0.9291338582677166
              },
              {
                  "duration": 0.20216980031250387,
                  "durationTicks": 6243,
                  "midi": 55,
                  "name": "G3",
                  "ticks": 2620800,
                  "time": 84.870513,
                  "velocity": 0.7952755905511811
              },
              {
                  "duration": 0.19407394093751407,
                  "durationTicks": 5993,
                  "midi": 53,
                  "name": "F3",
                  "ticks": 2625600,
                  "time": 85.0259535,
                  "velocity": 0.905511811023622
              },
              {
                  "duration": 0.20825788656249244,
                  "durationTicks": 6431,
                  "midi": 55,
                  "name": "G3",
                  "ticks": 2630400,
                  "time": 85.18139400000001,
                  "velocity": 0.8110236220472441
              },
              {
                  "duration": 0.20301176968750667,
                  "durationTicks": 6269,
                  "midi": 53,
                  "name": "F3",
                  "ticks": 2635200,
                  "time": 85.33683450000001,
                  "velocity": 0.8818897637795275
              },
              {
                  "duration": 0.19452730906249371,
                  "durationTicks": 6007,
                  "midi": 50,
                  "name": "D3",
                  "ticks": 2640000,
                  "time": 85.492275,
                  "velocity": 0.9212598425196851
              },
              {
                  "duration": 0.20874363812498586,
                  "durationTicks": 6446,
                  "midi": 48,
                  "name": "C3",
                  "ticks": 2644800,
                  "time": 85.6477155,
                  "velocity": 0.8740157480314961
              },
              {
                  "duration": 0.15990941437499373,
                  "durationTicks": 4938,
                  "midi": 69,
                  "name": "A4",
                  "ticks": 2649600,
                  "time": 85.803156,
                  "velocity": 0.8346456692913385
              },
              {
                  "duration": 0.2788537803125024,
                  "durationTicks": 8611,
                  "midi": 72,
                  "name": "C5",
                  "ticks": 2654400,
                  "time": 85.9585965,
                  "velocity": 0.8267716535433071
              },
              {
                  "duration": 0.22797939999999528,
                  "durationTicks": 7040,
                  "midi": 74,
                  "name": "D5",
                  "ticks": 2659200,
                  "time": 86.11403700000001,
                  "velocity": 0.7795275590551181
              },
              {
                  "duration": 0.39022042187498585,
                  "durationTicks": 12050,
                  "midi": 72,
                  "name": "C5",
                  "ticks": 2664000,
                  "time": 86.26947750000001,
                  "velocity": 0.8740157480314961
              },
              {
                  "duration": 0.16402211093749486,
                  "durationTicks": 5065,
                  "midi": 69,
                  "name": "A4",
                  "ticks": 2673600,
                  "time": 86.5803585,
                  "velocity": 0.7952755905511811
              },
              {
                  "duration": 0.1727656390624901,
                  "durationTicks": 5335,
                  "midi": 67,
                  "name": "G4",
                  "ticks": 2683200,
                  "time": 86.89123950000001,
                  "velocity": 0.8582677165354331
              },
              {
                  "duration": 0.15569956749999392,
                  "durationTicks": 4808,
                  "midi": 69,
                  "name": "A4",
                  "ticks": 2692800,
                  "time": 87.2021205,
                  "velocity": 0.84251968503937
              },
              {
                  "duration": 0.16933299468750818,
                  "durationTicks": 5229,
                  "midi": 67,
                  "name": "G4",
                  "ticks": 2697600,
                  "time": 87.357561,
                  "velocity": 0.8031496062992126
              },
              {
                  "duration": 0.20437187406250246,
                  "durationTicks": 6311,
                  "midi": 65,
                  "name": "F4",
                  "ticks": 2702400,
                  "time": 87.5130015,
                  "velocity": 0.7795275590551181
              },
              {
                  "duration": 0.1759715993750035,
                  "durationTicks": 5434,
                  "midi": 67,
                  "name": "G4",
                  "ticks": 2707200,
                  "time": 87.668442,
                  "velocity": 0.8503937007874016
              },
              {
                  "duration": 0.18856875656248917,
                  "durationTicks": 5823,
                  "midi": 65,
                  "name": "F4",
                  "ticks": 2712000,
                  "time": 87.82388250000001,
                  "velocity": 0.8582677165354331
              },
              {
                  "duration": 0.18225398625000366,
                  "durationTicks": 5628,
                  "midi": 62,
                  "name": "D4",
                  "ticks": 2716800,
                  "time": 87.97932300000001,
                  "velocity": 0.8346456692913385
              },
              {
                  "duration": 0.175550614687495,
                  "durationTicks": 5421,
                  "midi": 60,
                  "name": "C4",
                  "ticks": 2721600,
                  "time": 88.1347635,
                  "velocity": 0.8740157480314961
              },
              {
                  "duration": 0.1879534712499975,
                  "durationTicks": 5804,
                  "midi": 62,
                  "name": "D4",
                  "ticks": 2726400,
                  "time": 88.290204,
                  "velocity": 0.84251968503937
              },
              {
                  "duration": 0.18286927156250954,
                  "durationTicks": 5647,
                  "midi": 65,
                  "name": "F4",
                  "ticks": 2731200,
                  "time": 88.4456445,
                  "velocity": 0.8188976377952756
              },
              {
                  "duration": 0.1521697728124991,
                  "durationTicks": 4699,
                  "midi": 67,
                  "name": "G4",
                  "ticks": 2736000,
                  "time": 88.60108500000001,
                  "velocity": 0.8818897637795275
              },
              {
                  "duration": 0.16602988406249608,
                  "durationTicks": 5127,
                  "midi": 65,
                  "name": "F4",
                  "ticks": 2740800,
                  "time": 88.75652550000001,
                  "velocity": 0.8503937007874016
              },
              {
                  "duration": 0.17237703781250957,
                  "durationTicks": 5323,
                  "midi": 67,
                  "name": "G4",
                  "ticks": 2750400,
                  "time": 89.0674065,
                  "velocity": 0.889763779527559
              },
              {
                  "duration": 0.16748713875000476,
                  "durationTicks": 5172,
                  "midi": 69,
                  "name": "A4",
                  "ticks": 2755200,
                  "time": 89.222847,
                  "velocity": 0.8818897637795275
              },
              {
                  "duration": 0.13941069843751563,
                  "durationTicks": 4305,
                  "midi": 72,
                  "name": "C5",
                  "ticks": 2760000,
                  "time": 89.3782875,
                  "velocity": 0.7716535433070866
              },
              {
                  "duration": 0.13856872906251283,
                  "durationTicks": 4279,
                  "midi": 74,
                  "name": "D5",
                  "ticks": 2769600,
                  "time": 89.68916850000001,
                  "velocity": 0.8188976377952756
              },
              {
                  "duration": 0.13856872906251283,
                  "durationTicks": 4279,
                  "midi": 72,
                  "name": "C5",
                  "ticks": 2774400,
                  "time": 89.844609,
                  "velocity": 0.8188976377952756
              },
              {
                  "duration": 0.1731866237499986,
                  "durationTicks": 5348,
                  "midi": 69,
                  "name": "A4",
                  "ticks": 2779200,
                  "time": 90.0000495,
                  "velocity": 0.937007874015748
              },
              {
                  "duration": 0.1731866237499986,
                  "durationTicks": 5348,
                  "midi": 67,
                  "name": "G4",
                  "ticks": 2784000,
                  "time": 90.15549,
                  "velocity": 0.937007874015748
              },
              {
                  "duration": 0.18008429593749042,
                  "durationTicks": 5561,
                  "midi": 65,
                  "name": "F4",
                  "ticks": 2788800,
                  "time": 90.31093050000001,
                  "velocity": 0.9133858267716536
              },
              {
                  "duration": 0.19281098687498854,
                  "durationTicks": 5954,
                  "midi": 62,
                  "name": "D4",
                  "ticks": 2793600,
                  "time": 90.46637100000001,
                  "velocity": 0.8267716535433071
              },
              {
                  "duration": 0.1856866306249998,
                  "durationTicks": 5734,
                  "midi": 60,
                  "name": "C4",
                  "ticks": 2798400,
                  "time": 90.6218115,
                  "velocity": 0.8110236220472441
              },
              {
                  "duration": 0.256930193125001,
                  "durationTicks": 7934,
                  "midi": 69,
                  "name": "A4",
                  "ticks": 2803200,
                  "time": 90.777252,
                  "velocity": 0.8031496062992126
              },
              {
                  "duration": 0.24148329343749708,
                  "durationTicks": 7457,
                  "midi": 72,
                  "name": "C5",
                  "ticks": 2808000,
                  "time": 90.9326925,
                  "velocity": 0.8740157480314961
              },
              {
                  "duration": 0.16648325218751836,
                  "durationTicks": 5141,
                  "midi": 67,
                  "name": "G4",
                  "ticks": 2812800,
                  "time": 91.088133,
                  "velocity": 0.8976377952755905
              },
              {
                  "duration": 0.16318014156249205,
                  "durationTicks": 5039,
                  "midi": 69,
                  "name": "A4",
                  "ticks": 2817600,
                  "time": 91.24357350000001,
                  "velocity": 0.8740157480314961
              },
              {
                  "duration": 0.18869829031250163,
                  "durationTicks": 5827,
                  "midi": 65,
                  "name": "F4",
                  "ticks": 2827200,
                  "time": 91.5544545,
                  "velocity": 0.7874015748031497
              },
              {
                  "duration": 0.1748705625000042,
                  "durationTicks": 5400,
                  "midi": 62,
                  "name": "D4",
                  "ticks": 2836800,
                  "time": 91.8653355,
                  "velocity": 0.8031496062992126
              },
              {
                  "duration": 0.1791775596874885,
                  "durationTicks": 5533,
                  "midi": 65,
                  "name": "F4",
                  "ticks": 2846400,
                  "time": 92.17621650000001,
                  "velocity": 0.8267716535433071
              },
              {
                  "duration": 0.19154803281250565,
                  "durationTicks": 5915,
                  "midi": 62,
                  "name": "D4",
                  "ticks": 2851200,
                  "time": 92.331657,
                  "velocity": 0.7874015748031497
              },
              {
                  "duration": 0.1853304128124904,
                  "durationTicks": 5723,
                  "midi": 60,
                  "name": "C4",
                  "ticks": 2856000,
                  "time": 92.4870975,
                  "velocity": 0.84251968503937
              },
              {
                  "duration": 0.1787565749999942,
                  "durationTicks": 5520,
                  "midi": 62,
                  "name": "D4",
                  "ticks": 2860800,
                  "time": 92.642538,
                  "velocity": 0.8582677165354331
              },
              {
                  "duration": 0.17085501625000177,
                  "durationTicks": 5276,
                  "midi": 60,
                  "name": "C4",
                  "ticks": 2865600,
                  "time": 92.7979785,
                  "velocity": 0.7716535433070866
              },
              {
                  "duration": 0.18539517968750374,
                  "durationTicks": 5725,
                  "midi": 57,
                  "name": "A3",
                  "ticks": 2870400,
                  "time": 92.95341900000001,
                  "velocity": 0.8976377952755905
              },
              {
                  "duration": 0.17998714562499174,
                  "durationTicks": 5558,
                  "midi": 55,
                  "name": "G3",
                  "ticks": 2875200,
                  "time": 93.10885950000001,
                  "velocity": 0.889763779527559
              },
              {
                  "duration": 0.1498057818750027,
                  "durationTicks": 4626,
                  "midi": 57,
                  "name": "A3",
                  "ticks": 2880000,
                  "time": 93.2643,
                  "velocity": 0.889763779527559
              },
              {
                  "duration": 0.18665813375000084,
                  "durationTicks": 5764,
                  "midi": 60,
                  "name": "C4",
                  "ticks": 2884800,
                  "time": 93.4197405,
                  "velocity": 0.8110236220472441
              },
              {
                  "duration": 0.17642496749999736,
                  "durationTicks": 5448,
                  "midi": 62,
                  "name": "D4",
                  "ticks": 2889600,
                  "time": 93.575181,
                  "velocity": 0.7637795275590551
              },
              {
                  "duration": 0.19248715249999293,
                  "durationTicks": 5944,
                  "midi": 60,
                  "name": "C4",
                  "ticks": 2894400,
                  "time": 93.73062150000001,
                  "velocity": 0.7795275590551181
              },
              {
                  "duration": 0.19679414968749143,
                  "durationTicks": 6077,
                  "midi": 57,
                  "name": "A3",
                  "ticks": 2904000,
                  "time": 94.0415025,
                  "velocity": 0.8740157480314961
              },
              {
                  "duration": 0.18309595562500647,
                  "durationTicks": 5654,
                  "midi": 55,
                  "name": "G3",
                  "ticks": 2913600,
                  "time": 94.3523835,
                  "velocity": 0.937007874015748
              },
              {
                  "duration": 0.18860114000000294,
                  "durationTicks": 5824,
                  "midi": 57,
                  "name": "A3",
                  "ticks": 2923200,
                  "time": 94.66326450000001,
                  "velocity": 0.9291338582677166
              },
              {
                  "duration": 0.20216980031248966,
                  "durationTicks": 6243,
                  "midi": 55,
                  "name": "G3",
                  "ticks": 2928000,
                  "time": 94.81870500000001,
                  "velocity": 0.7952755905511811
              },
              {
                  "duration": 0.19407394093749986,
                  "durationTicks": 5993,
                  "midi": 53,
                  "name": "F3",
                  "ticks": 2932800,
                  "time": 94.9741455,
                  "velocity": 0.905511811023622
              },
              {
                  "duration": 0.20825788656250666,
                  "durationTicks": 6431,
                  "midi": 55,
                  "name": "G3",
                  "ticks": 2937600,
                  "time": 95.129586,
                  "velocity": 0.8110236220472441
              },
              {
                  "duration": 0.20301176968750667,
                  "durationTicks": 6269,
                  "midi": 53,
                  "name": "F3",
                  "ticks": 2942400,
                  "time": 95.2850265,
                  "velocity": 0.8818897637795275
              },
              {
                  "duration": 0.1945273090624795,
                  "durationTicks": 6007,
                  "midi": 50,
                  "name": "D3",
                  "ticks": 2947200,
                  "time": 95.44046700000001,
                  "velocity": 0.9212598425196851
              },
              {
                  "duration": 0.20874363812498586,
                  "durationTicks": 6446,
                  "midi": 48,
                  "name": "C3",
                  "ticks": 2952000,
                  "time": 95.59590750000001,
                  "velocity": 0.8740157480314961
              },
              {
                  "duration": 0.15990941437499373,
                  "durationTicks": 4938,
                  "midi": 69,
                  "name": "A4",
                  "ticks": 2956800,
                  "time": 95.75134800000001,
                  "velocity": 0.8346456692913385
              },
              {
                  "duration": 0.2788537803125024,
                  "durationTicks": 8611,
                  "midi": 72,
                  "name": "C5",
                  "ticks": 2961600,
                  "time": 95.9067885,
                  "velocity": 0.8267716535433071
              },
              {
                  "duration": 0.2279794000000095,
                  "durationTicks": 7040,
                  "midi": 74,
                  "name": "D5",
                  "ticks": 2966400,
                  "time": 96.062229,
                  "velocity": 0.7795275590551181
              },
              {
                  "duration": 0.39022042187500006,
                  "durationTicks": 12050,
                  "midi": 72,
                  "name": "C5",
                  "ticks": 2971200,
                  "time": 96.2176695,
                  "velocity": 0.8740157480314961
              },
              {
                  "duration": 0.16402211093749486,
                  "durationTicks": 5065,
                  "midi": 69,
                  "name": "A4",
                  "ticks": 2980800,
                  "time": 96.52855050000001,
                  "velocity": 0.7952755905511811
              },
              {
                  "duration": 0.1727656390625043,
                  "durationTicks": 5335,
                  "midi": 67,
                  "name": "G4",
                  "ticks": 2990400,
                  "time": 96.8394315,
                  "velocity": 0.8582677165354331
              },
              {
                  "duration": 0.15569956749999392,
                  "durationTicks": 4808,
                  "midi": 69,
                  "name": "A4",
                  "ticks": 3000000,
                  "time": 97.15031250000001,
                  "velocity": 0.84251968503937
              },
              {
                  "duration": 0.16933299468749397,
                  "durationTicks": 5229,
                  "midi": 67,
                  "name": "G4",
                  "ticks": 3004800,
                  "time": 97.30575300000001,
                  "velocity": 0.8031496062992126
              },
              {
                  "duration": 0.20437187406250246,
                  "durationTicks": 6311,
                  "midi": 65,
                  "name": "F4",
                  "ticks": 3009600,
                  "time": 97.46119350000001,
                  "velocity": 0.7795275590551181
              },
              {
                  "duration": 0.1759715993749893,
                  "durationTicks": 5434,
                  "midi": 67,
                  "name": "G4",
                  "ticks": 3014400,
                  "time": 97.616634,
                  "velocity": 0.8503937007874016
              },
              {
                  "duration": 0.18856875656250338,
                  "durationTicks": 5823,
                  "midi": 65,
                  "name": "F4",
                  "ticks": 3019200,
                  "time": 97.7720745,
                  "velocity": 0.8582677165354331
              },
              {
                  "duration": 0.18225398625000366,
                  "durationTicks": 5628,
                  "midi": 62,
                  "name": "D4",
                  "ticks": 3024000,
                  "time": 97.927515,
                  "velocity": 0.8346456692913385
              },
              {
                  "duration": 0.175550614687495,
                  "durationTicks": 5421,
                  "midi": 60,
                  "name": "C4",
                  "ticks": 3028800,
                  "time": 98.08295550000001,
                  "velocity": 0.8740157480314961
              },
              {
                  "duration": 0.1879534712499975,
                  "durationTicks": 5804,
                  "midi": 62,
                  "name": "D4",
                  "ticks": 3033600,
                  "time": 98.23839600000001,
                  "velocity": 0.84251968503937
              },
              {
                  "duration": 0.18286927156250954,
                  "durationTicks": 5647,
                  "midi": 65,
                  "name": "F4",
                  "ticks": 3038400,
                  "time": 98.3938365,
                  "velocity": 0.8188976377952756
              },
              {
                  "duration": 0.15216977281251332,
                  "durationTicks": 4699,
                  "midi": 67,
                  "name": "G4",
                  "ticks": 3043200,
                  "time": 98.549277,
                  "velocity": 0.8818897637795275
              },
              {
                  "duration": 0.1660298840625103,
                  "durationTicks": 5127,
                  "midi": 65,
                  "name": "F4",
                  "ticks": 3048000,
                  "time": 98.7047175,
                  "velocity": 0.8503937007874016
              },
              {
                  "duration": 0.17237703781249536,
                  "durationTicks": 5323,
                  "midi": 67,
                  "name": "G4",
                  "ticks": 3057600,
                  "time": 99.01559850000001,
                  "velocity": 0.889763779527559
              },
              {
                  "duration": 0.16748713874999055,
                  "durationTicks": 5172,
                  "midi": 69,
                  "name": "A4",
                  "ticks": 3062400,
                  "time": 99.17103900000001,
                  "velocity": 0.8818897637795275
              },
              {
                  "duration": 0.13941069843750142,
                  "durationTicks": 4305,
                  "midi": 72,
                  "name": "C5",
                  "ticks": 3067200,
                  "time": 99.3264795,
                  "velocity": 0.7716535433070866
              },
              {
                  "duration": 0.13856872906251283,
                  "durationTicks": 4279,
                  "midi": 74,
                  "name": "D5",
                  "ticks": 3076800,
                  "time": 99.6373605,
                  "velocity": 0.8188976377952756
              },
              {
                  "duration": 0.13856872906249862,
                  "durationTicks": 4279,
                  "midi": 72,
                  "name": "C5",
                  "ticks": 3081600,
                  "time": 99.79280100000001,
                  "velocity": 0.8188976377952756
              },
              {
                  "duration": 0.1731866237499844,
                  "durationTicks": 5348,
                  "midi": 69,
                  "name": "A4",
                  "ticks": 3086400,
                  "time": 99.94824150000001,
                  "velocity": 0.937007874015748
              },
              {
                  "duration": 0.1731866237499986,
                  "durationTicks": 5348,
                  "midi": 67,
                  "name": "G4",
                  "ticks": 3091200,
                  "time": 100.103682,
                  "velocity": 0.937007874015748
              },
              {
                  "duration": 0.18008429593750463,
                  "durationTicks": 5561,
                  "midi": 65,
                  "name": "F4",
                  "ticks": 3096000,
                  "time": 100.2591225,
                  "velocity": 0.9133858267716536
              },
              {
                  "duration": 0.19281098687500275,
                  "durationTicks": 5954,
                  "midi": 62,
                  "name": "D4",
                  "ticks": 3100800,
                  "time": 100.414563,
                  "velocity": 0.8267716535433071
              },
              {
                  "duration": 0.18568663062498558,
                  "durationTicks": 5734,
                  "midi": 60,
                  "name": "C4",
                  "ticks": 3105600,
                  "time": 100.57000350000001,
                  "velocity": 0.8110236220472441
              }
          ],
          "endOfTrackTicks": 3686400
      }
  ]
}